<svg id="Layer_1" data-name="Layer 1" xmlns="http://www.w3.org/2000/svg" xmlns:xlink="http://www.w3.org/1999/xlink" viewBox="0 0 800 800"><defs><style>.cls-1{fill:#01000c;}.cls-1,.cls-2,.cls-3,.cls-4,.cls-5,.cls-6,.cls-7,.cls-8,.cls-9{stroke:#000;stroke-miterlimit:10;stroke-width:0.5px;}.cls-2{fill:#7c001d;}.cls-4{fill:url(#linear-gradient);}.cls-5{fill:url(#linear-gradient-2);}.cls-6{fill:url(#linear-gradient-3);}.cls-7{fill:url(#linear-gradient-4);}.cls-8{fill:none;}.cls-9{fill:#33ff2b;}</style><linearGradient id="linear-gradient" x1="562.43" y1="311.29" x2="562.43" y2="410.3" gradientUnits="userSpaceOnUse"><stop offset="0" stop-color="#bf0005"/><stop offset="0.58"/></linearGradient><linearGradient id="linear-gradient-2" x1="520.01" y1="367.86" x2="520.01" y2="456.64" xlink:href="#linear-gradient"/><linearGradient id="linear-gradient-3" x1="240.09" y1="313.43" x2="240.09" y2="399.03" xlink:href="#linear-gradient"/><linearGradient id="linear-gradient-4" x1="282.14" y1="371.16" x2="282.14" y2="450.83" xlink:href="#linear-gradient"/></defs><title>bee-level1</title><path class="cls-1" d="M451.59,430.79c0,1.61,0,3.2-.09,4.77a238.8,238.8,0,0,1-4.73,41.86c-32.54-25.26-71.64-6.85-88.94,3.76a182.82,182.82,0,0,1-4.24-48.72,152.86,152.86,0,0,1,22.52-7.78C397.77,419.05,425.07,417.42,451.59,430.79Z"/><path class="cls-2" d="M446.77,477.43C434.68,535,404.09,547,404.09,547c-27.58-14.79-40.47-41.13-46.26-65.8C375.13,470.58,414.24,452.16,446.77,477.43Z"/><path class="cls-3" d="M429,371.27a53.16,53.16,0,0,1-.27,5.35,46,46,0,0,1-.64,4.69c0,.2-.07.4-.11.6a46.86,46.86,0,0,0-23.23-6.21h-3.62a45.37,45.37,0,0,0-10.74,1.26c-.18-.11-.35-.24-.53-.38-.4.29-.8.55-1.22.82h0a46,46,0,0,0-11.56,5A54.54,54.54,0,0,1,376,371.27v-.33a54,54,0,0,1,1.9-14,42.82,42.82,0,0,1,1.37-4.22c.13-.4.29-.77.44-1.17,4.64-11.34,13.11-18.92,22.81-18.92s18.15,7.58,22.77,18.88v0c.33.82.66,1.61,1,2.48s.64,1.9.91,2.92v0a52.35,52.35,0,0,1,1.79,11C429,369,429,370.12,429,371.27Z"/><path class="cls-2" d="M429,342.53c0,1.5-.07,3-.18,4.44a51.24,51.24,0,0,1-.93,6.54c-.22,1.15-.49,2.28-.8,3.36-.27-1-.57-2-.91-2.92s-.62-1.66-1-2.48v0c-4.62-11.29-13.09-18.88-22.77-18.88s-18.17,7.58-22.81,18.92c-.15.4-.31.77-.44,1.17a42.82,42.82,0,0,0-1.37,4.22,49.53,49.53,0,0,1-1.11-4.91,44,44,0,0,1-.57-4.62v0c-.15-1.57-.22-3.18-.22-4.82,0-15.45,6.23-28.8,15.23-35a19.74,19.74,0,0,1,11.29-3.69,20.48,20.48,0,0,1,13.37,5.28C423.76,315.85,429,328.3,429,342.53Z"/><path class="cls-2" d="M451.61,422.5c0,2.83,0,5.59,0,8.29-26.52-13.37-53.82-11.74-75.48-6.1a152.86,152.86,0,0,0-22.52,7.78c0-.35,0-.69,0-1,.29-5.61.73-9,.73-9a46.85,46.85,0,0,1,22.74-40.16,46,46,0,0,1,11.56-5h0a15.53,15.53,0,0,1,1.75-.44,45.37,45.37,0,0,1,10.74-1.26h3.62A46.86,46.86,0,0,1,428,381.9,47.28,47.28,0,0,1,451.61,422.5Z"/><path class="cls-4" d="M610.18,410.3c-16.11-17.84-142-36.16-181.25-42.44a52.35,52.35,0,0,0-1.79-11v0c.31-1.08.57-2.21.8-3.36,51.59-13.42,242.78-60.94,265.7-34.19C714.75,344,649,391,610.18,410.3Z"/><path class="cls-5" d="M611.86,414.37c-2.21,22.1-39.79,59.68-84,33.15-27.78-16.67-71.24-46.42-99.73-66.22a46,46,0,0,0,.64-4.69,53.16,53.16,0,0,0,.27-5.35c0-1.15,0-2.28-.11-3.4,39.26,6.28,165.13,24.6,181.25,42.44A5.41,5.41,0,0,1,611.86,414.37Z"/><path class="cls-6" d="M377.9,356.9a54,54,0,0,0-1.9,14c-.35.11-.71.22-1.06.31h0c-33.13,2.81-118,11.36-161.35,27.76h-.09c-49.09.66-92.92-9.66-107.78-44.32-35.65-83.2,218-17.28,271.1-2.7A49.53,49.53,0,0,0,377.9,356.9Z"/><path class="cls-7" d="M377.1,382.34a46.86,46.86,0,0,0-12.4,10.81c-26.81,17.57-60.28,39.45-66.71,43.32-11.05,6.63-79.57,33.15-108.31-8.84C181.86,416.2,193,406.72,213.47,399h.09c43.34-16.4,128.22-25,161.35-27.76h0c.35,0,.71-.07,1.06-.09v.11A54.54,54.54,0,0,0,377.1,382.34Z"/><path class="cls-8" d="M328.94,542.57s-9.84-79.22,22.37-109.08c.75-.71,1.53-1.39,2.32-2"/><path class="cls-8" d="M451.5,431.14c12.55,5.5,29,27.21,18.9,107"/><path class="cls-8" d="M428.87,347c16.75-21,53.49-65.69,70.27-74.07"/><path class="cls-8" d="M415.89,309.13c7.58-14,29.44-49.07,61.14-56.12"/><path class="cls-8" d="M326.73,253c30.33,3.8,57.42,43.37,64.5,54.53"/><path class="cls-8" d="M293.57,277.33c19.14-1.75,64.28,48.52,82.64,70"/><ellipse class="cls-3" cx="389.72" cy="492.83" rx="5.53" ry="3.32"/><ellipse class="cls-3" cx="408.51" cy="486.2" rx="4.42" ry="3.32"/><ellipse class="cls-3" cx="409.62" cy="502.78" rx="3.32" ry="4.42"/><circle class="cls-3" cx="398.56" cy="517.15" r="5.53"/><ellipse class="cls-3" cx="428.4" cy="495.04" rx="4.42" ry="3.32"/><ellipse class="cls-3" cx="428.4" cy="477.36" rx="2.21" ry="5.53"/><ellipse class="cls-3" cx="391.93" cy="481.78" rx="7.74" ry="3.32"/><circle class="cls-3" cx="377.57" cy="491.73" r="4.42"/><circle class="cls-3" cx="383.09" cy="512.73" r="3.32"/><ellipse class="cls-3" cx="402.98" cy="537.04" rx="5.53" ry="3.32"/><ellipse class="cls-3" cx="418.46" cy="527.09" rx="3.32" ry="4.42"/><ellipse class="cls-3" cx="423.98" cy="514.94" rx="4.42" ry="3.32"/><ellipse class="cls-3" cx="416.25" cy="476.26" rx="3.32" ry="4.42"/><ellipse class="cls-9" cx="389.72" cy="433.15" rx="3.32" ry="5.53"/><ellipse class="cls-9" cx="375.36" cy="445.31" rx="6.63" ry="4.42"/><ellipse class="cls-9" cx="418.46" cy="445.31" rx="5.53" ry="4.42"/><ellipse class="cls-9" cx="396.35" cy="451.94" rx="5.53" ry="4.42"/><ellipse class="cls-9" cx="444.98" cy="442" rx="3.32" ry="5.53"/><circle class="cls-9" cx="432.82" cy="460.78" r="4.42"/><ellipse class="cls-9" cx="370.94" cy="461.89" rx="4.42" ry="5.53"/><ellipse class="cls-9" cx="408.51" cy="433.15" rx="4.42" ry="5.53"/><ellipse class="cls-9" cx="433.93" cy="434.26" rx="3.32" ry="4.42"/><ellipse class="cls-9" cx="360.99" cy="438.68" rx="5.53" ry="4.42"/><circle class="cls-9" cx="415.14" cy="458.57" r="4.42"/><circle class="cls-9" cx="401.88" cy="319.32" r="6.63"/></svg>