<svg id="Layer_1" data-name="Layer 1" xmlns="http://www.w3.org/2000/svg" viewBox="0 0 800 800"><defs><style>.cls-1,.cls-2,.cls-3{stroke:#000;stroke-miterlimit:10;stroke-width:0.25px;}.cls-2{fill:#5f007c;}.cls-3{fill:#cd4e00;}</style></defs><title>orange beelte-level3</title><path class="cls-1" d="M485.11,298.34c-2.55,13.82-8.75,32.18-23.62,47.78-28.05,29.46-58.91,15.43-54.71,54.71,1.81,16.94.49,54,1.23,92.48-4.49,6-9.22,12.32-13.82,18.49,4.08-51.28,6.92-103.3,5.57-119.39-2.81-33.67-43.48-19.64-64.53-56.11a149.31,149.31,0,0,1-11.7-24.86c-1.11-3.21-2-6.13-2.61-8.78a62.19,62.19,0,0,1-1.63-9.73c.35-.34.72-.63,1.07-.94a83.73,83.73,0,0,0,3.23,12.6h0a83.26,83.26,0,0,0,3.25,8.09A84.19,84.19,0,0,0,484.8,298.36Z"/><path class="cls-1" d="M420.53,591.77a121.64,121.64,0,0,1-34,.08c1-8.4,2-17.84,3-27.91h0c1.61-16.23,3.2-34.14,4.63-52.13,4.6-6.17,9.33-12.5,13.82-18.49.28,14.93.87,30.07,2.08,44.33C411.89,558.83,415,578.07,420.53,591.77Z"/><path class="cls-2" d="M410.09,537.63l-20.52,26.29c1.61-16.23,3.2-34.14,4.63-52.13,4.6-6.17,9.33-12.5,13.82-18.49C408.29,508.23,408.88,523.38,410.09,537.63Z"/><path class="cls-2" d="M417.34,243.59c-17.58,19.12-29.79,8.74-35.31,1.32h0c.83-1.4,1.09-2.69.9-2.58,12.62-19.64,29.46-5.61,32.26-1.4A16.64,16.64,0,0,0,417.34,243.59Z"/><path class="cls-1" d="M443.25,262a27.44,27.44,0,0,1-.34,5.2c-4.94,30.59-61.4,36.63-79.62,13a33.84,33.84,0,0,1-5.82-10.74c-3.18-10.53,2.43-18.05,8-21.57,3-1.91,6.09-2.65,7.74-2a1.79,1.79,0,0,1,1.26,2.1c3.94,1.25,6.31-1,7.52-3,5.51,7.42,17.73,17.8,35.31-1.32,1.37,1.29,3,1.95,4.52.34,1.05-1.09,2.89-.81,4.4-.94a18.73,18.73,0,0,1,5.71.21,12.3,12.3,0,0,1,5.44,2.64C440.47,248.42,443,253.2,443.25,262Z"/><path class="cls-3" d="M483.93,217.07c-7,8.42-18.24,19.64-25.25,22.44-6.45,2.58-11.71-.77-21.27,6.33A12.3,12.3,0,0,0,432,243.2c3.21-3.73,8.49-9.3,11.28-9.3,4.21,0,11.22,1.4,15.43-4.21s9.82-16.83,15.43-21S490.94,208.65,483.93,217.07Z"/><path class="cls-3" d="M373.25,245.81h0c-1.66-.6-4.7.14-7.74,2a22,22,0,0,1-3.62-4.15c-2.81-4.21-9.82-2.81-15.43-1.4s-19.64-14-26.65-22.44,0-12.62,7-12.62,12.62,25.25,26.65,28.05S373.25,245.81,373.25,245.81Z"/><path class="cls-2" d="M486.09,291.92c-.08.62-.17,1.26-.25,1.92a.18.18,0,0,0,0,.08c-.31,1.49-.65,3-1,4.43a84.19,84.19,0,0,1-157.95,14.34,83.26,83.26,0,0,1-3.25-8.09h0a83.73,83.73,0,0,1-3.23-12.6c.73-.62,1.46-1.23,2.2-1.82q3.18-2.61,6.48-5c.73-.53,1.46-1.05,2.2-1.57s1.5-1,2.26-1.53c2.27-1.53,4.6-3,6.94-4.32.67-.41,1.37-.79,2.06-1.18.42-.25.86-.48,1.28-.7.79-.43,1.57-.86,2.37-1.26l.13-.07c.79-.41,1.59-.81,2.38-1.19l1.59-.77,2.23-1c1.66-.74,3.31-1.44,5-2.12a33.84,33.84,0,0,0,5.82,10.74c18.22,23.59,74.68,17.56,79.62-13,.93.32,1.85.65,2.76,1a124.42,124.42,0,0,1,14.7,6.48c.83.42,1.66.87,2.48,1.32q1,.53,2,1.09c.46.27.93.52,1.37.8q4.17,2.42,8.18,5.16c.81.56,1.63,1.12,2.43,1.7,1.28.91,2.54,1.85,3.8,2.82.52.39,1,.81,1.57,1.22s1.16.93,1.74,1.4C484.66,290.71,485.38,291.31,486.09,291.92Z"/><path class="cls-1" d="M516.56,292.09c-6.2,3.07-15.09,4.76-24,5.67q-3.14-3-6.4-5.77l-.08-.07c-.72-.6-1.43-1.21-2.16-1.78.74-.67,1.6-1.46,2.57-2.31,2.23-2,5-4.29,8-6.59,8.84-6.69,19.89-13.09,26.06-9.08a8.51,8.51,0,0,1,3,3.7,15.94,15.94,0,0,1,1,2.93C526,284.86,522.55,289.13,516.56,292.09Z"/><path class="cls-1" d="M523.63,275.86a8.51,8.51,0,0,0-3-3.7c.74-8.63,3.75-37.1,11.33-33.39a4.94,4.94,0,0,1,1.11.74,12.31,12.31,0,0,1,3.21,4.21h0C540.45,252.57,534.48,266.26,523.63,275.86Z"/><path class="cls-1" d="M542.84,229.69c-4.28,4.28-5.95,10.11-6.61,14a12.31,12.31,0,0,0-3.21-4.21,4.94,4.94,0,0,0-1.11-.74c2.62-32.16,17.94-24.51,17.94-24.51C555.47,214.26,549.86,222.68,542.84,229.69Z"/><path class="cls-1" d="M562.48,351.73l-.17.35c-4.05,8.15-17.37,9.82-28.66,9.64a180.43,180.43,0,0,0-8.71-20.12c8.35-.74,30.94-2.13,36.82,3.9C563.28,347,563.69,349.08,562.48,351.73Z"/><path class="cls-1" d="M606,357.34a116.38,116.38,0,0,1-12.57-2.29c-.5-.11-1-.24-1.44-.35a12.28,12.28,0,0,0,0-4.05s0,0,0,0a11.1,11.1,0,0,0-.22-1.11c4.67.52,12.41.81,17.06-2,7-4.21,15.43-11.22,16.83-4.21S617.19,358.74,606,357.34Z"/><path class="cls-1" d="M592,354.7c-.81,4.8-4.84,7.7-11.24,4-5.34-3.06-12.75-5.27-18.4-6.66l.17-.35c1.21-2.65.8-4.69-.72-6.23,6.34-1.77,25.12-6.35,28.69.62h0a15.22,15.22,0,0,1,1.26,3.37,11.1,11.1,0,0,1,.22,1.11s0,0,0,0A12.28,12.28,0,0,1,592,354.7Z"/><path class="cls-1" d="M565.29,462.55l-.46.21a50.28,50.28,0,0,1-12.44,3.8,53.37,53.37,0,0,1-11.7.67,189.87,189.87,0,0,0,3.94-29.71C557.31,442.28,583.59,454,565.29,462.55Z"/><path class="cls-1" d="M580.72,499a10.54,10.54,0,0,1-3.65,8.42,10.74,10.74,0,0,1-6.07,2.48,8.32,8.32,0,0,1-4.76-.88c-4.66-2.61-1-10-1-22.64,0-9.82-8.47-17.09-12.91-19.83a50.28,50.28,0,0,0,12.44-3.8c9.27,8.56,14,21.53,15.44,30.82A36.47,36.47,0,0,1,580.72,499Z"/><path class="cls-1" d="M591.94,543.9q-2.1,4.21-12.62-8.42c-6-7.18-7.88-21.53-8.32-25.57a10.74,10.74,0,0,0,6.07-2.48,212.89,212.89,0,0,0,10.66,19.64C594.75,538.29,593.34,541.1,591.94,543.9Z"/><path class="cls-1" d="M265.82,467c-7.07,4.92-16.86,10.06-24.25,7.36a11.94,11.94,0,0,1-5.92-4.83,12.32,12.32,0,0,1-1.22-2.31c-4.59-11.9,17.09-21.38,27.79-25.25A188.92,188.92,0,0,0,265.82,467Z"/><path class="cls-1" d="M228.49,512c-.11,2-.28,4-.51,6-1,8.84-3,17.72-5,21.69-2.81,5.61-9.82,9.82-15.43,7s-5.61-9.82,2.81-14c7.43-3.72,12.13-18.74,13.12-22.18a5.5,5.5,0,0,0,.83.52A6,6,0,0,0,228.49,512Z"/><path class="cls-1" d="M241.57,474.38c-10.32,10.45-5.65,36-13.07,37.59a6,6,0,0,1-4.15-1,5.5,5.5,0,0,1-.83-.52c-2.37-1.67-3.35-4.36-3.42-7.64h0s0,0,0,0h0c-.22-11.4,10.65-29.65,14.35-35.56a12.32,12.32,0,0,0,1.22,2.31A11.94,11.94,0,0,0,241.57,474.38Z"/><path class="cls-1" d="M278.19,348.71q-3.05,6.69-5.57,13.75c-10.8,1.78-35,4.92-34.42-2.79a7.6,7.6,0,0,1,1.66-3.73,26.64,26.64,0,0,1,3.61-4h0C254.11,342.32,271.63,341.67,278.19,348.71Z"/><path class="cls-1" d="M243.46,351.93a26.64,26.64,0,0,0-3.61,4,7.6,7.6,0,0,0-1.66,3.73c-5.85,1.3-13.63,2.51-20,1.61a15.92,15.92,0,0,1-7.6-2.82h0a9.09,9.09,0,0,1-3-3.93,7,7,0,0,1-.42-1.47c-1.05-7,13.87-5.55,26-3.32C237.12,350.47,240.75,351.28,243.46,351.93Z"/><path class="cls-1" d="M210.61,358.46c-9.24,3-30.23,2.1-35.28-6.73-5.61-9.82,12.62-7,14-2.81,1,3.13,12.18,3.93,17.81,4.14a7,7,0,0,0,.42,1.47A9.09,9.09,0,0,0,210.61,358.46Z"/><path class="cls-1" d="M315.53,296.31c-2.88,2.64-5.65,5.43-8.33,8.33-3.24-1.47-6.45-3-9.5-4.61-14-7.34-24.74-15.75-19.57-22.86a8.38,8.38,0,0,1,1-1.18,14.79,14.79,0,0,1,4.14-3c10.17-4.78,21.42,7.11,28,16.57A72.49,72.49,0,0,1,315.53,296.31Z"/><path class="cls-1" d="M283.27,273a14.79,14.79,0,0,0-4.14,3,8.38,8.38,0,0,0-1,1.18c-13.26-11.18-14.43-20.1-14.43-27.83a5.09,5.09,0,0,1,3.53-5,7.32,7.32,0,0,1,3.7-.24c3.56.65,6.8,3.8,5.39,9.48C274.4,261.23,279.72,268.91,283.27,273Z"/><path class="cls-1" d="M270.94,244.06a7.32,7.32,0,0,0-3.7.24c-3.55-10-19.61-19.72-13.35-27.23C259.52,210.31,267.88,234.36,270.94,244.06Z"/><path class="cls-3" d="M544.92,426.78c0,3.61-.1,7.2-.29,10.74a189.87,189.87,0,0,1-3.94,29.71c-14,65.9-61.58,116.2-120.16,124.53-5.5-13.69-8.64-32.94-10.44-54.13-1.21-14.25-1.8-29.4-2.08-44.33-.74-38.46.58-75.54-1.23-92.48-4.21-39.28,26.65-25.25,54.71-54.71,14.87-15.6,21.07-34,23.62-47.78q.42-2.31.72-4.42a.18.18,0,0,1,0-.08l.34-1.85q3.26,2.78,6.4,5.77a162.21,162.21,0,0,1,32.38,43.85,180.43,180.43,0,0,1,8.71,20.12A190.65,190.65,0,0,1,544.92,426.78Z"/><path class="cls-3" d="M394.2,511.8c-1.43,18-3,35.9-4.63,52.13h0c-1,10.07-2,19.51-3,27.91C327.67,583.73,279.83,533.22,265.82,467a188.92,188.92,0,0,1-3.61-25q-.59-7.51-.59-15.22a190.72,190.72,0,0,1,11-64.32q2.5-7,5.57-13.75a165.7,165.7,0,0,1,29-44.07c2.68-2.9,5.46-5.7,8.33-8.33,1.23-1.18,2.5-2.3,3.77-3.38a62.19,62.19,0,0,0,1.63,9.73c.65,2.65,1.5,5.57,2.61,8.78a149.31,149.31,0,0,0,11.7,24.86c21,36.47,61.72,22.44,64.53,56.11C401.11,408.5,398.28,460.51,394.2,511.8Z"/><polygon class="cls-2" points="318.3 402.54 296.62 400.9 291.48 379.77 309.98 368.35 326.56 382.42 318.3 402.54"/><polygon class="cls-3" points="350.38 449.62 323.29 446.84 317.56 420.21 341.11 406.53 361.4 424.71 350.38 449.62"/><polygon class="cls-2" points="369 517.91 330.12 522.42 313.82 486.83 342.63 460.33 376.73 479.54 369 517.91"/><polygon class="cls-2" points="491.62 479.63 436.54 472.18 426.6 417.5 475.54 391.15 515.72 429.55 491.62 479.63"/><polygon class="cls-3" points="467.82 526.19 451.73 520.64 452.03 503.63 468.31 498.66 478.06 512.6 467.82 526.19"/><polygon class="cls-1" points="439.88 568.61 425.45 568.52 421.08 554.76 432.81 546.36 444.43 554.92 439.88 568.61"/><polygon class="cls-1" points="515.41 375.12 488.45 392.11 463.96 371.71 475.8 342.12 507.59 344.23 515.41 375.12"/><polygon class="cls-3" points="311.06 350.29 295.02 351.4 289.01 336.49 301.33 326.16 314.96 334.69 311.06 350.29"/><polygon class="cls-3" points="300.71 423.75 287.63 421.15 286.06 407.91 298.18 402.32 307.23 412.12 300.71 423.75"/><polygon class="cls-3" points="289.33 476 275.61 477.8 269.66 465.3 279.71 455.78 291.87 462.4 289.33 476"/><polygon class="cls-1" points="359.17 553.09 338.38 560.53 324.88 543.06 337.33 524.82 358.52 531.01 359.17 553.09"/><polygon class="cls-1" points="381.94 399.44 366.49 401.03 360.2 386.83 371.76 376.46 385.19 384.25 381.94 399.44"/><polygon class="cls-3" points="379.35 449.62 365.99 448.97 362.48 436.07 373.66 428.74 384.09 437.11 379.35 449.62"/><polygon class="cls-3" points="439.88 388.06 427.14 393.26 418.25 382.75 425.5 371.05 438.87 374.33 439.88 388.06"/><polygon class="cls-3" points="438.33 511.18 418.95 509.31 414.74 490.31 431.51 480.43 446.09 493.33 438.33 511.18"/><polygon class="cls-3" points="468.85 557.75 455.39 555.61 453.26 542.14 465.41 535.96 475.04 545.6 468.85 557.75"/><polygon class="cls-3" points="506.1 521.01 488.58 510.95 492.75 491.18 512.83 489.03 521.09 507.46 506.1 521.01"/><polygon class="cls-3" points="528.35 466.17 515.88 456.43 521.29 441.57 537.1 442.12 541.46 457.33 528.35 466.17"/><polygon class="cls-1" points="313.65 456.35 295.01 459.33 286.42 442.53 299.74 429.16 316.57 437.7 313.65 456.35"/><polygon class="cls-3" points="307.44 513.77 291.6 515.88 284.7 501.47 296.27 490.45 310.33 498.06 307.44 513.77"/><polygon class="cls-3" points="360.73 576.37 362.18 565.54 372.93 563.58 378.12 573.2 370.57 581.1 360.73 576.37"/></svg>