<svg id="Layer_1" data-name="Layer 1" xmlns="http://www.w3.org/2000/svg" viewBox="0 0 800 800"><defs><style>.cls-1{fill:#bd5e31;}.cls-1,.cls-2,.cls-3,.cls-4,.cls-5,.cls-6,.cls-7{stroke:#000;stroke-miterlimit:10;stroke-width:0.5px;}.cls-2{fill:#ce6c37;}.cls-3{fill:#71007f;}.cls-4{fill:#ff5a0c;}.cls-5{fill:none;}.cls-6{fill:#091b00;}.cls-7{fill:#fff;}</style></defs><title>Orange beetle</title><path class="cls-1" d="M394.37,566.32a54.15,54.15,0,0,0,18.94-.61,2.25,2.25,0,0,0,1.26-3.88c6-10.57,12.58-22,16.19-33.65a49.18,49.18,0,0,0,7,1c7.46.68,15.35,1.07,22.79,0,2.36-.33,24.35-4,18.28-10.36,1.23-1.63.66-4.15-1.42-4.43-9.87-1.3-19.39,1.18-29.1,2.59a124.27,124.27,0,0,1-14.1,1.66c-3.33.1-6.6,0-9.67,1.39a2.78,2.78,0,0,0-1.5,3.72C420,531,418,538.76,415.51,546.09c-1.65,4.95-4,10-5.18,15.21-5.39.41-11,2.35-16.06,3.75A.66.66,0,0,0,394.37,566.32Z"/><path class="cls-1" d="M348.88,487a3.36,3.36,0,0,0-4.31-1.59c-6.93,2.35-12.34,7.58-19.22,10.33A149.91,149.91,0,0,1,303,502.63c-7,1.59-13.72,4.45-20.85,5.12-.17-.11-.36-.2-.53-.31a1.26,1.26,0,0,0-1.8.46.73.73,0,0,0,0,1.45,1.36,1.36,0,0,0,.17.25c.43.45,1,.92,1.54,1.41-9.65,1.16-19.21,3.42-29,3.6-2.57,0-4,2.71-3.52,4.8-4.56,4.56-9.34,8.9-13.34,14-1.94,2.47-3.32,5-5.76,7.06a17.22,17.22,0,0,0-4.61,5.21c-1,1.88,1.08,4.34,3.06,3.06,6.38-4.14,11.2-10,16.76-15.13,3.81-3.49,8-6.85,10.88-11.12,13.25,1.75,24.76.87,37.56-3.57,2.24,1.17,4,1.91,4.59,1.79,12.62-2.49,25.21-9.87,36-16.66C337.69,501.79,351.79,493.16,348.88,487Z"/><path class="cls-1" d="M194.64,334.29a3.36,3.36,0,0,0,2.57-3.8c-.63-7.29-4.41-13.8-5.43-21.13A149.91,149.91,0,0,1,190.46,286c.12-7.14-1-14.39,0-21.47.14-.14.28-.3.43-.44a1.26,1.26,0,0,0,0-1.86.73.73,0,0,0-1.4-.39,1.36,1.36,0,0,0-.28.11c-.54.31-1.13.72-1.74,1.16,1.19-9.65,1.27-19.47,3.43-29,.57-2.51-1.69-4.5-3.82-4.57-3.34-5.51-6.41-11.2-10.39-16.29-1.93-2.47-4.05-4.42-5.48-7.28a17.22,17.22,0,0,0-4-5.72c-1.59-1.4-4.47,0-3.7,2.24,2.49,7.19,7.06,13.27,10.68,19.89,2.48,4.53,4.74,9.39,8.2,13.22-4.86,12.45-6.76,23.84-5.51,37.32-1.68,1.9-2.81,3.44-2.84,4-.6,12.85,3.56,26.84,7.58,38.91C183,319.89,188,335.65,194.64,334.29Z"/><path class="cls-2" d="M403.87,512.62a3.36,3.36,0,0,0-4.31-1.59c-6.93,2.35-12.34,7.58-19.22,10.33A149.91,149.91,0,0,1,358,528.21c-7,1.59-13.72,4.45-20.85,5.12-.17-.11-.36-.2-.53-.31a1.26,1.26,0,0,0-1.8.46.73.73,0,0,0,0,1.45,1.37,1.37,0,0,0,.17.25c.43.45,1,.92,1.54,1.41-9.65,1.16-19.21,3.42-29,3.6-2.57,0-4,2.71-3.52,4.8-4.56,4.56-9.34,8.9-13.34,14-1.94,2.47-3.32,5-5.76,7.06a17.22,17.22,0,0,0-4.61,5.21c-1,1.88,1.08,4.34,3.06,3.06,6.38-4.14,11.2-10,16.76-15.13,3.81-3.49,8-6.85,10.88-11.12,13.25,1.75,24.76.87,37.56-3.57,2.24,1.18,4,1.91,4.59,1.79,12.62-2.49,25.21-9.87,36-16.66C392.68,527.37,406.78,518.74,403.87,512.62Z"/><path class="cls-2" d="M556.37,592.12c-3.95-3.45-8.18-7.63-12.86-10.33,1.19-5.17,1.25-10.78,1.9-16,1-7.67,2.52-15.55,2.85-23.32a2.78,2.78,0,0,0,.25-4c-2.15-2.61-5.16-3.91-8.12-5.44a124.25,124.25,0,0,1-12-7.6c-8.14-5.47-15.66-11.82-25.12-14.92-2-.65-3.61,1.37-3.21,3.21-8.21,3.27,10,16.1,12,17.42,6.26,4.15,13.55,7.21,20.56,9.82a49.1,49.1,0,0,0,6.76,2.09c-1.76,12-.78,25.22.05,37.34a2.25,2.25,0,0,0-.54,4,54.14,54.14,0,0,0,16.81,8.74A.66.66,0,0,0,556.37,592.12Z"/><path class="cls-2" d="M631.66,548.83c-4.77-2.17-10-5-15.28-6.2-.34-5.29-1.89-10.69-2.76-15.84-1.28-7.62-2.05-15.61-4-23.16a2.78,2.78,0,0,0-.91-3.91c-2.81-1.89-6.07-2.26-9.34-2.88A124.21,124.21,0,0,1,585.74,493c-9.37-2.9-18.39-6.83-28.34-7.08-2.1-.05-3.06,2.35-2.15,4-6.92,5.48,14.22,12.54,16.51,13.23,7.19,2.18,15,3,22.51,3.5a49.1,49.1,0,0,0,7.08.06c1.76,12,6.5,24.39,10.77,35.76a2.25,2.25,0,0,0,.64,4,54.15,54.15,0,0,0,18.61,3.55A.66.66,0,0,0,631.66,548.83Z"/><path class="cls-3" d="M329.48,465.25a67.8,67.8,0,0,1-14.35,25.29c-8.55,9.49-19.38,15.06-31.38,17.82-2.38.54-4.82,1-7.3,1.3-11.31,1.51-23.42.83-35.44-1.2-37.7-6.42-74.56-26.3-84.07-34.45-16.53-14.17-68.47-28.33-7.08-127.49,23.85-38.53,50.55-50,74.27-49.53,25.4.43,47.38,14.43,58.88,23.35a99.51,99.51,0,0,1,8.5,7.3C311.32,355.35,344.4,417.93,329.48,465.25Z"/><path class="cls-4" d="M635,304.87q-4-2-8-3.82c-171.29-80-301-11.57-345,19.29-11.5-8.92-33.48-22.92-58.88-23.35,12.47-13.15,42.47-39,96-54,22.1-6.19,48.21-10.48,78.76-11.26,27.1-.71,57.7,1.37,92.08,7.37,63.3,11,108.25,34.47,140.12,61.5C631.81,302,633.44,303.43,635,304.87Z"/><path class="cls-5" d="M702,439.25c-21,26.68-71.42,65.49-190.69,83.15-129.07,19.12-201.15.59-235.81-12.75,2.48-.33,4.91-.76,7.3-1.3C348.64,559.66,657.8,454.65,702,439.25Z"/><path class="cls-4" d="M706.63,432.85c-1.35,2-2.9,4.16-4.67,6.4-44.15,15.39-353.31,120.41-419.21,69.1,12-2.76,22.83-8.33,31.38-17.82a67.8,67.8,0,0,0,14.35-25.29c6.14-19.43,4.16-41.46-1.68-62.56C321.65,384,313.46,365.95,305.17,351a242.15,242.15,0,0,0-14.66-23.42,99.51,99.51,0,0,0-8.5-7.3,313.73,313.73,0,0,1,74.37-37.7,329.48,329.48,0,0,1,65.7-16c56.78-7.79,126.5-2.29,205,34.38q4,1.84,8,3.82A227.71,227.71,0,0,1,702,411.94,179.74,179.74,0,0,1,706.63,432.85Z"/><path class="cls-6" d="M702,439.25c-21,26.68-71.42,65.49-190.69,83.15-129.07,19.12-201.15.59-235.81-12.75,2.48-.33,4.91-.76,7.3-1.3C348.64,559.66,657.8,454.65,702,439.25Z"/><path class="cls-6" d="M374.32,367.76a36.58,36.58,0,0,1-47.53,34.92C321.65,384,313.46,365.95,305.17,351a36.6,36.6,0,0,1,69.15,16.72Z"/><path class="cls-6" d="M431,291a37.77,37.77,0,1,1-74.61-8.4,329.48,329.48,0,0,1,65.7-16A37.65,37.65,0,0,1,431,291Z"/><circle class="cls-6" cx="498.27" cy="360.68" r="41.32"/><circle class="cls-6" cx="587.99" cy="436.23" r="34.23"/><path class="cls-6" d="M662.12,333.79A29.52,29.52,0,1,1,627,301c1-.19,2.05-.35,3.09-.45,1.68,1.42,3.31,2.83,4.91,4.27A226.83,226.83,0,0,1,662.12,333.79Z"/><circle class="cls-6" cx="663.54" cy="398.46" r="12.99"/><circle class="cls-6" cx="415.64" cy="440.95" r="29.51"/><circle class="cls-6" cx="413.28" cy="379.57" r="15.35"/><circle class="cls-6" cx="503" cy="443.31" r="15.35"/><circle class="cls-6" cx="355.44" cy="489.35" r="18.89"/><path class="cls-6" d="M397.93,231.73V232a40.15,40.15,0,0,1-78.76,11C341.27,236.8,367.38,232.51,397.93,231.73Z"/><circle class="cls-6" cx="278.71" cy="287.49" r="15.35"/><circle class="cls-6" cx="448.69" cy="249.72" r="8.26"/><path class="cls-1" d="M246.64,334.29a3.36,3.36,0,0,0,2.57-3.8c-.63-7.29-4.41-13.8-5.43-21.13A149.91,149.91,0,0,1,242.46,286c.12-7.14-1-14.39,0-21.47.14-.14.28-.3.43-.44a1.26,1.26,0,0,0,0-1.86.73.73,0,0,0-1.4-.39,1.36,1.36,0,0,0-.28.11c-.54.31-1.13.72-1.74,1.16,1.19-9.65,1.27-19.47,3.43-29,.57-2.51-1.69-4.5-3.82-4.57-3.34-5.51-6.41-11.2-10.39-16.29-1.93-2.47-4.05-4.42-5.48-7.28a17.22,17.22,0,0,0-4-5.72c-1.59-1.4-4.47,0-3.7,2.24,2.49,7.19,7.06,13.27,10.68,19.89,2.48,4.53,4.74,9.39,8.2,13.22-4.86,12.45-6.76,23.84-5.51,37.32-1.68,1.9-2.81,3.44-2.84,4-.6,12.85,3.56,26.84,7.58,38.91C235,319.89,240,335.65,246.64,334.29Z"/><ellipse class="cls-6" cx="203.5" cy="392.5" rx="23" ry="21"/><circle class="cls-7" cx="205" cy="393" r="10.5" transform="translate(-217.85 260.06) rotate(-45)"/></svg>