<svg id="Layer_1" data-name="Layer 1" xmlns="http://www.w3.org/2000/svg" viewBox="0 0 800 800"><defs><style>.cls-1{fill:#850007;}.cls-1,.cls-2,.cls-3{stroke:#000;stroke-miterlimit:10;stroke-width:0.5px;}.cls-3{fill:#25ff3c;}</style></defs><title>scorpion-level4</title><path class="cls-1" d="M410.82,526.71c-3.26-6.72-8.49-9.8-16.62-6-1.59.73-5.29,7.1-8.16,16.64l-.07-.19c-18.45-46.58-9.31-67.54-3.51-75.14a39.82,39.82,0,0,0,20.41-1.58c4.67,4.8,7.76,13,9,21.47C412.78,488.51,412.77,508.84,410.82,526.71Z"/><path class="cls-2" d="M414.25,587.16c-6.83-2.6-14.69-.55-17.84,19.27-2.93-3.06-6.07-8.25-9.26-16.41-7.58-19.29-5.17-39.18-1.1-52.69h0c2.87-9.54,6.57-15.92,8.16-16.64,8.13-3.76,13.36-.68,16.62,6C417.6,540.69,415.87,570.48,414.25,587.16Z"/><path class="cls-1" d="M438.09,641c-5.1,0-10.92,2.27-13.33,11.32-1.76,6.59-2.53,11.39-1.88,15.16-7-.76-30.57-6.64-27.5-51.6.24-3.53.59-6.66,1-9.45,3.15-19.82,11-21.86,17.84-19.27,6.29,2.4,11.68,8.73,11.68,8.73S434.16,610,437.69,637C437.86,638.41,438,639.74,438.09,641Z"/><path class="cls-2" d="M481.18,687.63c-7.35,4.67-25.61.27-41.14-5.94-11-4.42-16.08-7.91-17.16-14.22-.65-3.77.12-8.57,1.88-15.16C427.17,643.26,433,641,438.09,641a23.41,23.41,0,0,1,9,1.92c18.63,1.86,29,7.6,34.33,14.36-3.21,5.05-5.24,10.56-4.95,16.2C476.89,681.27,478.59,685.62,481.18,687.63Z"/><path class="cls-1" d="M502.34,681.7c-8.42,5.35-16.33,9.71-21.16,5.94-2.59-2-4.29-6.36-4.7-14.16-.29-5.64,1.74-11.14,4.95-16.2,9.46-15,29.14-26.12,29.14-26.12a19.1,19.1,0,0,1,3.46-5.47c4.45,3.39,9.38,6,16.53,5.47a14.92,14.92,0,0,0,8-2.76C551.81,643.37,514.7,673.82,502.34,681.7Z"/><path class="cls-3" d="M538.55,628.39a14.92,14.92,0,0,1-8,2.76c-7.15.51-12.07-2.08-16.53-5.47-5.78-4.42-10.76-10.17-18.74-12.17-14.11-3.53-27-3.53-24.68-29.39,0,0,5.88,23.51,23.51,22.33s38.79-17.63,45.84-7.05C545.58,607.87,546.72,622.33,538.55,628.39Z"/><path class="cls-2" d="M449.44,292.63a16.28,16.28,0,0,0,.58,4.29,36.9,36.9,0,0,1-14-7.63h0c-3.41-10.59-7.41-18.43-11.45-24.24a31.38,31.38,0,0,1,3.7-12.38c10.9-20.88,27.39,6.61,34.33,20.21C455.21,279,449.44,285.88,449.44,292.63Z"/><path class="cls-3" d="M507.68,265.61c-24.8,55-53.34,47.46-57.67,31.31a16.28,16.28,0,0,1-.58-4.29c0-6.76,5.77-13.68,13.18-19.76a138.17,138.17,0,0,1,21.39-14,10.4,10.4,0,0,0,5.4,2c1.69,0,3.35-2,4.91-5.23a46.47,46.47,0,0,0,5.67,6.41A11.63,11.63,0,0,0,507.68,265.61Z"/><path class="cls-1" d="M507.68,265.61a11.63,11.63,0,0,1-7.7-3.54,46.47,46.47,0,0,1-5.67-6.41c-.36-.48-.69-1-1-1.46-13.19-20.21,4.73-38.15,7.85-58v0c3.5-22.32-14.11-48.17-20-61.09s11.75-3.53,11.75-3.53C559.67,181.39,531.89,266.52,507.68,265.61Z"/><path class="cls-2" d="M501.16,196.25c-3.13,19.81-21,37.75-7.85,58,.32.48.65,1,1,1.46-1.56,3.24-3.22,5.23-4.91,5.23a10.4,10.4,0,0,1-5.4-2c-9.36-6.09-20.63-24.71-15.76-34.45,5.88-11.75,0-121.07,12.93-72.88,7.5,28,15,39.71,20,44.63Z"/><path class="cls-2" d="M363.11,277.86c-.06.13-.12.26-.16.38s-.18.38-.26.55l-.15.33c-.08.2-.15.34-.2.45-6.77,14.93-16.19,20.39-23.83,19.63a11.81,11.81,0,0,0,5.15-5.38s-2.41-16.46-12.86-29.2c10.23-18.77,26.86-22,35.19-17.82S365.89,271.52,363.11,277.86Z"/><path class="cls-3" d="M343.65,293.81a11.81,11.81,0,0,1-5.15,5.38c-18.7,9.77-66.18-30-55-44.23a43.3,43.3,0,0,0,9.64,2.41c.51.07,4.78-1,8.39-6.63,1.47,3,4.5,5.47,10.71,1a38.57,38.57,0,0,1,18.58,12.82C341.24,277.35,343.65,293.81,343.65,293.81Z"/><path class="cls-1" d="M302.51,198.6c7.09,29,3.93,43.93-.58,51.45l-.75,0,.32.72c-3.61,5.61-7.89,6.7-8.39,6.63a43.3,43.3,0,0,1-9.64-2.41c-45.49-17.55-7.91-108,12-125.71,21.16-18.81,24.68-9.4,24.68-4.7,0,4.16-23.92,17.51-20.48,57.16A111.37,111.37,0,0,0,302.51,198.6Z"/><path class="cls-2" d="M316.62,248a35.78,35.78,0,0,1-4.41,3.82c-6.21,4.42-9.24,2-10.71-1,.15-.22.31-.46.43-.69,4.5-7.52,7.66-22.44.58-51.45a111.37,111.37,0,0,1-2.84-16.89c21.57-22,11.53-42.34,19.3-50.11,8.23-8.23,2.35,41.14,4.7,61.12S331.9,232.69,316.62,248Z"/><path class="cls-3" d="M460.87,341.63a6.3,6.3,0,0,1-2,2.73,7.08,7.08,0,0,1-2.47,1.33c-2.6.73-5.18-.46-7.62-2.77-.53-11.65-6.54-23.74-6.54-23.74l-.13.07a52.78,52.78,0,0,0-.88-9c-.36-2-.75-3.9-1.15-5.76C446.68,311.56,464.64,332,460.87,341.63Z"/><path class="cls-3" d="M494.11,354.93a8.64,8.64,0,0,1-3.48,2.39c-8.53,3.43-25.31-1.49-34.25-11.64a7.08,7.08,0,0,0,2.47-1.33,6.3,6.3,0,0,0,2-2.73c8.63,1.67,31.77,5.22,33.86,10.67A2.45,2.45,0,0,1,494.11,354.93Z"/><path class="cls-3" d="M523.49,354.93a13.16,13.16,0,0,1-.71,1.41c-3.78,6.54-12.59,7.42-32.16,1a8.64,8.64,0,0,0,3.48-2.39,2.45,2.45,0,0,0,.62-2.63c6.37-1,27.58-3.87,29,1A2.43,2.43,0,0,1,523.49,354.93Z"/><path class="cls-3" d="M544.65,360.81c-5.63,13.51-1.55-2.09-21.86-4.47a13.16,13.16,0,0,0,.71-1.41,2.43,2.43,0,0,0,.19-1.63C530.74,352,549.55,349,544.65,360.81Z"/><path class="cls-1" d="M461.2,383.14a7.86,7.86,0,0,1-1.68,2c-2.16,1.83-4.85,1.73-7.46.14a18.87,18.87,0,0,1-6.68-8.15h0c1.15-8.26,2-17.33,1.21-22.18h0a17,17,0,0,0,1.47-3.86C452,355.38,466.29,375,461.2,383.14Z"/><path class="cls-1" d="M499.7,432c-4.43,2.07-17-11.19-30.28-21.79s-16.6-20.69-17.37-24.92c2.61,1.59,5.3,1.69,7.46-.14,13.48,6.41,39.85,24.84,41.65,39.16,0,.38.08.73.11,1.07C501.64,429.31,501.05,431.36,499.7,432Z"/><path class="cls-1" d="M534.08,435.09a6.31,6.31,0,0,1,0,.94,4.88,4.88,0,0,1-2.44,4.08c-6.42,3.77-23.72-3.07-31.92-8.15,1.35-.61,1.94-2.66,1.56-6.62C507.42,424.89,533.7,423.61,534.08,435.09Z"/><path class="cls-1" d="M551.7,452.49c-5.88,8.23-8.23,8.23-10.58-1.18-1.28-5.14-5.74-8.87-9.5-11.2a4.88,4.88,0,0,0,2.44-4.08,6.31,6.31,0,0,0,0-.94C540.55,436.85,556.69,445.52,551.7,452.49Z"/><path class="cls-3" d="M451.9,434.73c-1,1.67-2.72,1.86-4.94.54a17.61,17.61,0,0,1-3.4-2.76c-3.61-3.61-4.5-11.52-4.37-19.27a55.38,55.38,0,0,0,3.2-18.35s.51-2.54,1.19-6.39a155.6,155.6,0,0,1,8.22,27.55C453.63,425.83,453.56,432.11,451.9,434.73Z"/><path class="cls-3" d="M473.4,493.41a3.87,3.87,0,0,1-.87,2.25,1,1,0,0,1-.75.33c-.58,0-1.58-.76-2.84-2.12-6.45-6.86-20.06-29-23-43.73-1.77-8.86-.58-13,1-14.87,2.22,1.32,3.9,1.13,4.94-.54,1.4,2,4.33,7.22,10.47,20.11C471.39,473.78,474.18,487.87,473.4,493.41Z"/><path class="cls-3" d="M497.4,519.08c-.65.79-1.8,1.08-3.53.67a8.81,8.81,0,0,1-.94-.26c-11.44-3.81-18.23-18.44-20.41-23.84a3.87,3.87,0,0,0,.87-2.25C487.64,492.37,501.24,514.41,497.4,519.08Z"/><path class="cls-3" d="M507,539.47c-11.75,10.58-8.23-3.53-8.23-8.23,0-3.49-4.54-8.93-4.94-11.5,1.73.41,2.88.12,3.53-.67C503.06,521.69,516.91,530.59,507,539.47Z"/><path class="cls-3" d="M355.29,421.65A23.32,23.32,0,0,1,350,433.83c-1.58,1.7-3.24,2.57-4.63,2-2.25-.89-3.75-5.51-2.89-16.27,1.27-15.8,4.23-18.69,6.69-18A48.56,48.56,0,0,0,355.29,421.65Z"/><path class="cls-3" d="M322,498.57a3.37,3.37,0,0,1-2.49-1.74A6,6,0,0,1,319,496c-8.15-16.29,19-51.13,26.4-60.13,1.39.55,3.06-.32,4.63-2C354.69,440.82,332.58,499.63,322,498.57Z"/><path class="cls-3" d="M322,498.57c0,6.88-10.61,17.5-17.68,19.14-2.32.53-4.26.11-5.3-1.74a1.18,1.18,0,0,1-.12-.25c-3.4-6.89,14.67-16.09,20.61-18.89A3.37,3.37,0,0,0,322,498.57Z"/><path class="cls-3" d="M304.29,517.7a59.7,59.7,0,0,0-5.3,12.37c-2.35,8.23-2.35,15.28-9.4,5.88-5.87-7.83,5.36-17.28,9.29-20.23a1.18,1.18,0,0,0,.12.25C300,517.81,302,518.23,304.29,517.7Z"/><path class="cls-1" d="M349.3,380.48h0c-2.53,4-5,6.74-7.12,7.55-1.49.56-2.84.18-4-1.41s-2.14-4.7-2.76-9.37c-2-14.74,10.86-26.2,15.12-29.55.06,4.9.16,8.39.16,8.39l.16.08C349.82,361,349.14,371.76,349.3,380.48Z"/><path class="cls-1" d="M297,429.62a3.86,3.86,0,0,1-2.69-1.81,4.86,4.86,0,0,1-.54-3.49c2.07-11.7,35.92-32.59,44.44-37.68,1.14,1.59,2.49,2,4,1.41C346.42,399.87,308.76,432.09,297,429.62Z"/><path class="cls-1" d="M297,429.62c-1.68,1.52-21.23,11.51-31.09,9.32a6.7,6.7,0,0,1-4.51-2.9,4,4,0,0,1-.4-.81c-3-8.1,28.26-10.59,32.77-10.91a4.86,4.86,0,0,0,.54,3.49A3.86,3.86,0,0,0,297,429.62Z"/><path class="cls-1" d="M265.89,438.94c-2.89,3.78-5.18,10.18-6.86,13.55-2.35,4.7-5.88-2.35-8.23-9.4-1.7-5.12,5.9-7.15,10.18-7.86a4,4,0,0,0,.4.81A6.7,6.7,0,0,0,265.89,438.94Z"/><path class="cls-3" d="M432.9,424.25a84.55,84.55,0,0,1-14,25.89c-3.47,4.34-9.34,8-16,10.26A39.82,39.82,0,0,1,382.45,462a24.06,24.06,0,0,1-12.94-7.13c-8-8.73-10.6-21.08-11.41-29.21a25.17,25.17,0,0,0,2,2.17C369.89,437.22,413.4,447.61,432.9,424.25Z"/><path class="cls-2" d="M384.79,260.9a7.05,7.05,0,1,1-7.05-7.05,6.93,6.93,0,0,1,3.89,1.18A7,7,0,0,1,384.79,260.9Z"/><path class="cls-3" d="M423.58,260.9a4.56,4.56,0,0,1-.51,2.1,4.7,4.7,0,1,1-5.9-6.48,4.58,4.58,0,0,1,1.7-.33A4.7,4.7,0,0,1,423.58,260.9Z"/><path class="cls-3" d="M445.37,377.1h0c-.59,4.22-1.25,8.24-1.8,11.39-.68,3.86-1.19,6.39-1.19,6.39-.51.39-1,.75-1.56,1.12-25.72,17-87.44,1.76-90.12-3.47a10.42,10.42,0,0,1-.79-3s0,0,0,0a69.38,69.38,0,0,1-.62-9h0c-.15-8.72.53-19.52,1.58-24.3,1.28.63,2.56,1.23,3.86,1.79,2.25,1,4.53,1.83,6.82,2.6,19.72,6.56,40.52,5.56,56.53,2.86a160.63,160.63,0,0,0,24.54-6.12c2.13-.73,3.3-1.2,3.3-1.2a11.8,11.8,0,0,0,.67-1.19C447.4,359.77,446.53,368.84,445.37,377.1Z"/><path class="cls-2" d="M442.39,394.9a55.38,55.38,0,0,1-3.2,18.35,37.42,37.42,0,0,1-6.29,11c-19.5,23.37-63,13-72.79,3.56a25.17,25.17,0,0,1-2-2.17h0a29.84,29.84,0,0,1-2.81-4,48.56,48.56,0,0,1-6.12-20c-.46-5-.14-9.33.75-12.07a10.42,10.42,0,0,0,.79,3c2.68,5.23,64.4,20.51,90.12,3.47C441.37,395.65,441.88,395.28,442.39,394.9Z"/><path class="cls-1" d="M442.09,319.23c-1.63.94-3.28,1.79-4.94,2.56-31.17,14.63-66.14,3.07-79-2.21-2.35-1-4-1.72-4.68-2.06.27-3,.6-5.85,1-8.59a112.12,112.12,0,0,1,7.85-29.37c0-.11.12-.25.2-.45l.15-.33c.08-.18.16-.36.26-.55s.11-.25.16-.38a64.42,64.42,0,0,1,8.43-13.6,7.05,7.05,0,1,0,10.1-9.24c10.13-6.82,19-6.46,19-6.46s7.58-.16,16.51,8a4.7,4.7,0,1,0,5.9,6.48c.51.66,1,1.34,1.5,2,4,5.81,8,13.65,11.45,24.24h0c1.46,4.55,2.82,9.59,4,15.21.4,1.86.79,3.77,1.15,5.76A52.78,52.78,0,0,1,442.09,319.23Z"/><path class="cls-2" d="M448.05,351.05a17,17,0,0,1-1.47,3.86h0a11.8,11.8,0,0,1-.67,1.19s-1.18.47-3.3,1.2a160.63,160.63,0,0,1-24.54,6.12c-16,2.7-36.8,3.7-56.53-2.86-2.29-.76-4.57-1.62-6.82-2.6-1.29-.55-2.57-1.15-3.86-1.79l-.16-.08s-.11-3.49-.16-8.39h0c0-2.66,0-5.71,0-8.86l-.21.16,3.2-21.45c.73.34,2.33,1.09,4.63,2,12.86,5.28,47.83,16.84,79,2.21,1.66-.78,3.3-1.62,4.94-2.56l.13-.07s6,12.1,6.54,23.74A27.44,27.44,0,0,1,448.05,351.05Z"/><path class="cls-3" d="M353.48,317.53l0,0L350.33,339a17.72,17.72,0,0,1-3.83,2.35c-3.44,1.53-6.72,1.38-8-1.77a4.85,4.85,0,0,1-.16-.49c-.58-1.93-.49-4.8.59-8.84,3.53-13.21,11.66-19.16,15.53-21.31C354.08,311.68,353.75,314.53,353.48,317.53Z"/><path class="cls-3" d="M346.5,341.36c-5.1,9.11-33.58,19-41.93,15.43a3.67,3.67,0,0,1-2.06-1.86c-.63-1.47.2-2.94,2-4.36,6.62-5.25,26.36-9.87,33.86-11.48a4.85,4.85,0,0,0,.16.49C339.77,342.73,343.05,342.88,346.5,341.36Z"/><path class="cls-3" d="M304.57,356.79c-7.39,2.39-22.67,4-29.66-.79a8.28,8.28,0,0,1-3-3.42,3.81,3.81,0,0,1-.34-1.15c-1-7,23.24-2.79,32.89-.86-1.79,1.42-2.62,2.89-2,4.36A3.67,3.67,0,0,0,304.57,356.79Z"/><path class="cls-3" d="M274.92,356c-3.15,1.13-8.16,2.87-11.19,3.63-4.7,1.18-2.35,8.23-9.4,0-6-7,11.86-8.05,17.29-8.2a3.81,3.81,0,0,0,.34,1.15A8.28,8.28,0,0,0,274.92,356Z"/></svg>