<svg id="Layer_1" data-name="Layer 1" xmlns="http://www.w3.org/2000/svg" viewBox="0 0 800 800"><defs><style>.cls-1,.cls-2,.cls-3,.cls-4{stroke:#ed1c24;stroke-miterlimit:10;stroke-width:0.5px;}.cls-2{fill:#8b5e00;}.cls-3{fill:#6f0003;}.cls-4{fill:none;}</style></defs><title>spider-level5</title><path class="cls-1" d="M490.66,298.46c-9.3,9.3-45.36,37.34-59.67,42.51-2.26.83-4,1.06-5,.57-7.18-3.59-2.21-20-2.21-20s44.46-37.78,57.13-41a3.63,3.63,0,0,1,2.51,0c4.42,2.21,10.21,4.42,11.47,8.33C495.76,291.26,494.79,294.33,490.66,298.46Z"/><path class="cls-1" d="M530.4,250.47c-4.27,14.55-25.32,30.73-35.94,38.16-1.18-3.94-6.93-6.26-11.31-8.55a3.63,3.63,0,0,0-2.51,0c6.18-7.55,21-20.33,33.72-35.29,3.66-4.29,6.46-6.41,8.65-7.1,4.93-1.57,6.58,4.13,7.13,8.43A32.94,32.94,0,0,1,530.4,250.47Z"/><path class="cls-1" d="M567.85,185.37c-1.79,16.15-10.77,21.54-16.15,32.31-4.2,8.4-16,22.26-21.9,27.95-.63-4.29-2.39-10-7.29-8.29,1.11-9.12,12.85-29.55,22-44.79C555.28,174.6,567.85,185.37,567.85,185.37Z"/><path class="cls-2" d="M519.2,329.4c-1.13,4.27-4.11,7.75-8.8,8.54-6.71,1.11-35.81,13.43-57.17,19.91a102.46,102.46,0,0,0-16.42,1.63,56.43,56.43,0,0,0-6.26,1.44,2.11,2.11,0,0,1-.92-1.44,24.82,24.82,0,0,1,3.59-17.95s68.25-34.12,80-29.17a3,3,0,0,1,.79.45A16.2,16.2,0,0,1,519.2,329.4Z"/><path class="cls-2" d="M583.5,306.07c-6.19,7.49-24.36,14.81-39,19.31-10.81,3.32-19.31,4.72-25.31,4A16.2,16.2,0,0,0,514,312.82a3,3,0,0,0-.79-.45c13.48-9,52.68-16.87,62.93-18.83v0l2.48-.45C586.64,297.09,587.2,301.6,583.5,306.07Z"/><path class="cls-2" d="M589.39,303.84a24.59,24.59,0,0,1-5.89,2.23c3.7-4.47,3.14-9-4.88-13l-2.48.45c1.17-12.12,68.16-49.06,70.69-48.91C679.13,246.4,600.16,298.46,589.39,303.84Z"/><path class="cls-1" d="M453.23,357.85c-10.93,3.3-19.83,5.1-22.69,3.07a56.43,56.43,0,0,1,6.26-1.44A102.46,102.46,0,0,1,453.23,357.85Z"/><path class="cls-1" d="M453.23,357.85c-10.93,3.3-19.83,5.1-22.69,3.07a56.43,56.43,0,0,1,6.26-1.44A102.46,102.46,0,0,1,453.23,357.85Z"/><path class="cls-1" d="M508.61,381s0,9.44-2.33,12a1.66,1.66,0,0,1-1.26.61c-3.41,0-107.41-22.71-74.47-32.67,2.85,2,11.76.23,22.69-3.07,35.83-.59,52.88,19.92,55.12,22.83Z"/><path class="cls-1" d="M566.88,400c-3.46,3-9.84,5-20.57,4.38-20.36-1.13-34.28-5.82-40-11.38,2.33-2.51,2.33-12,2.33-12l-.25-.34c13.61-5.15,55.9,2.14,55.9,2.14a5.29,5.29,0,0,1,1,.36s0,0,0,0C569.66,385.37,573.37,394.42,566.88,400Z"/><path class="cls-1" d="M605.54,404.36c-17.5,2.33-31.21.88-38.66-4.38,6.5-5.56,2.78-14.61-1.63-16.8,17.32-7.9,78-3.95,78-3.95C659.39,400.77,632.46,400.77,605.54,404.36Z"/><path class="cls-1" d="M370.4,334.36s-1.79,12.56-10.77,17.95S316.55,314.61,313,311c-2.26-2.26-13-8.08-16.26-14.75-1.9-3.93-1.17-8.17,5.49-12.17a10.61,10.61,0,0,1,7.32-1.08C331,286.52,370.4,334.36,370.4,334.36Z"/><path class="cls-1" d="M309.51,283a10.61,10.61,0,0,0-7.32,1.08c-6.66,4-7.4,8.24-5.49,12.17-13-3.9-40.8-30.73-39.87-51.52v0a18.49,18.49,0,0,1,.48-3.72c1.53-6.57,6.59-5.74,13.1-1.13C283.34,249,301.92,272.86,309.51,283Z"/><path class="cls-1" d="M270.41,239.89c-6.52-4.61-11.58-5.44-13.1,1.13a18.49,18.49,0,0,0-.48,3.72c-15.65-17.79-48.32-92.33-15.67-63C268.58,206.48,270.86,230.12,270.41,239.89Z"/><path class="cls-2" d="M356.79,358.68c-6.53.81-16.26,2.1-26.49,3.7a122.88,122.88,0,0,1-12-10.07c-4.92-4.92-32.45-11.49-44.8-20.32-5.74-4.09-8.2-8.67-3.66-13.79a6.08,6.08,0,0,1,1.13-1c16.62-12.49,85,40.51,85,40.51S356.34,358,356.79,358.68Z"/><path class="cls-2" d="M273.54,332c-2.41,1.4-5.87,2.37-10.84,2.37-14.18,0-42.86-14.54-51.68-27.71-2.37-3.52-3.3-6.95-2.17-10,.84-2.24,3.12-3.18,6.39-3.14,13.07.11,41.86,15.67,55.77,23.66a6.08,6.08,0,0,0-1.13,1C265.33,323.32,267.79,327.89,273.54,332Z"/><path class="cls-2" d="M211,306.64c-20.3-1.51-77.83-45.43-63.2-58.44,13.39-11.9,54,30.5,67.42,45.32-3.27,0-5.55.9-6.39,3.14C207.72,299.69,208.65,303.12,211,306.64Z"/><path class="cls-1" d="M304,391.8c-4.61,1-8.2.88-11-.09-6.3-2.12-8.4-8.36-8.72-14.29q-.05-.89-.05-1.78c0-4.92,24.18-9.82,46.06-13.27,10.23-1.6,20-2.89,26.49-3.7,5.06-.63,8.22-1,8.22-1C375.78,386.41,320.14,388.21,304,391.8Z"/><path class="cls-1" d="M293,391.71c-9.53,6.35-26.8,10.86-33.91,10.86-6.28,0-19.6,2.64-27-1.33-3.18-1.69-5.28-4.6-5.28-9.44a6.12,6.12,0,0,1,1.85-4.25c7.86-8.35,39-9.91,55.64-10.12C284.61,383.34,286.71,389.59,293,391.71Z"/><path class="cls-1" d="M232.07,401.24a9.08,9.08,0,0,1-5.28,3.12c-9,1.79-86.16-5.38-80.77-25.13,4.43-16.23,62.18,1.49,82.62,8.31a6.12,6.12,0,0,0-1.85,4.25C226.8,396.64,228.9,399.55,232.07,401.24Z"/><path class="cls-3" d="M370.4,382.82s-28.72,48.46-55.64,62.82c-.83.43-1.62.84-2.37,1.2-10.7,5.26-15.31,4.22-17.14,1.42-2.33-3.52-.23-9.8-.23-9.8a61.21,61.21,0,0,1,10.81-19,91.31,91.31,0,0,1,10-10.46c21.31-19.35,49.78-30.26,51-31.52Z"/><path class="cls-3" d="M312.38,446.85c-4.49,36.49-10.09,55.16-15.11,64.53-7.09,13.21-13,7.86-13,7.86a15.59,15.59,0,0,1-3-3.7c-9.28-15.92,5.56-50.35,14-67.28C297.07,451.07,301.68,452.11,312.38,446.85Z"/><path class="cls-3" d="M278.85,623.35c-12.06-10.55-1.33-84.44,2.41-107.81a15.59,15.59,0,0,0,3,3.7s5.94,5.35,13-7.86C301.61,577,292.76,635.52,278.85,623.35Z"/><path class="cls-3" d="M474.51,451c-.34-.11-.68-.22-1-.36-38.52-13.23-42.06-71.44-42.06-71.44,25.47,5.1,56.33,45.38,58.07,63.92C490.19,450.74,486,454.69,474.51,451Z"/><path class="cls-3" d="M513.71,511.61c-1.27,9.21-7.54,9.42-12,9.42h-.31c-7.18,0-3.59-7.18-19.74-39.49-6.8-13.62-8.51-23.73-8.2-30.87.34.14.68.25,1,.36,11.49,3.66,15.69-.29,15-7.88,5.78,6.75,12.89,18.83,19.12,38.39C513.39,496.55,514.53,505.85,513.71,511.61Z"/><path class="cls-3" d="M514,618c-21.47-18.61-15.54-74.91-12.26-96.93,4.43,0,10.7-.22,12-9.42,10,13.44,11.06,69.2,11.06,77.63C524.77,600,540.92,641.3,514,618Z"/><path class="cls-1" d="M400,579.37c-71.8-60.13-65.52-130.14-65.52-130.14A65.49,65.49,0,0,1,400,383.72,63.56,63.56,0,0,1,430,391.1C450.65,402,464.61,424,465.55,449.24,468.24,522.83,400,579.37,400,579.37Z"/><polygon class="cls-4" points="384.09 437.54 370.07 442.13 359.08 432.29 362.12 417.85 376.14 413.26 387.13 423.11 384.09 437.54"/><polygon class="cls-3" points="414.41 482.33 401.14 484.01 393.04 473.36 398.21 461.02 411.49 459.33 419.59 469.98 414.41 482.33"/><polygon class="cls-3" points="429.34 440.34 410.02 448.52 393.27 435.87 395.85 415.05 415.18 406.87 431.92 419.52 429.34 440.34"/><polygon class="cls-2" points="352.37 484.66 348.11 469.66 358.97 458.46 374.1 462.28 378.36 477.28 367.49 488.47 352.37 484.66"/><polygon class="cls-3" points="383.63 529.44 367.32 530.1 358.6 516.31 366.18 501.86 382.48 501.2 391.21 514.99 383.63 529.44"/><polygon class="cls-4" points="416.75 516.85 405.05 522.14 394.62 514.66 395.88 501.89 407.57 496.59 418.01 504.07 416.75 516.85"/><polygon class="cls-3" points="443.34 493.99 431.07 497.53 421.87 488.68 424.94 476.28 437.2 472.74 446.4 481.59 443.34 493.99"/><polygon class="cls-2" points="450.33 459 439.25 464.05 429.33 456.98 430.5 444.85 441.59 439.8 451.5 446.88 450.33 459"/><polygon class="cls-4" points="408.82 548.57 394.57 550.49 385.79 539.11 391.25 525.81 405.49 523.89 414.28 535.27 408.82 548.57"/><polygon class="cls-3" points="404.15 570.96 395.27 572.66 389.35 565.82 392.32 557.27 401.2 555.57 407.12 562.41 404.15 570.96"/><polygon class="cls-4" points="398.55 406.75 390.19 407.48 385.39 400.59 388.94 392.99 397.31 392.27 402.11 399.15 398.55 406.75"/><polygon class="cls-4" points="391.09 460.87 382.97 462.44 377.55 456.19 380.25 448.37 388.37 446.8 393.79 453.05 391.09 460.87"/><polygon class="cls-4" points="348.64 442.67 343.2 445.48 338.05 442.17 338.34 436.05 343.78 433.25 348.93 436.56 348.64 442.67"/><polygon class="cls-3" points="355.17 459 348.68 461.49 343.28 457.11 344.37 450.24 350.87 447.75 356.26 452.13 355.17 459"/><polygon class="cls-4" points="392.95 493.99 383.2 496.77 375.92 489.71 378.39 479.87 388.14 477.09 395.43 484.15 392.95 493.99"/><polygon class="cls-4" points="437.27 513.58 429.81 518.08 422.19 513.86 422.02 505.15 429.49 500.66 437.11 504.87 437.27 513.58"/><polygon class="cls-4" points="427.48 534.57 423.92 535.19 421.61 532.43 422.85 529.04 426.4 528.42 428.71 531.18 427.48 534.57"/><polygon class="cls-2" points="421.88 552.3 415.84 552.28 412.84 547.04 415.88 541.83 421.91 541.85 424.91 547.08 421.88 552.3"/><polygon class="cls-4" points="422.34 459.47 417.19 460.49 413.72 456.54 415.41 451.57 420.57 450.54 424.03 454.49 422.34 459.47"/><polygon class="cls-4" points="429.34 400.69 424.87 405.01 418.89 403.29 417.39 397.26 421.86 392.94 427.84 394.66 429.34 400.69"/><polygon class="cls-4" points="455.46 418.88 451.6 428.84 441.04 430.48 434.35 422.15 438.21 412.19 448.77 410.56 455.46 418.88"/><polygon class="cls-4" points="458.26 478.59 450.53 478.15 447.04 471.23 451.29 464.75 459.03 465.19 462.51 472.12 458.26 478.59"/><polygon class="cls-4" points="354.7 497.72 349.11 500.19 344.18 496.58 344.84 490.5 350.43 488.03 355.36 491.64 354.7 497.72"/><path class="cls-3" d="M391,321.76c-8-4.37-16.55-9.19-20.77-17.32a17.12,17.12,0,0,1-2.1-8.54c.3-6.87,5.71-12.43,11.43-16.25s12.19-6.76,16.77-11.89c.72-.8,1.42-1.89,1-2.88s-1.94-1.28-3.14-1.25c-10.09.28-24.76,3-32.54,10.07-7.36,6.73-10.64,21.06-9,30.55,2.21,12.58,12.19,22.23,22.22,30.14Z"/><path class="cls-3" d="M409,321.76c8-4.37,16.55-9.19,20.77-17.32a17.12,17.12,0,0,0,2.1-8.54c-.3-6.87-5.71-12.43-11.43-16.25s-12.19-6.76-16.77-11.89c-.72-.8-1.42-1.89-1-2.88s1.94-1.28,3.14-1.25c10.09.28,24.76,3,32.54,10.07,7.36,6.73,10.64,21.06,9,30.55-2.21,12.58-12.19,22.23-22.22,30.14Z"/><polygon class="cls-3" points="361.22 289.37 358.17 289.48 356.55 286.9 357.98 284.21 361.02 284.09 362.64 286.68 361.22 289.37"/><polygon class="cls-2" points="371.08 280.11 367.83 281.13 365.33 278.83 366.07 275.52 369.31 274.5 371.81 276.79 371.08 280.11"/><polygon class="cls-3" points="378.48 271.27 376.24 272.09 374.4 270.56 374.81 268.2 377.06 267.38 378.89 268.91 378.48 271.27"/><polygon class="cls-3" points="377.77 276.47 376.37 277.99 374.36 277.54 373.74 275.57 375.13 274.05 377.15 274.5 377.77 276.47"/><polygon class="cls-1" points="385.47 271.93 384.31 273.15 382.67 272.76 382.19 271.14 383.35 269.91 384.99 270.31 385.47 271.93"/><polygon class="cls-3" points="390.49 268.52 390.58 269.01 390.2 269.33 389.73 269.16 389.65 268.67 390.03 268.35 390.49 268.52"/><polygon class="cls-2" points="362.41 305.92 355.32 305.07 352.5 298.51 356.78 292.79 363.88 293.63 366.69 300.2 362.41 305.92"/><polygon class="cls-1" points="370 319.06 365.64 321.3 361.52 318.65 361.76 313.75 366.12 311.51 370.24 314.17 370 319.06"/><polygon class="cls-3" points="367.61 307.17 366.64 307.57 365.81 306.94 365.94 305.89 366.92 305.49 367.75 306.13 367.61 307.17"/><polygon class="cls-3" points="375.32 315.72 372.9 315.89 371.54 313.89 372.6 311.71 375.01 311.53 376.37 313.54 375.32 315.72"/><polygon class="cls-3" points="359.84 311.12 357.63 311.16 356.49 309.27 357.56 307.33 359.76 307.29 360.91 309.18 359.84 311.12"/><polygon class="cls-3" points="367.43 287.52 365.25 288.05 363.69 286.42 364.33 284.26 366.51 283.73 368.06 285.36 367.43 287.52"/><polygon class="cls-1" points="422.02 271.12 419.1 275.19 414.12 274.7 412.05 270.14 414.97 266.07 419.95 266.56 422.02 271.12"/><polygon class="cls-2" points="435.2 284.33 428.88 284.04 425.97 278.42 429.38 273.09 435.7 273.38 438.61 279 435.2 284.33"/><polygon class="cls-3" points="422.02 276.15 420.55 274.84 420.95 272.91 422.82 272.29 424.3 273.6 423.89 275.54 422.02 276.15"/><polygon class="cls-3" points="427.7 271.3 425.95 271.2 425.16 269.64 426.12 268.17 427.87 268.27 428.66 269.83 427.7 271.3"/><polygon class="cls-3" points="437.35 291.02 435.29 291.52 433.82 289.98 434.42 287.94 436.48 287.44 437.95 288.98 437.35 291.02"/><polygon class="cls-3" points="444 298.53 439.47 299.06 436.73 295.4 438.54 291.21 443.07 290.67 445.81 294.33 444 298.53"/><polygon class="cls-2" points="438.27 307.81 433.64 307.89 431.25 303.92 433.5 299.87 438.13 299.79 440.51 303.76 438.27 307.81"/><polygon class="cls-3" points="437.94 316.74 434.74 316.23 433.58 313.2 435.63 310.68 438.83 311.2 439.98 314.23 437.94 316.74"/><polygon class="cls-2" points="428.34 317.06 425.84 318.3 423.51 316.75 423.68 313.96 426.19 312.72 428.52 314.26 428.34 317.06"/><polygon class="cls-3" points="436.71 322.42 434.53 323.15 432.81 321.62 433.27 319.37 435.45 318.64 437.17 320.17 436.71 322.42"/><path class="cls-1" d="M446.62,357.69a44.76,44.76,0,0,1-14.9,33.4,63.56,63.56,0,0,0-29.94-7.38A65.23,65.23,0,0,0,371.7,391a44.88,44.88,0,1,1,74.92-33.33Z"/></svg>