<svg id="Layer_1" data-name="Layer 1" xmlns="http://www.w3.org/2000/svg" viewBox="0 0 800 800"><defs><style>.cls-1{fill:#1e1e2d;}.cls-1,.cls-2,.cls-3{stroke:#000;stroke-miterlimit:10;stroke-width:0.5px;}.cls-2{fill:#570030;}.cls-3{fill:#231833;}</style></defs><title>spider</title><path class="cls-1" d="M222.1,360.56c-23.73,4.6-43,12.54-52.31,36.21-6.55,16.64-7.72,40.3,15.08,43L253,411.24S225.36,359.93,222.1,360.56Z"/><path class="cls-1" d="M185,440.29l-.14,0c-7.56-.89-13-4.1-16.3-9.54-1.79-3-7-14.3.79-34.15,9.86-25,31.16-32.36,52.69-36.53h0c.78-.15,2.39-.48,17.22,25.36,7.23,12.61,14.16,25.46,14.23,25.59l.27.51Zm37.21-79.21C186.24,368,176,382.44,170.28,397c-4,10.11-6.3,24.15-.86,33.23,3.06,5.12,8.24,8.15,15.39,9L252.25,411C241.89,391.78,224.83,361.72,222.16,361.08Z"/><circle class="cls-2" cx="180" cy="406" r="5.5"/><path class="cls-3" d="M262.49,439.76c1.07,3.21-5.31,12.82-6.51,15.68-4.16,9.9-9.57,21.53-10.38,32.35-1.64,21.89,5.27,45.42,12.13,66,2.89,8.68-8.25,5-11.06,2-6.35-6.66-7.3-17.45-9.62-26-5-18.27-7.52-36.59-2.56-54.78,1.67-6.11,5.48-32.67,12.15-35.34C250.61,438.17,262.49,439.76,262.49,439.76Z"/><path class="cls-3" d="M426.69,450.84c-5.44-.1-6.65,34.41-6.94,38-1.06,13.26-2.26,26.51-3.43,39.76q-.9,10.19-1.76,20.37c-.36,4.36.16,11-6,11.28a4,4,0,0,1-2.43-.57c-3.38-2.24-2.17-10-2.44-13.45-1.13-14.33-.87-29.21-.38-43.58a481.33,481.33,0,0,1,5-55C414.06,446.21,420.82,450.74,426.69,450.84Z"/><path class="cls-3" d="M352.77,450.84c-5.44-.1-6.65,34.41-6.94,38-1.06,13.26-2.26,26.51-3.43,39.76q-.9,10.19-1.76,20.37c-.36,4.36.16,11-6,11.28a4,4,0,0,1-2.43-.57c-3.38-2.24-2.17-10-2.44-13.45-1.13-14.33-.87-29.21-.38-43.58a481.33,481.33,0,0,1,5-55C340.14,446.21,346.91,450.74,352.77,450.84Z"/><path class="cls-3" d="M304.2,450.84c-5.44-.1-6.65,34.41-6.94,38-1.06,13.26-2.26,26.51-3.43,39.76q-.9,10.19-1.76,20.37c-.36,4.36.16,11-6,11.28a4,4,0,0,1-2.43-.57c-3.38-2.24-2.17-10-2.44-13.45-1.13-14.33-.87-29.21-.38-43.58a481.35,481.35,0,0,1,5-55C291.57,446.21,298.33,450.74,304.2,450.84Z"/><path class="cls-2" d="M770.92,197.42S557.1,62.79,470,290.87c0,0-34,69,22.17,125.13,3.17,3.17,166.55,129.27,258.18-99.79C753.5,308.29,774.09,214.84,770.92,197.42Z"/><path class="cls-1" d="M687,186.33l-28.51-7.92,2.81-19c60.64,7.15,109.65,38,109.65,38,2.16,11.89-6.73,59.15-13.61,90.5l-32.32-5,4.75-38L687,232.26Z"/><path class="cls-1" d="M571.92,170.73l40.61,31.44-7.92,49.1,60.19,25.34L658.47,332,732,355.7c-21.67,40.34-46,65.38-70.68,80L668,408.08,563.43,384.32l17.42-64.94s-55.44-28.51-60.19-28.51,11.09-45.93,11.09-45.93L499.24,233.4C520.72,201.59,545.81,181.94,571.92,170.73Z"/><path class="cls-1" d="M498.75,409.84c-5.59,19.43-16.79,37.56-33.07,49.55-18.59,13.68-42.08,18.49-64.83,22.38-54.67,9.33-112.16,15.14-164.51-3.16-19.82-6.94-40.26-19.44-45.48-39.78-2.2-8.6-.19-28.23,2.24-41.31a80.87,80.87,0,0,1,23.4,5c14.19,5.38,25.51,14.62,47,15,6.06.11,9.62-.55,43-9,40.77-10.32,45.2-11.81,54-10,18.12,3.72,19.21,14.12,35,16,18.29,2.18,31.64-10,48-21,0,0,18-12.08,59.83-27.14A133.49,133.49,0,0,1,498.75,409.84Z"/><path class="cls-2" d="M503.33,366.36C461.5,381.42,443.5,393.5,443.5,393.5c-16.36,11-29.71,23.18-48,21-15.79-1.88-16.88-12.28-35-16-8.8-1.81-13.23-.32-54,10-33.38,8.45-36.94,9.11-43,9-21.49-.38-32.81-9.62-47-15a80.87,80.87,0,0,0-23.4-5c.63-3.37,1.28-6.31,1.9-8.52,7.47-26.67,23.7-51.22,42-72,54-61.29,133.65-71.68,208-38,10.65,4.83,30.06,18.35,38.15,26.67a55.78,55.78,0,0,1,5.49,6.56c7.78,10.87,11.18,24.26,13.08,37.49C502.51,355.23,503.07,360.79,503.33,366.36Z"/><path class="cls-1" d="M287,477c6-9.46,3-36.42,3.38-47.39.89-22.91,1.17-46.27-2.17-69-1.88-12.83-4.78-34.85-19.62-39.36-17.07-5.19-26.16,16.81-30,29.47-4.27,13.91-6,28.68-7,43.15,0,0-30.09,254.22-4,270.06,0,0,19,12.67,15.84-80.78,0,0,6.34-165.52,22.17-216.2,0,0,8.71,24.55,11.09,111.67C276.75,478.56,281.5,485.69,287,477Z"/><path class="cls-2" d="M253.32,324.4a18.93,18.93,0,0,1,4-2.56,15.23,15.23,0,0,1,4.16-1.19c.39-.06.76-.16,1.16-.19h.24a16.7,16.7,0,0,1,5.79.74,17.69,17.69,0,0,1,2.71,1.08c.5.25,1,.56,1.43.85.31.19.64.36.95.58,10.47,7.44,12.89,25.65,14.53,36.85.53,3.6.94,7.23,1.3,10.86l-7.93-6.9q-1.63,7.4-2.57,14.94a54.23,54.23,0,0,1-6.71-11,55.78,55.78,0,0,0-3,13.69l-.87-3a93.34,93.34,0,0,0-2.85-12.2c-.11.36-.22.74-.33,1.11l-.14-.47c-.12.74-.25,1.48-.37,2.21-3.1,11-5.83,26.31-8.2,43.83h0l-7.32-13.42-7.39,13.73-3.17-14.78-9,11,0-.33.32-2.94.1-.9.28-2.51,0-.34.27-2.37,0-.38c.18-1.59.33-2.91.45-3.94l.06-.49.09-.77.06-.49,0-.4,0-.25,0-.2c1-14.46,2.71-29.23,7-43.15A96.74,96.74,0,0,1,242.52,340,48.83,48.83,0,0,1,250.58,327,25.38,25.38,0,0,1,253.32,324.4Z"/><path class="cls-2" d="M226.85,573.6c0-2.38,7.13,13.46,7.13,13.46l9.65-7.5c-.1,2.29-.14,3.54-.14,3.54,3.17,93.45-15.84,80.78-15.84,80.78-8.93-5.41-11.3-38.7-10.54-80.15l5,5.71S226.85,576,226.85,573.6Z"/><path class="cls-1" d="M223,445.53c-11.27-9.32-23.37,3-30.83,10.75q-8.75,9.12-17.09,18.51c-14.5,16.3-28.77,33.22-39.33,51.56,0,.92,0,1.84,0,2.76-.17,15.61.12,31.26,1.4,46.84.67,8.17,1.39,16.54,3.68,24.54.95,3.3,6.26,16.61,12.7,10.23,1.72-1.71,1.93-4.11,2.06-6.34,1.51-26.23,1.43-52.38,2.32-78.69,6-9.94,12.38-19.75,18.94-29.45,5.49-8.12,11.15-16.18,17.17-24,2.26-3,24.84-31.11,30.62-25.19A20.63,20.63,0,0,0,223,445.53Z"/><path class="cls-2" d="M135.95,526.08a250,250,0,0,1,23.73-33.36l6.9-1.69,1.05,7.9,8.06-1c-6.15,9.14-12.14,18.37-17.8,27.73-.08,2.34-.12,4.66-.19,7l-9-10.94S141.75,524.26,135.95,526.08Z"/><path class="cls-2" d="M137,573.5c2.47,1.44,4.33,2.65,4.33,2.65l4.21-10.53,4.21,7.9,7.16-5.54c-.27,12.13-.62,24.26-1.31,36.4-.13,2.23-.33,4.63-2.06,6.34-6.43,6.38-11.75-6.93-12.7-10.23-2.29-8-3-16.36-3.68-24.54C137.08,575.13,137,574.31,137,573.5Z"/><path class="cls-1" d="M442.53,467.74c-1.52-2.67,20.83-157.91,74-152.05a29.55,29.55,0,0,1,5.16,1.05c57,16.89,103.47,288.23,85.53,317.83-4.92,8.12-12.45-4.13-14.12-7.59-6.68-13.83-8-27.72-11-42.43s-6.14-29.24-9.46-43.81c-8.73-38.33-18.33-76.6-30.82-113.9-1.77-5.27-27.72-76.45-35.93-72.08,0,0-33.8,18-53.85,107.71C452,462.46,446.75,475.13,442.53,467.74Z"/><path class="cls-2" d="M516.56,315.68a29.54,29.54,0,0,1,5.16,1.05c13.47,4,26.34,22.19,37.93,48l-12.85-1.84L546,374.82l-16.63-8.71-4.31,18.33c-7.4-16.83-15.29-31.76-19.18-29.68,0,0-7,3.75-16.46,16.17l-1.23-13.53-9.5,7.92.79-14.26L472,354.81C483.3,331.09,498.06,313.65,516.56,315.68Z"/><path class="cls-2" d="M607.26,634.57c-4.92,8.12-12.45-4.13-14.12-7.59-6.68-13.83-8-27.72-11-42.43Q579,569.26,575.58,554l8.44,5.31,4.75-17.42,9.5,13.46s4.38-5.31,7.83-9.85C612.1,589.46,613.11,624.9,607.26,634.57Z"/><path class="cls-1" d="M399.13,481.69c-1.1-4.05-.36-9.89-.41-13.87q-.11-9.25-.07-18.5c.07-16.3.47-32.6,1.43-48.87s2.35-32.89,5.49-49c1.87-9.6,4.07-23.47,11.89-30.37,1.67-1.48,6.11-4.21,8.46-2.47,4.43,3.27,7,8.61,9.38,13.44,11.81,24.15,16.88,52.22,21.74,78.39,13.57,73.17,21.66,146.34,14,220.74-.68,6.58-4.78,29.91-15.9,27-4.27-1.1-5.42-6.52-5.75-10.92-2.34-30.94-3.36-61.86-6-92.75-3.59-41.23-6.73-82.68-13.73-123.5-1.73-10.1-3.3-20.22-5.19-30.29-1.66-8.82-3.19-17.66-5.6-26.32-.79,12.15-4.14,24.27-5.52,36.44-2.63,23-3.57,46-7.3,69-.37,2.26-1.38,5.1-3.67,5.11a3.27,3.27,0,0,1-2.85-2.2A10.17,10.17,0,0,1,399.13,481.69Z"/><path class="cls-2" d="M405.57,351.42c1.87-9.6,4.07-23.47,11.89-30.37,1.67-1.48,6.11-4.21,8.46-2.47,4.43,3.27,7,8.61,9.38,13.44,7.08,14.48,11.72,30.38,15.36,46.43l-13.95-7.61-2.38,14.26L425.63,374,423,393.19c-1.19-6.3-2.46-12.57-4.18-18.76a152,152,0,0,1-2.36,17.21l-1.11-1-4-7.13-4.75,7.92-5.25-8.53A303.52,303.52,0,0,1,405.57,351.42Z"/><path class="cls-2" d="M451.77,579.93l5.54-19L466,577.56l7.93-9.06A579.32,579.32,0,0,1,471,631.15c-.68,6.58-4.78,29.91-15.9,27-4.27-1.1-5.42-6.52-5.75-10.92-1.85-24.4-2.9-48.78-4.57-73.15Z"/><path class="cls-1" d="M319.64,484.86c-1.1-4.05-.36-9.89-.41-13.87q-.11-9.25-.07-18.5c.07-16.3.47-32.6,1.43-48.87s2.35-32.89,5.49-49c1.87-9.6,4.07-23.47,11.89-30.37,1.67-1.48,6.11-4.21,8.46-2.47,4.43,3.27,7,8.61,9.38,13.44,11.81,24.15,16.88,52.22,21.74,78.39,13.57,73.17,21.66,146.34,14,220.74-.68,6.58-4.78,29.91-15.9,27-4.27-1.1-5.42-6.52-5.75-10.92-2.34-30.94-3.36-61.86-6-92.75-3.59-41.23-6.73-82.68-13.73-123.5-1.73-10.1-3.3-20.22-5.19-30.29-1.66-8.82-3.19-17.66-5.6-26.32-.79,12.15-4.14,24.27-5.52,36.44-2.63,23-3.57,46-7.3,69-.37,2.26-1.38,5.1-3.67,5.11a3.27,3.27,0,0,1-2.85-2.2A10.17,10.17,0,0,1,319.64,484.86Z"/><path class="cls-2" d="M321.38,391.9a323.31,323.31,0,0,1,4.7-37.31c1.87-9.6,4.07-23.47,11.89-30.37,1.67-1.48,6.11-4.21,8.46-2.47,4.43,3.27,7,8.61,9.38,13.44,7,14.3,11.6,30,15.22,45.81l-8.76-4.61-3.17,14.26L348,380.36l-4.29,17.16c-1.25-6.69-2.58-13.36-4.4-19.92-.48,7.44-1.92,14.87-3.29,22.31l-3.86-9.25-5.54,8.71-4-8.71Z"/><path class="cls-2" d="M374.16,592.6l7.92-14.26s3.17,13.46,5.54,12.67c1.24-.41,4.21-2.77,6.76-4.93-.29,16-1.17,32.1-2.83,48.23-.68,6.58-4.78,29.91-15.9,27-4.27-1.1-5.42-6.52-5.75-10.92-1.58-20.87-2.58-41.74-3.88-62.6Z"/></svg>