<svg id="Layer_1" data-name="Layer 1" xmlns="http://www.w3.org/2000/svg" viewBox="0 0 603 603"><defs><style>.cls-1{fill:none;}.cls-1,.cls-2,.cls-3,.cls-4,.cls-5,.cls-6{stroke:#000;stroke-miterlimit:10;stroke-width:0.5px;}.cls-3{fill:#333332;}.cls-4{fill:#fff68b;}.cls-5{fill:#5cffe5;}.cls-6{fill:#c10621;}</style></defs><title>sword</title><path class="cls-1" d="M382.54,427.5h0v0Z"/><path class="cls-1" d="M386,427.5h0S386,427.49,386,427.5Z"/><path class="cls-2" d="M384,308.15v95c-5.5-3-5.5-9.68-5.5-9.68v-70l-10-15-9,15v71c0,4-3,6.72-5.5,8.29V308.3l7.32-1.06,2.19-4.44,2.45,2.38-.61,3.5L368.5,307l3.15,1.65-.61-3.5,2.55-2.48-3.52-.51L368.5,299l-1.57,3.19-3.36.49,5.93-12,8.18,16.59Z"/><polygon class="cls-2" points="384 41.61 384 308.15 377.68 307.24 369.5 290.65 363.57 302.68 366.93 302.19 368.5 299 370.07 302.19 373.59 302.7 371.04 305.18 371.65 308.68 368.5 307.03 365.35 308.68 365.96 305.18 363.51 302.8 361.32 307.24 354 308.3 354 73.99 384 41.61"/><path class="cls-3" d="M396,82.4c-1.07,2-3.2,6.88-.14,8.78L386,100.91v-8.2l10-10.42Z"/><path class="cls-1" d="M396,91.26l-.14-.08c-3.06-1.9-.93-6.77.14-8.78"/><path class="cls-2" d="M382.5,405.5v14.94a32.48,32.48,0,0,0-26-.44V405.5c4-1,7-11,7-11v-71l5-8,7,8v70C375.5,403.5,382.5,405.5,382.5,405.5Z"/><polygon class="cls-4" points="371.04 305.18 371.65 308.68 368.5 307.03 365.35 308.68 365.96 305.18 363.51 302.8 363.57 302.68 366.93 302.19 368.5 299 370.07 302.19 373.59 302.7 371.04 305.18"/><path class="cls-5" d="M352,73.21V403.88a19.06,19.06,0,0,0,2-1.09V74l30-32.38V403.18a10.73,10.73,0,0,0,2,.84V36.51Z"/><path class="cls-3" d="M396,205.4c-1,1.89-2.38,6.59,0,8.73V215l-10,9.17v-8.42l10-10.42Z"/><path class="cls-2" d="M396,82.4c-1.07,2-3.2,6.88-.14,8.78L396,91V205.29l-10,10.42V36.51l-34,36.7V403.88a15.66,15.66,0,0,1-1.5.62v18.86a28.62,28.62,0,0,0-2.93,2.43c0-.35,0-.7,0-1.06,0-4.42-2.34-9.68-5.62-11.79V393c4.76,0,8.62-4.6,8.62-10.27S346.76,370,342,370V69.15L396,14Z"/><path class="cls-2" d="M387.38,381.73c0,5.67,3.86,10.27,8.62,10.27v20.94c-3.28,2.11-5.62,7.37-5.62,11.79,0,.36,0,.71,0,1.06-.62-.58-1.26-1.14-1.93-1.66V404.5A13.86,13.86,0,0,1,386,404V224.13L396,215V369C391.24,369,387.38,376.06,387.38,381.73Z"/><path class="cls-6" d="M388.5,404.5v19.63a24.58,24.58,0,0,0-2.5-1.78c-.65-.42-1.31-.81-2-1.17-.49-.26-1-.51-1.5-.74V405.5s-7-2-7-12v-70l-7-8-5,8v71s-3,10-7,11V420a27.21,27.21,0,0,0-2.5,1.18c-.69.36-1.35.75-2,1.17s-1,.66-1.5,1V404.5a15.66,15.66,0,0,0,1.5-.62,19.06,19.06,0,0,0,2-1.09c2.53-1.57,5.5-4.27,5.5-8.29v-71l9-15,10,15v70s0,6.71,5.5,9.68a10.73,10.73,0,0,0,2,.84A13.86,13.86,0,0,0,388.5,404.5Z"/><path class="cls-1" d="M382.5,427.47v0h0Zm3.5,0h0S386,427.49,386,427.49Z"/><path class="cls-1" d="M382.5,427.47v0h0Z"/><path class="cls-2" d="M378.5,469.09V578.21l-10,7.29s-9-7-9-7.29V469.09a32.71,32.71,0,0,0,19,0Z"/><path class="cls-5" d="M403.5,444c0,4.14-2.24,7.5-5,7.5a3.42,3.42,0,0,1-1.14-.2,23.94,23.94,0,0,0,0-14.6,3.42,3.42,0,0,1,1.14-.2C401.26,436.5,403.5,439.86,403.5,444Z"/><path class="cls-1" d="M382.5,427.47v0h0Zm0,0v0h0Zm0,0v0h0Zm0,0v0h0Zm0,0v0h0Zm3.5,0h0S386,427.49,386,427.49Zm-3.5,0v0h0Zm0,0v0h0Zm0,0v0h0Zm0,0v0h0Z"/><path class="cls-2" d="M397.36,436.7a26,26,0,0,0-6.93-10.91c-.62-.58-1.26-1.14-1.93-1.66a24.58,24.58,0,0,0-2.5-1.78c-.65-.42-1.31-.81-2-1.17-.49-.26-1-.51-1.5-.74a32.48,32.48,0,0,0-26-.44,27.21,27.21,0,0,0-2.5,1.18c-.69.36-1.35.75-2,1.17s-1,.66-1.5,1a28.62,28.62,0,0,0-2.93,2.43,26,26,0,0,0-6.93,10.91,23.95,23.95,0,0,0-.56,12.54,20.14,20.14,0,0,0,.56,2.06,24.45,24.45,0,0,0,2.86,6,27,27,0,0,0,4.42,5.21c.19.18.38.36.58.52a30.15,30.15,0,0,0,11,6,32.71,32.71,0,0,0,19,0c9.1-2.78,16.2-9.44,18.86-17.79a23.94,23.94,0,0,0,0-14.6ZM369,466.5c-13.83,0-25-10.07-25-22.5a20.49,20.49,0,0,1,2.09-9,22.32,22.32,0,0,1,4.89-6.57,13.57,13.57,0,0,1,1.07-.94,24.37,24.37,0,0,1,2-1.51,23.07,23.07,0,0,1,2.5-1.47,27.45,27.45,0,0,1,26,.54q.77.43,1.5.93a24.37,24.37,0,0,1,2,1.51s0,0,0,0A22.63,22.63,0,0,1,392,435a20.49,20.49,0,0,1,2.09,9C394,456.43,382.83,466.5,369,466.5Z"/><path class="cls-2" d="M392,435a22.63,22.63,0,0,0-5.94-7.5h0a24.37,24.37,0,0,0-2-1.51q-.73-.5-1.5-.93a27.45,27.45,0,0,0-26-.54A23.07,23.07,0,0,0,354,426a24.37,24.37,0,0,0-2,1.51,13.57,13.57,0,0,0-1.07.94A22.32,22.32,0,0,0,346,435a20.49,20.49,0,0,0-2.09,9c0,12.43,11.22,22.5,25,22.5s25-10.07,25-22.5A20.49,20.49,0,0,0,392,435Zm-23,29.5c-12.6,0-22.82-9.18-22.82-20.5a18.73,18.73,0,0,1,2.31-9,20.92,20.92,0,0,1,3.51-4.68,24.08,24.08,0,0,1,2-1.77c.36-.29.73-.56,1.12-.82s.91-.6,1.38-.88a25,25,0,0,1,26,.62l0,0c.51.33,1,.68,1.46,1a24.08,24.08,0,0,1,2,1.77,20.92,20.92,0,0,1,3.51,4.68,18.73,18.73,0,0,1,2.31,9C391.82,455.32,381.6,464.5,369,464.5Z"/><path class="cls-6" d="M389.51,435a20.92,20.92,0,0,0-3.51-4.68,24.08,24.08,0,0,0-2-1.77c-.47-.37-1-.72-1.46-1h0v0a25,25,0,0,0-26-.62c-.47.28-.94.57-1.38.88s-.76.53-1.12.82a24.08,24.08,0,0,0-2,1.77,20.92,20.92,0,0,0-3.51,4.68,18.73,18.73,0,0,0-2.31,9c0,11.32,10.22,20.5,22.82,20.5s22.82-9.18,22.82-20.5A18.73,18.73,0,0,0,389.51,435Zm-8.76,8-2,2L376,447.66l1.64,9.59L369,452.73l-8.61,4.52,1.64-9.59L359.3,445l-2-2-2.19-2.13,9.63-1.4L366.9,435l2.1-4.25,2.1,4.25,2.21,4.47,9.63,1.4Z"/><polygon class="cls-4" points="382.94 440.87 380.75 443 378.7 445 375.97 447.66 377.61 457.25 369 452.73 360.39 457.25 362.03 447.66 359.3 445 357.25 443 355.06 440.87 364.69 439.47 366.9 435 369 430.75 371.1 435 373.31 439.47 382.94 440.87"/><path class="cls-5" d="M340.08,449.24a20.14,20.14,0,0,0,.56,2.06,3.42,3.42,0,0,1-1.14.2,3.36,3.36,0,0,1-1-.15c-2.28-.69-4-3.72-4-7.35,0-4.14,2.24-7.5,5-7.5a3.42,3.42,0,0,1,1.14.2,23.95,23.95,0,0,0-.56,12.54Z"/><path class="cls-6" d="M359.5,564.88v11.27l-16-21.65V457.32a27,27,0,0,0,4.42,5.21c.19.18.38.36.58.52V550.5Z"/><path class="cls-2" d="M343.5,457.32V481.5l-5-5V451.35a3.36,3.36,0,0,0,1,.15,3.42,3.42,0,0,0,1.14-.2A24.45,24.45,0,0,0,343.5,457.32Z"/></svg>