<svg id="Layer_1" data-name="Layer 1" xmlns="http://www.w3.org/2000/svg" xmlns:xlink="http://www.w3.org/1999/xlink" viewBox="0 0 800 800"><defs><style>.cls-1{fill:#01000c;}.cls-1,.cls-10,.cls-11,.cls-12,.cls-13,.cls-14,.cls-15,.cls-16,.cls-17,.cls-19,.cls-2,.cls-20,.cls-21,.cls-22,.cls-23,.cls-24,.cls-25,.cls-26,.cls-27,.cls-28,.cls-29,.cls-3,.cls-30,.cls-31,.cls-32,.cls-33,.cls-34,.cls-4,.cls-5,.cls-6,.cls-7,.cls-8,.cls-9{stroke:#000;}.cls-1,.cls-10,.cls-11,.cls-12,.cls-13,.cls-14,.cls-15,.cls-16,.cls-17,.cls-18,.cls-19,.cls-2,.cls-20,.cls-21,.cls-22,.cls-23,.cls-24,.cls-25,.cls-26,.cls-27,.cls-28,.cls-29,.cls-3,.cls-30,.cls-31,.cls-32,.cls-33,.cls-34,.cls-4,.cls-5,.cls-6,.cls-7,.cls-8,.cls-9{stroke-miterlimit:10;stroke-width:0.5px;}.cls-2{fill:#7c001d;}.cls-4{fill:url(#linear-gradient);}.cls-5{fill:url(#linear-gradient-2);}.cls-6{fill:url(#linear-gradient-3);}.cls-7{fill:url(#linear-gradient-4);}.cls-8{fill:none;}.cls-9{fill:#33ff2b;}.cls-10{fill:url(#linear-gradient-5);}.cls-11{fill:url(#linear-gradient-6);}.cls-12{fill:url(#linear-gradient-7);}.cls-13{fill:url(#linear-gradient-8);}.cls-14{fill:url(#linear-gradient-9);}.cls-15{fill:url(#linear-gradient-10);}.cls-16{fill:url(#linear-gradient-11);}.cls-17{fill:url(#linear-gradient-12);}.cls-18{stroke:#ed1c24;}.cls-19{fill:url(#linear-gradient-13);}.cls-20{fill:url(#linear-gradient-14);}.cls-21{fill:url(#linear-gradient-15);}.cls-22{fill:url(#linear-gradient-16);}.cls-23{fill:url(#linear-gradient-17);}.cls-24{fill:url(#linear-gradient-18);}.cls-25{fill:url(#linear-gradient-19);}.cls-26{fill:url(#linear-gradient-20);}.cls-27{fill:url(#linear-gradient-21);}.cls-28{fill:url(#linear-gradient-22);}.cls-29{fill:url(#linear-gradient-23);}.cls-30{fill:url(#linear-gradient-24);}.cls-31{fill:url(#linear-gradient-25);}.cls-32{fill:url(#linear-gradient-26);}.cls-33{fill:url(#linear-gradient-27);}.cls-34{fill:url(#linear-gradient-28);}</style><linearGradient id="linear-gradient" x1="236.71" y1="573.45" x2="236.71" y2="620.93" gradientUnits="userSpaceOnUse"><stop offset="0" stop-color="#bf0005"/><stop offset="0.58"/></linearGradient><linearGradient id="linear-gradient-2" x1="216.37" y1="600.58" x2="216.37" y2="643.15" xlink:href="#linear-gradient"/><linearGradient id="linear-gradient-3" x1="82.15" y1="574.47" x2="82.15" y2="615.52" xlink:href="#linear-gradient"/><linearGradient id="linear-gradient-4" x1="102.31" y1="602.16" x2="102.31" y2="640.36" xlink:href="#linear-gradient"/><linearGradient id="linear-gradient-5" x1="233.71" y1="106.45" x2="233.71" y2="153.93" xlink:href="#linear-gradient"/><linearGradient id="linear-gradient-6" x1="213.37" y1="133.58" x2="213.37" y2="176.15" xlink:href="#linear-gradient"/><linearGradient id="linear-gradient-7" x1="79.15" y1="107.47" x2="79.15" y2="148.52" xlink:href="#linear-gradient"/><linearGradient id="linear-gradient-8" x1="99.31" y1="135.16" x2="99.31" y2="173.36" xlink:href="#linear-gradient"/><linearGradient id="linear-gradient-9" x1="106.95" y1="350.35" x2="106.95" y2="400.1" xlink:href="#linear-gradient"/><linearGradient id="linear-gradient-10" x1="114.16" y1="389.55" x2="114.16" y2="417.42" xlink:href="#linear-gradient"/><linearGradient id="linear-gradient-11" x1="210.55" y1="355.61" x2="210.55" y2="401.44" xlink:href="#linear-gradient"/><linearGradient id="linear-gradient-12" x1="208.47" y1="385.84" x2="208.47" y2="414.5" xlink:href="#linear-gradient"/><linearGradient id="linear-gradient-13" x1="486.52" y1="669.27" x2="486.52" y2="692.25" xlink:href="#linear-gradient"/><linearGradient id="linear-gradient-14" x1="476.67" y1="682.4" x2="476.67" y2="703" xlink:href="#linear-gradient"/><linearGradient id="linear-gradient-15" x1="411.71" y1="669.77" x2="411.71" y2="689.63" xlink:href="#linear-gradient"/><linearGradient id="linear-gradient-16" x1="421.47" y1="683.16" x2="421.47" y2="701.65" xlink:href="#linear-gradient"/><linearGradient id="linear-gradient-17" x1="483.52" y1="553.27" x2="483.52" y2="576.25" gradientTransform="translate(4.61 -3.58) rotate(0.46)" xlink:href="#linear-gradient"/><linearGradient id="linear-gradient-18" x1="473.67" y1="566.4" x2="473.67" y2="587" gradientTransform="translate(4.61 -3.58) rotate(0.46)" xlink:href="#linear-gradient"/><linearGradient id="linear-gradient-19" x1="408.71" y1="553.77" x2="408.71" y2="573.63" gradientTransform="translate(4.61 -3.58) rotate(0.46)" xlink:href="#linear-gradient"/><linearGradient id="linear-gradient-20" x1="418.47" y1="567.16" x2="418.47" y2="585.65" gradientTransform="translate(4.61 -3.58) rotate(0.46)" xlink:href="#linear-gradient"/><linearGradient id="linear-gradient-21" x1="478.28" y1="399.31" x2="478.28" y2="422.28" gradientTransform="translate(4.61 -3.58) rotate(0.46)" xlink:href="#linear-gradient"/><linearGradient id="linear-gradient-22" x1="468.43" y1="412.44" x2="468.43" y2="433.04" gradientTransform="translate(4.61 -3.58) rotate(0.46)" xlink:href="#linear-gradient"/><linearGradient id="linear-gradient-23" x1="403.47" y1="399.8" x2="403.47" y2="419.67" gradientTransform="translate(4.61 -3.58) rotate(0.46)" xlink:href="#linear-gradient"/><linearGradient id="linear-gradient-24" x1="413.23" y1="413.2" x2="413.23" y2="431.69" gradientTransform="translate(4.61 -3.58) rotate(0.46)" xlink:href="#linear-gradient"/><linearGradient id="linear-gradient-25" x1="471.82" y1="218.35" x2="471.82" y2="241.33" gradientTransform="translate(4.61 -3.58) rotate(0.46)" xlink:href="#linear-gradient"/><linearGradient id="linear-gradient-26" x1="461.97" y1="231.48" x2="461.97" y2="252.08" gradientTransform="translate(4.61 -3.58) rotate(0.46)" xlink:href="#linear-gradient"/><linearGradient id="linear-gradient-27" x1="397.01" y1="218.85" x2="397.01" y2="238.72" gradientTransform="translate(4.61 -3.58) rotate(0.46)" xlink:href="#linear-gradient"/><linearGradient id="linear-gradient-28" x1="406.77" y1="232.25" x2="406.77" y2="250.74" gradientTransform="translate(4.61 -3.58) rotate(0.46)" xlink:href="#linear-gradient"/></defs><title>bee</title><path class="cls-1" d="M183.56,630.75c0,.77,0,1.54,0,2.29a114.5,114.5,0,0,1-2.27,20.07c-15.6-12.11-34.35-3.29-42.65,1.8a87.66,87.66,0,0,1-2-23.36,73.29,73.29,0,0,1,10.8-3.73C157.75,625.12,170.84,624.34,183.56,630.75Z"/><path class="cls-2" d="M181.25,653.11c-5.8,27.59-20.47,33.35-20.47,33.35-13.23-7.09-19.41-19.72-22.18-31.55C146.9,649.83,165.65,641,181.25,653.11Z"/><path class="cls-3" d="M172.75,602.21a25.49,25.49,0,0,1-.13,2.56,22,22,0,0,1-.31,2.25c0,.1,0,.19-.05.29a22.47,22.47,0,0,0-11.14-3h-1.74a21.75,21.75,0,0,0-5.15.6l-.25-.18-.58.39h0a22,22,0,0,0-5.54,2.37,26.15,26.15,0,0,1-.53-5.31V602a25.87,25.87,0,0,1,.91-6.73,20.53,20.53,0,0,1,.66-2c.06-.19.14-.37.21-.56,2.23-5.44,6.28-9.07,10.94-9.07s8.7,3.64,10.92,9.05h0c.16.39.32.77.46,1.19s.31.91.43,1.4h0a25.1,25.1,0,0,1,.86,5.26C172.73,601.12,172.75,601.66,172.75,602.21Z"/><path class="cls-2" d="M172.75,588.43c0,.72,0,1.43-.08,2.13a24.57,24.57,0,0,1-.45,3.14c-.11.55-.23,1.09-.38,1.61-.13-.49-.28-.94-.43-1.4s-.3-.79-.46-1.19h0c-2.22-5.42-6.27-9.05-10.92-9.05s-8.71,3.64-10.94,9.07c-.07.19-.15.37-.21.56a20.53,20.53,0,0,0-.66,2,23.75,23.75,0,0,1-.53-2.35,21.07,21.07,0,0,1-.28-2.22h0c-.07-.75-.11-1.53-.11-2.31,0-7.41,3-13.81,7.3-16.78a9.47,9.47,0,0,1,5.42-1.77,9.82,9.82,0,0,1,6.41,2.53C170.22,575.64,172.75,581.61,172.75,588.43Z"/><path class="cls-2" d="M183.57,626.78c0,1.36,0,2.68,0,4-12.72-6.41-25.81-5.63-36.19-2.93a73.29,73.29,0,0,0-10.8,3.73c0-.17,0-.33,0-.49.14-2.69.35-4.29.35-4.29a22.46,22.46,0,0,1,10.91-19.26,22,22,0,0,1,5.54-2.37h0a7.45,7.45,0,0,1,.84-.21,21.75,21.75,0,0,1,5.15-.6h1.74a22.47,22.47,0,0,1,11.14,3A22.67,22.67,0,0,1,183.57,626.78Z"/><path class="cls-4" d="M259.6,620.93c-7.73-8.55-68.08-17.34-86.91-20.35a25.1,25.1,0,0,0-.86-5.26h0c.15-.52.28-1.06.38-1.61,24.74-6.43,116.41-29.22,127.4-16.4C309.74,589.12,278.22,611.68,259.6,620.93Z"/><path class="cls-5" d="M260.41,622.88c-1.06,10.6-19.08,28.62-40.27,15.9-13.32-8-34.16-22.26-47.82-31.75a22,22,0,0,0,.31-2.25,25.49,25.49,0,0,0,.13-2.56c0-.55,0-1.09-.05-1.63,18.82,3,79.18,11.8,86.91,20.35A2.59,2.59,0,0,1,260.41,622.88Z"/><path class="cls-6" d="M148.23,595.32a25.87,25.87,0,0,0-.91,6.73l-.51.15h0c-15.89,1.35-56.58,5.45-77.37,13.31h0c-23.54.32-44.56-4.63-51.68-21.25C.61,554.37,122.24,586,147.7,593A23.75,23.75,0,0,0,148.23,595.32Z"/><path class="cls-7" d="M147.84,607.52a22.47,22.47,0,0,0-5.95,5.18c-12.86,8.43-28.9,18.92-32,20.77-5.3,3.18-38.15,15.9-51.93-4.24-3.75-5.48,1.61-10,11.4-13.72h0c20.78-7.86,61.48-12,77.37-13.31h0l.51,0v.05A26.15,26.15,0,0,0,147.84,607.52Z"/><path class="cls-8" d="M124.75,684.35s-4.72-38,10.73-52.3c.36-.34.73-.67,1.11-1"/><path class="cls-8" d="M183.52,630.92c6,2.64,13.93,13,9.06,51.31"/><path class="cls-8" d="M172.66,590.56c8-10.09,25.65-31.5,33.69-35.52"/><path class="cls-8" d="M166.44,572.42c3.64-6.71,14.12-23.53,29.32-26.91"/><path class="cls-8" d="M123.69,545.51c14.54,1.82,27.53,20.79,30.93,26.15"/><path class="cls-8" d="M107.79,557.17c9.18-.84,30.82,23.26,39.63,33.58"/><ellipse class="cls-3" cx="153.9" cy="660.5" rx="2.65" ry="1.59"/><ellipse class="cls-3" cx="162.9" cy="657.32" rx="2.12" ry="1.59"/><ellipse class="cls-3" cx="163.43" cy="665.27" rx="1.59" ry="2.12"/><circle class="cls-3" cx="158.13" cy="672.16" r="2.65"/><ellipse class="cls-3" cx="172.44" cy="661.56" rx="2.12" ry="1.59"/><ellipse class="cls-3" cx="172.44" cy="653.08" rx="1.06" ry="2.65"/><ellipse class="cls-3" cx="154.96" cy="655.2" rx="3.71" ry="1.59"/><circle class="cls-3" cx="148.07" cy="659.97" r="2.12"/><circle class="cls-3" cx="150.72" cy="670.04" r="1.59"/><ellipse class="cls-3" cx="160.25" cy="681.7" rx="2.65" ry="1.59"/><ellipse class="cls-3" cx="167.67" cy="676.93" rx="1.59" ry="2.12"/><ellipse class="cls-3" cx="170.32" cy="671.1" rx="2.12" ry="1.59"/><ellipse class="cls-3" cx="166.61" cy="652.55" rx="1.59" ry="2.12"/><ellipse class="cls-9" cx="153.9" cy="631.88" rx="1.59" ry="2.65"/><ellipse class="cls-9" cx="147.01" cy="637.71" rx="3.18" ry="2.12"/><ellipse class="cls-9" cx="167.67" cy="637.71" rx="2.65" ry="2.12"/><ellipse class="cls-9" cx="157.07" cy="640.89" rx="2.65" ry="2.12"/><ellipse class="cls-9" cx="180.39" cy="636.12" rx="1.59" ry="2.65"/><circle class="cls-9" cx="174.56" cy="645.13" r="2.12"/><ellipse class="cls-9" cx="144.89" cy="645.66" rx="2.12" ry="2.65"/><ellipse class="cls-9" cx="162.9" cy="631.88" rx="2.12" ry="2.65"/><ellipse class="cls-9" cx="175.09" cy="632.41" rx="1.59" ry="2.12"/><ellipse class="cls-9" cx="140.12" cy="634.53" rx="2.65" ry="2.12"/><circle class="cls-9" cx="166.08" cy="644.07" r="2.12"/><circle class="cls-9" cx="159.72" cy="577.3" r="3.18"/><path class="cls-1" d="M180.56,163.75c0,.77,0,1.54,0,2.29a114.5,114.5,0,0,1-2.27,20.07c-15.6-12.11-34.35-3.29-42.65,1.8a87.66,87.66,0,0,1-2-23.36,73.29,73.29,0,0,1,10.8-3.73C154.75,158.12,167.84,157.34,180.56,163.75Z"/><path class="cls-2" d="M178.25,186.11c-5.8,27.59-20.47,33.35-20.47,33.35-13.23-7.09-19.41-19.72-22.18-31.55C143.9,182.83,162.65,174,178.25,186.11Z"/><path class="cls-3" d="M169.75,135.21a25.49,25.49,0,0,1-.13,2.56,22,22,0,0,1-.31,2.25c0,.1,0,.19-.05.29a22.47,22.47,0,0,0-11.14-3h-1.74a21.75,21.75,0,0,0-5.15.6l-.25-.18-.58.39h0a22,22,0,0,0-5.54,2.37,26.15,26.15,0,0,1-.53-5.31V135a25.87,25.87,0,0,1,.91-6.73,20.53,20.53,0,0,1,.66-2c.06-.19.14-.37.21-.56,2.23-5.44,6.28-9.07,10.94-9.07s8.7,3.64,10.92,9.05h0c.16.39.32.77.46,1.19s.31.91.43,1.4h0a25.1,25.1,0,0,1,.86,5.26C169.73,134.12,169.75,134.66,169.75,135.21Z"/><path class="cls-2" d="M169.75,121.43c0,.72,0,1.43-.08,2.13a24.57,24.57,0,0,1-.45,3.14c-.11.55-.23,1.09-.38,1.61-.13-.49-.28-.94-.43-1.4s-.3-.79-.46-1.19h0c-2.22-5.42-6.27-9.05-10.92-9.05s-8.71,3.64-10.94,9.07c-.07.19-.15.37-.21.56a20.53,20.53,0,0,0-.66,2,23.75,23.75,0,0,1-.53-2.35,21.07,21.07,0,0,1-.28-2.22h0c-.07-.75-.11-1.53-.11-2.31,0-7.41,3-13.81,7.3-16.78a9.47,9.47,0,0,1,5.42-1.77,9.82,9.82,0,0,1,6.41,2.53C167.22,108.64,169.75,114.61,169.75,121.43Z"/><path class="cls-2" d="M180.57,159.78c0,1.36,0,2.68,0,4-12.72-6.41-25.81-5.63-36.19-2.93a73.29,73.29,0,0,0-10.8,3.73c0-.17,0-.33,0-.49.14-2.69.35-4.29.35-4.29a22.46,22.46,0,0,1,10.91-19.26,22,22,0,0,1,5.54-2.37h0a7.45,7.45,0,0,1,.84-.21,21.75,21.75,0,0,1,5.15-.6h1.74a22.47,22.47,0,0,1,11.14,3A22.67,22.67,0,0,1,180.57,159.78Z"/><path class="cls-10" d="M256.6,153.93c-7.73-8.55-68.08-17.34-86.91-20.35a25.1,25.1,0,0,0-.86-5.26h0c.15-.52.28-1.06.38-1.61,24.74-6.43,116.41-29.22,127.4-16.4C306.74,122.12,275.22,144.68,256.6,153.93Z"/><path class="cls-11" d="M257.41,155.88c-1.06,10.6-19.08,28.62-40.27,15.9-13.32-8-34.16-22.26-47.82-31.75a22,22,0,0,0,.31-2.25,25.49,25.49,0,0,0,.13-2.56c0-.55,0-1.09-.05-1.63,18.82,3,79.18,11.8,86.91,20.35A2.59,2.59,0,0,1,257.41,155.88Z"/><path class="cls-12" d="M145.23,128.32a25.87,25.87,0,0,0-.91,6.73l-.51.15h0c-15.89,1.35-56.58,5.45-77.37,13.31h0c-23.54.32-44.56-4.63-51.68-21.25C-2.39,87.37,119.24,119,144.7,126A23.75,23.75,0,0,0,145.23,128.32Z"/><path class="cls-13" d="M144.84,140.52a22.47,22.47,0,0,0-5.95,5.18c-12.86,8.43-28.9,18.92-32,20.77-5.3,3.18-38.15,15.9-51.93-4.24-3.75-5.48,1.61-10,11.4-13.72h0c20.78-7.86,61.48-12,77.37-13.31h0l.51,0v.05A26.15,26.15,0,0,0,144.84,140.52Z"/><path class="cls-8" d="M121.75,217.35s-4.72-38,10.73-52.3c.36-.34.73-.67,1.11-1"/><path class="cls-8" d="M180.52,163.92c6,2.64,13.93,13,9.06,51.31"/><path class="cls-8" d="M169.66,123.56c8-10.09,25.65-31.5,33.69-35.52"/><path class="cls-8" d="M163.44,105.42c3.64-6.71,14.12-23.53,29.32-26.91"/><path class="cls-8" d="M120.69,78.51c14.54,1.82,27.53,20.79,30.93,26.15"/><path class="cls-8" d="M104.79,90.17c9.18-.84,30.82,23.26,39.63,33.58"/><ellipse class="cls-3" cx="150.9" cy="193.5" rx="2.65" ry="1.59"/><ellipse class="cls-3" cx="159.9" cy="190.32" rx="2.12" ry="1.59"/><ellipse class="cls-3" cx="160.43" cy="198.27" rx="1.59" ry="2.12"/><circle class="cls-3" cx="155.13" cy="205.16" r="2.65"/><ellipse class="cls-3" cx="169.44" cy="194.56" rx="2.12" ry="1.59"/><ellipse class="cls-3" cx="169.44" cy="186.08" rx="1.06" ry="2.65"/><ellipse class="cls-3" cx="151.96" cy="188.2" rx="3.71" ry="1.59"/><circle class="cls-3" cx="145.07" cy="192.97" r="2.12"/><circle class="cls-3" cx="147.72" cy="203.04" r="1.59"/><ellipse class="cls-3" cx="157.25" cy="214.7" rx="2.65" ry="1.59"/><ellipse class="cls-3" cx="164.67" cy="209.93" rx="1.59" ry="2.12"/><ellipse class="cls-3" cx="167.32" cy="204.1" rx="2.12" ry="1.59"/><ellipse class="cls-3" cx="163.61" cy="185.55" rx="1.59" ry="2.12"/><ellipse class="cls-9" cx="150.9" cy="164.88" rx="1.59" ry="2.65"/><ellipse class="cls-9" cx="144.01" cy="170.71" rx="3.18" ry="2.12"/><ellipse class="cls-9" cx="164.67" cy="170.71" rx="2.65" ry="2.12"/><ellipse class="cls-9" cx="154.07" cy="173.89" rx="2.65" ry="2.12"/><ellipse class="cls-9" cx="177.39" cy="169.12" rx="1.59" ry="2.65"/><circle class="cls-9" cx="171.56" cy="178.13" r="2.12"/><ellipse class="cls-9" cx="141.89" cy="178.66" rx="2.12" ry="2.65"/><ellipse class="cls-9" cx="159.9" cy="164.88" rx="2.12" ry="2.65"/><ellipse class="cls-9" cx="172.09" cy="165.41" rx="1.59" ry="2.12"/><ellipse class="cls-9" cx="137.12" cy="167.53" rx="2.65" ry="2.12"/><circle class="cls-9" cx="163.08" cy="177.07" r="2.12"/><circle class="cls-9" cx="156.72" cy="110.3" r="3.18"/><path class="cls-14" d="M154.16,400.1s-1.23,0-3.37,0L148,395.92s-59.57-12.68-71.09-2.26a7.48,7.48,0,0,1-1.16-.77c-8.91-7.64-23.11-20.27-11.79-38.77s85.62,37,85.62,37Z"/><path class="cls-15" d="M153.49,404.07s-28.51,11.49-43.08,13.1S72.35,412.74,75,396.86a5.48,5.48,0,0,1,1.83-3.2C88.4,383.24,148,395.92,148,395.92l2.82,4.18Z"/><path class="cls-16" d="M258.89,376.68a134.41,134.41,0,0,1-16.18,9.59c-18.9-3-72.1,11.26-72.1,11.26s-3.83-.52-2.76,3.91c-4.3,0-6.75-.05-6.75-.05l4.81-7.06s53.35-42.92,72.65-38.38S262.47,373.95,258.89,376.68Z"/><path class="cls-17" d="M249.27,390.8c.65,14.22-16,23.54-16,23.54s-57.34,2-63.14-7.84a18,18,0,0,1-2.25-5.07c-1.07-4.43,2.76-3.91,2.76-3.91s53.2-14.3,72.1-11.26C246.68,386.91,249.15,388.32,249.27,390.8Z"/><path class="cls-1" d="M182.72,425.78c0,.77,0,1.54,0,2.29a114.5,114.5,0,0,1-2.27,20.07c-15.6-12.11-34.35-3.29-42.65,1.8a87.66,87.66,0,0,1-2-23.36,73.29,73.29,0,0,1,10.8-3.73C156.92,420.15,170,419.37,182.72,425.78Z"/><path class="cls-2" d="M180.41,448.14c-5.8,27.59-20.47,33.35-20.47,33.35-13.23-7.09-19.41-19.72-22.18-31.55C146.06,444.85,164.81,436,180.41,448.14Z"/><path class="cls-3" d="M171.91,397.24a25.49,25.49,0,0,1-.13,2.56,22,22,0,0,1-.31,2.25c0,.1,0,.19-.05.29a22.47,22.47,0,0,0-11.14-3h-1.74a21.75,21.75,0,0,0-5.15.6l-.25-.18-.58.39h0a22,22,0,0,0-5.54,2.37,26.15,26.15,0,0,1-.53-5.31v-.16a25.87,25.87,0,0,1,.91-6.73,20.53,20.53,0,0,1,.66-2c.06-.19.14-.37.21-.56,2.23-5.44,6.28-9.07,10.94-9.07s8.7,3.64,10.92,9.05h0c.16.39.32.77.46,1.19s.31.91.43,1.4h0a25.1,25.1,0,0,1,.86,5.26C171.89,396.14,171.91,396.68,171.91,397.24Z"/><path class="cls-2" d="M171.91,383.46c0,.72,0,1.43-.08,2.13a24.57,24.57,0,0,1-.45,3.14c-.11.55-.23,1.09-.38,1.61-.13-.49-.28-.94-.43-1.4s-.3-.79-.46-1.19h0c-2.22-5.42-6.27-9.05-10.92-9.05s-8.71,3.64-10.94,9.07c-.07.19-.15.37-.21.56a20.53,20.53,0,0,0-.66,2,23.75,23.75,0,0,1-.53-2.35,21.07,21.07,0,0,1-.28-2.22h0c-.07-.75-.11-1.53-.11-2.31,0-7.41,3-13.81,7.3-16.78a9.47,9.47,0,0,1,5.42-1.77,9.82,9.82,0,0,1,6.41,2.53C169.38,370.67,171.91,376.63,171.91,383.46Z"/><path class="cls-2" d="M182.73,421.8c0,1.36,0,2.68,0,4-12.72-6.41-25.81-5.63-36.19-2.93a73.29,73.29,0,0,0-10.8,3.73c0-.17,0-.33,0-.49.14-2.69.35-4.29.35-4.29A22.46,22.46,0,0,1,147,402.55a22,22,0,0,1,5.54-2.37h0a7.45,7.45,0,0,1,.84-.21,21.75,21.75,0,0,1,5.15-.6h1.74a22.47,22.47,0,0,1,11.14,3A22.67,22.67,0,0,1,182.73,421.8Z"/><path class="cls-8" d="M123.91,479.37s-4.72-38,10.73-52.3c.36-.34.73-.67,1.11-1"/><path class="cls-8" d="M182.68,425.95c6,2.64,13.93,13,9.06,51.31"/><path class="cls-8" d="M171.83,385.59c8-10.09,25.65-31.5,33.69-35.52"/><path class="cls-8" d="M165.61,367.44c3.64-6.71,14.12-23.53,29.32-26.91"/><path class="cls-8" d="M122.85,340.53c14.54,1.82,27.53,20.79,30.93,26.15"/><path class="cls-8" d="M107,352.19c9.18-.84,30.82,23.26,39.63,33.58"/><ellipse class="cls-3" cx="153.06" cy="455.53" rx="2.65" ry="1.59"/><ellipse class="cls-3" cx="162.07" cy="452.35" rx="2.12" ry="1.59"/><ellipse class="cls-3" cx="162.6" cy="460.3" rx="1.59" ry="2.12"/><circle class="cls-3" cx="157.3" cy="467.19" r="2.65"/><ellipse class="cls-3" cx="171.61" cy="456.59" rx="2.12" ry="1.59"/><ellipse class="cls-3" cx="171.61" cy="448.11" rx="1.06" ry="2.65"/><ellipse class="cls-3" cx="154.12" cy="450.23" rx="3.71" ry="1.59"/><circle class="cls-3" cx="147.23" cy="455" r="2.12"/><circle class="cls-3" cx="149.88" cy="465.07" r="1.59"/><ellipse class="cls-3" cx="159.42" cy="476.72" rx="2.65" ry="1.59"/><ellipse class="cls-3" cx="166.84" cy="471.95" rx="1.59" ry="2.12"/><ellipse class="cls-3" cx="169.49" cy="466.13" rx="2.12" ry="1.59"/><ellipse class="cls-3" cx="165.78" cy="447.58" rx="1.59" ry="2.12"/><ellipse class="cls-9" cx="153.06" cy="426.91" rx="1.59" ry="2.65"/><ellipse class="cls-9" cx="146.17" cy="432.74" rx="3.18" ry="2.12"/><ellipse class="cls-9" cx="166.84" cy="432.74" rx="2.65" ry="2.12"/><ellipse class="cls-9" cx="156.24" cy="435.92" rx="2.65" ry="2.12"/><ellipse class="cls-9" cx="179.55" cy="431.15" rx="1.59" ry="2.65"/><circle class="cls-9" cx="173.73" cy="440.16" r="2.12"/><ellipse class="cls-9" cx="144.05" cy="440.69" rx="2.12" ry="2.65"/><ellipse class="cls-9" cx="162.07" cy="426.91" rx="2.12" ry="2.65"/><ellipse class="cls-9" cx="174.26" cy="427.44" rx="1.59" ry="2.12"/><ellipse class="cls-9" cx="139.28" cy="429.56" rx="2.65" ry="2.12"/><circle class="cls-9" cx="165.25" cy="439.1" r="2.12"/><circle class="cls-9" cx="158.89" cy="372.33" r="3.18"/><path class="cls-2" d="M718.06,481.22c0,4.16-6.2,7.89-16,10.5-9.56,2.57-22.67,4.11-37,4s-27.47-1.77-37-4.46c-1.23-.35-2.37-.69-3.47-1.08L702,470.48C711.92,473.21,718.09,477.06,718.06,481.22Z"/><path class="cls-2" d="M702,470.48l-77.5,19.72h0c-7.74-2.59-12.43-6-12.41-9.61,0-8.18,23.83-14.7,53.09-14.52C679.48,466.15,692.49,467.79,702,470.48Z"/><path class="cls-18" d="M718.06,481.22l-.13,21.2c0,8.18-23.83,14.7-53.09,14.52s-53-7-52.91-15.16l.13-21.2c0,3.65,4.66,7,12.41,9.61h0c1.1.39,2.24.73,3.47,1.08,9.52,2.69,22.62,4.37,37,4.46s27.48-1.45,37-4C711.87,489.11,718,485.37,718.06,481.22Z"/><path class="cls-1" d="M460.79,697c0,.37,0,.74,0,1.11a55.42,55.42,0,0,1-1.1,9.71c-7.55-5.86-16.62-1.59-20.64.87a42.42,42.42,0,0,1-1-11.3,35.47,35.47,0,0,1,5.23-1.81A24.63,24.63,0,0,1,460.79,697Z"/><path class="cls-2" d="M459.68,707.82c-2.81,13.35-9.9,16.14-9.9,16.14-6.4-3.43-9.39-9.55-10.74-15.27C443.05,706.23,452.13,702,459.68,707.82Z"/><path class="cls-3" d="M455.56,683.19a12.34,12.34,0,0,1-.06,1.24,10.67,10.67,0,0,1-.15,1.09l0,.14a10.87,10.87,0,0,0-5.39-1.44h-.84a10.53,10.53,0,0,0-2.49.29l-.12-.09-.28.19h0a10.67,10.67,0,0,0-2.68,1.15,12.66,12.66,0,0,1-.26-2.57v-.08a12.52,12.52,0,0,1,.44-3.26,9.94,9.94,0,0,1,.32-1c0-.09.07-.18.1-.27,1.08-2.63,3-4.39,5.29-4.39s4.21,1.76,5.28,4.38h0c.08.19.15.37.22.57s.15.44.21.68h0a12.15,12.15,0,0,1,.42,2.54C455.55,682.66,455.56,682.92,455.56,683.19Z"/><path class="cls-2" d="M455.56,676.52c0,.35,0,.69,0,1a11.89,11.89,0,0,1-.22,1.52c-.05.27-.11.53-.18.78-.06-.24-.13-.46-.21-.68s-.14-.38-.22-.57h0c-1.07-2.62-3-4.38-5.28-4.38s-4.22,1.76-5.29,4.39c0,.09-.07.18-.1.27a9.94,9.94,0,0,0-.32,1,11.49,11.49,0,0,1-.26-1.14,10.2,10.2,0,0,1-.13-1.07h0c0-.36-.05-.74-.05-1.12,0-3.59,1.45-6.68,3.53-8.12a4.58,4.58,0,0,1,2.62-.86,4.75,4.75,0,0,1,3.1,1.23A10.26,10.26,0,0,1,455.56,676.52Z"/><path class="cls-2" d="M460.8,695.08c0,.66,0,1.3,0,1.92a24.63,24.63,0,0,0-17.52-1.42,35.47,35.47,0,0,0-5.23,1.81c0-.08,0-.16,0-.24.07-1.3.17-2.08.17-2.08a10.87,10.87,0,0,1,5.28-9.32,10.67,10.67,0,0,1,2.68-1.15h0l.41-.1a10.53,10.53,0,0,1,2.49-.29h.84a10.87,10.87,0,0,1,5.39,1.44A11,11,0,0,1,460.8,695.08Z"/><path class="cls-19" d="M497.6,692.25c-3.74-4.14-33-8.39-42.06-9.85a12.15,12.15,0,0,0-.42-2.54h0c.07-.25.13-.51.18-.78,12-3.11,56.34-14.14,61.66-7.93C521.86,676.85,506.61,687.77,497.6,692.25Z"/><path class="cls-20" d="M498,693.19c-.51,5.13-9.23,13.85-19.49,7.69C472,697,462,690.11,455.35,685.52a10.67,10.67,0,0,0,.15-1.09,12.34,12.34,0,0,0,.06-1.24c0-.27,0-.53,0-.79,9.11,1.46,38.32,5.71,42.06,9.85A1.25,1.25,0,0,1,498,693.19Z"/><path class="cls-21" d="M443.69,679.85a12.52,12.52,0,0,0-.44,3.26l-.25.07h0c-7.69.65-27.38,2.64-37.44,6.44h0c-11.39.15-21.56-2.24-25-10.28-8.27-19.31,50.59-4,62.91-.63A11.49,11.49,0,0,0,443.69,679.85Z"/><path class="cls-22" d="M443.51,685.76a10.87,10.87,0,0,0-2.88,2.51c-6.22,4.08-14,9.16-15.48,10.05-2.56,1.54-18.47,7.69-25.13-2.05-1.82-2.65.78-4.85,5.52-6.64h0c10.06-3.81,29.75-5.79,37.44-6.44h0l.25,0v0A12.66,12.66,0,0,0,443.51,685.76Z"/><path class="cls-8" d="M432.33,722.94s-2.28-18.38,5.19-25.31c.17-.16.35-.32.54-.47"/><path class="cls-8" d="M460.77,697.08c2.91,1.28,6.74,6.31,4.39,24.83"/><path class="cls-8" d="M455.52,677.55c3.89-4.88,12.41-15.24,16.31-17.19"/><path class="cls-8" d="M452.51,668.77c1.76-3.25,6.83-11.39,14.19-13"/><path class="cls-8" d="M431.82,655.75c7,.88,13.33,10.06,15,12.65"/><path class="cls-8" d="M424.13,661.39c4.44-.41,14.92,11.26,19.18,16.25"/><ellipse class="cls-3" cx="446.44" cy="711.4" rx="1.28" ry="0.77"/><ellipse class="cls-3" cx="450.8" cy="709.86" rx="1.03" ry="0.77"/><ellipse class="cls-3" cx="451.05" cy="713.71" rx="0.77" ry="1.03"/><circle class="cls-3" cx="448.49" cy="717.04" r="1.28"/><ellipse class="cls-3" cx="455.41" cy="711.91" rx="1.03" ry="0.77"/><ellipse class="cls-3" cx="455.41" cy="707.81" rx="0.51" ry="1.28"/><ellipse class="cls-3" cx="446.95" cy="708.83" rx="1.8" ry="0.77"/><circle class="cls-3" cx="443.62" cy="711.14" r="1.03"/><circle class="cls-3" cx="444.9" cy="716.02" r="0.77"/><ellipse class="cls-3" cx="449.52" cy="721.66" rx="1.28" ry="0.77"/><ellipse class="cls-3" cx="453.11" cy="719.35" rx="0.77" ry="1.03"/><ellipse class="cls-3" cx="454.39" cy="716.53" rx="1.03" ry="0.77"/><ellipse class="cls-3" cx="452.59" cy="707.55" rx="0.77" ry="1.03"/><ellipse class="cls-9" cx="446.44" cy="697.55" rx="0.77" ry="1.28"/><ellipse class="cls-9" cx="443.1" cy="700.37" rx="1.54" ry="1.03"/><ellipse class="cls-9" cx="453.11" cy="700.37" rx="1.28" ry="1.03"/><ellipse class="cls-9" cx="447.98" cy="701.91" rx="1.28" ry="1.03"/><ellipse class="cls-9" cx="459.26" cy="699.6" rx="0.77" ry="1.28"/><circle class="cls-9" cx="456.44" cy="703.96" r="1.03"/><ellipse class="cls-9" cx="442.08" cy="704.22" rx="1.03" ry="1.28"/><ellipse class="cls-9" cx="450.8" cy="697.55" rx="1.03" ry="1.28"/><ellipse class="cls-9" cx="456.7" cy="697.81" rx="0.77" ry="1.03"/><ellipse class="cls-9" cx="439.77" cy="698.83" rx="1.28" ry="1.03"/><circle class="cls-9" cx="452.34" cy="703.45" r="1.03"/><circle class="cls-9" cx="449.26" cy="671.13" r="1.54"/><circle class="cls-2" cx="448.67" cy="651.87" r="3.87"/><path class="cls-1" d="M457.71,581.1c0,.37,0,.74,0,1.11a55.42,55.42,0,0,1-1.18,9.71c-7.5-5.92-16.61-1.72-20.65.71A42.42,42.42,0,0,1,435,581.3a35.47,35.47,0,0,1,5.24-1.76A24.63,24.63,0,0,1,457.71,581.1Z"/><path class="cls-2" d="M456.5,591.91c-2.91,13.33-10,16.06-10,16.06-6.37-3.48-9.31-9.62-10.61-15.36C439.89,590.19,449,586,456.5,591.91Z"/><path class="cls-3" d="M452.59,567.24a12.34,12.34,0,0,1-.07,1.24,10.67,10.67,0,0,1-.16,1.09l0,.14a10.87,10.87,0,0,0-5.38-1.48h-.84a10.53,10.53,0,0,0-2.5.27l-.12-.09-.28.19h0a10.67,10.67,0,0,0-2.69,1.13,12.66,12.66,0,0,1-.24-2.57v-.08a12.52,12.52,0,0,1,.47-3.25,9.94,9.94,0,0,1,.33-1c0-.09.07-.18.1-.27,1.1-2.62,3.08-4.37,5.33-4.35s4.2,1.79,5.25,4.42h0c.08.19.15.38.22.58s.15.44.2.68h0a12.15,12.15,0,0,1,.39,2.55C452.58,566.71,452.59,567,452.59,567.24Z"/><path class="cls-2" d="M452.64,560.57c0,.35,0,.69,0,1a11.89,11.89,0,0,1-.23,1.52c-.05.27-.12.53-.19.78-.06-.24-.13-.46-.2-.68s-.14-.39-.22-.58h0c-1.05-2.63-3-4.4-5.25-4.42s-4.23,1.73-5.33,4.35c0,.09-.07.18-.1.27a9.94,9.94,0,0,0-.33,1,11.49,11.49,0,0,1-.25-1.14,10.2,10.2,0,0,1-.12-1.07h0c0-.36,0-.74,0-1.12,0-3.59,1.5-6.67,3.6-8.09a4.58,4.58,0,0,1,2.63-.84,4.75,4.75,0,0,1,3.09,1.25A10.26,10.26,0,0,1,452.64,560.57Z"/><path class="cls-2" d="M457.73,579.17c0,.66,0,1.3,0,1.92a24.63,24.63,0,0,0-17.5-1.56A35.47,35.47,0,0,0,435,581.3c0-.08,0-.16,0-.24.08-1.3.19-2.08.19-2.08a10.87,10.87,0,0,1,5.35-9.28,10.67,10.67,0,0,1,2.69-1.13h0l.41-.1a10.53,10.53,0,0,1,2.5-.27H447a10.87,10.87,0,0,1,5.38,1.48A11,11,0,0,1,457.73,579.17Z"/><path class="cls-23" d="M494.54,576.64c-3.71-4.17-32.88-8.66-42-10.19a12.15,12.15,0,0,0-.39-2.55h0c.07-.25.14-.51.19-.78,12-3,56.45-13.69,61.72-7.44C518.93,561.44,503.59,572.24,494.54,576.64Z"/><path class="cls-24" d="M494.93,577.59c-.55,5.12-9.34,13.77-19.55,7.54-6.42-3.92-16.44-10.9-23-15.55a10.67,10.67,0,0,0,.16-1.09,12.34,12.34,0,0,0,.07-1.24c0-.27,0-.53,0-.79,9.1,1.53,38.27,6,42,10.19A1.25,1.25,0,0,1,494.93,577.59Z"/><path class="cls-25" d="M440.74,563.81a12.52,12.52,0,0,0-.47,3.25l-.25.07h0c-7.69.59-27.41,2.42-37.49,6.14h0c-11.39.06-21.54-2.42-24.93-10.49-8.12-19.37,50.62-3.6,62.91-.12A11.49,11.49,0,0,0,440.74,563.81Z"/><path class="cls-26" d="M440.51,569.72a10.87,10.87,0,0,0-2.9,2.48c-6.25,4-14.06,9-15.56,9.93-2.58,1.52-18.53,7.54-25.12-2.25-1.79-2.67.82-4.85,5.57-6.6h0c10.09-3.72,29.8-5.55,37.49-6.14h0l.25,0v0A12.66,12.66,0,0,0,440.51,569.72Z"/><path class="cls-8" d="M429,606.81s-2.13-18.4,5.39-25.27c.18-.16.36-.32.54-.47"/><path class="cls-8" d="M457.68,581.18c2.9,1.3,6.69,6.37,4.19,24.87"/><path class="cls-8" d="M452.59,561.61c3.93-4.85,12.54-15.14,16.44-17.06"/><path class="cls-8" d="M449.65,552.8c1.79-3.23,6.92-11.33,14.29-12.91"/><path class="cls-8" d="M429.06,539.61c7,.94,13.24,10.17,14.86,12.77"/><path class="cls-8" d="M421.33,545.19c4.45-.37,14.82,11.38,19,16.4"/><ellipse class="cls-3" cx="443.23" cy="595.38" rx="0.77" ry="1.28" transform="translate(-155.7 1033.8) rotate(-89.54)"/><ellipse class="cls-3" cx="447.61" cy="593.88" rx="0.77" ry="1.03" transform="translate(-149.86 1036.68) rotate(-89.54)"/><ellipse class="cls-3" cx="447.83" cy="597.72" rx="1.03" ry="0.77" transform="translate(-153.48 1040.72) rotate(-89.54)"/><circle class="cls-3" cx="445.24" cy="601.04" r="1.28" transform="translate(-159.37 1041.42) rotate(-89.54)"/><ellipse class="cls-3" cx="452.21" cy="595.96" rx="0.77" ry="1.03" transform="translate(-147.39 1043.35) rotate(-89.54)"/><ellipse class="cls-3" cx="452.24" cy="591.86" rx="1.28" ry="0.51" transform="translate(-143.25 1039.31) rotate(-89.54)"/><ellipse class="cls-3" cx="443.77" cy="592.82" rx="0.77" ry="1.8" transform="translate(-152.61 1031.79) rotate(-89.54)"/><circle class="cls-3" cx="440.41" cy="595.1" r="1.03" transform="translate(-158.22 1030.7) rotate(-89.54)"/><circle class="cls-3" cx="441.66" cy="599.98" r="0.77" transform="translate(-161.87 1036.79) rotate(-89.54)"/><ellipse class="cls-3" cx="446.23" cy="605.66" rx="0.77" ry="1.28" transform="translate(-163.01 1046.99) rotate(-89.54)"/><ellipse class="cls-3" cx="449.84" cy="603.38" rx="1.03" ry="0.77" transform="translate(-157.15 1048.34) rotate(-89.54)"/><ellipse class="cls-3" cx="451.14" cy="600.57" rx="0.77" ry="1.03" transform="translate(-153.05 1046.86) rotate(-89.54)"/><ellipse class="cls-3" cx="449.42" cy="591.58" rx="1.03" ry="0.77" transform="translate(-145.77 1036.22) rotate(-89.54)"/><ellipse class="cls-9" cx="443.34" cy="581.53" rx="1.28" ry="0.77" transform="translate(-141.74 1020.17) rotate(-89.54)"/><ellipse class="cls-9" cx="439.99" cy="584.32" rx="1.03" ry="1.54" transform="translate(-147.86 1019.59) rotate(-89.54)"/><ellipse class="cls-9" cx="449.99" cy="584.41" rx="1.03" ry="1.28" transform="translate(-138.02 1029.67) rotate(-89.54)"/><ellipse class="cls-9" cx="444.85" cy="585.9" rx="1.03" ry="1.28" transform="translate(-144.62 1026.01) rotate(-89.54)"/><ellipse class="cls-9" cx="456.15" cy="583.69" rx="1.28" ry="0.77" transform="translate(-131.19 1035.12) rotate(-89.54)"/><circle class="cls-9" cx="453.29" cy="588.02" r="1.03" transform="translate(-138.36 1036.56) rotate(-89.54)"/><ellipse class="cls-9" cx="438.93" cy="588.16" rx="1.28" ry="1.03" transform="translate(-152.75 1022.34) rotate(-89.54)"/><ellipse class="cls-9" cx="447.7" cy="581.57" rx="1.28" ry="1.03" transform="translate(-137.45 1024.57) rotate(-89.54)"/><ellipse class="cls-9" cx="453.6" cy="581.87" rx="1.03" ry="0.77" transform="translate(-131.91 1030.76) rotate(-89.54)"/><ellipse class="cls-9" cx="436.67" cy="582.76" rx="1.03" ry="1.28" transform="translate(-149.59 1014.71) rotate(-89.54)"/><circle class="cls-9" cx="449.2" cy="587.48" r="1.03" transform="translate(-141.88 1031.92) rotate(-89.54)"/><circle class="cls-9" cx="446.38" cy="555.14" r="1.54" transform="translate(-112.34 997.03) rotate(-89.54)"/><circle class="cls-2" cx="445.94" cy="535.87" r="3.87" transform="translate(-93.51 977.48) rotate(-89.54)"/><circle class="cls-2" cx="446.94" cy="512.87" r="3.87" transform="translate(-69.52 955.66) rotate(-89.54)"/><path class="cls-1" d="M453.71,427.1c0,.37,0,.74,0,1.11a55.42,55.42,0,0,1-1.18,9.71c-7.5-5.92-16.61-1.72-20.65.71A42.42,42.42,0,0,1,431,427.3a35.47,35.47,0,0,1,5.24-1.76A24.63,24.63,0,0,1,453.71,427.1Z"/><path class="cls-2" d="M452.5,437.91c-2.91,13.33-10,16.06-10,16.06-6.37-3.48-9.31-9.62-10.61-15.36C435.89,436.19,445,432,452.5,437.91Z"/><path class="cls-3" d="M448.59,413.24a12.34,12.34,0,0,1-.07,1.24,10.67,10.67,0,0,1-.16,1.09l0,.14a10.87,10.87,0,0,0-5.38-1.48h-.84a10.53,10.53,0,0,0-2.5.27l-.12-.09-.28.19h0a10.67,10.67,0,0,0-2.69,1.13,12.66,12.66,0,0,1-.24-2.57v-.08a12.52,12.52,0,0,1,.47-3.25,9.94,9.94,0,0,1,.33-1c0-.09.07-.18.1-.27,1.1-2.62,3.08-4.37,5.33-4.35s4.2,1.79,5.25,4.42h0c.08.19.15.38.22.58s.15.44.2.68h0a12.15,12.15,0,0,1,.39,2.55C448.58,412.71,448.59,413,448.59,413.24Z"/><path class="cls-2" d="M448.64,406.57c0,.35,0,.69,0,1a11.89,11.89,0,0,1-.23,1.52c-.05.27-.12.53-.19.78-.06-.24-.13-.46-.2-.68s-.14-.39-.22-.58h0c-1.05-2.63-3-4.4-5.25-4.42s-4.23,1.73-5.33,4.35c0,.09-.07.18-.1.27a9.94,9.94,0,0,0-.33,1,11.49,11.49,0,0,1-.25-1.14,10.2,10.2,0,0,1-.12-1.07h0c0-.36,0-.74,0-1.12,0-3.59,1.5-6.67,3.6-8.09a4.58,4.58,0,0,1,2.63-.84,4.75,4.75,0,0,1,3.09,1.25A10.26,10.26,0,0,1,448.64,406.57Z"/><path class="cls-2" d="M453.73,425.17c0,.66,0,1.3,0,1.92a24.63,24.63,0,0,0-17.5-1.56A35.47,35.47,0,0,0,431,427.3c0-.08,0-.16,0-.24.08-1.3.19-2.08.19-2.08a10.87,10.87,0,0,1,5.35-9.28,10.67,10.67,0,0,1,2.69-1.13h0l.41-.1a10.53,10.53,0,0,1,2.5-.27H443a10.87,10.87,0,0,1,5.38,1.48A11,11,0,0,1,453.73,425.17Z"/><path class="cls-27" d="M490.54,422.64c-3.71-4.17-32.88-8.66-42-10.19a12.15,12.15,0,0,0-.39-2.55h0c.07-.25.14-.51.19-.78,12-3,56.45-13.69,61.72-7.44C514.93,407.44,499.59,418.24,490.54,422.64Z"/><path class="cls-28" d="M490.93,423.59c-.55,5.12-9.34,13.77-19.55,7.54-6.42-3.92-16.44-10.9-23-15.55a10.67,10.67,0,0,0,.16-1.09,12.34,12.34,0,0,0,.07-1.24c0-.27,0-.53,0-.79,9.1,1.53,38.27,6,42,10.19A1.25,1.25,0,0,1,490.93,423.59Z"/><path class="cls-29" d="M436.74,409.81a12.52,12.52,0,0,0-.47,3.25l-.25.07h0c-7.69.59-27.41,2.42-37.49,6.14h0c-11.39.06-21.54-2.42-24.93-10.49-8.12-19.37,50.62-3.6,62.91-.12A11.49,11.49,0,0,0,436.74,409.81Z"/><path class="cls-30" d="M436.51,415.72a10.87,10.87,0,0,0-2.9,2.48c-6.25,4-14.06,9-15.56,9.93-2.58,1.52-18.53,7.54-25.12-2.25-1.79-2.67.82-4.85,5.57-6.6h0c10.09-3.72,29.8-5.55,37.49-6.14h0l.25,0v0A12.66,12.66,0,0,0,436.51,415.72Z"/><path class="cls-8" d="M425,452.81s-2.13-18.4,5.39-25.27c.18-.16.36-.32.54-.47"/><path class="cls-8" d="M453.68,427.18c2.9,1.3,6.69,6.37,4.19,24.87"/><path class="cls-8" d="M448.59,407.61c3.93-4.85,12.54-15.14,16.44-17.06"/><path class="cls-8" d="M445.65,398.8c1.79-3.23,6.92-11.33,14.29-12.91"/><path class="cls-8" d="M425.06,385.61c7,.94,13.24,10.17,14.86,12.77"/><path class="cls-8" d="M417.33,391.19c4.45-.37,14.82,11.38,19,16.4"/><ellipse class="cls-3" cx="439.23" cy="441.38" rx="0.77" ry="1.28" transform="translate(-5.67 877.04) rotate(-89.54)"/><ellipse class="cls-3" cx="443.61" cy="439.88" rx="0.77" ry="1.03" transform="translate(0.17 879.92) rotate(-89.54)"/><ellipse class="cls-3" cx="443.83" cy="443.72" rx="1.03" ry="0.77" transform="translate(-3.46 883.96) rotate(-89.54)"/><circle class="cls-3" cx="441.24" cy="447.04" r="1.28" transform="translate(-9.34 884.66) rotate(-89.54)"/><ellipse class="cls-3" cx="448.21" cy="441.96" rx="0.77" ry="1.03" transform="translate(2.64 886.59) rotate(-89.54)"/><ellipse class="cls-3" cx="448.24" cy="437.86" rx="1.28" ry="0.51" transform="translate(6.78 882.55) rotate(-89.54)"/><ellipse class="cls-3" cx="439.77" cy="438.82" rx="0.77" ry="1.8" transform="translate(-2.58 875.03) rotate(-89.54)"/><circle class="cls-3" cx="436.41" cy="441.1" r="1.03" transform="translate(-8.19 873.94) rotate(-89.54)"/><circle class="cls-3" cx="437.66" cy="445.98" r="0.77" transform="translate(-11.84 880.03) rotate(-89.54)"/><ellipse class="cls-3" cx="442.23" cy="451.66" rx="0.77" ry="1.28" transform="translate(-12.98 890.23) rotate(-89.54)"/><ellipse class="cls-3" cx="445.84" cy="449.38" rx="1.03" ry="0.77" transform="translate(-7.13 891.58) rotate(-89.54)"/><ellipse class="cls-3" cx="447.14" cy="446.57" rx="0.77" ry="1.03" transform="translate(-3.02 890.1) rotate(-89.54)"/><ellipse class="cls-3" cx="445.42" cy="437.58" rx="1.03" ry="0.77" transform="translate(4.26 879.46) rotate(-89.54)"/><ellipse class="cls-9" cx="439.34" cy="427.53" rx="1.28" ry="0.77" transform="translate(8.29 863.41) rotate(-89.54)"/><ellipse class="cls-9" cx="435.99" cy="430.32" rx="1.03" ry="1.54" transform="translate(2.16 862.83) rotate(-89.54)"/><ellipse class="cls-9" cx="445.99" cy="430.41" rx="1.03" ry="1.28" transform="translate(12 872.91) rotate(-89.54)"/><ellipse class="cls-9" cx="440.85" cy="431.9" rx="1.03" ry="1.28" transform="translate(5.41 869.25) rotate(-89.54)"/><ellipse class="cls-9" cx="452.15" cy="429.69" rx="1.28" ry="0.77" transform="translate(18.83 878.36) rotate(-89.54)"/><circle class="cls-9" cx="449.29" cy="434.02" r="1.03" transform="translate(11.66 879.8) rotate(-89.54)"/><ellipse class="cls-9" cx="434.93" cy="434.16" rx="1.28" ry="1.03" transform="translate(-2.72 865.58) rotate(-89.54)"/><ellipse class="cls-9" cx="443.7" cy="427.57" rx="1.28" ry="1.03" transform="translate(12.58 867.81) rotate(-89.54)"/><ellipse class="cls-9" cx="449.6" cy="427.87" rx="1.03" ry="0.77" transform="translate(18.12 874.01) rotate(-89.54)"/><ellipse class="cls-9" cx="432.67" cy="428.76" rx="1.03" ry="1.28" transform="translate(0.43 857.95) rotate(-89.54)"/><circle class="cls-9" cx="445.2" cy="433.48" r="1.03" transform="translate(8.14 875.16) rotate(-89.54)"/><circle class="cls-9" cx="442.38" cy="401.14" r="1.54" transform="translate(37.69 840.27) rotate(-89.54)"/><circle class="cls-2" cx="441.94" cy="381.87" r="3.87" transform="translate(56.52 820.72) rotate(-89.54)"/><circle class="cls-2" cx="442.94" cy="358.87" r="3.87" transform="translate(80.51 798.91) rotate(-89.54)"/><circle class="cls-2" cx="443.94" cy="335.87" r="3.87" transform="translate(104.5 777.09) rotate(-89.54)"/><path class="cls-1" d="M448.71,246.1c0,.37,0,.74,0,1.11a55.42,55.42,0,0,1-1.18,9.71c-7.5-5.92-16.61-1.72-20.65.71A42.42,42.42,0,0,1,426,246.3a35.47,35.47,0,0,1,5.24-1.76A24.63,24.63,0,0,1,448.71,246.1Z"/><path class="cls-2" d="M447.5,256.91c-2.91,13.33-10,16.06-10,16.06-6.37-3.48-9.31-9.62-10.61-15.36C430.89,255.19,440,251,447.5,256.91Z"/><path class="cls-3" d="M443.59,232.24a12.34,12.34,0,0,1-.07,1.24,10.67,10.67,0,0,1-.16,1.09l0,.14a10.87,10.87,0,0,0-5.38-1.48h-.84a10.53,10.53,0,0,0-2.5.27l-.12-.09-.28.19h0a10.67,10.67,0,0,0-2.69,1.13,12.66,12.66,0,0,1-.24-2.57v-.08a12.52,12.52,0,0,1,.47-3.25,9.94,9.94,0,0,1,.33-1c0-.09.07-.18.1-.27,1.1-2.62,3.08-4.37,5.33-4.35s4.2,1.79,5.25,4.42h0c.08.19.15.38.22.58s.15.44.2.68h0a12.15,12.15,0,0,1,.39,2.55C443.58,231.71,443.59,232,443.59,232.24Z"/><path class="cls-2" d="M443.64,225.57c0,.35,0,.69,0,1a11.89,11.89,0,0,1-.23,1.52c-.05.27-.12.53-.19.78-.06-.24-.13-.46-.2-.68s-.14-.39-.22-.58h0c-1.05-2.63-3-4.4-5.25-4.42s-4.23,1.73-5.33,4.35c0,.09-.07.18-.1.27a9.94,9.94,0,0,0-.33,1,11.49,11.49,0,0,1-.25-1.14,10.2,10.2,0,0,1-.12-1.07h0c0-.36,0-.74,0-1.12,0-3.59,1.5-6.67,3.6-8.09a4.58,4.58,0,0,1,2.63-.84,4.75,4.75,0,0,1,3.09,1.25A10.26,10.26,0,0,1,443.64,225.57Z"/><path class="cls-2" d="M448.73,244.17c0,.66,0,1.3,0,1.92a24.63,24.63,0,0,0-17.5-1.56A35.47,35.47,0,0,0,426,246.3c0-.08,0-.16,0-.24.08-1.3.19-2.08.19-2.08a10.87,10.87,0,0,1,5.35-9.28,10.67,10.67,0,0,1,2.69-1.13h0l.41-.1a10.53,10.53,0,0,1,2.5-.27H438a10.87,10.87,0,0,1,5.38,1.48A11,11,0,0,1,448.73,244.17Z"/><path class="cls-31" d="M485.54,241.64c-3.71-4.17-32.88-8.66-42-10.19a12.15,12.15,0,0,0-.39-2.55h0c.07-.25.14-.51.19-.78,12-3,56.45-13.69,61.72-7.44C509.93,226.44,494.59,237.24,485.54,241.64Z"/><path class="cls-32" d="M485.93,242.59c-.55,5.12-9.34,13.77-19.55,7.54-6.42-3.92-16.44-10.9-23-15.55a10.67,10.67,0,0,0,.16-1.09,12.34,12.34,0,0,0,.07-1.24c0-.27,0-.53,0-.79,9.1,1.53,38.27,6,42,10.19A1.25,1.25,0,0,1,485.93,242.59Z"/><path class="cls-33" d="M431.74,228.81a12.52,12.52,0,0,0-.47,3.25l-.25.07h0c-7.69.59-27.41,2.42-37.49,6.14h0c-11.39.06-21.54-2.42-24.93-10.49-8.12-19.37,50.62-3.6,62.91-.12A11.49,11.49,0,0,0,431.74,228.81Z"/><path class="cls-34" d="M431.51,234.72a10.87,10.87,0,0,0-2.9,2.48c-6.25,4-14.06,9-15.56,9.93-2.58,1.52-18.53,7.54-25.12-2.25-1.79-2.67.82-4.85,5.57-6.6h0c10.09-3.72,29.8-5.55,37.49-6.14h0l.25,0v0A12.66,12.66,0,0,0,431.51,234.72Z"/><path class="cls-8" d="M420,271.81s-2.13-18.4,5.39-25.27c.18-.16.36-.32.54-.47"/><path class="cls-8" d="M448.68,246.18c2.9,1.3,6.69,6.37,4.19,24.87"/><path class="cls-8" d="M443.59,226.61c3.93-4.85,12.54-15.14,16.44-17.06"/><path class="cls-8" d="M440.65,217.8c1.79-3.23,6.92-11.33,14.29-12.91"/><path class="cls-8" d="M420.06,204.61c7,.94,13.24,10.17,14.86,12.77"/><path class="cls-8" d="M412.33,210.19c4.45-.37,14.82,11.38,19,16.4"/><ellipse class="cls-3" cx="434.23" cy="260.38" rx="0.77" ry="1.28" transform="translate(170.36 692.5) rotate(-89.54)"/><ellipse class="cls-3" cx="438.61" cy="258.88" rx="0.77" ry="1.03" transform="translate(176.2 695.38) rotate(-89.54)"/><ellipse class="cls-3" cx="438.83" cy="262.72" rx="1.03" ry="0.77" transform="translate(172.58 699.42) rotate(-89.54)"/><circle class="cls-3" cx="436.24" cy="266.04" r="1.28" transform="translate(166.69 700.12) rotate(-89.54)"/><ellipse class="cls-3" cx="443.21" cy="260.96" rx="0.77" ry="1.03" transform="translate(178.68 702.05) rotate(-89.54)"/><ellipse class="cls-3" cx="443.24" cy="256.86" rx="1.28" ry="0.51" transform="translate(182.81 698.01) rotate(-89.54)"/><ellipse class="cls-3" cx="434.77" cy="257.82" rx="0.77" ry="1.8" transform="translate(173.45 690.49) rotate(-89.54)"/><circle class="cls-3" cx="431.41" cy="260.1" r="1.03" transform="translate(167.84 689.4) rotate(-89.54)"/><circle class="cls-3" cx="432.66" cy="264.98" r="0.77" transform="translate(164.19 695.49) rotate(-89.54)"/><ellipse class="cls-3" cx="437.23" cy="270.66" rx="0.77" ry="1.28" transform="translate(163.05 705.69) rotate(-89.54)"/><ellipse class="cls-3" cx="440.84" cy="268.38" rx="1.03" ry="0.77" transform="translate(168.91 707.04) rotate(-89.54)"/><ellipse class="cls-3" cx="442.14" cy="265.57" rx="0.77" ry="1.03" transform="translate(173.01 705.56) rotate(-89.54)"/><ellipse class="cls-3" cx="440.42" cy="256.58" rx="1.03" ry="0.77" transform="translate(180.29 694.92) rotate(-89.54)"/><ellipse class="cls-9" cx="434.34" cy="246.53" rx="1.28" ry="0.77" transform="translate(184.32 678.87) rotate(-89.54)"/><ellipse class="cls-9" cx="430.99" cy="249.32" rx="1.03" ry="1.54" transform="translate(178.2 678.29) rotate(-89.54)"/><ellipse class="cls-9" cx="440.99" cy="249.41" rx="1.03" ry="1.28" transform="translate(188.04 688.37) rotate(-89.54)"/><ellipse class="cls-9" cx="435.85" cy="250.9" rx="1.03" ry="1.28" transform="translate(181.44 684.71) rotate(-89.54)"/><ellipse class="cls-9" cx="447.15" cy="248.69" rx="1.28" ry="0.77" transform="translate(194.87 693.82) rotate(-89.54)"/><circle class="cls-9" cx="444.29" cy="253.02" r="1.03" transform="translate(187.7 695.26) rotate(-89.54)"/><ellipse class="cls-9" cx="429.93" cy="253.16" rx="1.28" ry="1.03" transform="translate(173.31 681.04) rotate(-89.54)"/><ellipse class="cls-9" cx="438.7" cy="246.57" rx="1.28" ry="1.03" transform="translate(188.61 683.27) rotate(-89.54)"/><ellipse class="cls-9" cx="444.6" cy="246.87" rx="1.03" ry="0.77" transform="translate(194.15 689.47) rotate(-89.54)"/><ellipse class="cls-9" cx="427.67" cy="247.76" rx="1.03" ry="1.28" transform="translate(176.47 673.41) rotate(-89.54)"/><circle class="cls-9" cx="440.2" cy="252.48" r="1.03" transform="translate(184.18 690.62) rotate(-89.54)"/><circle class="cls-9" cx="437.38" cy="220.14" r="1.54" transform="translate(213.72 655.73) rotate(-89.54)"/><circle class="cls-2" cx="436.94" cy="200.87" r="3.87" transform="translate(232.55 636.18) rotate(-89.54)"/><circle class="cls-2" cx="437.94" cy="177.87" r="3.87" transform="translate(256.54 614.36) rotate(-89.54)"/><circle class="cls-2" cx="438.94" cy="154.87" r="3.87" transform="translate(280.54 592.55) rotate(-89.54)"/><circle class="cls-2" cx="439.94" cy="126.87" r="3.87" transform="translate(309.53 565.78) rotate(-89.54)"/></svg>