<svg id="Layer_1" data-name="Layer 1" xmlns="http://www.w3.org/2000/svg" viewBox="0 0 800 800"><defs><style>.cls-1,.cls-2,.cls-3{stroke:#000;stroke-width:0.25px;}.cls-1,.cls-2,.cls-3,.cls-4{stroke-miterlimit:10;}.cls-2{fill:#5f007c;}.cls-3{fill:#cd4e00;}.cls-4{stroke:#ed1c24;stroke-width:0.5px;}</style></defs><title>orange beetle</title><path class="cls-1" d="M162.46,622.35a38.2,38.2,0,0,1-9.66,19.53c-11.47,12-24.09,6.31-22.37,22.37.74,6.93.2,22.09.5,37.81l-5.65,7.56c1.67-21,2.83-42.23,2.28-48.81-1.15-13.76-17.78-8-26.38-22.94a61,61,0,0,1-4.78-10.16c-.45-1.31-.8-2.51-1.07-3.59a25.43,25.43,0,0,1-.67-4c.14-.14.29-.26.44-.38a34.23,34.23,0,0,0,1.32,5.15h0a34,34,0,0,0,1.33,3.31,34.42,34.42,0,0,0,64.58-5.86Z"/><path class="cls-1" d="M136.06,742.32a49.74,49.74,0,0,1-13.89,0c.41-3.44.82-7.3,1.23-11.41h0c.66-6.64,1.31-14,1.89-21.31l5.65-7.56c.11,6.1.36,12.3.85,18.12C132.53,728.85,133.81,736.72,136.06,742.32Z"/><path class="cls-2" d="M131.79,720.19l-8.39,10.75c.66-6.64,1.31-14,1.89-21.31l5.65-7.56C131.06,708.16,131.3,714.36,131.79,720.19Z"/><path class="cls-2" d="M134.76,600c-7.19,7.82-12.18,3.57-14.44.54h0c.34-.57.45-1.1.37-1.06,5.16-8,12-2.29,13.19-.57A6.81,6.81,0,0,0,134.76,600Z"/><path class="cls-1" d="M145.35,607.47a11.22,11.22,0,0,1-.14,2.13c-2,12.51-25.1,15-32.55,5.33a13.84,13.84,0,0,1-2.38-4.39,7.51,7.51,0,0,1,3.29-8.82,4.24,4.24,0,0,1,3.17-.84.73.73,0,0,1,.52.86,2.49,2.49,0,0,0,3.07-1.23c2.25,3,7.25,7.28,14.44-.54.56.53,1.22.8,1.85.14.43-.45,1.18-.33,1.8-.38a7.66,7.66,0,0,1,2.33.09,5,5,0,0,1,2.23,1.08C144.22,601.93,145.25,603.89,145.35,607.47Z"/><path class="cls-3" d="M162,589.12c-2.87,3.44-7.46,8-10.32,9.18-2.64,1.06-4.79-.32-8.69,2.59a5,5,0,0,0-2.23-1.08c1.31-1.53,3.47-3.8,4.61-3.8,1.72,0,4.59.57,6.31-1.72s4-6.88,6.31-8.6S164.85,585.67,162,589.12Z"/><path class="cls-3" d="M116.73,600.87h0a4.24,4.24,0,0,0-3.17.84,9,9,0,0,1-1.48-1.7c-1.15-1.72-4-1.15-6.31-.57s-8-5.74-10.9-9.18,0-5.16,2.87-5.16,5.16,10.32,10.9,11.47S116.73,600.87,116.73,600.87Z"/><path class="cls-2" d="M162.87,619.72l-.1.79a.07.07,0,0,0,0,0c-.13.61-.26,1.22-.42,1.81a34.42,34.42,0,0,1-64.58,5.86,34,34,0,0,1-1.33-3.31h0a34.23,34.23,0,0,1-1.32-5.15c.3-.25.6-.5.9-.75q1.3-1.07,2.65-2l.9-.64.92-.63c.93-.63,1.88-1.21,2.84-1.77l.84-.48.52-.29,1-.52.05,0,1-.49.65-.32.91-.42c.68-.3,1.35-.59,2-.87a13.84,13.84,0,0,0,2.38,4.39c7.45,9.65,30.53,7.18,32.55-5.33l1.13.4a50.87,50.87,0,0,1,6,2.65l1,.54.81.45.56.33q1.7,1,3.34,2.11l1,.69c.52.37,1,.76,1.55,1.15l.64.5.71.57C162.28,619.23,162.57,619.47,162.87,619.72Z"/><path class="cls-1" d="M175.32,619.79a30.5,30.5,0,0,1-9.81,2.32q-1.28-1.22-2.62-2.36l0,0c-.29-.25-.58-.49-.88-.73l1-.95c.91-.8,2-1.76,3.28-2.7,3.61-2.74,8.13-5.35,10.66-3.71a3.48,3.48,0,0,1,1.24,1.51,6.52,6.52,0,0,1,.4,1.2C179.2,616.84,177.77,618.58,175.32,619.79Z"/><path class="cls-1" d="M178.21,613.15a3.48,3.48,0,0,0-1.24-1.51c.3-3.53,1.53-15.17,4.63-13.65a2,2,0,0,1,.45.3,5,5,0,0,1,1.31,1.72h0C185.09,603.63,182.65,609.23,178.21,613.15Z"/><path class="cls-1" d="M186.07,594.28a10.66,10.66,0,0,0-2.7,5.74,5,5,0,0,0-1.31-1.72,2,2,0,0,0-.45-.3c1.07-13.15,7.34-10,7.34-10C191.23,588,188.94,591.41,186.07,594.28Z"/><path class="cls-1" d="M194.1,644.18l-.07.14c-1.66,3.33-7.1,4-11.72,3.94a73.77,73.77,0,0,0-3.56-8.22c3.41-.3,12.65-.87,15.06,1.59A2.1,2.1,0,0,1,194.1,644.18Z"/><path class="cls-1" d="M211.88,646.47a47.58,47.58,0,0,1-5.14-.93l-.59-.14a5,5,0,0,0,0-1.66v0a4.54,4.54,0,0,0-.09-.45c1.91.21,5.08.33,7-.81,2.87-1.72,6.31-4.59,6.88-1.72S216.47,647,211.88,646.47Z"/><path class="cls-1" d="M206.15,645.39c-.33,2-2,3.15-4.59,1.65a31.3,31.3,0,0,0-7.52-2.72l.07-.14a2.1,2.1,0,0,0-.29-2.55c2.59-.72,10.27-2.6,11.73.25h0a6.22,6.22,0,0,1,.52,1.38,4.54,4.54,0,0,1,.09.45v0A5,5,0,0,1,206.15,645.39Z"/><path class="cls-1" d="M195.25,689.48l-.19.09a20.56,20.56,0,0,1-5.09,1.55,21.82,21.82,0,0,1-4.78.28,77.63,77.63,0,0,0,1.61-12.15C192,681.2,202.73,686,195.25,689.48Z"/><path class="cls-1" d="M201.56,704.4a4.31,4.31,0,0,1-1.49,3.44,4.39,4.39,0,0,1-2.48,1,3.4,3.4,0,0,1-1.94-.36c-1.9-1.07-.39-4.1-.39-9.26,0-4-3.46-7-5.28-8.11a20.56,20.56,0,0,0,5.09-1.55c3.79,3.5,5.74,8.8,6.31,12.6A14.91,14.91,0,0,1,201.56,704.4Z"/><path class="cls-1" d="M206.15,722.75q-.86,1.72-5.16-3.44c-2.45-2.94-3.22-8.8-3.4-10.46a4.39,4.39,0,0,0,2.48-1,87,87,0,0,0,4.36,8C207.29,720.46,206.72,721.6,206.15,722.75Z"/><path class="cls-1" d="M72.8,691.31c-2.89,2-6.89,4.11-9.92,3a4.88,4.88,0,0,1-2.42-2,5,5,0,0,1-.5-.95c-1.88-4.86,7-8.74,11.36-10.32A77.24,77.24,0,0,0,72.8,691.31Z"/><path class="cls-1" d="M57.54,709.7c0,.8-.11,1.63-.21,2.47a32.41,32.41,0,0,1-2,8.87c-1.15,2.29-4,4-6.31,2.87s-2.29-4,1.15-5.74c3-1.52,5-7.66,5.36-9.07a2.25,2.25,0,0,0,.34.21A2.47,2.47,0,0,0,57.54,709.7Z"/><path class="cls-1" d="M62.89,694.33c-4.22,4.27-2.31,14.71-5.35,15.37a2.47,2.47,0,0,1-1.7-.39,2.25,2.25,0,0,1-.34-.21,3.67,3.67,0,0,1-1.4-3.13h0s0,0,0,0h0c-.09-4.66,4.35-12.12,5.87-14.54a5,5,0,0,0,.5.95A4.88,4.88,0,0,0,62.89,694.33Z"/><path class="cls-1" d="M77.86,642.94q-1.25,2.74-2.28,5.62c-4.42.73-14.29,2-14.07-1.14a3.11,3.11,0,0,1,.68-1.53,10.89,10.89,0,0,1,1.47-1.64h0C68,640.33,75.18,640.06,77.86,642.94Z"/><path class="cls-1" d="M63.66,644.26a10.89,10.89,0,0,0-1.47,1.64,3.11,3.11,0,0,0-.68,1.53,24.66,24.66,0,0,1-8.17.66,6.51,6.51,0,0,1-3.11-1.15h0A3.72,3.72,0,0,1,49,645.32a2.86,2.86,0,0,1-.17-.6c-.43-2.84,5.67-2.27,10.64-1.36C61.07,643.66,62.56,644,63.66,644.26Z"/><path class="cls-1" d="M50.23,646.93c-3.78,1.22-12.36.86-14.42-2.75-2.29-4,5.16-2.87,5.74-1.15.42,1.28,5,1.61,7.28,1.69a2.86,2.86,0,0,0,.17.6A3.72,3.72,0,0,0,50.23,646.93Z"/><path class="cls-1" d="M93.13,621.52c-1.18,1.08-2.31,2.22-3.41,3.41-1.32-.6-2.64-1.23-3.88-1.89-5.74-3-10.12-6.44-8-9.35a3.43,3.43,0,0,1,.41-.48A6,6,0,0,1,79.94,612c4.16-2,8.76,2.91,11.46,6.77A29.64,29.64,0,0,1,93.13,621.52Z"/><path class="cls-1" d="M79.94,612a6,6,0,0,0-1.69,1.22,3.43,3.43,0,0,0-.41.48c-5.42-4.57-5.9-8.22-5.9-11.38a2.08,2.08,0,0,1,1.45-2.06,3,3,0,0,1,1.51-.1c1.46.26,2.78,1.55,2.2,3.88C76.31,607.17,78.49,610.31,79.94,612Z"/><path class="cls-1" d="M74.9,600.15a3,3,0,0,0-1.51.1c-1.45-4.08-8-8.06-5.46-11.13C70.23,586.35,73.65,596.19,74.9,600.15Z"/><path class="cls-3" d="M186.92,674.86c0,1.47,0,2.94-.12,4.39a77.63,77.63,0,0,1-1.61,12.15c-5.74,26.94-25.18,47.51-49.13,50.92-2.25-5.6-3.53-13.47-4.27-22.13-.49-5.83-.73-12-.85-18.12-.3-15.73.24-30.88-.5-37.81-1.72-16.06,10.9-10.32,22.37-22.37a38.2,38.2,0,0,0,9.66-19.53q.17-.95.29-1.81a.07.07,0,0,1,0,0l.14-.76q1.33,1.14,2.62,2.36A66.32,66.32,0,0,1,178.75,640a73.77,73.77,0,0,1,3.56,8.22A78,78,0,0,1,186.92,674.86Z"/><path class="cls-3" d="M125.29,709.62c-.59,7.35-1.23,14.68-1.89,21.31h0c-.41,4.12-.82,8-1.23,11.41-24.08-3.32-43.63-24-49.36-51a77.24,77.24,0,0,1-1.47-10.23q-.24-3.07-.24-6.22a78,78,0,0,1,4.5-26.3q1-2.88,2.28-5.62a67.75,67.75,0,0,1,11.86-18c1.1-1.19,2.23-2.33,3.41-3.41.5-.48,1-.94,1.54-1.38a25.43,25.43,0,0,0,.67,4c.26,1.08.61,2.28,1.07,3.59a61,61,0,0,0,4.78,10.16c8.6,14.91,25.24,9.18,26.38,22.94C128.12,667.39,127,688.65,125.29,709.62Z"/><polygon class="cls-2" points="94.26 664.95 85.4 664.28 83.29 655.64 90.86 650.97 97.64 656.73 94.26 664.95"/><polygon class="cls-3" points="107.38 684.2 96.3 683.06 93.96 672.17 103.59 666.58 111.88 674.01 107.38 684.2"/><polygon class="cls-2" points="114.99 712.12 99.1 713.96 92.43 699.41 104.21 688.58 118.15 696.43 114.99 712.12"/><polygon class="cls-2" points="165.13 696.47 142.61 693.42 138.54 671.07 158.55 660.29 174.98 675.99 165.13 696.47"/><polygon class="cls-3" points="155.4 715.5 148.82 713.24 148.94 706.28 155.6 704.25 159.58 709.95 155.4 715.5"/><polygon class="cls-1" points="143.97 732.85 138.07 732.81 136.29 727.19 141.08 723.75 145.83 727.25 143.97 732.85"/><polygon class="cls-1" points="174.85 653.74 163.83 660.68 153.82 652.34 158.66 640.25 171.66 641.11 174.85 653.74"/><polygon class="cls-3" points="91.3 643.59 84.74 644.04 82.29 637.94 87.32 633.72 92.9 637.21 91.3 643.59"/><polygon class="cls-3" points="87.07 673.62 81.72 672.56 81.08 667.14 86.03 664.86 89.74 668.87 87.07 673.62"/><polygon class="cls-3" points="82.42 694.99 76.81 695.72 74.38 690.61 78.48 686.72 83.45 689.42 82.42 694.99"/><polygon class="cls-1" points="110.97 726.5 102.47 729.55 96.95 722.4 102.04 714.95 110.71 717.48 110.97 726.5"/><polygon class="cls-1" points="120.28 663.68 113.97 664.33 111.39 658.53 116.12 654.29 121.61 657.47 120.28 663.68"/><polygon class="cls-3" points="119.22 684.2 113.76 683.94 112.32 678.66 116.9 675.66 121.16 679.09 119.22 684.2"/><polygon class="cls-3" points="143.97 659.03 138.76 661.16 135.13 656.86 138.09 652.07 143.56 653.41 143.97 659.03"/><polygon class="cls-3" points="143.34 709.37 135.41 708.61 133.69 700.84 140.55 696.8 146.51 702.07 143.34 709.37"/><polygon class="cls-3" points="155.82 728.41 150.31 727.53 149.44 722.03 154.41 719.5 158.35 723.44 155.82 728.41"/><polygon class="cls-3" points="171.05 713.39 163.89 709.27 165.59 701.19 173.8 700.31 177.18 707.85 171.05 713.39"/><polygon class="cls-3" points="180.14 690.97 175.05 686.99 177.26 680.91 183.72 681.13 185.51 687.35 180.14 690.97"/><polygon class="cls-1" points="92.36 686.95 84.74 688.17 81.22 681.3 86.67 675.83 93.55 679.33 92.36 686.95"/><polygon class="cls-3" points="89.82 710.43 83.35 711.29 80.52 705.4 85.26 700.89 91 704 89.82 710.43"/><polygon class="cls-3" points="111.61 736.02 112.2 731.6 116.6 730.8 118.72 734.73 115.64 737.96 111.61 736.02"/><path class="cls-1" d="M182.31,381.26a72.91,72.91,0,0,0-3.56-8.23,66.22,66.22,0,0,0-13.23-17.92c-.86-.82-1.73-1.6-2.62-2.36-.05.25-.09.5-.14.76,0-.27.07-.54.11-.79L162,352l-.71-.57-.64-.5c-.52-.4-1-.78-1.55-1.15l-1-.7c-1.09-.74-2.21-1.45-3.34-2.11l-.56-.33-.81-.44q-.51-.29-1-.54a49.4,49.4,0,0,0-6-2.65l-1.13-.4c-2,12.51-25.1,15-32.55,5.33a13.84,13.84,0,0,1-2.38-4.4c-.68.28-1.36.56-2,.87l-.91.42-.65.31-1,.49-.05,0c-.33.16-.65.34-1,.51l-.52.29-.85.48c-1,.56-1.91,1.14-2.84,1.77l-.92.62-.9.65c-.9.65-1.78,1.32-2.65,2l-.9.75-.44.38c-.52.44-1,.9-1.54,1.39-1.18,1.07-2.31,2.21-3.41,3.4a68,68,0,0,0-11.86,18q-1.24,2.74-2.27,5.62a77.9,77.9,0,0,0-4.5,26.3q0,3.15.24,6.22a77.29,77.29,0,0,0,1.47,10.23c5.73,27.07,25.29,47.72,49.37,51a50,50,0,0,0,13.89,0c24-3.41,43.39-24,49.13-50.92a77.44,77.44,0,0,0,1.61-12.15c.08-1.45.12-2.92.12-4.39A77.84,77.84,0,0,0,182.31,381.26Z"/><path class="cls-1" d="M162.46,355.35a38.2,38.2,0,0,1-9.66,19.53c-11.47,12-24.09,6.31-22.37,22.37.74,6.93.2,22.09.5,37.81l-5.65,7.56c1.67-21,2.83-42.23,2.28-48.81-1.15-13.76-17.78-8-26.38-22.94a61,61,0,0,1-4.78-10.16c-.45-1.31-.8-2.51-1.07-3.59a25.43,25.43,0,0,1-.67-4c.14-.14.29-.26.44-.38a34.23,34.23,0,0,0,1.32,5.15h0a34,34,0,0,0,1.33,3.31,34.42,34.42,0,0,0,64.58-5.86Z"/><path class="cls-1" d="M136.06,475.32a49.74,49.74,0,0,1-13.89,0c.41-3.44.82-7.3,1.23-11.41h0c.66-6.64,1.31-14,1.89-21.31l5.65-7.56c.11,6.1.36,12.3.85,18.12C132.53,461.85,133.81,469.72,136.06,475.32Z"/><path class="cls-2" d="M131.79,453.19l-8.39,10.75c.66-6.64,1.31-14,1.89-21.31l5.65-7.56C131.06,441.16,131.3,447.36,131.79,453.19Z"/><path class="cls-2" d="M134.76,333c-7.19,7.82-12.18,3.57-14.44.54h0c.34-.57.45-1.1.37-1.06,5.16-8,12-2.29,13.19-.57A6.81,6.81,0,0,0,134.76,333Z"/><path class="cls-1" d="M145.35,340.47a11.22,11.22,0,0,1-.14,2.13c-2,12.51-25.1,15-32.55,5.33a13.84,13.84,0,0,1-2.38-4.39,7.51,7.51,0,0,1,3.29-8.82,4.24,4.24,0,0,1,3.17-.84.73.73,0,0,1,.52.86,2.49,2.49,0,0,0,3.07-1.23c2.25,3,7.25,7.28,14.44-.54.56.53,1.22.8,1.85.14.43-.45,1.18-.33,1.8-.38a7.66,7.66,0,0,1,2.33.09,5,5,0,0,1,2.23,1.08C144.22,334.93,145.25,336.89,145.35,340.47Z"/><path class="cls-3" d="M162,322.12c-2.87,3.44-7.46,8-10.32,9.18-2.64,1.06-4.79-.32-8.69,2.59a5,5,0,0,0-2.23-1.08c1.31-1.53,3.47-3.8,4.61-3.8,1.72,0,4.59.57,6.31-1.72s4-6.88,6.31-8.6S164.85,318.67,162,322.12Z"/><path class="cls-3" d="M116.73,333.87h0a4.24,4.24,0,0,0-3.17.84,9,9,0,0,1-1.48-1.7c-1.15-1.72-4-1.15-6.31-.57s-8-5.74-10.9-9.18,0-5.16,2.87-5.16,5.16,10.32,10.9,11.47S116.73,333.87,116.73,333.87Z"/><path class="cls-2" d="M162.87,352.72l-.1.79a.07.07,0,0,0,0,0c-.13.61-.26,1.22-.42,1.81a34.42,34.42,0,0,1-64.58,5.86,34,34,0,0,1-1.33-3.31h0a34.23,34.23,0,0,1-1.32-5.15c.3-.25.6-.5.9-.75q1.3-1.07,2.65-2l.9-.64.92-.63c.93-.63,1.88-1.21,2.84-1.77l.84-.48.52-.29,1-.52.05,0,1-.49.65-.32.91-.42c.68-.3,1.35-.59,2-.87a13.84,13.84,0,0,0,2.38,4.39c7.45,9.65,30.53,7.18,32.55-5.33l1.13.4a50.87,50.87,0,0,1,6,2.65l1,.54.81.45.56.33q1.7,1,3.34,2.11l1,.69c.52.37,1,.76,1.55,1.15l.64.5.71.57C162.28,352.23,162.57,352.47,162.87,352.72Z"/><path class="cls-1" d="M175.32,352.79a30.5,30.5,0,0,1-9.81,2.32q-1.28-1.22-2.62-2.36l0,0c-.29-.25-.58-.49-.88-.73l1-.95c.91-.8,2-1.76,3.28-2.7,3.61-2.74,8.13-5.35,10.66-3.71a3.48,3.48,0,0,1,1.24,1.51,6.52,6.52,0,0,1,.4,1.2C179.2,349.84,177.77,351.58,175.32,352.79Z"/><path class="cls-1" d="M178.21,346.15a3.48,3.48,0,0,0-1.24-1.51c.3-3.53,1.53-15.17,4.63-13.65a2,2,0,0,1,.45.3,5,5,0,0,1,1.31,1.72h0C185.09,336.63,182.65,342.23,178.21,346.15Z"/><path class="cls-1" d="M186.07,327.28a10.66,10.66,0,0,0-2.7,5.74,5,5,0,0,0-1.31-1.72,2,2,0,0,0-.45-.3c1.07-13.15,7.34-10,7.34-10C191.23,321,188.94,324.41,186.07,327.28Z"/><path class="cls-1" d="M194.1,377.18l-.07.14c-1.66,3.33-7.1,4-11.72,3.94a73.77,73.77,0,0,0-3.56-8.22c3.41-.3,12.65-.87,15.06,1.59A2.1,2.1,0,0,1,194.1,377.18Z"/><path class="cls-1" d="M211.88,379.47a47.58,47.58,0,0,1-5.14-.93l-.59-.14a5,5,0,0,0,0-1.66v0a4.54,4.54,0,0,0-.09-.45c1.91.21,5.08.33,7-.81,2.87-1.72,6.31-4.59,6.88-1.72S216.47,380,211.88,379.47Z"/><path class="cls-1" d="M206.15,378.39c-.33,2-2,3.15-4.59,1.65a31.3,31.3,0,0,0-7.52-2.72l.07-.14a2.1,2.1,0,0,0-.29-2.55c2.59-.72,10.27-2.6,11.73.25h0a6.22,6.22,0,0,1,.52,1.38,4.54,4.54,0,0,1,.09.45v0A5,5,0,0,1,206.15,378.39Z"/><path class="cls-1" d="M195.25,422.48l-.19.09a20.56,20.56,0,0,1-5.09,1.55,21.82,21.82,0,0,1-4.78.28,77.63,77.63,0,0,0,1.61-12.15C192,414.2,202.73,419,195.25,422.48Z"/><path class="cls-1" d="M201.56,437.4a4.31,4.31,0,0,1-1.49,3.44,4.39,4.39,0,0,1-2.48,1,3.4,3.4,0,0,1-1.94-.36c-1.9-1.07-.39-4.1-.39-9.26,0-4-3.46-7-5.28-8.11a20.56,20.56,0,0,0,5.09-1.55c3.79,3.5,5.74,8.8,6.31,12.6A14.91,14.91,0,0,1,201.56,437.4Z"/><path class="cls-1" d="M206.15,455.75q-.86,1.72-5.16-3.44c-2.45-2.94-3.22-8.8-3.4-10.46a4.39,4.39,0,0,0,2.48-1,87,87,0,0,0,4.36,8C207.29,453.46,206.72,454.6,206.15,455.75Z"/><path class="cls-1" d="M72.8,424.31c-2.89,2-6.89,4.11-9.92,3a4.88,4.88,0,0,1-2.42-2,5,5,0,0,1-.5-.95c-1.88-4.86,7-8.74,11.36-10.32A77.24,77.24,0,0,0,72.8,424.31Z"/><path class="cls-1" d="M57.54,442.7c0,.8-.11,1.63-.21,2.47a32.41,32.41,0,0,1-2,8.87c-1.15,2.29-4,4-6.31,2.87s-2.29-4,1.15-5.74c3-1.52,5-7.66,5.36-9.07a2.25,2.25,0,0,0,.34.21A2.47,2.47,0,0,0,57.54,442.7Z"/><path class="cls-1" d="M62.89,427.33c-4.22,4.27-2.31,14.71-5.35,15.37a2.47,2.47,0,0,1-1.7-.39,2.25,2.25,0,0,1-.34-.21,3.67,3.67,0,0,1-1.4-3.13h0s0,0,0,0h0c-.09-4.66,4.35-12.12,5.87-14.54a5,5,0,0,0,.5.95A4.88,4.88,0,0,0,62.89,427.33Z"/><path class="cls-1" d="M77.86,375.94q-1.25,2.74-2.28,5.62c-4.42.73-14.29,2-14.07-1.14a3.11,3.11,0,0,1,.68-1.53,10.89,10.89,0,0,1,1.47-1.64h0C68,373.33,75.18,373.06,77.86,375.94Z"/><path class="cls-1" d="M63.66,377.26a10.89,10.89,0,0,0-1.47,1.64,3.11,3.11,0,0,0-.68,1.53,24.66,24.66,0,0,1-8.17.66,6.51,6.51,0,0,1-3.11-1.15h0A3.72,3.72,0,0,1,49,378.32a2.86,2.86,0,0,1-.17-.6c-.43-2.84,5.67-2.27,10.64-1.36C61.07,376.66,62.56,377,63.66,377.26Z"/><path class="cls-1" d="M50.23,379.93c-3.78,1.22-12.36.86-14.42-2.75-2.29-4,5.16-2.87,5.74-1.15.42,1.28,5,1.61,7.28,1.69a2.86,2.86,0,0,0,.17.6A3.72,3.72,0,0,0,50.23,379.93Z"/><path class="cls-1" d="M93.13,354.52c-1.18,1.08-2.31,2.22-3.41,3.41-1.32-.6-2.64-1.23-3.88-1.89-5.74-3-10.12-6.44-8-9.35a3.43,3.43,0,0,1,.41-.48A6,6,0,0,1,79.94,345c4.16-2,8.76,2.91,11.46,6.77A29.64,29.64,0,0,1,93.13,354.52Z"/><path class="cls-1" d="M79.94,345a6,6,0,0,0-1.69,1.22,3.43,3.43,0,0,0-.41.48c-5.42-4.57-5.9-8.22-5.9-11.38a2.08,2.08,0,0,1,1.45-2.06,3,3,0,0,1,1.51-.1c1.46.26,2.78,1.55,2.2,3.88C76.31,340.17,78.49,343.31,79.94,345Z"/><path class="cls-1" d="M74.9,333.15a3,3,0,0,0-1.51.1c-1.45-4.08-8-8.06-5.46-11.13C70.23,319.35,73.65,329.19,74.9,333.15Z"/><path class="cls-3" d="M207,394c.59,1.35,1.15,2.71,1.66,4.07a77.63,77.63,0,0,1,3.43,11.77c5.62,27-3.87,53.63-24.41,66.41-4.32-4.22-8.67-10.9-12.83-18.53-2.8-5.13-5.52-10.7-8.09-16.24-6.62-14.27-12.24-28.35-15.72-34.4-8.05-14,5.81-13.84,11.44-29.49a38.2,38.2,0,0,0,1-21.77q-.22-.94-.46-1.77a.07.07,0,0,1,0,0l-.18-.75q1.68.5,3.34,1.1a66.32,66.32,0,0,1,19.34,11.06,73.77,73.77,0,0,1,6.58,6.09A78,78,0,0,1,207,394Z"/><polygon class="cls-2" points="195.8 422.52 173.96 428.82 161.23 410 175.19 392.07 196.55 399.81 195.8 422.52"/><polygon class="cls-3" points="194.57 443.87 187.64 444.45 184.95 438.03 190.22 433.49 196.17 437.1 194.57 443.87"/><polygon class="cls-1" points="191.12 464.35 185.71 466.69 181.8 462.27 184.8 457.19 190.56 458.48 191.12 464.35"/><polygon class="cls-1" points="187.46 379.5 180.18 390.3 167.65 386.71 167.2 373.69 179.44 369.23 187.46 379.5"/><polygon class="cls-3" points="161.34 396.8 157.43 400.85 152.37 398.38 153.15 392.81 158.69 391.83 161.34 396.8"/><polygon class="cls-3" points="181.07 443.12 173.51 445.62 168.8 439.2 173.44 432.74 181.03 435.16 181.07 443.12"/><polygon class="cls-3" points="200.17 455.5 194.78 456.93 191.76 452.24 195.28 447.92 200.48 449.94 200.17 455.5"/><polygon class="cls-3" points="208.04 435.62 199.83 434.74 198.13 426.66 205.28 422.54 211.41 428.08 208.04 435.62"/><polygon class="cls-3" points="207.32 411.43 201.05 409.85 200.62 403.39 206.63 400.99 210.77 405.96 207.32 411.43"/><path class="cls-3" d="M92.45,447c-3.17,6.66-6.39,13.27-9.38,19.23h0c-1.85,3.7-3.61,7.16-5.22,10.22-21.3-11.7-32.2-38-27.88-65.3a77.24,77.24,0,0,1,2.28-10.08q.87-3,2-5.9a78,78,0,0,1,13.59-23q2-2.33,4.13-4.44a67.75,67.75,0,0,1,17.51-12.6c1.45-.72,2.92-1.38,4.4-2,.64-.27,1.29-.51,1.93-.74a25.43,25.43,0,0,0-.8,4c-.14,1.11-.24,2.35-.29,3.73a61,61,0,0,0,.84,11.2c2.71,17,20.29,17.58,16.45,30.85C110.18,408.56,101.5,428,92.45,447Z"/><polygon class="cls-2" points="79.42 394.19 71.38 390.4 72.5 381.58 81.23 379.92 85.51 387.71 79.42 394.19"/><polygon class="cls-3" points="84.8 416.85 74.86 411.83 76.56 400.83 87.55 399.05 92.64 408.95 84.8 416.85"/><polygon class="cls-2" points="81.94 445.65 66.43 441.7 65.4 425.73 80.27 419.81 90.49 432.13 81.94 445.65"/><polygon class="cls-3" points="84.28 373.18 78 371.26 77.88 364.69 84.09 362.54 88.05 367.79 84.28 373.18"/><polygon class="cls-3" points="69.61 399.72 64.99 396.82 66.32 391.53 71.77 391.17 73.79 396.23 69.61 399.72"/><polygon class="cls-3" points="57.63 418.02 52.13 416.7 51.68 411.06 56.91 408.89 60.59 413.19 57.63 418.02"/><polygon class="cls-1" points="73.05 457.65 64.02 457.46 61.42 448.82 68.83 443.67 76.02 449.13 73.05 457.65"/><polygon class="cls-1" points="104.18 402.3 98.04 400.65 97.71 394.31 103.64 392.04 107.64 396.97 104.18 402.3"/><polygon class="cls-3" points="95.86 421.08 90.85 418.89 91.39 413.44 96.74 412.28 99.5 417 95.86 421.08"/><polygon class="cls-1" points="69.79 414.06 62.23 412.48 61.4 404.81 68.44 401.65 73.62 407.36 69.79 414.06"/><polygon class="cls-3" points="59.03 435.08 52.67 433.58 52.14 427.07 58.17 424.55 62.43 429.5 59.03 435.08"/><polygon class="cls-3" points="70.24 466.77 72.38 462.85 76.77 463.67 77.35 468.1 73.31 470.02 70.24 466.77"/><path class="cls-1" d="M182.31,119.26a72.91,72.91,0,0,0-3.56-8.23,66.22,66.22,0,0,0-13.23-17.92c-.86-.82-1.73-1.6-2.62-2.36-.05.25-.09.5-.14.76,0-.27.07-.54.11-.79L162,90l-.71-.57-.64-.5c-.52-.4-1-.78-1.55-1.15l-1-.7c-1.09-.74-2.21-1.45-3.34-2.11l-.56-.33-.81-.44q-.51-.29-1-.54a49.4,49.4,0,0,0-6-2.65l-1.13-.4c-2,12.51-25.1,15-32.55,5.33a13.84,13.84,0,0,1-2.38-4.4c-.68.28-1.36.56-2,.87l-.91.42-.65.31-1,.49-.05,0c-.33.16-.65.34-1,.51l-.52.29-.85.48c-1,.56-1.91,1.14-2.84,1.77l-.92.62-.9.65c-.9.65-1.78,1.32-2.65,2l-.9.75-.44.38c-.52.44-1,.9-1.54,1.39-1.18,1.07-2.31,2.21-3.41,3.4a68,68,0,0,0-11.86,18q-1.24,2.74-2.27,5.62a77.9,77.9,0,0,0-4.5,26.3q0,3.15.24,6.22a77.29,77.29,0,0,0,1.47,10.23c5.73,27.07,25.29,47.72,49.37,51a50,50,0,0,0,13.89,0c24-3.41,43.39-24,49.13-50.92a77.44,77.44,0,0,0,1.61-12.15c.08-1.45.12-2.92.12-4.39A77.84,77.84,0,0,0,182.31,119.26Z"/><path class="cls-1" d="M162.46,93.35a38.2,38.2,0,0,1-9.66,19.53c-11.47,12-24.09,6.31-22.37,22.37.74,6.93.2,22.09.5,37.81l-5.65,7.56c1.67-21,2.83-42.23,2.28-48.81-1.15-13.76-17.78-8-26.38-22.94A61,61,0,0,1,96.41,98.7c-.45-1.31-.8-2.51-1.07-3.59a25.43,25.43,0,0,1-.67-4c.14-.14.29-.26.44-.38a34.23,34.23,0,0,0,1.32,5.15h0a34,34,0,0,0,1.33,3.31,34.42,34.42,0,0,0,64.58-5.86Z"/><path class="cls-1" d="M136.06,213.32a49.74,49.74,0,0,1-13.89,0c.41-3.44.82-7.3,1.23-11.41h0c.66-6.64,1.31-14,1.89-21.31l5.65-7.56c.11,6.1.36,12.3.85,18.12C132.53,199.85,133.81,207.72,136.06,213.32Z"/><path class="cls-2" d="M131.79,191.19l-8.39,10.75c.66-6.64,1.31-14,1.89-21.31l5.65-7.56C131.06,179.16,131.3,185.36,131.79,191.19Z"/><path class="cls-2" d="M134.76,71c-7.19,7.82-12.18,3.57-14.44.54h0c.34-.57.45-1.1.37-1.06,5.16-8,12-2.29,13.19-.57A6.81,6.81,0,0,0,134.76,71Z"/><path class="cls-1" d="M145.35,78.47a11.22,11.22,0,0,1-.14,2.13c-2,12.51-25.1,15-32.55,5.33a13.84,13.84,0,0,1-2.38-4.39,7.51,7.51,0,0,1,3.29-8.82,4.24,4.24,0,0,1,3.17-.84.73.73,0,0,1,.52.86,2.49,2.49,0,0,0,3.07-1.23c2.25,3,7.25,7.28,14.44-.54.56.53,1.22.8,1.85.14.43-.45,1.18-.33,1.8-.38a7.66,7.66,0,0,1,2.33.09A5,5,0,0,1,143,71.88C144.22,72.93,145.25,74.89,145.35,78.47Z"/><path class="cls-3" d="M162,60.12c-2.87,3.44-7.46,8-10.32,9.18C149,70.35,146.87,69,143,71.88a5,5,0,0,0-2.23-1.08c1.31-1.53,3.47-3.8,4.61-3.8,1.72,0,4.59.57,6.31-1.72s4-6.88,6.31-8.6S164.85,56.67,162,60.12Z"/><path class="cls-3" d="M116.73,71.87h0a4.24,4.24,0,0,0-3.17.84,9,9,0,0,1-1.48-1.7c-1.15-1.72-4-1.15-6.31-.57s-8-5.74-10.9-9.18,0-5.16,2.87-5.16,5.16,10.32,10.9,11.47S116.73,71.87,116.73,71.87Z"/><path class="cls-2" d="M162.87,90.72l-.1.79a.07.07,0,0,0,0,0c-.13.61-.26,1.22-.42,1.81a34.42,34.42,0,0,1-64.58,5.86,34,34,0,0,1-1.33-3.31h0a34.23,34.23,0,0,1-1.32-5.15c.3-.25.6-.5.9-.75q1.3-1.07,2.65-2l.9-.64.92-.63c.93-.63,1.88-1.21,2.84-1.77l.84-.48.52-.29,1-.52.05,0,1-.49.65-.32.91-.42c.68-.3,1.35-.59,2-.87a13.84,13.84,0,0,0,2.38,4.39c7.45,9.65,30.53,7.18,32.55-5.33l1.13.4a50.87,50.87,0,0,1,6,2.65l1,.54.81.45.56.33q1.7,1,3.34,2.11l1,.69c.52.37,1,.76,1.55,1.15l.64.5L162,90C162.28,90.23,162.57,90.47,162.87,90.72Z"/><path class="cls-1" d="M175.32,90.79a30.5,30.5,0,0,1-9.81,2.32q-1.28-1.22-2.62-2.36l0,0c-.29-.25-.58-.49-.88-.73l1-.95c.91-.8,2-1.76,3.28-2.7,3.61-2.74,8.13-5.35,10.66-3.71a3.48,3.48,0,0,1,1.24,1.51,6.52,6.52,0,0,1,.4,1.2C179.2,87.84,177.77,89.58,175.32,90.79Z"/><path class="cls-1" d="M178.21,84.15A3.48,3.48,0,0,0,177,82.64c.3-3.53,1.53-15.17,4.63-13.65a2,2,0,0,1,.45.3A5,5,0,0,1,183.37,71h0C185.09,74.63,182.65,80.23,178.21,84.15Z"/><path class="cls-1" d="M186.07,65.28a10.66,10.66,0,0,0-2.7,5.74,5,5,0,0,0-1.31-1.72,2,2,0,0,0-.45-.3c1.07-13.15,7.34-10,7.34-10C191.23,59,188.94,62.41,186.07,65.28Z"/><path class="cls-1" d="M194.1,115.18l-.07.14c-1.66,3.33-7.1,4-11.72,3.94a73.77,73.77,0,0,0-3.56-8.22c3.41-.3,12.65-.87,15.06,1.59A2.1,2.1,0,0,1,194.1,115.18Z"/><path class="cls-1" d="M211.88,117.47a47.58,47.58,0,0,1-5.14-.93l-.59-.14a5,5,0,0,0,0-1.66v0a4.54,4.54,0,0,0-.09-.45c1.91.21,5.08.33,7-.81,2.87-1.72,6.31-4.59,6.88-1.72S216.47,118,211.88,117.47Z"/><path class="cls-1" d="M206.15,116.39c-.33,2-2,3.15-4.59,1.65a31.3,31.3,0,0,0-7.52-2.72l.07-.14a2.1,2.1,0,0,0-.29-2.55c2.59-.72,10.27-2.6,11.73.25h0a6.22,6.22,0,0,1,.52,1.38,4.54,4.54,0,0,1,.09.45v0A5,5,0,0,1,206.15,116.39Z"/><path class="cls-1" d="M195.25,160.48l-.19.09a20.56,20.56,0,0,1-5.09,1.55,21.82,21.82,0,0,1-4.78.28,77.63,77.63,0,0,0,1.61-12.15C192,152.2,202.73,157,195.25,160.48Z"/><path class="cls-1" d="M201.56,175.4a4.31,4.31,0,0,1-1.49,3.44,4.39,4.39,0,0,1-2.48,1,3.4,3.4,0,0,1-1.94-.36c-1.9-1.07-.39-4.1-.39-9.26,0-4-3.46-7-5.28-8.11a20.56,20.56,0,0,0,5.09-1.55c3.79,3.5,5.74,8.8,6.31,12.6A14.91,14.91,0,0,1,201.56,175.4Z"/><path class="cls-1" d="M206.15,193.75q-.86,1.72-5.16-3.44c-2.45-2.94-3.22-8.8-3.4-10.46a4.39,4.39,0,0,0,2.48-1,87,87,0,0,0,4.36,8C207.29,191.46,206.72,192.6,206.15,193.75Z"/><path class="cls-1" d="M72.8,162.31c-2.89,2-6.89,4.11-9.92,3a4.88,4.88,0,0,1-2.42-2,5,5,0,0,1-.5-.95c-1.88-4.86,7-8.74,11.36-10.32A77.24,77.24,0,0,0,72.8,162.31Z"/><path class="cls-1" d="M57.54,180.7c0,.8-.11,1.63-.21,2.47a32.41,32.41,0,0,1-2,8.87c-1.15,2.29-4,4-6.31,2.87s-2.29-4,1.15-5.74c3-1.52,5-7.66,5.36-9.07a2.25,2.25,0,0,0,.34.21A2.47,2.47,0,0,0,57.54,180.7Z"/><path class="cls-1" d="M62.89,165.33c-4.22,4.27-2.31,14.71-5.35,15.37a2.47,2.47,0,0,1-1.7-.39,2.25,2.25,0,0,1-.34-.21,3.67,3.67,0,0,1-1.4-3.13h0s0,0,0,0h0c-.09-4.66,4.35-12.12,5.87-14.54a5,5,0,0,0,.5.95A4.88,4.88,0,0,0,62.89,165.33Z"/><path class="cls-1" d="M77.86,113.94q-1.25,2.74-2.28,5.62c-4.42.73-14.29,2-14.07-1.14a3.11,3.11,0,0,1,.68-1.53,10.89,10.89,0,0,1,1.47-1.64h0C68,111.33,75.18,111.06,77.86,113.94Z"/><path class="cls-1" d="M63.66,115.26a10.89,10.89,0,0,0-1.47,1.64,3.11,3.11,0,0,0-.68,1.53,24.66,24.66,0,0,1-8.17.66,6.51,6.51,0,0,1-3.11-1.15h0A3.72,3.72,0,0,1,49,116.32a2.86,2.86,0,0,1-.17-.6c-.43-2.84,5.67-2.27,10.64-1.36C61.07,114.66,62.56,115,63.66,115.26Z"/><path class="cls-1" d="M50.23,117.93c-3.78,1.22-12.36.86-14.42-2.75-2.29-4,5.16-2.87,5.74-1.15.42,1.28,5,1.61,7.28,1.69a2.86,2.86,0,0,0,.17.6A3.72,3.72,0,0,0,50.23,117.93Z"/><path class="cls-1" d="M93.13,92.52c-1.18,1.08-2.31,2.22-3.41,3.41-1.32-.6-2.64-1.23-3.88-1.89-5.74-3-10.12-6.44-8-9.35a3.43,3.43,0,0,1,.41-.48A6,6,0,0,1,79.94,83c4.16-2,8.76,2.91,11.46,6.77A29.64,29.64,0,0,1,93.13,92.52Z"/><path class="cls-1" d="M79.94,83a6,6,0,0,0-1.69,1.22,3.43,3.43,0,0,0-.41.48c-5.42-4.57-5.9-8.22-5.9-11.38a2.08,2.08,0,0,1,1.45-2.06,3,3,0,0,1,1.51-.1c1.46.26,2.78,1.55,2.2,3.88C76.31,78.17,78.49,81.31,79.94,83Z"/><path class="cls-1" d="M74.9,71.15a3,3,0,0,0-1.51.1c-1.45-4.08-8-8.06-5.46-11.13C70.23,57.35,73.65,67.19,74.9,71.15Z"/><path class="cls-3" d="M191.67,118.9q1.39,1.72,2.67,3.49a77.63,77.63,0,0,1,6.39,10.45c12.5,24.55,10.34,52.77-6.12,70.49-5.27-2.93-11.22-8.24-17.25-14.51-4.05-4.22-8.14-8.88-12.07-13.55-10.14-12-19.26-24.15-24.19-29.06-11.45-11.4,2-14.88,3.3-31.46a38.2,38.2,0,0,0-4.79-21.26q-.46-.84-.91-1.59l0,0-.37-.67q1.75,0,3.52.19A66.32,66.32,0,0,1,163.4,97a73.77,73.77,0,0,1,7.94,4.15A78,78,0,0,1,191.67,118.9Z"/><polygon class="cls-2" points="188.33 149.41 168.92 161.22 151.69 146.4 160.45 125.44 183.1 127.29 188.33 149.41"/><polygon class="cls-3" points="192.76 170.32 186.22 172.7 181.94 167.22 185.83 161.45 192.51 163.37 192.76 170.32"/><polygon class="cls-1" points="194.8 190.99 190.19 194.68 185.26 191.43 186.83 185.74 192.72 185.47 194.8 190.99"/><polygon class="cls-1" points="169 110.08 164.8 122.42 151.77 122.24 147.92 109.79 158.56 102.28 169 110.08"/><polygon class="cls-3" points="148.33 133.63 145.62 138.56 140.09 137.51 139.38 131.93 144.47 129.53 148.33 133.63"/><polygon class="cls-3" points="179.53 173.15 172.89 177.54 166.66 172.59 169.45 165.13 177.4 165.48 179.53 173.15"/><polygon class="cls-3" points="201.21 180.08 196.38 182.87 192.24 179.14 194.51 174.05 200.05 174.63 201.21 180.08"/><polygon class="cls-3" points="203.59 158.83 195.43 160.14 191.67 152.79 197.49 146.93 204.86 150.67 203.59 158.83"/><polygon class="cls-3" points="196.54 135.68 190.07 135.79 187.97 129.68 193.13 125.78 198.43 129.5 196.54 135.68"/><path class="cls-3" d="M96.42,183.38c-4.14,6.1-8.33,12.15-12.18,17.59h0c-2.39,3.38-4.66,6.53-6.71,9.31-19.29-14.79-26.07-42.41-17.67-68.77a77.24,77.24,0,0,1,3.78-9.62q1.31-2.79,2.87-5.53A78,78,0,0,1,83.4,105.73q2.31-2,4.76-3.76a67.75,67.75,0,0,1,19.22-9.8c1.54-.49,3.09-.92,4.65-1.28.68-.17,1.35-.31,2-.44a25.43,25.43,0,0,0-1.39,3.79c-.31,1.07-.59,2.28-.85,3.65a61,61,0,0,0-.87,11.2c.11,17.22,17.4,20.45,11.59,33C119.76,148.06,108.24,166,96.42,183.38Z"/><polygon class="cls-2" points="91.54 129.21 84.16 124.24 86.61 115.69 95.49 115.37 98.54 123.73 91.54 129.21"/><polygon class="cls-3" points="93.42 152.42 84.35 145.96 87.7 135.34 98.84 135.24 102.37 145.8 93.42 152.42"/><polygon class="cls-2" points="86.23 180.46 71.5 174.2 72.91 158.26 88.5 154.66 96.74 168.38 86.23 180.46"/><polygon class="cls-3" points="99.53 109.17 93.6 106.33 94.48 99.81 100.94 98.63 104.06 104.42 99.53 109.17"/><polygon class="cls-3" points="81 133.19 76.88 129.62 79 124.6 84.43 125.06 85.67 130.37 81 133.19"/><polygon class="cls-3" points="66.39 149.46 61.15 147.32 61.56 141.68 67.06 140.33 70.04 145.13 66.39 149.46"/><polygon class="cls-1" points="75.63 190.97 66.73 189.41 65.47 180.47 73.58 176.51 79.86 183 75.63 190.97"/><polygon class="cls-1" points="114.78 140.97 108.97 138.41 109.6 132.09 115.81 130.74 119.01 136.23 114.78 140.97"/><polygon class="cls-3" points="103.72 158.28 99.1 155.35 100.46 150.05 105.92 149.71 107.93 154.79 103.72 158.28"/><polygon class="cls-1" points="79.01 147.39 71.78 144.68 72.12 136.97 79.56 134.91 83.81 141.35 79.01 147.39"/><polygon class="cls-3" points="65.19 166.54 59.13 164.09 59.6 157.57 65.94 156 69.39 161.54 65.19 166.54"/><polygon class="cls-3" points="71.47 199.56 74.18 196.01 78.4 197.48 78.3 201.95 74.02 203.23 71.47 199.56"/><path class="cls-2" d="M719.06,582.22c0,4.16-6.2,7.89-16,10.5-9.56,2.57-22.67,4.11-37,4s-27.47-1.77-37-4.46c-1.23-.35-2.37-.69-3.47-1.08L703,571.48C712.92,574.21,719.09,578.06,719.06,582.22Z"/><path class="cls-3" d="M703,571.48l-77.5,19.72h0c-7.74-2.59-12.43-6-12.41-9.61,0-8.18,23.83-14.7,53.09-14.52C680.48,567.15,693.49,568.79,703,571.48Z"/><path class="cls-4" d="M719.06,582.22l-.13,21.2c0,8.18-23.83,14.7-53.09,14.52s-53-7-52.91-15.16l.13-21.2c0,3.65,4.66,7,12.41,9.61h0c1.1.39,2.24.73,3.47,1.08,9.52,2.69,22.62,4.37,37,4.46s27.48-1.45,37-4C712.87,590.11,719,586.37,719.06,582.22Z"/><path class="cls-1" d="M451.46,605.35a38.2,38.2,0,0,1-9.66,19.53c-11.47,12-24.09,6.31-22.37,22.37.74,6.93.2,22.09.5,37.81l-5.65,7.56c1.67-21,2.83-42.23,2.28-48.81-1.15-13.76-17.78-8-26.38-22.94a61,61,0,0,1-4.78-10.16c-.45-1.31-.8-2.51-1.07-3.59a25.43,25.43,0,0,1-.67-4c.14-.14.29-.26.44-.38a34.23,34.23,0,0,0,1.32,5.15h0a34,34,0,0,0,1.33,3.31,34.42,34.42,0,0,0,64.58-5.86Z"/><path class="cls-1" d="M425.06,725.32a49.74,49.74,0,0,1-13.89,0c.41-3.44.82-7.3,1.23-11.41h0c.66-6.64,1.31-14,1.89-21.31l5.65-7.56c.11,6.1.36,12.3.85,18.12C421.53,711.85,422.81,719.72,425.06,725.32Z"/><path class="cls-2" d="M420.79,703.19l-8.39,10.75c.66-6.64,1.31-14,1.89-21.31l5.65-7.56C420.06,691.16,420.3,697.36,420.79,703.19Z"/><path class="cls-2" d="M423.76,583c-7.19,7.82-12.18,3.57-14.44.54h0c.34-.57.45-1.1.37-1.06,5.16-8,12-2.29,13.19-.57A6.81,6.81,0,0,0,423.76,583Z"/><path class="cls-1" d="M434.35,590.47a11.22,11.22,0,0,1-.14,2.13c-2,12.51-25.1,15-32.55,5.33a13.84,13.84,0,0,1-2.38-4.39,7.51,7.51,0,0,1,3.29-8.82,4.24,4.24,0,0,1,3.17-.84.73.73,0,0,1,.52.86,2.49,2.49,0,0,0,3.07-1.23c2.25,3,7.25,7.28,14.44-.54.56.53,1.22.8,1.85.14.43-.45,1.18-.33,1.8-.38a7.66,7.66,0,0,1,2.33.09,5,5,0,0,1,2.23,1.08C433.22,584.93,434.25,586.89,434.35,590.47Z"/><path class="cls-3" d="M451,572.12c-2.87,3.44-7.46,8-10.32,9.18-2.64,1.06-4.79-.32-8.69,2.59a5,5,0,0,0-2.23-1.08c1.31-1.53,3.47-3.8,4.61-3.8,1.72,0,4.59.57,6.31-1.72s4-6.88,6.31-8.6S453.85,568.67,451,572.12Z"/><path class="cls-3" d="M405.73,583.87h0a4.24,4.24,0,0,0-3.17.84,9,9,0,0,1-1.48-1.7c-1.15-1.72-4-1.15-6.31-.57s-8-5.74-10.9-9.18,0-5.16,2.87-5.16,5.16,10.32,10.9,11.47S405.73,583.87,405.73,583.87Z"/><path class="cls-2" d="M451.87,602.72l-.1.79a.07.07,0,0,0,0,0c-.13.61-.26,1.22-.42,1.81a34.42,34.42,0,0,1-64.58,5.86,34,34,0,0,1-1.33-3.31h0a34.23,34.23,0,0,1-1.32-5.15c.3-.25.6-.5.9-.75q1.3-1.07,2.65-2l.9-.64.92-.63c.93-.63,1.88-1.21,2.84-1.77l.84-.48.52-.29,1-.52.05,0,1-.49.65-.32.91-.42c.68-.3,1.35-.59,2-.87a13.84,13.84,0,0,0,2.38,4.39c7.45,9.65,30.53,7.18,32.55-5.33l1.13.4a50.87,50.87,0,0,1,6,2.65l1,.54.81.45.56.33q1.7,1,3.34,2.11l1,.69c.52.37,1,.76,1.55,1.15l.64.5.71.57C451.28,602.23,451.57,602.47,451.87,602.72Z"/><path class="cls-1" d="M464.32,602.79a30.5,30.5,0,0,1-9.81,2.32q-1.28-1.22-2.62-2.36l0,0c-.29-.25-.58-.49-.88-.73l1-.95c.91-.8,2-1.76,3.28-2.7,3.61-2.74,8.13-5.35,10.66-3.71a3.48,3.48,0,0,1,1.24,1.51,6.52,6.52,0,0,1,.4,1.2C468.2,599.84,466.77,601.58,464.32,602.79Z"/><path class="cls-1" d="M467.21,596.15a3.48,3.48,0,0,0-1.24-1.51c.3-3.53,1.53-15.17,4.63-13.65a2,2,0,0,1,.45.3,5,5,0,0,1,1.31,1.72h0C474.09,586.63,471.65,592.23,467.21,596.15Z"/><path class="cls-1" d="M475.07,577.28a10.66,10.66,0,0,0-2.7,5.74,5,5,0,0,0-1.31-1.72,2,2,0,0,0-.45-.3c1.07-13.15,7.34-10,7.34-10C480.23,571,477.94,574.41,475.07,577.28Z"/><path class="cls-1" d="M483.1,627.18l-.07.14c-1.66,3.33-7.1,4-11.72,3.94a73.77,73.77,0,0,0-3.56-8.22c3.41-.3,12.65-.87,15.06,1.59A2.1,2.1,0,0,1,483.1,627.18Z"/><path class="cls-1" d="M500.88,629.47a47.58,47.58,0,0,1-5.14-.93l-.59-.14a5,5,0,0,0,0-1.66v0a4.54,4.54,0,0,0-.09-.45c1.91.21,5.08.33,7-.81,2.87-1.72,6.31-4.59,6.88-1.72S505.47,630,500.88,629.47Z"/><path class="cls-1" d="M495.15,628.39c-.33,2-2,3.15-4.59,1.65a31.3,31.3,0,0,0-7.52-2.72l.07-.14a2.1,2.1,0,0,0-.29-2.55c2.59-.72,10.27-2.6,11.73.25h0a6.22,6.22,0,0,1,.52,1.38,4.54,4.54,0,0,1,.09.45v0A5,5,0,0,1,495.15,628.39Z"/><path class="cls-1" d="M484.25,672.48l-.19.09a20.56,20.56,0,0,1-5.09,1.55,21.82,21.82,0,0,1-4.78.28,77.63,77.63,0,0,0,1.61-12.15C481,664.2,491.73,669,484.25,672.48Z"/><path class="cls-1" d="M490.56,687.4a4.31,4.31,0,0,1-1.49,3.44,4.39,4.39,0,0,1-2.48,1,3.4,3.4,0,0,1-1.94-.36c-1.9-1.07-.39-4.1-.39-9.26,0-4-3.46-7-5.28-8.11a20.56,20.56,0,0,0,5.09-1.55c3.79,3.5,5.74,8.8,6.31,12.6A14.91,14.91,0,0,1,490.56,687.4Z"/><path class="cls-1" d="M495.15,705.75q-.86,1.72-5.16-3.44c-2.45-2.94-3.22-8.8-3.4-10.46a4.39,4.39,0,0,0,2.48-1,87,87,0,0,0,4.36,8C496.29,703.46,495.72,704.6,495.15,705.75Z"/><path class="cls-1" d="M361.8,674.31c-2.89,2-6.89,4.11-9.92,3a4.88,4.88,0,0,1-2.42-2,5,5,0,0,1-.5-.95c-1.88-4.86,7-8.74,11.36-10.32A77.24,77.24,0,0,0,361.8,674.31Z"/><path class="cls-1" d="M346.54,692.7c0,.8-.11,1.63-.21,2.47a32.41,32.41,0,0,1-2,8.87c-1.15,2.29-4,4-6.31,2.87s-2.29-4,1.15-5.74c3-1.52,5-7.66,5.36-9.07a2.25,2.25,0,0,0,.34.21A2.47,2.47,0,0,0,346.54,692.7Z"/><path class="cls-1" d="M351.89,677.33c-4.22,4.27-2.31,14.71-5.35,15.37a2.47,2.47,0,0,1-1.7-.39,2.25,2.25,0,0,1-.34-.21,3.67,3.67,0,0,1-1.4-3.13h0s0,0,0,0h0c-.09-4.66,4.35-12.12,5.87-14.54a5,5,0,0,0,.5.95A4.88,4.88,0,0,0,351.89,677.33Z"/><path class="cls-1" d="M366.86,625.94q-1.25,2.74-2.28,5.62c-4.42.73-14.29,2-14.07-1.14a3.11,3.11,0,0,1,.68-1.53,10.89,10.89,0,0,1,1.47-1.64h0C357,623.33,364.18,623.06,366.86,625.94Z"/><path class="cls-1" d="M352.66,627.26a10.89,10.89,0,0,0-1.47,1.64,3.11,3.11,0,0,0-.68,1.53,24.66,24.66,0,0,1-8.17.66,6.51,6.51,0,0,1-3.11-1.15h0a3.72,3.72,0,0,1-1.23-1.61,2.86,2.86,0,0,1-.17-.6c-.43-2.84,5.67-2.27,10.64-1.36C350.07,626.66,351.56,627,352.66,627.26Z"/><path class="cls-1" d="M339.23,629.93c-3.78,1.22-12.36.86-14.42-2.75-2.29-4,5.16-2.87,5.74-1.15.42,1.28,5,1.61,7.28,1.69a2.86,2.86,0,0,0,.17.6A3.72,3.72,0,0,0,339.23,629.93Z"/><path class="cls-1" d="M382.13,604.52c-1.18,1.08-2.31,2.22-3.41,3.41-1.32-.6-2.64-1.23-3.88-1.89-5.74-3-10.12-6.44-8-9.35a3.43,3.43,0,0,1,.41-.48,6,6,0,0,1,1.69-1.22c4.16-2,8.76,2.91,11.46,6.77A29.64,29.64,0,0,1,382.13,604.52Z"/><path class="cls-1" d="M368.94,595a6,6,0,0,0-1.69,1.22,3.43,3.43,0,0,0-.41.48c-5.42-4.57-5.9-8.22-5.9-11.38a2.08,2.08,0,0,1,1.45-2.06,3,3,0,0,1,1.51-.1c1.46.26,2.78,1.55,2.2,3.88C365.31,590.17,367.49,593.31,368.94,595Z"/><path class="cls-1" d="M363.9,583.15a3,3,0,0,0-1.51.1c-1.45-4.08-8-8.06-5.46-11.13C359.23,569.35,362.65,579.19,363.9,583.15Z"/><path class="cls-3" d="M475.92,657.86c0,1.47,0,2.94-.12,4.39a77.63,77.63,0,0,1-1.61,12.15c-5.74,26.94-25.18,47.51-49.13,50.92-2.25-5.6-3.53-13.47-4.27-22.13-.49-5.83-.73-12-.85-18.12-.3-15.73.24-30.88-.5-37.81-1.72-16.06,10.9-10.32,22.37-22.37a38.2,38.2,0,0,0,9.66-19.53q.17-.95.29-1.81a.07.07,0,0,1,0,0l.14-.76q1.33,1.14,2.62,2.36A66.32,66.32,0,0,1,467.75,623a73.77,73.77,0,0,1,3.56,8.22A78,78,0,0,1,475.92,657.86Z"/><path class="cls-3" d="M414.29,692.62c-.59,7.35-1.23,14.68-1.89,21.31h0c-.41,4.12-.82,8-1.23,11.41-24.08-3.32-43.63-24-49.36-51a77.24,77.24,0,0,1-1.47-10.23q-.24-3.07-.24-6.22a78,78,0,0,1,4.5-26.3q1-2.88,2.28-5.62a67.75,67.75,0,0,1,11.86-18c1.1-1.19,2.23-2.33,3.41-3.41.5-.48,1-.94,1.54-1.38a25.43,25.43,0,0,0,.67,4c.26,1.08.61,2.28,1.07,3.59a61,61,0,0,0,4.78,10.16c8.6,14.91,25.24,9.18,26.38,22.94C417.12,650.39,416,671.65,414.29,692.62Z"/><polygon class="cls-2" points="383.26 647.95 374.4 647.28 372.29 638.64 379.86 633.97 386.64 639.73 383.26 647.95"/><polygon class="cls-3" points="396.38 667.2 385.3 666.06 382.96 655.17 392.59 649.58 400.88 657.01 396.38 667.2"/><polygon class="cls-2" points="403.99 695.12 388.1 696.96 381.43 682.41 393.21 671.58 407.15 679.43 403.99 695.12"/><polygon class="cls-2" points="454.13 679.47 431.61 676.42 427.54 654.07 447.55 643.29 463.98 658.99 454.13 679.47"/><polygon class="cls-3" points="444.39 698.5 437.82 696.24 437.94 689.28 444.6 687.25 448.58 692.95 444.39 698.5"/><polygon class="cls-1" points="432.97 715.85 427.07 715.81 425.29 710.19 430.08 706.75 434.83 710.25 432.97 715.85"/><polygon class="cls-1" points="463.86 636.74 452.83 643.68 442.82 635.34 447.66 623.25 460.66 624.11 463.86 636.74"/><polygon class="cls-3" points="380.3 626.59 373.74 627.04 371.29 620.94 376.32 616.72 381.9 620.21 380.3 626.59"/><polygon class="cls-3" points="376.07 656.62 370.72 655.56 370.08 650.14 375.03 647.86 378.74 651.87 376.07 656.62"/><polygon class="cls-3" points="371.42 677.99 365.81 678.72 363.38 673.61 367.48 669.72 372.45 672.42 371.42 677.99"/><polygon class="cls-1" points="399.97 709.5 391.47 712.55 385.95 705.4 391.04 697.95 399.71 700.48 399.97 709.5"/><polygon class="cls-1" points="409.28 646.68 402.96 647.33 400.39 641.53 405.12 637.29 410.61 640.47 409.28 646.68"/><polygon class="cls-3" points="408.22 667.2 402.76 666.94 401.32 661.66 405.9 658.66 410.16 662.09 408.22 667.2"/><polygon class="cls-3" points="432.97 642.03 427.76 644.16 424.13 639.86 427.09 635.07 432.56 636.41 432.97 642.03"/><polygon class="cls-3" points="432.34 692.37 424.42 691.61 422.69 683.84 429.55 679.8 435.51 685.07 432.34 692.37"/><polygon class="cls-3" points="444.82 711.41 439.31 710.53 438.44 705.03 443.41 702.5 447.35 706.44 444.82 711.41"/><polygon class="cls-3" points="460.05 696.39 452.89 692.27 454.59 684.19 462.8 683.31 466.18 690.85 460.05 696.39"/><polygon class="cls-3" points="469.14 673.97 464.05 669.99 466.26 663.91 472.72 664.13 474.51 670.35 469.14 673.97"/><polygon class="cls-1" points="381.36 669.95 373.74 671.17 370.23 664.3 375.67 658.83 382.55 662.33 381.36 669.95"/><polygon class="cls-3" points="378.82 693.43 372.35 694.29 369.52 688.4 374.26 683.89 380 687 378.82 693.43"/><polygon class="cls-3" points="400.61 719.02 401.2 714.6 405.6 713.8 407.72 717.73 404.63 720.96 400.61 719.02"/><polygon class="cls-3" points="481.66 533.47 466.72 535.42 457.56 523.45 463.34 509.53 478.28 507.58 487.44 519.55 481.66 533.47"/><polygon class="cls-3" points="377.66 533.47 362.72 535.42 353.56 523.45 359.34 509.53 374.28 507.58 383.44 519.55 377.66 533.47"/><path class="cls-1" d="M405.46,333.35a38.2,38.2,0,0,1-9.66,19.53c-11.47,12-24.09,6.31-22.37,22.37.74,6.93.2,22.09.5,37.81l-5.65,7.56c1.67-21,2.83-42.23,2.28-48.81-1.15-13.76-17.78-8-26.38-22.94a61,61,0,0,1-4.78-10.16c-.45-1.31-.8-2.51-1.07-3.59a25.43,25.43,0,0,1-.67-4c.14-.14.29-.26.44-.38a34.23,34.23,0,0,0,1.32,5.15h0a34,34,0,0,0,1.33,3.31,34.42,34.42,0,0,0,64.58-5.86Z"/><path class="cls-1" d="M379.06,453.32a49.74,49.74,0,0,1-13.89,0c.41-3.44.82-7.3,1.23-11.41h0c.66-6.64,1.31-14,1.89-21.31l5.65-7.56c.11,6.1.36,12.3.85,18.12C375.53,439.85,376.81,447.72,379.06,453.32Z"/><path class="cls-2" d="M374.79,431.19l-8.39,10.75c.66-6.64,1.31-14,1.89-21.31l5.65-7.56C374.06,419.16,374.3,425.36,374.79,431.19Z"/><path class="cls-2" d="M377.76,311c-7.19,7.82-12.18,3.57-14.44.54h0c.34-.57.45-1.1.37-1.06,5.16-8,12-2.29,13.19-.57A6.81,6.81,0,0,0,377.76,311Z"/><path class="cls-1" d="M388.35,318.47a11.22,11.22,0,0,1-.14,2.13c-2,12.51-25.1,15-32.55,5.33a13.84,13.84,0,0,1-2.38-4.39,7.51,7.51,0,0,1,3.29-8.82,4.24,4.24,0,0,1,3.17-.84.73.73,0,0,1,.52.86,2.49,2.49,0,0,0,3.07-1.23c2.25,3,7.25,7.28,14.44-.54.56.53,1.22.8,1.85.14.43-.45,1.18-.33,1.8-.38a7.66,7.66,0,0,1,2.33.09,5,5,0,0,1,2.23,1.08C387.22,312.93,388.25,314.89,388.35,318.47Z"/><path class="cls-3" d="M405,300.12c-2.87,3.44-7.46,8-10.32,9.18-2.64,1.06-4.79-.32-8.69,2.59a5,5,0,0,0-2.23-1.08c1.31-1.53,3.47-3.8,4.61-3.8,1.72,0,4.59.57,6.31-1.72s4-6.88,6.31-8.6S407.85,296.67,405,300.12Z"/><path class="cls-3" d="M359.73,311.87h0a4.24,4.24,0,0,0-3.17.84,9,9,0,0,1-1.48-1.7c-1.15-1.72-4-1.15-6.31-.57s-8-5.74-10.9-9.18,0-5.16,2.87-5.16,5.16,10.32,10.9,11.47S359.73,311.87,359.73,311.87Z"/><path class="cls-2" d="M405.87,330.72l-.1.79a.07.07,0,0,0,0,0c-.13.61-.26,1.22-.42,1.81a34.42,34.42,0,0,1-64.58,5.86,34,34,0,0,1-1.33-3.31h0a34.23,34.23,0,0,1-1.32-5.15c.3-.25.6-.5.9-.75q1.3-1.07,2.65-2l.9-.64.92-.63c.93-.63,1.88-1.21,2.84-1.77l.84-.48.52-.29,1-.52.05,0,1-.49.65-.32.91-.42c.68-.3,1.35-.59,2-.87a13.84,13.84,0,0,0,2.38,4.39c7.45,9.65,30.53,7.18,32.55-5.33l1.13.4a50.87,50.87,0,0,1,6,2.65l1,.54.81.45.56.33q1.7,1,3.34,2.11l1,.69c.52.37,1,.76,1.55,1.15l.64.5.71.57C405.28,330.23,405.57,330.47,405.87,330.72Z"/><path class="cls-1" d="M418.32,330.79a30.5,30.5,0,0,1-9.81,2.32q-1.28-1.22-2.62-2.36l0,0c-.29-.25-.58-.49-.88-.73l1-.95c.91-.8,2-1.76,3.28-2.7,3.61-2.74,8.13-5.35,10.66-3.71a3.48,3.48,0,0,1,1.24,1.51,6.52,6.52,0,0,1,.4,1.2C422.2,327.84,420.77,329.58,418.32,330.79Z"/><path class="cls-1" d="M421.21,324.15a3.48,3.48,0,0,0-1.24-1.51c.3-3.53,1.53-15.17,4.63-13.65a2,2,0,0,1,.45.3,5,5,0,0,1,1.31,1.72h0C428.09,314.63,425.65,320.23,421.21,324.15Z"/><path class="cls-1" d="M429.07,305.28a10.66,10.66,0,0,0-2.7,5.74,5,5,0,0,0-1.31-1.72,2,2,0,0,0-.45-.3c1.07-13.15,7.34-10,7.34-10C434.23,299,431.94,302.41,429.07,305.28Z"/><path class="cls-1" d="M437.1,355.18l-.07.14c-1.66,3.33-7.1,4-11.72,3.94a73.77,73.77,0,0,0-3.56-8.22c3.41-.3,12.65-.87,15.06,1.59A2.1,2.1,0,0,1,437.1,355.18Z"/><path class="cls-1" d="M454.88,357.47a47.58,47.58,0,0,1-5.14-.93l-.59-.14a5,5,0,0,0,0-1.66v0a4.54,4.54,0,0,0-.09-.45c1.91.21,5.08.33,7-.81,2.87-1.72,6.31-4.59,6.88-1.72S459.47,358,454.88,357.47Z"/><path class="cls-1" d="M449.15,356.39c-.33,2-2,3.15-4.59,1.65a31.3,31.3,0,0,0-7.52-2.72l.07-.14a2.1,2.1,0,0,0-.29-2.55c2.59-.72,10.27-2.6,11.73.25h0a6.22,6.22,0,0,1,.52,1.38,4.54,4.54,0,0,1,.09.45v0A5,5,0,0,1,449.15,356.39Z"/><path class="cls-1" d="M438.25,400.48l-.19.09a20.56,20.56,0,0,1-5.09,1.55,21.82,21.82,0,0,1-4.78.28,77.63,77.63,0,0,0,1.61-12.15C435,392.2,445.73,397,438.25,400.48Z"/><path class="cls-1" d="M444.56,415.4a4.31,4.31,0,0,1-1.49,3.44,4.39,4.39,0,0,1-2.48,1,3.4,3.4,0,0,1-1.94-.36c-1.9-1.07-.39-4.1-.39-9.26,0-4-3.46-7-5.28-8.11a20.56,20.56,0,0,0,5.09-1.55c3.79,3.5,5.74,8.8,6.31,12.6A14.91,14.91,0,0,1,444.56,415.4Z"/><path class="cls-1" d="M449.15,433.75q-.86,1.72-5.16-3.44c-2.45-2.94-3.22-8.8-3.4-10.46a4.39,4.39,0,0,0,2.48-1,87,87,0,0,0,4.36,8C450.29,431.46,449.72,432.6,449.15,433.75Z"/><path class="cls-1" d="M315.8,402.31c-2.89,2-6.89,4.11-9.92,3a4.88,4.88,0,0,1-2.42-2,5,5,0,0,1-.5-.95c-1.88-4.86,7-8.74,11.36-10.32A77.24,77.24,0,0,0,315.8,402.31Z"/><path class="cls-1" d="M300.54,420.7c0,.8-.11,1.63-.21,2.47a32.41,32.41,0,0,1-2,8.87c-1.15,2.29-4,4-6.31,2.87s-2.29-4,1.15-5.74c3-1.52,5-7.66,5.36-9.07a2.25,2.25,0,0,0,.34.21A2.47,2.47,0,0,0,300.54,420.7Z"/><path class="cls-1" d="M305.89,405.33c-4.22,4.27-2.31,14.71-5.35,15.37a2.47,2.47,0,0,1-1.7-.39,2.25,2.25,0,0,1-.34-.21,3.67,3.67,0,0,1-1.4-3.13h0s0,0,0,0h0c-.09-4.66,4.35-12.12,5.87-14.54a5,5,0,0,0,.5.95A4.88,4.88,0,0,0,305.89,405.33Z"/><path class="cls-1" d="M320.86,353.94q-1.25,2.74-2.28,5.62c-4.42.73-14.29,2-14.07-1.14a3.11,3.11,0,0,1,.68-1.53,10.89,10.89,0,0,1,1.47-1.64h0C311,351.33,318.18,351.06,320.86,353.94Z"/><path class="cls-1" d="M306.66,355.26a10.89,10.89,0,0,0-1.47,1.64,3.11,3.11,0,0,0-.68,1.53,24.66,24.66,0,0,1-8.17.66,6.51,6.51,0,0,1-3.11-1.15h0a3.72,3.72,0,0,1-1.23-1.61,2.86,2.86,0,0,1-.17-.6c-.43-2.84,5.67-2.27,10.64-1.36C304.07,354.66,305.56,355,306.66,355.26Z"/><path class="cls-1" d="M293.23,357.93c-3.78,1.22-12.36.86-14.42-2.75-2.29-4,5.16-2.87,5.74-1.15.42,1.28,5,1.61,7.28,1.69a2.86,2.86,0,0,0,.17.6A3.72,3.72,0,0,0,293.23,357.93Z"/><path class="cls-1" d="M336.13,332.52c-1.18,1.08-2.31,2.22-3.41,3.41-1.32-.6-2.64-1.23-3.88-1.89-5.74-3-10.12-6.44-8-9.35a3.43,3.43,0,0,1,.41-.48,6,6,0,0,1,1.69-1.22c4.16-2,8.76,2.91,11.46,6.77A29.64,29.64,0,0,1,336.13,332.52Z"/><path class="cls-1" d="M322.94,323a6,6,0,0,0-1.69,1.22,3.43,3.43,0,0,0-.41.48c-5.42-4.57-5.9-8.22-5.9-11.38a2.08,2.08,0,0,1,1.45-2.06,3,3,0,0,1,1.51-.1c1.46.26,2.78,1.55,2.2,3.88C319.31,318.17,321.49,321.31,322.94,323Z"/><path class="cls-1" d="M317.9,311.15a3,3,0,0,0-1.51.1c-1.45-4.08-8-8.06-5.46-11.13C313.23,297.35,316.65,307.19,317.9,311.15Z"/><path class="cls-3" d="M429.92,385.86c0,1.47,0,2.94-.12,4.39a77.63,77.63,0,0,1-1.61,12.15c-5.74,26.94-25.18,47.51-49.13,50.92-2.25-5.6-3.53-13.47-4.27-22.13-.49-5.83-.73-12-.85-18.12-.3-15.73.24-30.88-.5-37.81-1.72-16.06,10.9-10.32,22.37-22.37a38.2,38.2,0,0,0,9.66-19.53q.17-.95.29-1.81a.07.07,0,0,1,0,0l.14-.76q1.33,1.14,2.62,2.36A66.32,66.32,0,0,1,421.75,351a73.77,73.77,0,0,1,3.56,8.22A78,78,0,0,1,429.92,385.86Z"/><path class="cls-3" d="M368.29,420.62c-.59,7.35-1.23,14.68-1.89,21.31h0c-.41,4.12-.82,8-1.23,11.41-24.08-3.32-43.63-24-49.36-51a77.24,77.24,0,0,1-1.47-10.23q-.24-3.07-.24-6.22a78,78,0,0,1,4.5-26.3q1-2.88,2.28-5.62a67.75,67.75,0,0,1,11.86-18c1.1-1.19,2.23-2.33,3.41-3.41.5-.48,1-.94,1.54-1.38a25.43,25.43,0,0,0,.67,4c.26,1.08.61,2.28,1.07,3.59a61,61,0,0,0,4.78,10.16c8.6,14.91,25.24,9.18,26.38,22.94C371.12,378.39,370,399.65,368.29,420.62Z"/><polygon class="cls-2" points="337.26 375.95 328.4 375.28 326.29 366.64 333.86 361.97 340.64 367.73 337.26 375.95"/><polygon class="cls-3" points="350.38 395.2 339.3 394.06 336.96 383.17 346.59 377.58 354.88 385.01 350.38 395.2"/><polygon class="cls-2" points="357.99 423.12 342.1 424.96 335.43 410.41 347.21 399.58 361.15 407.43 357.99 423.12"/><polygon class="cls-2" points="408.13 407.47 385.61 404.42 381.54 382.06 401.55 371.29 417.98 386.99 408.13 407.47"/><polygon class="cls-3" points="398.39 426.5 391.82 424.24 391.94 417.28 398.6 415.25 402.58 420.95 398.39 426.5"/><polygon class="cls-1" points="386.97 443.85 381.07 443.81 379.29 438.19 384.08 434.75 388.83 438.25 386.97 443.85"/><polygon class="cls-1" points="417.86 364.74 406.83 371.68 396.82 363.34 401.66 351.25 414.66 352.11 417.86 364.74"/><polygon class="cls-3" points="334.3 354.59 327.74 355.04 325.29 348.94 330.32 344.72 335.9 348.21 334.3 354.59"/><polygon class="cls-3" points="330.07 384.62 324.72 383.56 324.08 378.14 329.03 375.86 332.74 379.87 330.07 384.62"/><polygon class="cls-3" points="325.42 405.99 319.81 406.72 317.38 401.61 321.48 397.72 326.45 400.42 325.42 405.99"/><polygon class="cls-1" points="353.97 437.5 345.47 440.55 339.95 433.4 345.04 425.94 353.71 428.48 353.97 437.5"/><polygon class="cls-1" points="363.28 374.68 356.96 375.33 354.39 369.53 359.12 365.29 364.61 368.47 363.28 374.68"/><polygon class="cls-3" points="362.22 395.2 356.76 394.94 355.32 389.66 359.9 386.66 364.16 390.08 362.22 395.2"/><polygon class="cls-3" points="386.97 370.03 381.76 372.16 378.13 367.86 381.09 363.07 386.56 364.41 386.97 370.03"/><polygon class="cls-3" points="386.34 420.37 378.42 419.61 376.69 411.83 383.55 407.8 389.51 413.07 386.34 420.37"/><polygon class="cls-3" points="398.82 439.41 393.31 438.54 392.44 433.03 397.41 430.5 401.35 434.44 398.82 439.41"/><polygon class="cls-3" points="414.05 424.39 406.89 420.27 408.59 412.19 416.8 411.31 420.18 418.85 414.05 424.39"/><polygon class="cls-3" points="423.14 401.97 418.05 397.99 420.26 391.91 426.72 392.13 428.51 398.35 423.14 401.97"/><polygon class="cls-1" points="335.36 397.95 327.74 399.17 324.23 392.3 329.67 386.83 336.55 390.32 335.36 397.95"/><polygon class="cls-3" points="332.82 421.43 326.35 422.29 323.52 416.4 328.26 411.89 334 415 332.82 421.43"/><polygon class="cls-3" points="354.61 447.02 355.2 442.6 359.6 441.8 361.72 445.73 358.63 448.96 354.61 447.02"/><polygon class="cls-3" points="435.66 261.47 420.72 263.42 411.56 251.45 417.34 237.53 432.28 235.58 441.44 247.55 435.66 261.47"/><polygon class="cls-3" points="469.66 179.47 454.72 181.42 445.56 169.45 451.34 155.53 466.28 153.58 475.44 165.55 469.66 179.47"/><polygon class="cls-3" points="331.66 261.47 316.72 263.42 307.56 251.45 313.34 237.53 328.28 235.58 337.44 247.55 331.66 261.47"/><polygon class="cls-3" points="310.66 176.47 295.72 178.42 286.56 166.45 292.34 152.53 307.28 150.58 316.44 162.55 310.66 176.47"/><path class="cls-1" d="M675.46,346.35a38.2,38.2,0,0,1-9.66,19.53c-11.47,12-24.09,6.31-22.37,22.37.74,6.93.2,22.09.5,37.81l-5.65,7.56c1.67-21,2.83-42.23,2.28-48.81-1.15-13.76-17.78-8-26.38-22.94a61,61,0,0,1-4.78-10.16c-.45-1.31-.8-2.51-1.07-3.59a25.43,25.43,0,0,1-.67-4c.14-.14.29-.26.44-.38a34.23,34.23,0,0,0,1.32,5.15h0a34,34,0,0,0,1.33,3.31,34.42,34.42,0,0,0,64.58-5.86Z"/><path class="cls-1" d="M649.06,466.32a49.74,49.74,0,0,1-13.89,0c.41-3.44.82-7.3,1.23-11.41h0c.66-6.64,1.31-14,1.89-21.31l5.65-7.56c.11,6.1.36,12.3.85,18.12C645.53,452.85,646.81,460.72,649.06,466.32Z"/><path class="cls-2" d="M644.79,444.19l-8.39,10.75c.66-6.64,1.31-14,1.89-21.31l5.65-7.56C644.06,432.16,644.3,438.36,644.79,444.19Z"/><path class="cls-2" d="M647.76,324c-7.19,7.82-12.18,3.57-14.44.54h0c.34-.57.45-1.1.37-1.06,5.16-8,12-2.29,13.19-.57A6.81,6.81,0,0,0,647.76,324Z"/><path class="cls-1" d="M658.35,331.47a11.22,11.22,0,0,1-.14,2.13c-2,12.51-25.1,15-32.55,5.33a13.84,13.84,0,0,1-2.38-4.39,7.51,7.51,0,0,1,3.29-8.82,4.24,4.24,0,0,1,3.17-.84.73.73,0,0,1,.52.86,2.49,2.49,0,0,0,3.07-1.23c2.25,3,7.25,7.28,14.44-.54.56.53,1.22.8,1.85.14.43-.45,1.18-.33,1.8-.38a7.66,7.66,0,0,1,2.33.09,5,5,0,0,1,2.23,1.08C657.22,325.93,658.25,327.89,658.35,331.47Z"/><path class="cls-3" d="M675,313.12c-2.87,3.44-7.46,8-10.32,9.18-2.64,1.06-4.79-.32-8.69,2.59a5,5,0,0,0-2.23-1.08c1.31-1.53,3.47-3.8,4.61-3.8,1.72,0,4.59.57,6.31-1.72s4-6.88,6.31-8.6S677.85,309.67,675,313.12Z"/><path class="cls-3" d="M629.73,324.87h0a4.24,4.24,0,0,0-3.17.84,9,9,0,0,1-1.48-1.7c-1.15-1.72-4-1.15-6.31-.57s-8-5.74-10.9-9.18,0-5.16,2.87-5.16,5.16,10.32,10.9,11.47S629.73,324.87,629.73,324.87Z"/><path class="cls-2" d="M675.87,343.72l-.1.79a.07.07,0,0,0,0,0c-.13.61-.26,1.22-.42,1.81a34.42,34.42,0,0,1-64.58,5.86,34,34,0,0,1-1.33-3.31h0a34.23,34.23,0,0,1-1.32-5.15c.3-.25.6-.5.9-.75q1.3-1.07,2.65-2l.9-.64.92-.63c.93-.63,1.88-1.21,2.84-1.77l.84-.48.52-.29,1-.52.05,0,1-.49.65-.32.91-.42c.68-.3,1.35-.59,2-.87a13.84,13.84,0,0,0,2.38,4.39c7.45,9.65,30.53,7.18,32.55-5.33l1.13.4a50.87,50.87,0,0,1,6,2.65l1,.54.81.45.56.33q1.7,1,3.34,2.11l1,.69c.52.37,1,.76,1.55,1.15l.64.5.71.57C675.28,343.23,675.57,343.47,675.87,343.72Z"/><path class="cls-1" d="M688.32,343.79a30.5,30.5,0,0,1-9.81,2.32q-1.28-1.22-2.62-2.36l0,0c-.29-.25-.58-.49-.88-.73l1-.95c.91-.8,2-1.76,3.28-2.7,3.61-2.74,8.13-5.35,10.66-3.71a3.48,3.48,0,0,1,1.24,1.51,6.52,6.52,0,0,1,.4,1.2C692.2,340.84,690.77,342.58,688.32,343.79Z"/><path class="cls-1" d="M691.21,337.15a3.48,3.48,0,0,0-1.24-1.51c.3-3.53,1.53-15.17,4.63-13.65a2,2,0,0,1,.45.3,5,5,0,0,1,1.31,1.72h0C698.09,327.63,695.65,333.23,691.21,337.15Z"/><path class="cls-1" d="M699.07,318.28a10.66,10.66,0,0,0-2.7,5.74,5,5,0,0,0-1.31-1.72,2,2,0,0,0-.45-.3c1.07-13.15,7.34-10,7.34-10C704.23,312,701.94,315.41,699.07,318.28Z"/><path class="cls-1" d="M707.1,368.18l-.07.14c-1.66,3.33-7.1,4-11.72,3.94a73.77,73.77,0,0,0-3.56-8.22c3.41-.3,12.65-.87,15.06,1.59A2.1,2.1,0,0,1,707.1,368.18Z"/><path class="cls-1" d="M724.88,370.47a47.58,47.58,0,0,1-5.14-.93l-.59-.14a5,5,0,0,0,0-1.66v0a4.54,4.54,0,0,0-.09-.45c1.91.21,5.08.33,7-.81,2.87-1.72,6.31-4.59,6.88-1.72S729.47,371,724.88,370.47Z"/><path class="cls-1" d="M719.15,369.39c-.33,2-2,3.15-4.59,1.65a31.3,31.3,0,0,0-7.52-2.72l.07-.14a2.1,2.1,0,0,0-.29-2.55c2.59-.72,10.27-2.6,11.73.25h0a6.22,6.22,0,0,1,.52,1.38,4.54,4.54,0,0,1,.09.45v0A5,5,0,0,1,719.15,369.39Z"/><path class="cls-1" d="M708.25,413.48l-.19.09a20.56,20.56,0,0,1-5.09,1.55,21.82,21.82,0,0,1-4.78.28,77.63,77.63,0,0,0,1.61-12.15C705,405.2,715.73,410,708.25,413.48Z"/><path class="cls-1" d="M714.56,428.4a4.31,4.31,0,0,1-1.49,3.44,4.39,4.39,0,0,1-2.48,1,3.4,3.4,0,0,1-1.94-.36c-1.9-1.07-.39-4.1-.39-9.26,0-4-3.46-7-5.28-8.11a20.56,20.56,0,0,0,5.09-1.55c3.79,3.5,5.74,8.8,6.31,12.6A14.91,14.91,0,0,1,714.56,428.4Z"/><path class="cls-1" d="M719.15,446.75q-.86,1.72-5.16-3.44c-2.45-2.94-3.22-8.8-3.4-10.46a4.39,4.39,0,0,0,2.48-1,87,87,0,0,0,4.36,8C720.29,444.46,719.72,445.6,719.15,446.75Z"/><path class="cls-1" d="M585.8,415.31c-2.89,2-6.89,4.11-9.92,3a4.88,4.88,0,0,1-2.42-2,5,5,0,0,1-.5-.95c-1.88-4.86,7-8.74,11.36-10.32A77.24,77.24,0,0,0,585.8,415.31Z"/><path class="cls-1" d="M570.54,433.7c0,.8-.11,1.63-.21,2.47a32.41,32.41,0,0,1-2,8.87c-1.15,2.29-4,4-6.31,2.87s-2.29-4,1.15-5.74c3-1.52,5-7.66,5.36-9.07a2.25,2.25,0,0,0,.34.21A2.47,2.47,0,0,0,570.54,433.7Z"/><path class="cls-1" d="M575.89,418.33c-4.22,4.27-2.31,14.71-5.35,15.37a2.47,2.47,0,0,1-1.7-.39,2.25,2.25,0,0,1-.34-.21,3.67,3.67,0,0,1-1.4-3.13h0s0,0,0,0h0c-.09-4.66,4.35-12.12,5.87-14.54a5,5,0,0,0,.5.95A4.88,4.88,0,0,0,575.89,418.33Z"/><path class="cls-1" d="M590.86,366.94q-1.25,2.74-2.28,5.62c-4.42.73-14.29,2-14.07-1.14a3.11,3.11,0,0,1,.68-1.53,10.89,10.89,0,0,1,1.47-1.64h0C581,364.33,588.18,364.06,590.86,366.94Z"/><path class="cls-1" d="M576.66,368.26a10.89,10.89,0,0,0-1.47,1.64,3.11,3.11,0,0,0-.68,1.53,24.66,24.66,0,0,1-8.17.66,6.51,6.51,0,0,1-3.11-1.15h0a3.72,3.72,0,0,1-1.23-1.61,2.86,2.86,0,0,1-.17-.6c-.43-2.84,5.67-2.27,10.64-1.36C574.07,367.66,575.56,368,576.66,368.26Z"/><path class="cls-1" d="M563.23,370.93c-3.78,1.22-12.36.86-14.42-2.75-2.29-4,5.16-2.87,5.74-1.15.42,1.28,5,1.61,7.28,1.69a2.86,2.86,0,0,0,.17.6A3.72,3.72,0,0,0,563.23,370.93Z"/><path class="cls-1" d="M606.13,345.52c-1.18,1.08-2.31,2.22-3.41,3.41-1.32-.6-2.64-1.23-3.88-1.89-5.74-3-10.12-6.44-8-9.35a3.43,3.43,0,0,1,.41-.48,6,6,0,0,1,1.69-1.22c4.16-2,8.76,2.91,11.46,6.77A29.64,29.64,0,0,1,606.13,345.52Z"/><path class="cls-1" d="M592.94,336a6,6,0,0,0-1.69,1.22,3.43,3.43,0,0,0-.41.48c-5.42-4.57-5.9-8.22-5.9-11.38a2.08,2.08,0,0,1,1.45-2.06,3,3,0,0,1,1.51-.1c1.46.26,2.78,1.55,2.2,3.88C589.31,331.17,591.49,334.31,592.94,336Z"/><path class="cls-1" d="M587.9,324.15a3,3,0,0,0-1.51.1c-1.45-4.08-8-8.06-5.46-11.13C583.23,310.35,586.65,320.19,587.9,324.15Z"/><path class="cls-3" d="M699.92,398.86c0,1.47,0,2.94-.12,4.39a77.63,77.63,0,0,1-1.61,12.15c-5.74,26.94-25.18,47.51-49.13,50.92-2.25-5.6-3.53-13.47-4.27-22.13-.49-5.83-.73-12-.85-18.12-.3-15.73.24-30.88-.5-37.81-1.72-16.06,10.9-10.32,22.37-22.37a38.2,38.2,0,0,0,9.66-19.53q.17-.95.29-1.81a.07.07,0,0,1,0,0l.14-.76q1.33,1.14,2.62,2.36A66.32,66.32,0,0,1,691.75,364a73.77,73.77,0,0,1,3.56,8.22A78,78,0,0,1,699.92,398.86Z"/><path class="cls-3" d="M638.29,433.62c-.59,7.35-1.23,14.68-1.89,21.31h0c-.41,4.12-.82,8-1.23,11.41-24.08-3.32-43.63-24-49.36-51a77.24,77.24,0,0,1-1.47-10.23q-.24-3.07-.24-6.22a78,78,0,0,1,4.5-26.3q1-2.88,2.28-5.62a67.75,67.75,0,0,1,11.86-18c1.1-1.19,2.23-2.33,3.41-3.41.5-.48,1-.94,1.54-1.38a25.43,25.43,0,0,0,.67,4c.26,1.08.61,2.28,1.07,3.59a61,61,0,0,0,4.78,10.16c8.6,14.91,25.24,9.18,26.38,22.94C641.12,391.39,640,412.65,638.29,433.62Z"/><polygon class="cls-2" points="607.26 388.95 598.4 388.28 596.29 379.64 603.86 374.97 610.64 380.73 607.26 388.95"/><polygon class="cls-3" points="620.38 408.2 609.3 407.06 606.96 396.17 616.59 390.58 624.88 398.01 620.38 408.2"/><polygon class="cls-2" points="627.99 436.12 612.1 437.96 605.43 423.41 617.21 412.58 631.15 420.43 627.99 436.12"/><polygon class="cls-2" points="678.13 420.47 655.61 417.42 651.54 395.06 671.55 384.29 687.98 399.99 678.13 420.47"/><polygon class="cls-3" points="668.39 439.5 661.82 437.24 661.94 430.28 668.6 428.25 672.58 433.95 668.39 439.5"/><polygon class="cls-1" points="656.97 456.85 651.07 456.81 649.29 451.19 654.08 447.75 658.83 451.25 656.97 456.85"/><polygon class="cls-1" points="687.86 377.74 676.83 384.68 666.82 376.34 671.66 364.25 684.66 365.11 687.86 377.74"/><polygon class="cls-3" points="604.3 367.59 597.74 368.04 595.29 361.94 600.32 357.72 605.9 361.21 604.3 367.59"/><polygon class="cls-3" points="600.07 397.62 594.72 396.56 594.08 391.14 599.03 388.86 602.74 392.87 600.07 397.62"/><polygon class="cls-3" points="595.42 418.99 589.81 419.72 587.38 414.61 591.48 410.72 596.46 413.42 595.42 418.99"/><polygon class="cls-1" points="623.97 450.5 615.47 453.55 609.95 446.4 615.04 438.94 623.71 441.48 623.97 450.5"/><polygon class="cls-1" points="633.28 387.68 626.97 388.33 624.39 382.53 629.12 378.29 634.61 381.47 633.28 387.68"/><polygon class="cls-3" points="632.22 408.2 626.76 407.94 625.32 402.66 629.9 399.66 634.16 403.08 632.22 408.2"/><polygon class="cls-3" points="656.97 383.03 651.76 385.16 648.13 380.86 651.09 376.07 656.56 377.41 656.97 383.03"/><polygon class="cls-3" points="656.34 433.37 648.41 432.61 646.69 424.83 653.55 420.8 659.51 426.07 656.34 433.37"/><polygon class="cls-3" points="668.82 452.41 663.31 451.54 662.44 446.03 667.41 443.5 671.35 447.44 668.82 452.41"/><polygon class="cls-3" points="684.05 437.39 676.89 433.27 678.59 425.19 686.8 424.31 690.17 431.85 684.05 437.39"/><polygon class="cls-3" points="693.14 414.97 688.05 410.99 690.26 404.91 696.72 405.13 698.51 411.35 693.14 414.97"/><polygon class="cls-1" points="605.36 410.95 597.74 412.17 594.23 405.3 599.67 399.83 606.55 403.32 605.36 410.95"/><polygon class="cls-3" points="602.82 434.43 596.35 435.29 593.52 429.4 598.26 424.89 604 428 602.82 434.43"/><polygon class="cls-3" points="624.61 460.02 625.21 455.6 629.6 454.8 631.72 458.73 628.63 461.96 624.61 460.02"/><polygon class="cls-3" points="705.66 274.47 690.72 276.42 681.55 264.45 687.34 250.53 702.28 248.58 711.45 260.55 705.66 274.47"/><polygon class="cls-3" points="739.66 192.47 724.72 194.42 715.55 182.45 721.34 168.53 736.28 166.58 745.45 178.55 739.66 192.47"/><polygon class="cls-3" points="767.66 118.47 752.72 120.42 743.55 108.45 749.34 94.53 764.28 92.58 773.45 104.55 767.66 118.47"/><polygon class="cls-3" points="545.66 111.47 530.72 113.42 521.55 101.45 527.34 87.53 542.28 85.58 551.45 97.55 545.66 111.47"/><polygon class="cls-3" points="601.66 274.47 586.72 276.42 577.55 264.45 583.34 250.53 598.28 248.58 607.45 260.55 601.66 274.47"/><polygon class="cls-3" points="580.66 189.47 565.72 191.42 556.55 179.45 562.34 165.53 577.28 163.58 586.45 175.55 580.66 189.47"/></svg>