<svg id="Layer_1" data-name="Layer 1" xmlns="http://www.w3.org/2000/svg" viewBox="0 0 800 800"><defs><style>.cls-1{fill:#850007;}.cls-1,.cls-2,.cls-3{stroke:#000;}.cls-1,.cls-2,.cls-3,.cls-4,.cls-5{stroke-miterlimit:10;stroke-width:0.5px;}.cls-3{fill:#25ff3c;}.cls-4{fill:#6f0003;}.cls-4,.cls-5{stroke:#ed1c24;}</style></defs><title>scorpion</title><path class="cls-1" d="M125.61,715.1c-1.12-2.31-2.92-3.37-5.71-2.08-.55.25-1.82,2.44-2.8,5.72l0-.06c-6.34-16-3.2-23.22-1.21-25.83a13.69,13.69,0,0,0,7-.54c1.6,1.65,2.67,4.46,3.08,7.38A84.06,84.06,0,0,1,125.61,715.1Z"/><path class="cls-2" d="M126.79,735.88c-2.35-.89-5.05-.19-6.13,6.62a17.47,17.47,0,0,1-3.18-5.64c-2.61-6.63-1.78-13.47-.38-18.12h0c1-3.28,2.26-5.47,2.8-5.72,2.8-1.29,4.59-.23,5.71,2.08C127.94,719.91,127.35,730.15,126.79,735.88Z"/><path class="cls-1" d="M135,754.39c-1.75,0-3.75.78-4.58,3.89a12.92,12.92,0,0,0-.65,5.21c-2.4-.26-10.51-2.28-9.46-17.74.08-1.21.2-2.29.36-3.25,1.08-6.81,3.79-7.52,6.13-6.62a11.9,11.9,0,0,1,4,3s2.83,4.85,4,14.14C134.91,753.5,135,754,135,754.39Z"/><path class="cls-2" d="M149.8,770.42c-2.53,1.6-8.81.09-14.14-2-3.79-1.52-5.53-2.72-5.9-4.89a12.92,12.92,0,0,1,.65-5.21c.83-3.11,2.83-3.88,4.58-3.89a8,8,0,0,1,3.1.66c6.4.64,10,2.61,11.8,4.94a9.56,9.56,0,0,0-1.7,5.57C148.33,768.24,148.91,769.73,149.8,770.42Z"/><path class="cls-1" d="M157.08,768.38c-2.89,1.84-5.61,3.34-7.27,2-.89-.69-1.47-2.19-1.62-4.87a9.56,9.56,0,0,1,1.7-5.57c3.25-5.14,10-9,10-9a6.57,6.57,0,0,1,1.19-1.88,7.92,7.92,0,0,0,5.68,1.88,5.13,5.13,0,0,0,2.75-.95C174.08,755.2,161.33,765.67,157.08,768.38Z"/><path class="cls-3" d="M169.53,750.06a5.13,5.13,0,0,1-2.75.95,7.92,7.92,0,0,1-5.68-1.88c-2-1.52-3.7-3.5-6.44-4.18-4.85-1.21-9.29-1.21-8.49-10.1,0,0,2,8.08,8.08,7.68s13.34-6.06,15.76-2.42C171.94,743,172.33,748,169.53,750.06Z"/><path class="cls-2" d="M138.89,634.63a5.6,5.6,0,0,0,.2,1.47,12.69,12.69,0,0,1-4.8-2.62h0a31.23,31.23,0,0,0-3.94-8.33,10.79,10.79,0,0,1,1.27-4.26c3.75-7.18,9.42,2.27,11.8,6.95C140.88,629.92,138.89,632.3,138.89,634.63Z"/><path class="cls-3" d="M158.91,625.34c-8.53,18.92-18.34,16.32-19.82,10.77a5.6,5.6,0,0,1-.2-1.47c0-2.32,2-4.7,4.53-6.79a47.5,47.5,0,0,1,7.35-4.8,3.58,3.58,0,0,0,1.85.68c.58,0,1.15-.68,1.69-1.8a16,16,0,0,0,1.95,2.2A4,4,0,0,0,158.91,625.34Z"/><path class="cls-1" d="M158.91,625.34a4,4,0,0,1-2.65-1.22,16,16,0,0,1-1.95-2.2c-.13-.17-.24-.34-.35-.5-4.53-6.95,1.62-13.12,2.7-19.93h0c1.2-7.67-4.85-16.56-6.87-21s4-1.21,4-1.21C176.79,596.38,167.23,625.65,158.91,625.34Z"/><path class="cls-2" d="M156.67,601.49c-1.07,6.81-7.23,13-2.7,19.93.11.17.22.34.35.5-.54,1.12-1.11,1.8-1.69,1.8a3.58,3.58,0,0,1-1.85-.68c-3.22-2.09-7.09-8.49-5.42-11.84,2-4,0-41.62,4.45-25.05,2.58,9.62,5.16,13.65,6.87,15.34Z"/><path class="cls-2" d="M109.21,629.55l-.06.13-.09.19L109,630l-.07.15c-2.33,5.13-5.56,7-8.19,6.75a4.06,4.06,0,0,0,1.77-1.85,23.05,23.05,0,0,0-4.42-10c3.52-6.45,9.23-7.56,12.1-6.13S110.17,627.37,109.21,629.55Z"/><path class="cls-3" d="M102.52,635a4.06,4.06,0,0,1-1.77,1.85c-6.43,3.36-22.75-10.31-18.92-15.21a14.89,14.89,0,0,0,3.31.83A4.5,4.5,0,0,0,88,620.22c.51,1,1.55,1.88,3.68.36A13.26,13.26,0,0,1,98.1,625,23.05,23.05,0,0,1,102.52,635Z"/><path class="cls-1" d="M88.38,602.3c2.44,10,1.35,15.1-.2,17.69h-.26l.11.25a4.5,4.5,0,0,1-2.89,2.28,14.89,14.89,0,0,1-3.31-.83c-15.64-6-2.72-37.14,4.12-43.22,7.27-6.47,8.49-3.23,8.49-1.62,0,1.43-8.22,6-7,19.65A38.29,38.29,0,0,0,88.38,602.3Z"/><path class="cls-2" d="M93.23,619.27a12.3,12.3,0,0,1-1.52,1.31c-2.13,1.52-3.18.68-3.68-.36l.15-.24c1.55-2.59,2.63-7.71.2-17.69a38.29,38.29,0,0,1-1-5.81c7.42-7.57,4-14.56,6.64-17.23,2.83-2.83.81,14.14,1.62,21S98.48,614,93.23,619.27Z"/><path class="cls-3" d="M142.82,651.47a2.16,2.16,0,0,1-.7.94,2.43,2.43,0,0,1-.85.46,2.75,2.75,0,0,1-2.62-1,23.91,23.91,0,0,0-2.25-8.16l0,0a18.15,18.15,0,0,0-.3-3.08c-.13-.68-.26-1.34-.4-2C137.94,641.13,144.12,648.14,142.82,651.47Z"/><path class="cls-3" d="M154.25,656a3,3,0,0,1-1.2.82c-2.93,1.18-8.7-.51-11.78-4a2.43,2.43,0,0,0,.85-.46,2.16,2.16,0,0,0,.7-.94c3,.57,10.92,1.79,11.64,3.67A.84.84,0,0,1,154.25,656Z"/><path class="cls-3" d="M164.35,656a4.52,4.52,0,0,1-.24.48c-1.3,2.25-4.33,2.55-11.06.34a3,3,0,0,0,1.2-.82.84.84,0,0,0,.21-.91c2.19-.34,9.48-1.33,10,.34A.83.83,0,0,1,164.35,656Z"/><path class="cls-3" d="M171.62,658.06c-1.94,4.64-.53-.72-7.52-1.54a4.52,4.52,0,0,0,.24-.48.83.83,0,0,0,.06-.56C166.84,655,173.31,654,171.62,658.06Z"/><path class="cls-1" d="M142.93,665.74a2.7,2.7,0,0,1-.58.68,2.08,2.08,0,0,1-2.57,0,6.49,6.49,0,0,1-2.3-2.8h0a31.54,31.54,0,0,0,.42-7.63h0a5.83,5.83,0,0,0,.51-1.33C139.76,656.2,144.68,662.94,142.93,665.74Z"/><path class="cls-1" d="M156.17,682.53c-1.52.71-5.85-3.85-10.41-7.49s-5.71-7.11-6-8.57a2.08,2.08,0,0,0,2.57,0c4.63,2.2,13.7,8.54,14.32,13.46,0,.13,0,.25,0,.37C156.84,681.61,156.64,682.32,156.17,682.53Z"/><path class="cls-1" d="M168,683.6a2.17,2.17,0,0,1,0,.32,1.68,1.68,0,0,1-.84,1.4c-2.21,1.3-8.15-1.05-11-2.8.46-.21.67-.91.54-2.28C158.83,680.09,167.86,679.65,168,683.6Z"/><path class="cls-1" d="M174,689.58c-2,2.83-2.83,2.83-3.64-.4a6.9,6.9,0,0,0-3.27-3.85,1.68,1.68,0,0,0,.84-1.4,2.17,2.17,0,0,0,0-.32C170.21,684.2,175.76,687.19,174,689.58Z"/><path class="cls-3" d="M139.74,683.48c-.36.57-.93.64-1.7.19a6.05,6.05,0,0,1-1.17-.95c-1.24-1.24-1.55-4-1.5-6.62a19,19,0,0,0,1.1-6.31s.17-.87.41-2.2a53.49,53.49,0,0,1,2.82,9.47C140.33,680.42,140.31,682.58,139.74,683.48Z"/><path class="cls-3" d="M147.13,703.65a1.33,1.33,0,0,1-.3.77.33.33,0,0,1-.26.11c-.2,0-.54-.26-1-.73-2.22-2.36-6.9-10-7.91-15-.61-3-.2-4.46.36-5.11.76.45,1.34.39,1.7-.19a61.66,61.66,0,0,1,3.6,6.91C146.44,696.9,147.4,701.75,147.13,703.65Z"/><path class="cls-3" d="M155.38,712.47a1.13,1.13,0,0,1-1.21.23l-.32-.09c-3.93-1.31-6.27-6.34-7-8.2a1.33,1.33,0,0,0,.3-.77C152,703.29,156.7,710.87,155.38,712.47Z"/><path class="cls-3" d="M158.69,719.49c-4,3.64-2.83-1.21-2.83-2.83,0-1.2-1.56-3.07-1.7-4a1.13,1.13,0,0,0,1.21-.23C157.33,713.37,162.09,716.43,158.69,719.49Z"/><path class="cls-3" d="M106.52,679a8,8,0,0,1-1.82,4.19c-.54.59-1.12.88-1.59.7-.77-.31-1.29-1.9-1-5.59.44-5.43,1.45-6.43,2.3-6.18A16.69,16.69,0,0,0,106.52,679Z"/><path class="cls-3" d="M95.07,705.42a1.16,1.16,0,0,1-.86-.6,2.05,2.05,0,0,1-.17-.29c-2.8-5.6,6.53-17.58,9.08-20.67.48.19,1.05-.11,1.59-.7C106.32,685.57,98.72,705.79,95.07,705.42Z"/><path class="cls-3" d="M95.07,705.42c0,2.36-3.65,6-6.08,6.58a1.51,1.51,0,0,1-1.82-.6.4.4,0,0,1,0-.08c-1.17-2.37,5-5.53,7.08-6.49A1.16,1.16,0,0,0,95.07,705.42Z"/><path class="cls-3" d="M89,712a20.53,20.53,0,0,0-1.82,4.25c-.81,2.83-.81,5.25-3.23,2-2-2.69,1.84-5.94,3.19-7a.4.4,0,0,0,0,.08A1.51,1.51,0,0,0,89,712Z"/><path class="cls-1" d="M104.46,664.83h0a6.44,6.44,0,0,1-2.45,2.59,1.09,1.09,0,0,1-1.37-.48,7.65,7.65,0,0,1-.95-3.22c-.67-5.07,3.73-9,5.2-10.16,0,1.69.06,2.89.06,2.89l.06,0A46.22,46.22,0,0,0,104.46,664.83Z"/><path class="cls-1" d="M86.48,681.72a1.33,1.33,0,0,1-.93-.62,1.67,1.67,0,0,1-.19-1.2c.71-4,12.35-11.21,15.28-13a1.09,1.09,0,0,0,1.37.48C103.47,671.49,90.53,682.57,86.48,681.72Z"/><path class="cls-1" d="M86.48,681.72c-.58.52-7.3,4-10.69,3.2a2.31,2.31,0,0,1-1.55-1,1.37,1.37,0,0,1-.14-.28c-1-2.78,9.71-3.64,11.27-3.75a1.67,1.67,0,0,0,.19,1.2A1.33,1.33,0,0,0,86.48,681.72Z"/><path class="cls-1" d="M75.79,684.92a29.58,29.58,0,0,0-2.36,4.66c-.81,1.62-2-.81-2.83-3.23-.59-1.76,2-2.46,3.5-2.7a1.37,1.37,0,0,0,.14.28A2.31,2.31,0,0,0,75.79,684.92Z"/><path class="cls-3" d="M133.21,679.87a29.07,29.07,0,0,1-4.82,8.9,12,12,0,0,1-5.51,3.53,13.69,13.69,0,0,1-7,.54,8.27,8.27,0,0,1-4.45-2.45c-2.75-3-3.64-7.25-3.92-10a8.65,8.65,0,0,0,.69.75C111.54,684.33,126.5,687.91,133.21,679.87Z"/><path class="cls-2" d="M116.67,623.72a2.42,2.42,0,1,1-2.42-2.42,2.38,2.38,0,0,1,1.34.4A2.42,2.42,0,0,1,116.67,623.72Z"/><path class="cls-3" d="M130,623.72a1.57,1.57,0,0,1-.17.72,1.61,1.61,0,1,1-2-2.23,1.58,1.58,0,0,1,.59-.11A1.62,1.62,0,0,1,130,623.72Z"/><path class="cls-3" d="M137.49,663.66h0c-.2,1.45-.43,2.83-.62,3.92-.23,1.33-.41,2.2-.41,2.2l-.54.38c-8.84,5.86-30.06.61-31-1.19a3.58,3.58,0,0,1-.27-1s0,0,0,0a23.85,23.85,0,0,1-.21-3.1h0a46.22,46.22,0,0,1,.54-8.35c.44.22.88.42,1.33.61.77.34,1.56.63,2.34.89,6.78,2.25,13.93,1.91,19.43,1a55.22,55.22,0,0,0,8.44-2.11c.73-.25,1.14-.41,1.14-.41a4.06,4.06,0,0,0,.23-.41A31.54,31.54,0,0,1,137.49,663.66Z"/><path class="cls-2" d="M136.47,669.78a19,19,0,0,1-1.1,6.31,12.87,12.87,0,0,1-2.16,3.78c-6.7,8-21.66,4.46-25,1.22a8.65,8.65,0,0,1-.69-.75h0a10.26,10.26,0,0,1-1-1.37,16.69,16.69,0,0,1-2.11-6.89,11.17,11.17,0,0,1,.26-4.15,3.58,3.58,0,0,0,.27,1c.92,1.8,22.14,7.05,31,1.19Z"/><path class="cls-1" d="M136.37,643.77c-.56.32-1.13.61-1.7.88-10.72,5-22.74,1.05-27.16-.76-.81-.33-1.36-.59-1.61-.71.09-1,.21-2,.34-3a38.55,38.55,0,0,1,2.7-10.1L109,630l.05-.11.09-.19.06-.13a22.15,22.15,0,0,1,2.9-4.68,2.43,2.43,0,1,0,3.47-3.18,12,12,0,0,1,6.54-2.22s2.61-.06,5.68,2.74a1.61,1.61,0,1,0,2,2.23l.52.7a31.23,31.23,0,0,1,3.94,8.33h0c.5,1.56,1,3.3,1.38,5.23.14.64.27,1.3.4,2A18.15,18.15,0,0,1,136.37,643.77Z"/><path class="cls-2" d="M138.41,654.71a5.83,5.83,0,0,1-.51,1.33h0a4.06,4.06,0,0,1-.23.41s-.4.16-1.14.41a55.22,55.22,0,0,1-8.44,2.11c-5.5.93-12.65,1.27-19.43-1-.79-.26-1.57-.56-2.34-.89-.44-.19-.88-.4-1.33-.61l-.06,0s0-1.2-.06-2.89h0c0-.91,0-2,0-3l-.07.06,1.1-7.37c.25.12.8.38,1.59.7,4.42,1.81,16.44,5.79,27.16.76.57-.27,1.14-.56,1.7-.88l0,0a23.91,23.91,0,0,1,2.25,8.16A9.43,9.43,0,0,1,138.41,654.71Z"/><path class="cls-3" d="M105.9,643.18h0l-1.1,7.37a6.09,6.09,0,0,1-1.32.81c-1.18.53-2.31.47-2.74-.61a1.67,1.67,0,0,1-.06-.17,5.84,5.84,0,0,1,.2-3,11.5,11.5,0,0,1,5.34-7.33C106.11,641.17,106,642.15,105.9,643.18Z"/><path class="cls-3" d="M103.5,651.38c-1.75,3.13-11.54,6.53-14.41,5.31a1.26,1.26,0,0,1-.71-.64c-.22-.51.07-1,.68-1.5,2.28-1.81,9.06-3.39,11.64-3.95a1.67,1.67,0,0,0,.06.17C101.19,651.85,102.32,651.9,103.5,651.38Z"/><path class="cls-3" d="M89.09,656.68c-2.54.82-7.79,1.36-10.2-.27a2.85,2.85,0,0,1-1-1.18,1.31,1.31,0,0,1-.12-.4c-.33-2.4,8-1,11.31-.29-.61.49-.9,1-.68,1.5A1.26,1.26,0,0,0,89.09,656.68Z"/><path class="cls-3" d="M78.89,656.41c-1.08.39-2.8,1-3.85,1.25-1.62.4-.81,2.83-3.23,0-2.06-2.41,4.08-2.77,5.94-2.82a1.31,1.31,0,0,0,.12.4A2.85,2.85,0,0,0,78.89,656.41Z"/><path class="cls-1" d="M379.61,720.1c-1.12-2.31-2.92-3.37-5.71-2.08-.55.25-1.82,2.44-2.8,5.72l0-.06c-6.34-16-3.2-23.22-1.21-25.83a13.69,13.69,0,0,0,7-.54c1.6,1.65,2.67,4.46,3.08,7.38A84.06,84.06,0,0,1,379.61,720.1Z"/><path class="cls-2" d="M380.79,740.88c-2.35-.89-5.05-.19-6.13,6.62a17.47,17.47,0,0,1-3.18-5.64c-2.61-6.63-1.78-13.47-.38-18.12h0c1-3.28,2.26-5.47,2.8-5.72,2.8-1.29,4.59-.23,5.71,2.08C381.94,724.91,381.35,735.15,380.79,740.88Z"/><path class="cls-1" d="M389,759.39c-1.75,0-3.75.78-4.58,3.89a12.92,12.92,0,0,0-.65,5.21c-2.4-.26-10.51-2.28-9.46-17.74.08-1.21.2-2.29.36-3.25,1.08-6.81,3.79-7.52,6.13-6.62a11.9,11.9,0,0,1,4,3s2.83,4.85,4,14.14C388.91,758.5,389,759,389,759.39Z"/><path class="cls-2" d="M403.8,775.42c-2.53,1.6-8.81.09-14.14-2-3.79-1.52-5.53-2.72-5.9-4.89a12.92,12.92,0,0,1,.65-5.21c.83-3.11,2.83-3.88,4.58-3.89a8,8,0,0,1,3.1.66c6.4.64,10,2.61,11.8,4.94a9.56,9.56,0,0,0-1.7,5.57C402.33,773.24,402.91,774.73,403.8,775.42Z"/><path class="cls-1" d="M411.08,773.38c-2.89,1.84-5.61,3.34-7.27,2-.89-.69-1.47-2.19-1.62-4.87a9.56,9.56,0,0,1,1.7-5.57c3.25-5.14,10-9,10-9a6.57,6.57,0,0,1,1.19-1.88,7.92,7.92,0,0,0,5.68,1.88,5.13,5.13,0,0,0,2.75-.95C428.08,760.2,415.33,770.67,411.08,773.38Z"/><path class="cls-3" d="M423.53,755.06a5.13,5.13,0,0,1-2.75.95,7.92,7.92,0,0,1-5.68-1.88c-2-1.52-3.7-3.5-6.44-4.18-4.85-1.21-9.29-1.21-8.49-10.1,0,0,2,8.08,8.08,7.68s13.34-6.06,15.76-2.42C425.94,748,426.33,753,423.53,755.06Z"/><path class="cls-2" d="M392.89,639.63a5.6,5.6,0,0,0,.2,1.47,12.69,12.69,0,0,1-4.8-2.62h0a31.23,31.23,0,0,0-3.94-8.33,10.79,10.79,0,0,1,1.27-4.26c3.75-7.18,9.42,2.27,11.8,6.95C394.88,634.92,392.89,637.3,392.89,639.63Z"/><path class="cls-3" d="M412.91,630.34c-8.53,18.92-18.34,16.32-19.82,10.77a5.6,5.6,0,0,1-.2-1.47c0-2.32,2-4.7,4.53-6.79a47.5,47.5,0,0,1,7.35-4.8,3.58,3.58,0,0,0,1.85.68c.58,0,1.15-.68,1.69-1.8a16,16,0,0,0,1.95,2.2A4,4,0,0,0,412.91,630.34Z"/><path class="cls-1" d="M412.91,630.34a4,4,0,0,1-2.65-1.22,16,16,0,0,1-1.95-2.2c-.13-.17-.24-.34-.35-.5-4.53-6.95,1.62-13.12,2.7-19.93h0c1.2-7.67-4.85-16.56-6.87-21s4-1.21,4-1.21C430.79,601.38,421.23,630.65,412.91,630.34Z"/><path class="cls-2" d="M410.67,606.49c-1.07,6.81-7.23,13-2.7,19.93.11.17.22.34.35.5-.54,1.12-1.11,1.8-1.69,1.8a3.58,3.58,0,0,1-1.85-.68c-3.22-2.09-7.09-8.49-5.42-11.84,2-4,0-41.62,4.45-25.05,2.58,9.62,5.16,13.65,6.87,15.34Z"/><path class="cls-2" d="M363.21,634.55l-.06.13-.09.19L363,635l-.07.15c-2.33,5.13-5.56,7-8.19,6.75a4.06,4.06,0,0,0,1.77-1.85,23.05,23.05,0,0,0-4.42-10c3.52-6.45,9.23-7.56,12.1-6.13S364.17,632.37,363.21,634.55Z"/><path class="cls-3" d="M356.52,640a4.06,4.06,0,0,1-1.77,1.85c-6.43,3.36-22.75-10.31-18.92-15.21a14.89,14.89,0,0,0,3.31.83,4.5,4.5,0,0,0,2.89-2.28c.51,1,1.55,1.88,3.68.36A13.26,13.26,0,0,1,352.1,630,23.05,23.05,0,0,1,356.52,640Z"/><path class="cls-1" d="M342.38,607.3c2.44,10,1.35,15.1-.2,17.69h-.26l.11.25a4.5,4.5,0,0,1-2.89,2.28,14.89,14.89,0,0,1-3.31-.83c-15.64-6-2.72-37.14,4.12-43.22,7.27-6.47,8.49-3.23,8.49-1.62,0,1.43-8.22,6-7,19.65A38.29,38.29,0,0,0,342.38,607.3Z"/><path class="cls-2" d="M347.23,624.27a12.3,12.3,0,0,1-1.52,1.31c-2.13,1.52-3.18.68-3.68-.36l.15-.24c1.55-2.59,2.63-7.71.2-17.69a38.29,38.29,0,0,1-1-5.81c7.42-7.57,4-14.56,6.64-17.23,2.83-2.83.81,14.14,1.62,21S352.48,619,347.23,624.27Z"/><path class="cls-3" d="M396.82,656.47a2.16,2.16,0,0,1-.7.94,2.43,2.43,0,0,1-.85.46,2.75,2.75,0,0,1-2.62-1,23.91,23.91,0,0,0-2.25-8.16l0,0a18.15,18.15,0,0,0-.3-3.08c-.13-.68-.26-1.34-.4-2C391.94,646.13,398.12,653.14,396.82,656.47Z"/><path class="cls-3" d="M408.25,661a3,3,0,0,1-1.2.82c-2.93,1.18-8.7-.51-11.78-4a2.43,2.43,0,0,0,.85-.46,2.16,2.16,0,0,0,.7-.94c3,.57,10.92,1.79,11.64,3.67A.84.84,0,0,1,408.25,661Z"/><path class="cls-3" d="M418.35,661a4.52,4.52,0,0,1-.24.48c-1.3,2.25-4.33,2.55-11.06.34a3,3,0,0,0,1.2-.82.84.84,0,0,0,.21-.91c2.19-.34,9.48-1.33,10,.34A.83.83,0,0,1,418.35,661Z"/><path class="cls-3" d="M425.62,663.06c-1.94,4.64-.53-.72-7.52-1.54a4.52,4.52,0,0,0,.24-.48.83.83,0,0,0,.06-.56C420.84,660,427.31,659,425.62,663.06Z"/><path class="cls-1" d="M396.93,670.74a2.7,2.7,0,0,1-.58.68,2.08,2.08,0,0,1-2.57,0,6.49,6.49,0,0,1-2.3-2.8h0a31.54,31.54,0,0,0,.42-7.63h0a5.83,5.83,0,0,0,.51-1.33C393.76,661.2,398.68,667.94,396.93,670.74Z"/><path class="cls-1" d="M410.17,687.53c-1.52.71-5.85-3.85-10.41-7.49s-5.71-7.11-6-8.57a2.08,2.08,0,0,0,2.57,0c4.63,2.2,13.7,8.54,14.32,13.46,0,.13,0,.25,0,.37C410.84,686.61,410.64,687.32,410.17,687.53Z"/><path class="cls-1" d="M422,688.6a2.17,2.17,0,0,1,0,.32,1.68,1.68,0,0,1-.84,1.4c-2.21,1.3-8.15-1.05-11-2.8.46-.21.67-.91.54-2.28C412.83,685.09,421.86,684.65,422,688.6Z"/><path class="cls-1" d="M428,694.58c-2,2.83-2.83,2.83-3.64-.4a6.9,6.9,0,0,0-3.27-3.85,1.68,1.68,0,0,0,.84-1.4,2.17,2.17,0,0,0,0-.32C424.21,689.2,429.76,692.19,428,694.58Z"/><path class="cls-3" d="M393.74,688.48c-.36.57-.93.64-1.7.19a6.05,6.05,0,0,1-1.17-.95c-1.24-1.24-1.55-4-1.5-6.62a19,19,0,0,0,1.1-6.31s.17-.87.41-2.2a53.49,53.49,0,0,1,2.82,9.47C394.33,685.42,394.31,687.58,393.74,688.48Z"/><path class="cls-3" d="M401.13,708.65a1.33,1.33,0,0,1-.3.77.33.33,0,0,1-.26.11c-.2,0-.54-.26-1-.73-2.22-2.36-6.9-10-7.91-15-.61-3-.2-4.46.36-5.11.76.45,1.34.39,1.7-.19a61.66,61.66,0,0,1,3.6,6.91C400.44,701.9,401.4,706.75,401.13,708.65Z"/><path class="cls-3" d="M409.38,717.47a1.13,1.13,0,0,1-1.21.23l-.32-.09c-3.93-1.31-6.27-6.34-7-8.2a1.33,1.33,0,0,0,.3-.77C406,708.29,410.7,715.87,409.38,717.47Z"/><path class="cls-3" d="M412.69,724.49c-4,3.64-2.83-1.21-2.83-2.83,0-1.2-1.56-3.07-1.7-4a1.13,1.13,0,0,0,1.21-.23C411.33,718.37,416.09,721.43,412.69,724.49Z"/><path class="cls-3" d="M360.52,684a8,8,0,0,1-1.82,4.19c-.54.59-1.12.88-1.59.7-.77-.31-1.29-1.9-1-5.59.44-5.43,1.45-6.43,2.3-6.18A16.69,16.69,0,0,0,360.52,684Z"/><path class="cls-3" d="M349.07,710.42a1.16,1.16,0,0,1-.86-.6,2.05,2.05,0,0,1-.17-.29c-2.8-5.6,6.53-17.58,9.08-20.67.48.19,1.05-.11,1.59-.7C360.32,690.57,352.72,710.79,349.07,710.42Z"/><path class="cls-3" d="M349.07,710.42c0,2.36-3.65,6-6.08,6.58a1.51,1.51,0,0,1-1.82-.6.4.4,0,0,1,0-.08c-1.17-2.37,5-5.53,7.08-6.49A1.16,1.16,0,0,0,349.07,710.42Z"/><path class="cls-3" d="M343,717a20.53,20.53,0,0,0-1.82,4.25c-.81,2.83-.81,5.25-3.23,2-2-2.69,1.84-5.94,3.19-7a.4.4,0,0,0,0,.08A1.51,1.51,0,0,0,343,717Z"/><path class="cls-1" d="M358.46,669.83h0a6.44,6.44,0,0,1-2.45,2.59,1.09,1.09,0,0,1-1.37-.48,7.65,7.65,0,0,1-.95-3.22c-.67-5.07,3.73-9,5.2-10.16,0,1.69.06,2.89.06,2.89l.06,0A46.22,46.22,0,0,0,358.46,669.83Z"/><path class="cls-1" d="M340.48,686.72a1.33,1.33,0,0,1-.93-.62,1.67,1.67,0,0,1-.19-1.2c.71-4,12.35-11.21,15.28-13a1.09,1.09,0,0,0,1.37.48C357.47,676.49,344.53,687.57,340.48,686.72Z"/><path class="cls-1" d="M340.48,686.72c-.58.52-7.3,4-10.69,3.2a2.31,2.31,0,0,1-1.55-1,1.37,1.37,0,0,1-.14-.28c-1-2.78,9.71-3.64,11.27-3.75a1.67,1.67,0,0,0,.19,1.2A1.33,1.33,0,0,0,340.48,686.72Z"/><path class="cls-1" d="M329.79,689.92a29.58,29.58,0,0,0-2.36,4.66c-.81,1.62-2-.81-2.83-3.23-.59-1.76,2-2.46,3.5-2.7a1.37,1.37,0,0,0,.14.28A2.31,2.31,0,0,0,329.79,689.92Z"/><path class="cls-3" d="M387.21,684.87a29.07,29.07,0,0,1-4.82,8.9,12,12,0,0,1-5.51,3.53,13.69,13.69,0,0,1-7,.54,8.27,8.27,0,0,1-4.45-2.45c-2.75-3-3.64-7.25-3.92-10a8.65,8.65,0,0,0,.69.75C365.54,689.33,380.5,692.91,387.21,684.87Z"/><path class="cls-2" d="M370.67,628.72a2.42,2.42,0,1,1-2.42-2.42,2.38,2.38,0,0,1,1.34.4A2.42,2.42,0,0,1,370.67,628.72Z"/><path class="cls-3" d="M384,628.72a1.57,1.57,0,0,1-.17.72,1.61,1.61,0,1,1-2-2.23,1.58,1.58,0,0,1,.59-.11A1.62,1.62,0,0,1,384,628.72Z"/><path class="cls-3" d="M391.49,668.66h0c-.2,1.45-.43,2.83-.62,3.92-.23,1.33-.41,2.2-.41,2.2l-.54.38c-8.84,5.86-30.06.61-31-1.19a3.58,3.58,0,0,1-.27-1s0,0,0,0a23.85,23.85,0,0,1-.21-3.1h0a46.22,46.22,0,0,1,.54-8.35c.44.22.88.42,1.33.61.77.34,1.56.63,2.34.89,6.78,2.25,13.93,1.91,19.43,1a55.22,55.22,0,0,0,8.44-2.11c.73-.25,1.14-.41,1.14-.41a4.06,4.06,0,0,0,.23-.41A31.54,31.54,0,0,1,391.49,668.66Z"/><path class="cls-2" d="M390.47,674.78a19,19,0,0,1-1.1,6.31,12.87,12.87,0,0,1-2.16,3.78c-6.7,8-21.66,4.46-25,1.22a8.65,8.65,0,0,1-.69-.75h0a10.26,10.26,0,0,1-1-1.37,16.69,16.69,0,0,1-2.11-6.89,11.17,11.17,0,0,1,.26-4.15,3.58,3.58,0,0,0,.27,1c.92,1.8,22.14,7.05,31,1.19Z"/><path class="cls-1" d="M390.37,648.77c-.56.32-1.13.61-1.7.88-10.72,5-22.74,1.05-27.16-.76-.81-.33-1.36-.59-1.61-.71.09-1,.21-2,.34-3a38.55,38.55,0,0,1,2.7-10.1L363,635l.05-.11.09-.19.06-.13a22.15,22.15,0,0,1,2.9-4.68,2.43,2.43,0,1,0,3.47-3.18,12,12,0,0,1,6.54-2.22s2.61-.06,5.68,2.74a1.61,1.61,0,1,0,2,2.23l.52.7a31.23,31.23,0,0,1,3.94,8.33h0c.5,1.56,1,3.3,1.38,5.23.14.64.27,1.3.4,2A18.15,18.15,0,0,1,390.37,648.77Z"/><path class="cls-2" d="M392.41,659.71a5.83,5.83,0,0,1-.51,1.33h0a4.06,4.06,0,0,1-.23.41s-.4.16-1.14.41a55.22,55.22,0,0,1-8.44,2.11c-5.5.93-12.65,1.27-19.43-1-.79-.26-1.57-.56-2.34-.89-.44-.19-.88-.4-1.33-.61l-.06,0s0-1.2-.06-2.89h0c0-.91,0-2,0-3l-.07.06,1.1-7.37c.25.12.8.38,1.59.7,4.42,1.81,16.44,5.79,27.16.76.57-.27,1.14-.56,1.7-.88l0,0a23.91,23.91,0,0,1,2.25,8.16A9.43,9.43,0,0,1,392.41,659.71Z"/><path class="cls-3" d="M359.9,648.18h0l-1.1,7.37a6.09,6.09,0,0,1-1.32.81c-1.18.53-2.31.47-2.74-.61a1.67,1.67,0,0,1-.06-.17,5.84,5.84,0,0,1,.2-3,11.5,11.5,0,0,1,5.34-7.33C360.11,646.17,360,647.15,359.9,648.18Z"/><path class="cls-3" d="M357.5,656.38c-1.75,3.13-11.54,6.53-14.41,5.31a1.26,1.26,0,0,1-.71-.64c-.22-.51.07-1,.68-1.5,2.28-1.81,9.06-3.39,11.64-3.95a1.67,1.67,0,0,0,.06.17C355.19,656.85,356.32,656.9,357.5,656.38Z"/><path class="cls-3" d="M343.09,661.68c-2.54.82-7.79,1.36-10.2-.27a2.85,2.85,0,0,1-1-1.18,1.31,1.31,0,0,1-.12-.4c-.33-2.4,8-1,11.31-.29-.61.49-.9,1-.68,1.5A1.26,1.26,0,0,0,343.09,661.68Z"/><path class="cls-3" d="M332.89,661.41c-1.08.39-2.8,1-3.85,1.25-1.62.4-.81,2.83-3.23,0-2.06-2.41,4.08-2.77,5.94-2.82a1.31,1.31,0,0,0,.12.4A2.85,2.85,0,0,0,332.89,661.41Z"/><path class="cls-1" d="M372.61,205.1c-1.12-2.31-2.92-3.37-5.71-2.08-.55.25-1.82,2.44-2.8,5.72l0-.06c-6.34-16-3.2-23.22-1.21-25.83a13.69,13.69,0,0,0,7-.54c1.6,1.65,2.67,4.46,3.08,7.38A84.06,84.06,0,0,1,372.61,205.1Z"/><path class="cls-2" d="M373.79,225.88c-2.35-.89-5.05-.19-6.13,6.62a17.47,17.47,0,0,1-3.18-5.64c-2.61-6.63-1.78-13.47-.38-18.12h0c1-3.28,2.26-5.47,2.8-5.72,2.8-1.29,4.59-.23,5.71,2.08C374.94,209.91,374.35,220.15,373.79,225.88Z"/><path class="cls-1" d="M382,244.39c-1.75,0-3.75.78-4.58,3.89a12.92,12.92,0,0,0-.65,5.21c-2.4-.26-10.51-2.28-9.46-17.74.08-1.21.2-2.29.36-3.25,1.08-6.81,3.79-7.52,6.13-6.62a11.9,11.9,0,0,1,4,3s2.83,4.85,4,14.14C381.91,243.5,382,244,382,244.39Z"/><path class="cls-2" d="M396.8,260.42c-2.53,1.6-8.81.09-14.14-2-3.79-1.52-5.53-2.72-5.9-4.89a12.92,12.92,0,0,1,.65-5.21c.83-3.11,2.83-3.88,4.58-3.89a8,8,0,0,1,3.1.66c6.4.64,10,2.61,11.8,4.94a9.56,9.56,0,0,0-1.7,5.57C395.33,258.24,395.91,259.73,396.8,260.42Z"/><path class="cls-1" d="M404.08,258.38c-2.89,1.84-5.61,3.34-7.27,2-.89-.69-1.47-2.19-1.62-4.87a9.56,9.56,0,0,1,1.7-5.57c3.25-5.14,10-9,10-9a6.57,6.57,0,0,1,1.19-1.88,7.92,7.92,0,0,0,5.68,1.88,5.13,5.13,0,0,0,2.75-.95C421.08,245.2,408.33,255.67,404.08,258.38Z"/><path class="cls-3" d="M416.53,240.06a5.13,5.13,0,0,1-2.75.95,7.92,7.92,0,0,1-5.68-1.88c-2-1.52-3.7-3.5-6.44-4.18-4.85-1.21-9.29-1.21-8.49-10.1,0,0,2,8.08,8.08,7.68s13.34-6.06,15.76-2.42C418.94,233,419.33,238,416.53,240.06Z"/><path class="cls-2" d="M385.89,124.63a5.6,5.6,0,0,0,.2,1.47,12.69,12.69,0,0,1-4.8-2.62h0a31.23,31.23,0,0,0-3.94-8.33,10.79,10.79,0,0,1,1.27-4.26c3.75-7.18,9.42,2.27,11.8,6.95C387.88,119.92,385.89,122.3,385.89,124.63Z"/><path class="cls-3" d="M405.91,115.34c-8.53,18.92-18.34,16.32-19.82,10.77a5.6,5.6,0,0,1-.2-1.47c0-2.32,2-4.7,4.53-6.79a47.5,47.5,0,0,1,7.35-4.8,3.58,3.58,0,0,0,1.85.68c.58,0,1.15-.68,1.69-1.8a16,16,0,0,0,1.95,2.2A4,4,0,0,0,405.91,115.34Z"/><path class="cls-1" d="M405.91,115.34a4,4,0,0,1-2.65-1.22,16,16,0,0,1-1.95-2.2c-.13-.17-.24-.34-.35-.5-4.53-6.95,1.62-13.12,2.7-19.93h0c1.2-7.67-4.85-16.56-6.87-21s4-1.21,4-1.21C423.79,86.38,414.23,115.65,405.91,115.34Z"/><path class="cls-2" d="M403.67,91.49c-1.07,6.81-7.23,13-2.7,19.93.11.17.22.34.35.5-.54,1.12-1.11,1.8-1.69,1.8a3.58,3.58,0,0,1-1.85-.68c-3.22-2.09-7.09-8.49-5.42-11.84,2-4,0-41.62,4.45-25.05,2.58,9.62,5.16,13.65,6.87,15.34Z"/><path class="cls-2" d="M356.21,119.55l-.06.13-.09.19L356,120l-.07.15c-2.33,5.13-5.56,7-8.19,6.75a4.06,4.06,0,0,0,1.77-1.85,23.05,23.05,0,0,0-4.42-10c3.52-6.45,9.23-7.56,12.1-6.13S357.17,117.37,356.21,119.55Z"/><path class="cls-3" d="M349.52,125a4.06,4.06,0,0,1-1.77,1.85c-6.43,3.36-22.75-10.31-18.92-15.21a14.89,14.89,0,0,0,3.31.83,4.5,4.5,0,0,0,2.89-2.28c.51,1,1.55,1.88,3.68.36A13.26,13.26,0,0,1,345.1,115,23.05,23.05,0,0,1,349.52,125Z"/><path class="cls-1" d="M335.38,92.3c2.44,10,1.35,15.1-.2,17.69h-.26l.11.25a4.5,4.5,0,0,1-2.89,2.28,14.89,14.89,0,0,1-3.31-.83c-15.64-6-2.72-37.14,4.12-43.22,7.27-6.47,8.49-3.23,8.49-1.62,0,1.43-8.22,6-7,19.65A38.29,38.29,0,0,0,335.38,92.3Z"/><path class="cls-2" d="M340.23,109.27a12.3,12.3,0,0,1-1.52,1.31c-2.13,1.52-3.18.68-3.68-.36l.15-.24c1.55-2.59,2.63-7.71.2-17.69a38.29,38.29,0,0,1-1-5.81c7.42-7.57,4-14.56,6.64-17.23,2.83-2.83.81,14.14,1.62,21S345.48,104,340.23,109.27Z"/><path class="cls-3" d="M389.82,141.47a2.16,2.16,0,0,1-.7.94,2.43,2.43,0,0,1-.85.46,2.75,2.75,0,0,1-2.62-1,23.91,23.91,0,0,0-2.25-8.16l0,0a18.15,18.15,0,0,0-.3-3.08c-.13-.68-.26-1.34-.4-2C384.94,131.13,391.12,138.14,389.82,141.47Z"/><path class="cls-3" d="M401.25,146a3,3,0,0,1-1.2.82c-2.93,1.18-8.7-.51-11.78-4a2.43,2.43,0,0,0,.85-.46,2.16,2.16,0,0,0,.7-.94c3,.57,10.92,1.79,11.64,3.67A.84.84,0,0,1,401.25,146Z"/><path class="cls-3" d="M411.35,146a4.52,4.52,0,0,1-.24.48c-1.3,2.25-4.33,2.55-11.06.34a3,3,0,0,0,1.2-.82.84.84,0,0,0,.21-.91c2.19-.34,9.48-1.33,10,.34A.83.83,0,0,1,411.35,146Z"/><path class="cls-3" d="M418.62,148.06c-1.94,4.64-.53-.72-7.52-1.54a4.52,4.52,0,0,0,.24-.48.83.83,0,0,0,.06-.56C413.84,145,420.31,144,418.62,148.06Z"/><path class="cls-1" d="M389.93,155.74a2.7,2.7,0,0,1-.58.68,2.08,2.08,0,0,1-2.57,0,6.49,6.49,0,0,1-2.3-2.8h0a31.54,31.54,0,0,0,.42-7.63h0a5.83,5.83,0,0,0,.51-1.33C386.76,146.2,391.68,152.94,389.93,155.74Z"/><path class="cls-1" d="M403.17,172.53c-1.52.71-5.85-3.85-10.41-7.49s-5.71-7.11-6-8.57a2.08,2.08,0,0,0,2.57,0c4.63,2.2,13.7,8.54,14.32,13.46,0,.13,0,.25,0,.37C403.84,171.61,403.64,172.32,403.17,172.53Z"/><path class="cls-1" d="M415,173.6a2.17,2.17,0,0,1,0,.32,1.68,1.68,0,0,1-.84,1.4c-2.21,1.3-8.15-1.05-11-2.8.46-.21.67-.91.54-2.28C405.83,170.09,414.86,169.65,415,173.6Z"/><path class="cls-1" d="M421,179.58c-2,2.83-2.83,2.83-3.64-.4a6.9,6.9,0,0,0-3.27-3.85,1.68,1.68,0,0,0,.84-1.4,2.17,2.17,0,0,0,0-.32C417.21,174.2,422.76,177.19,421,179.58Z"/><path class="cls-3" d="M386.74,173.48c-.36.57-.93.64-1.7.19a6.05,6.05,0,0,1-1.17-.95c-1.24-1.24-1.55-4-1.5-6.62a19,19,0,0,0,1.1-6.31s.17-.87.41-2.2a53.49,53.49,0,0,1,2.82,9.47C387.33,170.42,387.31,172.58,386.74,173.48Z"/><path class="cls-3" d="M394.13,193.65a1.33,1.33,0,0,1-.3.77.33.33,0,0,1-.26.11c-.2,0-.54-.26-1-.73-2.22-2.36-6.9-10-7.91-15-.61-3-.2-4.46.36-5.11.76.45,1.34.39,1.7-.19a61.66,61.66,0,0,1,3.6,6.91C393.44,186.9,394.4,191.75,394.13,193.65Z"/><path class="cls-3" d="M402.38,202.47a1.13,1.13,0,0,1-1.21.23l-.32-.09c-3.93-1.31-6.27-6.34-7-8.2a1.33,1.33,0,0,0,.3-.77C399,193.29,403.7,200.87,402.38,202.47Z"/><path class="cls-3" d="M405.69,209.49c-4,3.64-2.83-1.21-2.83-2.83,0-1.2-1.56-3.07-1.7-4a1.13,1.13,0,0,0,1.21-.23C404.33,203.37,409.09,206.43,405.69,209.49Z"/><path class="cls-3" d="M353.52,169a8,8,0,0,1-1.82,4.19c-.54.59-1.12.88-1.59.7-.77-.31-1.29-1.9-1-5.59.44-5.43,1.45-6.43,2.3-6.18A16.69,16.69,0,0,0,353.52,169Z"/><path class="cls-3" d="M342.07,195.42a1.16,1.16,0,0,1-.86-.6,2.05,2.05,0,0,1-.17-.29c-2.8-5.6,6.53-17.58,9.08-20.67.48.19,1.05-.11,1.59-.7C353.32,175.57,345.72,195.79,342.07,195.42Z"/><path class="cls-3" d="M342.07,195.42c0,2.36-3.65,6-6.08,6.58a1.51,1.51,0,0,1-1.82-.6.4.4,0,0,1,0-.08c-1.17-2.37,5-5.53,7.08-6.49A1.16,1.16,0,0,0,342.07,195.42Z"/><path class="cls-3" d="M336,202a20.53,20.53,0,0,0-1.82,4.25c-.81,2.83-.81,5.25-3.23,2-2-2.69,1.84-5.94,3.19-7a.4.4,0,0,0,0,.08A1.51,1.51,0,0,0,336,202Z"/><path class="cls-1" d="M351.46,154.83h0a6.44,6.44,0,0,1-2.45,2.59,1.09,1.09,0,0,1-1.37-.48,7.65,7.65,0,0,1-.95-3.22c-.67-5.07,3.73-9,5.2-10.16,0,1.69.06,2.89.06,2.89l.06,0A46.22,46.22,0,0,0,351.46,154.83Z"/><path class="cls-1" d="M333.48,171.72a1.33,1.33,0,0,1-.93-.62,1.67,1.67,0,0,1-.19-1.2c.71-4,12.35-11.21,15.28-13a1.09,1.09,0,0,0,1.37.48C350.47,161.49,337.53,172.57,333.48,171.72Z"/><path class="cls-1" d="M333.48,171.72c-.58.52-7.3,4-10.69,3.2a2.31,2.31,0,0,1-1.55-1,1.37,1.37,0,0,1-.14-.28c-1-2.78,9.71-3.64,11.27-3.75a1.67,1.67,0,0,0,.19,1.2A1.33,1.33,0,0,0,333.48,171.72Z"/><path class="cls-1" d="M322.79,174.92a29.58,29.58,0,0,0-2.36,4.66c-.81,1.62-2-.81-2.83-3.23-.59-1.76,2-2.46,3.5-2.7a1.37,1.37,0,0,0,.14.28A2.31,2.31,0,0,0,322.79,174.92Z"/><path class="cls-3" d="M380.21,169.87a29.07,29.07,0,0,1-4.82,8.9,12,12,0,0,1-5.51,3.53,13.69,13.69,0,0,1-7,.54,8.27,8.27,0,0,1-4.45-2.45c-2.75-3-3.64-7.25-3.92-10a8.65,8.65,0,0,0,.69.75C358.54,174.33,373.5,177.91,380.21,169.87Z"/><path class="cls-2" d="M363.67,113.72a2.42,2.42,0,1,1-2.42-2.42,2.38,2.38,0,0,1,1.34.4A2.42,2.42,0,0,1,363.67,113.72Z"/><path class="cls-3" d="M377,113.72a1.57,1.57,0,0,1-.17.72,1.61,1.61,0,1,1-2-2.23,1.58,1.58,0,0,1,.59-.11A1.62,1.62,0,0,1,377,113.72Z"/><path class="cls-3" d="M384.49,153.66h0c-.2,1.45-.43,2.83-.62,3.92-.23,1.33-.41,2.2-.41,2.2l-.54.38c-8.84,5.86-30.06.61-31-1.19a3.58,3.58,0,0,1-.27-1s0,0,0,0a23.85,23.85,0,0,1-.21-3.1h0a46.22,46.22,0,0,1,.54-8.35c.44.22.88.42,1.33.61.77.34,1.56.63,2.34.89,6.78,2.25,13.93,1.91,19.43,1a55.22,55.22,0,0,0,8.44-2.11c.73-.25,1.14-.41,1.14-.41a4.06,4.06,0,0,0,.23-.41A31.54,31.54,0,0,1,384.49,153.66Z"/><path class="cls-2" d="M383.47,159.78a19,19,0,0,1-1.1,6.31,12.87,12.87,0,0,1-2.16,3.78c-6.7,8-21.66,4.46-25,1.22a8.65,8.65,0,0,1-.69-.75h0a10.26,10.26,0,0,1-1-1.37,16.69,16.69,0,0,1-2.11-6.89,11.17,11.17,0,0,1,.26-4.15,3.58,3.58,0,0,0,.27,1c.92,1.8,22.14,7.05,31,1.19Z"/><path class="cls-1" d="M383.37,133.77c-.56.32-1.13.61-1.7.88-10.72,5-22.74,1.05-27.16-.76-.81-.33-1.36-.59-1.61-.71.09-1,.21-2,.34-3a38.55,38.55,0,0,1,2.7-10.1L356,120l.05-.11.09-.19.06-.13a22.15,22.15,0,0,1,2.9-4.68,2.43,2.43,0,1,0,3.47-3.18,12,12,0,0,1,6.54-2.22s2.61-.06,5.68,2.74a1.61,1.61,0,1,0,2,2.23l.52.7a31.23,31.23,0,0,1,3.94,8.33h0c.5,1.56,1,3.3,1.38,5.23.14.64.27,1.3.4,2A18.15,18.15,0,0,1,383.37,133.77Z"/><path class="cls-2" d="M385.41,144.71a5.83,5.83,0,0,1-.51,1.33h0a4.06,4.06,0,0,1-.23.41s-.4.16-1.14.41a55.22,55.22,0,0,1-8.44,2.11c-5.5.93-12.65,1.27-19.43-1-.79-.26-1.57-.56-2.34-.89-.44-.19-.88-.4-1.33-.61l-.06,0s0-1.2-.06-2.89h0c0-.91,0-2,0-3l-.07.06,1.1-7.37c.25.12.8.38,1.59.7,4.42,1.81,16.44,5.79,27.16.76.57-.27,1.14-.56,1.7-.88l0,0a23.91,23.91,0,0,1,2.25,8.16A9.43,9.43,0,0,1,385.41,144.71Z"/><path class="cls-3" d="M352.9,133.18h0l-1.1,7.37a6.09,6.09,0,0,1-1.32.81c-1.18.53-2.31.47-2.74-.61a1.67,1.67,0,0,1-.06-.17,5.84,5.84,0,0,1,.2-3,11.5,11.5,0,0,1,5.34-7.33C353.11,131.17,353,132.15,352.9,133.18Z"/><path class="cls-3" d="M350.5,141.38c-1.75,3.13-11.54,6.53-14.41,5.31a1.26,1.26,0,0,1-.71-.64c-.22-.51.07-1,.68-1.5,2.28-1.81,9.06-3.39,11.64-3.95a1.67,1.67,0,0,0,.06.17C348.19,141.85,349.32,141.9,350.5,141.38Z"/><path class="cls-3" d="M336.09,146.68c-2.54.82-7.79,1.36-10.2-.27a2.85,2.85,0,0,1-1-1.18,1.31,1.31,0,0,1-.12-.4c-.33-2.4,8-1,11.31-.29-.61.49-.9,1-.68,1.5A1.26,1.26,0,0,0,336.09,146.68Z"/><path class="cls-3" d="M325.89,146.41c-1.08.39-2.8,1-3.85,1.25-1.62.4-.81,2.83-3.23,0-2.06-2.41,4.08-2.77,5.94-2.82a1.31,1.31,0,0,0,.12.4A2.85,2.85,0,0,0,325.89,146.41Z"/><path class="cls-2" d="M354.56,384.14a12.3,12.3,0,0,1-1.74,1c-2.38,1.08-3.25.06-3.54-1.06l.19-.21c2-2.24-.48.88-1-9.38-.1-2.16,4.5-12.06,4.69-13.83,8.73-6,6.67-13.53,9.81-15.64,3.32-2.24-1.91,14-2.43,20.93S360.72,380,354.56,384.14Z"/><path class="cls-2" d="M417.5,374.5c0,6.89-8.24,5-2.68,11.2.13.15.27.3.42.44-.36,1.19-.81,1.95-1.39,2a3.58,3.58,0,0,1-1.94-.39c-3.5-1.57-8.33-7.29-7.19-10.86,1.37-4.31-6.47-41.12.5-25.44,4,9.1,12.33,23.6,14.28,25Z"/><path class="cls-1" d="M386.61,478.1c-1.12-2.31-2.92-3.37-5.71-2.08-.55.25-1.82,2.44-2.8,5.72l0-.06c-6.34-16-3.2-23.22-1.21-25.83a13.69,13.69,0,0,0,7-.54c1.6,1.65,2.67,4.46,3.08,7.38A84.06,84.06,0,0,1,386.61,478.1Z"/><path class="cls-2" d="M387.79,498.88c-2.35-.89-5.05-.19-6.13,6.62a17.47,17.47,0,0,1-3.18-5.64c-2.61-6.63-1.78-13.47-.38-18.12h0c1-3.28,2.26-5.47,2.8-5.72,2.8-1.29,4.59-.23,5.71,2.08C388.94,482.91,388.35,493.15,387.79,498.88Z"/><path class="cls-1" d="M396,517.39c-1.75,0-3.75.78-4.58,3.89a12.92,12.92,0,0,0-.65,5.21c-2.4-.26-10.51-2.28-9.46-17.74.08-1.21.2-2.29.36-3.25,1.08-6.81,3.79-7.52,6.13-6.62a11.9,11.9,0,0,1,4,3s2.83,4.85,4,14.14C395.91,516.5,396,517,396,517.39Z"/><path class="cls-2" d="M410.8,533.42c-2.53,1.6-8.81.09-14.14-2-3.79-1.52-5.53-2.72-5.9-4.89a12.92,12.92,0,0,1,.65-5.21c.83-3.11,2.83-3.88,4.58-3.89a8,8,0,0,1,3.1.66c6.4.64,10,2.61,11.8,4.94a9.56,9.56,0,0,0-1.7,5.57C409.33,531.24,409.91,532.73,410.8,533.42Z"/><path class="cls-1" d="M418.08,531.38c-2.89,1.84-5.61,3.34-7.27,2-.89-.69-1.47-2.19-1.62-4.87a9.56,9.56,0,0,1,1.7-5.57c3.25-5.14,10-9,10-9a6.57,6.57,0,0,1,1.19-1.88,7.92,7.92,0,0,0,5.68,1.88,5.13,5.13,0,0,0,2.75-.95C435.08,518.2,422.33,528.67,418.08,531.38Z"/><path class="cls-3" d="M430.53,513.06a5.13,5.13,0,0,1-2.75.95,7.92,7.92,0,0,1-5.68-1.88c-2-1.52-3.7-3.5-6.44-4.18-4.85-1.21-9.29-1.21-8.49-10.1,0,0,2,8.08,8.08,7.68s13.34-6.06,15.76-2.42C432.94,506,433.33,511,430.53,513.06Z"/><path class="cls-2" d="M399.89,397.63a5.6,5.6,0,0,0,.2,1.47,12.69,12.69,0,0,1-4.8-2.62h0a31.23,31.23,0,0,0-3.94-8.33,10.79,10.79,0,0,1,1.27-4.26c3.75-7.18,9.42,2.27,11.8,6.95C401.88,392.92,399.89,395.3,399.89,397.63Z"/><path class="cls-3" d="M419.91,388.34c-8.53,18.92-18.34,16.32-19.82,10.77a5.6,5.6,0,0,1-.2-1.47c0-2.32,2-4.7,4.53-6.79a47.5,47.5,0,0,1,7.35-4.8,3.58,3.58,0,0,0,1.85.68c.58,0,1.15-.68,1.69-1.8a16,16,0,0,0,1.95,2.2A4,4,0,0,0,419.91,388.34Z"/><path class="cls-1" d="M416.92,390a4,4,0,0,1-2.08-2,16,16,0,0,1-1.09-2.73c-.06-.2-.11-.4-.16-.59-1.92-8.07,6-11.79,9.28-17.84h0c3.73-6.81,1-17.22.64-22.09s4.21.23,4.21.23C443.54,368.8,424.64,393.1,416.92,390Z"/><path class="cls-2" d="M371.21,392.55l-.06.13-.09.19L371,393l-.07.15c-2.33,5.13-5.56,7-8.19,6.75a4.06,4.06,0,0,0,1.77-1.85,23.05,23.05,0,0,0-4.42-10c3.52-6.45,9.23-7.56,12.1-6.13S372.17,390.37,371.21,392.55Z"/><path class="cls-3" d="M364.52,398a4.06,4.06,0,0,1-1.77,1.85c-6.43,3.36-22.75-10.31-18.92-15.21a14.89,14.89,0,0,0,3.31.83,4.5,4.5,0,0,0,2.89-2.28c.51,1,1.55,1.88,3.68.36A13.26,13.26,0,0,1,360.1,388,23.05,23.05,0,0,1,364.52,398Z"/><path class="cls-1" d="M339.87,366.88c8.28,6.07,10.75,10.69,11.23,13.67l-.2.16.24.12a4.5,4.5,0,0,1-.74,3.6,14.89,14.89,0,0,1-3.07,1.5c-15.85,5.44-26-26.68-24.65-35.74,1.41-9.63,4.42-7.93,5.46-6.7s-2.42,9.9,7.25,19.57A38.29,38.29,0,0,0,339.87,366.88Z"/><path class="cls-3" d="M403.82,414.47a2.16,2.16,0,0,1-.7.94,2.43,2.43,0,0,1-.85.46,2.75,2.75,0,0,1-2.62-1,23.91,23.91,0,0,0-2.25-8.16l0,0a18.15,18.15,0,0,0-.3-3.08c-.13-.68-.26-1.34-.4-2C398.94,404.13,405.12,411.14,403.82,414.47Z"/><path class="cls-3" d="M415.25,419a3,3,0,0,1-1.2.82c-2.93,1.18-8.7-.51-11.78-4a2.43,2.43,0,0,0,.85-.46,2.16,2.16,0,0,0,.7-.94c3,.57,10.92,1.79,11.64,3.67A.84.84,0,0,1,415.25,419Z"/><path class="cls-3" d="M425.35,419a4.52,4.52,0,0,1-.24.48c-1.3,2.25-4.33,2.55-11.06.34a3,3,0,0,0,1.2-.82.84.84,0,0,0,.21-.91c2.19-.34,9.48-1.33,10,.34A.83.83,0,0,1,425.35,419Z"/><path class="cls-3" d="M432.62,421.06c-1.94,4.64-.53-.72-7.52-1.54a4.52,4.52,0,0,0,.24-.48.83.83,0,0,0,.06-.56C427.84,418,434.31,417,432.62,421.06Z"/><path class="cls-1" d="M403.93,428.74a2.7,2.7,0,0,1-.58.68,2.08,2.08,0,0,1-2.57,0,6.49,6.49,0,0,1-2.3-2.8h0a31.54,31.54,0,0,0,.42-7.63h0a5.83,5.83,0,0,0,.51-1.33C400.76,419.2,405.68,425.94,403.93,428.74Z"/><path class="cls-1" d="M417.17,445.53c-1.52.71-5.85-3.85-10.41-7.49s-5.71-7.11-6-8.57a2.08,2.08,0,0,0,2.57,0c4.63,2.2,13.7,8.54,14.32,13.46,0,.13,0,.25,0,.37C417.84,444.61,417.64,445.32,417.17,445.53Z"/><path class="cls-1" d="M429,446.6a2.17,2.17,0,0,1,0,.32,1.68,1.68,0,0,1-.84,1.4c-2.21,1.3-8.15-1.05-11-2.8.46-.21.67-.91.54-2.28C419.83,443.09,428.86,442.65,429,446.6Z"/><path class="cls-1" d="M435,452.58c-2,2.83-2.83,2.83-3.64-.4a6.9,6.9,0,0,0-3.27-3.85,1.68,1.68,0,0,0,.84-1.4,2.17,2.17,0,0,0,0-.32C431.21,447.2,436.76,450.19,435,452.58Z"/><path class="cls-3" d="M400.74,446.48c-.36.57-.93.64-1.7.19a6.05,6.05,0,0,1-1.17-.95c-1.24-1.24-1.55-4-1.5-6.62a19,19,0,0,0,1.1-6.31s.17-.87.41-2.2a53.49,53.49,0,0,1,2.82,9.47C401.33,443.42,401.31,445.58,400.74,446.48Z"/><path class="cls-3" d="M408.13,466.65a1.33,1.33,0,0,1-.3.77.33.33,0,0,1-.26.11c-.2,0-.54-.26-1-.73-2.22-2.36-6.9-10-7.91-15-.61-3-.2-4.46.36-5.11.76.45,1.34.39,1.7-.19a61.66,61.66,0,0,1,3.6,6.91C407.44,459.9,408.4,464.75,408.13,466.65Z"/><path class="cls-3" d="M416.38,475.47a1.13,1.13,0,0,1-1.21.23l-.32-.09c-3.93-1.31-6.27-6.34-7-8.2a1.33,1.33,0,0,0,.3-.77C413,466.29,417.7,473.87,416.38,475.47Z"/><path class="cls-3" d="M419.69,482.49c-4,3.64-2.83-1.21-2.83-2.83,0-1.2-1.56-3.07-1.7-4a1.13,1.13,0,0,0,1.21-.23C418.33,476.37,423.09,479.43,419.69,482.49Z"/><path class="cls-3" d="M367.52,442a8,8,0,0,1-1.82,4.19c-.54.59-1.12.88-1.59.7-.77-.31-1.29-1.9-1-5.59.44-5.43,1.45-6.43,2.3-6.18A16.69,16.69,0,0,0,367.52,442Z"/><path class="cls-3" d="M356.07,468.42a1.16,1.16,0,0,1-.86-.6,2.05,2.05,0,0,1-.17-.29c-2.8-5.6,6.53-17.58,9.08-20.67.48.19,1.05-.11,1.59-.7C367.32,448.57,359.72,468.79,356.07,468.42Z"/><path class="cls-3" d="M356.07,468.42c0,2.36-3.65,6-6.08,6.58a1.51,1.51,0,0,1-1.82-.6.4.4,0,0,1,0-.08c-1.17-2.37,5-5.53,7.08-6.49A1.16,1.16,0,0,0,356.07,468.42Z"/><path class="cls-3" d="M350,475a20.53,20.53,0,0,0-1.82,4.25c-.81,2.83-.81,5.25-3.23,2-2-2.69,1.84-5.94,3.19-7a.4.4,0,0,0,0,.08A1.51,1.51,0,0,0,350,475Z"/><path class="cls-1" d="M365.46,427.83h0a6.44,6.44,0,0,1-2.45,2.59,1.09,1.09,0,0,1-1.37-.48,7.65,7.65,0,0,1-.95-3.22c-.67-5.07,3.73-9,5.2-10.16,0,1.69.06,2.89.06,2.89l.06,0A46.22,46.22,0,0,0,365.46,427.83Z"/><path class="cls-1" d="M347.48,444.72a1.33,1.33,0,0,1-.93-.62,1.67,1.67,0,0,1-.19-1.2c.71-4,12.35-11.21,15.28-13a1.09,1.09,0,0,0,1.37.48C364.47,434.49,351.53,445.57,347.48,444.72Z"/><path class="cls-1" d="M347.48,444.72c-.58.52-7.3,4-10.69,3.2a2.31,2.31,0,0,1-1.55-1,1.37,1.37,0,0,1-.14-.28c-1-2.78,9.71-3.64,11.27-3.75a1.67,1.67,0,0,0,.19,1.2A1.33,1.33,0,0,0,347.48,444.72Z"/><path class="cls-1" d="M336.79,447.92a29.58,29.58,0,0,0-2.36,4.66c-.81,1.62-2-.81-2.83-3.23-.59-1.76,2-2.46,3.5-2.7a1.37,1.37,0,0,0,.14.28A2.31,2.31,0,0,0,336.79,447.92Z"/><path class="cls-3" d="M394.21,442.87a29.07,29.07,0,0,1-4.82,8.9,12,12,0,0,1-5.51,3.53,13.69,13.69,0,0,1-7,.54,8.27,8.27,0,0,1-4.45-2.45c-2.75-3-3.64-7.25-3.92-10a8.65,8.65,0,0,0,.69.75C372.54,447.33,387.5,450.91,394.21,442.87Z"/><path class="cls-2" d="M377.67,386.72a2.42,2.42,0,1,1-2.42-2.42,2.38,2.38,0,0,1,1.34.4A2.42,2.42,0,0,1,377.67,386.72Z"/><path class="cls-3" d="M391,386.72a1.57,1.57,0,0,1-.17.72,1.61,1.61,0,1,1-2-2.23,1.58,1.58,0,0,1,.59-.11A1.62,1.62,0,0,1,391,386.72Z"/><path class="cls-3" d="M398.49,426.66h0c-.2,1.45-.43,2.83-.62,3.92-.23,1.33-.41,2.2-.41,2.2l-.54.38c-8.84,5.86-30.06.61-31-1.19a3.58,3.58,0,0,1-.27-1s0,0,0,0a23.85,23.85,0,0,1-.21-3.1h0a46.22,46.22,0,0,1,.54-8.35c.44.22.88.42,1.33.61.77.34,1.56.63,2.34.89,6.78,2.25,13.93,1.91,19.43,1a55.22,55.22,0,0,0,8.44-2.11c.73-.25,1.14-.41,1.14-.41a4.06,4.06,0,0,0,.23-.41A31.54,31.54,0,0,1,398.49,426.66Z"/><path class="cls-2" d="M397.47,432.78a19,19,0,0,1-1.1,6.31,12.87,12.87,0,0,1-2.16,3.78c-6.7,8-21.66,4.46-25,1.22a8.65,8.65,0,0,1-.69-.75h0a10.26,10.26,0,0,1-1-1.37,16.69,16.69,0,0,1-2.11-6.89,11.17,11.17,0,0,1,.26-4.15,3.58,3.58,0,0,0,.27,1c.92,1.8,22.14,7.05,31,1.19Z"/><path class="cls-1" d="M397.37,406.77c-.56.32-1.13.61-1.7.88-10.72,5-22.74,1.05-27.16-.76-.81-.33-1.36-.59-1.61-.71.09-1,.21-2,.34-3a38.55,38.55,0,0,1,2.7-10.1L370,393l.05-.11.09-.19.06-.13a22.15,22.15,0,0,1,2.9-4.68,2.43,2.43,0,1,0,3.47-3.18,12,12,0,0,1,6.54-2.22s2.61-.06,5.68,2.74a1.61,1.61,0,1,0,2,2.23l.52.7a31.23,31.23,0,0,1,3.94,8.33h0c.5,1.56,1,3.3,1.38,5.23.14.64.27,1.3.4,2A18.15,18.15,0,0,1,397.37,406.77Z"/><path class="cls-2" d="M399.41,417.71a5.83,5.83,0,0,1-.51,1.33h0a4.06,4.06,0,0,1-.23.41s-.4.16-1.14.41a55.22,55.22,0,0,1-8.44,2.11c-5.5.93-12.65,1.27-19.43-1-.79-.26-1.57-.56-2.34-.89-.44-.19-.88-.4-1.33-.61l-.06,0s0-1.2-.06-2.89h0c0-.91,0-2,0-3l-.07.06,1.1-7.37c.25.12.8.38,1.59.7,4.42,1.81,16.44,5.79,27.16.76.57-.27,1.14-.56,1.7-.88l0,0a23.91,23.91,0,0,1,2.25,8.16A9.43,9.43,0,0,1,399.41,417.71Z"/><path class="cls-3" d="M366.9,406.18h0l-1.1,7.37a6.09,6.09,0,0,1-1.32.81c-1.18.53-2.31.47-2.74-.61a1.67,1.67,0,0,1-.06-.17,5.84,5.84,0,0,1,.2-3,11.5,11.5,0,0,1,5.34-7.33C367.11,404.17,367,405.15,366.9,406.18Z"/><path class="cls-3" d="M364.5,414.38c-1.75,3.13-11.54,6.53-14.41,5.31a1.26,1.26,0,0,1-.71-.64c-.22-.51.07-1,.68-1.5,2.28-1.81,9.06-3.39,11.64-3.95a1.67,1.67,0,0,0,.06.17C362.19,414.85,363.32,414.9,364.5,414.38Z"/><path class="cls-3" d="M350.09,419.68c-2.54.82-7.79,1.36-10.2-.27a2.85,2.85,0,0,1-1-1.18,1.31,1.31,0,0,1-.12-.4c-.33-2.4,8-1,11.31-.29-.61.49-.9,1-.68,1.5A1.26,1.26,0,0,0,350.09,419.68Z"/><path class="cls-3" d="M339.89,419.41c-1.08.39-2.8,1-3.85,1.25-1.62.4-.81,2.83-3.23,0-2.06-2.41,4.08-2.77,5.94-2.82a1.31,1.31,0,0,0,.12.4A2.85,2.85,0,0,0,339.89,419.41Z"/><path class="cls-1" d="M113.11,201.68c1.12-2.31,2.92-3.37,5.71-2.08.55.25,1.82,2.44,2.8,5.72l0-.06c6.34-16,3.2-23.22,1.21-25.83a13.69,13.69,0,0,1-7-.54c-1.6,1.65-2.67,4.46-3.08,7.38A84.06,84.06,0,0,0,113.11,201.68Z"/><path class="cls-2" d="M111.93,222.46c2.35-.89,5.05-.19,6.13,6.62a17.47,17.47,0,0,0,3.18-5.64c2.61-6.63,1.78-13.47.38-18.12h0c-1-3.28-2.26-5.47-2.8-5.72-2.8-1.29-4.59-.23-5.71,2.08C110.78,206.48,111.37,216.72,111.93,222.46Z"/><path class="cls-1" d="M103.73,241c1.75,0,3.75.78,4.58,3.89a12.92,12.92,0,0,1,.65,5.21c2.4-.26,10.51-2.28,9.46-17.74-.08-1.21-.2-2.29-.36-3.25-1.08-6.81-3.79-7.52-6.13-6.62a11.9,11.9,0,0,0-4,3s-2.83,4.85-4,14.14C103.81,240.08,103.76,240.53,103.73,241Z"/><path class="cls-2" d="M88.92,257c2.53,1.6,8.81.09,14.14-2,3.79-1.52,5.53-2.72,5.9-4.89a12.92,12.92,0,0,0-.65-5.21c-.83-3.11-2.83-3.88-4.58-3.89a8,8,0,0,0-3.1.66c-6.4.64-10,2.61-11.8,4.94a9.56,9.56,0,0,1,1.7,5.57C90.39,254.81,89.81,256.31,88.92,257Z"/><path class="cls-1" d="M81.65,255c2.89,1.84,5.61,3.34,7.27,2,.89-.69,1.47-2.19,1.62-4.87a9.56,9.56,0,0,0-1.7-5.57c-3.25-5.14-10-9-10-9a6.57,6.57,0,0,0-1.19-1.88,7.92,7.92,0,0,1-5.68,1.88,5.13,5.13,0,0,1-2.75-.95C64.64,241.78,77.39,252.25,81.65,255Z"/><path class="cls-3" d="M69.2,236.63a5.13,5.13,0,0,0,2.75.95,7.92,7.92,0,0,0,5.68-1.88c2-1.52,3.7-3.5,6.44-4.18,4.85-1.21,9.29-1.21,8.49-10.1,0,0-2,8.08-8.08,7.68S71.14,223,68.71,226.67C66.78,229.58,66.39,234.55,69.2,236.63Z"/><path class="cls-2" d="M139.3,122.18a5.6,5.6,0,0,0,.2,1.47,12.69,12.69,0,0,1-4.8-2.62h0a31.23,31.23,0,0,0-3.94-8.33,10.79,10.79,0,0,1,1.27-4.26c3.75-7.18,9.42,2.27,11.8,6.95C141.28,117.48,139.3,119.86,139.3,122.18Z"/><path class="cls-3" d="M159.32,112.89c-8.53,18.92-18.34,16.32-19.82,10.77a5.6,5.6,0,0,1-.2-1.47c0-2.32,2-4.7,4.53-6.79a47.5,47.5,0,0,1,7.35-4.8,3.58,3.58,0,0,0,1.85.68c.58,0,1.15-.68,1.69-1.8a16,16,0,0,0,1.95,2.2A4,4,0,0,0,159.32,112.89Z"/><path class="cls-1" d="M159.32,112.89a4,4,0,0,1-2.65-1.22,16,16,0,0,1-1.95-2.2c-.13-.17-.24-.34-.35-.5C149.85,102,156,95.86,157.08,89h0c1.2-7.67-4.85-16.56-6.87-21s4-1.21,4-1.21C177.2,83.94,167.64,113.2,159.32,112.89Z"/><path class="cls-2" d="M157.08,89c-1.07,6.81-7.23,13-2.7,19.93.11.17.22.34.35.5-.54,1.12-1.11,1.8-1.69,1.8a3.58,3.58,0,0,1-1.85-.68c-3.22-2.09-7.09-8.49-5.42-11.84,2-4,0-41.62,4.45-25.05,2.58,9.62,5.16,13.65,6.87,15.34Z"/><path class="cls-2" d="M109.62,117.1l-.06.13-.09.19-.05.11-.07.15c-2.33,5.13-5.56,7-8.19,6.75a4.06,4.06,0,0,0,1.77-1.85,23.05,23.05,0,0,0-4.42-10c3.52-6.45,9.23-7.56,12.1-6.13S110.58,114.93,109.62,117.1Z"/><path class="cls-3" d="M102.93,122.59a4.06,4.06,0,0,1-1.77,1.85c-6.43,3.36-22.75-10.31-18.92-15.21a14.89,14.89,0,0,0,3.31.83,4.5,4.5,0,0,0,2.89-2.28c.51,1,1.55,1.88,3.68.36a13.26,13.26,0,0,1,6.39,4.41A23.05,23.05,0,0,1,102.93,122.59Z"/><path class="cls-1" d="M88.79,89.86c2.44,10,1.35,15.1-.2,17.69h-.26l.11.25a4.5,4.5,0,0,1-2.89,2.28,14.89,14.89,0,0,1-3.31-.83C66.6,103.2,79.52,72.1,86.36,66c7.27-6.47,8.49-3.23,8.49-1.62,0,1.43-8.22,6-7,19.65A38.29,38.29,0,0,0,88.79,89.86Z"/><path class="cls-2" d="M93.64,106.83a12.3,12.3,0,0,1-1.52,1.31c-2.13,1.52-3.18.68-3.68-.36l.15-.24c1.55-2.59,2.63-7.71.2-17.69a38.29,38.29,0,0,1-1-5.81c7.42-7.57,4-14.56,6.64-17.23,2.83-2.83.81,14.14,1.62,21S98.89,101.57,93.64,106.83Z"/><path class="cls-3" d="M143.23,139a2.16,2.16,0,0,1-.7.94,2.43,2.43,0,0,1-.85.46,2.75,2.75,0,0,1-2.62-1,23.91,23.91,0,0,0-2.25-8.16l0,0a18.15,18.15,0,0,0-.3-3.08c-.13-.68-.26-1.34-.4-2C138.35,128.69,144.52,135.7,143.23,139Z"/><path class="cls-3" d="M154.66,143.6a3,3,0,0,1-1.2.82c-2.93,1.18-8.7-.51-11.78-4a2.43,2.43,0,0,0,.85-.46,2.16,2.16,0,0,0,.7-.94c3,.57,10.92,1.79,11.64,3.67A.84.84,0,0,1,154.66,143.6Z"/><path class="cls-3" d="M163.76,139.61a4.52,4.52,0,0,1-.07.54c-.48,2.55-3.23,3.85-10.31,4a3,3,0,0,0,.85-1.17.84.84,0,0,0-.1-.92c2-1.05,8.49-4.42,9.5-3A.83.83,0,0,1,163.76,139.61Z"/><path class="cls-3" d="M171.29,139.09c-.27,5-.74-.5-7.6,1.06a4.52,4.52,0,0,0,.07-.54.83.83,0,0,0-.13-.55C165.77,137.83,171.53,134.71,171.29,139.09Z"/><path class="cls-1" d="M169.79,164.66a2.17,2.17,0,0,1,.12.3,1.68,1.68,0,0,1-.25,1.62c-1.55,2-7.95,2.11-11.22,1.57.35-.37.27-1.1-.36-2.31C160,164.88,168.17,161.05,169.79,164.66Z"/><path class="cls-1" d="M177.66,167.9c-.8,3.38-1.55,3.69-3.52,1a6.9,6.9,0,0,0-4.48-2.33,1.68,1.68,0,0,0,.25-1.62,2.17,2.17,0,0,0-.12-.3C172.07,164.37,178.34,165,177.66,167.9Z"/><path class="cls-1" d="M143.51,153.47a2.7,2.7,0,0,1-.49.74,2.08,2.08,0,0,1-2.54.36,6.49,6.49,0,0,1-2.62-2.5h0a31.54,31.54,0,0,0-.52-7.62h0a5.83,5.83,0,0,0,.34-1.38C139.19,144.39,144.9,150.48,143.51,153.47Z"/><path class="cls-1" d="M158.7,168.52c-1.43.89-6.28-3.1-11.25-6.16s-6.53-6.36-7-7.77a2.08,2.08,0,0,0,2.54-.36c4.87,1.62,14.64,6.8,15.86,11.61,0,.13.06.25.08.36C159.25,167.53,159.13,168.25,158.7,168.52Z"/><path class="cls-3" d="M161.71,193.46c0,.35-.27.67-.83.92l-.31.12c-3.92,1.33-8.82-1.27-10.54-2.29a1.33,1.33,0,0,0-.23-.8C153.5,188.17,161.8,191.39,161.71,193.46Z"/><path class="cls-3" d="M168.59,197.05c-1,5.34-3,.74-4-.55-.72-1-3.1-1.51-3.74-2.12.56-.25.81-.57.83-.92C163.81,193,169.45,192.57,168.59,197.05Z"/><path class="cls-3" d="M140.79,173.12c-.28.61-.84.75-1.66.4a6.05,6.05,0,0,1-1.28-.79c-1.39-1.07-2-3.73-2.34-6.38a19,19,0,0,0,.28-6.4s.06-.89.12-2.23a53.49,53.49,0,0,1,4,9C141,170,141.24,172.15,140.79,173.12Z"/><path class="cls-3" d="M150.71,192.17a1.33,1.33,0,0,1-.2.8.33.33,0,0,1-.24.15c-.2,0-.57-.19-1.06-.6-2.5-2.06-8.12-9-9.78-13.89-1-2.94-.77-4.39-.3-5.12.82.35,1.38.21,1.66-.4a61.66,61.66,0,0,1,4.46,6.39C149.16,185.57,150.74,190.25,150.71,192.17Z"/><path class="cls-3" d="M95.85,192.94c-.5,2.31-4.87,5.08-7.36,5.1a1.51,1.51,0,0,1-1.65-1,.4.4,0,0,1,0-.09c-.63-2.56,6.12-4.31,8.32-4.8A1.16,1.16,0,0,0,95.85,192.94Z"/><path class="cls-3" d="M88.49,198a20.53,20.53,0,0,0-2.7,3.75c-1.4,2.59-1.93,5-3.59,1.27-1.39-3.06,3.09-5.4,4.62-6.1a.4.4,0,0,0,0,.09A1.51,1.51,0,0,0,88.49,198Z"/><path class="cls-3" d="M106.93,166.54a8,8,0,0,1-1.82,4.19c-.54.59-1.12.88-1.59.7-.77-.31-1.29-1.9-1-5.59.44-5.43,1.45-6.43,2.3-6.18A16.69,16.69,0,0,0,106.93,166.54Z"/><path class="cls-3" d="M95.48,193a1.16,1.16,0,0,1-.86-.6,2.05,2.05,0,0,1-.17-.29c-2.8-5.6,6.53-17.58,9.08-20.67.48.19,1.05-.11,1.59-.7C106.73,173.13,99.12,193.34,95.48,193Z"/><path class="cls-1" d="M86.25,168.52c-.67.39-7.95,2.4-11.12,1a2.31,2.31,0,0,1-1.32-1.29,1.37,1.37,0,0,1-.08-.3c-.45-2.94,10.25-1.6,11.79-1.39a1.67,1.67,0,0,0-.06,1.21A1.33,1.33,0,0,0,86.25,168.52Z"/><path class="cls-1" d="M75.14,169.5a29.58,29.58,0,0,0-3.25,4.09c-1.12,1.42-1.82-1.2-2.12-3.74-.22-1.84,2.48-2,4-1.94a1.37,1.37,0,0,0,.08.3A2.31,2.31,0,0,0,75.14,169.5Z"/><path class="cls-1" d="M104.71,153.22h0a6.44,6.44,0,0,1-2.57,2.47,1.09,1.09,0,0,1-1.34-.55,7.65,7.65,0,0,1-.79-3.26c-.42-5.09,4.18-8.81,5.69-9.89-.06,1.68-.09,2.88-.09,2.88l.06,0A46.22,46.22,0,0,0,104.71,153.22Z"/><path class="cls-1" d="M85.91,169.2a1.33,1.33,0,0,1-.89-.67,1.67,1.67,0,0,1-.13-1.21c.91-4,12.89-10.58,15.9-12.18a1.09,1.09,0,0,0,1.34.55C103.39,159.83,89.91,170.25,85.91,169.2Z"/><path class="cls-3" d="M133.61,167.43a29.07,29.07,0,0,1-4.82,8.9,12,12,0,0,1-5.51,3.53,13.69,13.69,0,0,1-7,.54,8.27,8.27,0,0,1-4.45-2.45c-2.75-3-3.64-7.25-3.92-10a8.65,8.65,0,0,0,.69.75C112,171.89,126.91,175.46,133.61,167.43Z"/><path class="cls-2" d="M117.07,111.27a2.42,2.42,0,1,1-2.42-2.42,2.38,2.38,0,0,1,1.34.4A2.42,2.42,0,0,1,117.07,111.27Z"/><path class="cls-3" d="M130.41,111.27a1.57,1.57,0,0,1-.17.72,1.61,1.61,0,1,1-2-2.23,1.58,1.58,0,0,1,.59-.11A1.62,1.62,0,0,1,130.41,111.27Z"/><path class="cls-3" d="M137.9,151.22h0c-.2,1.45-.43,2.83-.62,3.92-.23,1.33-.41,2.2-.41,2.2l-.54.38c-8.84,5.86-30.06.61-31-1.19a3.58,3.58,0,0,1-.27-1s0,0,0,0a23.85,23.85,0,0,1-.21-3.1h0a46.22,46.22,0,0,1,.54-8.35c.44.22.88.42,1.33.61.77.34,1.56.63,2.34.89,6.78,2.25,13.93,1.91,19.43,1a55.22,55.22,0,0,0,8.44-2.11c.73-.25,1.14-.41,1.14-.41a4.06,4.06,0,0,0,.23-.41A31.54,31.54,0,0,1,137.9,151.22Z"/><path class="cls-2" d="M136.88,157.34a19,19,0,0,1-1.1,6.31,12.87,12.87,0,0,1-2.16,3.78c-6.7,8-21.66,4.46-25,1.22a8.65,8.65,0,0,1-.69-.75h0a10.26,10.26,0,0,1-1-1.37,16.69,16.69,0,0,1-2.11-6.89,11.17,11.17,0,0,1,.26-4.15,3.58,3.58,0,0,0,.27,1c.92,1.8,22.14,7.05,31,1.19Z"/><path class="cls-1" d="M136.77,131.33c-.56.32-1.13.61-1.7.88-10.72,5-22.74,1.05-27.16-.76-.81-.33-1.36-.59-1.61-.71.09-1,.21-2,.34-3a38.55,38.55,0,0,1,2.7-10.1l.07-.15.05-.11.09-.19.06-.13a22.15,22.15,0,0,1,2.9-4.68,2.43,2.43,0,1,0,3.47-3.18,12,12,0,0,1,6.54-2.22s2.61-.06,5.68,2.74a1.61,1.61,0,1,0,2,2.23l.52.7a31.23,31.23,0,0,1,3.94,8.33h0c.5,1.56,1,3.3,1.38,5.23.14.64.27,1.3.4,2A18.15,18.15,0,0,1,136.77,131.33Z"/><path class="cls-2" d="M138.82,142.27a5.83,5.83,0,0,1-.51,1.33h0a4.06,4.06,0,0,1-.23.41s-.4.16-1.14.41a55.22,55.22,0,0,1-8.44,2.11c-5.5.93-12.65,1.27-19.43-1-.79-.26-1.57-.56-2.34-.89-.44-.19-.88-.4-1.33-.61l-.06,0s0-1.2-.06-2.89h0c0-.91,0-2,0-3l-.07.06,1.1-7.37c.25.12.8.38,1.59.7,4.42,1.81,16.44,5.79,27.16.76.57-.27,1.14-.56,1.7-.88l0,0a23.91,23.91,0,0,1,2.25,8.16A9.43,9.43,0,0,1,138.82,142.27Z"/><path class="cls-3" d="M90.25,144.39c-2.65.34-7.91-.09-10-2.14a2.85,2.85,0,0,1-.79-1.34,1.31,1.31,0,0,1,0-.41c.12-2.42,8,.52,11.17,1.79-.69.37-1.07.81-.95,1.35A1.26,1.26,0,0,0,90.25,144.39Z"/><path class="cls-3" d="M80.27,142.25c-1.14.18-2.94.45-4,.52-1.66.1-1.31,2.63-3.18-.59-1.59-2.75,4.52-2,6.36-1.68a1.31,1.31,0,0,0,0,.41A2.85,2.85,0,0,0,80.27,142.25Z"/><path class="cls-3" d="M106.31,130.74h0l-1.1,7.37a6.09,6.09,0,0,1-1.32.81c-1.18.53-2.31.47-2.74-.61a1.67,1.67,0,0,1-.06-.17,5.84,5.84,0,0,1,.2-3,11.5,11.5,0,0,1,5.34-7.33C106.52,128.73,106.4,129.71,106.31,130.74Z"/><path class="cls-3" d="M103.91,138.93c-1.75,3.13-11.54,6.53-14.41,5.31a1.26,1.26,0,0,1-.71-.64c-.22-.51.07-1,.68-1.5,2.28-1.81,9.06-3.39,11.64-3.95a1.67,1.67,0,0,0,.06.17C101.6,139.41,102.72,139.46,103.91,138.93Z"/><path class="cls-1" d="M111.82,480.53c1.12-2.31,2.92-3.37,5.71-2.08.55.25,1.82,2.44,2.8,5.72l0-.06c6.34-16,3.2-23.22,1.21-25.83a13.69,13.69,0,0,1-7-.54c-1.6,1.65-2.67,4.46-3.08,7.38A84.06,84.06,0,0,0,111.82,480.53Z"/><path class="cls-2" d="M110.64,501.31c2.35-.89,5.05-.19,6.13,6.62a17.47,17.47,0,0,0,3.18-5.64c2.61-6.63,1.78-13.47.38-18.12h0c-1-3.28-2.26-5.47-2.8-5.72-2.8-1.29-4.59-.23-5.71,2.08C109.49,485.34,110.08,495.58,110.64,501.31Z"/><path class="cls-1" d="M107.6,523.27c1.75,0,2-5.61,2.86-2.5a12.92,12.92,0,0,1,.65,5.21c2.4-.26,10.51-2.28,9.46-17.74-.08-1.21-.2-2.29-.36-3.25-1.08-6.81-3.79-7.52-6.13-6.62a11.9,11.9,0,0,0-4,3s-2.83,4.85-4,14.14C105.95,516,107.63,522.83,107.6,523.27Z"/><path class="cls-2" d="M138,401a5.6,5.6,0,0,0,.2,1.47,12.69,12.69,0,0,1-4.8-2.62h0a31.23,31.23,0,0,0-3.94-8.33,10.79,10.79,0,0,1,1.27-4.26c3.75-7.18,9.42,2.27,11.8,6.95C140,396.33,138,398.71,138,401Z"/><path class="cls-3" d="M158,391.75c-8.53,18.92-18.34,16.32-19.82,10.77A5.6,5.6,0,0,1,138,401c0-2.32,2-4.7,4.53-6.79a47.5,47.5,0,0,1,7.35-4.8,3.58,3.58,0,0,0,1.85.68c.58,0,1.15-.68,1.69-1.8a16,16,0,0,0,1.95,2.2A4,4,0,0,0,158,391.75Z"/><path class="cls-1" d="M158,391.75a4,4,0,0,1-2.65-1.22,16,16,0,0,1-1.95-2.2c-.13-.17-.24-.34-.35-.5-4.53-6.95,1.62-13.12,2.7-19.93h0c1.2-7.67-4.85-16.56-6.87-21s4-1.21,4-1.21C175.91,362.79,166.35,392.06,158,391.75Z"/><path class="cls-2" d="M155.79,367.9c-1.07,6.81-7.23,13-2.7,19.93.11.17.22.34.35.5-.54,1.12-1.11,1.8-1.69,1.8a3.58,3.58,0,0,1-1.85-.68c-3.22-2.09-7.09-8.49-5.42-11.84,2-4,0-41.62,4.45-25.05,2.58,9.62,5.16,13.65,6.87,15.34Z"/><path class="cls-2" d="M108.33,396l-.06.13-.09.19-.05.11-.07.15c-2.33,5.13-5.56,7-8.19,6.75a4.06,4.06,0,0,0,1.77-1.85,23.05,23.05,0,0,0-4.42-10c3.52-6.45,9.23-7.56,12.1-6.13S109.29,393.78,108.33,396Z"/><path class="cls-3" d="M101.64,401.44a4.06,4.06,0,0,1-1.77,1.85C93.44,406.65,77.12,393,81,388.09a14.89,14.89,0,0,0,3.31.83,4.5,4.5,0,0,0,2.89-2.28c.51,1,1.55,1.88,3.68.36a13.26,13.26,0,0,1,6.39,4.41A23.05,23.05,0,0,1,101.64,401.44Z"/><path class="cls-1" d="M87.5,368.71c2.44,10,1.35,15.1-.2,17.69H87l.11.25a4.5,4.5,0,0,1-2.89,2.28,14.89,14.89,0,0,1-3.31-.83c-15.64-6-2.72-37.14,4.12-43.22,7.27-6.47,8.49-3.23,8.49-1.62,0,1.43-8.22,6-7,19.65A38.29,38.29,0,0,0,87.5,368.71Z"/><path class="cls-2" d="M92.35,385.68A12.3,12.3,0,0,1,90.83,387c-2.13,1.52-3.18.68-3.68-.36l.15-.24c1.55-2.59,2.63-7.71.2-17.69a38.29,38.29,0,0,1-1-5.81c7.42-7.57,4-14.56,6.64-17.23,2.83-2.83.81,14.14,1.62,21S97.6,380.43,92.35,385.68Z"/><path class="cls-3" d="M141.94,417.88a2.16,2.16,0,0,1-.7.94,2.43,2.43,0,0,1-.85.46,2.75,2.75,0,0,1-2.62-1,23.91,23.91,0,0,0-2.25-8.16l0,0a18.15,18.15,0,0,0-.3-3.08c-.13-.68-.26-1.34-.4-2C137.06,407.54,143.24,414.55,141.94,417.88Z"/><path class="cls-3" d="M153.37,422.45a3,3,0,0,1-1.2.82c-2.93,1.18-8.7-.51-11.78-4a2.43,2.43,0,0,0,.85-.46,2.16,2.16,0,0,0,.7-.94c3,.57,10.92,1.79,11.64,3.67A.84.84,0,0,1,153.37,422.45Z"/><path class="cls-3" d="M162.47,418.47a4.52,4.52,0,0,1-.07.54c-.48,2.55-3.23,3.85-10.31,4a3,3,0,0,0,.85-1.17.84.84,0,0,0-.1-.92c2-1.05,8.49-4.42,9.5-3A.83.83,0,0,1,162.47,418.47Z"/><path class="cls-3" d="M170,417.94c-.27,5-.74-.5-7.6,1.06a4.52,4.52,0,0,0,.07-.54.83.83,0,0,0-.13-.55C164.49,416.68,170.24,413.57,170,417.94Z"/><path class="cls-1" d="M168.5,443.51a2.17,2.17,0,0,1,.12.3,1.68,1.68,0,0,1-.25,1.62c-1.55,2-7.95,2.11-11.22,1.57.35-.37.27-1.1-.36-2.31C158.69,443.73,166.88,439.91,168.5,443.51Z"/><path class="cls-1" d="M176.37,446.75c-.8,3.38-1.55,3.69-3.52,1a6.9,6.9,0,0,0-4.48-2.33,1.68,1.68,0,0,0,.25-1.62,2.17,2.17,0,0,0-.12-.3C170.78,443.22,177,443.88,176.37,446.75Z"/><path class="cls-1" d="M142.22,432.33a2.7,2.7,0,0,1-.49.74,2.08,2.08,0,0,1-2.54.36,6.49,6.49,0,0,1-2.62-2.5h0a31.54,31.54,0,0,0-.52-7.62h0a5.83,5.83,0,0,0,.34-1.38C137.9,423.24,143.61,429.33,142.22,432.33Z"/><path class="cls-1" d="M157.41,447.37c-1.43.89-6.28-3.1-11.25-6.16s-6.53-6.36-7-7.77a2.08,2.08,0,0,0,2.54-.36c4.87,1.62,14.64,6.8,15.86,11.61,0,.13.06.25.08.36C158,446.38,157.84,447.1,157.41,447.37Z"/><path class="cls-3" d="M160.42,472.32c0,.35-.27.67-.83.92l-.31.12c-3.92,1.33-8.82-1.27-10.54-2.29a1.33,1.33,0,0,0-.23-.8C152.21,467,160.51,470.24,160.42,472.32Z"/><path class="cls-3" d="M167.3,475.9c-1,5.34-3,.74-4-.55-.72-1-3.1-1.51-3.74-2.12.56-.25.81-.57.83-.92C162.52,471.86,168.16,471.42,167.3,475.9Z"/><path class="cls-3" d="M139.5,452c-.28.61-.84.75-1.66.4a6.05,6.05,0,0,1-1.28-.79c-1.39-1.07-2-3.73-2.34-6.38a19,19,0,0,0,.28-6.4s.06-.89.12-2.23a53.49,53.49,0,0,1,4,9C139.7,448.86,140,451,139.5,452Z"/><path class="cls-3" d="M149.42,471a1.33,1.33,0,0,1-.2.8.33.33,0,0,1-.24.15c-.2,0-.57-.19-1.06-.6-2.5-2.06-8.12-9-9.78-13.89-1-2.94-.77-4.39-.3-5.12.82.35,1.38.21,1.66-.4a61.66,61.66,0,0,1,4.46,6.39C147.87,464.42,149.45,469.1,149.42,471Z"/><path class="cls-3" d="M94.56,471.8c-.5,2.31-4.87,5.08-7.36,5.1a1.51,1.51,0,0,1-1.65-1,.4.4,0,0,1,0-.09c-.63-2.56,6.12-4.31,8.32-4.8A1.16,1.16,0,0,0,94.56,471.8Z"/><path class="cls-3" d="M87.2,476.9a20.53,20.53,0,0,0-2.7,3.75c-1.4,2.59-1.93,5-3.59,1.27-1.39-3.06,3.09-5.4,4.62-6.1a.4.4,0,0,0,0,.09A1.51,1.51,0,0,0,87.2,476.9Z"/><path class="cls-3" d="M105.64,445.39a8,8,0,0,1-1.82,4.19c-.54.59-1.12.88-1.59.7-.77-.31-1.29-1.9-1-5.59.44-5.43,1.45-6.43,2.3-6.18A16.69,16.69,0,0,0,105.64,445.39Z"/><path class="cls-3" d="M94.19,471.83a1.16,1.16,0,0,1-.86-.6,2.05,2.05,0,0,1-.17-.29c-2.8-5.6,6.53-17.58,9.08-20.67.48.19,1.05-.11,1.59-.7C105.44,452,97.84,472.2,94.19,471.83Z"/><path class="cls-1" d="M85,447.38c-.67.39-7.95,2.4-11.12,1a2.31,2.31,0,0,1-1.32-1.29,1.37,1.37,0,0,1-.08-.3c-.45-2.94,10.25-1.6,11.79-1.39a1.67,1.67,0,0,0-.06,1.21A1.33,1.33,0,0,0,85,447.38Z"/><path class="cls-1" d="M73.85,448.35a29.58,29.58,0,0,0-3.25,4.09c-1.12,1.42-1.82-1.2-2.12-3.74-.22-1.84,2.48-2,4-1.94a1.37,1.37,0,0,0,.08.3A2.31,2.31,0,0,0,73.85,448.35Z"/><path class="cls-1" d="M103.42,432.08h0a6.44,6.44,0,0,1-2.57,2.47A1.09,1.09,0,0,1,99.5,434a7.65,7.65,0,0,1-.79-3.26c-.42-5.09,4.18-8.81,5.69-9.89-.06,1.68-.09,2.88-.09,2.88l.06,0A46.22,46.22,0,0,0,103.42,432.08Z"/><path class="cls-1" d="M84.62,448.05a1.33,1.33,0,0,1-.89-.67,1.67,1.67,0,0,1-.13-1.21c.91-4,12.89-10.58,15.9-12.18a1.09,1.09,0,0,0,1.34.55C102.1,438.68,88.62,449.1,84.62,448.05Z"/><path class="cls-3" d="M132.32,446.28a29.07,29.07,0,0,1-4.82,8.9,12,12,0,0,1-5.51,3.53,13.69,13.69,0,0,1-7,.54,8.27,8.27,0,0,1-4.45-2.45c-2.75-3-3.64-7.25-3.92-10a8.65,8.65,0,0,0,.69.75C110.66,450.74,125.62,454.32,132.32,446.28Z"/><path class="cls-2" d="M115.79,390.13a2.42,2.42,0,1,1-2.42-2.42,2.38,2.38,0,0,1,1.34.4A2.42,2.42,0,0,1,115.79,390.13Z"/><path class="cls-3" d="M129.12,390.13a1.57,1.57,0,0,1-.17.72,1.61,1.61,0,1,1-2-2.23,1.58,1.58,0,0,1,.59-.11A1.62,1.62,0,0,1,129.12,390.13Z"/><path class="cls-3" d="M136.61,430.08h0c-.2,1.45-.43,2.83-.62,3.92-.23,1.33-.41,2.2-.41,2.2l-.54.38c-8.84,5.86-30.06.61-31-1.19a3.58,3.58,0,0,1-.27-1s0,0,0,0a23.85,23.85,0,0,1-.21-3.1h0a46.22,46.22,0,0,1,.54-8.35c.44.22.88.42,1.33.61.77.34,1.56.63,2.34.89,6.78,2.25,13.93,1.91,19.43,1a55.22,55.22,0,0,0,8.44-2.11c.73-.25,1.14-.41,1.14-.41a4.06,4.06,0,0,0,.23-.41A31.54,31.54,0,0,1,136.61,430.08Z"/><path class="cls-2" d="M135.59,436.19a19,19,0,0,1-1.1,6.31,12.87,12.87,0,0,1-2.16,3.78c-6.7,8-21.66,4.46-25,1.22a8.65,8.65,0,0,1-.69-.75h0a10.26,10.26,0,0,1-1-1.37,16.69,16.69,0,0,1-2.11-6.89,11.17,11.17,0,0,1,.26-4.15,3.58,3.58,0,0,0,.27,1c.92,1.8,22.14,7.05,31,1.19Z"/><path class="cls-1" d="M135.48,410.18c-.56.32-1.13.61-1.7.88-10.72,5-22.74,1.05-27.16-.76-.81-.33-1.36-.59-1.61-.71.09-1,.21-2,.34-3a38.55,38.55,0,0,1,2.7-10.1l.07-.15.05-.11.09-.19.06-.13a22.15,22.15,0,0,1,2.9-4.68,2.43,2.43,0,1,0,3.47-3.18,12,12,0,0,1,6.54-2.22s2.61-.06,5.68,2.74a1.61,1.61,0,1,0,2,2.23l.52.7a31.23,31.23,0,0,1,3.94,8.33h0c.5,1.56,1,3.3,1.38,5.23.14.64.27,1.3.4,2A18.15,18.15,0,0,1,135.48,410.18Z"/><path class="cls-2" d="M137.53,421.12a5.83,5.83,0,0,1-.51,1.33h0a4.06,4.06,0,0,1-.23.41s-.4.16-1.14.41a55.22,55.22,0,0,1-8.44,2.11c-5.5.93-12.65,1.27-19.43-1-.79-.26-1.57-.56-2.34-.89-.44-.19-.88-.4-1.33-.61l-.06,0s0-1.2-.06-2.89h0c0-.91,0-2,0-3l-.07.06,1.1-7.37c.25.12.8.38,1.59.7,4.42,1.81,16.44,5.79,27.16.76.57-.27,1.14-.56,1.7-.88l0,0a23.91,23.91,0,0,1,2.25,8.16A9.43,9.43,0,0,1,137.53,421.12Z"/><path class="cls-3" d="M89,423.24c-2.65.34-7.91-.09-10-2.14a2.85,2.85,0,0,1-.79-1.34,1.31,1.31,0,0,1,0-.41c.12-2.42,8,.52,11.17,1.79-.69.37-1.07.81-.95,1.35A1.26,1.26,0,0,0,89,423.24Z"/><path class="cls-3" d="M79,421.1c-1.14.18-2.94.45-4,.52-1.66.1-1.31,2.63-3.18-.59-1.59-2.75,4.52-2,6.36-1.68a1.31,1.31,0,0,0,0,.41A2.85,2.85,0,0,0,79,421.1Z"/><path class="cls-3" d="M105,409.6h0l-1.1,7.37a6.09,6.09,0,0,1-1.32.81c-1.18.53-2.31.47-2.74-.61a1.67,1.67,0,0,1-.06-.17,5.84,5.84,0,0,1,.2-3,11.5,11.5,0,0,1,5.34-7.33C105.23,407.58,105.11,408.57,105,409.6Z"/><path class="cls-3" d="M102.62,417.79c-1.75,3.13-11.54,6.53-14.41,5.31a1.26,1.26,0,0,1-.71-.64c-.22-.51.07-1,.68-1.5,2.28-1.81,9.06-3.39,11.64-3.95a1.67,1.67,0,0,0,.06.17C100.31,418.26,101.44,418.31,102.62,417.79Z"/><path class="cls-2" d="M113.48,514.45s-9.8.49-6.86,19.6,16.17-2,13.72-9.8S113.48,514.45,113.48,514.45Z"/><path class="cls-1" d="M121.81,528.17c-1.47,0-11.27,10.78-11.76,11.76s.49,7.84,7.84,3.43S121.81,528.17,121.81,528.17Z"/><path class="cls-3" d="M119.83,535.08a5.13,5.13,0,0,0,2.75.95,7.92,7.92,0,0,0,5.68-1.88c2-1.52,3.7-3.5,6.44-4.18,4.85-1.21,9.29-1.21,8.49-10.1,0,0-2,8.08-8.08,7.68s-13.34-6.06-15.76-2.42C117.42,528,117,533,119.83,535.08Z"/><path class="cls-4" d="M730.06,460.22c0,4.16-6.2,7.89-16,10.5-9.56,2.57-22.67,4.11-37,4s-27.47-1.77-37-4.46c-1.23-.35-2.37-.69-3.47-1.08L714,449.48C723.92,452.21,730.09,456.06,730.06,460.22Z"/><path class="cls-3" d="M714,449.48l-77.5,19.72h0c-7.74-2.59-12.43-6-12.41-9.61,0-8.18,23.83-14.7,53.09-14.52C691.48,445.15,704.49,446.79,714,449.48Z"/><path class="cls-5" d="M730.06,460.22l-.13,21.2c0,8.18-23.83,14.7-53.09,14.52s-53-7-52.91-15.16l.13-21.2c0,3.65,4.66,7,12.41,9.61h0c1.1.39,2.24.73,3.47,1.08,9.52,2.69,22.62,4.37,37,4.46s27.48-1.45,37-4C723.87,468.11,730,464.37,730.06,460.22Z"/></svg>