<svg id="Layer_1" data-name="Layer 1" xmlns="http://www.w3.org/2000/svg" viewBox="0 0 603 603"><defs><style>.cls-1,.cls-3{stroke:#000;stroke-miterlimit:10;stroke-width:0.5px;}.cls-2,.cls-3{fill:#fff;}</style></defs><title>bullet</title><path class="cls-1" d="M322.11,347.54a47.69,47.69,0,0,0,3.12,4H128.55c-7.42,0-14.3-3.4-19.93-9.19-8.82-9-14.57-24-14.57-40.81a67.31,67.31,0,0,1,5-26c.58-1.38,1.2-2.72,1.88-4a44.29,44.29,0,0,1,8.81-11.94c5.4-5.1,11.86-8.06,18.78-8.06H325.23a59.46,59.46,0,0,0-11,20c-.44,1.3-.86,2.63-1.24,4-.47,1.63-.89,3.29-1.26,5a97.35,97.35,0,0,0-2.24,21c0,15.82,3.62,30.22,9.54,41A56.53,56.53,0,0,0,322.11,347.54Z"/><path class="cls-1" d="M351.58,335.76c.34.41.69.81,1,1.19-2.39,2.32-14.68,13.68-27.4,14.58a47.69,47.69,0,0,1-3.12-4,56.53,56.53,0,0,1-3.1-5c-5.92-10.78-9.54-25.18-9.54-41a97.35,97.35,0,0,1,2.24-21c.37-1.71.79-3.37,1.26-5,.38-1.37.8-2.7,1.24-4a59.46,59.46,0,0,1,11-20s12.31,0,27.85,14.11c-5.56,5.69-9.68,14.92-11.28,25.83a69.75,69.75,0,0,0-.72,10.06c0,11.9,2.93,22.64,7.66,30.28a33.24,33.24,0,0,0,2.66,3.74Z"/><path class="cls-1" d="M407,334.54a8.66,8.66,0,0,0,3,2l-57.32.4c-.36-.38-.71-.78-1-1.19l-.18-.21a33.24,33.24,0,0,1-2.66-3.74c-4.73-7.64-7.66-18.38-7.66-30.28a69.75,69.75,0,0,1,.72-10.06c1.6-10.91,5.72-20.14,11.28-25.83h59c-2.17,0-4.22,1.25-6,3.5a16.32,16.32,0,0,0-1.19,1.63c-4,6.25-6.76,17.58-6.76,30.52,0,13.58,3,25.39,7.36,31.41A15.11,15.11,0,0,0,407,334.54Z"/><path class="cls-1" d="M106.69,340.2c.62.75,1.27,1.46,1.93,2.14a18.35,18.35,0,0,1-3.08-.72C93.12,337.62,83.8,321,83.8,301a58,58,0,0,1,3.74-20.89c3.85-10,10.37-17.29,18.09-19.73a18.86,18.86,0,0,1,4.14-.82,36.16,36.16,0,0,0-2.63,2.75,44.48,44.48,0,0,0-3.62,4.79c-5.86,9-9.47,21.07-9.47,34.4C94,317.11,99,331,106.69,340.2Z"/><path class="cls-1" d="M105.33,341.55l.21.08a17.09,17.09,0,0,1-7,5.12,11,11,0,0,1-3.9.72,11.68,11.68,0,0,1-5.39-1.36c-9.76-5-17-23.31-17-45.14,0-23.24,8.21-42.49,18.93-45.94a11,11,0,0,1,7.46.19h0a17.31,17.31,0,0,1,6.94,5.19,1,1,0,0,0-.16.06C93.08,264.5,83.8,281.14,83.8,301S93,337.43,105.33,341.55Z"/><path class="cls-1" d="M94.67,347.46a11,11,0,0,0,3.9-.72A27,27,0,0,1,85,350.46c-19.6,0-27-21.83-27-50s7.4-49,27-49a27.14,27.14,0,0,1,13.72,3.75,11,11,0,0,0-4-.75c-12.36,0-22.39,20.82-22.39,46.5S82.31,347.46,94.67,347.46Z"/><path class="cls-1" d="M545,302c0,3.72-13.67,9.13-36.27,14.58-21.3,5.12-50.55,10.27-83.74,14.06l-5.41.6q-4.79.51-9.68,1l-4.54.44c-4.38-6-7.36-17.83-7.36-31.41,0-12.94,2.71-24.27,6.76-30.52l2.31.19q6.57.52,13,1.14c2.5.24,5,.48,7.43.74,26.87,2.77,51.06,6.42,70.4,10.43C526.92,289.3,545,296.12,545,302Z"/><path class="cls-1" d="M419.63,331.27c-2.19,3.59-4.79,5.68-7.58,5.68a5.64,5.64,0,0,1-2.1-.4,8.66,8.66,0,0,1-3-2,15.11,15.11,0,0,1-1.56-1.83l4.54-.44Q414.84,331.78,419.63,331.27Z"/><path class="cls-1" d="M420.08,272.11q-6.39-.62-13-1.14l-2.31-.19a16.32,16.32,0,0,1,1.19-1.63c1.83-2.25,3.88-3.5,6-3.5C415,265.64,417.81,268,420.08,272.11Z"/><path class="cls-2" d="M66.55,272.79a1.75,1.75,0,0,1,0-3.5h7a1.75,1.75,0,1,1,0,3.5Z"/><path d="M73.55,269.54a1.5,1.5,0,0,1,0,3h-7a1.5,1.5,0,1,1,0-3h7m0-.5h-7a2,2,0,1,0,0,4h7a2,2,0,0,0,0-4Z"/><path class="cls-3" d="M74,328.54H63q-1.11-4.46-1.77-8.72c-.3-1.85-.54-3.68-.73-5.46-2.26-21.19,2.5-36.82,2.5-36.82H73C65,295.54,74,328.54,74,328.54Z"/><path class="cls-3" d="M108.62,342.35a18.35,18.35,0,0,1-3.08-.72c-5.85-1.88-11-6.57-14.83-13.09a43.15,43.15,0,0,1-3.07-6.37c-.51-1.27-1-2.59-1.38-4a54,54,0,0,1-1.4-5.77A61,61,0,0,1,83.8,301a58,58,0,0,1,3.74-20.89c5.48-8.81,12-11.92,16-13-5.86,9-9.47,21.07-9.47,34.4C94,317.11,99,331,106.69,340.2,107.31,341,108,341.67,108.62,342.35Z"/><path class="cls-3" d="M85.83,332,91,341.54s-5.36-3.06-7.37-5.84l5.6,10.41c-9.76-5-17-23.31-17-45.14,0-23.24,8.21-42.49,18.93-45.94a13.47,13.47,0,0,1,9.84,4.51s-44,30-5,81A19.43,19.43,0,0,1,85.83,332Z"/><path class="cls-3" d="M314.21,271.54c-.44,1.3-.86,2.63-1.24,4H99.08c.58-1.38,1.2-2.72,1.88-4Z"/><path class="cls-3" d="M322.11,347.54H120a10.39,10.39,0,0,1-7-5H315c-4-5-7-18-7-18H101c-8-22,0-44,0-44H311.71a97.35,97.35,0,0,0-2.24,21C309.47,319.94,314.37,336.44,322.11,347.54Z"/><rect class="cls-3" x="315.48" y="276.52" width="28.14" height="3" rx="1.5" ry="1.5" transform="translate(142.74 -110.57) rotate(24.17)"/><path class="cls-3" d="M351.4,335.55l-19.35,12h-9.94a56.53,56.53,0,0,1-3.1-5h11l15-8c-2-1-6-12-6-12s-15,4-22,3-4-39-3-43c.83-3.32,20.93,5.75,27.75,8.94a69.75,69.75,0,0,0-.72,10.06C341.08,315.54,345.14,327.93,351.4,335.55Z"/><path class="cls-3" d="M407,334.54H354l-2.47,1.23-.18-.21a33.24,33.24,0,0,1-2.66-3.74l5.31-2.28h45c-3-3-4-14-4-14H347c-8-5-3-23-3-23h48c2.5-2.5,0-5,0-5H346c-2-2,0-5,0-5h51c3.61-12.27,7.21-13.6,9-13.39a16.32,16.32,0,0,0-1.19,1.63c-4,6.25-6.76,17.58-6.76,30.52,0,13.58,3,25.39,7.36,31.41A15.11,15.11,0,0,0,407,334.54Z"/><path class="cls-3" d="M525,293.54c-55-18-119-17-119-17v-3l21.46-.69c26.87,2.77,51.06,6.42,70.4,10.43C513,288.64,525,293.54,525,293.54Z"/><path class="cls-3" d="M540,302.54s-11.65,7-31.27,14.08c-21.3,5.12-50.55,10.27-83.74,14.06-5.87-.12-11.88-.49-18-1.14l-2-5s39,5,104-12c0,0-102,7-106,3,0,0-5-16,0-24,0,0,74.47-2.43,105.43,2.91A372.76,372.76,0,0,0,403,287.54v-4S490,276.54,540,302.54Z"/><polygon class="cls-1" points="326.05 312.54 317.05 312.54 326.05 306.54 335.05 306.54 326.05 312.54"/><path class="cls-1" d="M70,316.86c0,2-2.46,3.67-5.5,3.67a7.43,7.43,0,0,1-3.27-.72c-.3-1.85-.54-3.68-.73-5.46a7,7,0,0,1,4-1.15C67.59,313.2,70,314.85,70,316.86Z"/><path class="cls-1" d="M98,333.54l-7.34-5a43.15,43.15,0,0,1-3.07-6.37L96,325.54S97,332.54,98,333.54Z"/><path class="cls-1" d="M94,315c0,1.93-2.46,3.5-5.5,3.5a8,8,0,0,1-2.29-.32,54,54,0,0,1-1.4-5.77,7.38,7.38,0,0,1,3.69-.91C91.59,311.54,94,313.11,94,315Z"/><path class="cls-1" d="M349,306.54s26,5,34,3,7-4,1-5S349,306.54,349,306.54Z"/><path class="cls-1" d="M287.62,316.54H106.22c-2.86,0-5.17-1.9-5.17-4.25h0c0-2.35,2.31-4.25,5.17-4.25h181.4L306,312.67Z"/></svg>