<svg id="Layer_1" data-name="Layer 1" xmlns="http://www.w3.org/2000/svg" viewBox="0 0 603 603"><defs><style>.cls-1,.cls-2,.cls-3,.cls-4{stroke:#000;stroke-miterlimit:10;stroke-width:0.5px;}.cls-2{fill:#540101;}.cls-3{fill:#3a3a3a;}.cls-4{fill:none;}</style></defs><title>gun</title><path class="cls-1" d="M230.82,242.08l-62,211h-93c-6-15-4-37-2-50,1.34-8.72,27-78.26,43.74-123,8.2-21.94,14.26-38,14.26-38C196.82,212.08,230.82,242.08,230.82,242.08Z"/><circle class="cls-2" cx="194.32" cy="250.58" r="15.5"/><path class="cls-3" d="M213.82,262.08l-53.55,191H83.71c-3.85-10.59-5.59-26.22-4.89-36,1-14,56-162,56-162S166.82,294.08,213.82,262.08Z"/><circle class="cls-2" cx="116.82" cy="420.08" r="12"/><circle class="cls-2" cx="116.82" cy="420.08" r="8"/><line class="cls-2" x1="124.36" y1="422.73" x2="109.41" y2="417.06"/><path class="cls-2" d="M123.82,204.58v21.5a5.47,5.47,0,0,1-.09,1,6,6,0,0,1-11.82,0,5.47,5.47,0,0,1-.09-1v-21.5h-6v3.5a4,4,0,1,1-8,0v-3.5h-11v2.48a2.73,2.73,0,0,1-.2,1,44.82,44.82,0,0,1-2.13,4.55c-2.07,3.88-5.41,8.91-9.69,11-.65.32-1.75.73-2,1.42a6.52,6.52,0,0,0-1,2c0,1,0,1.9,0,2-.16.77.25,2,2,2,2,0,18-2,33,13,10,10,11.11,26.25,10.74,36,8.2-21.94,14.26-38,14.26-38,65-30,99,0,99,0l-62,211v5.57h.4l2.87,0,2.82,0,5.36-.06h.11l2.64,0,1.74,0,2.27,0,3.47,0,4.48-.06a54.77,54.77,0,0,0-6.16-16.26c-5-21,0-42,0-42l39-134c14-33,35-33,35-33h30v-8.24a8.76,8.76,0,0,1,8.76-8.76h17.48a8.76,8.76,0,0,1,8.76,8.76v8.24h32c8-12,29-15,29-15h125v-13.5Zm156,24.5a5,5,0,1,1,5-5A5,5,0,0,1,279.82,229.08Zm75-8a5,5,0,1,1,5-5A5,5,0,0,1,354.82,221.08Zm145.12-7.88a3,3,0,0,1-2.12.88h-95a3,3,0,0,1,0-6h95a3,3,0,0,1,2.12,5.12Z"/><path class="cls-1" d="M123.82,221.08v5a5.47,5.47,0,0,1-.09,1,6,6,0,0,1-11.82,0,5.47,5.47,0,0,1-.09-1v-5a6,6,0,0,0,6,6A6,6,0,0,0,123.82,221.08Z"/><path class="cls-2" d="M123.82,207.08v14a6,6,0,0,1-6,6,6,6,0,0,1-6-6v-14Z"/><rect class="cls-1" x="111.82" y="204.58" width="12" height="2.5"/><path class="cls-2" d="M75.82,453.08c-6-15-4-37-2-50,1.34-8.72,27-78.26,43.74-123,.37-9.7-.73-25.94-10.74-36-15-15-31-13-33-13-1.75,0-2.16-1.23-2-2,0-.1,0-1,0-2a6.52,6.52,0,0,1,1-2c.23-.69,1.33-1.1,2-1.42,4.28-2.12,7.62-7.15,9.69-11a44.82,44.82,0,0,0,2.13-4.55,2.73,2.73,0,0,0,.2-1v-6c0-17.73,4.72-25.25,10.67-31.6-6.84-12.46-10.67-13.4-10.67-13.4l-1.43-.82-.08,0a11.5,11.5,0,0,0-15.09,15.86l0,0a11.26,11.26,0,0,0,2.82,3.39l.76.59s4,1,8,29c4,9-12.53,19.15-12.53,19.15a3.91,3.91,0,0,0-.47,1.85c0,7,0,9,9,10s48,3,27,65-33,93-36,113c-2.87,19.14-.25,41,7,44.63a5.24,5.24,0,0,0,1,.37,35.17,35.17,0,0,0,5,.45c6.91.33,19.84.44,35,.44h10c6.79,0,13.83-.06,20.84-.12q3.95,0,7.86-.06l6.4,0,3,0,3.41,0h.57v-5.57Zm5-282a5,5,0,1,1,5-5A5,5,0,0,1,80.82,171.08Z"/><path class="cls-3" d="M500.82,211.08a3,3,0,0,1-3,3h-95a3,3,0,0,1,0-6h95A3,3,0,0,1,500.82,211.08Z"/><circle class="cls-3" cx="354.82" cy="216.08" r="5"/><circle class="cls-3" cx="279.82" cy="224.08" r="5"/><path class="cls-1" d="M105.82,204.58v3.5a4,4,0,1,1-8,0v-3.5Z"/><path class="cls-2" d="M103.59,161.58a20.5,20.5,0,0,1-1.7,3,17.16,17.16,0,0,1-2.07,2.5c-.79.79-1.57,1.59-2.33,2.4-6,6.35-10.67,13.87-10.67,31.6v3.5h80.5v-43Zm59.23,7.5a3,3,0,1,1-3,3A3,3,0,0,1,162.82,169.08Zm0,12a3,3,0,1,1-3,3A3,3,0,0,1,162.82,181.08Zm-42.18,11h-.32a13.5,13.5,0,0,1,0-27h28s16,0,8,13c-6.88,11.17-28.52,13.48-34.47,13.91A9.71,9.71,0,0,1,120.64,192.07Zm39.18,9a3,3,0,1,1-3-3,2.71,2.71,0,0,1,.91.15,3,3,0,1,1,2.09.85,2.71,2.71,0,0,1-.91-.15A3,3,0,0,1,159.82,201.08Zm4,3a3,3,0,1,1,3-3A3,3,0,0,1,163.82,204.08Z"/><path class="cls-3" d="M120.32,165.08a13.5,13.5,0,0,0,0,27h.32l1.21-.08a13.5,13.5,0,0,0-1.53-26.91Zm0,19.5a6,6,0,1,1,6-6A6,6,0,0,1,120.32,184.58Z"/><circle class="cls-1" cx="120.32" cy="178.58" r="6"/><path class="cls-1" d="M148.32,165.08h-28A13.5,13.5,0,0,1,121.85,192c5.95-.43,27.59-2.74,34.47-13.91C164.32,165.08,148.32,165.08,148.32,165.08Zm5.45,12.7-15.13,2.46a2.85,2.85,0,0,1-3.26-2.34l-.85-5.27a2.84,2.84,0,0,1,2.34-3.25L152,166.92a2.85,2.85,0,0,1,3.26,2.34l.85,5.27A2.84,2.84,0,0,1,153.77,177.78Z"/><path class="cls-3" d="M153.77,177.78l-15.13,2.46a2.85,2.85,0,0,1-3.26-2.34l-.85-5.27a2.84,2.84,0,0,1,2.34-3.25L152,166.92a2.85,2.85,0,0,1,3.26,2.34l.85,5.27A2.84,2.84,0,0,1,153.77,177.78Z"/><path class="cls-3" d="M159.82,199.08a2.71,2.71,0,0,1-.91-.15,3,3,0,1,1-2.09-.85,2.71,2.71,0,0,1,.91.15,3,3,0,1,1,2.09.85Z"/><circle class="cls-3" cx="162.82" cy="184.08" r="3"/><circle class="cls-3" cx="162.82" cy="172.08" r="3"/><circle class="cls-3" cx="163.82" cy="201.08" r="3"/><circle class="cls-4" cx="163.82" cy="201.08" r="3"/><path class="cls-4" d="M162.82,196.08a3,3,0,0,1-3,3,2.71,2.71,0,0,1-.91-.15,3,3,0,0,1-1.18-.7,3,3,0,1,1,5.09-2.15Z"/><path class="cls-4" d="M159.82,201.08a3,3,0,1,1-3-3,2.71,2.71,0,0,1,.91.15,3,3,0,0,1,1.18.7A3,3,0,0,1,159.82,201.08Z"/><circle class="cls-4" cx="162.82" cy="172.08" r="3"/><circle class="cls-4" cx="162.82" cy="184.08" r="3"/><path class="cls-3" d="M152.82,146.08v5.5H111.13a59.91,59.91,0,0,1,1.59-9.5h24.11C144.79,143.27,152,144.77,152.82,146.08Z"/><path class="cls-1" d="M136.83,142.08H112.72c.33-1.06.69-1.8,1.1-2C115,139.52,126.56,140.54,136.83,142.08Z"/><path class="cls-1" d="M131,151.58l-1.17,3.5h-19s.11-1.47.31-3.5Z"/><path class="cls-1" d="M167.32,156.58v5H103.59c.31-.67.57-1.34.8-2a30.78,30.78,0,0,0,.72-3Z"/><path class="cls-2" d="M535.32,151.58v15.5H245.82a13,13,0,0,1-3-.34,10.21,10.21,0,0,1-5.5-3.34v41.18h-70v-48H105.11c.31-1.51.65-3.34,1-5h5.07c-.2,2-.31,3.5-.31,3.5h19l1.17-3.5H466.88l.94,2.5h25l1.94-2.5h10.06v3.5h18a7.94,7.94,0,0,0-.09-3.5Z"/><path class="cls-1" d="M522.81,151.38l-9,.2-8.95.2v-.2l-.17-7.3C518.16,143.34,521.88,147.95,522.81,151.38Z"/><path class="cls-2" d="M535.32,151.58v15.5H245.82a13,13,0,0,1-3-.34,10.21,10.21,0,0,1-5.5-3.34V151.58H466.88l.94,2.5h25l1.94-2.5h10.06v3.5h18a7.94,7.94,0,0,0-.09-3.5Z"/><path class="cls-1" d="M522.82,155.08h-18v-3.5h17.91A7.94,7.94,0,0,1,522.82,155.08Z"/><path class="cls-1" d="M535.32,167.08v37.5h-298V163.4a10.21,10.21,0,0,0,5.5,3.34,13,13,0,0,0,3,.34Z"/><path class="cls-3" d="M204.82,159.08a2.78,2.78,0,0,1,0,.58,1.35,1.35,0,0,1,0,.29,3.18,3.18,0,0,1-.22.68,2.08,2.08,0,0,1-.14.3.3.3,0,0,1,0,.08,1.76,1.76,0,0,1-.14.23,1.88,1.88,0,0,1-.16.23,2.18,2.18,0,0,1-.24.29l0,0a2.37,2.37,0,0,1-.28.27,4,4,0,1,1,0-6,3.56,3.56,0,0,1,.28.27l0,.05.08.09a.31.31,0,0,1,.07.09l.09.11a1.88,1.88,0,0,1,.16.23,1.76,1.76,0,0,1,.14.23.3.3,0,0,1,0,.08,2.08,2.08,0,0,1,.14.3,3.18,3.18,0,0,1,.22.68,1.35,1.35,0,0,1,0,.29A2.78,2.78,0,0,1,204.82,159.08Z"/><path class="cls-1" d="M237.32,156.08v6H203.46a2.37,2.37,0,0,0,.28-.27l0,0a2.18,2.18,0,0,0,.24-.29,1.88,1.88,0,0,0,.16-.23,1.76,1.76,0,0,0,.14-.23.3.3,0,0,0,0-.08,2,2,0,0,0,.14-.3,3.18,3.18,0,0,0,.22-.68,1.35,1.35,0,0,0,0-.29,3.39,3.39,0,0,0,0-1.16,1.35,1.35,0,0,0,0-.29,3.18,3.18,0,0,0-.22-.68,2,2,0,0,0-.14-.3.3.3,0,0,0,0-.08,1.76,1.76,0,0,0-.14-.23,1.88,1.88,0,0,0-.16-.23.76.76,0,0,0-.08-.11l-.08-.09-.08-.09,0-.05a3.56,3.56,0,0,0-.28-.27Z"/><path class="cls-3" d="M237.32,162.08v42.5h-70v-48H197.7a4,4,0,0,0,5.76,5.5Z"/><line class="cls-3" x1="169.82" y1="204.58" x2="169.82" y2="156.58"/><line class="cls-3" x1="172.82" y1="204.58" x2="172.82" y2="156.58"/><line class="cls-3" x1="175.82" y1="204.58" x2="175.82" y2="156.58"/><line class="cls-3" x1="178.82" y1="204.58" x2="178.82" y2="156.58"/><line class="cls-3" x1="181.82" y1="204.58" x2="181.82" y2="156.58"/><line class="cls-3" x1="184.82" y1="204.58" x2="184.82" y2="156.58"/><line class="cls-3" x1="187.82" y1="204.58" x2="187.82" y2="156.58"/><line class="cls-3" x1="190.82" y1="204.58" x2="190.82" y2="156.58"/><line class="cls-3" x1="193.82" y1="204.58" x2="193.82" y2="156.58"/><line class="cls-3" x1="196.82" y1="204.58" x2="196.82" y2="159.08"/><line class="cls-3" x1="199.82" y1="204.58" x2="199.82" y2="162.95"/><line class="cls-3" x1="202.82" y1="204.58" x2="202.82" y2="162.54"/><line class="cls-3" x1="205.82" y1="204.58" x2="205.82" y2="162.08"/><line class="cls-3" x1="208.82" y1="204.58" x2="208.82" y2="162.08"/><line class="cls-3" x1="211.82" y1="204.58" x2="211.82" y2="162.08"/><line class="cls-3" x1="214.82" y1="204.58" x2="214.82" y2="162.08"/><line class="cls-3" x1="217.82" y1="204.58" x2="217.82" y2="162.08"/><line class="cls-3" x1="220.82" y1="204.58" x2="220.82" y2="162.08"/><line class="cls-3" x1="223.82" y1="204.58" x2="223.82" y2="162.08"/><line class="cls-3" x1="226.82" y1="204.58" x2="226.82" y2="162.08"/><line class="cls-3" x1="229.82" y1="204.58" x2="229.82" y2="162.08"/><line class="cls-3" x1="232.82" y1="204.58" x2="232.82" y2="162.08"/><line class="cls-3" x1="235.82" y1="204.58" x2="235.82" y2="162.08"/><path class="cls-1" d="M242.82,156.08v1.5a4.49,4.49,0,0,1-4.5,4.5h-1v-10.5h1a4.51,4.51,0,0,1,4.5,4.5Z"/><path class="cls-1" d="M81.82,458.53v1.55h-1v3h-5v-5.37a5.24,5.24,0,0,0,1,.37A35.17,35.17,0,0,0,81.82,458.53Z"/><path class="cls-1" d="M203.82,458.23v4.85h-87V459h10c6.79,0,13.83-.06,20.84-.12l7.86-.06,6.4,0,3,0,3.41,0h1l2.87,0,2.82,0,5.36-.06h.11l2.64,0,1.74,0,2.27,0,3.47,0,4.48-.06h1.16l2.07,0h3l1.77,0Z"/><path class="cls-1" d="M327.82,224.84v16.24h-35V224.84a8.76,8.76,0,0,1,8.76-8.76h17.48A8.76,8.76,0,0,1,327.82,224.84Z"/><path class="cls-1" d="M292.82,233.08v8h-30.2a20.08,20.08,0,0,0-7.31,1.44c-6.47,2.39-15.88,8.75-22.49,25.56l-7.63,26.84v0l-1.28,4.47v.06L222,306.1l-5,17.41-21.23,74.57s-7,23-1,41c2.42,7.25,4.67,13.7,6.37,19.19h-3l-2.07,0H195a54.77,54.77,0,0,0-6.16-16.26c-5-21,0-42,0-42l39-134c14-33,35-33,35-33Z"/><path class="cls-1" d="M513.82,218.08v5.51a2.48,2.48,0,0,1-2.49,2.49H389.7c-1.36.14-14.35,1.74-24.08,15h-37.8v-8h32c8-12,29-15,29-15Z"/><path class="cls-3" d="M321.79,229.84v11.24H298.85V229.84a6.33,6.33,0,0,1,0-.76,6.69,6.69,0,0,1,.14-1c.07-.34.16-.67.26-1s.25-.68.4-1a8.9,8.9,0,0,1,.57-1,8.76,8.76,0,0,1,7.36-4H313a8.76,8.76,0,0,1,7.36,4,8.9,8.9,0,0,1,.57,1c.15.32.28.66.4,1s.19.66.26,1a6.69,6.69,0,0,1,.14,1A6.33,6.33,0,0,1,321.79,229.84Z"/><line class="cls-3" x1="321.79" y1="239.08" x2="298.85" y2="239.08"/><line class="cls-3" x1="321.79" y1="237.08" x2="298.85" y2="237.08"/><line class="cls-3" x1="321.79" y1="235.08" x2="298.85" y2="235.08"/><line class="cls-3" x1="321.79" y1="233.08" x2="298.85" y2="233.08"/><line class="cls-3" x1="321.79" y1="231.08" x2="298.85" y2="231.08"/><line class="cls-3" x1="321.79" y1="230.08" x2="298.85" y2="230.08"/><line class="cls-3" x1="321.79" y1="229.08" x2="298.85" y2="229.08"/><line class="cls-3" x1="321.79" y1="228.08" x2="298.85" y2="228.08"/><line class="cls-3" x1="321.35" y1="227.08" x2="299.29" y2="227.08"/><line class="cls-3" x1="320.95" y1="226.08" x2="299.69" y2="226.08"/><line class="cls-3" x1="321.79" y1="229.08" x2="298.85" y2="229.08"/><line class="cls-3" x1="320.38" y1="225.08" x2="300.26" y2="225.08"/><path class="cls-1" d="M242.35,294.94a6.48,6.48,0,0,0-2.53.14c-4,1-5,6-5,7,0,.15,0,.42,0,.78-6.61-1.35-10.65,1-12.84,3.24l1.89-6.63v-.06l1.28-4.47v0C228.44,288.61,236.36,291.48,242.35,294.94Z"/><path class="cls-1" d="M355.59,296a2.49,2.49,0,0,1-1.78,2.66c-10,2.86-55.15,14.48-97.85,3.19a32.13,32.13,0,0,1-3.63-1.2,30.83,30.83,0,0,1-6.07-3.25c-1.13-.78-2.46-1.65-3.91-2.48-6-3.46-13.91-6.33-17.16,0l7.63-26.84c6.61-16.81,16-23.17,22.49-25.56a20.08,20.08,0,0,1,7.31-1.44H268a28.17,28.17,0,0,0-28.17,28.17v2.66A28.17,28.17,0,0,0,268,300.08h53.66a28.17,28.17,0,0,0,28.17-28.17v-2.66a28.17,28.17,0,0,0-28-28.17h43.83C358.22,251.16,352.69,268,355.59,296Z"/><path class="cls-3" d="M250.82,308.08c-1.26.63-4,0-10,1a4.89,4.89,0,0,1-3.25-.41c-2.23-1.2-2.65-4.28-2.73-5.81,0-.36,0-.63,0-.78,0-1,1-6,5-7a6.48,6.48,0,0,1,2.53-.14c1.45.83,2.78,1.7,3.91,2.48a30.83,30.83,0,0,0,6.07,3.25A5.11,5.11,0,0,1,250.82,308.08Z"/><path class="cls-1" d="M237.57,308.67c-10,3-17.66,11.35-20.52,14.84l5-17.41c2.19-2.19,6.23-4.59,12.84-3.24C234.92,304.39,235.34,307.47,237.57,308.67Z"/><path class="cls-3" d="M302.82,295.08c-10,1-29-19-29-26s-5-7-5-7v-10a9.22,9.22,0,0,1-2.41-.93l14.3-10.07h15.41c-3.52,4.39-11.3,15.39-11.3,27,0,15,15,21,18,24S302.82,295.08,302.82,295.08Z"/><path class="cls-1" d="M280.71,241.08l-14.3,10.07c-3.27-1.7-7.37-5.2-10-7.59A27.88,27.88,0,0,1,268,241.08Z"/><path class="cls-1" d="M533.82,204.58v6.5s-2.79,6.5-20,9.66V204.58Z"/><rect class="cls-3" x="513.82" y="204.58" width="5" height="9.5"/></svg>