<?xml version="1.0" encoding="utf-8"?>
<!-- Generator: Adobe Illustrator 17.0.0, SVG Export Plug-In . SVG Version: 6.00 Build 0)  -->
<!DOCTYPE svg PUBLIC "-//W3C//DTD SVG 1.1//EN" "http://www.w3.org/Graphics/SVG/1.1/DTD/svg11.dtd">
<svg version="1.1" xmlns="http://www.w3.org/2000/svg" xmlns:xlink="http://www.w3.org/1999/xlink" x="0px" y="0px" width="612px"
	 height="792px" viewBox="0 0 612 792" enable-background="new 0 0 612 792" xml:space="preserve">
<g id="Layer_1">
</g>
<g id="Layer_2">
	<g>
		<path fill="#180B11" d="M281.003,511.026c0,0,0.039-2.128,0.107-5.851c0.043-1.834,0.095-4.061,0.155-6.615
			c0.028-1.264,0.057-2.609,0.088-4.027c-0.011-0.711,0.183-1.393,0.411-2.085c0.223-0.692,0.357-1.423,0.517-2.162
			c1.236-5.912,2.477-12.886,2.856-20.238c0.19-3.664,0.104-7.431-0.517-10.935c-0.339-1.724-0.819-3.375-1.496-4.736l-0.507-0.915
			l-0.867-1.275l-1.736-2.553l-1.736-2.553l-1.78-2.449c-1.186-1.625-2.368-3.243-3.541-4.849c-2.371-3.214-4.811-6.384-7.115-9.448
			c-4.681-6.106-9.088-11.784-12.901-16.627c-0.482-0.601-0.921-1.215-1.423-1.758c-0.527-0.523-0.968-1.093-1.257-1.759
			c-0.632-1.291-1.231-2.517-1.795-3.668c-1.117-2.312-2.046-4.364-2.823-6.046c-0.789-1.673-1.345-3.04-1.754-3.948
			c-0.39-0.924-0.598-1.417-0.598-1.417s0.436,0.31,1.254,0.891c0.801,0.596,2.006,1.444,3.464,2.587
			c1.473,1.131,3.265,2.503,5.259,4.129c0.994,0.816,2.052,1.684,3.167,2.599c0.583,0.438,1.043,0.996,1.425,1.638
			c0.409,0.62,0.903,1.195,1.373,1.81c3.827,4.862,8.257,10.567,12.969,16.715c2.335,3.106,4.762,6.258,7.203,9.566
			c1.217,1.668,2.443,3.349,3.674,5.037l1.84,2.537l1.736,2.553l1.736,2.553l0.867,1.275l0.054,0.08l0.114,0.178l0.121,0.214
			l0.241,0.43l0.474,0.864c1.149,2.316,1.778,4.632,2.221,6.879c0.792,4.486,0.842,8.748,0.643,12.787
			c-0.421,8.078-1.736,15.339-3.019,21.507c-0.15,0.774-0.356,1.516-0.445,2.268c-0.081,0.754-0.229,1.474-0.551,2.135
			c-0.622,1.326-1.213,2.577-1.797,3.741c-1.172,2.327-2.254,4.32-3.191,5.941c-0.925,1.624-1.734,2.866-2.265,3.715
			C281.318,510.587,281.003,511.026,281.003,511.026z"/>
	</g>
	<g>
		<path fill="#180B11" d="M275.134,410.165c0,0-1.638,1.358-4.505,3.734c-1.418,1.163-3.141,2.576-5.117,4.196
			c-0.976,0.803-2.015,1.658-3.11,2.559c-0.532,0.472-1.176,0.77-1.848,1.048c-0.67,0.282-1.312,0.657-1.976,1.018
			c-5.288,2.919-11.385,6.525-17.205,11.033c-2.901,2.245-5.702,4.767-7.953,7.522c-1.086,1.381-2.024,2.822-2.615,4.223
			l-0.363,0.981l-0.401,1.488l-0.803,2.98l-0.803,2.98l-0.696,2.946c-0.458,1.959-0.915,3.91-1.368,5.846
			c-0.89,3.894-1.702,7.811-2.523,11.556c-1.577,7.53-3.007,14.574-4.192,20.623c-0.141,0.757-0.321,1.491-0.405,2.226
			c-0.053,0.741-0.197,1.447-0.514,2.1c-0.567,1.321-1.105,2.575-1.61,3.752c-1.024,2.354-1.974,4.397-2.743,6.084
			c-0.753,1.689-1.428,3.002-1.849,3.904c-0.446,0.898-0.685,1.377-0.685,1.377s-0.049-0.533-0.142-1.532
			c-0.07-0.995-0.213-2.462-0.298-4.313c-0.104-1.854-0.232-4.108-0.299-6.68c-0.03-1.286-0.061-2.654-0.094-4.096
			c-0.048-0.728,0.075-1.44,0.313-2.148c0.203-0.715,0.317-1.464,0.477-2.221c1.19-6.072,2.627-13.151,4.215-20.732
			c0.832-3.796,1.639-7.691,2.555-11.699c0.471-2.01,0.946-4.036,1.423-6.07l0.724-3.05l0.803-2.98l0.803-2.98l0.401-1.488
			l0.025-0.093l0.061-0.202l0.083-0.232l0.169-0.463l0.345-0.923c1.006-2.381,2.353-4.368,3.767-6.17
			c2.885-3.526,6.083-6.343,9.274-8.826c6.399-4.948,12.761-8.687,18.274-11.736c0.684-0.391,1.382-0.719,2.01-1.142
			c0.624-0.43,1.267-0.788,1.978-0.975c1.411-0.393,2.745-0.761,4.008-1.077c2.528-0.629,4.745-1.109,6.585-1.454
			c1.834-0.358,3.304-0.554,4.294-0.706C274.595,410.213,275.134,410.165,275.134,410.165z"/>
	</g>
	<g>
		<path fill="#180B11" d="M284.52,411.333c0,0,2.197,0.68,5.921,2.122c1.861,0.722,4.095,1.647,6.632,2.767
			c1.259,0.578,2.599,1.193,4.012,1.841c0.715,0.316,1.332,0.8,1.927,1.343c0.6,0.538,1.281,0.995,1.943,1.51
			c5.353,4.038,11.522,8.867,17.821,14.565c3.141,2.865,6.311,5.949,9.324,9.461c1.49,1.788,2.972,3.621,4.273,5.815
			c0.343,0.509,0.633,1.133,0.942,1.707c0.317,0.559,0.581,1.223,0.838,1.885c0.279,0.622,0.476,1.385,0.655,2.147l0.133,0.567
			l0.016,0.071c-0.02-0.16,0.046,0.3,0.04,0.27l0.011,0.103l0.022,0.206l0.087,0.824c0.289,2.072,0.314,4.718,0.357,7.062
			c-0.047,2.266-0.051,4.542-0.187,6.744c-0.054,1.107-0.108,2.21-0.162,3.307c-0.076,1.089-0.152,2.173-0.227,3.251
			c-0.137,2.159-0.328,4.275-0.508,6.358c-0.737,8.329-1.63,16.051-2.441,22.662c-0.093,0.827-0.227,1.632-0.265,2.43
			c-0.003,0.803-0.116,1.573-0.398,2.301c-0.5,1.464-0.974,2.852-1.419,4.157c-0.91,2.605-1.772,4.861-2.482,6.718
			c-0.692,1.859-1.319,3.305-1.717,4.295c-0.422,0.985-0.647,1.511-0.647,1.511s-0.064-0.568-0.185-1.632
			c-0.097-1.06-0.294-2.623-0.448-4.594c-0.171-1.974-0.397-4.37-0.594-7.105c-0.097-1.366-0.2-2.82-0.309-4.352
			c-0.088-0.77,0.002-1.536,0.191-2.308c0.157-0.776,0.223-1.582,0.333-2.4c0.804-6.55,1.687-14.2,2.411-22.383
			c0.177-2.045,0.365-4.125,0.497-6.223c0.074-1.05,0.147-2.106,0.222-3.168c0.051-1.056,0.103-2.118,0.155-3.184
			c0.133-2.142,0.132-4.254,0.179-6.39c-0.059-2.055,0.005-3.842-0.306-6.155l-0.087-0.824l-0.022-0.206l-0.011-0.103
			c-0.008-0.065,0.051,0.362,0.021,0.168l-0.009-0.03l-0.068-0.237c-0.082-0.313-0.131-0.628-0.318-1.013
			c-0.146-0.366-0.273-0.735-0.508-1.134c-0.219-0.393-0.376-0.783-0.654-1.185c-0.939-1.603-2.216-3.203-3.51-4.752
			c-2.654-3.096-5.626-6.005-8.608-8.722c-5.996-5.426-12.02-10.149-17.252-14.093c-0.656-0.49-1.284-0.992-1.956-1.404
			c-0.675-0.407-1.309-0.838-1.813-1.415c-1.034-1.125-2.014-2.193-2.936-3.196c-1.845-2.032-3.453-3.804-4.777-5.262
			c-1.319-1.489-2.355-2.659-3.062-3.456C284.895,411.765,284.52,411.333,284.52,411.333z"/>
	</g>
	<path fill="#F54748" stroke="#180B11" stroke-miterlimit="10" d="M493.185,412.818c-17.126,44.586-96.258,75.885-112.203,75.885
		c-8.858,1.476-125.785,2.362-107.478-75.885c0-46.313,50.943-98.386,109.841-83.857C447.418,346.677,467.796,372,493.185,412.818z"
		/>
	<g>
		<defs>
			<path id="SVGID_1_" d="M493.185,412.818c-17.126,44.586-96.258,75.885-112.203,75.885c-8.858,1.476-125.785,2.362-107.478-75.885
				c0-46.313,50.943-98.386,109.841-83.857C447.418,346.677,467.796,372,493.185,412.818z"/>
		</defs>
		<clipPath id="SVGID_2_">
			<use xlink:href="#SVGID_1_"  overflow="visible"/>
		</clipPath>
		<g clip-path="url(#SVGID_2_)">
			<path fill="none" stroke="#EE7159" stroke-width="9" stroke-miterlimit="10" d="M326.333,298.333
				c0,0,89.333,74.983-16.333,245.491"/>
			<path fill="none" stroke="#EE7159" stroke-width="9" stroke-miterlimit="10" d="M357.787,292.877
				c0,0,89.333,74.983-16.333,245.491"/>
			<path fill="none" stroke="#EE7159" stroke-width="9" stroke-miterlimit="10" d="M392.333,298.333
				c0,0,89.333,74.983-16.333,245.491"/>
			<path fill="none" stroke="#EE7159" stroke-width="9" stroke-miterlimit="10" d="M426.726,298.333
				c0,0,89.333,74.983-16.333,245.491"/>
			<path fill="none" stroke="#EE7159" stroke-width="9" stroke-miterlimit="10" d="M447.339,301.277
				c0,0,89.333,74.983-16.333,245.491"/>
			<path fill="none" stroke="#EE7159" stroke-width="9" stroke-miterlimit="10" d="M296.53,309.097
				c0,0,89.333,74.983-16.333,245.491"/>
			<path fill="none" stroke="#EE7159" stroke-width="9" stroke-miterlimit="10" d="M262.092,307.236
				c0,0,89.333,74.983-16.333,245.491"/>
		</g>
	</g>
	<g>
		<path fill="#180B11" d="M148.252,370.391c0.001-0.047,0.031-0.451,0.038-1.477c0.008-1.001-0.021-2.502-0.163-4.417
			c-0.284-3.822-0.985-9.351-2.959-15.684c-0.983-3.162-2.281-6.519-3.994-9.903c-1.717-3.378-3.826-6.804-6.446-10.014
			c-2.609-3.217-5.687-6.24-9.152-8.912c-3.462-2.671-7.29-5.034-11.389-6.875c-4.078-1.873-8.346-3.41-12.683-4.462
			c-1.085-0.257-2.149-0.594-3.241-0.784c-1.089-0.209-2.173-0.416-3.25-0.622c-2.145-0.432-4.351-0.729-6.473-1.092
			c-2.134-0.346-4.232-0.686-6.285-1.02c-2.054-0.342-4.062-0.661-6.02-0.911c-3.917-0.512-7.613-1.106-11.046-1.459
			c-3.432-0.342-6.576-0.777-9.375-0.923c-1.399-0.1-2.709-0.193-3.92-0.28c-1.212-0.059-2.325-0.068-3.332-0.101
			c-1.008-0.038-1.906-0.048-2.687-0.004c-0.781,0.034-1.449,0.026-1.985,0.083c-0.537,0.058-0.948,0.102-1.225,0.132
			c-0.273,0.055-0.415,0.084-0.415,0.084s0.14-0.035,0.411-0.103c0.276-0.043,0.686-0.107,1.22-0.191
			c0.536-0.082,1.203-0.106,1.985-0.177c0.783-0.081,1.684-0.114,2.694-0.124c1.01-0.015,2.13-0.059,3.348-0.057
			c1.217,0.029,2.534,0.06,3.94,0.094c2.82,0.014,5.98,0.299,9.442,0.479c3.461,0.191,7.191,0.61,11.153,0.938
			c1.984,0.159,4.008,0.383,6.073,0.627c2.067,0.235,4.179,0.476,6.326,0.72c2.153,0.264,4.318,0.449,6.554,0.789
			c1.117,0.159,2.24,0.32,3.369,0.481c1.133,0.144,2.247,0.436,3.381,0.649c4.531,0.875,9.055,2.259,13.439,4.027
			c8.802,3.488,16.799,9.17,22.791,15.898c3.012,3.354,5.489,6.973,7.532,10.562c2.04,3.595,3.625,7.179,4.857,10.565
			c2.471,6.782,3.518,12.735,4.031,16.923c0.256,2.099,0.368,3.766,0.415,4.926c0.05,1.135,0.038,1.883,0.039,1.836L148.252,370.391
			z"/>
	</g>
	<path fill="#F54748" stroke="#180B11" stroke-miterlimit="10" d="M203.644,406.113c12.409-32.847,15.815-33.82,27.98-42.929
		c18.757-7.34,54.35,0.167,67.493,8.592c22.291,14.29,19.833,22.708,21.049,40.47c1.266,18.477-34.431,33.523-42.8,35.257
		C268.998,449.236,195.615,454.044,203.644,406.113z"/>
	<path fill="#F54748" stroke="#180B11" stroke-miterlimit="10" d="M176.447,250"/>
	<g>
		<path fill="#180B11" d="M261.616,413.75c0,0-0.544,0.464-1.564,1.334c-1.031,0.848-2.517,2.139-4.457,3.686
			c-1.93,1.567-4.267,3.475-6.977,5.604c-1.356,1.06-2.8,2.188-4.321,3.377c-0.752,0.609-1.619,1.062-2.531,1.48
			c-0.909,0.425-1.786,0.953-2.703,1.457c-7.296,4.088-15.782,8.907-24.752,14.229c-4.482,2.663-9.087,5.452-13.684,8.37
			c-4.57,2.921-9.24,5.962-13.386,9.218c-1.015,0.808-2.005,1.65-2.768,2.426c-0.347,0.351-0.717,0.805-0.708,0.826
			c-0.007,0.009,0.078-0.121,0.076-0.188c0.142-0.458,0.029-0.091,0.057-0.177l-0.017,0.063l-0.034,0.126l-0.069,0.252l-0.135,0.501
			l-0.051,0.34c-0.036,0.25-0.08,0.395-0.124,0.73l-0.132,0.945c-0.093,0.622-0.15,1.304-0.228,1.951
			c-0.133,1.324-0.25,2.663-0.346,4.011c-0.395,5.385-0.611,10.776-0.8,15.982c-0.357,10.426-0.524,20.191-0.639,28.56
			c-0.006,1.046-0.051,2.07-0.003,3.072c0.08,1.002,0.062,1.98-0.138,2.932c-0.33,1.905-0.644,3.712-0.938,5.41
			c-0.563,3.398-1.134,6.362-1.59,8.804c-0.439,2.442-0.861,4.362-1.113,5.672c-0.276,1.31-0.423,2.008-0.423,2.008
			s-0.145-0.699-0.417-2.01c-0.247-1.311-0.657-3.235-1.072-5.685c-0.433-2.45-0.968-5.426-1.472-8.841
			c-0.262-1.708-0.54-3.527-0.834-5.443c-0.179-0.959-0.178-1.941-0.072-2.945c0.073-1.004,0.05-2.033,0.075-3.083
			c0.116-8.402,0.283-18.203,0.644-28.731c0.192-5.269,0.408-10.704,0.817-16.297c0.1-1.397,0.223-2.811,0.367-4.243
			c0.086-0.728,0.145-1.43,0.255-2.183l0.157-1.12c0.046-0.355,0.157-0.89,0.24-1.325l0.141-0.687l0.137-0.508l0.069-0.252
			l0.034-0.126l0.017-0.063l0.095-0.301c0.151-0.381,0.355-0.841,0.528-1.13c0.708-1.192,1.304-1.765,1.914-2.425
			c1.197-1.214,2.354-2.173,3.521-3.108c4.655-3.649,9.381-6.703,14.078-9.712c4.697-2.981,9.358-5.804,13.888-8.495
			c9.061-5.376,17.593-10.22,24.928-14.33c0.913-0.521,1.828-0.993,2.671-1.545c0.84-0.558,1.686-1.06,2.605-1.377
			c1.823-0.66,3.552-1.287,5.177-1.875c3.258-1.159,6.134-2.098,8.502-2.869c2.357-0.791,4.253-1.327,5.529-1.722
			C260.928,413.947,261.616,413.75,261.616,413.75z"/>
	</g>
	<g>
		<path fill="#180B11" d="M283.399,429.982c0,0-1.368,1.63-3.762,4.482c-1.187,1.399-2.628,3.098-4.281,5.046
			c-0.816,0.965-1.685,1.993-2.6,3.075c-0.439,0.56-1.018,0.969-1.631,1.362c-0.609,0.398-1.172,0.882-1.761,1.356
			c-4.678,3.82-10.029,8.462-14.947,13.941c-2.451,2.729-4.754,5.712-6.474,8.827c-0.82,1.554-1.485,3.139-1.815,4.624l-0.182,1.03
			l-0.128,1.536l-0.256,3.076l-0.256,3.076l-0.156,3.023c-0.099,2.009-0.198,4.011-0.296,5.997c-0.177,3.99-0.273,7.99-0.409,11.821
			c-0.2,7.691-0.343,14.877-0.424,21.041c-0.002,0.77-0.048,1.524,0.001,2.262c0.081,0.738,0.065,1.459-0.129,2.159
			c-0.321,1.402-0.625,2.731-0.911,3.98c-0.585,2.5-1.153,4.68-1.607,6.477c-0.438,1.797-0.866,3.21-1.119,4.173
			c-0.278,0.964-0.426,1.478-0.426,1.478s-0.144-0.515-0.414-1.481c-0.248-0.967-0.651-2.384-1.067-4.19
			c-0.435-1.806-0.965-4-1.493-6.517c-0.26-1.259-0.536-2.6-0.828-4.012c-0.178-0.707-0.185-1.43-0.078-2.169
			c0.072-0.74,0.049-1.497,0.07-2.271c0.081-6.187,0.225-13.409,0.426-21.152c0.137-3.884,0.232-7.86,0.414-11.967
			c0.103-2.062,0.206-4.14,0.31-6.227c0.055-1.042,0.11-2.085,0.165-3.13l0.256-3.076l0.256-3.076l0.128-1.536l0.008-0.096
			l0.024-0.21l0.04-0.243l0.083-0.486l0.174-0.97c0.562-2.523,1.531-4.72,2.598-6.746c2.205-3.987,4.846-7.332,7.54-10.347
			c5.407-6.016,10.995-10.836,15.872-14.825c0.603-0.507,1.23-0.955,1.772-1.484c0.537-0.535,1.105-1.003,1.771-1.314
			c1.318-0.64,2.564-1.241,3.75-1.779c2.374-1.072,4.469-1.942,6.217-2.612c1.74-0.681,3.151-1.138,4.098-1.464
			C282.878,430.125,283.399,429.982,283.399,429.982z"/>
	</g>
	<g>
		<path fill="#180B11" d="M297.5,432c0,0,2.197,0.68,5.921,2.122c1.861,0.722,4.095,1.647,6.632,2.767
			c1.259,0.578,2.599,1.193,4.012,1.841c0.715,0.316,1.332,0.8,1.927,1.343c0.6,0.538,1.281,0.995,1.943,1.51
			c5.353,4.038,11.522,8.867,17.821,14.565c3.141,2.865,6.311,5.949,9.324,9.461c1.49,1.788,2.972,3.621,4.273,5.815
			c0.343,0.509,0.633,1.133,0.942,1.707c0.317,0.559,0.581,1.223,0.838,1.885c0.279,0.622,0.476,1.385,0.655,2.147l0.133,0.567
			l0.016,0.071c-0.02-0.16,0.046,0.3,0.04,0.27l0.011,0.103l0.022,0.206l0.087,0.824c0.289,2.072,0.314,4.718,0.357,7.062
			c-0.047,2.266-0.051,4.542-0.187,6.744c-0.054,1.107-0.108,2.21-0.162,3.307c-0.076,1.089-0.152,2.173-0.227,3.251
			c-0.137,2.159-0.328,4.275-0.508,6.358c-0.737,8.329-1.63,16.051-2.441,22.662c-0.093,0.827-0.227,1.632-0.265,2.43
			c-0.003,0.803-0.116,1.573-0.398,2.301c-0.5,1.464-0.974,2.852-1.419,4.157c-0.91,2.605-1.772,4.861-2.482,6.718
			c-0.692,1.859-1.319,3.305-1.717,4.295C342.225,549.474,342,550,342,550s-0.064-0.568-0.185-1.632
			c-0.097-1.06-0.294-2.623-0.448-4.594c-0.171-1.974-0.397-4.37-0.594-7.105c-0.097-1.366-0.2-2.82-0.309-4.352
			c-0.088-0.77,0.002-1.536,0.191-2.308c0.157-0.776,0.223-1.582,0.333-2.4c0.804-6.55,1.687-14.2,2.411-22.383
			c0.177-2.045,0.365-4.125,0.497-6.223c0.074-1.05,0.147-2.106,0.222-3.168c0.051-1.056,0.103-2.118,0.155-3.184
			c0.133-2.142,0.132-4.254,0.179-6.39c-0.059-2.055,0.005-3.842-0.306-6.155l-0.087-0.824l-0.022-0.206l-0.011-0.103
			c-0.008-0.065,0.051,0.362,0.021,0.168l-0.009-0.03l-0.068-0.237c-0.082-0.313-0.131-0.628-0.318-1.013
			c-0.146-0.366-0.273-0.735-0.508-1.134c-0.219-0.393-0.376-0.783-0.654-1.185c-0.939-1.603-2.216-3.203-3.51-4.752
			c-2.654-3.096-5.626-6.005-8.608-8.722c-5.996-5.426-12.02-10.149-17.252-14.093c-0.656-0.49-1.284-0.992-1.956-1.404
			c-0.675-0.407-1.309-0.838-1.813-1.415c-1.034-1.125-2.014-2.193-2.936-3.196c-1.845-2.032-3.453-3.804-4.777-5.262
			c-1.319-1.489-2.355-2.659-3.062-3.456C297.875,432.432,297.5,432,297.5,432z"/>
	</g>
	<g>
		<path fill="#ED2F30" d="M120.252,420.63c0,0-0.2-0.019-0.574-0.056c-0.226-0.045-0.885-0.045-1.623-0.058
			c-0.779,0.036-1.728,0.046-2.848,0.195c-1.118,0.077-2.38,0.362-3.773,0.603c-1.369,0.369-2.894,0.673-4.446,1.259
			c-0.776,0.286-1.612,0.49-2.407,0.862c-0.808,0.347-1.634,0.702-2.474,1.063c-0.862,0.326-1.652,0.836-2.503,1.262
			c-0.83,0.462-1.716,0.864-2.538,1.391c-0.824,0.531-1.655,1.066-2.488,1.603l-1.261,0.811l-1.195,0.913
			c-1.574,1.245-3.253,2.397-4.678,3.8c-0.741,0.675-1.476,1.345-2.202,2.006c-0.359,0.337-0.74,0.65-1.075,1.002
			c-0.332,0.356-0.661,0.709-0.988,1.059c-1.298,1.412-2.608,2.746-3.768,4.084c-1.107,1.388-2.153,2.7-3.119,3.912
			c-0.481,0.61-0.959,1.186-1.385,1.754c-0.4,0.585-0.779,1.141-1.135,1.662c-0.715,1.047-1.338,1.96-1.852,2.712
			c-1.03,1.51-1.619,2.373-1.619,2.373s0.453-0.94,1.245-2.584c0.398-0.825,0.881-1.827,1.435-2.977
			c0.278-0.577,0.574-1.19,0.887-1.837c0.34-0.631,0.729-1.276,1.119-1.961c0.791-1.37,1.648-2.854,2.554-4.424
			c0.97-1.533,2.093-3.089,3.211-4.742c0.283-0.412,0.568-0.827,0.855-1.245c0.292-0.415,0.632-0.796,0.95-1.201
			c0.65-0.801,1.308-1.612,1.972-2.429c1.275-1.691,2.843-3.169,4.325-4.748l1.132-1.167l1.218-1.076
			c0.816-0.718,1.629-1.434,2.436-2.144c0.813-0.708,1.708-1.302,2.551-1.95c0.867-0.614,1.67-1.306,2.574-1.823
			c0.886-0.551,1.757-1.092,2.61-1.622c0.843-0.554,1.757-0.945,2.605-1.408c1.692-0.938,3.423-1.588,4.995-2.263
			c1.624-0.556,3.104-1.116,4.495-1.441c1.361-0.391,2.614-0.612,3.642-0.81c1.077-0.152,1.847-0.273,2.597-0.306
			c0.601-0.032,0.922-0.049,0.922-0.049L120.252,420.63z"/>
	</g>
	<g>
		<path fill="#180B11" d="M142.714,367.771c-0.013-0.045-0.105-0.44-0.405-1.421c-0.291-0.957-0.767-2.382-1.474-4.167
			c-1.412-3.563-3.731-8.631-7.506-14.085c-1.882-2.724-4.123-5.54-6.767-8.259c-2.647-2.711-5.682-5.352-9.141-7.633
			c-3.45-2.291-7.29-4.258-11.395-5.774c-4.101-1.516-8.461-2.629-12.921-3.162c-4.451-0.57-8.983-0.763-13.437-0.472
			c-1.112,0.078-2.228,0.075-3.328,0.219c-1.102,0.126-2.198,0.251-3.287,0.376c-2.176,0.227-4.37,0.603-6.504,0.89
			c-2.14,0.307-4.244,0.608-6.303,0.903c-2.062,0.286-4.075,0.582-6.017,0.927c-3.891,0.681-7.596,1.217-10.977,1.905
			c-3.378,0.698-6.508,1.222-9.223,1.918c-1.365,0.322-2.643,0.624-3.825,0.903c-1.174,0.305-2.24,0.629-3.211,0.898
			c-0.973,0.264-1.834,0.524-2.566,0.798c-0.735,0.265-1.375,0.458-1.87,0.671c-0.495,0.216-0.874,0.381-1.13,0.492
			c-0.245,0.134-0.371,0.203-0.371,0.203s0.123-0.075,0.361-0.221c0.251-0.124,0.623-0.307,1.108-0.546
			c0.487-0.238,1.116-0.461,1.841-0.762c0.723-0.31,1.573-0.611,2.534-0.922c0.959-0.316,2.015-0.692,3.178-1.054
			c1.17-0.336,2.436-0.699,3.789-1.087c2.695-0.828,5.796-1.5,9.154-2.361c3.361-0.851,7.046-1.565,10.924-2.434
			c1.941-0.44,3.939-0.831,5.983-1.215c2.043-0.392,4.13-0.793,6.253-1.201c2.134-0.391,4.255-0.86,6.491-1.204
			c1.113-0.181,2.233-0.363,3.359-0.546c1.124-0.201,2.275-0.255,3.42-0.39c4.586-0.517,9.316-0.547,14.029-0.168
			c9.441,0.702,18.77,3.738,26.497,8.371c3.876,2.302,7.32,5.017,10.341,7.832c3.02,2.823,5.603,5.77,7.789,8.633
			c4.383,5.735,7.159,11.105,8.898,14.948c0.87,1.927,1.476,3.485,1.867,4.577c0.386,1.068,0.598,1.786,0.585,1.74L142.714,367.771z
			"/>
	</g>
	
		<ellipse transform="matrix(0.9311 -0.3648 0.3648 0.9311 -131.9085 76.3855)" fill="#060606" stroke="#FFFFFF" stroke-width="6" stroke-miterlimit="10" cx="136.25" cy="387.375" rx="8.25" ry="5.375"/>
	<path fill="#F54748" stroke="#180B11" stroke-miterlimit="10" d="M232.225,355.587c13.927,25.431-0.534,72.175-40.957,82.287
		c-24.778,6.198-80.152,13.491-91.391-9.808c-11.239-23.299,26.056-68.938,40.957-82.287
		C171.87,317.977,218.298,330.156,232.225,355.587z"/>
	<path fill="#060606" stroke="#FFFFFF" stroke-width="3" stroke-miterlimit="10" d="M158.58,376.85
		c1.77,4.519-2.034,11.716-9.353,13.102c-8.417,1.593-16.136,1.577-15.764-3.262c0.263-3.421,1.966-8.769,9.353-13.102
		C149.242,369.819,156.81,372.332,158.58,376.85z"/>
	<g>
		<path fill="#ED2F30" d="M134.294,433.235c0,0-0.102,0.258-0.294,0.742c-0.226,0.596-0.549,1.269-0.961,2.121
			c-0.444,0.828-0.945,1.847-1.631,2.923c-0.338,0.539-0.698,1.112-1.077,1.716c-0.41,0.577-0.842,1.183-1.292,1.815
			c-0.433,0.642-0.957,1.254-1.481,1.897c-0.539,0.631-1.041,1.324-1.656,1.952c-1.21,1.272-2.448,2.631-3.9,3.855
			c-0.721,0.614-1.386,1.307-2.179,1.872c-0.772,0.582-1.554,1.17-2.342,1.764c-0.764,0.618-1.627,1.113-2.464,1.641
			c-0.838,0.52-1.679,1.042-2.521,1.564c-1.773,0.882-3.505,1.813-5.263,2.59c-1.803,0.685-3.539,1.419-5.257,1.996
			c-1.74,0.493-3.421,0.97-5.016,1.422c-1.605,0.382-3.152,0.611-4.553,0.889c-0.702,0.13-1.374,0.254-2.014,0.373
			c-0.638,0.119-1.262,0.136-1.837,0.203c-1.151,0.109-2.155,0.203-2.981,0.281c-1.644,0.154-2.583,0.242-2.583,0.242
			s0.914-0.242,2.512-0.666c0.795-0.211,1.76-0.467,2.867-0.761c0.549-0.159,1.145-0.274,1.748-0.494
			c0.602-0.219,1.235-0.449,1.896-0.69c1.312-0.497,2.752-0.959,4.22-1.579c1.436-0.679,2.95-1.395,4.517-2.136
			c1.521-0.812,3.023-1.772,4.57-2.668c1.496-0.986,2.932-2.105,4.388-3.151c0.674-0.595,1.348-1.189,2.019-1.781
			c0.665-0.593,1.353-1.147,1.933-1.812c0.601-0.633,1.197-1.261,1.786-1.881c0.607-0.597,1.078-1.308,1.609-1.935
			c1.073-1.25,1.924-2.594,2.763-3.825c0.43-0.608,0.746-1.268,1.107-1.863c0.346-0.606,0.697-1.178,0.958-1.767
			c0.28-0.576,0.548-1.127,0.804-1.652c0.22-0.534,0.43-1.04,0.626-1.516c0.405-0.943,0.645-1.788,0.876-2.46
			c0.193-0.679,0.346-1.21,0.382-1.457c0.076-0.356,0.117-0.546,0.117-0.546L134.294,433.235z"/>
	</g>
</g>
</svg>
