<?xml version="1.0" encoding="utf-8"?>
<!-- Generator: Adobe Illustrator 17.0.0, SVG Export Plug-In . SVG Version: 6.00 Build 0)  -->
<!DOCTYPE svg PUBLIC "-//W3C//DTD SVG 1.1//EN" "http://www.w3.org/Graphics/SVG/1.1/DTD/svg11.dtd">
<svg version="1.1" id="Layer_1" xmlns="http://www.w3.org/2000/svg" xmlns:xlink="http://www.w3.org/1999/xlink" x="0px" y="0px"
	 width="612px" height="792px" viewBox="0 0 612 792" enable-background="new 0 0 612 792" xml:space="preserve">
<path fill="#FEFEFE" d="M-109.6,1137.689c0-493.76,0-987.52,0-1481.28c277.76,0,555.52,0,833.28,0c0,493.76,0,987.52,0,1481.28
	C445.92,1137.689,168.16,1137.689-109.6,1137.689z"/>
<path fill="#131313" d="M172.569,519.593c-1.787-2.415-2.071-5.162-2.115-8.088c-0.943-62.648-1.943-125.295-2.917-187.942
	c-0.02-1.265,0.135-2.533,0.208-3.8c1.667-0.425,1.867,0.937,2.117,1.925c2.337,9.243,5.998,17.867,11.685,25.577
	c0.383,0.519,0.432,1.195,0.5,1.833c0.92,9.721,3.08,19.244,4.805,28.828c6.748,37.479,16.287,74.326,25.562,111.23
	c0.081,0.322,0.215,0.6,0.815,1.267c3.424-4.214,6.243-8.772,9.31-13.111c15.869-22.453,31.069-45.384,47.977-67.095
	c0.983-1.262,1.801-2.583,2.088-4.246c0.763-4.42,3.377-7.197,7.463-8.029c4.301-0.875,6.112,2.729,8.681,4.943
	c0.353,0.304,0.647,0.812,0.626,1.267c-0.482,10.301,6.664,17.369,11.264,25.297c16.524,28.48,33.974,56.422,49.296,85.597
	c0.222,0.423,0.511,0.811,1.285,1.121c1.647-1.493,2.027-3.758,2.796-5.76c11.347-29.548,22.033-59.355,34.636-88.412
	c1.147-2.644,2.498-5.185,3.682-7.808c0.941-2.083,1.343-4.125,0.812-6.491c-0.863-3.852,3.373-9.01,7.443-9.444
	c3.544-0.378,9.377,3.752,9.448,7.021c0.053,2.458,1.083,4.27,2.501,6.038c13.901,17.333,28.3,34.241,43.308,50.633
	c6.215,7.099,13.263,13.364,20.702,21.216c0.079-6.242,0.386-11.364,0.772-16.435c2.147-28.208,6.378-56.146,10.282-84.134
	c1.564-11.211,3.237-22.421,4.119-33.719c0.082-2.013,1.28-3.535,2.316-5.111c5.1-7.76,8.592-16.167,10.409-25.284
	c0.274-1.377-0.136-3.403,2.253-3.506c0.058,1.589,0.178,3.179,0.166,4.767c-0.367,48.379-0.746,96.758-1.125,145.136
	c-0.03,3.832-0.058,7.647,0.792,11.437c0.413,1.841,0.608,3.785,0.187,5.7c-1.381,9.156-6.61,16.206-12.514,22.895
	c-28.721,28.271-64.865,39.753-103.456,45.508c-17.846,2.661-35.873,3.601-53.84,5.161c-38.179,3.317-73.454-6.589-107.871-21.384
	c-14.102-6.062-27.698-13.176-41.166-20.534c-1.487-0.812-3.107-2.841-4.954-0.408c-0.103,0.12-0.202,0.25-0.328,0.342
	c-2.161,1.586-1.592-3.344-3.814-1.602c-2.133,1.672-4.166,3.429-5.095,6.113C173.471,518.704,173.131,519.239,172.569,519.593z"/>
<path fill="#131313" d="M165.924,293.849c-0.049-0.471-0.218-0.967-0.128-1.41c1.091-5.338,0.744-10.754,0.954-16.142
	c0.279-7.156,2.727-13.713,6.169-19.865c3.75-6.702,8.56-12.618,14.377-17.677c4.076-1.845,10.031,1.077,11.459,5.623
	c-4.426,5.843-10.1,10.627-13.922,17.018c-7.822,13.08-6.886,28.602,2.486,40.854c10.933,14.293,25.69,23.328,41.711,30.573
	c24,10.853,49.413,16.687,75.48,18.963c43.711,3.817,86.892,1.131,128.558-14.158c18.472-6.778,35.689-15.703,49.342-30.401
	c5.216-5.615,9.158-11.959,11.13-19.337c3.71-13.884-2.013-25.094-10.958-34.955c-14.151-15.601-32.456-24.624-51.932-31.519
	c-21.976-7.78-44.645-12.182-67.91-13.82c-5.242-0.369-10.528-0.452-15.753-1.212c-3.262-0.881-6.591-0.4-9.887-0.501
	c-6.096-0.188-9.991-5.412-8.816-11.897c11.04-0.321,22.068-0.221,33.09,0.629c7.018,0.542,14.02,1.175,20.992,2.165
	c21.599,3.068,42.669,8.169,62.86,16.534c12.744,5.28,24.824,11.793,35.665,20.416c8.466,6.734,15.797,14.475,20.864,24.149
	c3.775,7.207,5.73,14.873,5.736,23.031c0.002,2.708,0.156,5.416,0.241,8.124c-2.043,8.871-6.267,16.739-11.163,24.303
	c-2.267,0.801-3.251,2.991-4.778,4.558c-17.704,18.172-39.885,28.477-63.512,36.208c-19.078,6.242-38.744,9.874-58.656,11.806
	c-19.57,1.898-39.214,1.833-58.865,0.436c-22.599-1.607-44.706-5.646-66.225-12.663c-20.976-6.84-40.655-16.169-57.534-30.797
	c-3.483-3.018-5.626-7.376-9.917-9.495c-3.982-7.398-9.027-14.345-9.954-23.067c-0.053-0.638-0.672,0.17-0.078-0.068
	c0.188-0.075,0.368,0.091,0.252,0.385C166.874,291.721,168.536,293.717,165.924,293.849z"/>
<path fill="#759007" d="M328.284,193.987c0.64,3.305,2.495,6.127,3.664,9.222c0.469,1.242,1.534,1.452,2.712,1.453
	c3.168,0.004,6.336,0.015,9.503,0.062c0.924,0.014,1.914-0.207,2.721,0.497c-2.112,2.525-5.032,1.531-7.57,1.466
	c-3.491-0.089-4.22,0.854-2.759,4.068c5.869,12.915,11.163,26.083,17.011,39.01c0.969,2.142,2.406,4.204,1.635,6.782
	c-6.511,1.897-12.874,4.083-18.069,8.73c-0.588,0.526-1.49,0.419-2.267,0.122c-3.381-3.955-4.674-8.974-6.716-13.58
	c-6.637-14.971-12.891-30.111-19.768-44.975c-1.727-4.052-2.544-8.662-6.841-11.142c0.435-0.181,0.868-0.367,1.306-0.542
	c1.5-0.597,1.636-0.755,1.118-1.976c-2.246-5.296-4.511-10.584-6.805-15.859c-7.07-16.266-14.159-32.523-21.235-48.786
	c-11.281-25.929-22.56-51.859-33.829-77.794c-1.073-2.469-2.068-4.972-3.214-7.738c6.527-2.984,12.868-5.849,19.645-8.535
	c1.454,3.22,2.863,6.238,4.19,9.292c8.469,19.49,16.923,38.985,25.375,58.482c8.008,18.473,16.005,36.951,24.015,55.423
	c4.704,10.847,9.413,21.692,14.152,32.525C326.832,191.502,327.604,192.725,328.284,193.987z"/>
<path fill="#759007" d="M198.852,243.576c-2.75-2.277-6.15-3.344-9.251-4.967c-0.807-0.422-1.542,0.092-2.308,0.15
	c-0.014-1.178-0.888-1.567-1.768-1.982c-5.197-2.456-10.385-4.931-15.582-7.387c-23.102-10.92-46.2-21.845-69.309-32.749
	c-13.576-6.406-27.17-12.773-40.753-19.164c-4.48-2.108-8.96-4.216-13.418-6.37c-1.469-0.71-1.58-1.088-0.856-2.635
	c2.504-5.353,5.03-10.697,7.582-16.027c0.698-1.458,1.017-1.568,2.628-0.817c7.237,3.374,14.459,6.778,21.679,10.188
	c17.183,8.116,34.359,16.247,51.543,24.362c20.362,9.615,40.726,19.223,61.095,28.822c5.057,2.383,10.145,4.699,15.199,7.088
	c1.169,0.553,2.304,1.106,3.64,0.974c4.988,0.961,8.85,4.854,14.012,5.369c10.89,6.673,22.827,11.228,34.229,16.862
	c4.415,2.182,8.938,4.158,13.286,6.496c0.403,0.275,0.739,0.616,1.022,1.01c0.267,0.416,0.379,0.873,0.347,1.365
	c-4.513,5.66-7.048,12.378-10.031,18.86c-3.846-0.047-6.962-2.257-10.223-3.771c-16.804-7.802-33.404-16.039-50.334-23.577
	C200.286,245.231,199.161,244.854,198.852,243.576z"/>
<path d="M496.25,313.059c1.412-1.448,0.774-3.658,2.014-5.234c1.068-1.358,1.913-2.913,2.712-4.457
	c1.818-3.511,3.764-6.975,4.522-10.932c0.272-1.42,0.65-2.819,2.234-3.4c1.251,4.679,0.926,9.45,0.634,14.181
	c-0.244,3.945-0.679,7.897-1.668,11.753c-0.494,0.426-0.867,0.928-0.883,1.606c-0.119,4.83-1.876,9.26-3.44,13.717
	c-2.321,6.613-6.014,12.494-10.074,18.158c0.277,3.483-2.383,5.374-4.316,7.522c-11.122,12.358-24.897,20.885-40.037,27.413
	c-8.093,3.489-16.492,6.074-24.904,8.664c-26.542,7.111-53.492,10.834-81.015,10.739c-17.596-0.061-35.138-0.411-52.594-2.798
	c-1.911-0.261-3.807-0.518-5.501-1.519c-1.417-0.849-2.935-1.092-4.548-0.714c-9.656-0.33-18.85-3.186-28.101-5.504
	c-20.274-5.08-39.517-12.57-55.916-26.043c-5.187-4.261-10.185-8.716-13.5-14.707c-0.246-0.433-0.415-0.895-0.508-1.384
	c-0.017-0.246-0.033-0.493-0.05-0.74c-0.062-1-0.498-1.83-1.246-2.464c-1.86-1.577-2.89-3.693-3.975-5.807
	c-2.378-4.632-4.661-9.298-6.113-14.318c-0.522-1.805-1.327-3.548-1.263-5.498c0.023-0.683-0.447-1.145-0.97-1.528
	c-0.946-5.615-2.025-11.212-2.194-16.928c-0.089-3.004-0.28-6.012,0.373-8.985c1.526-0.885,0.494-2.714,1.503-4.024
	c1.632,6.253,4.384,11.854,7.616,17.211c0.849,1.408,1.556,2.716,1.487,4.378c-0.028,0.676,0.348,1.196,0.825,1.642
	c1.344,0.849,1.719,2.275,2.067,3.661c6.869,27.381,25.381,44.046,50.475,54.438c19.943,8.259,40.883,12.769,62.238,15.389
	c18.736,2.298,37.567,3.863,56.433,2.873c34.158-1.793,67.927-6.01,99.373-20.751c22.562-10.576,39.464-26.479,46.088-51.456
	C494.442,315.649,494.938,314.137,496.25,313.059z"/>
<path d="M494.196,504.131c0.05-1.193,0.683-2.067,1.465-2.916c3.043-3.302,5.402-7.074,7.445-11.053
	c0.8-1.557,1.617-3.081,1.806-4.9c0.131-1.26,0.689-2.454,1.804-3.253c0.59,3.667,0.381,7.36-0.056,10.992
	c-0.935,7.78-2.443,15.459-5.113,22.862c-5.583,15.476-15.255,27.911-28.173,37.957c-13.571,10.553-28.991,17.331-45.318,22.23
	c-14.091,4.229-28.439,7.367-43.008,9.397c-25.263,3.521-50.614,4.341-76.069,2.476c-13.883-1.017-27.694-2.568-41.369-5.108
	c-15.863-2.947-31.551-6.637-46.667-12.438c-10.672-4.095-20.605-9.49-29.301-16.957c-10.157-8.721-16.794-19.555-19.088-32.874
	c-0.053-0.308,0.006-0.636,0.013-0.955c-0.191-2.537,0.779-4.478,2.684-6.197c1.646-1.485,3.359-2.783,5.402-3.987
	c1.202,1.289,0.002,3.297,1.466,4.298c1.574,1.172,1.809,2.998,2.088,4.694c2.157,13.085,10.267,22.103,20.364,29.673
	c10.808,8.103,23.348,12.553,36.135,16.248c23.297,6.731,47.145,9.998,71.329,11.608c11.843,0.789,23.677,1.141,35.46,0.631
	c33.055-1.432,65.652-5.696,96.332-19.194c22.976-10.108,40.347-25.678,48.235-50.293c0.272-0.694,0.647-1.33,1.143-1.888
	C493.533,504.834,493.864,504.482,494.196,504.131z"/>
<path fill="#131313" d="M222.111,228.81c-0.596,0.132-1.317,0.548-1.768,0.35c-3.679-1.618-7.407-3.154-10.781-5.382
	c-0.246-0.162-0.392-0.476-0.586-0.718c6.146-3.756,12.643-6.841,19.283-9.575c18.388-7.572,37.463-12.703,57.121-15.708
	c5.37-0.821,10.705-1.877,16.157-2.074c0.462,0.067,0.929,0.228,1.376,0.186c1.408-0.132,2.47,0.332,2.993,1.678
	c1.125,2.892,2.723,5.608,3.263,8.719c-2.434,2.338-5.687,1.911-8.58,2.248c-25.09,2.918-49.444,8.53-72.531,19.053
	C226.217,228.426,224.329,229.566,222.111,228.81z"/>
<path fill="#F8F8F8" d="M279.903,416.803c1.565,2.561,2.827,4.577,4.042,6.621c8.169,13.739,16.39,27.449,24.472,41.24
	c6.464,11.03,12.906,22.078,19.083,33.269c7.646,13.853,14.809,27.962,21.131,42.481c0.381,0.875,0.979,1.672,0.464,2.87
	c-3.076,0.254-6.241,0.566-9.413,0.767c-10.385,0.659-20.785,1.052-31.171,0.245c-10.694-0.83-21.229-2.752-31.616-5.426
	c-22.227-5.72-43.292-14.44-63.726-24.779c-0.428-0.216-0.906-0.357-1.288-0.633c-0.568-0.409-0.815-0.992-0.355-1.627
	c1.501-2.071,3.027-4.124,4.546-6.181c9.974-13.506,19.683-27.2,29.26-40.991c10.671-15.366,21.493-30.625,32.667-45.632
	C278.469,418.397,279.023,417.827,279.903,416.803z"/>
<path fill="#F8F8F8" d="M480.462,501.941c-2.653,3.076-5.731,5.105-8.686,7.215c-11.247,8.03-23.538,14.093-36.483,18.839
	c-12.627,4.63-25.664,7.627-38.914,9.906c-12.773,2.197-25.619,3.606-38.519,4.65c-1.094,0.089-2.221,0.391-3.303-0.104
	c-0.453-1.041,0.256-1.851,0.599-2.684c9.553-23.182,18.047-46.769,26.921-70.211c6.22-16.432,12.83-32.706,19.973-48.761
	c0.251-0.564,0.586-1.09,0.837-1.551c1.22-0.274,1.485,0.65,1.944,1.18c14.224,16.424,28.121,33.139,42.94,49.038
	c9.259,9.934,18.624,19.777,28.813,28.788C477.779,499.304,478.897,500.446,480.462,501.941z"/>
<path fill="#980034" d="M283.008,397.424c9.127,1.641,18.341,2.416,27.576,3.208c13.744,1.178,27.48,0.918,41.227,0.746
	c7.669-0.096,15.287-0.998,22.921-1.701c10.675-0.983,21.182-2.928,31.666-5.032c4.692-0.942,9.315-2.22,13.98-3.301
	c1.236-0.286,2.51-0.406,3.767-0.603c1.883,4.164-1.376,4.987-4.034,5.812c-6.523,2.026-6.531,1.925-5.244,8.634
	c0.278,1.45,0.749,2.74,1.716,3.885c6.387,7.558,12.412,15.409,18.757,23.007c6.289,7.531,12.851,14.798,19.391,22.097
	c2.182,2.436,3.169,5.285,0.033,7.942c-3.177-2.217-5.393-5.382-7.957-8.189c-3.336-3.652-6.439-7.515-9.674-11.26
	c-9.288-10.753-18.505-21.563-27.276-32.749c-1.238-1.579-1.698-2.813-0.966-4.719c0.72-1.875,0.486-2.096-1.158-3.001
	c-0.56-0.308-1.125-0.621-1.719-0.851c-1.902-0.736-3.782-2.861-5.644-2.052c-2.556,1.111-4.832,3.076-6.582,5.419
	c-0.538,0.721-0.509,1.62,0.084,2.211c1.82,1.815,1.318,3.722,0.436,5.701c-1.885,4.232-3.838,8.435-5.63,12.705
	c-4.141,9.865-8.37,19.699-12.259,29.664c-6.792,17.403-13.355,34.895-20.015,52.349c-1.366,3.579-2.723,7.162-4.132,10.725
	c-0.149,0.376-0.573,0.759-0.956,0.896c-0.526,0.189-0.853-0.292-1.082-0.715c-2.355-4.357-4.687-8.727-7.051-13.079
	c-9.76-17.974-20.149-35.579-30.698-53.102c-8.318-13.817-16.777-27.567-24.27-41.873c-0.851-1.625-1.199-2.784,0.096-4.24
	c0.721-0.811,0.565-1.77-0.32-2.517c-0.977-0.825-1.974-1.629-2.91-2.499c-3.59-3.335-3.305-2.801-6.971-0.883
	c-0.988,0.517-1.93,1.132-2.857,1.754c-1.862,1.249-2.008,1.317-1.301,3.418c0.483,1.436,0.159,2.403-0.695,3.493
	c-3.147,4.022-6.313,8.033-9.332,12.151c-9.065,12.367-17.985,24.837-26.672,37.475c-7.688,11.185-15.563,22.243-23.357,33.356
	c-0.361,0.515-0.667,1.112-1.65,1.086c-0.279-0.802-0.654-1.658-0.877-2.551c-4.444-17.802-9.007-35.576-13.257-53.424
	c-3.472-14.583-6.696-29.228-9.774-43.9c-1.701-8.108-2.838-16.333-4.295-24.493c-1.009-5.649-2.114-11.281-3.225-16.911
	c-0.166-0.842-0.26-1.556,0.493-2.134c0-0.001,0.083,0.121,0.083,0.121c0.229,0.361,0.507,0.68,0.841,0.948
	c5.495,8.262,12.976,14.459,20.989,20.08c8.156,5.721,17.069,9.956,26.332,13.588c12.994,5.095,26.55,8.102,40.09,11.159
	c3.075,0.694,6.219,1.522,9.456,1.364C280.277,397.537,281.816,396.617,283.008,397.424z"/>
<path fill="#00511F" d="M493.417,505.998c-1.077,5.373-3.243,10.342-5.838,15.113c-3.833,7.044-8.525,13.484-14.461,18.911
	c-8.544,7.81-18.125,14.088-28.792,18.607c-5.279,2.237-10.609,4.412-16.061,6.165c-6.507,2.093-13.13,3.864-19.775,5.474
	c-5.556,1.347-11.204,2.335-16.837,3.342c-3.593,0.642-7.274,0.83-10.84,1.58c-4.698,0.988-9.549,0.423-14.203,1.643
	c-0.458,0.12-0.951,0.148-1.427,0.146c-8.454-0.038-16.831,1.477-25.313,1.101c-5.742-0.255-11.503-0.057-17.255-0.093
	c-2.706-0.017-5.431,0.174-8.07-0.734c-0.583-0.201-1.272-0.19-1.902-0.143c-5.93,0.445-11.791-0.59-17.626-1.195
	c-9.626-0.998-19.226-2.332-28.761-4.186c-8.761-1.703-17.437-3.661-25.987-6.167c-13.359-3.914-26.413-8.625-37.602-17.207
	c-8.61-6.605-15.792-14.406-18.703-25.305c-0.822-3.078-1.552-6.165-1.841-9.344c0.073-1.263,0.147-2.527,0.216-3.695
	c0.892-0.849,1.633-0.262,2.234,0.103c12.302,7.476,25.239,13.754,38.22,19.901c12.83,6.076,26.121,11.07,39.665,15.365
	c8.507,2.697,17.172,4.852,25.915,6.493c6.217,1.167,12.503,2.473,18.926,2.174c6.783,1.556,13.672,0.719,20.515,0.885
	c1.909,0.047,3.785-0.113,5.693-0.535c1.994-0.441,4.122-0.281,6.191-0.377c3.652-0.169,7.345,0.367,10.941-0.805
	c0.877-0.286,1.902-0.125,2.86-0.15c2.863-0.076,5.747,0.184,8.542-0.793c0.724-0.253,1.583-0.156,2.38-0.158
	c5.27-0.015,10.429-0.971,15.617-1.736c2.825-0.417,5.678-0.646,8.516-1.028c14.219-1.916,28.184-4.869,41.916-9.04
	c8.411-2.554,16.607-5.695,24.425-9.613c5.972-2.993,12.233-5.625,17.619-9.634c5.993-4.46,12.467-8.353,17.477-14.065
	c1.115-1.271,2.147-2.884,4.205-2.869c-0.015,0.292-0.02,0.583-0.014,0.875C493.908,505.322,493.652,505.652,493.417,505.998z"/>
<path fill="#980034" d="M454.763,462.118c0.058-0.314,0.112-0.629,0.174-0.943c0.241-1.217,1.178-2.303,0.598-3.676
	c-0.697-1.649-1.478-3.34-3.183-4.039c-2.116-0.868-3.28-2.337-3.929-4.433c-0.386-1.248-1.184-2.352-2.322-2.962
	c-1.643-0.88-2.771-2.117-3.43-3.817c-0.56-1.443-1.591-2.478-3.039-2.839c-2.164-0.54-3.2-1.813-3.332-3.992
	c-0.027-0.444-0.373-0.873-0.589-1.301c-0.144-0.284-0.254-0.715-0.487-0.805c-3.274-1.272-3.552-5.229-6.267-6.956
	c-0.995-0.633-1.67-1.429-2.17-2.464c-0.694-1.437-1.379-2.868-3.012-3.567c-1.098-0.47-1.412-1.665-2.012-2.599
	c-1.799-2.801-3.482-5.702-6.196-7.78c-1.372-1.05-2.004-2.507-1.931-4.175c0.122-2.806-0.294-5.389-2.995-7.302
	c2.148-1.479,3.637-2.712,5.992-2.529c1.518,0.118,3.13-0.414,4.638-0.862c2.089-0.621,3.17-2.061,2.873-4.337
	c1.076-1.097,2.588-1.254,3.93-1.618c10.358-2.811,20.258-6.79,29.753-11.738c10.538-5.492,20.088-12.365,28.245-21.079
	c2.292-2.449,4.425-5.021,6.229-7.855c0.956,0.632,0.945,1.591,0.824,2.557c-1.26,10.099-2.447,20.209-3.824,30.292
	c-0.99,7.247-2.262,14.455-3.359,21.688c-0.477,3.145-0.853,6.307-1.235,9.465c-1.031,8.528-2.025,17.06-3.064,25.588
	c-0.846,6.946-1.738,13.886-2.601,20.829c-0.059,0.474-0.068,0.955-0.077,1.434c-0.136,7.808-1.435,15.56-1.133,23.39
	c0.016,0.418-0.197,0.845-0.281,1.179c-0.904,0.354-1.346-0.191-1.77-0.618c-6.522-6.566-13.031-13.146-19.536-19.729
	C455.57,463.842,454.949,463.11,454.763,462.118z"/>
<path fill="#F8F8F8" d="M180.251,397.559c0.984,4.363,2.057,8.708,2.936,13.092c3.583,17.873,7.997,35.55,12.401,53.231
	c3.554,14.268,6.982,28.566,9.872,42.987c0.332,1.013,0.541,2.017-0.212,2.953c-0.294,0.041-0.561-0.024-0.803-0.196
	c-0.455-0.12-0.802-0.429-1.184-0.678c-7.199-3.751-14.241-7.777-21.172-12.004c-1.214-0.741-1.949-1.571-1.798-3.035
	c0.033-0.315-0.003-0.637-0.008-0.956c-0.405-27.252-0.811-54.504-1.208-81.756c-0.009-0.632,0.095-1.266,0.146-1.9
	c-0.67-3.416-0.198-6.865-0.296-10.298C178.901,398.134,179.198,397.477,180.251,397.559z"/>
<path fill="#F5F5F5" d="M495.32,482.1c-0.905,4.005-3.423,7.136-5.663,10.413c-0.426,0.623-0.908,1.607-1.678,1.43
	c-1.275-0.293-0.742-1.554-0.731-2.4c0.231-17.076,1.525-34.074,3.751-51.005c1.164-8.849,2.253-17.708,3.376-26.562
	c1.549-0.061,1.272,1.13,1.272,1.99c0.003,21.742,0.072,43.484-0.033,65.226C495.612,481.495,495.424,481.797,495.32,482.1z"/>
<path fill="#8F9393" d="M495.32,482.1c-0.087-1.746-0.258-3.491-0.249-5.236c0.09-18.193,0.211-36.385,0.318-54.578
	c0.011-1.915-0.007-3.83-0.027-5.745c-0.01-0.972-0.119-1.918-0.987-2.566c-0.619-2.693,0.685-5.168,0.88-7.768
	c0.284-0.481,0.574-0.462,0.871-0.013c0.07,2.548,0.212,5.097,0.198,7.645c-0.115,21.043-0.246,42.086-0.419,63.129
	C495.891,478.68,496.349,480.487,495.32,482.1z"/>
<path fill="#CFD5D5" d="M180.251,397.559c-1.007,1.058-0.679,2.387-0.736,3.636c-0.122,2.7,0.326,5.421-0.294,8.103
	c-0.962-5.426-0.354-10.886-0.38-16.376C180.104,394.259,180.521,395.805,180.251,397.559z"/>
<path fill="#B09898" d="M205.248,509.822c0.071-0.985,0.141-1.969,0.212-2.953c0.903,0.788,1.009,1.822,0.736,2.872
	C206.074,510.21,205.614,510.328,205.248,509.822z"/>
<path fill="#575E5E" d="M496.125,406.194l-0.436-0.033c0,0-0.435,0.045-0.435,0.045c-0.007-0.468-0.071-0.945-0.002-1.402
	c0.042-0.279,0.288-0.528,0.443-0.79c0.159,0.259,0.415,0.504,0.454,0.779C496.215,405.25,496.141,405.727,496.125,406.194z"/>
<path fill="#B09898" d="M203.261,508.948c0.594-0.123,0.993,0.095,1.184,0.677C203.847,509.756,203.493,509.459,203.261,508.948z"/>
<path fill="#F8F8F8" d="M222.111,228.81c9.098-4.274,18.363-8.13,27.97-11.123c16.343-5.091,33.009-8.631,50.046-10.382
	c3.016-0.31,6.026-0.678,9.04-1.02c0.53,0.783,1.193,1.508,1.564,2.359c6.111,14.02,12.19,28.054,18.264,42.09
	c2.088,4.824,4.144,9.663,6.214,14.495c0.867,2.465-0.765,4.293-1.694,6.244c-6.209,13.05-1.231,27.804,11.604,34.211
	c11.895,5.938,27.318,0.659,33.676-11.527c7.765-14.883-2.453-34.36-19.105-36.441c-1.684-0.21-3.591,0.22-4.819-1.493
	c-3.456-8.044-6.899-16.095-10.372-24.131c-3.348-7.745-6.734-15.473-10.084-23.217c-0.43-0.994-1.142-1.939-0.737-3.401
	c4.36-0.083,8.787-0.168,13.209-0.252c6.535,0.43,13.085,0.759,19.615,1.315c9.398,0.8,18.741,2.038,28.013,3.823
	c13.989,2.693,27.716,6.296,41.016,11.441c14.077,5.445,27.477,12.126,39.23,21.751c7.493,6.137,13.991,13.104,18.013,22.094
	c4.224,9.441,4.26,18.892,0.117,28.344c-4.157,9.485-11.099,16.705-19.035,23.079c-8.78,7.052-18.525,12.509-28.777,17.07
	c-16.425,7.307-33.585,12.174-51.24,15.47c-25.293,4.721-50.781,5.968-76.42,4.535c-17.426-0.974-34.676-3.356-51.635-7.539
	c-15.545-3.834-30.662-8.925-44.933-16.29c-10.999-5.676-21.249-12.414-29.794-21.498c-4.305-4.576-7.933-9.624-10.322-15.467
	c-4.34-10.615-3.468-20.928,1.976-30.931c3.248-5.967,7.657-10.999,12.608-15.59c1.172-1.087,2.351-2.166,3.529-3.251
	c1.672-0.02,3.038,0.851,4.469,1.526c19.392,9.145,38.782,18.293,58.174,27.437c0.141,0.067,0.306,0.084,0.46,0.124
	c1.568,1.625,1.496,3.818,1.907,5.804c2.911,14.051,13.338,21.789,28.155,20.806c11.423-0.758,22.105-11.905,22.175-24.395
	c0.112-20.135-20.868-31.512-37.315-23.018c-1.638,0.846-3.099,2.411-5.258,1.603l-0.067-0.066c-0.27-0.175-0.53-0.366-0.778-0.571
	c-7.191-3.331-14.395-6.634-21.569-9.999c-8.325-3.905-16.627-7.86-24.934-11.803C223.288,230.56,222.137,230.223,222.111,228.81z"
	/>
<path fill="#00511F" d="M496.25,313.059c-2.107,11.16-6.56,21.25-13.495,30.284c-6.707,8.738-14.956,15.647-24.364,21.256
	c-12.158,7.249-25.362,11.885-38.879,15.843c-7.66,2.243-15.46,3.823-23.265,5.282c-5.445,1.018-11.009,1.642-16.515,2.407
	c-4.414,0.613-8.941,0.212-13.262,1.525c-0.449,0.137-0.949,0.132-1.427,0.146c-8.766,0.252-17.49,1.412-26.287,1.053
	c-4.47-0.182-8.952-0.051-13.428-0.084c-2.23-0.017-4.48,0.157-6.64-0.664c-0.433-0.165-0.952-0.195-1.422-0.16
	c-5.934,0.446-11.735-1.101-17.646-1.146c-3.167-0.024-6.338-0.658-9.472-1.105c-8.176-1.167-16.314-2.61-24.414-4.308
	c-7.817-1.639-15.47-3.789-23.072-6.159c-8.553-2.667-16.829-6.026-24.692-10.352c-8.873-4.882-17.075-10.695-23.704-18.401
	c-7.599-8.833-12.901-18.96-15.805-30.286c-0.434-1.694-0.74-3.42-1.107-5.132c0.194-0.717,0.255-1.832,1.38-0.982
	c0.875,0.661,1.61,1.558,2.26,2.457c2.356,3.262,5.321,5.863,8.386,8.448c4.274,3.605,8.602,7.102,13.33,10.089
	c7.845,4.958,16.169,8.972,24.606,12.815c5.248,2.39,10.657,4.358,16.084,6.141c7.089,2.329,14.3,4.357,21.589,6.092
	c8.054,1.917,16.18,3.49,24.348,4.639c7.065,0.994,14.13,2.439,21.34,2.162c14.641,1.936,29.351,0.559,44.025,0.902
	c1.91,0.045,3.818,0.073,5.689-0.587c0.875-0.309,1.888-0.299,2.84-0.305c7.987-0.053,15.792-1.596,23.66-2.708
	c9.783-1.382,19.422-3.388,28.958-5.903c8.939-2.358,17.811-4.961,26.332-8.612c4.837-2.072,9.779-3.946,14.45-6.345
	c8.795-4.518,17.246-9.587,24.947-15.907c4.967-4.076,9.381-8.626,13.728-13.303C496.069,311.329,496.002,312.654,496.25,313.059z"
	/>
<path fill="#F885AB" d="M354.873,256.224c4.863-0.091,9.561,0.583,13.808,3.148c6.987,4.22,11.675,9.951,13.44,18.236
	c2.791,13.106-5.252,25.209-15.183,29.501c-8.969,3.877-20.697,2.957-28.976-4.824c-5.55-5.216-8.26-11.723-8.566-19.119
	c-0.141-3.423,0.384-7.002,1.989-10.228c1.278-2.57,2.547-5.143,3.823-7.712c0.677-0.369,1.479-0.612,2.006-1.133
	C342.12,259.246,348.017,256.671,354.873,256.224z"/>
<path fill="#F885AB" d="M271.618,253.466c3.239-1.698,6.281-3.75,9.883-4.759c5.587-1.565,11.026-1.232,16.42,0.736
	c7.855,2.866,13.039,8.422,16,16.116c2.077,5.396,2.155,10.962,0.372,16.402c-2.799,8.542-8.355,14.871-17.014,17.494
	c-12.057,3.652-22.81,0.346-30.446-10.078c-3.654-4.988-4.623-10.741-4.88-16.712c0.155-0.617,0.366-1.226,0.454-1.852
	c0.898-6.399,3.837-11.714,8.482-16.145C271.216,254.356,271.378,253.87,271.618,253.466z"/>
<path fill="#F885AB" d="M270.773,252.828c0.442-0.058,0.667,0.181,0.778,0.572C271.126,253.435,270.845,253.274,270.773,252.828z"/>
<path fill="#131313" d="M283.008,397.424c-1.407,0.264-2.759,0.255-3.904-0.786C280.457,396.639,281.909,396.155,283.008,397.424z"
	/>
<path fill="#131313" d="M182.236,350.448c-0.457-0.159-0.795-0.425-0.842-0.948C181.676,349.817,181.956,350.132,182.236,350.448z"
	/>
<path fill="#131313" d="M493.417,505.998c0.255-0.331,0.511-0.662,0.766-0.993C493.927,505.336,493.672,505.667,493.417,505.998z"/>
<path fill="#980034" d="M389.094,401.598c-0.525,4.174-0.541,4.18,1.048,8.569c0.351,0.97,0.39,1.839-0.189,2.724
	c-3.616,5.52-5.84,11.674-8.037,17.831c-1.236,3.463-3.178,6.594-4.435,10.067c-2.167,5.989-4.749,11.825-7.083,17.755
	c-3.093,7.858-6.118,15.742-9.16,23.619c-0.344,0.892-0.639,1.805-0.91,2.722c-2.027,6.877-4.831,13.482-7.084,20.278
	c-0.365,1.1-0.767,2.093-1.695,2.804c-0.577,0.442-1.227,0.519-1.657-0.121c-1.065-1.585-2.114-3.186-3.058-4.845
	c-1.415-2.487-2.29-5.291-4.433-7.348c-0.326-0.313-0.568-0.796-0.676-1.243c-0.885-3.665-3.289-6.553-5.121-9.7
	c-1.527-2.624-2.923-5.307-4.378-7.965c-0.841-1.536-1.781-3.016-2.658-4.532c-2.555-4.414-5.1-8.833-7.65-13.25
	c-0.398-0.69-0.649-1.554-1.221-2.041c-2.519-2.143-3.687-5.171-5.114-7.952c-2.485-4.84-5.467-9.325-8.652-13.701
	c-0.187-0.257-0.444-0.507-0.516-0.799c-1.224-4.946-4.487-8.839-7.225-12.871c-2.353-3.464-3.391-7.55-5.991-10.817
	c-0.44-0.552-0.549-1.515-0.512-2.273c0.135-2.808,1.318-5.226,3.107-7.346c0.707-0.838,2.216-0.931,3.045-0.213
	c0.475,0.411,0.772,1.027,1.244,1.443c1.934,1.701,2.721,1.717,4.963,0.039c1.706-1.278,1.823-1.382,3.299,0.589
	c1.44,1.923,3.263,2.392,5.469,2.156c0.822-0.088,1.719-0.234,2.112-0.945c1.173-2.116,3.125-1.904,5.044-1.904
	c7.996,0.002,15.992,0,23.988,0.001c3.198,0,6.397,0.016,9.595-0.003c1.481-0.009,2.629,0.311,3.792,1.512
	c2.058,2.125,5.167,1.919,7.221-0.112c0.449-0.443,0.737-1.044,1.157-1.522c0.764-0.869,1.618-0.909,2.481-0.131
	c0.354,0.319,0.631,0.739,1.02,0.999c1.294,0.866,2.288,0.871,3.517-0.074c0.621-0.477,1.07-1.172,1.652-1.71
	c1.132-1.046,2.526-1.274,3.312-0.075c1.464,2.233,3.003,1.906,4.858,0.806c0.404-0.239,0.878-0.455,1.335-0.49
	C386.299,401.424,387.62,402.192,389.094,401.598z"/>
<path fill="#FFF8FA" d="M342.604,270.887c-1.773,7.253-2.231,14.697-3.167,22.691c-2.301-3.621-2.605-7.128-2.648-10.712
	c-0.063-5.237,0.944-10.101,4.774-14.007C343.375,268.783,343.121,269.768,342.604,270.887z"/>
<path fill="#FDE7EE" d="M342.604,270.887c-0.079-0.813-0.192-1.609-1.041-2.028c0.66-1.313,1.662-2.29,2.942-2.994
	c0.263,0.227,0.374,0.475,0.333,0.744c-0.043,0.279-0.101,0.418-0.176,0.418C343.976,268.314,343.29,269.6,342.604,270.887z"/>
<path fill="#FAACC6" d="M344.662,267.027c-0.053-0.386-0.105-0.773-0.158-1.16c0.279-0.35,0.519-0.746,0.857-1.023
	c0.128-0.105,0.492,0.038,0.726,0.127c0.06,0.023,0.085,0.28,0.046,0.405C345.896,266.145,345.327,266.631,344.662,267.027z"/>
<path fill="#FFF8FA" d="M280.301,262.222c-3.101,7.112-3.804,14.653-4.015,22.287c-0.025,0.901,0.309,2.439-0.469,2.556
	c-1.528,0.229-1.217-1.439-1.535-2.4c-1.378-4.174-1.146-8.476-0.784-12.735c0.23-2.705,1.522-5.153,2.986-7.424
	c0.765-1.187,1.807-2.195,2.724-3.283C280.134,260.94,280.51,261.261,280.301,262.222z"/>
<path fill="#FBBBD1" d="M280.301,262.222c-0.364-0.333-0.729-0.666-1.093-0.999c0.254-0.382,0.443-0.839,0.779-1.123
	c0.327-0.276,0.939-0.631,1.19-0.5c0.812,0.423,0.198,1.065-0.023,1.559C280.975,261.56,280.593,261.871,280.301,262.222z"/>
</svg>
