<?xml version="1.0" encoding="utf-8"?>
<!-- Generator: Adobe Illustrator 17.0.0, SVG Export Plug-In . SVG Version: 6.00 Build 0)  -->
<!DOCTYPE svg PUBLIC "-//W3C//DTD SVG 1.1//EN" "http://www.w3.org/Graphics/SVG/1.1/DTD/svg11.dtd">
<svg version="1.1" id="Layer_1" xmlns="http://www.w3.org/2000/svg" xmlns:xlink="http://www.w3.org/1999/xlink" x="0px" y="0px"
	 width="612px" height="792px" viewBox="0 0 612 792" enable-background="new 0 0 612 792" xml:space="preserve">
<path fill="#FDFDFD" d="M239.035,761.184c-112.64,0-225.281-0.01-337.921,0.062c-2.497,0.002-3.059-0.562-3.058-3.059
	c0.067-205.083,0.067-410.166,0-615.249c-0.001-2.496,0.562-3.059,3.058-3.058c225.503,0.067,451.005,0.067,676.508,0
	c2.496-0.001,3.059,0.562,3.058,3.058c-0.067,205.083-0.067,410.166,0,615.249c0.001,2.496-0.562,3.06-3.058,3.059
	C464.759,761.174,351.897,761.184,239.035,761.184z"/>
<path fill="#970034" d="M552.248,609.031c-10.295-9.095-22.66-14.57-35.054-19.968c-16.123-7.023-32.809-12.778-48.256-21.322
	c-8.096-4.478-15.705-9.62-21.413-17.105c-10.6-13.9-9.424-27.865,3.458-39.619c7.601-6.935,16.556-11.846,25.625-16.53
	c17.702-9.143,36.015-17.058,53.515-26.609c12.673-6.916,25.016-14.332,35.676-24.198c7.073-6.547,13.073-13.871,15.986-23.298
	c1.903-6.159,1.033-8.886-4.411-12.344c-8.595-5.46-18.344-7.684-28.179-9.368c-22.287-3.818-44.783-4.346-67.326-3.68
	c-8.094,0.239-16.183,0.631-24.273,0.991c-1.427,0.064-2.846,0.317-4.269,0.482c-1.18-0.031-1.623-0.966-2.16-1.773
	c-2.016-3.031-3.309-6.381-4.212-9.879c-0.253-0.98-0.829-2.118,0.328-2.997c28.124-2.014,56.264-2.856,84.398-0.393
	c15.024,1.315,29.929,3.462,44.072,9.134c4.751,1.906,9.251,4.268,13.18,7.597c7.712,6.532,10.254,14.697,7.655,24.463
	c-2.899,10.896-8.929,19.94-16.682,27.919c-11.872,12.218-26.103,21.179-40.882,29.363c-18.308,10.138-37.532,18.44-56.131,27.996
	c-6.503,3.341-12.899,6.884-18.724,11.352c-11.282,8.653-11.605,16.967-1.026,26.56c7.921,7.183,17.474,11.628,27.089,15.909
	c15.458,6.882,31.444,12.544,46.638,20.034c9.956,4.907,19.636,10.272,27.298,18.576
	C558.803,601.317,555.574,605.241,552.248,609.031z"/>
<path fill="#131313" d="M447.285,381.814c0.634,5.454,2.931,10.222,6.045,14.651c1.053,1.42,2.107,2.842,3.559,4.802
	c-2.114,0-3.91,0.109-5.688-0.029c-2.01-0.156-2.381,0.405-1.844,2.399c2.954,10.971,2.224,21.746-2.328,32.172
	c-1.1,2.519-2.519,4.941-4.076,7.211c-3.855,5.62-8.687,9.471-15.713,11.236c-22.214,5.58-44.729,9.006-67.506,10.947
	c-35.321,3.01-70.698,3.209-106.095,1.942c-28.719-1.028-57.372-3.055-85.984-5.75c-30.581-2.88-61.063-6.573-91.464-10.926
	c-16.877-2.416-33.72-5.074-50.476-8.119c-0.393-1.202,0.558-1.696,1.146-2.229c2.382-2.156,4.718-4.393,7.295-6.298
	c25.592-18.92,52.06-36.384,81.653-48.575c2.126-0.876,3.247-2.065,3.715-4.441c1.147-5.821,4.007-10.982,6.978-16.055
	c4.835-8.255,10.779-15.71,16.757-23.137c1.553-1.929,3.806-2.564,6.137-2.97c6.041-1.052,12.182-0.568,18.252-1.192
	c2.425-0.25,4.864-0.377,7.284-0.662c6.51-0.767,8.824-3.267,9.128-9.94c0.298-6.532-0.218-13.079,0.648-19.61
	c1.421-10.722,9.155-24.741,24.409-26.649c4.177-0.522,8.322-1.39,12.512-1.698c23.077-1.699,46.132-0.541,69.173,0.855
	c20.15,1.221,40.268,2.903,60.341,5.037c20.616,2.191,41.213,4.567,61.81,6.932c8.259,0.948,16.489,2.15,24.748,3.094
	c2.401,0.275,3.457,0.941,3.64,3.695c1.793,27.005,3.775,53.998,5.708,80.995C447.104,380.274,447.205,381.043,447.285,381.814z"/>
<path fill="#151514" d="M552.248,609.031c2.557-4.845,5.607-9.013,11.924-8.708c7.063,0.542,12.505,4.1,17.13,9.192
	c3.26,3.589,3.241,7.411-0.657,10.268c-2.633,1.929-2.109,3.182-0.172,4.94c0.899,0.815,1.689,1.765,2.442,2.721
	c0.472,0.599,1.715,1.142,0.631,2.128c-1.292,1.176-1.643-0.39-2.217-0.971c-1.168-1.182-2.311-2.409-3.303-3.738
	c-2.136-2.862-3.039,0.23-4.391,0.885c-1.62,0.785-1.542,1.796-0.266,3.031c1.351,1.307,2.518,2.803,3.76,4.221
	c0.482,0.55,1.327,1.05,0.451,1.896c-1.072,1.035-1.495-0.096-2.028-0.683c-1.267-1.396-2.627-2.732-3.713-4.26
	c-1.08-1.518-1.884-1.227-3.164-0.238c-5.181,4.002-7.997,3.469-11.843-1.702C552.583,622.298,550.459,616.161,552.248,609.031z"/>
<path fill="#009E3C" d="M452.31,398.806c-1.32,0.79-2.553,0.447-3.713,0.446c-25.071-0.019-50.149,0.277-75.211-0.202
	c-29.278-0.56-58.56,0.05-87.827-0.669c-17.188-0.422-34.372-0.209-51.554-0.558c-20.723-0.421-41.448-0.748-62.165-1.369
	c-12.947-0.388-25.885-1.172-38.819-1.914c-11.346-0.651-14.692-6.08-10.579-16.991c3.799-10.079,10.045-18.698,16.393-27.258
	c1.643-2.215,3.459-4.285,5.085-6.524c2.443-3.363,6.507-3.527,10.256-3.686c6.969-0.296,13.935-0.513,20.873-1.321
	c7.504-0.874,10.689-4.258,11.021-11.905c0.274-6.304-0.257-12.614,0.598-18.926c1.608-11.869,9.175-23.901,24.865-25.863
	c17.88-2.236,35.772-2.297,53.732-1.516c9.738,0.423,19.472,0.839,29.198,1.484c15.678,1.041,31.34,2.249,46.969,3.895
	c13.64,1.437,27.301,2.671,40.93,4.199c13.734,1.54,27.441,3.332,41.159,5.017c4.281,0.526,8.552,1.155,12.844,1.547
	c1.849,0.169,2.823,0.705,2.947,2.709c0.267,4.304,0.765,8.594,1.058,12.897c1.404,20.651,2.682,41.312,4.223,61.953
	c0.327,4.377,0.233,8.863,1.786,13.116C447.858,391.415,449.975,395.131,452.31,398.806z"/>
<path fill="#F2E381" d="M110.867,389.916c2.454-1.231,4.909-2.462,7.707-3.866c1.331,9.225,8.297,10.019,15.301,10.511
	c28.785,2.022,57.629,2.29,86.464,2.839c48.249,0.919,96.505,1.201,144.76,1.478c26.07,0.149,52.14,0.278,78.21,0.312
	c2.306,0.003,3.254,0.463,3.51,2.944c0.857,8.323-0.32,16.155-4.99,23.225c-3.38,5.116-7.608,8.737-13.999,10.271
	c-21.39,5.136-43.032,8.417-64.92,10.344c-26.776,2.358-53.602,2.967-80.454,2.382c-33.278-0.725-66.475-2.845-99.584-6.304
	c-4.065-0.425-8.171-0.5-12.172-1.464c0.506-2.149,2.491-1.943,3.96-2.303c9.485-2.324,18.9-4.868,28.093-8.188
	c1.144-0.413,2.32-0.758,3.355-1.629c-7.616,1.149-15.32,0.659-22.929,1.378c-4.28,0.404-8.391-0.38-12.588-0.342
	c-16.224,0.145-32.304-1.581-48.308-4.067c-4.926-0.765-9.861-1.619-14.529-3.493c-4.045-1.624-4.783-2.926-4.004-7.119
	c1.522-8.185,3.818-16.188,5.782-24.269C109.77,391.571,110.17,390.668,110.867,389.916z"/>
<path fill="#B3B3B3" d="M36.061,435.077c3.217-2.93,7.077-4.909,10.684-7.265c1.04-0.68,2.077-0.596,3.188-0.387
	c34.421,6.474,69.066,11.483,103.837,15.596c28.736,3.399,57.548,6.01,86.449,7.638c25.593,1.442,51.198,2.303,76.825,1.73
	c35.96-0.805,71.647-3.855,106.914-11.63c13.487-2.974,20.773-10.645,24.225-23.206c0.11-0.399,0.229-0.795,0.436-1.51
	c0.693,3.934-0.037,9.455-1.842,14.998c-1.527,4.687-3.838,8.95-6.888,12.811c-3.154,3.993-6.887,6.788-12.072,8.146
	c-22.697,5.946-45.776,9.329-69.114,11.269c-20.128,1.673-40.289,2.452-60.48,2.582c-1.438,0.009-2.877-0.065-4.316-0.101
	c-5.101-0.323-10.211-0.389-15.318-0.559c-14.809-0.548-29.605-1.29-44.4-2.149c-10.831-0.628-21.654-1.317-32.473-2.114
	c-14.914-1.099-29.794-2.55-44.648-4.238c-33.825-3.843-67.428-9.121-100.784-15.945c-5.648-1.156-11.259-2.472-16.867-3.799
	C38.133,436.64,36.769,436.435,36.061,435.077z"/>
<path fill="#FBF8E3" d="M110.867,389.916c-1.021,6.894-3.318,13.491-4.729,20.294c-0.537,2.591-0.975,5.213-1.698,7.752
	c-0.689,2.416,0.143,3.737,2.355,4.655c5.047,2.095,10.377,3.079,15.71,3.903c16.929,2.615,33.951,4.031,51.105,4.202
	c10.603,0.106,21.155,0.053,31.674-1.383c1.173-0.16,2.415-0.306,4.123,0.439c-3.332,2.733-7.186,3.539-10.781,4.772
	c-8.782,3.01-17.782,5.263-26.81,7.404c-0.4,0.095-0.745,0.419-1.116,0.636c-11.083-0.561-22.05-2.224-33.038-3.616
	c-24.732-3.131-49.391-6.783-73.953-11.067c-4.128-0.72-8.25-1.476-13.391-2.398C68.743,409.638,89.749,399.683,110.867,389.916z"/>
<path fill="#DFDFDF" d="M36.061,435.077c13.811,3.49,27.787,6.193,41.782,8.815c17.454,3.27,34.994,6.026,52.573,8.493
	c11.902,1.671,23.871,2.884,35.826,4.148c13.274,1.404,26.555,2.754,39.854,3.897c8.145,0.7,16.329,0.939,24.492,1.438
	c13.782,0.843,27.56,1.741,41.342,2.58c2.213,0.135,4.437,0.08,6.656,0.112c0.087,0.753-0.387,0.943-0.99,0.929
	c-3.945-0.088-7.899,0.293-11.837-0.213c-15.208,0.109-30.375-0.904-45.542-1.781c-20.486-1.184-40.93-2.918-61.35-4.947
	c-23.39-2.325-46.725-5.117-70.008-8.331c-19.54-2.697-39.036-5.687-58.476-9.039c-0.297-0.051-0.583-0.171-1.151-0.342
	C31.19,438.339,33.496,436.561,36.061,435.077z"/>
<path fill="#CDCDCD" d="M265.759,465.278c3.253-0.037,6.506-0.048,9.758-0.125c1.042-0.025,2.197,0.368,3.07-0.592
	c5.115,0.288,10.247,0.351,15.321,1.185C284.52,465.851,275.129,466.175,265.759,465.278z"/>
<path fill="#F6DE3F" d="M553.575,614.747c0.283-2.847,0.388-5.375,1.973-7.575c3.588-4.977,7.739-6.052,14.282-3.595
	c4.381,1.645,7.769,4.644,10.72,8.13c1.804,2.131,1.396,4.419-0.652,6.172c-4.538,3.884-9.144,7.693-13.809,11.424
	c-1.84,1.471-4.164,1.675-5.724-0.159C556.77,624.915,553.577,620.383,553.575,614.747z"/>
<path fill="#131313" d="M308.591,370.573c-9.206,0-18.416,0.188-27.616-0.04c-18.372-0.454-36.761-0.755-55.061-2.653
	c-5.269-0.547-10.543-1.244-15.694-2.613c-6.252-1.662-8.073-3.683-8.096-10.266c-0.042-11.844,5.018-21.397,13.936-28.935
	c9.799-8.283,21.602-11.908,33.97-14.012c12.675-2.156,25.468-2.937,38.308-3.534c14.305-0.665,28.604-0.661,42.887-0.276
	c21.462,0.579,42.904,1.826,64.285,3.892c3.74,0.361,7.472,0.843,11.194,1.362c5.971,0.833,10.058,4.317,12.886,9.447
	c4.367,7.924,5.836,16.637,6.849,25.467c0.645,5.624,0.699,11.27,0.708,16.923c0.003,1.921-0.496,2.585-2.566,2.814
	c-8.503,0.937-17.045,0.553-25.562,0.937c-15.829,0.713-31.698,0.5-47.538,1.039C337.185,370.612,322.889,370.538,308.591,370.573z"
	/>
<path fill="#BEE6CD" d="M145.347,377.113c3.831-7.963,7.658-15.929,11.498-23.888c0.662-1.372,1.71-2.296,3.277-2.489
	c7.975-0.984,15.978-1.393,24.107-0.93c-3.375,1.225-6.735,2.495-10.128,3.667c-6.963,2.405-12.765,6.262-17.252,12.288
	c-3.223,4.328-7.116,8.157-10.71,12.208C145.455,378.072,145.028,377.938,145.347,377.113z"/>
<path fill="#CDECD9" d="M198.414,313.811c-3.199-11.487,1.076-19.367,12.131-22.619c5.525-1.625,11.101-3.028,16.91-3.098
	c1.032-0.012,2.15-0.29,3.86,0.88C217.159,293.554,204.775,299.736,198.414,313.811z"/>
<path fill="#A4DCB9" d="M145.347,377.113c0.264,0.285,0.528,0.57,0.792,0.856c-0.23,0.353-0.427,0.733-0.698,1.05
	c-0.269,0.314-0.614,0.563-1.092,0.99C144.037,378.656,144.705,377.889,145.347,377.113z"/>
<path fill="#FEFEFE" d="M311.291,368.092c-8.405,0.853-16.836,0.372-25.253,0.549c-2.686,0.056-4.074-0.656-5.016-3.366
	c-2.286-6.577-5.06-12.982-7.489-19.512c-0.602-1.618-1.4-2.214-3.102-2.254c-8.763-0.204-17.525-0.468-26.283-0.84
	c-1.739-0.074-2.546,0.652-3.35,2.01c-3.838,6.479-7.777,12.898-11.646,19.359c-0.711,1.186-1.315,2.157-3.035,1.903
	c-5.479-0.81-11.008-1.338-16.36-2.848c-4.05-1.143-6.284-4.311-5.978-8.459c0.902-12.213,6.262-21.976,16.24-29.119
	c10.193-7.297,21.918-10.425,34.087-12.114c32.131-4.459,64.405-3.77,96.682-2.355c18.175,0.797,36.324,2.011,54.385,4.309
	c3.385,0.431,6.38,1.491,9.058,3.724c1.908,1.591,2.084,3.774,2.802,5.806c1.688,1.574,1.137,3.776,1.363,5.656
	c0.843,7.022,1.22,14.068-0.317,21.084c-1.13,5.157-3.71,8.507-9.379,9.18c-8.553,1.016-17.097,2.058-25.672,2.904
	c-10.108,0.996-20.245,1.575-30.364,2.391c-8.257,0.665-16.546,1.058-24.824,1.526C322.329,367.937,316.815,368.23,311.291,368.092z
	"/>
<path fill="#00501F" d="M419.723,330.662c0.036-0.33-0.053-0.778,0.129-0.969c1.009-1.057,0.654,0.359,0.721,0.515
	c2.383,5.54,3.111,11.482,3.779,17.372c0.582,5.137,0.981,10.319,0.839,15.529c-0.057,2.084-0.693,3.067-2.724,3.205
	c-0.766,0.052-1.524,0.274-2.289,0.29c-11.601,0.253-23.214,0.236-34.799,0.797c-9.834,0.476-19.66,0.522-29.493,0.596
	c-2.951,0.179-5.945,1.111-8.795-0.498c2.912-2.035,6.388-1.495,9.56-1.71c13.113-0.889,26.211-1.853,39.277-3.31
	c4.946-0.551,9.847-1.313,14.761-2.051c3.117-0.468,5.074-1.998,6.15-4.792c2.222-5.769,2.801-11.771,2.341-17.897
	C419.001,335.349,418.149,332.915,419.723,330.662z"/>
<path fill="#010201" d="M419.723,330.662c0.462,6.933,0.958,13.839-0.518,20.756c-1.433,6.721-3.129,8.781-9.695,10.099
	c-8.555,1.717-17.243,2.419-25.924,3.14c-10.223,0.85-20.445,1.716-30.671,2.536c-1.875,0.15-3.766,0.112-5.65,0.16
	c-4.395,1.234-8.854,1.151-13.333,0.653c-6.465,1.071-12.983,0.513-19.478,0.618c-1.066,0.017-2.231,0.345-3.165-0.532
	c18.909-1.371,37.823-2.688,56.727-4.13c14.254-1.087,28.512-2.15,42.636-4.545c2.766-0.469,4.308-1.78,5.316-4.261
	c2.014-4.954,2.291-10.148,2.128-15.356c-0.156-4.978-0.694-9.944-1.065-14.915c0.383-1.432,0.756-1.302,1.414-0.092
	C419.453,326.645,418.569,328.87,419.723,330.662z"/>
<path fill="#970034" d="M255.348,367.987c-3.104-0.026-6.208-0.052-9.312-0.078c-3.479-0.609-3.884-1.119-3.149-4.519
	c1.053-4.87,2.024-9.757,3.137-14.613c0.346-1.509,0.616-3.071,2.087-3.998c2.855,0.182,5.711,0.365,8.566,0.547
	c1.254,1.495,1.151,3.319,0.958,5.03c-0.491,4.365-0.647,8.735-0.657,13.121C256.975,365.153,256.637,366.753,255.348,367.987z"/>
<path fill="#970034" d="M260.055,345.392c1.489,0.022,2.979,0.045,4.468,0.067c0.447,0.351,0.829,0.786,0.939,1.335
	c1.352,6.733,2.756,13.457,3.639,20.273c0.073,0.56-0.095,1.097-0.531,1.508c-2.185-0.001-4.37-0.002-6.555-0.003
	c-1.022-0.688-2.339,0.185-3.337-0.628l0.016,0.001c-0.957-4.541-0.611-9.135-0.022-13.635
	C259.061,351.345,258.038,348.106,260.055,345.392z"/>
<path fill="#970034" d="M268.084,345.437c1.937-0.268,3.315,0.126,4.098,2.281c2.299,6.327,4.746,12.602,7.25,18.852
	c0.834,2.082,0.406,2.903-1.855,2.65c-1.863-0.208-3.729-0.39-5.593-0.583c-1.124-1.042-1.44-2.441-1.698-3.863
	c-0.947-5.209-1.869-10.423-2.843-15.627C267.199,347.848,266.915,346.507,268.084,345.437z"/>
<path fill="#970034" d="M239.368,367.323c-2.209-0.019-4.42-0.114-6.625-0.035c-2.275,0.081-3.128-0.34-1.656-2.691
	c3.746-5.983,7.341-12.061,10.986-18.108c0.568-0.942,0.976-2.068,2.442-1.7c0.594,0.935,0.364,1.929,0.179,2.904
	c-1.078,5.664-2.395,11.276-3.659,16.9C240.784,365.703,240.463,366.742,239.368,367.323z"/>
<path fill="#470018" d="M239.368,367.323c1.716-7.512,3.432-15.023,5.148-22.534c1.198-0.003,2.396-0.007,3.595-0.01
	c-1.569,6.745-3.092,13.5-4.732,20.226c-0.606,2.486,1.595,2.106,2.657,2.905C243.752,368.41,241.639,366.963,239.368,367.323z"/>
<path fill="#470018" d="M268.084,345.437c0.638,7.292,2.362,14.398,3.69,21.572c0.099,0.537,0.141,1.085,0.209,1.627
	c-1.137-0.02-2.275-0.04-3.413-0.061c-1.349-7.706-2.698-15.412-4.047-23.118C265.71,345.452,266.897,345.444,268.084,345.437z"/>
<path fill="#480019" d="M260.055,345.392c-0.399,7.522-0.435,15.065-1.361,22.555c-1.115,0.013-2.231,0.027-3.346,0.041
	c0.865-7.529,0.99-15.101,1.329-22.66C257.803,345.348,258.929,345.37,260.055,345.392z"/>
<path fill="#083218" d="M333.934,368.007c4.474,0.399,8.874-0.734,13.333-0.653c2.787,1.371,5.761,0.227,8.619,0.643
	c-1.103,1.085-2.493,0.601-3.753,0.615c-5.036,0.058-10.072,0.047-15.108,0.013C335.974,368.618,334.806,368.987,333.934,368.007z"
	/>
<path fill="#480019" d="M258.678,367.945c1.119,0.173,2.355-0.268,3.337,0.629C260.868,368.546,259.609,369.117,258.678,367.945z"/>
</svg>
