<?xml version="1.0" encoding="utf-8"?>
<!-- Generator: Adobe Illustrator 17.0.0, SVG Export Plug-In . SVG Version: 6.00 Build 0)  -->
<!DOCTYPE svg PUBLIC "-//W3C//DTD SVG 1.1//EN" "http://www.w3.org/Graphics/SVG/1.1/DTD/svg11.dtd">
<svg version="1.1" id="Layer_1" xmlns="http://www.w3.org/2000/svg" xmlns:xlink="http://www.w3.org/1999/xlink" x="0px" y="0px"
	 width="612px" height="792px" viewBox="0 0 612 792" enable-background="new 0 0 612 792" xml:space="preserve">
<path fill="#FEFEFE" d="M-13.43,716.287c0-213.215,0-426.431,0-639.682c213.191,0,426.382,0,639.646,0
	c0,213.203,0,426.443,0.001,639.682C413.002,716.287,199.786,716.287-13.43,716.287z"/>
<path fill="#EC6B76" d="M207.779,531.442c-4.139-4.024-8.341-7.974-12.206-12.282c-13.32-14.845-23.445-31.595-30.236-50.341
	c-5.158-14.237-8.087-28.914-8.902-44.064c-1.462-27.181,3.684-53.029,16.093-77.186c19.833-38.61,50.623-64.592,92.009-77.846
	c10.484-3.358,21.271-5.277,32.255-6.216c7.387-0.631,14.777-0.732,22.143-0.293c18.4,1.098,36.072,5.359,52.947,12.854
	c17.872,7.938,33.703,18.851,47.344,32.835c21.389,21.927,35.174,47.92,41.121,78.017c0.384,1.944,0.836,3.876,0.936,5.864
	c-0.557,0.416,0.417,2.003-1.22,1.594c-1.28-2.37-1.524-5.063-2.209-7.598c-3.081-11.398-18.563-21.8-29.412-20.662
	c-7.42,0.778-13.401,4.339-19.01,8.843c-6.994,5.616-13.059,12.184-18.035,19.569c-8.582,12.737-20.199,21.906-33.073,29.787
	c-18.383,11.253-37.859,20.31-57.668,28.679c-17.798,7.52-35.872,14.34-54.114,20.707c-1.336,0.466-2.762,1.502-4.248,0.236
	c-0.149-0.813,0.194-1.49,0.621-2.125c6.277-9.335,9.642-19.92,12.851-30.524c6.312-20.859,11.389-42.053,16.69-63.184
	c2.074-8.269,4.302-16.498,6.604-24.706c0.437-1.558,0.824-3.202,2.89-3.402c5.536,0.702,11.012,1.772,16.593,2.217
	c14.925,1.19,29.685,0.38,44.279-3.067c5.265-1.244,10.388-2.917,15.429-4.866c1.229-0.475,2.42-1.115,3.797-1.066
	c5.111,1.952,10.212,3.871,15.694,4.687c11.111,1.654,21.855,0.575,32.23-3.791c2.996-1.261,5.642-3.075,7.926-5.39
	c5.561-5.636,5.081-12.386-1.109-17.432c-5.78-4.712-12.619-6.646-19.759-7.975c-2.781-0.517-5.672-0.117-8.373-1.137
	c-0.362-0.331-0.599-0.749-0.654-1.225c-1.169-10.273-7.432-17.147-15.424-22.731c-11.078-7.739-23.656-11.71-36.802-14.124
	c-3.441-0.632-6.915-1.048-10.397-1.409c-7.61-1.246-15.216-0.924-22.88-0.409c-8.813,0.592-17.496,1.741-26.023,4.012
	c-11.068,2.948-21.503,7.238-30.511,14.533c-3.419,2.769-6.261,6.024-8.579,9.751c-0.464,0.791-0.959,1.559-1.658,2.169
	c-15.607,11.51-27.485,25.866-33.927,44.386c-3.29,9.458-4.945,19.186-5.244,29.197c-0.623,20.873,4.074,40.734,11.107,60.185
	c3.511,9.71,7.231,19.326,12.451,28.275c2.774,4.756,5.75,9.372,10.543,12.434c0.324,0.207,0.483,0.572,0.579,0.949
	c-0.248,0.987-1.113,1.245-1.901,1.516c-12.361,4.239-24.811,8.198-37.341,11.903c-0.272,0.08-0.559,0.092-0.951,0.075
	c16.005,2.898,32.088,3.293,48.125,2.499c27.725-1.371,54.816-6.737,81.449-14.496c25.323-7.378,49.85-16.864,73.905-27.63
	c11.668-5.222,23.156-10.819,34.616-16.477c4.929-2.433,9.766-5.026,14.18-8.339c0.681-0.511,1.391-0.994,2.268-1.114
	c1.557,0.906,0.501,1.945,0.035,2.807c-7.361,13.608-15.864,26.446-25.707,38.404c-15.088,18.33-32.7,33.828-52.195,47.302
	c-14.674,10.142-30.221,18.774-45.941,27.124c-1.399,0.743-2.756,1.724-4.489,1.593c-0.306-0.04-0.596-0.125-0.879-0.244
	c-13.277-9.054-28.167-13.7-43.893-16.006c-20.416-2.995-40.552-1.645-60.387,4.075
	C210.704,531.576,209.293,532.338,207.779,531.442z"/>
<path fill="#AA4D55" d="M317.67,542.917c4.728-1.956,9.089-4.639,13.59-7.027c6.418-3.405,12.75-6.986,18.952-10.787
	c9.903-6.068,19.588-12.451,28.792-19.549c6.654-5.13,13.011-10.59,19.218-16.263c9.092-8.309,17.163-17.497,24.823-27.1
	c8.09-10.143,15.088-20.987,21.248-32.388c0.622-1.152,1.625-2.116,1.751-3.515c-0.038-0.794,0.419-1.32,0.968-1.801
	c0.985-0.42,2.076-2.42,2.875,0.181c-1.427,5.292-3.733,10.285-5.144,15.59c-2.725,10.244-4.638,20.579-5.441,31.188
	c-0.554,7.321-0.065,14.499,0.647,21.728c0.155,1.571,0.539,3.184-0.172,4.738c-7.712,12.625-17.255,23.724-28.316,33.498
	c-19.156,16.928-41.17,28.432-66.053,34.398c-4.325,1.037-8.689,1.866-13.084,2.538c-0.835-0.273-1.179-0.929-1.214-1.729
	c-0.408-9.223-5.657-15.697-12.135-21.492C318.335,544.551,317.24,544.16,317.67,542.917z"/>
<path fill="#FDEDEE" d="M207.779,531.442c3.114-0.387,6.001-1.637,9.022-2.393c8.658-2.168,17.431-3.332,26.329-3.987
	c7.125-0.524,14.208-0.328,21.275,0.267c14.339,1.207,28.225,4.377,41.292,10.592c4.021,1.913,7.877,4.144,11.375,6.937
	c0.06,1.47-1.156,1.841-2.118,2.342c-13.492,7.031-27.521,12.895-41.438,19.002c-0.868,0.381-1.904,0.164-2.665,0.838
	C247.184,558.804,226.259,547.418,207.779,531.442z"/>
<path fill="#B7ABAC" d="M439.778,497.912c-1.04-6.523-1.776-13.084-1.637-19.692c0.264-12.58,2.114-24.937,5.496-37.071
	c1.623-5.825,3.757-11.463,5.844-17.123c-0.073-2.173,1.065-3.989,1.921-5.826c2.271-4.876,4.808-9.623,7.92-14.032
	c0.135-0.218,0.284-0.429,0.43-0.639c0.199-0.318,0.403-0.635,0.601-0.955c0.621-0.707,0.836-1.86,2.068-1.903
	c0.789,6.304,0.733,12.639,0.7,18.973c-0.067,12.825-2.064,25.384-5.403,37.732c-3.851,14.242-9.86,27.563-17.541,40.142
	C440.081,497.671,439.912,497.781,439.778,497.912z"/>
<path fill="#B7ABAC" d="M270.852,565.04c0.327-0.798,1.083-0.946,1.778-1.25c13.999-6.118,28.087-12.041,41.665-19.076
	c0.99-0.513,2.149-0.794,2.777-1.856c0.2,0.02,0.398,0.039,0.598,0.06c2.1,2.028,4.28,3.979,6.282,6.098
	c3.915,4.143,6.574,8.966,7.643,14.632c0.295,1.563-0.287,3.258,0.731,4.7c-6.915,1.041-13.883,1.636-20.86,1.697
	C297.724,570.164,284.162,568.558,270.852,565.04z"/>
<path fill="#AF565E" d="M462.419,400.67c-0.534,0.769-1.068,1.538-1.602,2.308c-0.222,0.169-0.404,0.371-0.532,0.621
	c-0.018,0.151-0.057,0.297-0.117,0.437c-1.23-0.188-1.007-1.164-0.921-1.913c0.244-2.121,0.143-4.254,0.304-6.377
	c0.099-0.508,0.29-0.965,0.724-1.285c0.66-0.363,0.387-1.29,1.01-1.675C461.985,395.367,462.079,398.036,462.419,400.67z"/>
<path fill="#F885AB" d="M460.275,394.461c-0.018,0.363-0.035,0.726-0.053,1.088c-2.91,10.501-7.326,20.333-13.124,29.552
	c-0.351,0.396-0.702,0.792-1.053,1.188c-8.303,6.41-17.853,10.612-27.156,15.231c-6.858,3.405-13.794,6.659-20.772,9.81
	c-9.983,4.509-20.037,8.863-30.24,12.855c-11.17,4.37-22.401,8.576-33.842,12.196c-15.828,5.009-31.819,9.362-48.127,12.574
	c-7.39,1.456-14.807,2.731-22.256,3.729c-4.182,0.56-8.424,0.922-12.627,1.377c-11.03,1.195-22.072,1.01-33.121,1.025
	c-4.721,0.006-9.389-0.674-14.081-1.031c-4.987-0.379-9.904-1.085-15.417-2.046c4.173-1.332,7.797-2.555,11.46-3.646
	c10.319-3.073,20.534-6.464,30.733-9.907c0.164-0.055,0.287-0.234,0.429-0.354c0.454-0.414,0.999-0.286,1.527-0.264
	c3.078,0.449,5.638-0.511,7.694-2.838c0.629-0.491,1.165-1.198,2.124-0.939c2.864-0.28,5.48-1.464,8.12-2.435
	c11.527-4.242,23.032-8.548,34.477-13.004c8.981-3.497,17.84-7.299,26.676-11.157c7.112-3.106,14.118-6.441,21.075-9.851
	c6.274-3.075,12.447-6.389,18.512-9.897c5.819-3.366,11.459-6.992,16.963-10.831c5.043-3.517,9.926-7.288,14.014-11.895
	c3.062-3.451,5.783-7.215,8.533-10.932c4.396-5.942,9.154-11.58,14.601-16.561c4.672-4.272,9.664-8.159,15.733-10.409
	c6.521-2.418,12.9-2.452,19.242,0.588c4.207,2.017,8.11,4.443,11.447,7.747c4.178,4.137,6.43,9.282,7.858,14.853
	C459.971,391.638,460.064,393.064,460.275,394.461z"/>
<path fill="#F7C1C6" d="M242.371,474.06c-0.52,0.38-1.04,0.759-1.56,1.139c-2.59,1.785-5.628,2.42-8.557,3.335
	c-0.409-0.145-0.818-0.289-1.227-0.434c-5.221-2.542-8.125-7.246-10.989-11.936c-4.808-7.87-8.263-16.391-11.523-24.973
	c-3.594-9.461-6.76-19.073-8.921-28.98c-1.448-6.64-2.626-13.313-3.314-20.097c-0.566-5.588-0.473-11.155-0.439-16.732
	c0.045-7.404,1.255-14.679,3.152-21.812c3-11.28,7.995-21.624,15.114-30.907c5.97-7.785,12.961-14.521,20.897-20.281
	c0.146-0.106,0.354-0.126,0.533-0.186c0.646,0.844,0.093,1.628-0.16,2.398c-2.915,8.871-0.964,16.722,4.908,23.78
	c7,8.413,16.34,13.24,26.29,17.083c4.669,1.803,9.471,3.225,14.412,4.128c0.425,0.197,0.762,0.46,0.721,0.994
	c-1.207,0.129-1.426,1.094-1.667,2.009c-2.672,10.121-5.42,20.222-7.982,30.371c-4.479,17.739-8.867,35.503-13.863,53.104
	c-2.681,9.446-5.77,18.77-9.808,27.75C246.751,467.451,244.601,470.777,242.371,474.06z"/>
<path fill="#FCE6E8" d="M281.708,350.58c-0.199-0.176-0.399-0.353-0.598-0.529c-0.82-0.927-0.514-1.947-0.227-2.954
	c5.151-18.029,10.914-35.84,19.555-52.56c3.658-7.079,7.984-13.743,13.829-19.281c1.718-1.627,3.478-3.216,5.874-3.813
	c1.719,0.966,3.681,0.037,5.437,0.703c6.265,0.147,12.355,1.451,18.397,2.943c10.526,2.599,20.524,6.472,29.449,12.781
	c3.723,2.632,7.092,5.643,9.822,9.329c3.223,4.351,5.336,9.108,5.471,14.611c-0.112,0.288-0.31,0.493-0.592,0.618
	c-3.357,0.568-6.779,0.242-10.152,0.848c-7.728,1.39-15.12,3.417-21.081,8.979c-6.006,5.604-4.821,13.044,1.414,18.084
	c1.253,1.013,2.745,1.675,4.037,2.638c0.23,0.24,0.263,0.506,0.101,0.796c-0.992-0.068-1.827,0.402-2.7,0.764
	c-9.841,4.09-20.084,6.547-30.644,7.945c-9.055,1.199-18.127,1.322-27.199,0.884C295.114,353.039,288.351,352.145,281.708,350.58z"
	/>
<path fill="#FEF5F5" d="M319.756,271.642c-1.482,1.863-3.716,2.789-5.402,4.46c-4.26,4.223-7.648,9.07-10.683,14.17
	c-5.759,9.677-9.882,20.097-13.695,30.66c-3.166,8.771-5.881,17.677-8.489,26.623c-0.243,0.835-0.368,1.647-0.378,2.497
	c-2.335,0.293-4.49-0.593-6.63-1.215c-9.842-2.859-19.248-6.716-27.478-12.99c-4.302-3.279-8.143-7.081-10.703-11.874
	c-3.503-6.559-4.154-13.434-1.264-20.458c0.179-0.434,0.336-0.878,0.503-1.318c0.39-0.537,0.781-1.074,1.171-1.611
	c3.302-3.203,7.354-5.32,11.312-7.498c19.488-10.723,40.355-17.496,62.235-21.209C313.368,271.35,316.569,270.852,319.756,271.642z"
	/>
<path fill="#FDEDEE" d="M362.444,343.773c-0.001-0.172-0.002-0.344-0.003-0.516c0.594-1.506,2.092-1.829,3.323-2.421
	c6.489-3.122,11.787-7.745,16.465-13.103c3.309-3.791,5.099-8.314,5.641-13.319c0.091-0.842,0.057-1.707,0.699-2.381
	c0,0,0.148-0.223,0.148-0.223c5.402,0.224,10.739,0.869,15.931,2.459c4.469,1.369,8.701,3.202,12.34,6.217
	c0.219,0.181,0.455,0.341,0.669,0.526c6.329,5.463,6.582,12.644,0.623,18.51c-4.327,4.26-9.758,6.473-15.492,7.927
	c-11.839,3-23.601,2.646-35.206-1.294C365.786,345.545,364.05,344.795,362.444,343.773z"/>
<path fill="#FCE6E8" d="M319.756,271.642c-4.778-0.371-9.363,0.899-13.975,1.769c-9.268,1.749-18.372,4.193-27.314,7.191
	c-13.943,4.676-27.214,10.781-39.515,18.906c-0.69,0.456-1.273,1.188-2.245,1.077c1.883-4.167,5.065-7.274,8.483-10.132
	c7.832-6.549,16.95-10.681,26.612-13.651c10.075-3.097,20.402-4.743,30.943-5.364c5.402-0.319,10.79-0.276,16.18-0.264
	c2.21,0.005,4.489,0.267,6.651,0.971C323.629,272.074,321.632,272.559,319.756,271.642z"/>
<path fill="#F5B2B8" d="M324.951,269.393c3.718-1.171,7.471-1.662,11.305-0.578c0.204,0.106,0.272,0.212,0.204,0.318
	c-0.067,0.106-0.134,0.16-0.203,0.16c-3.019-0.023-5.969,0.892-9.004,0.654C326.407,270.091,325.414,270.841,324.951,269.393z"/>
<path fill="#F3A8AE" d="M324.951,269.393c0.62,0.795,1.527,0.401,2.302,0.554c-1.114,0.839-2.331,0.456-3.606,0.513
	C323.902,269.63,324.473,269.579,324.951,269.393z"/>
<path fill="#F198A1" d="M336.257,269.293c0.011-0.16,0.011-0.319-0.001-0.479c0.257,0.046,0.66-0.164,0.648,0.328
	C336.903,269.198,336.483,269.243,336.257,269.293z"/>
<path fill="#B4617C" d="M447.097,425.101c0.146-0.955,0.69-1.741,1.111-2.576c4.317-8.557,8.287-17.266,11.539-26.291
	c0.091-0.252,0.313-0.457,0.474-0.684c-0.054,2.604,0.313,5.231-0.455,7.8c-0.052,0.174,0.26,0.456,0.402,0.687
	c-4.001,6.123-7.612,12.451-10.203,19.319c-0.094,0.249-0.321,0.448-0.485,0.67c-0.284-0.388-0.582-0.297-0.888-0.027
	C448.125,424.408,447.753,424.947,447.097,425.101z"/>
<path fill="#B4617C" d="M460.285,403.598c0.177-0.207,0.355-0.414,0.532-0.621C460.64,403.184,460.462,403.391,460.285,403.598z"/>
<path fill="#FBC9D9" d="M232.254,478.534c0.162-0.222,0.278-0.57,0.492-0.647c2.668-0.955,5.233-2.222,8.064-2.688
	C238.712,478.243,235.711,478.974,232.254,478.534z"/>
<path fill="#FFFCFC" d="M388.567,312.033c0.216,6.872-2.504,12.529-7.013,17.554c-5.373,5.987-11.824,10.399-19.115,13.67
	c-2.096,0.056-3.541-1.394-4.89-2.554c-5.074-4.364-7.247-10.017-3.689-16.017c1.305-2.2,3.226-3.924,5.332-5.382
	c4.486-3.107,9.539-4.922,14.806-6.082C378.78,312.168,383.65,311.674,388.567,312.033z"/>
</svg>
