<?xml version="1.0" encoding="utf-8"?>
<!-- Generator: Adobe Illustrator 17.0.0, SVG Export Plug-In . SVG Version: 6.00 Build 0)  -->
<!DOCTYPE svg PUBLIC "-//W3C//DTD SVG 1.1//EN" "http://www.w3.org/Graphics/SVG/1.1/DTD/svg11.dtd">
<svg version="1.1" id="Layer_1" xmlns="http://www.w3.org/2000/svg" xmlns:xlink="http://www.w3.org/1999/xlink" x="0px" y="0px"
	 width="612px" height="792px" viewBox="0 0 612 792" enable-background="new 0 0 612 792" xml:space="preserve">
<path fill="#FDFDFD" d="M307.442,57c151.981,0,303.962,0.016,455.943-0.094c3.749-0.003,4.595,0.845,4.593,4.593
	c-0.104,223.972-0.104,447.944,0,671.916c0.002,3.749-0.844,4.594-4.593,4.593c-303.962-0.101-607.924-0.101-911.886,0
	c-3.749,0.001-4.595-0.844-4.593-4.593c0.104-223.972,0.104-447.944,0-671.916c-0.002-3.749,0.844-4.596,4.593-4.593
	C3.48,57.016,155.461,57,307.442,57z"/>
<path d="M241.106,432.017c-18.618-1.319-36.855-2.872-54.904-6.072c-28.009-4.966-55.093-12.69-79.417-27.971
	c-19.292-12.119-34.433-27.762-40.062-50.76c-4.388-17.926-0.415-34.647,7.679-50.665c13.858-27.424,34.853-48.611,59.474-66.279
	c43.671-31.338,91.908-51.924,144.723-62.825c44.925-9.272,87.272-2.193,128.761,14.918c31.925,13.167,62.567,28.678,89.527,50.621
	c13.797,11.23,26.061,23.89,33.962,40.086c15.876,32.542,10.451,62.687-11.169,90.543c-18.895,24.345-44.38,39.252-73.023,49.241
	c-28.478,9.932-58.078,14.256-87.952,17.055c-11.941,1.119-23.897,2.189-35.904,2.108c-3.067-0.021-3.936,0.819-3.727,3.977
	c1.885,28.45,2.446,56.922,0.927,85.414c-0.798,14.973-1.875,29.894-5.556,44.519c-1.78,7.071,0.25,13.485,4.338,19.336
	c5.147,7.368,11.981,12.949,19.425,17.755c10.055,6.493,20.311,12.675,30.443,19.05c5.359,3.372,10.598,6.91,14.864,11.694
	c3.614,4.052,4.343,8.358,1.792,13.295c-4.866,9.417-12.266,16.559-20.535,22.835c-37.734,28.636-83.84,30.314-125.814,5.714
	c-20.649-12.102-31.341-29.896-35.035-52.841c-4.171-25.909-1.242-51.5,3.48-76.963c6.93-37.369,18.685-73.358,31.886-108.908
	C239.863,435.362,240.433,433.829,241.106,432.017z"/>
<path fill="#F04141" d="M513.943,352.032c-0.852,2.837-2.305,2.768-4.826,1.607c-47.454-21.846-95.546-22.233-143.935-3.517
	c-13.34,5.16-25.209,12.98-33.916,24.688c-9.893,13.304-11.381,27.429-2.833,41.974c2.114,3.596,1.063,3.951-2.387,4.061
	c-35.811,1.139-71.597,1.342-107.336-1.87c-3.207-0.288-4.433-1.431-5.334-4.493c-5.795-19.682-17.361-34.638-37.383-41.023
	c-20.829-6.642-38.728-0.451-53.369,15.301c-2.707,2.912-4.415,3.256-7.736,1.139c-16.219-10.343-30.04-22.647-36.205-41.69
	c-1.449-4.474-1.89-9.097-2.511-13.713c-0.577-4.287,1.151-4.984,5.059-4.273c21.389,3.892,42.115,1.417,62.003-7.334
	c14.782-6.504,27.104-16.184,36.415-29.489c1.112-1.588,2.694-3.05,2.442-5.304c0.076-1.423,0.989-2.236,2.105-2.904
	c27.058-11.864,51.661-27.469,72.6-48.445c7.279-7.292,13.865-15.275,18.945-24.34c5.882-10.496,10.36-21.287,6.415-33.667
	c7.707-1.176,15.416-2.334,23.118-3.541c1.932-0.302,2.725,0.173,2.441,2.336c-3.556,27.13,8.325,47.762,27.917,64.823
	c20.358,17.728,44.649,27.36,70.789,32.556c35.448,7.046,70.482,5.202,104.891-6.103c2.528-0.83,4.006-0.643,5.225,1.759
	c1.571,3.096,3.889,5.814,4.683,9.303c-0.338,3.619-3.047,5.776-5.187,8.242c-7.913,9.117-14.556,18.991-18.167,30.629
	c-4.407,14.204-0.493,23.578,12.587,30.616C511.757,350.059,513.221,350.567,513.943,352.032z"/>
<path fill="#E3E8C2" d="M233.898,483.892c4.602-16.669,10.876-32.758,16.879-48.944c0.825-2.225,2.067-2.548,4.144-2.466
	c16.822,0.664,33.652,0.536,50.479,0.228c2.243-0.041,3.591,0.004,3.758,2.961c2.196,38.968,3.135,77.905-2.145,116.73
	c-0.358,2.632-0.759,5.296-1.524,7.829c-4.236,14.035-0.182,25.857,9.421,36.268c8.917,9.668,19.931,16.555,30.972,23.417
	c8.051,5.004,16.355,9.668,24.016,15.215c8.481,6.14,9.112,5.583,1.74,14.386c-14.198,16.954-32.791,26.896-54.276,31.352
	c-31.342,6.5-58.972-2.701-83.851-21.313c-11.947-8.938-16.838-22.309-19.389-36.584c10.988-3.423,16.714-12.104,21.359-21.701
	c5.344-11.039,8.103-22.836,9.683-34.956c3.056-23.436,1.425-46.442-6.025-68.955C237.622,492.776,235.052,488.61,233.898,483.892z"
	/>
<path fill="#FEFE00" d="M501.135,251.641c-19.272,5.933-38.178,8.323-57.413,7.866c-28.509-0.677-55.702-6.655-80.602-21.167
	c-10.454-6.092-19.725-13.609-26.866-23.479c-7.711-10.658-11.381-22.406-9.326-35.683c0.509-3.287,1.446-4.756,5.325-4.497
	c18.926,1.259,37.043,6.018,54.781,12.315c36.529,12.968,71.046,29.815,101.671,53.934
	C492.743,244.108,496.506,247.635,501.135,251.641z"/>
<path fill="#FEFE00" d="M498.276,370.3c-15.311,14.011-32.816,23.643-51.859,30.663c-23.397,8.625-47.749,12.962-72.391,15.958
	c-3.633,0.442-7.39,0.336-10.902,1.225c-9.327,2.363-13.156-4.451-17.384-10.223c-4.311-5.885-4.517-12.324-0.814-18.755
	c2.887-5.013,7.001-8.856,11.641-12.178c13.255-9.489,28.304-14.618,44.127-17.509c31.069-5.676,61.611-4.015,91.301,7.504
	c1.702,0.66,3.357,1.443,5.019,2.201C497.296,369.314,497.502,369.606,498.276,370.3z"/>
<path fill="#F79D9D" d="M282.158,178.739c3.88,4.579,3.218,9.952,2.212,15.133c-2.579,13.283-9.751,24.282-18.301,34.379
	c-21.593,25.504-48.842,43.271-78.951,57.026c-0.881,0.403-1.902,0.5-2.858,0.739c-1.22-1.48-0.273-2.864,0.311-4.155
	c9.599-21.212,7.548-41.642-4.028-61.46c-0.829-1.419-1.908-2.752-1.826-4.544c13.451-8.331,27.97-14.423,42.643-20.149
	C241.05,188.025,261.187,181.869,282.158,178.739z"/>
<path fill="#FEFE7D" d="M150.028,296.881c-0.695,0.325-1.389,0.649-2.084,0.974c-14.166,4.233-28.063,3.943-41.296-3.122
	c-5.023-2.682-9.312-6.407-9.7-12.828c10.704-15.536,24.558-27.944,39.322-39.416c7.886-6.128,16.155-11.726,24.722-16.872
	c3.484-0.509,4.542,2.303,5.85,4.495c11.692,19.594,8.488,41.867-6.688,58.97C157.302,292.296,154.342,295.502,150.028,296.881z"/>
<path fill="#FEFEFE" d="M233.898,483.892c5.052,6.028,6.91,13.499,8.937,20.773c4.491,16.121,6.104,32.689,4.962,49.32
	c-1.395,20.312-4.834,40.241-16.686,57.608c-3.035,4.447-6.933,8.05-11.481,10.933c-1.742,1.104-3.539,1.969-5.51,0.444
	c-3.789-19.189-2.423-38.403,0.167-57.539c3.657-27.013,10.465-53.326,18.629-79.301
	C233.159,485.357,233.567,484.637,233.898,483.892z"/>
<path fill="#F79D9D" d="M513.943,352.032c-18.47-6.441-23.701-20.386-15.077-39.985c5.021-11.412,12.656-20.995,20.832-30.219
	c0.547-0.617,1.016-1.303,1.523-1.956c9.692,18.83,9.622,37.944,1.452,57.188C520.41,342.386,517.809,347.6,513.943,352.032z"/>
<path fill="#7D7D7D" d="M150.028,296.881c10.364-8.512,18.518-18.529,21.428-32.005c2.888-13.371,0.062-25.636-7.448-36.939
	c-0.755-1.136-1.513-2.196-3.018-2.319c5.801-3.452,11.358-7.343,17.727-9.759c14.773,20.273,17.117,42.031,7.76,65.175
	c-0.681,1.684-1.478,3.322-2.219,4.982c-0.721,0.693-1.444,1.386-2.167,2.079c-6.809,2.052-13.594,4.194-20.44,6.119
	C157.83,295.289,153.906,296.004,150.028,296.881z"/>
<path fill="#FEFE00" d="M96.948,281.904c5.714,12.567,16.828,15.88,29.199,17.021c7.313,0.675,14.521-0.878,21.796-1.07
	c-15.407,11.243-32.939,15.075-51.635,14.592c-4.129-0.107-8.233-0.999-12.364-1.329c-2.724-0.218-3.424-0.971-2.163-3.683
	C85.982,298.404,90.596,289.645,96.948,281.904z"/>
<path fill="#FEFE00" d="M137.807,400.902c18.094-18.512,46.319-11.076,55.227,14.564C174,412.676,155.827,408.181,137.807,400.902z"
	/>
<path d="M333.55,347.985c-17.405-0.397-34.044-3.628-48.844-13.478c-1.935-1.288-3.797-2.716-5.543-4.249
	c-14.87-13.052-14.899-31.532,0.006-44.578c10.604-9.281,23.331-13.914,37.009-16.185c19.664-3.266,38.831-1.592,57.206,6.472
	c8.175,3.588,15.468,8.48,20.867,15.795c7.575,10.264,7.715,22.262-0.035,32.389c-9.891,12.925-24.081,18.422-39.324,21.71
	C347.897,347.37,340.767,348.211,333.55,347.985z"/>
<path fill="#FEFE00" d="M333.934,287.294c12.597,0.352,24.828,2.258,35.939,8.691c13.725,7.947,14.103,16.495,0.171,23.733
	c-23.669,12.296-47.867,12.151-71.774,0.267c-5.034-2.503-10.737-5.824-10.629-12.13c0.106-6.23,5.91-9.226,10.814-12.068
	C309.415,289.434,321.518,287.669,333.934,287.294z"/>
</svg>
