<svg id="Layer_1" data-name="Layer 1" xmlns="http://www.w3.org/2000/svg" viewBox="0 0 603 603"><defs><style>.cls-1{fill:#cfebeb;}.cls-1,.cls-2,.cls-3{stroke:#ed2024;stroke-miterlimit:10;}.cls-1,.cls-2{stroke-width:0.5px;}.cls-2{fill:#e27171;}.cls-3{fill:none;}</style></defs><title>neck bow tie</title><path class="cls-1" d="M370.06,341.32c-.16.31-.31.58-.46.82-6,9.51-63.6-35.05-68.1-28.54s-53.08,23-63.6,26.54c-1.42.48-2.69-.42-3.79-2.34-7-12.26-7.45-66.54.73-76.22l.05-.06c9.51-11,66.6,27,66.6,27,14-3,58.09-37.56,68.1-24,.24.33.48.68.7,1.05C379.18,280.26,375.67,330.14,370.06,341.32Z"/><path class="cls-2" d="M234.12,337.8c-7.28,2.92-9.14-12.47-8.92-29.86.07-5.12.32-10.43.66-15.48.86-12.72,2.32-23.92,3-26.93.92-3.91,3.43-4.55,6-3.95C226.67,271.27,227.07,325.54,234.12,337.8Z"/><path class="cls-2" d="M380,307.73q-.35,3.49-.85,7.37c-2.8,21.9-6,27.8-9.05,26.22,5.6-11.18,9.12-61.06.24-75.74,4.39-.1,10.3,3.58,10.59,23.84A163.19,163.19,0,0,1,380,307.73Z"/><path class="cls-2" d="M225.86,292.46c-.34,5.06-.59,10.36-.66,15.48a139,139,0,0,1-19.84.15c-6.27-.41-10.49-1.13-18.53-1-8.38.14-12.9,1.07-17.53,1.5-7.51.71-18.4.39-32.55-4.51L136,286.31a164.69,164.69,0,0,0,22.53,4c15.16,1.62,15.58-.48,31.55.5C206.88,291.85,216,294.75,225.86,292.46Z"/><path class="cls-2" d="M467,287.31l-4.26,19.78a143.21,143.21,0,0,1-28,1c-6.27-.41-10.49-1.13-18.53-1-8.38.14-12.9,1.07-17.53,1.5a69.1,69.1,0,0,1-18.68-.86,163.19,163.19,0,0,0,.93-18.32c2.2.33,4.54.64,7,.9,15.16,1.62,15.58-.48,31.55.5,20.27,1.24,29.33,5.21,42.06-.5A40.48,40.48,0,0,0,467,287.31Z"/><path class="cls-3" d="M257.68,279.3s24,12,34.83,13.84"/><path class="cls-3" d="M292.3,306.8c-11.29.12-30.69,5-31.11,5"/><path class="cls-3" d="M312.76,293.9c12.51-1,33.24-3.13,35.28-5.65"/><path class="cls-3" d="M312.81,305.65c12.76,5,29.58,10.72,33.51,7.7"/><path class="cls-2" d="M311,302.56h0c.57-8,2.06-20.29,1-21s-2.93.35-4.37,1.15"/><path class="cls-2" d="M306.51,282.05s-7,2-9.51,0-5,1.5-4.51,7S290,320.61,297,318.61s17.53,3.51,17.53-3-5.51-22-5.51-27S309,280.55,306.51,282.05Z"/></svg>