<svg id="Layer_1" data-name="Layer 1" xmlns="http://www.w3.org/2000/svg" viewBox="0 0 603 603"><defs><style>.cls-1{fill:#89b79f;}.cls-2{fill:#7d7e81;}.cls-2,.cls-3{stroke:#000;stroke-miterlimit:10;stroke-width:0.25px;}.cls-3{fill:#231f20;}.cls-4{fill:#0f7d3f;}</style></defs><title>umbrella</title><path class="cls-1" d="M179,285c-10.43-7.62-21.38-11.48-32.54-11.48a45.55,45.55,0,0,0-8.76.84,114,114,0,0,1,56.93-15.46c1.81,0,3.65,0,5.46.14-11,7.68-17.16,18.2-20.36,25.7C179.37,284.83,179.12,284.93,179,285Z"/><path d="M194.64,258.75V259h0c1.69,0,3.4,0,5.09.12-10.83,7.65-16.88,18-20.06,25.45l-.65.27c-10.44-7.61-21.39-11.47-32.56-11.47a45.82,45.82,0,0,0-8,.7A113.59,113.59,0,0,1,194.64,259v-.25m0,0a114.69,114.69,0,0,0-57.08,15.56,1.28,1.28,0,0,0-.07.2,45.3,45.3,0,0,1,9-.89c8.58,0,20,2.36,32.53,11.5l.87-.37c3.3-7.74,9.49-18.22,20.62-25.85q-3-.16-5.83-.16Z"/><path class="cls-1" d="M250.8,290.64a75.77,75.77,0,0,0-40.73-11.5,85.89,85.89,0,0,0-30,5.39c3.25-7.52,9.41-17.95,20.46-25.52A114.78,114.78,0,0,1,223,262.57c.09,0,.8-.34,2.15-.92a212.78,212.78,0,0,1,40-12.12C259.61,259.68,252.62,275,250.8,290.64Z"/><path d="M265,249.71c-5.57,10.11-12.44,25.22-14.28,40.73A75.9,75.9,0,0,0,210.07,279a86.3,86.3,0,0,0-29.75,5.29c3.26-7.46,9.38-17.69,20.22-25.15A112.94,112.94,0,0,1,223,262.69l.09,0,.08,0s.72-.34,2.06-.91A212.46,212.46,0,0,1,265,249.71m.48-.35a213.52,213.52,0,0,0-40.31,12.18c-1.35.58-2.07.91-2.07.91a112.68,112.68,0,0,0-22.61-3.54c-11.12,7.63-17.32,18.11-20.62,25.85a85.29,85.29,0,0,1,30.22-5.49,75.92,75.92,0,0,1,40.73,11.52l.11-.05h0c1.78-15.44,8.5-30.5,14.55-41.39Z"/><path class="cls-1" d="M359.55,290.57a147.72,147.72,0,0,0-53.79-10c-30,0-51.49,8.59-54.7,10,1.85-15.69,8.88-31,14.48-41.08a213.33,213.33,0,0,1,42-4.31,179,179,0,0,1,37.82,3.94A123.47,123.47,0,0,1,359.55,290.57Z"/><path d="M307.57,245v.25a178.84,178.84,0,0,1,37.74,3.93,123.36,123.36,0,0,1,14.09,41.17,147.89,147.89,0,0,0-53.63-9.91c-29.49,0-50.73,8.28-54.55,9.88,1.89-15.57,8.85-30.72,14.41-40.77a213.21,213.21,0,0,1,41.95-4.3V245m0,0a213.78,213.78,0,0,0-42.11,4.33c-6,10.89-12.77,25.95-14.55,41.39,1.76-.76,23.88-10,54.84-10a147.7,147.7,0,0,1,53.95,10.05A122.82,122.82,0,0,0,345.47,249a178.63,178.63,0,0,0-37.9-4Z"/><path class="cls-1" d="M359.81,290.62a123.78,123.78,0,0,0-14.1-41.46,159.37,159.37,0,0,1,29.65,9.57l.06,0,.17,0a88.07,88.07,0,0,1,30.51-8.67c7.18,6,20,17.76,24.46,29.08a64.86,64.86,0,0,0-22-3.76C382.86,275.42,361.45,289.51,359.81,290.62Z"/><path d="M346,249.35a159.22,159.22,0,0,1,29.35,9.49l.11.05.12.06.12-.06A87.88,87.88,0,0,1,406,250.24c7.22,6,19.8,17.56,24.34,28.73a65.05,65.05,0,0,0-21.82-3.67c-25,0-46,13.4-48.62,15.12A124,124,0,0,0,346,249.35m-.49-.36a122.82,122.82,0,0,1,14.24,41.78l.08,0s21.89-15.25,48.74-15.25a64.57,64.57,0,0,1,22.26,3.85c-4.33-11.26-16.86-22.92-24.69-29.41-18.24,1.88-30.56,8.69-30.56,8.69l-.11-.05A158.92,158.92,0,0,0,345.47,249Z"/><path class="cls-1" d="M430.88,279.29c-4.38-11.32-17.11-23.08-24.48-29.22,2.95-.29,5.92-.44,8.84-.44,17.9,0,34.7,5.41,49.94,16.08a2.73,2.73,0,0,0,.13.35l0,.07c-16.18,1.29-33.29,12.46-34.39,13.19Z"/><path d="M415.24,249.76c17.85,0,34.61,5.39,49.81,16l.1.24c-15.85,1.33-32.53,12-34.2,13.14-4.37-11.2-16.86-22.81-24.25-29,2.85-.27,5.71-.41,8.53-.41h0m0-.25a89.77,89.77,0,0,0-9.15.47c7.84,6.49,20.37,18.15,24.69,29.41l.18.06s17.7-12,34.55-13.22c-.09-.21-.17-.42-.26-.63-17.63-12.34-35.18-16.1-50-16.1Z"/><path class="cls-2" d="M303.11,138.79V402.44a2.56,2.56,0,0,0-.38,0h-6.8a2.56,2.56,0,0,0-.38,0V138.79a3.79,3.79,0,0,1,3.78-3.78,3.79,3.79,0,0,1,3.78,3.78Z"/><path class="cls-3" d="M305,404.69v40.46c0,12.57-10.29,23.1-22.85,22.84a22.38,22.38,0,0,1-21.93-22.38V430.16a5.68,5.68,0,0,1,5.68-5.68h0a5.68,5.68,0,0,1,5.68,5.68v12.6a11,11,0,1,0,22.07.33v-38.4a2.28,2.28,0,0,1,2.28-2.28h6.8A2.28,2.28,0,0,1,305,404.69Z"/><path class="cls-4" d="M137.79,274a170.61,170.61,0,0,1,58.54-79,176.58,176.58,0,0,1,95.49-35.06l2.27-.13-1.71,1.42c-17.45,14.61-58.94,53.61-67.34,100.23-1.32.56-2,.89-2,.89a111,111,0,0,0-22.55-3.55c-1.94-.1-3.9-.16-5.84-.16A114,114,0,0,0,137.79,274Z"/><path d="M293.72,159.94l-1.42,1.18c-17.46,14.61-58.94,53.61-67.37,100.24-1,.44-1.65.73-1.87.83a113.4,113.4,0,0,0-22.57-3.53c-1.94-.1-3.91-.16-5.85-.16A114.1,114.1,0,0,0,138,273.75a170.48,170.48,0,0,1,58.38-78.66,176.46,176.46,0,0,1,95.43-35l1.89-.11m.74-.29-2.65.14c-71.71,4.44-131.7,51-154.25,114.51a114.66,114.66,0,0,1,57.08-15.56q2.87,0,5.83.16a112.68,112.68,0,0,1,22.61,3.54s.71-.33,2.07-.91c8.38-46.74,50.07-85.8,67.31-100.22l2-1.66Z"/><path class="cls-4" d="M465,265.26a85.85,85.85,0,0,0-49.72-15.88,90.81,90.81,0,0,0-39.67,9.11c-3.74-38.4-50.09-81-69.85-97.47L304,159.57l2.23,0C376.11,160.8,438.37,202.25,465,265.26Z"/><path d="M304.33,159.7l1.88,0a177,177,0,0,1,96.71,30.46,171.33,171.33,0,0,1,61.76,74.72,85.93,85.93,0,0,0-49.44-15.65,91.17,91.17,0,0,0-39.61,9.07c-1.65-16.47-11.09-35.3-28.07-56-14.14-17.21-30.51-32-41.76-41.42l-1.48-1.23m-.7-.25,2,1.68c21.85,18.26,66.17,59.62,69.77,97.49l.11.05a89.44,89.44,0,0,1,39.72-9.16c14.84,0,32.38,3.76,50,16.1-25.73-61.39-87.09-104.9-159-106.13-.86,0-1.72,0-2.58,0Z"/><path class="cls-4" d="M225.31,261.32c8.45-46.47,49.81-85.35,67.23-99.92l2-1.66c2.82-.11,5.72-.17,8.54-.17h.54l.19.19,1.75,1.46c19.71,16.47,65.91,58.88,69.7,97.19a159.7,159.7,0,0,0-29.78-9.55,179.17,179.17,0,0,0-37.93-4,221.65,221.65,0,0,0-82.25,16.42Z"/><path d="M303.54,159.7l.13.11,1.82,1.51c11.23,9.38,27.58,24.17,41.69,41.36,16.86,20.52,26.26,39.21,27.94,55.54a159.85,159.85,0,0,0-29.6-9.48,179.31,179.31,0,0,0-38-4,221.87,221.87,0,0,0-82.09,16.34C234,214.79,275.24,176,292.62,161.5l1.94-1.6c2.86-.13,5.73-.2,8.53-.2h.46m.09-.25h-.55q-4.34,0-8.62.2l-2,1.66c-17.24,14.43-58.92,53.49-67.31,100.22A221.43,221.43,0,0,1,307.57,245a178.67,178.67,0,0,1,37.9,4,158.92,158.92,0,0,1,29.95,9.63c-3.6-37.87-47.92-79.23-69.77-97.49l-2-1.68Z"/><path class="cls-4" d="M291.91,159.66a3.25,3.25,0,0,1,0-.53c0-2.71,3.19-4.91,7.12-4.91s7.12,2.2,7.12,4.91c0,.08,0,.15,0,.22l-2.47,0h-.55c-2.83,0-5.74.07-8.63.2Z"/><path d="M299,154.34c3.86,0,7,2.15,7,4.79t0,.09l-2.36,0h-.54c-2.84,0-5.74.07-8.64.2l-2.43.13a3.26,3.26,0,0,1,0-.4c0-2.64,3.14-4.79,7-4.79m0-.25c-4,0-7.24,2.26-7.24,5a3.27,3.27,0,0,0,.06.66l2.65-.14q4.29-.2,8.62-.2h.55c.86,0,1.73,0,2.58,0a3.11,3.11,0,0,0,0-.35c0-2.78-3.24-5-7.24-5Z"/></svg>