<?xml version="1.0" encoding="utf-8"?>
<!-- Generator: Adobe Illustrator 17.0.0, SVG Export Plug-In . SVG Version: 6.00 Build 0)  -->
<!DOCTYPE svg PUBLIC "-//W3C//DTD SVG 1.1//EN" "http://www.w3.org/Graphics/SVG/1.1/DTD/svg11.dtd">
<svg version="1.1" id="Layer_1" xmlns="http://www.w3.org/2000/svg" xmlns:xlink="http://www.w3.org/1999/xlink" x="0px" y="0px"
	 width="612px" height="792px" viewBox="0 0 612 792" enable-background="new 0 0 612 792" xml:space="preserve">
<path d="M472.362,524.12c-0.001-0.003-0.001-0.005-0.002-0.007c-0.005-0.005-0.009-0.011-0.014-0.016L472.362,524.12z"/>
<path d="M568.524,359.109c-0.743-1.793-2.04-3.354-3.068-5.031c-0.544-0.887-1.069-0.896-1.918-0.27
	c-7.219,5.327-14.934,9.905-22.491,14.719c-2.36,1.503-4.382,3.186-5.29,5.885c-0.755,2.246-2.249,2.989-4.484,2.573
	c-1.371-0.255-2.354,0.09-2.668,1.65c-0.611,3.04-2.471,4.596-5.613,4.594c-0.532,0-1.062,0.266-1.598,0.285
	c-1.855,0.067-3.206,0.957-4.186,2.471c-1.526,2.357-3.685,3.706-6.456,4.074c-1,0.133-1.68,0.825-2.5,1.286
	c-4.154,2.333-6.579,6.776-10.995,8.835c-2.464,1.148-4.421,3.136-6.529,4.851c-0.525,0.427-0.908,1.22-1.88,1.034
	c1.178-2.995,1.682-6.112,2.334-9.187c0.203-0.957,0.535-1.329,1.587-1.349c1.859-0.036,4.164,1.023,5.461-0.317
	c1.202-1.241,1.396-3.456,2.036-5.242c0.045-0.128,0.137-0.246,0.154-0.376c0.154-1.215,0.91-1.794,2.06-1.828
	c4.93-0.144,7.942-2.665,9.191-7.37c0.383-1.441,1.329-1.717,2.703-1.783c2.077-0.099,4.712,0.703,6.084-0.596
	c1.358-1.287,1.041-3.943,1.461-5.999c0.325-1.593-0.191-3.737,0.947-4.664c1.199-0.977,3.273-0.383,4.965-0.432
	c4.709-0.136,4.713-0.118,4.199-4.699c-0.076-0.674-0.12-1.365-0.304-2.012c-0.593-2.082-0.24-3.559,2.105-4.278
	c1.41-0.432,2.665-1.344,4.05-1.884c1.118-0.435,1.339-1.045,1.054-2.157c-0.803-3.135-1.512-6.294-2.34-9.793
	c3.798,2.1,7.297,4.035,10.822,5.984c0-2.628,0.078-5.008-0.016-7.382c-0.192-4.843-3.767-9.039-8.517-10.179
	c-2.709-0.65-5.404-0.194-8.106,0.009c-3.651,0.712-7.231,1.665-10.641,3.18c-5.291,2.352-9.384,6.365-13.664,10.071
	c-4.234,3.665-7.79,8.01-11.22,12.423c-3.776,4.857-6.866,10.155-9.624,15.649c-1.367,2.722-2.777,5.421-4.168,8.131
	c-1.254,1.786-2.151,3.758-3.025,5.745c-4.102,9.321-7.95,18.747-11.747,28.195c-0.484,1.205-1.167,1.817-2.54,1.9
	c-2.791,0.17-5.468,0.981-8.135,1.788c-1.333,0.403-2.271,1.195-2.651,2.564c-1.703,6.132-5.209,11.304-8.734,16.472
	c-0.768,1.126-1.734,1.847-3.041,2.22c-5.485,1.565-10.94,3.24-16.292,5.207c-4.635,1.704-9.467,2.967-13.689,5.677
	c-0.942,0.44-1.914,0.829-2.823,1.331c-2.864,1.58-5.708,1.999-8.67,0.203c-0.841-0.509-1.85-0.747-2.791-1.084
	c-7.935-2.839-16.211-4.128-24.495-5.382c-0.718-0.306-1.522,0.027-2.236-0.306c-0.615-0.036-1.231-0.073-1.846-0.11
	c-0.866-0.314-1.811,0.065-2.67-0.308c-0.478,0.191-0.943,0.082-1.408-0.057c-0.541-0.297-1.107-0.571-1.732-0.541
	c-2.862,0.138-5.679-0.469-8.538-0.46c-7.673,0.024-15.333,0.705-23.011,0.427c-2.254-0.082-2.41-0.217-2.039-2.329
	c1.399-7.972,3.116-15.866,5.793-23.524c0.289-0.825,0.678-1.649,0.422-2.57c0.276-1.988,1.168-3.312,3.399-3.397
	c0.849-0.033,1.707-0.266,2.531-0.511c7.251-2.155,13.337-6.091,17.857-12.19c7.512-10.137,9.301-21.24,5.247-33.234
	c-0.157-0.418-0.192-1.113-0.838-0.883c-1.609,0.574-3.53,0.673-4.358,2.578c-0.114,0.627,0.062,1.214,0.236,1.803
	c1.853,6.277,1.579,12.451-0.64,18.617c-3.763,10.457-14.068,18.215-24.858,18.564c-11.821,0.383-22.356-6.37-26.95-17.274
	c-0.803-1.908-0.656-2.225,1.202-3.112c6.32-3.018,12.795-5.7,19.051-8.857c0.603-0.339,1.214-0.662,1.858-0.917
	c2.665-0.985,5.226-2.197,7.75-3.495c0.439-0.224,0.902-0.388,1.366-0.547c2.267-1.055,4.601-1.965,6.815-3.134
	c0.633-0.334,1.472-0.423,1.679-1.308c-0.224-1.174-1.034-1.162-1.938-0.951c-0.496,0.144-0.972,0.339-1.44,0.553
	c-2.756,1.147-5.456,2.418-8.162,3.672c-8.919,4.134-17.877,8.186-26.801,12.31c-2.974,1.374-3.007,1.303-3.573-1.968
	c-0.589-5.679,0.18-11.136,2.669-16.318c0.458-0.955,1.155-1.85,0.961-3.019c-1.157-1.628-2.86-0.754-4.323-0.911
	c-1.392-0.15-2.266,0.599-2.811,1.881c-4.511,10.61-4.15,21.075,1.086,31.309c1.507,2.945,1.986,3.705,0.425,4.384
	c6.024,4.816,12.51,10.575,19.745,12.955c0.246-1.048,0.49-2.095,0.752-3.143c-0.262,1.048-0.506,2.095-0.752,3.143
	c3.105,1.022,6.347,1.425,9.752,0.857c-3.404,0.567-6.646,0.164-9.752-0.857c-2.509,10.685-4.153,21.369-4.232,32.054
	c2.005-0.025,4-0.086,5.984-0.197c-1.983,0.11-3.979,0.171-5.984,0.197c-0.002,0.268-0.016,0.536-0.016,0.803
	c0-0.268,0.014-0.536,0.016-0.803c-14.221,0.18-28.916-1.472-43.135-0.672c0.401,1.469,0.78,2.954,1.118,4.476
	c-0.338-1.522-0.717-3.007-1.118-4.476c-1.97,0.111-3.933,0.259-5.882,0.476c1.949-0.217,3.912-0.365,5.882-0.476
	c-1.762-6.454-4.166-12.458-7.623-18.405c-1.274,1.106-2.672,2.087-4.259,2.881c1.587-0.793,2.985-1.775,4.259-2.881
	c-0.411-0.707-0.818-1.413-1.259-2.119c0.441,0.706,0.848,1.413,1.259,2.119c6.306-5.471,9.288-14.267,13.759-21.573
	c-0.063-0.288-0.041-0.718,0.02-1.37c0.108-1.15,0.391-2.276,0.425-3.439c0.336-11.501-3.751-21.124-12.258-28.863
	c-3.218-2.927-3.729-2.968-7.45-0.844c-0.53,0.303-1.107,0.53-1.561,0.958c-0.158,0.157-0.242,0.345-0.25,0.568
	c0.473,1.178,1.639,1.569,2.569,2.191c5.196,3.474,8.649,8.26,10.76,14.081c1.826,4.947,2.233,10.015,1.34,15.209
	c-0.426,2.477-0.785,2.772-2.988,1.735c-9.691-4.563-19.471-8.934-29.157-13.506c-2.217-0.834-4.245-2.108-6.532-2.772
	c-0.712,0.039-1.204,0.346-1.34,1.093c0.743,1.521,2.502,1.465,3.652,2.353c0.61,0.282,1.215,0.572,1.819,0.864
	c0.264,0.117,0.533,0.221,0.809,0.309c3.958,1.911,7.98,3.681,12.003,5.452c0.254,0.154,0.504,0.316,0.765,0.46
	c5.871,2.831,11.852,5.424,17.742,8.215c1.476,0.699,1.655,1.468,0.987,2.863c-2.53,5.282-6.171,9.503-11.172,12.634
	c-11.386,7.128-27.645,4.14-35.784-6.55c-3.077-4.041-4.884-8.585-6.199-13.398c-0.53-1.206-1.377-1.232-2.283-0.511
	c-1.059,0.843-2.238,1.554-3.091,2.64c-0.106,0.166-0.2,0.336-0.273,0.52c-0.444,0.945-0.912,1.892,0.698,2.175
	c0.251,0.606,0.561,1.194,0.745,1.82c1.308,4.436,3.63,8.327,6.685,11.725c6.921,7.697,15.557,11.539,25.993,11.408
	c2.211-0.028,4.714-1.607,6.575,0.054c1.718,1.533,2.819,3.783,4.096,5.779c1.131,1.766,2.153,3.604,3.17,5.439
	c0.273,0.492,0.82,0.952,0.473,1.762c-8.573-0.204-17.178-0.615-25.79-0.405c-1.263,0.422-2.594-0.052-3.862,0.294
	c-0.904,0.04-1.808,0.079-2.712,0.119c-0.832,0.378-1.756-0.031-2.594,0.299c-6.968,0.885-13.937,1.776-20.734,3.626
	c-0.754,0.205-1.286,0.211-1.719-0.52c-4.231-7.145-10.246-12.688-16.25-18.269c-5.606-5.211-11.577-9.84-18.548-13.104
	c-9.092-4.258-18.494-7.625-28.243-10.016c-1.097-0.269-1.642-0.745-1.906-1.94c-0.661-2.996-1.053-6.043-1.902-9.011
	c-0.398-1.393-0.839-2.913-0.127-4.52c1.946-4.39,3.679-8.874,5.586-13.282c4.791-11.076,9.477-22.191,13.317-33.645
	c2.783-8.301,5.014-16.739,6.505-25.368c0.327-0.69-0.057-1.481,0.31-2.164c0.039-0.776,0.077-1.551,0.116-2.327
	c0.333-1.137-0.115-2.34,0.297-3.47c-0.001-4.76-0.002-9.52-0.003-14.28c-0.397-0.988,0.042-2.061-0.308-3.054
	c-0.736-4.71-1.236-9.471-2.259-14.118c-2.026-9.203-6.757-16.945-13.807-23.153c-5.459-4.807-11.274-4.639-16.721-1.285
	c-3.239,1.995-5.538,5.516-8.3,8.392c4.493,1.478,9.416,1.82,14.318,3.262c-3.903,2.582-7.502,5.042-11.196,7.35
	c-0.898,0.561-0.723,0.77-0.377,1.59c1.058,2.502,1.944,5.081,2.785,7.666c0.22,0.674-0.064,1.29-0.854,1.794
	c-3.096,1.976-6.108,4.088-9.135,6.172c-0.545,0.375-1.388,0.693-0.361,1.562c2.393,2.025,4.552,4.38,7.138,6.102
	c1.763,1.174,1.075,1.653,0.108,2.606c-3.148,3.1-6.261,6.236-9.396,9.35c-0.856,0.851-1.441,1.439,0.116,2.383
	c1.956,1.185,3.643,2.805,5.487,4.182c2.546,1.901,2.275,1.11,0.671,3.861c-1.326,2.274-2.76,4.489-4.202,6.693
	c-0.478,0.73-0.428,1.144,0.233,1.765c1.982,1.86,3.785,3.916,5.823,5.708c1.15,1.011,0.968,1.633,0.097,2.641
	c-1.873,2.168-3.639,4.43-5.441,6.659c-0.633,0.784-0.922,1.334,0.405,1.899c2.537,1.081,4.964,2.415,7.442,3.634
	c0.904,0.445,1.382,0.78,0.354,1.77c-3.204,3.083-6.243,6.327-9.049,9.786c-0.349,0.431-0.656,1.236-1.338,1.056
	c-0.624-0.165-0.605-1.004-0.726-1.533c-1.119-4.901-2.598-9.685-4.955-14.129c-1.037-1.956-0.835-3.522,0.499-5.113
	c0.198-0.676,0.2-1.352-0.001-2.028c-0.396-1.572-0.6-3.164-0.513-4.787c-0.375-0.678,0.02-1.468-0.313-2.152
	c-0.064-0.945-0.645-1.577-1.252-2.239c-1.966-2.142-4.179-4.217-2.093-7.53c2.067-3.282,1.016-5.963-1.649-8.388
	c-1.278-1.163-3.149-2.568-3.021-4.041c0.126-1.451,1.932-2.782,3.06-4.116c2.298-2.716,2.314-2.702-0.368-4.832
	c-2.345-1.862-2.23-1.796-0.706-4.462c1.486-2.6,4.019-4.806,3.487-8.27c-0.437-1.403,0.065-2.871-0.301-4.279
	c-0.036-0.645-0.072-1.29-0.108-1.935c-0.377-0.676,0.017-1.464-0.311-2.147c-0.404-1.575-0.586-3.173-0.503-4.799
	c-0.383-0.673,0.015-1.458-0.311-2.139c-0.402-1.578-0.591-3.178-0.503-4.807c-0.39-0.668,0.014-1.453-0.312-2.131
	c-0.398-1.58-0.596-3.182-0.502-4.814c-0.395-0.665,0.013-1.449-0.312-2.124c-0.372-1.446-0.509-2.92-0.568-4.409
	c-0.034-0.873-0.385-1.418-1.415-1.165c-3.248,0.799-6.541,1.492-9.55,3.005c-14.771,7.427-29.167,15.381-41.645,26.497
	c-5.306,4.728-10.172,9.775-14.08,15.607c-3.766,5.62-6.56,11.771-7.512,18.669c-0.54,3.908-0.673,7.852-0.218,11.641
	c0.64,5.328,2.493,10.438,4.972,15.296c3.353,6.57,7.64,12.459,12.724,17.731c3.815,3.955,7.715,7.824,12.036,11.305
	c3.772,3.038,7.524,6.116,11.496,8.852c9.422,6.489,19.166,12.474,29.522,17.403c0.575,0.274,1.436,0.609,0.842,1.597
	c-0.21,1.085-0.214,2.17,0.003,3.255c0.048,3.114,1.347,5.643,3.759,7.541c3.093,2.433,6.624,3.805,10.588,3.968
	c5.156,0.315,10.173-0.482,15.431-2.364c-1.317,2.305-1.496,4.331-1.056,6.239c2.514,10.908,6.831,20.865,15.751,28.194
	c3.792,3.115,8.056,5.485,12.522,7.509c6.676,3.025,13.672,4.978,20.957,6.251c-0.158,0.313-0.211,0.514-0.335,0.65
	c-6.992,7.665-9.497,16.706-8.261,26.896c0.074,0.61,0.18,1.184-0.465,1.623c-2.955,2.011-5.892,4.048-8.835,6.076
	c-5.446,4.039-10.829,8.155-16.184,12.336c-5.09,3.975-10.107,8.025-15.034,12.196c-1.806,1.53-2.926,3.307-2.733,5.749
	c-0.37,1.411,0.137,2.885-0.306,4.291c-0.034,1.29-0.067,2.581-0.101,3.871c-0.373,1.413,0.137,2.889-0.309,4.297
	c-0.033,1.289-0.065,2.577-0.098,3.866c-0.375,1.414,0.138,2.893-0.312,4.302c-0.032,1.286-0.063,2.573-0.095,3.86
	c-0.378,1.416,0.138,2.896-0.314,4.306c-0.031,1.286-0.062,2.571-0.093,3.857c-0.38,1.416,0.139,2.898-0.316,4.309
	c-0.034,1.421-0.068,2.842-0.102,4.263c-0.349,1.281,0.131,2.628-0.308,3.903c0.203,2.241-0.427,4.587,0.516,6.702
	c0.375,0.84,0.445,2.235,1.779,2.37c1.48,0.15,1.465-1.326,2.033-2.133c0.294-0.417,0.379-0.983,0.548-1.485
	c1.496-4.44,2.286-9.051,3.243-13.618c1.857-8.863,3.154-17.826,4.568-26.767c0.33-0.681-0.07-1.469,0.313-2.142
	c0.032-0.511,0.065-1.022,0.097-1.532c0.327-0.862-0.062-1.807,0.311-2.663c-0.251-0.902,0.292-0.901,0.981-1.034
	c4.966-0.955,9.968-1.783,14.864-3.024c8.708-2.207,17.441-4.394,25.7-8.036c1.133-0.5,1.581-0.209,1.906,0.773
	c0.799,2.41,2.268,4.471,3.466,6.672c1.709,3.141,1.641,3.041-1.073,5.457c-5.73,5.1-11.566,10.1-16.88,15.641
	c-2.49,2.597-5.128,5.031-7.667,7.572c-1.021,1.022-1.623,2.266-1.599,3.538c0.042,2.217-0.55,4.348-0.552,6.54
	c-0.309,0.685,0.075,1.468-0.302,2.143c-0.034,0.51-0.068,1.02-0.102,1.53c-0.311,0.69,0.062,1.477-0.302,2.16
	c-0.034,0.505-0.069,1.009-0.103,1.513c-0.31,0.701,0.045,1.494-0.3,2.191c-0.035,0.494-0.07,0.988-0.105,1.482
	c-0.311,0.708,0.035,1.506-0.302,2.211c-0.311,3.072-0.622,6.145-0.933,9.217c-0.311,0.683,0.077,1.465-0.304,2.138
	c-0.034,0.512-0.067,1.023-0.101,1.535c-0.311,0.69,0.062,1.477-0.302,2.16c-0.034,0.505-0.069,1.009-0.103,1.513
	c-0.312,0.697,0.05,1.488-0.301,2.18c0.077,1.575-0.179,3.168,0.412,4.714c0.247,0.647,0.69,1.035,1.262,1.171
	c0.635,0.151,0.884-0.419,1.158-0.911c0.488-0.877,0.894-1.774,1.225-2.729c1.576-4.548,2.685-9.222,3.82-13.889
	c1.9-7.809,3.826-15.613,4.745-23.621c0.151-1.314,0.576-2.358,2.21-2.574c1.285-0.17,2.52-0.72,3.774-1.111
	c7.542-2.352,14.952-5.042,21.976-8.701c3.238-1.687,3.26-1.73,5.303,1.372c0.439,0.667,1.269,1.168,0.691,2.401
	c-4.274,9.125-9.296,17.888-13.104,27.241c-0.983,2.416-2.604,4.686-2.006,7.408c0.742,3.38,1.827,6.683,2.735,10.028
	c1.562,5.755,3.027,11.538,4.682,17.266c0.882,3.053,1.068,6.356,2.993,9.063c0.459,0.646,0.941,1.544,1.888,1.21
	c0.823-0.29,1.005-1.24,1.039-2.036c0.066-1.557,0.013-3.119,0.009-4.679c-0.386-0.826,0.025-1.744-0.296-2.578
	c-0.04-0.626-0.079-1.252-0.118-1.878c-0.34-0.702,0.011-1.498-0.302-2.204c-0.156-0.792-0.369-1.578-0.46-2.378
	c-0.811-7.136-1.844-14.237-3.549-21.22c-0.249-1.018-0.032-1.513,0.792-2.152c6.321-4.899,12.496-9.978,17.965-15.838
	c1.1-1.178,1.769-0.924,2.782,0.066c2.834,2.769,5.787,5.415,9.11,7.605c5.15,3.395,10.674,5.526,16.981,5.352
	c5.299-0.146,10.605-0.132,15.908-0.097c5.226,0.034,10.453-0.309,15.677,0.064c0.651-0.284,1.339-0.182,2.013-0.182
	c22.349-0.005,44.697-0.005,67.046,0c0.674,0,1.362-0.104,2.013,0.179c4.071-0.341,8.142,0.001,12.211,0.055
	c3.698,0.048,7.127-0.849,10.45-2.353c6.077-2.752,11.01-7.013,15.506-11.825c1.072-1.146,1.713-1.651,3.093-0.157
	c4.356,4.715,9.311,8.783,14.324,12.793c2.749,2.198,5.501,4.244,7.204,7.786c3.502,7.283,7.871,14.14,12.472,20.822
	c1.657,2.407,3.156,4.916,5.077,7.136c0.535,0.618,1.174,1.017,1.928,0.772c0.763-0.247,0.72-1.043,0.765-1.727
	c0.082-1.249-0.23-2.401-0.745-3.524c-1.503-3.278-2.93-6.593-4.495-9.841c-3.845-7.98-7.208-16.172-11.222-24.092
	c-4.083-8.056-7.527-16.467-11.893-24.382c-1.662-3.013-1.661-5.093,0.477-7.576c0.739-0.859,1.122-1.216,2.231-0.633
	c8.324,4.377,17.025,7.808,26.132,10.193c2.407,0.63,4.112,2,5.47,4.213c2.891,4.711,6.496,8.929,9.997,13.203
	c2.58,3.148,5.079,6.38,7.872,9.329c2.624,2.771,4.797,5.991,7.994,8.221c0.67,0.467,1.277,0.798,1.981,0.378
	c0.708-0.422,0.586-1.24,0.413-1.861c-0.355-1.278-0.61-2.55-1.391-3.742c-4.257-6.499-8.275-13.157-12.593-19.615
	c-4.36-6.522-7.993-13.528-14.123-18.836c-7.321-6.338-14.029-13.375-21.544-19.514c-0.765-0.625-0.785-1.114-0.305-1.971
	c1.408-2.512,2.749-5.066,3.995-7.662c0.824-1.718,1.526-2.915,3.675-1.388c0.527,0.375,1.483,0.701,2.297,0.939
	c4.486,1.312,8.872,2.935,13.385,4.186c6.632,1.838,13.324,3.366,20.083,4.632c1.298,0.243,2.767,0.252,3.326,1.854
	c0.33,0.486,0.4,1.101,0.782,1.561c0.206,1.566,0.789,1.228,1.827,0.555c0.859-0.557,1.785-2.504,3.104-0.443
	c0.346,0.398,0.718,0.77,1.116,1.117c0.308,0.321,0.616,0.643,0.924,0.965c0.653,0.568,1.097,1.344,1.83,1.831
	c0.478,0.589,0.957,1.179,1.436,1.769c0.572,0.727,1.234,1.364,1.933,1.965c0.58,0.702,1.16,1.405,1.74,2.107
	c0.541,0.677,1.169,1.28,1.687,1.977c0.934,1.096,1.869,2.192,2.803,3.288c0.589,0.885,1.492,1.506,2.046,2.421
	c0.814,0.975,1.629,1.949,2.443,2.923c0.742,1.003,1.781,1.743,2.471,2.792c0.265,0.27,0.529,0.539,0.794,0.809
	c0.556,0.374,1.066,0.809,1.586,1.23c1.114,0.854,2.238,0.452,3.361,0.023c0.548-0.347,0.485-0.867,0.394-1.395
	c-0.1-0.864,1.321-0.544,1.144-1.469c-0.669-0.733-1.282-1.501-1.585-2.469c-0.381-0.681-0.471-1.528-1.156-2.036
	c-0.163-0.262-0.327-0.523-0.49-0.784c-0.327-0.532-0.274-1.29-0.956-1.612c-2.417-3.767-4.835-7.534-7.253-11.301
	c-0.199-0.757-0.754-1.255-1.287-1.769c-1.793-2.403-3.696-4.729-5.204-7.335c-0.5-0.856-0.93-1.761-1.669-2.454
	c0.001,0.003,0.001,0.005,0.002,0.007l-0.016-0.023c0.005,0.005,0.009,0.011,0.014,0.016c-0.298-0.802,0.674-0.904,0.813-1.465
	c1.05-0.714,0.754-1.45,0.036-2.193c-0.428-0.899-1.217-1.466-1.927-2.107c-0.688-0.896-1.676-1.043-2.302-0.238
	c-1.393,1.789-2.478,0.819-3.636-0.157c-0.57-0.481-1.083-1.029-1.661-1.499c-11.495-9.342-23.209-18.397-35.369-26.863
	c-0.912-0.635-1.381-1.246-1.26-2.425c0.272-2.644,0.021-5.297-0.484-7.885c-0.215-1.102-0.149-1.408,0.947-1.866
	c2.961-1.239,5.856-2.677,8.48-4.55c7.846-5.599,15.626-11.284,21.99-18.635c0.969-0.4,2.021,0.046,2.996-0.297
	c7.827-0.819,15.389-2.681,22.563-5.941c4.09-1.859,7.832-4.293,10.791-7.736c2.02-2.351,3.728-4.965,2.685-8.243
	c-0.512-1.607,0.024-2.087,1.322-2.751c5.706-2.917,11.76-4.907,17.84-6.804c8.675-2.707,17.447-5.149,25.653-9.134
	c8.087-3.927,15.498-8.882,22.21-14.909c5.637-5.062,9.012-11.148,9.142-18.804C573.312,372.413,571.242,365.663,568.524,359.109z"
	/>
<path fill="#231F20" d="M260.62,369.791c-0.004,0.126-0.007,0.252-0.009,0.379c-2.083,1.976-4.745,3.091-7.057,4.743
	c-5.022,3.589-9.84,7.438-14.768,11.146c-0.709,0.533-1.416,1.043-2.283,1.282c-0.64,0.022-1.036,0.371-1.267,0.942
	c-1.165,1.435-2.625,2.51-4.201,3.445c-0.577,0.463-1.184,0.882-1.826,1.25c-2.821,2.081-5.783,3.971-8.392,6.334
	c-0.405,0.366-0.829,0.689-0.968,1.25c-0.109,0.271-0.25,0.516-0.52,0.659c-0.511-0.81-1.092-0.573-1.666-0.094
	c-1.038,0.864-2.064,1.743-3.095,2.616c-4.026-1.23-7.689-3.314-11.326-5.308c-5.014-2.75-10.006-5.662-14.015-9.897
	c-0.463-0.489-1.06-0.868-1.023-1.657c0.828-4.194,4.087-5.908,7.622-7.057c2.396-0.779,4.513-2.076,6.822-2.997
	c2.485-0.991,4.777-2.383,7.364-3.239c2.39-0.791,4.529-2.331,6.79-3.518c2.855-1.499,5.898-2.654,8.504-4.611
	c1.823-0.975,2.603-2.754,3.276-4.52c2.298-6.026,5.046-11.845,7.809-17.664c2.064-4.347,4.25-8.631,6.527-12.863
	c2.956-5.492,5.951-10.967,9.157-16.322c2.351-4.21,5.065-8.196,7.653-12.256c2.557-4.01,5.426-7.932,9.234-10.758
	c5.016-3.722,10.716-4.22,16.422-1.374c4.016,2.003,7.61,4.665,10.993,7.623c5.188,4.538,10.431,9.039,15.915,13.192
	c5.065,3.836,10.37,7.431,16.162,10.179c0.561,0.266,1.069,0.585,1.537,0.983c6.689,3.557,13.122,7.624,20.134,10.526
	c2.421,1.002,5.11,1.169,7.841,1.259c2.316,0.076,4.665-0.049,6.931-0.138c3.897-0.153,7.612,0.862,11.428,1.124
	c4.638,0.319,9.194,1.751,12.57,5.44c0.454,0.828,0.071,1.619-0.102,2.42c-1.18,2.896-3.374,4.989-5.54,7.134
	c-2.494,2.471-5.24,4.675-7.606,7.275c-3.158,3.469-7.166,5.854-10.909,8.578c-0.045,0.138-0.089,0.275-0.134,0.413
	c-2.106-0.828-3.442,0.556-4.863,1.694c-3.757,1.491-7.572,2.301-11.572,0.995c-0.505-0.165-1.064-0.193-1.443-0.636
	c-0.351-0.951-1.033-0.715-1.715-0.478c-9.433-1.396-18.836-3-28.303-4.158c-1.941-0.237-3.92-0.167-5.864-0.486
	c-0.735-0.12-1.494-0.125-2.08-0.68c-1.658-1.011-3.528-0.752-5.285-0.645c-1.296,0.079-2.569,0.107-3.844-0.029
	c-10.265-1.098-20.217-0.089-29.617,4.472C266.945,367.25,263.282,367.354,260.62,369.791z"/>
<path fill="#FCFCFC" d="M364.738,365.297c-0.053-0.978,0.84-1.159,1.404-1.506c3.822-2.36,7.175-5.296,10.412-8.375
	c2.693-2.561,5.358-5.152,8.018-7.748c1.559-1.521,2.89-3.218,3.797-5.218c0.292-0.77,0.656-1.511,0.895-2.301
	c0.405-2.301-0.39-4.158-2.097-5.679c-3.985-3.853-9.089-4.909-14.284-5.791c-2.498-0.424-5.003-0.419-7.516-0.411
	c-4.057,0.012-8.119-0.043-12.17-0.151c-2.711-0.072-5.299-1.239-7.703-2.486c-10.07-5.225-20.142-10.47-29.649-16.68
	c-5.234-3.418-9.977-7.515-14.767-11.541c-4.985-4.19-9.84-8.572-15.459-11.954c-2.892-1.741-5.992-3.022-9.361-3.183
	c-3.939-0.188-7.206,1.638-10.114,4.153c-5.061,4.377-8.545,9.972-12.057,15.553c-5.83,9.265-11.251,18.762-16.266,28.49
	c-4.359,8.456-8.489,17.019-11.868,25.924c-0.651,1.716-1.685,3.005-3.275,4.003c-6.587,4.135-13.878,6.852-20.733,10.442
	c-0.301,0.158-0.648,0.199-0.992,0.215c-0.447-0.007-0.865-0.088-1.162-0.467c5.187-2.618,10.332-5.308,15.712-7.545
	c2.587-1.076,4.97-2.685,7.351-4.201c2.12-1.35,2.24-3.91,3.117-5.966c2.137-5.01,4.466-9.924,6.765-14.858
	c1.783-3.827,3.55-7.668,5.623-11.328c2.389-4.217,4.536-8.567,7.129-12.679c3.163-5.017,5.956-10.267,9.094-15.301
	c3.435-5.509,7.235-10.805,12.54-14.683c4.936-3.607,10.33-3.883,15.908-1.347c5.853,2.661,10.636,6.807,15.457,10.916
	c6.752,5.754,13.423,11.681,21.053,16.216c4.947,2.94,9.845,6.027,15.14,8.445c2.748,1.255,5.301,3.178,8.033,4.607
	c2.957,1.547,5.977,3.093,9.311,3.692c1.833,0.329,3.719-0.015,5.599,0.133c2.606,0.205,5.202-0.165,7.863,0.43
	c1.43,0.32,3.169,0.124,4.758,0.112c3.979-0.031,7.657,1.138,11.382,2.245c3.184,0.947,5.396,3.26,7.759,5.364
	c0.898,0.799,1.308,5.102,0.788,6.216c-2.565,5.495-7.189,9.193-11.435,13.227c-2.078,1.974-4.017,4.121-6.252,5.895
	C370.07,362.097,367.74,364.229,364.738,365.297z"/>
<path fill="#FCFCFC" d="M214.422,404.192c-0.035,0.668-1.115,1.527,0.352,1.92c-0.798-0.017-1.37,0.009-1.868-1.029
	c-0.816-1.702-2.949-1.869-4.487-2.579c-5.248-2.425-10.117-5.513-14.961-8.57c-3.049-1.924-5.782-4.579-7.839-7.714
	c-2.129-3.246-1.153-7.961,2.118-10.138c0.254-0.169,0.652-0.123,0.984-0.177c0.148,0.137,0.229,0.304,0.235,0.506
	c-0.085,0.514-0.502,0.778-0.834,1.108c-2.945,2.918-3.168,4.553-1.129,8.264c0.168,0.231,0.331,0.466,0.494,0.701
	c2.525,3.441,5.964,5.82,9.479,8.087c5.031,3.245,10.303,6.055,15.772,8.494C213.36,403.342,213.875,403.795,214.422,404.192z"/>
<path fill="#E7E7C6" d="M188.788,376.337c-0.022-0.144-0.043-0.288-0.065-0.431c0.722-0.986,1.814-1.322,2.909-1.653
	c0.479-0.746,1.352-0.819,2.046-1.199c1.077-0.131,1.911-0.819,2.857-1.25c0.479-0.407,1.107-0.501,1.646-0.784
	c0.594,0.069,1.117-0.129,1.612-0.432c0.41,0.006,0.821,0.013,1.231,0.019c0.045,0.092,0.089,0.185,0.134,0.277
	c-0.063,0.201-0.179,0.365-0.344,0.494c-3.639,1.644-7.439,2.937-10.894,4.988C189.568,376.574,189.156,376.666,188.788,376.337z"/>
<path fill="#FCFCFC" d="M107.929,288.772c-0.418-1.404-0.334-2.843-0.301-4.279C108.335,285.877,107.828,287.346,107.929,288.772z"
	/>
<path fill="#FCFCFC" d="M236.719,443.695c-1.265,0.394-2.564,0.331-3.862,0.294C234.102,443.332,235.43,443.771,236.719,443.695z"/>
<path fill="#FCFCFC" d="M163.955,313.867c-0.038-1.168-0.09-2.336,0.297-3.469C164.169,311.555,164.628,312.76,163.955,313.867z"/>
<path fill="#FCFCFC" d="M101.37,401.625c0.001,1.085,0.002,2.17,0.003,3.255C100.823,403.796,100.826,402.711,101.37,401.625z"/>
<path fill="#FCFCFC" d="M164.249,296.118c-0.388-0.989-0.336-2.023-0.308-3.054C164.616,294.024,164.172,295.097,164.249,296.118z"
	/>
<path fill="#FCFCFC" d="M193.678,373.054c-0.682,0.4-1.364,0.799-2.046,1.199C191.881,373.114,192.791,373.104,193.678,373.054z"/>
<path fill="#FCFCFC" d="M230.145,444.108c-0.833,0.372-1.713,0.344-2.594,0.299C228.355,443.777,229.274,444.152,230.145,444.108z"
	/>
<path fill="#FDFDFD" d="M368.752,444.404c-0.905,0.038-1.814,0.099-2.669-0.307C366.975,444.179,367.924,443.766,368.752,444.404z"
	/>
<path fill="#FCFCFC" d="M107.521,282.559c-0.367-0.678-0.366-1.408-0.311-2.147C107.801,281.057,107.491,281.832,107.521,282.559z"
	/>
<path fill="#FCFCFC" d="M106.707,275.612c-0.363-0.675-0.368-1.403-0.311-2.139C106.985,274.116,106.674,274.889,106.707,275.612z"
	/>
<path fill="#FCFCFC" d="M105.893,268.667c-0.36-0.673-0.369-1.397-0.312-2.131C106.167,267.175,105.857,267.946,105.893,268.667z"/>
<path fill="#FCFCFC" d="M111.299,341.618c0-0.676-0.001-1.352-0.001-2.028C111.804,340.266,111.814,340.942,111.299,341.618z"/>
<path fill="#FDFDFD" d="M372.834,444.82c-0.765,0.048-1.528,0.084-2.235-0.305C371.352,444.558,372.157,444.216,372.834,444.82z"/>
<path fill="#FCFCFC" d="M105.079,261.721c-0.355-0.671-0.37-1.392-0.312-2.124C105.35,260.235,105.041,261.004,105.079,261.721z"/>
<path fill="#FCFCFC" d="M163.53,318.358c-0.065-0.745-0.026-1.475,0.31-2.163C163.812,316.926,164.125,317.707,163.53,318.358z"/>
<path fill="#FCFCFC" d="M198.181,371.019c-0.438,0.493-0.989,0.749-1.646,0.784C196.859,371.069,197.483,370.968,198.181,371.019z"
	/>
<path fill="#FCFCFC" d="M110.785,334.803c-0.372-0.678-0.368-1.412-0.313-2.152C111.068,333.297,110.755,334.075,110.785,334.803z"
	/>
<path fill="#FCFCFC" d="M273.429,584.027c4.326-0.465,8.67-0.252,13.003-0.259c18.826-0.03,37.652,0.024,56.478,0.059
	c0.53,0.001,1.059,0.128,1.59,0.197C320.809,584.026,297.119,584.026,273.429,584.027z"/>
<path fill="#FCFCFC" d="M490.42,555.463c-0.644-1.655,1.376-0.73,1.546-1.597c1.365,0.291,1.3,1.652,2.114,2.545
	c-1.038,0.268-1.14-0.466-1.468-0.882c-0.479-0.606-0.966-1.06-1.435,0.012C490.902,555.73,490.649,555.713,490.42,555.463z"/>
<path fill="#FCFCFC" d="M482.216,551.876c1.027,0.751,1.971,1.575,2.471,2.792C483.682,553.898,482.588,553.207,482.216,551.876z"/>
<path fill="#FCFCFC" d="M126.672,544.061c0.018,1.442,0.147,2.892-0.311,4.301C126.484,546.93,125.956,545.45,126.672,544.061z"/>
<path fill="#FCFCFC" d="M126.265,552.223c0.014,1.443,0.152,2.896-0.314,4.305C126.078,555.095,125.545,553.613,126.265,552.223z"/>
<path fill="#FCFCFC" d="M127.079,535.898c0.019,1.44,0.142,2.888-0.309,4.296C126.889,538.764,126.365,537.286,127.079,535.898z"/>
<path fill="#FCFCFC" d="M477.727,546.532c0.953,0.578,1.662,1.363,2.046,2.421C478.902,548.306,477.941,547.735,477.727,546.532z"/>
<path fill="#FCFCFC" d="M127.486,527.736c0.024,1.438,0.134,2.883-0.306,4.29C127.294,530.597,126.775,529.123,127.486,527.736z"/>
<path fill="#FCFCFC" d="M125.858,560.385c0.012,1.444,0.156,2.898-0.316,4.308C125.671,563.26,125.136,561.776,125.858,560.385z"/>
<path fill="#FCFCFC" d="M469.564,537.195c0.912,0.392,1.426,1.175,1.933,1.965C470.466,538.884,469.81,538.241,469.564,537.195z"/>
<path fill="#FCFCFC" d="M125.44,568.957c0.027,1.311,0.143,2.629-0.307,3.903C125.237,571.559,124.773,570.214,125.44,568.957z"/>
<path fill="#FCFCFC" d="M473.213,520.45c-0.734-0.618-1.439-1.264-1.927-2.107C472.364,518.647,473.093,519.27,473.213,520.45z"/>
<path fill="#FCFCFC" d="M474.034,526.56c-0.706-0.724-1.303-1.523-1.683-2.47C473.453,524.545,473.895,525.449,474.034,526.56z"/>
<path fill="#FCFCFC" d="M466.297,533.595c0.753,0.467,1.342,1.098,1.83,1.831C467.171,535.161,466.565,534.547,466.297,533.595z"/>
<path fill="#FCFCFC" d="M473.237,541.267c0.804,0.453,1.444,1.045,1.687,1.977C474.131,542.782,473.394,542.271,473.237,541.267z"/>
<path fill="#FCFCFC" d="M457.992,454.226c0.969-0.399,1.986-0.311,2.996-0.297C460.045,454.584,458.994,454.164,457.992,454.226z"/>
<path fill="#FCFCFC" d="M490.38,551.397c-0.385-0.679-0.771-1.357-1.156-2.036C490.312,549.641,490.33,550.528,490.38,551.397z"/>
<path fill="#FCFCFC" d="M198.938,619.286c-0.36-0.829-0.348-1.702-0.296-2.578C199.26,617.507,198.889,618.421,198.938,619.286z"/>
<path fill="#FCFCFC" d="M138.229,534.256c-0.033-0.903-0.081-1.807,0.311-2.662C138.466,532.484,138.877,533.432,138.229,534.256z"
	/>
<path fill="#FCFCFC" d="M485.481,555.478c0.798,0.063,1.219,0.611,1.586,1.23C486.26,556.656,485.828,556.121,485.481,555.478z"/>
<path fill="#B2B2B2" d="M490.42,555.463c0.252,0.026,0.504,0.052,0.756,0.078c0.39,0.799,0.041,1.133-0.748,1.19
	C490.742,556.306,490.769,555.884,490.42,555.463z"/>
<path fill="#FCFCFC" d="M480.525,535.664c-0.429-0.59-0.858-1.179-1.287-1.769C480.094,534.174,480.604,534.705,480.525,535.664z"/>
<path fill="#FCFCFC" d="M458.544,529.84c0.594,0.353,0.727,0.938,0.782,1.561C458.645,531.091,458.501,530.513,458.544,529.84z"/>
<path fill="#FCFCFC" d="M488.735,548.577c-0.319-0.537-0.638-1.075-0.956-1.612C488.709,547.139,488.766,547.832,488.735,548.577z"
	/>
<path fill="#FCFCFC" d="M464.257,531.513c0.565,0.179,0.953,0.536,1.116,1.117C464.69,532.568,464.319,532.195,464.257,531.513z"/>
<path fill="#FCFCFC" d="M157.686,565.692c0.056,0.736,0.048,1.463-0.302,2.142C157.418,567.111,157.109,566.339,157.686,565.692z"/>
<path fill="#FCFCFC" d="M157.281,569.365c0.056,0.742,0.059,1.476-0.302,2.16C157.009,570.795,156.699,570.017,157.281,569.365z"/>
<path fill="#FCFCFC" d="M156.877,573.037c0.052,0.751,0.067,1.497-0.3,2.191C156.603,574.488,156.285,573.701,156.877,573.037z"/>
<path fill="#FCFCFC" d="M156.472,576.71c0.05,0.757,0.081,1.512-0.302,2.211C156.199,578.175,155.873,577.379,156.472,576.71z"/>
<path fill="#FCFCFC" d="M137.819,537.929c-0.06-0.738-0.034-1.463,0.313-2.141C138.095,536.511,138.413,537.287,137.819,537.929z"/>
<path fill="#FCFCFC" d="M472.366,524.114c-0.823-1.093,0.395-1.062,0.811-1.472C472.907,523.133,472.637,523.624,472.366,524.114z"
	/>
<path fill="#FCFCFC" d="M155.237,588.139c0.06,0.735,0.044,1.46-0.304,2.138C154.969,589.555,154.66,588.784,155.237,588.139z"/>
<path fill="#FCFCFC" d="M154.833,591.812c0.052,0.741,0.059,1.476-0.302,2.16C154.561,593.242,154.25,592.464,154.833,591.812z"/>
<path fill="#FCFCFC" d="M154.428,595.484c0.053,0.748,0.067,1.49-0.301,2.18C154.154,596.928,153.838,596.143,154.428,595.484z"/>
<path fill="#FCFCFC" d="M198.524,614.829c-0.369-0.698-0.351-1.449-0.302-2.204C198.82,613.292,198.496,614.085,198.524,614.829z"/>
<path fill="#B12B2B" d="M293.474,578.021c-14.825,0-29.65-0.027-44.474,0.02c-3.528,0.011-7.07,0.578-10.584,0.099
	c-5.895-0.803-10.625-4.003-14.949-7.824c-8.535-7.542-15.198-16.635-21.325-26.15c-8.552-13.28-16.005-27.157-22.301-41.639
	c-2.256-5.19-3.613-10.637-3.806-16.367c-0.35-10.351,4.026-18.234,12.311-24.108c8.049-5.707,17.286-8.407,26.82-10.221
	c13.899-2.644,27.926-2.923,42.019-2.222c5.631,0.28,11.286,0.073,16.931,0.078c20.537,0.019,41.075,0.041,61.612,0.048
	c7.476,0.003,14.943-0.655,22.422-0.335c13.199,0.564,26.275,1.904,38.803,6.484c5.528,2.021,10.727,4.666,15.171,8.583
	c8.621,7.598,10.719,17.242,8.67,28.15c-1.411,7.511-4.796,14.263-8.145,21.014c-7.773,15.671-16.302,30.898-27.159,44.691
	c-5.361,6.81-11.159,13.199-18.86,17.498c-2.943,1.643-6.045,2.549-9.515,2.504C335.902,578.045,314.689,577.851,293.474,578.021z"
	/>
<path fill="#B12B2B" d="M126.321,292.059c2.573-1.779,4.911-3.538,7.396-5.059c1.416-0.867,1.531-1.687,0.906-3.108
	c-0.873-1.983-1.434-4.102-2.261-6.109c-0.445-1.08-0.303-1.689,0.708-2.339c5.032-3.232,10.054-6.482,14.998-9.845
	c1.241-0.844,1.6-0.154,2.176,0.638c4.098,5.629,5.995,12.011,7.172,18.826c3.404,19.716,1.103,38.775-5.536,57.517
	c-4.018,11.342-8.592,22.444-13.367,33.474c-1.321,3.052-2.521,6.158-3.737,9.255c-0.346,0.881-0.691,1.4-1.756,0.866
	c-0.588-0.295-1.3-0.372-1.968-0.472c-0.881-0.131-2.03-1.229-2.546-0.367c-0.769,1.283-1.728,3.058-1.162,4.372
	c0.53,1.229,0.285,2.203,0.204,3.26c-0.184,2.374-0.625,4.716-1.692,6.88c-1.133,2.298-2.458,2.962-4.961,2.42
	c-5.131-1.111-9.646-3.603-14.002-6.408c-1.172-0.755-2.3-1.414-3.758-1.208c-0.699,0.099-1.345-0.152-1.955-0.466
	c-18.221-9.395-35.343-20.346-49.566-35.332c-4.978-5.245-9.267-11.017-12.443-17.569c-6.228-12.85-5.546-25.336,1.921-37.461
	c6.034-9.798,14.513-17.195,23.713-23.843c9.89-7.146,20.502-13.084,31.499-18.321c3.249-1.547,3.044-1.819,3.493,1.933
	c0.774,6.469,1.553,12.937,2.274,19.411c0.24,2.157,0.315,4.333,0.457,6.5c0.048,0.734-0.4,1.276-0.757,1.851
	c-1.718,2.772-3.384,5.579-5.18,8.301c-0.676,1.024-0.55,1.531,0.396,2.288c3.25,2.597,3.215,2.64,0.546,5.783
	c-2.463,2.901-2.463,2.901,0.073,5.784c0.135,0.153,0.278,0.3,0.407,0.457c1.513,1.831,3.851,3.484,4.297,5.547
	c0.423,1.955-1.057,4.367-1.854,6.522c-0.447,1.209-0.179,2.021,0.653,2.917c2.453,2.641,4.837,5.284,4.649,9.335
	c-0.057,1.229,0.168,2.436-0.6,3.485c-1.188,1.623-1.016,3.139-0.107,4.88c4.38,8.396,6.009,17.695,8.61,26.675
	c0.073,0.254,0.15,0.506,0.276,0.933c1.315-0.593,1.894-1.802,2.634-2.749c5.829-7.463,12.322-14.322,18.993-21.018
	c1.159-1.163,1.348-1.708-0.368-2.451c-2.614-1.133-5.102-2.555-7.679-3.778c-0.989-0.469-1.17-0.827-0.398-1.729
	c1.589-1.858,3.032-3.84,4.589-5.727c0.634-0.768,0.664-1.287-0.107-2.019c-2.121-2.012-4.119-4.153-6.244-6.161
	c-0.795-0.752-0.859-1.3-0.268-2.218c1.729-2.684,3.297-5.473,5.052-8.139c0.679-1.033,0.645-1.588-0.398-2.275
	c-1.644-1.083-3.144-2.387-4.806-3.438c-1.519-0.96-1.85-1.639-0.321-3.04c3.055-2.8,5.866-5.865,8.865-8.73
	c1.035-0.989,1.1-1.58-0.041-2.519C131.044,296.298,128.753,294.194,126.321,292.059z"/>
<path fill="#B12B2B" d="M479.14,422.053c2.901-2.499,5.733-4.918,8.542-7.362c5.332-4.639,10.529-9.456,16.881-12.739
	c0.827-0.427,1.294-1.139,1.829-1.85c1.916-2.546,4.275-4.665,7.434-5.324c2.627-0.549,4.673-1.719,6.142-3.875
	c1.077-1.579,2.465-2.445,4.367-2.571c0.741-0.049,1.469-0.334,2.207-0.352c3.036-0.073,5.116-1.307,5.789-4.453
	c0.299-1.396,1.467-1.282,2.457-1.122c1.903,0.308,3.098-0.434,3.787-2.174c1.813-4.577,5.252-7.504,9.444-9.916
	c4.765-2.741,9.292-5.898,13.912-8.892c0.814-0.528,1.471-1,2.001,0.356c2.012,5.147,3.575,10.398,3.958,15.944
	c0.551,7.987-3.447,13.648-9.241,18.535c-11.788,9.943-25.574,15.775-40.197,19.998c-8.683,2.507-17.306,5.209-25.195,9.781
	c-0.401,0.232-0.811,0.425-1.341,0.37c-4.23-0.438-8.185,0.608-12.028,2.269c-2.18,0.942-4.339,1.966-6.589,2.703
	c-2.927,0.959-2.643,0.63-2.887-2.339c-0.743-9.076,3.238-16.777,6.506-24.718c4.992-12.127,10.071-24.216,16.647-35.602
	c5.711-9.888,13.116-18.281,22.018-25.444c3.725-2.997,7.683-5.3,12.267-6.618c1.242-0.357,1.818-0.263,2.138,1.116
	c0.827,3.569,1.76,7.115,2.71,10.654c0.368,1.372,0.202,2.302-1.292,2.877c-1.58,0.608-3.055,1.485-4.612,2.161
	c-1.021,0.443-1.45,0.961-1.145,2.173c0.396,1.572,0.447,3.228,0.791,4.816c0.211,0.978-0.125,1.165-0.987,1.197
	c-2.104,0.078-4.204,0.28-6.308,0.326c-1.012,0.022-1.385,0.326-1.492,1.386c-0.284,2.834-0.788,5.646-1.082,8.479
	c-0.122,1.176-0.722,1.494-1.725,1.508c-0.204,0.003-0.415,0.051-0.611,0.014c-4.079-0.782-6.498,0.935-7.447,4.907
	c-0.648,2.709-2.356,4.104-5.162,4.212c-3.639,0.14-5.862,1.903-6.329,5.648c-0.217,1.74-1.242,2.263-2.978,2.14
	c-1.665-0.118-3.808-0.823-4.917,0.25c-0.978,0.945-0.869,3.031-1.205,4.62c-1.756,8.313-4.455,16.366-6.705,24.543
	C479.3,420.378,478.829,421.044,479.14,422.053z"/>
<path fill="#B12B2B" d="M106.8,402.053c3.111,1.766,5.996,3.277,9.089,4.307c2.643,0.88,5.346,1.787,8.168,1.24
	c4.857-0.941,6.64-4.743,7.885-8.93c0.308-1.035,0.443-2.12,0.715-3.471c1.08,2.446,1.295,4.852,1.8,7.178
	c0.604,2.783,1.182,5.572,1.809,8.35c0.153,0.679,0.258,1.625,1.379,1.112c2.521-1.153,4.906-0.287,7.306,0.431
	c10.299,3.083,20.391,6.66,29.671,12.23c3.884,2.331,7.1,5.471,10.434,8.458c5.215,4.672,10.34,9.434,14.325,15.282
	c1.001,1.47,0.697,1.9-0.863,2.446c-4.37,1.532-8.524,3.556-12.372,6.154c-0.777,0.525-1.525,0.814-2.462,0.682
	c-11.35-1.601-22.066-4.869-31.812-11.17c-7.067-4.569-10.968-11.32-14.087-18.736c-1.288-3.062-1.677-6.474-2.759-9.488
	c-1.041-2.897-0.348-5.904-1.702-8.646c-0.701-1.421-0.973-1.986-2.652-1.179c-5.401,2.597-11.099,3.53-17.04,2.284
	c-1.96-0.411-3.673-1.361-5.221-2.641C106.586,406.439,106.619,404.44,106.8,402.053z"/>
<path fill="#E5E5E5" d="M346.726,367.763c0.471-0.016,1.007-0.188,1.403-0.022c3.575,1.496,7.023,0.666,10.458-0.49
	c0.439-0.148,0.788-0.03,1.155,0.154c2.994,9.557,2.188,18.69-3.58,27.004c-6.268,9.036-15.102,13.463-26.06,12.332
	c-11.531-1.19-19.363-7.745-23.846-18.399c-0.547-1.3-0.346-1.834,0.962-2.413c6.795-3.012,13.541-6.133,20.305-9.215
	c0.54,0.675,0.136,1.301-0.149,1.89c-2.743,5.673,0.381,13.194,8.538,14.231c1.712,0.218,3.329-0.39,4.916-1.025
	c1.066-0.427,1.163-0.893,0.427-1.774c-1.086-1.301-0.907-2.691,0.215-3.848c1.083-1.117,2.354-1.272,3.605-0.155
	c0.42,0.198,0.756,1.487,1.291,0.087c1.298-4.592,0.182-8.414-3.601-11.393c-1.022-0.739-2.102-1.337-3.335-1.677
	c-0.585-0.161-1.357-0.276-1.273-1.209C341.013,370.481,343.869,369.122,346.726,367.763z"/>
<path fill="#131313" d="M260.62,369.791c0.869-1.318,2.282-1.953,3.639-2.395c4.938-1.611,9.501-4.203,14.551-5.499
	c6.764-1.736,13.622-1.892,20.521-1.156c2.6,0.277,5.229-0.033,7.816,0.463c0.577,0.111,1.246-0.133,1.656,0.508
	c0.022,0.289-0.113,0.418-0.4,0.394c-1.718-0.94-3.554-0.374-5.339-0.383c-0.514-0.003-0.67,0.561-0.864,1.017
	c-5.005,11.722-4.358,23.035,2.448,33.896c0.661,1.055,1.394,1.884-0.549,2.43c-7.289,2.045-14.605,3.941-22.105,5.081
	c-1.398,0.212-1.415-0.094-1.219-1.302c2.296-14.162-2.31-25.674-13.415-34.67c-1.046-0.847-1.998-0.909-3.144-0.211
	C263.07,368.659,262.018,369.576,260.62,369.791z"/>
<path fill="#E5E5E5" d="M219.329,401.222c0.026-0.271,0.052-0.543,0.077-0.814c2.221-2.482,5.11-4.135,7.7-6.157
	c0.689-0.538,1.334-1.135,2.054-1.634c0.544-0.405,1.087-0.809,1.631-1.213c2.643-1.153,5.322-2.07,8.265-1.267
	c0.542,0.241,1.085,0.483,1.627,0.724c0.259,0.779-0.396,0.916-0.847,1.091c-2.461,0.955-4.115,2.743-5.308,5.025
	c-0.075,0.175-0.163,0.343-0.253,0.511c-1.181,2.523-1.21,5.082-0.269,7.68c0.518,1.43,1.01,0.789,1.505-0.014
	c0.286-0.319,0.632-0.53,1.059-0.602c0.772-0.053,1.486,0.196,2.204,0.425c1.509,1.492,1.501,2.437-0.027,4.115
	c-0.245,0.265-0.941,0.188-0.641,0.862c0.132,0.121,0.255,0.239,0.39,0.351c4.144,2.29,8.447,1.976,12.077-0.887
	c3.091-2.916,4.463-6.371,3.394-10.622c-0.142-0.566-0.392-1.189,0.112-1.736c6.407,2.914,12.802,5.854,19.231,8.719
	c1.108,0.493,0.922,1.095,0.57,1.906c-3.835,8.814-10.239,14.805-19.618,17.156c-15.348,3.847-30.849-5.891-34.454-21.434
	C219.643,402.68,219.49,401.95,219.329,401.222z"/>
<path fill="#B12B2B" d="M451.375,453.902c-7.992,6.828-15.353,13.579-24.441,18.041c-1.558,0.765-2.228,0.686-3.01-1.008
	c-2.569-5.56-6.658-9.869-11.635-13.38c-0.522-0.368-1.457-0.552-1.372-1.313c0.066-0.601,0.935-0.666,1.472-0.901
	c10.719-4.686,21.834-8.245,33.04-11.529c3.089-0.905,5.682,1.481,5.199,4.625c-0.175,1.138-0.364,2.296-0.75,3.372
	C449.473,452.937,449.594,453.644,451.375,453.902z"/>
<path fill="#B12B2B" d="M465.473,424.81c-0.182,3.667-0.436,6.786-0.466,9.907c-0.033,3.415,1.201,4.303,4.657,3.499
	c3.989-0.928,7.756-2.518,11.419-4.287c2.913-1.407,5.868-1.986,9.062-1.715c1.754,0.149,2.314,0.851,1.62,2.472
	c-0.797,1.861-2.215,3.246-3.788,4.46c-6.364,4.908-13.823,7.095-21.549,8.576c-1.929,0.37-3.893,0.559-5.84,0.834
	c-0.916,0.129-1.436-0.081-1.748-1.137c-0.57-1.932-1.961-3.398-3.894-3.855c-2.349-0.555-3.011-2.76-4.586-4.041
	c-0.529-0.43-0.032-0.865,0.221-1.234c3.151-4.609,6.067-9.346,7.878-14.672c0.339-0.997,1.256-0.891,1.974-1.172
	c0.313-0.123,0.651-0.193,0.984-0.254C466.316,421.299,465.455,421.034,465.473,424.81z"/>
<path fill="#8B2222" d="M236.503,387.341c4.403-3.424,8.747-6.928,13.23-10.243c2.922-2.161,5.822-4.381,9.046-6.111
	c0.596-0.32,1.138-0.73,1.832-0.817c6.475,3.627,11.156,8.785,13.558,15.888c-1.797,1.172-3.897,0.954-5.874,1.207
	c-7.793,0.996-15.594,1.925-23.403,2.789c-0.743,0.082-1.486,0.043-2.227,0.111C240.611,389.223,238.557,388.282,236.503,387.341z"
	/>
<path fill="#771D1D" d="M154.073,508.91c3.795-3.402,8.071-6.174,12.116-9.249c1.459-1.109,2.964-2.157,4.45-3.229
	c0.794-0.573,1.191-0.553,1.478,0.585c1.45,5.762,3.895,11.141,6.64,16.381c0.674,1.286,0.489,1.872-0.86,2.398
	c-4.868,1.9-9.808,3.567-14.848,4.942c-1.84-2.563-3.799-5.01-6.053-7.245C155.718,512.226,154.423,510.831,154.073,508.91z"/>
<path fill="#8B2222" d="M308.404,362.105c0.133-0.132,0.266-0.264,0.399-0.395c3.36,0.79,6.822,0.633,10.221,1.116
	c7.647,1.087,15.321,2.001,22.887,3.576c1.028,0.214,2.403-0.53,3.1,0.884c-0.39,0.132-0.78,0.264-1.169,0.396
	c-2.436-0.075-4.607,1.006-6.84,1.697c-9.342,2.89-18.662,5.849-28.014,8.704c-2.008,0.613-3.793,1.301-4.338,3.591
	c-1.059-5.733-0.006-11.175,2.277-16.443C307.385,364.174,307.91,363.146,308.404,362.105z"/>
<path fill="#B12B2B" d="M242.665,390.164c1.616-1.326,3.65-0.807,5.457-1.07c6.185-0.901,12.417-1.47,18.631-2.173
	c2.473-0.279,4.944-0.575,7.416-0.863c2.361,5.722,2.368,11.581,1.083,17.536c-0.306,1.417-0.937,1.258-1.988,0.769
	c-7.983-3.719-15.989-7.386-23.984-11.079C247.067,392.261,244.869,391.204,242.665,390.164z"/>
<path fill="#2A2A2A" d="M241.383,391.03c4.098,1.884,8.197,3.768,12.295,5.652c0,0.271-0.047,0.554,0.045,0.808
	c1.79,4.917,0.443,8.999-3.295,12.452c-3.12,2.194-6.497,2.669-10.108,1.485c-0.748-0.245-1.573-0.4-2.013-1.187
	c-0.149-0.624,0.227-1.017,0.611-1.415c0.992-1.027,1.04-2.322,0.312-3.333c-0.681-0.944-1.936-1.192-3.144-0.862
	c-1.846,0.505-2.366,0.192-2.515-1.743c-0.157-2.044-0.097-4.075,0.908-5.949c1.019-2.48,2.922-4.074,5.29-5.161
	C240.307,391.529,240.911,391.426,241.383,391.03z"/>
<path fill="#B12B2B" d="M440.632,504.009c7.692,5.583,15.111,11.515,22.446,17.554c0.669,0.551,0.564,0.867-0.048,1.382
	c-1.298,1.093-2.514,1.608-4.395,1.21c-9.082-1.923-18.175-3.771-27.027-6.624c-0.564-0.913,0.141-1.411,0.699-1.842
	c2.845-2.195,4.501-5.151,5.707-8.462C438.494,505.905,438.814,504.306,440.632,504.009z"/>
<path fill="#2A2A2A" d="M329.173,375.932c2.6-1.222,5.2-2.444,7.8-3.666c2.244,0.383,4.379,1.049,6.242,2.42
	c3.295,3.086,4.817,6.689,3.263,11.189c-0.631,0.604-1.235,0.302-1.849-0.042c-1.268-0.711-2.445-0.391-3.245,0.66
	c-0.824,1.083-1.033,2.371,0.047,3.516c0.935,0.992,0.693,1.531-0.532,2.055c-6.746,2.887-13.969-1.316-14.536-8.607
	C326.139,380.589,327.026,377.988,329.173,375.932z"/>
<path fill="#771D1D" d="M440.632,504.009c-1.063,0.89-1.715,2.03-2.159,3.336c-1.194,3.511-2.886,6.69-6.074,8.842
	c-0.457,0.308-0.799,0.736-0.791,1.343c-3.782-0.87-7.338-2.401-10.974-3.705c-1.363-0.489-1.396-1.182-0.842-2.299
	c1.84-3.713,3.586-7.47,4.785-11.449c0.624-2.07,1.163-4.165,1.821-6.54C431.294,496.979,436.077,500.334,440.632,504.009z"/>
<path fill="#B12B2B" d="M154.073,508.91c2.373,3.895,6.09,6.683,8.618,10.455c0.301,0.449,0.813,0.759,0.357,1.372
	c-7.512,2.099-15.125,3.767-22.766,5.319c-0.988,0.201-1.821,0.315-2.037-1.067c-0.163-1.047-1.4-1.198-2.119-2.144
	c3.935-3.136,7.824-6.298,11.785-9.368C149.93,511.911,151.815,510.155,154.073,508.91z"/>
<path fill="#B12B2B" d="M335.232,412.064c-2.881,7.092-4.821,13.993-6.276,21.03c-0.658,3.183-1.286,6.377-1.789,9.587
	c-0.407,2.604-2.328,1.205-3.514,1.327c-1.585,0.164-0.792-1.157-0.724-1.895c0.875-9.587,2.053-19.128,4.11-28.55
	c0.333-1.524,0.846-1.764,2.309-1.56C331.138,412.255,332.991,412.064,335.232,412.064z"/>
<path fill="#B12B2B" d="M255.806,429.986c3.057-0.832,5.672-1.932,8.162-3.331c0.662-0.372,1.229-0.827,1.777,0.243
	c2.811,5.483,5.203,11.14,7.509,17.151c-2.826,0-5.378-0.013-7.929,0.009c-0.633,0.005-0.983-0.283-1.266-0.809
	C261.628,438.715,259.004,434.297,255.806,429.986z"/>
<path fill="#761D1D" d="M176.991,545.306c3.602-3.267,7.224-6.513,10.796-9.815c1.177-1.088,1.938-1.275,2.81,0.387
	c1.318,2.511,2.803,4.942,4.346,7.324c0.664,1.025,0.422,1.447-0.525,1.987c-3.767,2.147-7.674,3.973-11.776,5.383
	C180.217,549.398,178.573,547.385,176.991,545.306z"/>
<path fill="#B12B2B" d="M304.649,381.674c-0.426-2.15,0.638-3.021,2.617-3.625c11.296-3.444,22.546-7.043,33.846-10.473
	c0.746-0.226,1.908-1.469,2.729,0.105c-12.418,5.704-24.838,11.403-37.248,17.124c-0.905,0.417-1.508,0.56-1.596-0.734
	C304.943,383.269,304.77,382.473,304.649,381.674z"/>
<path fill="#A46720" d="M466.324,531.326c-2.053-1.7-2.059-1.707-0.115-3.274c1.16-0.935,2.396-1.785,3.494-2.786
	c0.838-0.765,1.295-0.585,1.903,0.255c6.286,8.67,12.396,17.453,17.752,26.743c0.788,1.367-0.27,2.279-0.71,3.091
	c-0.381,0.702-1.329-0.307-1.851-0.835c-1.278-1.293-2.502-2.64-3.747-3.965c1.779-2.078,0.499-3.618-0.86-5.202
	c-1.012-1.18-1.849-2.504-2.847-3.701c-0.73-0.875-1.372-1.705-2.688-1.954c-1.321-0.25-1.822-1.726-2.647-2.685
	c-1.447-1.684-1.406-1.72-2.76-0.348c-0.595-0.648-1.189-1.295-1.784-1.943c-0.092-0.287,0.894-0.207,0.206-0.788
	c-0.449-0.379-0.745-1.043-0.598-1.745c0.125-0.153,0.273-0.281,0.435-0.394c0.858-0.6,0.831-1.391,0.159-1.99
	c-0.941-0.84-1.114,0.378-1.591,0.765c-0.165,0.113-0.407,0.205-0.533,0.091C466.47,529.694,466.555,530.791,466.324,531.326z"/>
<path fill="#761D1D" d="M397.327,574.256c-3.289-2.519-6.151-5.499-9.084-8.402c-0.639-0.632-0.763-1.102-0.147-1.875
	c1.936-2.434,3.798-4.929,5.664-7.418c0.567-0.756,0.926-0.59,1.289,0.154c1.988,4.073,3.985,8.141,5.979,12.211
	C399.749,570.671,399.166,572.899,397.327,574.256z"/>
<path fill="#761D1D" d="M198.14,569.339c1.516-3.782,3.576-7.298,5.344-10.957c0.576-1.192,1.125-0.846,1.754-0.038
	c1.873,2.405,3.744,4.811,5.67,7.173c0.464,0.569,0.632,0.928,0.036,1.506c-2.625,2.545-5.042,5.306-7.934,7.573
	C200.68,573.499,198.895,571.897,198.14,569.339z"/>
<path fill="#771D1D" d="M413.647,547.736c-3.203-1.12-6.209-2.666-9.199-4.247c-0.974-0.515-1.374-0.993-0.607-2.156
	c1.6-2.427,3.094-4.938,4.435-7.516c0.728-1.4,1.352-1.187,2.266-0.357c2.252,2.044,4.512,4.079,6.768,6.117
	C416.612,542.531,415.163,545.148,413.647,547.736z"/>
<path fill="#B12B2B" d="M413.647,547.736c-0.279-1.365,0.656-2.32,1.285-3.286c1.003-1.54,0.937-3.575,2.377-4.875
	c5.071,4.472,9.95,9.141,14.603,14.144C425.643,552.158,419.54,550.27,413.647,547.736z"/>
<path fill="#B12B2B" d="M176.991,545.306c0.431,0,0.855,0.127,1.051,0.502c1.068,2.045,3.284,2.969,4.601,4.764
	c-5.371,2.233-10.916,3.931-16.732,5.175C169.603,552.267,173.297,548.787,176.991,545.306z"/>
<path fill="#B12B2B" d="M198.14,569.339c1.294,2.058,3.093,3.647,4.87,5.258c-3.601,3.375-7.502,6.381-11.567,9.296
	C193.434,578.912,195.558,574.022,198.14,569.339z"/>
<path fill="#7C4107" d="M471.247,536.666c0.615-0.501-0.524-1.768,0.801-1.922c0.977-0.113,1.353,0.759,1.888,1.344
	c1.25,1.368,1.938,3.134,4.207,3.669c1.201,0.283,2.032,2.211,2.991,3.427c1.048,1.329,2.048,2.695,3.075,4.041
	c0.895,1.172,1.164,2.173-0.643,2.725c-0.214,0.065-0.347,0.397-0.517,0.605c-0.669-0.813-1.339-1.626-2.008-2.439
	c-1.037-1.92-2.185-3.746-4.129-4.901C475,541.053,472.831,539.113,471.247,536.666z"/>
<path fill="#A36720" d="M472.015,521.302c-0.088,0.721-0.571,0.902-0.932,1.189c-3.019,2.402-6.025,4.819-9.074,7.182
	c-0.429,0.332-1.063,1.368-1.579,0.41c-0.492-0.914-1.965-2.016-0.525-3.171c3.062-2.456,6.23-4.779,9.364-7.145
	c0.36-0.271,0.772-0.687,1.24-0.196C471.063,520.153,471.566,520.782,472.015,521.302z"/>
<path fill="#B02B2B" d="M397.327,574.256c1.281-1.744,1.689-4.094,3.7-5.33c2.008,3.613,3.61,7.419,5.326,11.171
	c0.168,0.367,0.413,0.768-0.022,1.091c-0.454,0.337-0.732-0.105-1.025-0.336C402.595,578.716,399.83,576.644,397.327,574.256z"/>
<path fill="#282422" d="M214.422,404.192c-1.704-0.031-2.924-1.25-4.32-1.934c-6.867-3.365-13.68-6.876-19.531-11.908
	c-1.294-1.113-2.722-2.173-3.457-3.822c-0.654-2.302,0.971-3.643,2.228-5.085c0.658-0.755,1.507-1.426,2.424-1.817
	c3.6-1.532,7.102-3.298,10.827-4.535c0.32,0.01,0.614,0.096,0.866,0.301c-0.043,1.548-1.426,1.547-2.374,2.041
	c-3.17,1.651-6.759,2.384-9.723,4.496c-1.745,1.243-2.961,2.753-2.996,4.998c3.145,3.408,6.827,6.126,10.759,8.555
	c3.675,2.27,7.611,4.034,11.393,6.093c1.344,0.732,3.029,0.833,4.048,2.168C214.52,403.892,214.471,404.042,214.422,404.192z"/>
<path fill="#AF2A2A" d="M131.192,545.206c0.007-5.772,0.449-11.525,0.798-17.281c0.042-0.694-0.144-1.744,0.969-1.616
	c0.873,0.1,1.208,0.887,1.212,1.842c0.016,3.679-0.548,7.305-0.989,10.937c-0.416,3.428-1.057,6.83-1.598,10.243
	C130.449,548.051,131.157,546.597,131.192,545.206z"/>
<path fill="#AE2A2A" d="M133.66,259.681c4.683-3.965,9.851-1.9,13.246,2.726C142.452,261.491,138.145,260.604,133.66,259.681z"/>
<path fill="#683E41" d="M329.173,375.932c0.01,0.754-0.58,1.211-0.928,1.77c-2.419,3.882-1.869,8.555,1.496,12.317
	c2.305,2.577,7.819,3.439,11.175,1.767c0.626-0.312,1.144-0.635,0.495-1.34c-1.277-1.387-1.223-2.928-0.146-4.239
	c1.093-1.33,2.62-1.215,4.07-0.391c0.353,0.2,0.651-0.007,0.968-0.097c0.269,0.296,0.22,0.601,0.026,0.91
	c-0.44,0.28-0.856,0.156-1.265-0.076c-1.234-1.171-2.482-1.066-3.505,0.185c-0.969,1.186-0.813,2.515,0.429,3.386
	c1.257,0.882,0.69,1.284-0.194,1.824c-3.677,2.243-8.949,1.692-12.336-1.306c-3.447-3.051-4.528-7.95-2.678-12.069
	c0.273-0.608,0.777-1.129,0.743-1.861C327.923,376.138,328.53,375.997,329.173,375.932z"/>
<path fill="#AFAFAF" d="M239.056,390.136c-2.755,0.422-5.51,0.845-8.265,1.267c1.578-0.902,2.758-2.371,4.444-3.12
	C236.509,388.901,237.783,389.519,239.056,390.136z"/>
<path fill="#B88689" d="M250.28,409.756c3.543-3.461,4.917-7.459,3.045-12.266c-0.143-0.367-0.02-0.65,0.353-0.808
	c0.134,0.126,0.269,0.253,0.403,0.379c1.585,4.935,0.839,9.277-3.252,12.767C250.624,409.975,250.441,409.951,250.28,409.756z"/>
<path fill="#C57D29" d="M469.145,532.235c0.341,0.799,1.656,1.474,0.318,2.488c-1.046-1.132-2.093-2.265-3.139-3.397
	c-0.081-0.257-0.142-0.521-0.246-0.768c-0.198-0.471-0.319-0.999,0.21-1.246c0.519-0.242,0.53,0.466,0.839,0.668
	c0.28,0.183,0.536,0.405,0.802,0.609C468.681,530.883,468.998,531.496,469.145,532.235z"/>
<path fill="#D6D5D5" d="M241.383,391.03c-0.033,0.778-0.735,0.678-1.186,0.875c-2.31,1.01-4.171,2.508-5.327,4.794
	c-0.182,0.246-0.291,0.599-0.717,0.484c0.59-2.707,2.621-4.135,4.815-5.413c0.559-0.326,1.331-0.254,1.716-0.911
	C240.917,390.917,241.15,390.973,241.383,391.03z"/>
<path fill="#8F5718" d="M476.912,543.216c0.077-0.168,0.199-0.49,0.223-0.483c1.131,0.334,3.841,4.096,3.906,5.384
	C479.665,546.483,478.289,544.849,476.912,543.216z"/>
<path fill="#992525" d="M535.939,335.571c2.921,0.172,3.75,0.628,5.108,2.691C539.2,337.679,537.86,336.645,535.939,335.571z"/>
<path fill="#988183" d="M342.993,374.776c-1.788-1.36-4.098-1.469-6.02-2.511c0.395-0.142,0.789-0.284,1.183-0.425
	c1.46,1.142,3.537,1.077,4.859,2.488c0.126,0.106,0.165,0.208,0.116,0.306C343.084,374.729,343.038,374.776,342.993,374.776z"/>
<path fill="#972525" d="M131.192,545.206c0.273,1.361-0.349,2.807,0.391,4.124c-0.152,1.099-0.304,2.199-0.456,3.298
	C130.911,550.132,130.547,547.655,131.192,545.206z"/>
<path fill="#1A0606" d="M163.167,559.449c-0.288,1.66-0.464,2.681-0.7,4.044C162.081,562.026,162.227,560.964,163.167,559.449z"/>
<path fill="#1C181E" d="M329.578,322.035c-2.842-1.625-5.786-3.098-8.503-4.911c-4.208-2.808-8.542-5.446-12.341-8.855
	c-1.349-1.211-2.755-2.411-4.209-3.497c-4.57-3.413-8.505-7.605-13.249-10.782c-2.828-1.893-5.457-4.166-8.978-4.853
	c-2.165-0.423-4.209-0.861-6.512-0.471c-5.274,0.892-8.628,4.333-11.707,8.169c-4.053,5.049-7.465,10.539-10.647,16.174
	c-0.262,0.464-0.656,0.852-0.989,1.276c-0.252-0.206-0.355-0.485-0.389-0.797c0.267-2.731,2.343-4.532,3.567-6.761
	c2.152-3.919,4.774-7.558,7.459-11.14c0.114-0.166,0.243-0.318,0.381-0.463c2.043-2.077,3.984-4.23,6.547-5.763
	c5.477-3.277,10.887-3.088,16.44-0.231c4.707,2.422,8.626,5.888,12.62,9.252c4.618,3.888,9.207,7.808,14.068,11.391
	c0.239,0.157,0.458,0.34,0.666,0.535c0.499,0.516,1.026,0.998,1.691,1.302c1.584,0.893,2.994,2.032,4.435,3.126
	c0.619,0.511,1.363,0.806,2.06,1.182c0.313,0.169,0.601,0.374,0.876,0.597c0.647,0.618,1.46,0.922,2.29,1.192
	c0.506,0.223,0.967,0.514,1.366,0.899c0.898,0.865,2.144,1.099,3.165,1.74c0.163,0.087,0.312,0.195,0.453,0.315
	c0.253,0.272,0.448,0.567,0.349,0.967C330.275,321.963,329.834,321.793,329.578,322.035z"/>
<path fill="#1D191E" d="M329.578,322.035c0.177-0.328,0.482-0.399,0.818-0.408c0.278-0.332,0.639-0.357,1.027-0.278
	c0.178,0.056,0.343,0.14,0.496,0.245c1.04,0.708,2.096,1.387,3.311,1.77c0.5,0.217,0.966,0.492,1.398,0.824
	c0.4,0.348,0.856,0.605,1.349,0.799c0.159,0.075,0.306,0.169,0.445,0.274c0.456,0.409,1.031,0.604,1.57,0.865
	c0.157,0.075,0.306,0.165,0.45,0.261c0.491,0.381,1.08,0.554,1.65,0.77c0.916,0.484,1.994,0.55,2.876,1.12
	c2.594,1.127,5.05,2.571,7.81,3.31c2.592,1.117,5.42,0.846,8.021,0.688c3.693-0.223,7.313-0.036,10.949,0.314
	c3.291,0.316,6.594,0.507,9.8,1.548c2.165,0.703,4.217,1.539,5.974,2.964c0.861,0.698,1.875,1.485,1.239,2.894
	c-1.009,0.007-1.58-0.825-2.19-1.365c-2.413-2.137-5.433-2.467-8.353-3.262c-3.373-0.918-7.011-0.074-10.238-1.714
	c-0.103-0.052-0.288-0.038-0.391,0.022c-2.003,1.172-4.211,0.151-6.303,0.352c-2.09,0.201-4.515-0.002-6.792-0.264
	c-5.915-0.68-10.352-4.219-15.42-6.566c-2.989-1.385-5.49-3.682-8.754-4.497C330.035,322.63,329.823,322.264,329.578,322.035z"/>
<path fill="#1C181D" d="M252.442,313.465c0,0.273,0.001,0.545,0.001,0.818c-2.938,5.301-5.887,10.596-8.813,15.903
	c-4.763,8.637-8.855,17.604-12.958,26.564c-0.892,1.948-1.468,4.041-2.369,5.985c-0.578,1.246-1.166,2.645-2.797,2.973
	c-0.479,0.333-0.791,0.174-0.984-0.335c-0.011-0.348,0.156-0.603,0.415-0.812c1.19-0.639,1.834-1.622,2.346-2.902
	c2.512-6.286,5.296-12.45,8.222-18.562c2.462-5.141,5.033-10.216,7.743-15.223c2.451-4.528,4.969-9.02,7.635-13.426
	C251.227,313.881,251.565,313.226,252.442,313.465z"/>
<path fill="#201C1F" d="M224.666,365.246c0.165,0.364,0.483,0.447,0.84,0.462c-1.588,1.405-3.28,2.749-5.355,3.214
	c-1.39,0.311-2.411,1.238-3.505,1.865c-1.6,0.918-3.58,1.193-4.88,2.678c-0.33,0.377-0.912,0.665-1.415,0.736
	c-2.835,0.403-5.044,2.251-7.612,3.197c-2.239,0.825-4.141,2.288-6.536,2.847c-2.55,0.595-4.785,1.995-6.545,4.108
	c-0.673,0.808-0.024,2.16-1.291,2.573c-0.596-1.665,0.151-3.385,1.833-4.802c3.073-2.59,7.036-3.275,10.493-5.036
	c0.952-0.485,2.004-0.767,2.779-1.562c0.762-1.016,1.982-1.349,3.035-1.841c1.988-0.929,4.013-1.794,6.051-2.616
	c0.632-0.136,1.263-0.277,1.733-0.779c1.123-1.006,2.693-1.295,3.779-2.363c0.253-0.142,0.521-0.245,0.797-0.33
	C220.96,367.205,222.447,365.322,224.666,365.246z"/>
<path fill="#383839" d="M295.258,313.403c0.775-0.704,1.669-0.394,2.171,0.149c1.482,1.605,3.573,2.258,5.212,3.587
	c0.378,1.597,0.563,3.136-1.225,4.082c-0.403,0.138-0.807,0.275-1.21,0.413c-1.167,0.705-2.56-0.675-3.686,0.401
	c-2.664,1.528-3.052,2.135-1.774,4.856c1.522,3.242,2.09,6.27-0.31,9.294c-0.381,0.48-0.238,0.853,0.193,1.213
	c0.933,0.78,1.828,1.618,3.114,1.773c0.159,0.166,0.213,0.361,0.162,0.586c-1.497,1.394-2.449-0.128-3.491-0.737
	c-1.024-0.598-1.776-1.503-1.361-2.869c0.178-0.587,0.434-1.146,0.747-1.664c1.31-2.17,1.238-4.362,0.174-6.587
	c-0.263-0.55-0.365-1.176-0.684-1.691c-0.968-1.56-0.56-2.814,0.774-3.899c0.539-0.513,1.076-1.032,1.654-1.505
	c0.988-0.809,2.001-1.353,3.346-0.758c1.127,0.499,2.003,0.112,2.424-1.072c0.457-1.286-0.489-1.749-1.402-2.03
	c-1.025-0.315-1.894-0.775-2.434-1.7c-0.558-0.955-1.631-0.868-2.438-1.315C295.106,313.742,295.127,313.568,295.258,313.403z"/>
<path fill="#3D3E40" d="M297.765,339.656c-0.008-0.162-0.015-0.323-0.023-0.485c1.576-0.675,3.165-1.494,4.526,0.383
	c0.855,0.973,0.86,1.946-0.003,2.918c-0.397,0.595-0.802,1.177-1.61,1.235c-0.392,0.613-0.066,1.39-0.459,2.002l0,0
	c-1.798,2.164-2.617,2.327-4.084,0.814c-0.934-4.437-1.454-4.98-5.239-5.473c-1.57-0.204-2.564,0.81-2.266,2.319
	c0.17,0.857,0.38,1.706,0.528,2.567c0.352,2.053-0.32,3.568-2.354,4.333c-0.058-0.084-0.116-0.168-0.175-0.252
	c-0.034-0.315,0.042-0.608,0.176-0.889c0.094-0.178,0.21-0.342,0.343-0.493c1.446-1.545,0.405-3.224,0.2-4.823
	c-0.27-2.099,0.151-3.087,1.97-3.907c1.992-0.898,6.524,1.05,7.244,3.134c0.176,0.508,0.197,1.072,0.586,1.495
	c0.314,0.341,0.523,0.894,1.054,0.867c0.627-0.031,0.622-0.628,0.687-1.083c0.14-0.989,0.777-1.531,1.616-1.935
	c0.738-0.355,1.252-0.911,0.926-1.773c-0.278-0.734-0.971-0.874-1.696-0.842C299.062,339.798,298.386,340.185,297.765,339.656z"/>
<path fill="#717172" d="M274.11,321.664c1.212-0.284,2.424-0.567,3.635-0.851c1.419-0.356,2.896-0.21,4.322-0.5
	c0.319-0.11,0.643-0.118,0.97-0.045c1.102,0.553,2.291,0.276,3.442,0.353c0.585,0.207,1.227,0.137,1.808,0.367
	c0.748,0.436,1.653,0.032,2.406,0.45c0.432,0.444,0.13,0.779-0.164,1.117c-0.186,0.127-0.391,0.207-0.613,0.246
	c-1.079-0.035-2.112-0.345-3.167-0.523c-4.57-0.772-9.047-0.275-13.433,1.151c-1.935,0.765-3.25,2.503-5.161,3.312
	c-0.186,0.085-0.379,0.144-0.578,0.189c-2.562,0.026-4.594-1.343-6.61-2.641c-1.456-0.938-0.291-2.522-0.655-3.752
	c-0.333-0.863-1.095-0.57-1.726-0.633c-0.183-0.04-0.346-0.117-0.495-0.231c-0.107-0.17-0.11-0.339,0.006-0.505
	c0.154-0.134,0.309-0.268,0.463-0.401c1.142-0.382,2.178-0.406,2.84,0.837l-0.003-0.005c0.215,0.202,0.282,0.491,0.263,0.741
	c-0.263,3.454,2.564,4.016,4.789,5.134c0.762,0.383,1.281-0.201,1.836-0.543c0.688-0.423,1.456-0.724,2.052-1.294
	c0.153-0.135,0.306-0.27,0.459-0.406C271.859,322.616,272.941,322.047,274.11,321.664z"/>
<path fill="#3D3E40" d="M286.781,350.269c-2.919,0.884-5.703,2.514-8.941,1.646c-0.731-0.196-1.307,0.17-1.938,0.41
	c-1.717,0.654-3.078-0.118-3.477-1.885c-0.33-1.463-0.502-2.935-0.378-4.427c0.103-1.24-0.423-1.75-1.488-1.081
	c-1.475,0.927-2.875,1.996-4.201,3.128c-0.568,0.485,0.072,1.271,0.003,1.931c-0.062,0.598,0.785,1.244-0.095,1.81
	c-0.217-0.168-0.397-0.368-0.535-0.607c-0.092-0.161-0.165-0.329-0.229-0.503c-1.602-2.869,0.654-4.012,2.405-5.384
	c0.143-0.125,0.297-0.233,0.455-0.337c0.78-0.394,1.294-1.143,2.068-1.55c0.2-0.076,0.404-0.113,0.617-0.119
	c1.74,0.189,2.32,1.286,2.351,2.894c0.025,1.325-0.154,2.661,0.166,3.969c0.14,0.369,0.332,0.7,0.697,0.897
	c2.594-0.559,5.269,0.079,7.876-0.749c1.397-0.443,2.992-0.69,4.523-0.199L286.781,350.269z"/>
<path fill="#565333" d="M388.761,339.994c-0.98-3.405-4.013-4.27-6.801-5.12c-6.069-1.85-12.385-2.214-18.678-2.148
	c-2.954,0.031-5.897,0.032-8.846-0.096c-0.777-0.034-1.475-0.201-2.038-0.767c0.3-0.326,0.692-0.43,1.107-0.381
	c3.306,0.391,6.626,0.196,9.935,0.153c3.054-0.04,6.067,0.304,9.094,0.541c1.365,0.479,2.786,0.269,4.185,0.322
	c2.58,0.031,4.847,1.336,7.32,1.803c1.783,1.181,3.9,1.87,5.322,3.591c0.545,0.737,0.501,1.542,0.274,2.368
	c-0.407,0.739-0.51,1.654-1.266,2.192C388.5,341.631,388.63,340.813,388.761,339.994z"/>
<path fill="#484A4C" d="M264.708,339.965c-1.591-2.364-1.907-4.91-1.223-7.658c0.276-1.11,1.4-2.539,0.329-3.345
	c-1.435-1.079-3.204-1.979-5.24-1.432c-1.104,0.297-2.385,0.693-3.194-0.379c-0.74-0.98-1.428-2.181-0.505-3.499
	c0.261-0.204,0.542-0.199,0.834-0.085c0.194,0.314,0.067,0.648,0.073,0.978c0.032,1.589,0.641,2.09,2.163,1.552
	c1.23-0.435,2.346-0.538,3.476,0.171c4.451,2.157,4.454,2.158,3.208,6.875c-0.503,1.901-0.11,3.737,0.385,5.568
	C265.085,339.171,265.059,339.608,264.708,339.965z"/>
<path fill="#474748" d="M263.909,353.02c-1.783-1.645-3.431-3.432-5.201-5.093c-1.191-1.117,0.687-3.012,2.94-2.588
	c1.295,0.244,2.17-0.056,3.038-0.856c0.238,0.219,0.311,0.498,0.293,0.809c-0.519,1.419-1.585,1.72-2.937,1.423
	c-0.264-0.058-0.52-0.166-0.791-0.184c-0.545-0.036-1.181-0.109-1.348,0.569c-0.139,0.566,0.4,0.88,0.824,1.003
	c1.787,0.52,2.529,1.914,3.089,3.493C263.949,352.065,264.133,352.53,263.909,353.02z"/>
<path fill="#3B3B3C" d="M270.34,323.637c-0.879,1.181-2.185,2.332-3.455,2.134c-1.88-0.293-3.816-1.192-5.167-2.619
	c-0.828-0.876-0.096-2.361-0.318-3.554c0.464,0.247,0.62,0.71,0.747,1.158c1.105,3.892,3.537,5.033,7.063,3.307
	C269.571,323.888,269.963,323.778,270.34,323.637z"/>
<path fill="#3B3B3C" d="M290.83,321.646c-0.845-0.127-1.766,0.233-2.532-0.396c0.762-0.572,1.738,0.102,2.506-0.431
	c2.75-1.291,4.925-2.904,3.798-6.487c-0.127-0.404,0.306-0.706,0.655-0.928c0.025,0.189,0.05,0.379,0.075,0.569
	c1.56,3.434,1.123,4.849-2.172,7.049C292.406,321.303,291.74,321.935,290.83,321.646z"/>
<path fill="#959393" d="M229.161,392.616c-0.512,1.299-1.805,1.794-2.778,2.579c-2.257,1.822-4.642,3.485-6.976,5.212
	c-0.13-1.267,1.085-1.462,1.737-2.008C223.673,396.284,226.312,394.299,229.161,392.616z"/>
<path fill="#706F6F" d="M264.705,345.332c-0.006-0.283-0.012-0.565-0.018-0.848c0.255-0.29,0.511-0.579,0.766-0.869
	c0.271-0.507,1.119-0.715,0.795-1.531c-0.795-0.501-1.203-1.284-1.539-2.118c-0.02-0.368-0.04-0.736-0.06-1.104
	c0.153-0.186,0.339-0.229,0.559-0.13c0.709,0.553,1.13,1.341,1.617,2.064C268.177,342.802,267.228,344.801,264.705,345.332z"/>
<path fill="#3B3B3C" d="M255.724,323.676c-0.283-0.008-0.566-0.016-0.849-0.024c1.265-0.707,2.298-1.575,2.393-3.179
	c0.033-0.557,0.292-1.038,0.832-1.306c0.031,0.15,0.062,0.299,0.093,0.449c0.233,2.722-0.042,3.345-1.863,4.227
	C256.104,323.875,255.902,323.819,255.724,323.676z"/>
<path fill="#363738" d="M296.519,322.036c1.016-2.092,2.477-0.091,3.686-0.401C299.088,322.784,297.753,321.945,296.519,322.036z"/>
<path fill="#333133" d="M296.112,346.523c1.752,1.69,2.832,0.008,4.083-0.814c-0.267,1.446-1.351,1.876-2.603,2.018
	C296.75,347.822,296.168,347.462,296.112,346.523z"/>
<path fill="#9A9F9F" d="M263.909,353.02c-0.162-0.389-0.579-0.678-0.465-1.177c0.9-0.057,1.738-0.294,2.474-0.837
	c0.116,0.265,0.232,0.53,0.348,0.795C265.711,352.655,265.1,353.399,263.909,353.02z"/>
<path fill="#363738" d="M301.416,321.222c1.268-1.103,1.335-2.566,1.225-4.082C303.549,319.601,303.27,320.529,301.416,321.222z"/>
<path fill="#363536" d="M290.804,320.818c-0.732,0.743-1.678,0.241-2.505,0.431c-0.558-0.029-1.153,0.107-1.612-0.362
	c-0.199-0.178-0.186-0.339,0.037-0.484C288.104,320.345,289.406,321.052,290.804,320.818z"/>
<path fill="#3B3B3C" d="M274.11,321.664c-1.007,0.726-2.097,1.278-3.311,1.568C271.659,322.194,272.755,321.655,274.11,321.664z"/>
<path fill="#3B3B3C" d="M282.271,320.42c-1.452,0.783-3.018,0.247-4.525,0.392c0.708-0.754,1.627-0.274,2.439-0.416
	C280.884,320.112,281.579,320.077,282.271,320.42z"/>
<path fill="#333133" d="M302.265,342.471c0.503-0.972,0.501-1.944,0.002-2.917C303.521,340.527,303.531,341.5,302.265,342.471z"/>
<path fill="#3B3B3C" d="M261.403,319.603c-0.784-0.832-1.79-0.908-2.84-0.837C259.754,318.216,260.914,317.769,261.403,319.603z"/>
<path fill="#3B3B3C" d="M286.724,320.403c-0.012,0.161-0.024,0.322-0.037,0.483c-1.213-0.269-2.519,0.209-3.681-0.461
	c0.283-0.258,0.58-0.251,0.889-0.05C284.838,320.385,285.781,320.394,286.724,320.403z"/>
<path fill="#363536" d="M283.895,320.376c-0.296,0.016-0.592,0.033-0.888,0.049c-0.246-0.002-0.491-0.003-0.737-0.005
	c-0.695-0.008-1.39-0.015-2.085-0.023C281.418,319.755,282.655,319.77,283.895,320.376z"/>
<path fill="#333133" d="M300.196,345.709c0.129-0.673-0.334-1.482,0.458-2.003C300.895,344.464,300.756,345.135,300.196,345.709z"/>
<path fill="#474748" d="M266.247,342.083c0.769,1.046-0.286,1.147-0.794,1.532C265.718,343.104,265.982,342.594,266.247,342.083z"/>
<path fill="#C2C25D" d="M201.012,371.006c0.011-0.133,0.015-0.266,0.012-0.4c2.391-1.125,4.781-2.251,7.172-3.376
	c4.91-2.31,9.862-4.53,14.493-7.396c1.093-0.677,1.923-1.443,2.378-2.654c3.39-9.033,7.548-17.726,11.944-26.296
	c4.739-9.238,9.847-18.277,15.344-27.092c3.341-5.357,6.547-10.814,10.958-15.398c3.194-3.319,6.726-6.227,11.551-6.625
	c3.694-0.304,7.111,0.996,10.249,2.793c6.212,3.557,11.458,8.407,16.886,13.004c7.518,6.367,15.306,12.346,24.056,16.983
	c6.165,3.267,12.244,6.694,18.388,10c4.306,2.316,8.829,3.137,13.815,3.093c8.344-0.074,16.842-0.414,24.743,3.295
	c1.75,0.821,3.24,1.927,4.537,3.332c0.326,0.618,0.995,1.133,0.589,1.968c-2.004,0.194-3.593-1.186-3.083-2.668
	c-3.808-2.694-8.239-3.408-12.683-4.007c-5.789-0.781-11.607-0.738-17.439-0.596c-3.894,0.095-7.501-1.346-10.862-3.136
	c-6.043-3.218-12.045-6.518-18.028-9.849c-1.362-0.759-2.573-1.788-4.075-2.29c-0.184-0.076-0.36-0.171-0.529-0.274
	c-0.682-0.497-1.371-0.986-2.227-1.154c-0.455-0.15-0.83-0.376-0.835-0.924c-0.003-0.188-0.06-0.358-0.228-0.474
	c0.086,0.173,0.228,0.325,0.201,0.547c-0.15,0.756-0.713,0.808-1.32,0.793c-0.968-0.342-1.885-0.753-2.326-1.781
	c-0.025-0.397,0.111-0.73,0.831-0.952c-0.995-0.132-1.578,0.185-2.157-0.055c-1.07-0.474-2.199-0.882-2.494-2.224
	c-0.069-0.936-0.194-1.803-1.508-1.27c-0.857,0.048-1.315-0.63-1.891-1.064c-3.831-2.886-7.292-6.215-11.035-9.212
	c-2.96-2.369-5.867-4.769-9.274-6.495c-0.765-0.387-1.59-0.763-2.148-1.487c-0.045-0.201-0.012-0.389,0.096-0.564
	c1.494-0.552,1.494-0.552,3.561,0.905c-3.806-2.893-8.933-4.845-13.706-4.976c-3.259-0.09-5.783,1.767-8.15,3.714
	c-5.067,4.169-8.385,9.715-11.894,15.139c-5.206,8.047-9.87,16.406-14.425,24.819c-3.611,6.669-6.821,13.553-9.935,20.477
	c-1.56,3.468-3.163,6.909-4.409,10.506c-0.513,1.482-1.583,2.422-2.927,3.237c-6.335,3.843-13.168,6.692-19.762,10.015
	C202.69,371.326,201.85,371.758,201.012,371.006z"/>
<path fill="#CFD07C" d="M387.953,336.313c-0.138-0.681-0.277-1.363-0.415-2.044c1.999,1.676,2.84,4.081,2.096,5.992
	c0.009-0.79,0.036-1.582-0.517-2.241C388.907,337.33,388.269,336.932,387.953,336.313z"/>
<path fill="#BBBB58" d="M311.211,306.937c0.267,1.341,1.388,1.655,2.451,2.039c0.161,0.191,0.15,0.372-0.033,0.542
	c-0.281,0.171-0.582,0.21-0.899,0.134c-3.739-2.678-7.185-5.718-10.718-8.655c-5.759-4.789-11.207-10.071-18.295-12.953
	c-4.369-1.777-8.679-1.431-12.853,0.916c-2.959,1.664-5.191,4.093-7.458,6.514l0.02-0.015c-3.9,4.947-7.176,10.325-10.414,15.697
	c-4.47,7.416-8.772,14.941-12.715,22.664c-2.832,5.547-5.619,11.112-8.159,16.798c-1.739,3.894-3.498,7.781-4.982,11.783
	c-0.373,1.007-0.956,1.787-1.973,2.196c-2.028,1.306-4.331,2.113-6.327,3.479c-0.234,0.022-0.467,0.045-0.701,0.067
	c-2.719,1.789-5.651,3.208-8.65,4.398c-2.324,0.922-4.462,2.261-6.881,2.941c-3.863,1.864-8.053,3.022-11.689,5.376
	c-2.073,1.342-3.408,3.202-3.82,5.672c-0.127-0.147-0.254-0.294-0.381-0.441c-0.763-2.815,1.421-4.2,3.025-5.635
	c1.999-1.788,4.508-2.797,7.056-3.769c3.25-1.239,6.438-2.71,9.518-4.363c0.897-0.482,1.786-0.938,2.771-1.209
	c3.19-0.879,5.907-2.778,8.803-4.261c2.025-1.037,4.172-1.835,6.117-3.068c1-0.634,1.516-1.369,1.938-2.411
	c1.465-3.618,3.039-7.192,4.635-10.754c4.217-9.694,9.114-19.056,14.291-28.255c4.514-8.02,9.174-15.976,14.374-23.583
	c2.414-3.532,5.234-6.777,8.569-9.47c2.688-2.169,5.697-3.844,8.046-3.924c-2.784,0.245-6.035,2.13-9.035,4.771
	c-5.702,5.02-9.499,11.448-13.448,17.761c-4.846,7.748-9.341,15.709-13.645,23.766c-2.74,5.128-5.382,10.324-7.674,15.679
	c-0.482,1.125-1.051,2.204-1.57,3.309c-1.521,3.671-3.28,7.24-4.656,10.97c-0.833,2.26-3.064,2.764-4.854,3.638
	c-3.173,1.551-6.202,3.365-9.37,4.894c-2.166,1.046-4.502,1.752-6.719,2.752c-1.391,0.628-2.771,1.374-4.123,2.031
	c-3.545,1.722-7.555,2.485-10.673,5.13c-1,0.848-1.885,1.731-2.605,2.808c-0.336,0.502-0.687,1.183-1.408,0.858
	c-0.604-0.272-0.697-1.018-0.636-1.611c0.226-2.209,1.23-4.018,3.139-5.19c3.003-1.844,6.141-3.429,9.5-4.537
	c1.037-0.342,2.019-0.782,2.917-1.405l-0.005-0.001c2.511,0.027,4.495-1.529,6.527-2.566c5.216-2.662,10.673-4.87,15.634-8.045
	c1.088-0.696,2-1.4,2.404-2.617c1.916-5.771,4.636-11.201,7.198-16.687c1.936-4.146,4.011-8.235,6.111-12.309
	c4.058-7.872,8.374-15.6,13.042-23.107c4.267-6.863,8.174-14.061,14.528-19.39c3.332-2.794,7.09-4.438,11.487-3.732
	c1.902,0.305,3.893,0.899,5.514,1.898c2.223,1.371,4.732,2.357,6.696,4.395c-0.932,0.176-1.374-0.403-1.947-0.823
	c-0.907-0.666-1.85-1.506-3.113-0.679c-1.191-1.288-2.893-1.335-4.363-1.946c1.484,0.576,3.123,0.775,4.363,1.945
	c6.643,3.474,12.305,8.231,17.844,13.224c2.051,1.848,4.152,3.791,6.642,5.146C310.443,305.694,310.793,306.361,311.211,306.937z"/>
<path fill="#C2C25A" d="M230.813,350.605c-1.563,3.933-3.054,7.897-4.719,11.786c-0.846,1.975-3.03,2.483-4.735,3.249
	c-3,1.346-5.793,3.079-8.815,4.376c-4.27,1.833-8.488,3.796-12.66,5.841c-3.357,1.646-7.179,2.358-10.04,5.016
	c-1.556,1.445-3.121,2.85-3.108,5.214c-2.671-3.677-2.064-6.557,2.053-9.752c3.973-2.013,7.931-4.061,12.229-5.329
	c-0.663,0.915-1.595,1.329-2.655,1.688c-3.785,1.282-7.449,2.825-10.625,5.351c-1.356,1.079-1.576,2.646-1.971,4.131
	c-0.098,0.368,0.157,1.088,0.461,1.249c0.535,0.284,0.749-0.353,1.001-0.743c2.118-3.273,5.318-4.896,8.865-6.235
	c2.467-0.932,4.879-2.112,7.258-3.321c1.517-0.771,3.062-1.648,4.702-2.165c3.757-1.184,7.071-3.202,10.479-5.091
	c1.49-0.826,3.086-1.527,4.649-2.242c1.282-0.586,1.893-1.461,2.398-2.707c1.36-3.357,2.869-6.653,4.337-9.965
	c0.07-0.158,0.32-0.237,0.486-0.353C230.539,350.461,230.676,350.461,230.813,350.605z"/>
<path fill="#CC7575" d="M196.916,524.219c-2.526-2.798-3.946-5.715-5.193-8.685c-3.338-7.948-4.651-16.305-4.105-24.862
	c0.886-13.883,8.04-23.559,20.577-29.324c7.229-3.324,14.86-5.32,23.063-6.654c-1.698,1.8-3.563,2.795-5.261,3.957
	c-7.574,5.183-14.23,11.296-19.45,18.877c-5.434,7.891-8.925,16.552-10.038,26.117c-0.732,6.298-0.689,12.577,0.398,18.837
	C196.976,522.872,196.916,523.286,196.916,524.219z"/>
<path d="M371.029,496.445c-7.27-5.272-15.48-7.45-24.275-7.961c-14.884-0.864-28.984,2.633-42.739,7.791
	c-15.78,5.917-30.905,13.36-46.277,20.228c-4.829,2.157-9.554,4.573-14.688,6c-2.236,0.621-4.293,0.305-6.266-0.849
	c-0.703-0.412-1.386-0.893-2.139-1.18c-4.13-1.57-5.353-4.885-5.445-8.904c-0.172-7.535,1.733-14.664,4.387-21.613
	c3.753-9.829,8.996-18.746,16.77-25.969c7.457-6.928,16.136-10.968,26.533-10.497c6.28,0.285,12.106,2.239,17.678,5.065
	c7.586,3.847,14.906,8.16,21.892,12.995c6.617,4.58,13.782,6.855,21.84,6.416c7.097-0.386,13.554,1.695,19.466,5.518
	C363.051,486.904,367.569,491.138,371.029,496.445z"/>
<path fill="#7E1919" d="M354.872,540.334c-0.258-4.958,3.769-8.728,8.633-8.876c4.608-0.14,8.985,4.35,8.917,8.815
	c-0.071,4.706-4.399,9.283-8.968,8.986C358.678,548.95,354.642,545.682,354.872,540.334z"/>
<path fill="#7E1919" d="M362.138,566.105c-4.933,0.143-7.389-3.619-7.609-7.307c-0.236-3.95,3.557-7.601,7.644-7.667
	c3.887-0.063,7.404,3.542,7.408,7.593C369.584,562.913,366.361,566.109,362.138,566.105z"/>
<path fill="#7E1919" d="M348.739,541.605c3.08-0.34,6.126,3.295,6.136,6.101c0.013,3.428-3.198,6.68-6.466,6.531
	c-3.21-0.146-6.292-3.47-6.172-6.657C342.358,544.344,345.392,541.557,348.739,541.605z"/>
<path fill="#7E1919" d="M341.814,561.086c0.041-2.966,2.055-4.864,5.087-4.793c2.824,0.065,4.754,2.109,4.719,4.995
	c-0.036,2.911-2.131,4.885-5.107,4.81C343.693,566.026,341.774,563.98,341.814,561.086z"/>
<path fill="#7E1919" d="M338.145,559.969c-0.35,0.624-0.314,0.919,0.455,1.354c1.749,0.991,2.13,2.707,1.543,4.531
	c-0.543,1.688-1.901,2.361-3.63,2.283c-1.856-0.084-2.953-1.091-3.466-2.846c-0.498-1.704,0.924-2.677,1.359-4
	c0.369-1.12-1.484-2.369-0.435-3.806c0.229-0.314,0.603-0.523,0.91-0.781c0.686-0.352,1.448-0.152,2.163-0.302
	c0.216,0.043,0.409,0.134,0.582,0.268C338.459,557.666,338.518,558.784,338.145,559.969z"/>
<path fill="#831B1B" d="M331.221,553.827c0.461,1.999-0.494,2.888-2.991,2.756c-0.353,0.53,0.185,0.988,0.142,1.512
	c-0.104,1.255-0.792,2.013-1.943,2.247c-1.311,0.267-2.035-0.604-2.372-1.705c-0.384-1.255,0.38-1.98,1.42-2.543
	c0.657-0.356,1.531,0.111,2.058-0.611C329.043,555.553,330.405,555.298,331.221,553.827z"/>
<path fill="#7E1919" d="M341.405,555.475c-0.403,0.549-0.807,1.099-1.21,1.648c-1.028,0.365-2,0.339-2.865-0.417l0.004,0.004
	c-1.019-0.827-0.606-1.86-0.414-2.862c0.154-0.389,0.422-0.667,0.81-0.827C340.26,552.383,341.248,553.043,341.405,555.475z"/>
<path fill="#821A1A" d="M331.221,553.827c-0.798,2.433-0.972,2.511-3.686,1.656c-0.823-1.387-0.441-2.504,0.968-3.078
	C329.809,551.872,330.882,552.268,331.221,553.827z"/>
<path fill="#831B1B" d="M322.462,561.183c1.384-0.002,2.146,0.544,2.232,1.902c0.08,1.246-0.625,1.742-1.711,1.762
	c-1.341,0.025-2.243-0.728-2.319-2.033C320.598,561.668,321.478,561.207,322.462,561.183z"/>
<path fill="#851C1C" d="M330.478,564.471c-1.059-0.165-1.721-0.693-1.674-1.737c0.048-1.07,0.695-1.843,1.773-1.856
	c1.034-0.013,1.601,0.923,1.664,1.765C332.322,563.724,331.386,564.194,330.478,564.471z"/>
<path fill="#8A1D1D" d="M318.457,558.721c-0.301,0.901-0.92,1.283-1.836,1.25c-0.788-0.029-1.319-0.373-1.295-1.206
	c0.027-0.923,0.543-1.578,1.484-1.558C317.699,557.226,318.24,557.844,318.457,558.721z"/>
<path fill="#8C1E1E" d="M314.038,562.129c0.727,0.182,1.152,0.655,1.227,1.396c0.077,0.773-0.475,1.159-1.094,1.184
	c-0.772,0.031-1.243-0.556-1.258-1.293C312.9,562.754,313.402,562.356,314.038,562.129z"/>
<path fill="#851B1B" d="M322.025,555.518c0.742,0.166,1.283,0.576,1.347,1.321c0.065,0.757-0.474,1.065-1.168,1.061
	c-0.714-0.004-1.129-0.385-1.17-1.11C320.994,556.082,321.325,555.65,322.025,555.518z"/>
<path fill="#932020" d="M341.405,555.475c-0.298-2.207-1.772-2.65-3.675-2.454c0.878-0.997,1.901-0.959,2.795-0.158
	C341.249,553.512,342.323,554.204,341.405,555.475z"/>
<path fill="#932020" d="M337.33,556.706c0.939,0.245,1.873,0.53,2.865,0.417c-1.743,0.186-1.497,1.804-2.05,2.847
	C338.302,558.774,337.939,557.709,337.33,556.706z"/>
<path fill="#932020" d="M336.92,553.848c0.035,0.969-0.152,1.97,0.414,2.862c-0.818-0.002-1.635-0.003-2.453-0.005
	C336.622,556.51,336.377,554.898,336.92,553.848z"/>
<path fill="#C86B6B" d="M51.268,345.27c-3.068-10.769-5.584-21.632-5.318-32.934c0.089-3.808,0.699-7.541,2.086-11.119
	c1.888-4.869,6.544-8.301,11.606-8.401c-1.84,3.992-3.359,8.027-4.709,12.129c-3.544,10.763-4.675,21.819-4.063,33.082
	c0.117,2.153,0.522,4.29,0.794,6.435C51.894,344.909,51.993,345.292,51.268,345.27z"/>
<path fill="#010000" d="M66.017,303.282c-1.229,4.94-2.381,9.545-3.517,14.153c-0.552,2.237-1.906,4.708-1.374,6.656
	c0.516,1.886,3.372,2.742,5.313,3.762c3.164,1.663,3.558,4.473,3.966,7.473c0.721,5.307,1.617,10.59,2.287,15.903
	c0.363,2.876,2.505,4.76,3.557,7.221c0.38,0.89,2.326,1.796,0.559,2.944c-1.881,1.223-1.723-1.041-2.35-1.744
	c-4.313-4.834-4.38-11.034-5.27-16.962c-0.483-3.218-1.002-6.431-1.44-9.655c-0.158-1.168-0.646-1.987-1.663-2.607
	c-2.318-1.413-4.572-2.932-6.889-4.346c-0.738-0.451-1.003-0.828-0.761-1.768c1.791-6.961,3.49-13.945,5.253-20.913
	c0.136-0.538,0.016-1.521,1.187-1.136C65.575,302.492,66.213,302.665,66.017,303.282z"/>
<path fill="#C15656" d="M51.268,345.27c0.329-0.173,0.36-0.491,0.396-0.808c0.433,1.63,0.866,3.261,1.299,4.891
	c-0.146,0.037-0.292,0.074-0.438,0.111C52.106,348.066,51.687,346.668,51.268,345.27z"/>
<path fill="#C86A6A" d="M547.493,398.333c-7.762,5.1-15.498,10.25-24.255,13.566c-2.445,0.926-4.952,1.606-7.683,1.267
	c10.434-5.282,21.38-9.456,31.55-15.223C547.534,397.776,547.598,397.971,547.493,398.333z"/>
<path fill="#C05252" d="M547.493,398.333c-0.129-0.13-0.258-0.26-0.388-0.39c0.606-0.596,1.328-0.94,2.291-0.837
	C548.762,397.516,548.128,397.925,547.493,398.333z"/>
<path fill="#C86A6A" d="M175.5,451.345c-15.086-1.776-28.461-13.376-33.347-25.854c4.546,5.376,9.388,10.455,14.833,14.926
	C162.43,444.887,168.176,448.866,175.5,451.345z"/>
<path fill="#BE4E4E" d="M180.991,451.99c-1.195,0.338-1.997,0.276-3.224,0.067C178.987,451.73,179.788,451.77,180.991,451.99z"/>
<path fill="#A7A4A5" d="M342.993,374.776c0.008-0.15,0.016-0.299,0.023-0.449c3.971,2.848,5.362,7.43,3.702,12.192
	c-0.14,0.141-0.278,0.139-0.415-0.005c0-0.265,0-0.531,0.001-0.796C347.58,381.351,346.174,377.795,342.993,374.776z"/>
<path fill="#AAA7A7" d="M346.302,386.514c0.138,0.002,0.277,0.003,0.415,0.005c-0.032,0.473-0.168,0.972-0.672,1.034
	c-0.648,0.079-0.731-0.584-0.982-1C345.476,386.54,345.889,386.527,346.302,386.514z"/>
<path fill="#6D6D6D" d="M234.153,397.184c0.239-0.161,0.478-0.323,0.717-0.484c-0.697,2.214-1.11,4.47-0.71,6.784
	c0.102,0.591,0.068,1.751,1.325,1.003c1.544-0.918,2.996-0.589,3.941,0.779c0.869,1.257,0.756,2.711-0.428,3.889
	c-0.308,0.306-0.454,0.664-0.484,1.083c-0.27,0.195-0.521,0.193-0.748-0.07l0.008,0.006c-0.519-0.613-0.04-0.898,0.394-1.198
	c1.482-1.078,1.804-2.289,0.425-3.696c-0.716-0.168-1.33-0.838-2.162-0.445c-0.242,0.148-0.484,0.297-0.726,0.445
	c-0.859,1.085-1.521,0.98-1.995-0.325c-0.967-2.661-0.801-5.257,0.433-7.795L234.153,397.184z"/>
<path fill="#BBB8B8" d="M237.766,410.167c0.249,0.023,0.499,0.047,0.748,0.07c4.024,2.327,7.939,1.983,11.767-0.482
	c0.183,0.024,0.366,0.048,0.549,0.072C247.24,413.046,240.786,413.213,237.766,410.167z"/>
<path fill="#D6D5D5" d="M234.144,397.159c-0.561,2.443-1.18,4.854-0.316,7.395c0.408,1.2,0.924,1.33,1.878,0.725
	c-0.146,0.725-0.235,1.714-1.061,1.741c-0.671,0.022-0.873-0.975-1.074-1.585C232.638,402.612,232.234,399.797,234.144,397.159z"/>
<path fill="#D6D5D5" d="M236.431,404.834c0.872-0.584,1.548-0.223,2.162,0.445C237.872,405.131,237.152,404.983,236.431,404.834z"/>
<path fill="#BBB8B8" d="M238.168,408.975c-0.131,0.399-0.263,0.799-0.394,1.198c-0.396-0.106-0.768-0.339-0.693-0.758
	C237.189,408.81,237.747,408.99,238.168,408.975z"/>
<path fill="#7E4308" d="M469.145,532.235c-0.708-0.325-0.852-1.066-1.215-1.646c0.006-0.948,0.254-1.94,1.344-1.839
	c0.932,0.086,1.3,1.122,1.458,1.985C470.953,531.942,470.148,532.234,469.145,532.235z"/>
<path fill="#504E31" d="M202.624,375.48c3.619-2.434,7.917-3.449,11.687-5.584c1.214-0.687,2.398-1.536,3.844-1.755
	c-0.728,1.559-2.596,1.422-3.67,2.467c-0.472,0.434-1.113,0.517-1.657,0.8c-3.118,1.373-6.237,2.746-9.355,4.119
	C203.19,375.511,202.907,375.496,202.624,375.48z"/>
<path fill="#231F20" d="M225.066,364.436c2.398-1.737,2.656-4.647,3.742-7.065c2.722-6.056,5.418-12.116,8.379-18.066
	c3.326-6.684,6.843-13.258,10.551-19.731c3.535-6.172,7.187-12.274,11.161-18.182c1.395-2.074,2.705-4.194,4.527-5.935
	c-0.983,2.634-3.206,4.45-4.527,6.861c-2.064,3.766-4.893,7.09-6.457,11.146c-1.741,1.219-2.387,3.271-3.333,4.962
	c-3.75,6.708-7.652,13.343-10.937,20.305c-2.555,5.416-5.182,10.798-7.684,16.238c-1.094,2.379-2.045,4.834-2.888,7.313
	c-0.457,1.343-1.165,2.225-2.514,2.601c-0.136-0.094-0.185-0.191-0.145-0.293C224.981,364.488,225.023,364.436,225.066,364.436z"/>
<path fill="#231F20" d="M263.406,295.473c4.126-5.704,10.543-10.574,18.5-8.424c3.749,1.013,7.034,3.131,10.151,5.433
	c6.429,4.749,12.238,10.258,18.518,15.191c0.745,0.585,1.507,1.147,2.261,1.72c0.243,0.216,0.664,0.352,0.367,0.812
	c-2.648-1.164-4.559-3.331-6.795-5.049c-5.776-4.44-10.92-9.667-17.015-13.712c-3.106-2.061-6.389-3.833-10.18-4.015
	c-4.599-0.222-8.555,1.495-11.971,4.58C265.963,293.162,264.973,294.64,263.406,295.473z"/>
<path fill="#7D7B41" d="M313.202,310.205c-0.122-0.271-0.244-0.542-0.367-0.812c0.274,0.001,0.548,0.002,0.822,0.003
	c0.499,0.15,1.066,0.209,1.18,0.877c0.484,0.785,1.389,1.022,2.052,1.575c3.376,1.458,6.283,3.732,9.509,5.457
	c5.512,2.945,10.834,6.235,16.409,9.07c0.767,0.39,1.641,0.712,2.039,1.602c0.019,0.209-0.039,0.395-0.162,0.563
	c-0.919-0.513-2.111-0.363-2.898-1.195c-0.496-0.344-1.173-0.354-1.579-0.861l0.016,0.014c-0.624-0.511-1.505-0.592-2.052-1.232
	l0.005,0.012c-0.558-0.267-1.207-0.347-1.665-0.816c-0.433-0.262-0.865-0.524-1.298-0.787c-1.244-0.601-2.502-1.18-3.596-2.044
	l-0.001-0.001c-0.517-0.325-1.188-0.357-1.617-0.849l0.013,0.011c-1.152-0.819-2.551-1.182-3.701-2.004
	c-0.418-0.277-0.836-0.554-1.254-0.831c-0.812-0.39-1.677-0.676-2.416-1.212c-0.26-0.144-0.521-0.288-0.781-0.432
	c-0.481-0.766-1.35-0.867-2.077-1.211c-1.51-1.089-3.019-2.178-4.529-3.267c-0.538-0.367-0.959-0.895-1.579-1.149
	C313.517,310.526,313.36,310.366,313.202,310.205z"/>
<path fill="#231F20" d="M326.312,318.787c1.366,0.423,2.696,0.913,3.7,2.004C328.666,320.332,327.204,320.086,326.312,318.787z"/>
<path fill="#231F20" d="M322.642,316.744c0.921,0.175,1.752,0.527,2.416,1.212C324.058,317.94,323.189,317.663,322.642,316.744z"/>
<path fill="#231F20" d="M319.783,315.102c0.94-0.022,1.753,0.175,2.077,1.211C321.149,315.942,320.334,315.749,319.783,315.102z"/>
<path fill="#231F20" d="M313.675,310.686c0.852-0.064,1.232,0.52,1.579,1.149C314.473,311.802,314.057,311.267,313.675,310.686z"/>
<path fill="#231F20" d="M329.999,320.78c0.634,0.103,1.192,0.348,1.617,0.849c-0.407-0.001-0.814-0.001-1.22-0.002
	C330.264,321.344,330.131,321.062,329.999,320.78z"/>
<path fill="#7E7D42" d="M344.684,328.539c0.003-0.143,0.005-0.287,0.008-0.43c1.606-0.362,2.874,0.56,4.135,1.238
	c2.388,1.283,4.925,1.809,7.582,1.874c4.19,0.103,8.384-0.116,12.574,0.107c1.225,0.634,2.827-0.123,3.909,1.049
	c-0.033,0.111-0.065,0.222-0.098,0.334c-5.043-0.654-10.11-0.446-15.171-0.428c-1.755,0.006-3.498-0.089-5.224-0.42
	C349.574,331.342,347.156,329.879,344.684,328.539z"/>
<path fill="#231F20" d="M331.617,321.63c1.284,0.532,2.573,1.055,3.597,2.044C333.763,323.435,332.472,322.915,331.617,321.63z"/>
<path fill="#231F20" d="M338.171,325.264c0.813,0.196,1.573,0.48,2.052,1.232C339.441,326.249,338.373,326.478,338.171,325.264z"/>
<path fill="#231F20" d="M336.511,324.46c0.653,0.073,1.206,0.348,1.665,0.816C337.45,325.354,336.822,325.231,336.511,324.46z"/>
<path fill="#231F20" d="M340.207,326.483c0.639,0.081,1.17,0.359,1.579,0.861C341.085,327.376,340.465,327.262,340.207,326.483z"/>
<path fill="#504E31" d="M225.066,364.436c0.007,0.149,0.014,0.299,0.02,0.448c-0.14,0.121-0.28,0.241-0.421,0.362
	c-1.881,1.057-3.685,2.272-5.81,2.828c0.137-0.771,0.738-1.147,1.373-1.311C222.003,366.303,223.325,364.937,225.066,364.436z"/>
<path fill="#211D1F" d="M212.827,371.408c0.453-0.472,1-0.751,1.657-0.8C214.166,371.358,213.535,371.463,212.827,371.408z"/>
<path fill="#C4C6C6" d="M297.765,339.656c0.795-0.147,1.584-0.356,2.385-0.423c0.908-0.076,1.589,0.36,1.843,1.264
	c0.269,0.957,0.02,1.846-0.924,2.213c-1.045,0.407-1.801,0.813-1.623,2.141c0.09,0.668-0.445,1.091-1.057,1.336
	c-0.854,0.341-1.011-0.349-1.325-0.859c-0.21-0.342-0.72-0.625-0.73-0.946c-0.124-3.836-3.511-3.389-5.745-4.251
	c-1.522-0.587-3.175,1.449-2.832,3.13c0.243,1.193,0.493,2.391,0.627,3.599c0.106,0.955,0.084,1.953-1.191,2.218
	c0.024-1.957-0.378-3.876-0.519-5.819c-0.076-0.87-0.503-1.767,0.182-2.583c0.187-0.235,0.408-0.435,0.647-0.615
	c3.445-2.379,7.417-0.849,10.438,4.188c0.421-1.065,0.844-1.975,1.962-2.342c0.802-0.263,0.613-0.779-0.077-1.083
	c-0.586-0.258-1.201-0.182-1.807-0.066c-1.034,0.198-2.006,0.088-2.969-0.389c-3.29-1.628-3.716-2.814-2.028-6.068
	c1.048-2.021,1.654-3.967,0.169-6.104c-0.646-0.929-0.885-2.126-1.137-3.261c-0.084-0.64,0.045-1.238,0.35-1.802
	c0.347-0.569,0.783-1.003,1.513-0.984c0.215,0.032,0.398,0.128,0.547,0.287c-1.38,1.148-1.487,2.321-0.564,3.949
	c1.782,3.142,2.06,6.393-0.23,9.509c-0.836,1.138-0.202,1.902,0.713,2.505C295.403,339.075,296.267,340.245,297.765,339.656z"/>
<path fill="#CBCBCC" d="M294.462,322.439c-0.146-0.01-0.291-0.021-0.437-0.031c0.039-1.419,1.227-1.91,2.126-2.634
	c0.527-0.532,1.164-0.714,1.894-0.602c0.131,0.014,0.261,0.041,0.391,0.068c0.849,0.179,1.934,0.508,2.181-0.619
	c0.266-1.212-1.022-1.104-1.759-1.408c-1.115-0.168-1.453-1.27-2.382-2.049c0.072,1.194,0.651,2.055,0.742,3.018
	c0.005,0.194-0.023,0.382-0.083,0.567c-0.227,0.451-0.686,0.662-1.03,0.991c-0.81,0.501-1.506,1.21-2.498,1.386
	c-0.307,0.004-0.58-0.077-0.783-0.324c2.841-1.539,3.171-4.002,2.509-6.828c0.129-0.035,0.257-0.087,0.388-0.104
	c0.765-0.1,6.15,3.313,6.351,4.02c0.38,1.336-1.177,3.461-2.22,2.843C297.176,319.146,296.143,321.579,294.462,322.439z"/>
<path fill="#E8EAE9" d="M287.109,343.25c0.006,1.943,1.14,3.87,0.084,5.828c0.012,0.107-0.008,0.208-0.059,0.303
	c-0.589,0.399-1.28,0.529-1.94,0.742c-0.933,0.14-1.872-0.472-2.804,0.02c-0.581,0.157-1.01,0.614-1.578,0.797
	c-1.401,0.369-2.79-0.856-4.195-0.028c-0.962,0.382-1.873,1.032-2.995,0.566c-0.394-0.167-0.361-0.526-0.387-0.858
	c-0.06-1.607-0.142-3.213-0.178-4.821c-0.042-1.925-0.57-2.344-2.65-2.121h0.001c-0.771,0.432-1.319,1.139-2.03,1.644l0,0
	c-0.361,0.189-0.667,0.457-0.993,0.697c-3.011,2.223-2.711,1.895-1.467,4.987l0,0c-0.535,1.136-1.172,1.969-2.474,0.837
	c-0.62-1.495-1.318-2.843-3.105-3.34c-0.658-0.183-1.685-0.735-1.101-1.785c0.474-0.853,1.422-1.115,2.297-0.679
	c1.309,0.651,2.325,0.481,3.17-0.708c2.548-1.593,2.767-2.48,1.254-4.76c-0.365-0.549-0.586-1.193-0.873-1.793
	c-0.317-1.239-1.721-2.316-0.561-3.774c1.165,1.2,2.068,2.649,3.319,3.754c1.715,1.516,3.907,1.761,6.076,1.764
	c1.106,0.001,1.796,0.144,2.472,1.207c0.796,1.252,2.112,2.08,3.8,1.631c0.568-0.21,0.771-0.62,0.661-1.207
	c0.357-0.861,0.348-1.852,0.939-2.628c0.331-0.335,0.929,0.564,0.841,0.085c-0.321-1.754,0.653-1.636,1.766-1.455
	c0.664,0.108,1.369,0.064,1.959,0.484c0.701,0.914-0.043,1.868,0.078,2.799C286.598,342.065,286.865,342.653,287.109,343.25z"/>
<path fill="#9A9F9F" d="M280.925,350.604c0.439-0.277,0.878-0.554,1.316-0.832c0.988-0.642,1.945,0.591,2.931,0.049
	c0.654-0.147,1.307-0.294,1.961-0.441c-0.158,0.245-0.316,0.489-0.474,0.733c-3.107,0.071-5.986,1.888-9.251,1.051
	c-1.181-0.303-2.401,1.403-3.787,0.314c1.067,0.054,2.018-0.282,2.895-0.864C277.984,349.734,279.457,351.307,280.925,350.604z"/>
<path fill="#E8EAE9" d="M296.116,320.005c-0.696,0.801-1.393,1.602-2.09,2.403c-0.57,0.058-0.985,0.341-1.242,0.854
	c-0.61,0.427-0.734,0.967-0.376,1.619c0.786,1.634,1.279,3.375,2.172,4.995c0.845,1.531-0.476,3.071-1.01,4.557
	c-0.421,1.17-1.941,2.296-0.811,3.537c1.379,1.514,2.996,3.115,5.444,2.198c0.799-0.299,1.447,0.037,2.155,0.231
	c0.574,0.158,1.034,0.422,0.987,1.086c-0.047,0.658-0.541,0.843-1.121,0.962c-0.839,0.172-1.877,0.203-1.361,1.6
	c0.186,0.502-0.077,0.983-0.621,1.086c-0.546,0.104-1.026-0.382-1.081-0.757c-0.541-3.703-3.706-3.933-6.324-5.011
	c-1.556-0.641-2.091,1.039-3.278,1.045c-1.052,0.302-1.248-0.167-0.778-0.979c0.329-0.568,0.93-0.976,1.008-1.701
	c2.01-1.362,3.631-2.99,4.205-5.489c0.234-1.018,0.121-1.839-0.452-2.688c-1.848-2.739-4.941-3.114-7.29-0.848
	c-1.894,1.827-3.102,4.1-4.208,6.446c-0.75,1.591-1.005,1.619-2.249,0.317c-1.59-1.664-3.09-3.33-5.44-4.106
	c-2.95-0.975-3.654-0.881-5.288,1.821c-0.68,1.304-0.68,1.304-2.577,1.364c-0.428-1.524,1.182-2.627,0.813-4.219
	c-0.165-0.711-0.146-1.583-0.012-2.376c1.033-0.611,0.842,0.579,1.388,0.943c0.569-0.459,0.723-1.324,1.472-1.711
	c0.789-0.408-0.351-0.401-0.257-0.718c1.728-0.918,2.955-2.59,4.863-3.238c2.906-1.02,5.888-1.257,8.931-0.861
	c0.134,0.017,0.288,0.094,0.396,0.03c2.587-1.517,5.075-0.17,7.595,0.248c0.269,0.045,0.534,0.001,0.71-0.252l-0.037,0.019
	c1.016-0.706,2.026-1.423,3.305-1.578c0.777-0.498,1.447-1.206,2.457-1.244c0.124,0.091,0.165,0.183,0.126,0.277
	C296.197,319.958,296.157,320.005,296.116,320.005z"/>
<path fill="#E9EBEB" d="M267.892,326.464c0.457,0.053,0.914,0.106,1.513,0.176c-0.659,1.145-2.215,1.432-2.28,2.884
	c-0.008,0.172-0.513,0.45-0.789,0.451c-0.443,0.001-0.381-0.455-0.416-0.772c-0.056-0.512,0.13-1.102-0.482-1.425
	c-1.696,0.365-2.923-0.905-4.41-1.266c-0.948-0.478-1.809-0.703-2.76,0.153c-0.798,0.718-1.832,0.583-2.54-0.184
	c-0.787-0.854-0.984-1.87-0.003-2.806c0.123-0.021,0.248-0.033,0.373-0.034c1.447,0.163,2.043-0.554,2.067-1.937
	c0.013-0.706-0.19-1.485,0.474-2.05c0.705-0.209,1.457-0.765,1.991,0.273c0.271,0.508,0.311,1.101,0.08,1.56
	c-0.98,1.949,0.142,3.107,1.683,3.58c1.808,0.555,3.328,2.469,5.544,1.396L267.892,326.464z"/>
<path fill="#E6E7E8" d="M290.387,322.391c-1.367,1.022-2.672-0.109-3.999-0.184c-1.22-0.069-2.367-0.44-3.369,0.599
	c-0.212,0.22-0.722,0.466-0.893,0.363c-1.597-0.962-3.258-0.006-4.665-0.177c-1.682-0.205-3.147,0.395-4.706,0.235
	c1.069-0.767,2.249-1.12,3.571-1.31C281.052,321.238,285.737,321.095,290.387,322.391z"/>
<path fill="#E8EAE9" d="M267.936,326.463c-2.129,1.784-3.675-0.45-5.382-0.944c-2.341-0.677-2.587-1.663-2.05-4.19
	c0.097-0.455,0.086-0.933,0.125-1.401c0.396,0.365,0.457,0.874,0.297,1.3c-0.859,2.285,0.552,3.163,2.314,3.819
	C264.775,325.617,266.103,326.882,267.936,326.463z"/>
<path fill="#9F9F9F" d="M258.639,319.655c-0.026,0.862-0.017,1.727-0.085,2.586c-0.129,1.641-0.813,2.38-2.456,1.401
	c2.23-0.545,1.274-2.748,2.095-4.026C258.341,319.629,258.49,319.642,258.639,319.655z"/>
<path fill="#E6E7E8" d="M293.654,320.832c-1.101,0.526-2.203,1.052-3.304,1.578c0.16-0.255,0.32-0.51,0.48-0.764
	c0.665-0.282,1.33-0.563,1.994-0.845C293.101,320.811,293.378,320.822,293.654,320.832z"/>
<path fill="#9A9F9F" d="M270.407,343.678c1.346-0.884,2.56-0.446,2.695,0.975c0.186,1.962,0.884,3.969,0.132,5.967
	c-0.721-1.378-0.468-2.88-0.415-4.311C272.887,344.502,272.162,343.685,270.407,343.678z"/>
<path fill="#9A9F9F" d="M265.918,351.006c-1.906-2.89-1.362-4.147,2.46-5.685c-0.149,0.209-0.252,0.508-0.455,0.613
	C265.773,347.05,264.874,348.639,265.918,351.006z"/>
<path fill="#9A9F9F" d="M268.378,345.322c0.464-0.81,0.962-1.579,2.03-1.644C269.905,344.44,269.334,345.118,268.378,345.322z"/>
<path fill="#BEBE59" d="M387.953,336.313c0.977,0.167,1.109,0.911,1.165,1.707c-1.623-1.079-3.246-2.158-4.869-3.237
	c-1.739-0.926-3.878-0.815-5.476-2.109c0.024-0.338,0.206-0.576,0.476-0.761c2.599-0.649,4.64,0.603,6.649,1.958
	c0.082,0.773-0.773,0.162-0.951,0.762C385.847,335.307,386.8,335.972,387.953,336.313z"/>
<path fill="#BCBC59" d="M378.961,332.647c1.654,0.98,3.805,0.731,5.288,2.136c-2.528-0.21-4.763-1.659-7.323-1.732
	c-0.065-0.236-0.002-0.43,0.188-0.584C377.77,332.113,378.391,332.123,378.961,332.647z"/>
<path fill="#7E7D42" d="M376.892,332.671c0.007,0.127,0.018,0.253,0.033,0.379c-1.377-0.111-2.797,0.296-4.131-0.34l0.078-0.115
	c1.222-0.781,2.491-0.592,3.771-0.184C376.727,332.497,376.81,332.584,376.892,332.671z"/>
<path fill="#B4B6B6" d="M261.028,326.513c1.605-0.049,2.844,1.181,4.411,1.265c0.462,2.38,0.37,4.7-0.75,6.908
	c0.091,0.088,0.118,0.172,0.082,0.253c-0.036,0.079-0.07,0.119-0.103,0.119c-1.1,1.379,0.778,2.424,0.417,3.72
	c-0.146,0.028-0.291,0.055-0.437,0.083c-1.018-2.194-1.047-4.402-0.282-6.699c1.157-3.471,1.107-3.478-2.176-4.883
	C261.771,327.1,261.414,326.772,261.028,326.513z"/>
<path fill="#BCBC59" d="M385.898,333.871c-2.111-0.807-4.129-1.981-6.529-1.632c-2.581-0.416-5.185-0.637-7.791-0.57
	c-1.003,0.026-1.8-0.478-2.751-0.574c-4.317-0.435-8.637,0.098-12.955-0.159c-2.27-0.135-4.413-0.537-6.465-1.504
	c-8.652-4.077-16.838-9.021-25.233-13.576c-1.06-0.575-2.656-0.962-2.351-2.798c3.13,1.715,6.253,3.442,9.391,5.141
	c4.896,2.652,9.775,5.337,14.715,7.904c2.579,1.34,5.416,2.357,8.278,2.298c2.106-0.044,4.244-0.011,6.363-0.104
	c3.058-0.134,6.152,0.024,9.2,0.349c3.138,0.335,6.291,0.817,9.339,1.614C381.59,330.909,384.139,331.726,385.898,333.871z"/>
<path fill="#C2C25A" d="M321.822,313.058c0.913,1.938,2.936,2.35,4.551,3.335c4.735,2.889,9.576,5.634,14.486,8.161
	c4.302,2.215,8.429,5.283,13.438,5.672c2.269,0.176,4.608,0.317,6.95,0.236c3.122-0.109,6.35-0.58,9.533,0.623
	c1.079,0.408,2.818,0.507,4.085,0.177c1.484-0.387,2.639,0.685,4.002,0.386c0.118-0.026,0.332,0.384,0.502,0.591
	c-0.136,0.136-0.272,0.272-0.408,0.408c-0.689,0.008-1.379,0.016-2.068,0.024l0.021,0.001c-2.573-0.373-5.16-0.622-7.75-0.833
	c-3.801,0.01-7.609-0.118-11.402,0.065c-4.831,0.233-8.899-1.895-13.069-3.794c-5.366-3.002-10.741-5.989-16.097-9.01
	c-4-2.257-8.093-4.369-11.706-7.252c0.589-0.02,1.22,0.022,1.261-0.831c0.134-0.141,0.269-0.148,0.403-0.001
	c0.018,0.529,0.289,0.804,0.821,0.817c0.611,0.525,1.414,0.729,2.043,1.224C321.552,313.057,321.687,313.057,321.822,313.058z"/>
<path fill="#C2C25A" d="M311.211,306.937c-0.785-0.087-1.107-0.79-1.633-1.223c0.054-0.845,0.553-0.56,0.946-0.333
	C311.109,305.72,311.691,306.107,311.211,306.937z"/>
<path fill="#C2C25A" d="M314.837,310.272c-0.393-0.292-0.787-0.585-1.18-0.877c0.002-0.14,0.003-0.28,0.005-0.42
	c0.242,0.033,0.559,0.181,0.714,0.08c0.788-0.51,1.372-0.031,1.518,0.552C316.053,310.244,314.922,309.578,314.837,310.272z"/>
<path fill="#BCBC59" d="M321.417,313.057c-0.842-0.14-1.61-0.402-2.043-1.224C320.215,311.974,320.983,312.237,321.417,313.057z"/>
<path fill="#BCBC59" d="M318.553,311.015c-0.134,0.001-0.269,0.001-0.403,0.001c-0.382-0.039-0.779-0.051-0.996-0.617
	C317.815,310.244,318.188,310.62,318.553,311.015z"/>
<path fill="#C3C35A" d="M230.813,350.605c-0.137,0-0.274,0-0.411-0.001c0.609-2.356,1.709-4.515,2.752-6.687
	c2.998-6.246,6.222-12.373,9.567-18.444c5.729-10.4,11.589-20.722,18.711-30.237c2.392-3.196,5.419-5.839,8.861-8.108
	c2.429-1.602,5.004-1.759,7.544-2.472c0.377-0.106,0.859-0.293,0.923,0.339c0.039,0.386-0.33,0.587-0.661,0.653
	c-0.859,0.172-1.724,0.319-2.592,0.435c-3.363,0.448-6.066,2.225-8.456,4.44c-6.733,6.239-11.173,14.141-15.785,21.931
	c-2.926,4.941-5.908,9.848-8.615,14.911c-2.674,4.999-5.25,10.049-7.797,15.115C233.495,345.181,232.672,348.157,230.813,350.605z"
	/>
<path fill="#C2C25D" d="M285.092,287.344c-1.971-0.35-3.657-1.805-6.344-1.075C281.025,284.515,284.433,285.395,285.092,287.344
	L285.092,287.344z"/>
<path fill="#E5E5E5" d="M270.455,455.14c8.028-1.212,15.511,0.65,22.652,4.16c7.924,3.895,15.429,8.522,22.784,13.395
	c0.273,0.181,0.479,0.463,0.717,0.697c0.988,1.648,0.86,3.541,1.062,5.332c0.385,3.428,0.984,6.834,1.126,10.289
	c0.017,0.415,0.05,0.814-0.271,1.139c-7.262,2.186-14.515,4.399-21.498,7.392c-5.601,2.401-11.184,4.844-16.775,7.268
	c-0.716-0.427-0.889-1.129-1.043-1.887c-3.083-15.227-6.093-30.469-9.145-45.701C269.912,456.469,269.81,455.738,270.455,455.14z"/>
<path fill="#E5E5E5" d="M279.326,505.237c-8.81,4.001-17.62,8.003-26.43,12.004c-1.078-0.082-1.204-0.962-1.4-1.732
	c-3.156-12.403-6.199-24.834-9.335-37.242c-0.199-0.786-0.336-1.598,0.041-2.387c5.919-8.996,13.228-16.316,23.8-19.678
	c1.027-0.327,2.1-0.511,3.151-0.761c0.814-0.025,0.731,0.612,0.842,1.122c1.436,6.649,2.709,13.331,4.047,19.999
	c1.711,8.521,3.486,17.03,5.137,25.563C279.373,503.13,279.981,504.171,279.326,505.237z"/>
<path fill="#E5E5E5" d="M251.558,517.872c-3.005,1.229-5.928,2.66-9.118,3.421c-1.618,0.386-3.092,0.191-4.532-0.544
	c-0.724-0.369-1.39-0.889-2.148-1.149c-4.401-1.507-5.326-5.024-5.271-9.071c0.094-6.871,1.804-13.414,4.185-19.806
	c1.708-4.584,3.872-8.951,6.376-13.151c1.385-0.491,1.17,0.755,1.336,1.356c1.094,3.962,2.05,7.961,3.045,11.948
	c2.024,8.105,4.035,16.213,6.059,24.319C251.697,516.022,252.401,516.966,251.558,517.872z"/>
<path fill="#E5E5E5" d="M317.735,473.87c6.187,4.233,13.09,5.719,20.484,5.387c5.257-0.236,10.244,0.86,14.971,3.166
	c0.731,0.356,1.468,0.691,2.007,1.33c0.369,1.486,0.573,2.959-0.359,4.337c-11.675-2.136-23.179-0.914-34.608,1.765
	c-1.337,0.303-1.52-0.76-1.592-1.568c-0.401-4.492-1.067-8.952-1.522-13.436C317.071,474.398,316.977,473.847,317.735,473.87z"/>
<path fill="#616161" d="M279.326,505.237c-3.261-16.37-6.521-32.74-9.794-49.107c-0.049-0.245-0.249-0.46-0.379-0.689
	c0.381-0.328,0.836-0.338,1.302-0.301c0.231,3.945,1.343,7.736,2.088,11.586c2.372,12.251,4.87,24.479,7.325,36.714
	c0.093,0.464,0.254,0.915,0.383,1.372C279.943,504.954,279.634,505.095,279.326,505.237z"/>
<path fill="#606060" d="M251.558,517.872c-0.849-5.072-2.37-9.983-3.592-14.966c-1.932-7.881-3.915-15.749-5.939-23.606
	c-0.153-0.592,0.186-1.642-0.978-1.727c0.384-0.564,0.768-1.128,1.152-1.692c1.976,8.017,3.94,16.037,5.931,24.05
	c1.273,5.125,2.583,10.241,3.883,15.359c0.178,0.699,0.13,1.508,0.881,1.951C252.45,517.451,252.004,517.661,251.558,517.872z"/>
<path fill="#E1E1E1" d="M356.108,484.106c3.306,1.813,6.159,4.177,8.653,7.029c-2.93-1.384-6.105-1.866-9.064-2.993
	C354.961,486.708,355.321,485.386,356.108,484.106z"/>
<path fill="#646464" d="M317.735,473.87c-0.343,1.807,0.161,3.557,0.357,5.329c0.312,2.825,0.574,5.657,0.955,8.472
	c0.11,0.814-0.273,2.043,1.184,2.184c-0.484,0.584-1.124,0.276-1.706,0.298c-0.741-5.575-1.494-11.149-1.917-16.76
	C317.026,473.451,317.472,473.445,317.735,473.87z"/>
<path fill="#737373" d="M356.108,484.106c-0.137,1.345-0.274,2.691-0.411,4.036c-0.286-0.017-0.573-0.035-0.859-0.052
	c0.16-1.442-0.055-2.916,0.359-4.337C355.574,483.682,355.885,483.781,356.108,484.106z"/>
<path fill="#BCBC59" d="M369.163,331.839c2.634-0.196,5.215,0.104,7.75,0.833c-1.347-0.025-2.695-0.05-4.042-0.075
	C371.745,331.811,370.291,332.625,369.163,331.839z"/>
<path fill="#E6E8E8" d="M287.948,337.952c0.743,0.997-0.321,1.184-0.755,1.616c-0.657,0.655-0.126,0.722,0.365,0.84
	c-0.135,0.136-0.27,0.272-0.405,0.408c-0.379,0.166-0.591,0.504-0.837,0.808c-1.014-0.953,0.249-1.907,0-2.861
	C286.491,337.754,287.174,337.763,287.948,337.952z"/>
<path fill="#E5E8E8" d="M286.315,341.626c0.018-0.54,0.296-0.81,0.837-0.808c-0.67,0.799,0.088,1.624-0.044,2.433
	C286.603,342.826,286.378,342.266,286.315,341.626z"/>
<path fill="#E6E7E8" d="M292.408,324.88c-0.518-0.69-0.689-1.298,0.377-1.619C292.659,323.801,292.534,324.341,292.408,324.88z"/>
<path fill="#E5E7E7" d="M296.905,318.742c0.001-0.127,0.007-0.253,0.018-0.38c0.527-0.716,1.077-1.403,2.024-1.581
	c0.458,0.112,0.914,0.233,1.374,0.333c0.794,0.171,1.201,0.656,1.059,1.458c-0.145,0.817-0.691,1.298-1.519,1.419
	c-0.638,0.093-1.205-0.122-1.735-0.457C297.832,319.097,296.783,319.824,296.905,318.742z"/>
<path fill="#E6E6E7" d="M298.947,316.781c-0.734,0.451-0.943,1.574-2.024,1.581c-0.313-0.893-0.625-1.787-0.94-2.679
	c-0.154-0.436-0.489-0.959,0.093-1.246c0.629-0.31,0.972,0.201,1.268,0.688C297.751,315.797,297.922,316.706,298.947,316.781z"/>
<path fill="#E6E6E7" d="M296.905,318.742c0.408,0.264,0.815,0.528,1.223,0.791c-0.712-0.018-1.4,0.064-2.012,0.471
	c-0.001-0.139-0.003-0.278-0.005-0.417C296.376,319.306,296.64,319.024,296.905,318.742z"/>
<path fill="#F0F1F1" d="M287.948,337.952c-0.544,0.271-1.089,0.542-1.633,0.812c-1.076,0.078-2.132-0.031-3.104-0.368
	c-0.375,0.225-0.252,0.474-0.172,0.726c0.207,0.656,0.934,1.558-0.019,1.91c-1.131,0.418-0.469-1.185-1.168-1.453
	c-0.624-0.084-0.913-0.545-1.176-1.036c-0.205-0.459-0.449-0.872-1.039-0.88c-0.436-0.026-0.853,0.113-1.282,0.142
	c-0.547-0.008-0.87-0.339-1.063-0.795c-0.891-2.1-2.748-3.251-4.441-4.567c-1.441-1.121-2.844-0.968-4.231,0.102
	c-0.475,0.367-0.865,0.857-1.473,1.037c-0.32-0.034-0.587-0.11-0.421-0.529c1.257-2.95,2.659-3.516,5.467-2.207
	c3.808,1.775,3.826,1.789,6.851,5.272c1.355-3.006,2.768-5.905,5.201-8.152c1.971-1.82,3.818-1.897,6.567-0.139
	c1.47,0.94,2.032,3.177,1.476,5.15C291.617,335.355,290.153,336.957,287.948,337.952z"/>
<path fill="#ECEEEE" d="M266.725,333.055c0.135,0.135,0.27,0.271,0.404,0.406c0.736,0.703,0.474,1.637,0.573,2.486
	c0.223,1.915,1.22,2.96,3.135,3.054c1.606,0.079,3.223,0.208,4.783-0.502c0.755-0.344,1.742-0.747,2.097,0.612
	c0.024,0.198,0.021,0.399-0.005,0.598c-0.102,0.778-0.667,1.6,0.224,2.279c0.15,0.077,0.298,0.16,0.448,0.236
	c0.369,0.18,0.789,0.275,1.066,0.61c-0.025,0.836,0.971,0.276,1.152,0.835c-1.8,0.653-4.188-0.17-4.829-1.867
	c-0.33-0.874-0.606-0.895-1.436-0.77c-4.18,0.629-8.916-2.347-9.669-5.971c-0.011-0.125-0.004-0.249,0.021-0.372
	C265.816,334.702,266.179,333.764,266.725,333.055z"/>
<path fill="#B6B9B9" d="M278.493,337.528c0.341-0.392,0.813-0.345,1.261-0.375c0.548,0.275,0.948,0.7,1.246,1.227
	c0.284,0.4,0.567,0.8,0.851,1.2c0.164,1.088-0.072,2.049-0.895,2.825c-0.139,0.185-0.319,0.312-0.54,0.381
	c-0.778,0.046-1.526-0.113-2.264-0.342l-0.002-0.001c-0.052-0.076-0.104-0.153-0.157-0.228c0.047-0.181,0.154-0.319,0.31-0.42
	c0.686-0.341,1.553-0.062,2.171-0.633c0.103-0.127,0.2-0.256,0.279-0.396c0.218-0.554-0.075-0.952-0.402-1.339
	c-0.471-0.67-1.249-0.929-1.868-1.401C278.389,337.859,278.393,337.692,278.493,337.528z"/>
<path fill="#F6F7F6" d="M280.601,342.464c0.118-0.028,0.236-0.047,0.356-0.059c0.281,0.094,0.754,0.057,0.664,0.494
	c-0.099,0.479-0.644,0.552-1.019,0.769c-0.552-0.092-1.153,0.206-1.645-0.22c-0.013-0.011,0.282-0.379,0.434-0.58
	C279.703,342.457,280.276,342.831,280.601,342.464z"/>
<path fill="#E5E8E8" d="M280.925,350.604c-1.467,1.017-2.94-0.579-4.408,0.011C277.983,349.49,279.456,350.771,280.925,350.604z"/>
<path fill="#E5E8E8" d="M285.173,349.822c-0.991,0.798-1.952-0.19-2.931-0.049C283.234,348.842,284.197,349.742,285.173,349.822z"/>
<path fill="#E8EAE9" d="M278.493,337.528c0.026,0.146,0.052,0.293,0.078,0.439c0.133,0.127,0.182,0.28,0.151,0.462
	c-0.176,0.505-0.416,0.966-0.883,1.269c-0.175,0.068-0.336,0.038-0.483-0.075c0.12-1.334-0.756-1.09-1.38-0.727
	c-1.377,0.801-2.846,0.701-4.323,0.695c-3.263-0.012-4.508-1.253-4.523-4.511c-0.003-0.54,0-1.079,0-1.619
	c2.339-2.893,3.763-2.988,6.659-0.97C275.755,333.86,277.049,335.736,278.493,337.528z"/>
<path fill="#B2B7B7" d="M282.271,333.087c0.831-3.021,3.053-4.999,5.588-4.976c2.029,0.018,3.382,1.41,3.369,3.463
	c-0.021,3.127-2.399,5.321-6.015,5.536c-0.472,0.028-0.947-0.009-1.42-0.006c-1.035,0.006-2.257,0.026-2.624-1.069
	c-0.363-1.084-0.03-2.249,1.102-2.946c0.043,0.053,0.117,0.101,0.124,0.159c0.342,2.628,0.774,2.919,3.581,2.404
	c3.091-0.568,4.234-1.873,3.859-4.409c-0.224-1.515-1.035-2.102-2.558-1.855c-1.435,0.232-2.454,1.058-3.287,2.207
	C283.542,332.213,283.341,333.165,282.271,333.087z"/>
<path fill="#E8EAE9" d="M281.001,338.38c-0.415-0.409-0.831-0.818-1.246-1.227C280.571,337.155,280.975,337.575,281.001,338.38z"/>
<path fill="#E8EAE9" d="M278.077,342.12c0.032,0.106,0.057,0.213,0.074,0.323c-2.015-0.226-1.299-1.382-0.835-2.452
	C277.975,340.556,277.859,341.398,278.077,342.12z"/>
<path fill="#B6B9B9" d="M278.077,342.12c-1.138-0.394-0.633-1.375-0.76-2.129c0.027-0.121,0.04-0.244,0.038-0.368
	c0.133-0.034,0.267-0.044,0.403-0.029c0.606,0.68,0.622,1.484,0.49,2.32C278.192,341.983,278.135,342.052,278.077,342.12z"/>
<path fill="#E8EAE9" d="M280.601,342.464c-0.297,0.455-0.771,0.374-1.21,0.402c-0.449-0.035-0.942,0.061-1.238-0.423
	C278.969,342.45,279.785,342.457,280.601,342.464z"/>
<path fill="#3C4648" d="M278.519,338.29c0-0.111,0.017-0.219,0.052-0.324c0.98-0.122,1.661,0.277,2.057,1.176
	c0.313,0.656,0.907,1.26,0.378,2.069h-0.001c-0.846,0.412-1.788,1.073-2.619,0.284C277.326,340.491,278.297,339.361,278.519,338.29z
	"/>
<path fill="#606767" d="M278.519,338.29c0.012,0.131,0.059,0.271,0.03,0.392c-0.569,2.331-1.07,3.289,2.456,2.53
	c-0.667,1.224-1.774,0.721-2.757,0.702c-0.667-0.667-0.349-1.542-0.489-2.321C278.009,339.158,277.98,338.558,278.519,338.29z"/>
<path fill="#606767" d="M281.006,341.212c-0.126-0.69-0.252-1.379-0.378-2.069C281.334,339.727,281.839,340.347,281.006,341.212z"/>
<path fill="#444F4F" d="M272.143,339.14c-2.169-0.138-3.686-0.659-4.301-2.612c-0.478-1.516-0.243-2.789,1.024-3.836
	c1.312-1.085,2.709-0.891,3.951-0.069c1.346,0.891,2.568,1.98,3.575,3.282c0.859,1.111,0.552,1.967-0.645,2.38
	C274.476,338.724,273.12,338.917,272.143,339.14z"/>
<path fill="#414B4C" d="M282.271,333.087c1.111-0.741,1.298-2.181,2.346-3.011c1.3-1.029,2.697-1.709,4.298-1.15
	c1.454,0.508,1.609,1.887,1.535,3.241c-0.098,1.798-0.849,3.118-2.707,3.614c-1.25,0.334-2.502,0.627-3.81,0.611
	c-2.208-0.027-2.492-0.421-1.792-2.509c0.084-0.251,0.088-0.529,0.13-0.794C282.271,333.089,282.271,333.087,282.271,333.087z"/>
<path fill="#4A5455" d="M272.686,336.795c-0.023,0.006-0.529,0.161-1.045,0.264c-0.729,0.145-1.459,0.026-1.555-0.816
	c-0.077-0.676-0.816-1.414-0.084-2.059c0.675-0.594,1.361-0.289,1.989,0.221c0.518,0.421,1.084,0.783,1.598,1.208
	c0.335,0.277,0.981,0.41,0.782,1.02C274.126,337.386,273.602,336.777,272.686,336.795z"/>
<path fill="#485253" d="M285.059,334.687c-0.442-0.178-1.272,0.393-1.417-0.572c-0.147-0.982,2.909-3.88,4.002-3.913
	c1.126-0.033,1.119,0.696,1.124,1.486C288.778,333.792,287.68,334.702,285.059,334.687z"/>
</svg>
