<?xml version="1.0" encoding="utf-8"?>
<!-- Generator: Adobe Illustrator 17.0.0, SVG Export Plug-In . SVG Version: 6.00 Build 0)  -->
<!DOCTYPE svg PUBLIC "-//W3C//DTD SVG 1.1//EN" "http://www.w3.org/Graphics/SVG/1.1/DTD/svg11.dtd">
<svg version="1.1" id="Layer_1" xmlns="http://www.w3.org/2000/svg" xmlns:xlink="http://www.w3.org/1999/xlink" x="0px" y="0px"
	 width="612px" height="792px" viewBox="0 0 612 792" enable-background="new 0 0 612 792" xml:space="preserve">
<path d="M76.992,490.183c-3.981-10.111-7.632-20.323-10.594-30.797c-1.405-4.969-2.585-10-4.014-14.964
	c-0.422-1.466-1.39-1.45-2.18-2.005c-0.716-0.503-1.546-0.842-2.607-1.402c1.178-0.273,2.052-0.443,2.904-0.689
	c0.368-0.106,1.01-0.438,0.985-0.553c-0.491-2.341,1.426-1.479,2.401-1.847c4.8,0.719,8.93-1.423,13.155-3.113
	c15.159-6.061,29.283-14.017,42.647-23.357c5.608-3.919,11.061-8.035,16.362-12.366c6.27-5.122,12.177-10.642,18.175-16.069
	c8.646-7.821,18.027-14.685,28.177-20.456c1.284-0.73,1.909-1.111,0.824-2.73c-1.229-1.834-1.867-4.063-3.073-5.966
	c-0.115-0.159-0.193-0.334-0.235-0.526c0.009-0.425,0.148-0.754,0.621-0.832c0.551,0.084,1.027,0.454,1.611,0.417
	c2.012-0.061,3.931,0.169,5.496,1.637c0.35,0.328,0.822,0.556,1.297,0.24c0.457-0.304,0.427-0.801,0.379-1.288
	c-0.197-2.004-1.055-2.422-3.011-1.985c-1.92,0.429-3.893,0.023-5.824-0.334c-1.174-1.1-0.036-1.885,0.51-2.532
	c1.435-1.703,2.857-3.416,4.243-5.158c0.425-0.44,0.985-0.688,1.482-1.026c0.53-0.361,0.981-0.823,0.698-1.498
	c-0.293-0.701-0.579-1.516-1.588-1.47c-0.095,0.004-0.152,0.204-0.175,0.345c-0.115,0.926-0.045,1.882-0.509,2.738
	c-0.082,0.172-0.184,0.332-0.296,0.485c-1.637,1.783-3.364,3.472-5.246,4.999c-0.672,0.295-0.433,1.88-1.758,1.252
	c-0.153-0.391-0.305-0.782-0.458-1.173c-0.305-0.559-0.53-1.154-0.77-1.742l0.02,0.025c-0.195-0.068-0.288-0.208-0.294-0.41
	c0.265-1.096,1.5-0.885,2.077-1.553c-0.498-2.022,0.779-3.182,2.023-4.441c1.822-1.843,3.559-3.79,2.141-6.702
	c-0.945-2.169-2.535-3.118-4.952-3.055c-2.522,0.066-5.006-0.055-7.059,1.803c-0.317,0.287-0.887,0.73-1.31-0.016
	c-0.633-0.793-0.39-1.995-1.25-2.682c-0.441-0.57-0.415-1.354-0.877-1.914c-0.253-0.45-0.505-0.901-0.758-1.351
	c-0.462-0.899-0.777-1.866-1.282-2.745c-0.119-0.174-0.238-0.347-0.357-0.521c-0.454-0.9-0.77-1.865-1.276-2.741
	c-0.144-0.313-0.287-0.626-0.431-0.939c-0.358-0.451-0.47-1.032-0.794-1.501c-0.278-0.588-0.556-1.176-0.834-1.764
	c-0.402-0.44-0.449-1.065-0.798-1.533c-0.146-0.306-0.292-0.611-0.438-0.917c-0.507-0.717-0.754-1.568-1.196-2.318
	c-0.258-0.449-0.515-0.898-0.773-1.347c-0.535-0.641,0.071-0.994,0.358-1.427c3.551-1.638,7.333-2.527,11.17-3.004
	c7.441-0.926,14.798-0.495,21.811,2.442c5.482,2.296,10.499,5.396,15.138,9.129c3.493,2.811,6.959,5.658,10.429,8.495
	c4.627,3.783,9.718,6.169,15.774,6.213c4.141,0.03,8.257,0.666,12.411,0.471c1.436-0.067,2.844-0.229,4.231-0.574
	c1.48-0.369,2.447-1.173,2.241-2.871c-0.025-2.952,0.828-5.843,0.61-8.812c1.432-3.807,4.796-5.604,8.027-7.39
	c4.065-2.247,8.488-3.558,13.165-3.783c2.37-0.114,4.74-0.027,6.979,0.932c1.666,0.714,3.111,1.66,3.658,3.533
	c0.289,1.056,0.577,2.112,0.866,3.168c0.224,2.041,0.678,4.082,0.015,6.125c-0.12,0.097-0.13,0.204-0.032,0.323
	c-0.17,1.105,0.117,2.271-0.435,3.326l0.015-0.042c-0.403,0.653,0.118,1.473-0.382,2.109c-0.823,3.36-1.645,6.72-2.468,10.08
	c-0.276,1.299-0.512,2.611-1.169,3.792l-0.113,0.106l0.048,0.147c-0.313,0.876-0.263,1.571,0.863,1.73
	c1.436,0.291,2.864,0.629,4.31,0.859c0.988,0.157,1.756,0.065,2.471-1.034c0.932-1.433,2.371-2.536,3.591-3.782
	c0.192-1.102,0.83-1.755,1.943-1.929c5.34-5.584,11.555-10.083,18.17-13.955c14.284-8.362,29.761-13.44,46.082-16.01
	c3.86-0.608,7.732-1.143,11.598-1.712c0.7-0.291,1.486,0.057,2.178-0.291c0.77-0.04,1.541-0.081,2.311-0.121
	c0.975-0.324,2.024,0.111,2.991-0.289c1.121-0.084,2.301,0.465,3.223-0.897c0.522-0.77,3.875,1.022,3.929,2.055
	c0.043,0.814,0.032,1.631,0.045,2.446c-0.542,0.53-1.349-0.077-1.894,0.44c-2.413,3.929-4.141,8.206-6.098,12.356
	c-4.442,9.416-8.634,18.95-12.386,28.669c-3.58,9.271-6.798,18.662-9.251,28.303c-0.171,0.671-0.287,1.252,0.204,1.887
	c6.048,7.822,8.562,17.313,12.251,26.234c7.287,17.621,14.583,35.231,23.609,52.059c1.263,2.355,2.676,4.63,3.986,6.961
	c0.406,0.722,0.719,1.007,1.524,0.384c6.502-5.027,13.995-7.888,21.869-9.906c0.951-0.244,1.813-0.439,2.363-1.59
	c0.494-1.034,1.643,0.4,2.505-0.031c0.55,0.323,1.454-0.048,1.702,0.868c0.048,0.669-0.051,1.393,0.178,1.992
	c0.323,0.847,0.169,1.375-0.693,1.46c-1.121,0.111-1.266,0.846-1.532,1.72c-2.187,7.189-4.198,14.417-5.463,21.84
	c-0.172,1.007-0.185,1.99-0.252,2.987c-0.374,0.678,0.014,1.465-0.308,2.15c-0.034,0.633-0.069,1.265-0.103,1.898
	c-0.28,1.459-0.261,2.918-0.008,4.378c0.963,1.916,2.72,3.133,4.148,4.628c2.939,3.079,5.888,6.167,9.608,8.359
	c1.031,0.607,2.017,1.33,3.315,1.187c0.751,0.249,1.5,0.279,2.249-0.008c3.085-0.745,4.958-3.248,6.695-5.437
	c2.525-3.181,5.405-5.978,8.174-8.892c3.398-3.576,6.154-7.616,8.968-11.625c5.474-7.797,10.771-15.714,16.776-23.136
	c4.034-4.986,8.242-9.802,12.962-14.123c7.079-6.48,14.822-11.918,24.404-14.118c1.18-0.271,2.374-0.481,3.562-0.72
	c0.731-0.289,1.546,0.027,2.27-0.313c1.216,0.003,2.433,0.007,3.649,0.01c0.713,0.334,1.512,0.016,2.232,0.295
	c6.738,1.151,12.946,3.716,17.906,8.374c3.973,3.73,7.584,7.985,8.617,13.704c-0.927,0.572-2.019-0.063-2.96,0.407
	c-6.316,0.512-11.209,3.673-15.154,8.39c-5.044,6.03-6.932,13.381-8.405,20.882c-2.404,12.245,0.098,24.018,3.441,35.698
	c1.792,6.26,4.025,12.361,7.141,18.103c2.049,3.776,4.527,7.199,7.82,10.035c2.573,2.215,4.663,4.851,5.756,8.15
	c0.174,0.678,0.207,1.355-0.023,2.029c-1.675,4.031-4.605,6.344-9.038,6.599c-1.629,0.225-3.258,0.205-4.887,0.011
	c-7.795-0.563-15.138-2.866-22.484-5.409c-7.699-2.665-15.11-5.961-22.438-9.431c-9.37-4.437-18.465-9.434-27.436-14.642
	c-1.111-0.645-2.21-1.324-3.479-1.639c-0.66-0.404-1.445,0.017-2.116-0.319c-3.132-0.305-6.264-0.213-9.396,0.002
	c-1.111,0.368-2.298-0.117-3.404,0.302c-0.634,0.034-1.268,0.068-1.902,0.103c-0.719,0.304-1.524-0.024-2.24,0.304
	c-10.517,1.085-20.884,2.82-30.317,7.946c-3.75,2.038-6.796,5.092-9.971,7.908c-13.722,12.169-27.979,23.607-44.1,32.511
	c-1.047,0.578-1.082,0.985-0.554,1.954c5.495,10.075,11.804,19.629,18.454,28.965c2.845,3.994,5.736,7.955,8.631,11.913
	c1.354,1.851,1.79,3.674,0.443,5.779c-0.62,0.969-1.236,1.394-2.401,1.384c-5.774-0.045-11.548-0.005-17.322,0.005
	c-1.403-0.434-2.869,0.058-4.277-0.295c-1.045-0.039-2.089-0.078-3.134-0.117c-0.966-0.405-2.016,0.044-2.988-0.297
	c-0.644-0.036-1.288-0.071-1.933-0.107c-0.816-0.404-1.735,0.038-2.558-0.309c-0.501-0.035-1.002-0.07-1.503-0.104
	c-0.687-0.36-1.478,0.017-2.17-0.307c-5.583-0.487-11.137-1.353-16.564-2.625c-6.459-1.514-12.902-3.158-19.165-5.509
	c-4.65-1.746-9.271-3.537-13.711-5.723c-6.38-3.141-12.322-7.027-17.91-11.439c-1,0.338-2.077-0.089-3.072,0.306
	c-1.017,0.035-2.034,0.071-3.051,0.106c-1.544,0.372-3.145-0.144-4.685,0.3c-3.998,0.012-7.996,0.039-11.994,0.028
	c-1.165-0.003-2.009,0.723-2.904,1.243c-7.403,4.307-15.38,7.024-23.676,9.022c-4.591,1.106-9.24,1.728-13.88,2.471
	c-0.682,0.302-1.461-0.083-2.133,0.3c-0.65,0.036-1.299,0.072-1.949,0.108c-0.858,0.302-1.791-0.071-2.642,0.293
	c-1.589,0.049-3.326-0.55-4.395,1.399c-0.311,0.567-3.478-1.173-3.514-1.961c-0.047-1.013-0.033-2.029-0.045-3.043
	c0.696-0.565,1.626,0.107,2.326-0.439c2.134-3.779,4.275-7.555,6.395-11.342c0.276-0.493,0.914-0.968,0.558-1.579
	c-0.254-0.434-0.883-0.099-1.318-0.172c-2.879-0.484-5.744-1.054-8.617-1.572c-3.296-0.594-6.591-1.199-9.897-1.735
	c-2.801-0.453-5.486-1.491-8.351-1.621c-0.196-0.009-0.533-0.329-0.526-0.492c0.009-0.204,0.273-0.446,0.485-0.584
	c0.738-0.481,1.656-0.717,2.162-1.578c-4.298-1.182-8.518-2.345-12.647-3.87c-5.245-1.937-10.43-4.013-15.351-6.646
	c-8.121-4.345-15.813-9.344-23.024-15.125c-6.171-4.947-11.833-10.403-17.198-16.163c-5.626-6.04-10.592-12.636-15.309-19.412
	c-4.335-6.227-8.177-12.764-11.847-19.386c-2.68-4.835-4.941-9.906-7.329-14.9C79.136,495.205,78.095,492.679,76.992,490.183z"/>
<path fill="#D3CC00" d="M252.058,328.438c0.733,1.97,0.062,3.139-2.264,3.687c-3.004,0.707-6.075,0.567-9.122,0.445
	c-3.727-0.149-7.451-0.409-11.174-0.666c-3.569-0.246-6.655-1.769-9.553-3.747c-5.394-3.68-10.116-8.208-15.338-12.108
	c-6.098-4.554-12.61-8.261-20.159-9.78c-7.898-1.589-15.652-0.757-23.285,1.639c-0.835,0.262-1.686,0.471-2.53,0.705
	c-0.319-0.077-0.354-0.343-0.402-0.601c-0.857-1.372,0.193-1.525,1.127-1.845c6.593-2.258,13.369-3.189,20.324-2.87
	c0.674,0.376,1.458-0.014,2.139,0.309c10.677,1.824,19.394,7.424,27.451,14.28c0.819,0.697,1.2,0.965,2.081-0.147
	c4.494-5.669,10.313-9.07,17.574-10.043c7.367-0.987,13.01,1.725,17.401,7.512c1.583,2.087,2.718,4.491,4.555,6.396
	c0.47,0.233,0.888,0.518,1.054,1.056c0.102,0.637,0.175,1.265-0.622,1.539c-1.288-0.383-1.87-1.504-2.554-2.496
	c-1.577-2.287-3.053-4.64-4.807-6.808c-3.173-3.921-7.398-5.543-12.282-5.803c-7.307,0.583-13.473,3.401-18.241,9.111
	c-0.94,1.126-0.806,1.739,0.271,2.61c2.275,1.841,4.583,3.624,7.085,5.153c3.301,2.264,6.993,3.088,10.943,3.271
	c3.719,0.171,7.432,0.37,11.158,0.409C246.024,329.678,249.087,329.485,252.058,328.438z"/>
<path fill="#D2CB01" d="M251.315,324.072c0.472-0.529,0.276-1.148,0.234-1.746c-0.226-1.044-0.172-2.088,0.003-3.131
	c0.768-3.369,3.245-5.475,5.919-7.114c5.249-3.219,10.974-5.175,17.248-5.156c1.713,0.005,3.359,0.334,4.952,0.884
	c2.54,0.876,4.266,2.507,4.535,5.343c-2.326-3.319-5.791-4.105-9.489-3.978c-7.337,0.251-13.906,2.685-19.507,7.502
	c-1.01,0.869-2.006,1.821-2.406,3.185c-0.988,1.321,0.048,2.882-0.504,4.256c-0.133,0.332-0.042,0.907-0.66,0.74
	C251.303,324.765,251.122,324.46,251.315,324.072z"/>
<path fill="#0D0D0D" d="M173.837,341.06c-0.468-1.035-0.936-2.071-1.404-3.106c-0.772-0.85-0.813-1.76-0.227-2.725
	c0.602-1.016,1.44-1.731,2.63-1.156c1.52,0.734,1.941,2.101,1.651,3.715c-0.355,1.144-1.04,2.118-1.663,3.119
	C174.609,341.252,174.277,341.751,173.837,341.06z"/>
<path fill="#DCDCDC" d="M169.268,332.07c0.323-0.055,0.771,0.008,0.949-0.183c2.035-2.168,4.644-2.128,7.341-2.2
	c2.88-0.076,4.576,1.223,5.578,3.747c-1.084,0.327-1.547-0.58-2.143-1.135c-2.69-2.51-7.133-2.206-9.427,0.704
	c-0.458,0.581-0.929,1.148-1.421,1.7c-0.178,0.121-0.353,0.114-0.523-0.017C168.854,333.902,169.261,332.959,169.268,332.07z"/>
<path fill="#A9A9A9" d="M173.837,341.06c1.39-0.591,1.218-2.301,2.254-3.146c0.628,0.568,0.395,1.216,0.184,1.871
	c-0.919,2.852-0.656,3.443,2.073,4.656c0.251,0.112,0.485,0.235,0.65,0.462c-0.539,0.966-1.971,0.114-2.449,1.204
	c-1.126-0.211-1.384-1.126-1.65-2.034l0.001,0.001c-0.955-0.419-0.346-1.451-0.809-2.063
	C174.017,341.691,173.564,341.472,173.837,341.06z"/>
<path fill="#DCDCDC" d="M172.506,335.531c-0.415,0.796-0.456,1.603-0.072,2.423c-0.585-0.338-1.294-0.506-1.625-1.191
	c-0.081-0.797-0.582-1.498-0.53-2.328C171.644,333.537,172.034,334.615,172.506,335.531z"/>
<path fill="#5B5A5B" d="M177.849,349.333c0.994-0.085,0.508-1.375,1.315-1.612c0.921,0.16,0.513,0.904,0.564,1.395
	c0.09,0.865,0.191,1.71,0.633,2.479c0.045,0.434-0.187,0.749-0.449,1.051c-0.471,0.217-0.726-0.001-0.873-0.436
	c-0.048-0.263-0.097-0.526-0.145-0.789c-0.64-0.313-0.341-1.081-0.734-1.513C178.056,349.716,177.953,349.525,177.849,349.333z"/>
<path fill="#FEFEFE" d="M293.73,338.129c-0.648,0.643-1.296,1.286-1.943,1.929c-1.089-0.865,0.072-1.225,0.447-1.644
	C292.581,338.026,293.024,337.055,293.73,338.129z"/>
<path fill="#FCFCFC" d="M285.086,322.444c-0.005-2.042-0.01-4.083-0.015-6.125c0.868,0.993,0.219,2.199,0.462,3.279
	c0.335,0.535,0.333,1.071,0.004,1.607C285.485,321.654,285.572,322.154,285.086,322.444z"/>
<path fill="#FCFCFC" d="M280.616,342.033c0.203-1.322,0.603-2.583,1.169-3.792C281.866,339.65,281.885,341.04,280.616,342.033z"/>
<path fill="#FCFCFC" d="M535.686,562.904c1.629-0.004,3.258-0.007,4.887-0.011C538.946,563.457,537.316,563.435,535.686,562.904z"/>
<path fill="#FCFCFC" d="M284.619,326.093c-0.01-1.129-0.02-2.258,0.435-3.326C285.717,323.982,285.328,325.058,284.619,326.093z"/>
<path fill="#FEFEFE" d="M179.039,352.211c0.249,0.152,0.498,0.304,0.746,0.456c0.31,0.172,0.133,0.605,0.422,0.788
	c-0.017,0.138-0.035,0.276-0.052,0.414C179.114,353.767,177.986,353.723,179.039,352.211z"/>
<path fill="#FCFCFC" d="M266.934,604.421c1.544-0.381,3.115-0.334,4.685-0.3C270.095,604.813,268.496,604.338,266.934,604.421z"/>
<path fill="#FEFEFE" d="M416.46,494.414c-0.508-1.46-0.306-2.919,0.008-4.378C416.466,491.495,416.463,492.954,416.46,494.414z"/>
<path fill="#FCFCFC" d="M359.376,630.247c1.433-0.015,2.871-0.104,4.276,0.295C362.228,630.446,360.761,630.943,359.376,630.247z"/>
<path fill="#FCFCFC" d="M174.899,344.073c0.527,0.697,0.809,1.593,1.65,2.034c0.108,0.091,0.139,0.203,0.093,0.337
	C175.262,346.241,174.83,345.341,174.899,344.073z"/>
<path fill="#FCFCFC" d="M165.1,323.378c0.679,0.797,1.18,1.678,1.282,2.745C165.581,325.383,165.159,324.465,165.1,323.378z"/>
<path fill="#FCFCFC" d="M163.468,320.116c0.656,0.806,1.211,1.66,1.276,2.741C163.952,322.114,163.525,321.2,163.468,320.116z"/>
<path fill="#C7C7C7" d="M170.403,334.731c0.279,0.649,0.909,1.227,0.405,2.032c-0.94-0.381-0.427-1.593-1.186-2.078
	c0.136,0,0.271-0.007,0.406-0.023C170.192,334.476,170.315,334.509,170.403,334.731z"/>
<path fill="#FCFCFC" d="M251.552,319.195c-0.001,1.044-0.002,2.087-0.003,3.131c-0.221-0.24-0.443-0.481-0.664-0.721
	C251.607,320.939,250.824,319.858,251.552,319.195z"/>
<path fill="#FCFCFC" d="M158.978,311.144c0.67,0.633,0.946,1.469,1.196,2.318C159.307,312.931,159.012,312.105,158.978,311.144z"/>
<path fill="#FCFCFC" d="M444.933,531.77c1.107-0.416,2.257-0.342,3.404-0.302C447.255,532.154,446.071,531.702,444.933,531.77z"/>
<path fill="#FCFCFC" d="M377.06,305.751c-0.973,0.348-1.981,0.332-2.991,0.289C375.014,305.402,376.059,305.806,377.06,305.751z"/>
<path fill="#FCFCFC" d="M549.035,453.007c0.934-0.52,1.986-0.179,2.96-0.407C551.105,453.443,550.027,452.913,549.035,453.007z"/>
<path fill="#FCFCFC" d="M274.669,604.015c0.992-0.426,2.034-0.347,3.072-0.306C276.774,604.377,275.695,603.933,274.669,604.015z"/>
<path fill="#FCFCFC" d="M353.254,629.833c1.011-0.05,2.019-0.075,2.988,0.297C355.242,630.071,354.195,630.484,353.254,629.833z"/>
<path fill="#FCFCFC" d="M174.091,342.01c0.27,0.688,0.54,1.375,0.809,2.063C173.577,343.799,174.255,342.74,174.091,342.01z"/>
<path fill="#FCFCFC" d="M281.414,344.015c-1.76,0.158-1.404-0.74-0.863-1.73C280.483,343.039,280.826,343.588,281.414,344.015z"/>
<path fill="#FCFCFC" d="M167.141,327.474c0.577,0.508,0.872,1.145,0.877,1.914C167.34,328.927,167.143,328.245,167.141,327.474z"/>
<path fill="#FEFEFE" d="M285.538,321.206c-0.001-0.536-0.003-1.072-0.004-1.607C286.467,320.132,286.473,320.668,285.538,321.206z"
	/>
<path fill="#FCFCFC" d="M202.128,613.843c-0.678,0.662-1.577,0.154-2.326,0.439C200.456,613.492,201.351,613.978,202.128,613.843z"
	/>
<path fill="#FCFCFC" d="M207.757,617.887c0.85-0.371,1.745-0.34,2.642-0.293C209.576,618.215,208.643,617.834,207.757,617.887z"/>
<path fill="#FCFCFC" d="M348.764,629.417c0.871-0.049,1.736-0.051,2.557,0.309C350.463,629.675,349.552,630.049,348.764,629.417z"/>
<path fill="#FCFCFC" d="M549.611,556.295c0.008-0.676,0.015-1.353,0.023-2.029C550.126,554.947,550.145,555.624,549.611,556.295z"/>
<path fill="#FEFEFE" d="M435.78,508.58c-0.748,0.457-1.498,0.419-2.249,0.008C434.281,508.586,435.03,508.583,435.78,508.58z"/>
<path fill="#FCFCFC" d="M181.823,303.607c-0.732,0.034-1.463,0.057-2.139-0.309C180.406,303.335,181.181,303.012,181.823,303.607z"
	/>
<path fill="#FCFCFC" d="M371.758,306.161c-0.693,0.348-1.432,0.347-2.178,0.291C370.242,305.879,371.021,306.181,371.758,306.161z"
	/>
<path fill="#FCFCFC" d="M158.233,308.013c0.134,0.2,0.268,0.401,0.402,0.601c-0.143,0.394-0.286,0.789-0.429,1.183
	C157.349,309.189,158.056,308.605,158.233,308.013z"/>
<path fill="#FCFCFC" d="M382.364,309.795c0.51-0.67,1.291-0.169,1.894-0.44C383.759,310.075,383.006,309.697,382.364,309.795z"/>
<path fill="#FEFEFE" d="M525.471,430.522c-0.762,0.047-1.517,0.036-2.231-0.295C523.99,430.272,524.791,429.939,525.471,430.522z"/>
<path fill="#FCFCFC" d="M178.16,349.908c0.465,0.398,0.599,0.956,0.734,1.513C177.923,351.27,178.227,350.499,178.16,349.908z"/>
<path fill="#FCFCFC" d="M162.243,317.675c0.52,0.365,0.692,0.914,0.794,1.501C162.371,318.888,162.202,318.338,162.243,317.675z"/>
<path fill="#FEFEFE" d="M519.59,430.217c-0.718,0.387-1.495,0.342-2.27,0.313C518.008,429.928,518.829,430.287,519.59,430.217z"/>
<path fill="#FCFCFC" d="M176.622,346.418c0.47,0.487,0.862,1.007,0.77,1.742C176.799,347.728,176.534,347.151,176.622,346.418z"/>
<path fill="#FCFCFC" d="M160.612,314.379c0.523,0.377,0.683,0.943,0.798,1.533C160.726,315.618,160.57,315.05,160.612,314.379z"/>
<path fill="#FCFCFC" d="M457.733,531.466c0.732-0.073,1.453-0.066,2.116,0.319C459.134,531.745,458.366,532.053,457.733,531.466z"/>
<path fill="#FCFCFC" d="M212.348,617.486c0.678-0.335,1.4-0.353,2.133-0.3C213.836,617.755,213.068,617.455,212.348,617.486z"/>
<path fill="#FCFCFC" d="M440.791,532.177c0.706-0.399,1.473-0.357,2.24-0.304C442.353,532.476,441.547,532.143,440.791,532.177z"/>
<path fill="#FCFCFC" d="M345.091,629.005c0.745-0.051,1.483-0.05,2.17,0.307C346.527,629.288,345.744,629.601,345.091,629.005z"/>
<path fill="#FCFCFC" d="M284.253,328.16c-0.037-0.733-0.018-1.455,0.382-2.109C284.612,326.773,284.967,327.563,284.253,328.16z"/>
<path fill="#FCFCFC" d="M424.641,455.988c-0.337-0.74-1.258-0.337-1.702-0.868C423.629,455.168,424.559,454.747,424.641,455.988z"/>
<path fill="#FEFEFE" d="M416.572,488.137c-0.051-0.739-0.071-1.473,0.308-2.15C416.84,486.713,417.16,487.49,416.572,488.137z"/>
<path fill="#68778E" d="M371.594,428.93c0.85,1.426,1.473,2.953,2.003,4.521c-0.764,0.667-1.564,0.197-2.32,0.023
	c-1.854-0.426-3.705-0.87-5.536-1.391c-1.808-0.514-3.617-1.02-5.464-1.494c4.002,5.664,9.243,9.671,15.678,12.121
	c0.892,0.34,1.804,0.611,2.467,1.355c5.052,10.465,10.192,20.887,16.658,30.576c8.497,12.731,18.387,24.301,30.082,34.174
	c7.524,6.352,12.684,5.444,19.576-1.646c10.954-11.268,19.889-24.059,28.843-36.871c4.086-5.846,8.503-11.457,13.585-16.5
	c1.027-0.448,1.676,0.331,2.365,0.801c5.332,3.637,11.246,5.964,17.338,7.961c2.725,0.893,5.291,0.845,7.931-0.171
	c1.253-0.482,2.53-1.01,3.937-0.832c-5.903-0.767-10.89-3.687-15.745-6.854c-2.728-1.78-5.269-3.835-7.809-5.877
	c-0.532-0.427-1.075-0.845-1.2-1.581c8.403-7.529,17.604-13.449,29.471-12.574c9.912,0.73,17.558,5.553,22.66,14.167
	c-0.214,0.694-0.8,0.507-1.209,0.627c-10.805,3.19-17.049,10.838-20.667,21.076c-5.116,14.478-4.773,29.015-0.677,43.653
	c2.291,8.186,4.752,16.288,8.821,23.806c2.216,4.096,4.91,7.815,8.423,10.915c1.273,1.123,2.472,2.335,3.456,3.734
	c1.829,2.6,0.934,5.011-2.204,5.704c-4.566,1.008-9.056,0.161-13.51-0.806c-7.98-1.734-15.648-4.418-23.093-7.754
	c0.617-2.03,1.887-3.882,1.323-6.21c-0.781-3.223-3.476-5.861-6.651-6.29c-2.838-0.384-6.016,1.343-7.584,4.082
	c-0.388,0.678-0.467,1.597-1.377,1.903c-0.867-0.289-1.721-0.604-2.429-1.212c-1.434-1.506-3.096-2.551-5.254-2.588
	c-5.48-2.98-11.144-5.673-16.382-9.03c-4.267-2.735-8.787-3.461-13.569-3.376c-10.408,0.186-20.651,1.622-30.815,3.937
	c-10.808,2.461-19.314,8.546-27.249,15.883c-6.88,6.361-14.186,12.239-21.792,17.728c-0.382,0.275-0.8,0.5-1.201,0.749
	c-0.893,0.209-1.585-0.306-2.281-0.693c-8.085-4.495-15.28-10.12-21.46-17.014c-0.502-0.56-1.048-1.058-1.588-1.57
	c-0.024-0.063-0.028-0.152-0.074-0.187c-3.669-2.77-3.352-2.927-4.717,1.262c-1.542,4.733-0.622,9.515,0.455,14.234
	c0.105,0.459,0.173,0.927,0.258,1.39c0.521,3.467-0.392,6.843-0.768,10.236c-0.712,6.417-0.037,12.673,1.515,18.883
	c0.195,0.781,0.535,1.542,0.362,2.378c-0.066,0.23-0.194,0.421-0.377,0.573c-2.99,0.989-6.118,1.007-9.208,1.165
	c-2.351,0.12-4.725,0.165-6.527-0.047c5.265,1.725,11.317,2.276,17.313,3.133c0.209,0.058,0.402,0.153,0.582,0.274
	c0.903,0.971,1.159,2.275,1.707,3.425c3.476,7.282,7.537,14.212,12.287,20.737c0.119,0.164,0.248,0.322,0.357,0.493
	c0.388,0.613,1.144,1.285,0.638,1.969c-0.453,0.612-1.357,0.299-2.074,0.127c-25.295-1.367-49.543-6.442-71.215-20.396
	c-8.486-5.464-15.834-12.173-21.247-20.806c-0.711-1.134-2.088-2.408,0.186-3.497c0.298-0.143,0.366-0.847,0.467-1.307
	c4.411-20.035,10.352-39.654,16.116-59.321c2.194-7.486,4.916-14.827,6.378-22.515c2.786-14.652,0.873-28.8-4.801-42.496
	c-4.578-11.052-11.169-20.802-19.374-29.478c-1.977-2.09-1.998-2.075-4.471-0.394c-3.954,2.686-7.226,6.185-10.929,9.169
	c-10.646,8.582-23.006,13.497-36.129,16.72c-13.384,3.287-27.007,4.627-40.762,5.001c-18.933,0.514-37.742-0.866-56.502-3.279
	c-11.652-1.499-23.248-3.337-34.734-5.794c-4.28-0.916-7.95-3.402-11.832-5.317c4.49-1.553,9.164-2.452,13.683-3.921
	c17.622-5.729,34.049-13.937,49.728-23.73c17.618-11.005,34.024-23.651,49.942-36.948c3.489-2.915,6.971-5.849,10.313-8.94
	c1.205-1.114,2.576-1.956,4.16-2.498c1.666-0.569,3.34-1.163,4.843-2.131c6.213-1.492,12.531-2.435,18.81-3.564
	c17.115-3.075,34.207-6.273,51.339-9.254c1.649-0.287,3.002-0.793,3.55-2.562c0.159-0.512,0.5-0.968,1.063-1.166
	c18.553,2.451,36.26,7.512,52.458,17.148c8.178,4.865,15.582,10.661,21.403,18.298c2.611,3.425,4.689,7.14,6.266,11.15
	c3.153,8.015,6.345,16.015,9.521,24.022c-0.844,0.614-1.717,0.168-2.538-0.003c-5.901-1.231-11.74-2.719-17.76-4.582
	c1.162,2.321,2.888,3.875,4.583,5.415c5.146,4.676,11.242,7.47,18.022,8.829C370.223,428.153,371.015,428.271,371.594,428.93z"/>
<path fill="#8AABB0" d="M99.072,455c7.535,1.038,15.058,2.181,22.609,3.095c19.199,2.322,38.456,3.375,57.798,2.431
	c14.231-0.694,28.272-2.545,41.952-6.662c13.314-4.007,25.486-10.079,35.65-19.782c1.472-1.405,3.124-2.621,4.664-3.958
	c0.734-0.638,1.252-0.708,1.978,0.113c15.254,17.235,24.562,36.73,22.968,60.362c-0.512,7.589-2.895,14.757-5.077,21.973
	c-6.482,21.437-12.876,42.899-17.998,64.717c-0.531,2.261-1.436,4.639-1.676,6.758c-0.382,3.367-1.278,6.8-0.821,10.27
	c0.199,1.505,1.027,2.662,2.096,3.63c0.621,0.562,1.013,1.315,0.83,1.947c-0.23,0.794-1.184,0.371-1.8,0.382
	c-23.408,0.421-46.533-2.19-69.491-6.549c-0.436-0.083-0.859-0.237-1.548-0.431c6.234-4.215,12.17-8.394,17.894-12.863
	c16.914-13.204,32.391-27.829,44.581-45.632c8.133-11.878,14.268-24.648,16.844-38.963c3.16-17.564,0.068-34.031-8.424-49.605
	c-0.458-0.84-1.015-1.031-1.932-1.091c-2.787-0.182-4.795,1.21-6.671,2.977c-5.602,5.278-11.444,10.236-18.106,14.173
	c-11.419,6.749-23.806,10.494-36.914,11.976c-24.09,2.722-47.377-1.505-70.346-8.31c-10.028-2.971-19.856-6.519-29.52-10.519
	C98.542,455.057,98.631,454.844,99.072,455z"/>
<path fill="#F0F0F0" d="M190.845,588.563c-3.019-0.256-5.95-1.057-8.869-1.847c-23.72-6.419-43.534-19.274-60.389-36.906
	c-16.83-17.607-28.96-38.234-38.454-60.509c-5.829-13.675-10.298-27.804-14.004-42.556c2.742,1.307,5.202,2.497,7.676,3.656
	c16.47,7.718,33.296,14.522,50.742,19.729c0.877,0.262,1.559,0.407,1.66,1.62c0.972,11.616,4.407,22.603,8.787,33.319
	c9.808,23.997,23.606,45.634,39.357,66.09c4.228,5.491,8.699,10.795,13.053,16.189C190.65,587.655,191.006,587.928,190.845,588.563z
	"/>
<path fill="#F0F0F0" d="M135.122,472.466c3.276,0.077,5.242,1.676,7.071,4.178c15.654,21.413,33.027,41.289,53.321,58.474
	c9.98,8.451,20.54,16.057,32.61,21.32c1.242,0.542,1.161,0.882,0.29,1.751c-2.666,2.658-2.609,2.68-4.186-0.635
	c-0.329-0.69-0.535-1.971-1.349-1.791c-0.978,0.216-1.818,1.124-2.678,1.783c-0.356,0.273-0.014,0.611,0.111,0.894
	c0.191,0.433,0.447,0.839,0.622,1.278c1.471,3.671,1.276,4.361-1.668,6.936c-7.064,6.178-14.413,11.994-22.047,17.452
	c-0.757,0.541-1.207,0.99-2.084-0.058c-13.535-16.171-26.194-32.966-36.845-51.209c-8.711-14.92-16.273-30.349-20.736-47.135
	C136.403,481.381,135.497,477.004,135.122,472.466z"/>
<path fill="#69788E" d="M291.738,345.869c23.387-25.085,53.309-33.596,86.178-36.199c-1.342,2.842-2.525,5.337-3.7,7.837
	c-8.031,17.088-15.612,34.357-21.068,52.479c-0.508,1.689-1.08,3.367-1.44,5.089c-0.32,1.529-0.77,1.229-1.589,0.368
	c-4.712-4.95-10.05-9.126-15.829-12.759c-12.377-7.781-25.842-12.862-40.024-16.172
	C293.559,346.345,292.858,346.154,291.738,345.869z"/>
<path fill="#F0F0F0" d="M150.446,475.87c7.563,1.291,15.131,2.506,22.804,2.992c7.066,0.448,14.125,0.584,21.177-0.077
	c1.572-0.147,2.327,0.205,2.958,1.801c6.377,16.119,14.778,31.226,23.395,46.214c4.428,7.701,9.028,15.304,13.53,22.963
	c0.37,0.63,1.123,1.185,0.294,2.13c-0.783,0.892-1.439,0.4-2.152,0.109c-10.855-4.428-20.423-10.96-29.471-18.278
	c-20.579-16.644-38.021-36.249-53.831-57.378C149.264,475.321,149.914,475.757,150.446,475.87z"/>
<path fill="#F0F0F0" d="M204.876,477.58c12.36-2.175,23.784-6.182,34.432-12.796c1.022,13.311,3.766,26.077,7.027,38.746
	c1.959,7.613,4.227,15.137,6.549,22.645c0.41,1.326-0.495,3.966-1.534,4.675c-0.659,0.45-1.038-0.115-1.438-0.36
	c-3.376-2.064-6.397-4.586-9.239-7.327c-10.419-10.049-18.953-21.646-27.333-33.364C210.506,485.838,207.788,481.792,204.876,477.58
	z"/>
<path fill="#818EA1" d="M202.648,364.845c-0.427,0.617-1.171,0.728-1.775,0.887c-4.005,1.055-7.058,3.585-10.023,6.274
	c-6.567,5.955-13.463,11.522-20.392,17.039c-10.911,8.689-22.195,16.879-33.944,24.405c-12.183,7.804-24.854,14.688-38.258,20.199
	c-8.472,3.483-17.092,6.469-26.023,8.537c-0.745,0.172-1.466,0.217-2.208,0.241c-0.262-0.805,0.47-0.667,0.814-0.786
	c29.95-10.371,55.687-27.627,78.996-48.71c10.5-9.497,21.133-18.741,33.438-25.86c1.204-0.696,2.271-1.774,3.824-1.725
	c1.102,1.105,2.378,1.271,3.882,0.946c3.1-0.669,6.229-1.207,9.362-1.712C201.128,364.452,201.945,364.195,202.648,364.845z"/>
<path fill="#F0F0F0" d="M257.164,520.415c-5.571-18.927-10.911-37.896-12.232-58.265c2.007,1.779,3.609,3.199,5.212,4.618
	c5.239,4.635,10.611,9.107,16.349,13.116c0.796,0.556,1.185,1.122,1.192,2.129c0.102,13.689-3.72,26.334-10.115,38.302
	C257.554,520.349,257.468,520.344,257.164,520.415z"/>
<path d="M251.315,324.072c0.228,0.256,0.526,1.214,0.634-0.033c0.124-1.43-0.292-2.961,0.856-4.179
	c0.28,2.905-0.181,5.746-0.746,8.578c-1.404,1.187-3.059,1.683-4.863,1.758c-6.446,0.267-12.874-0.042-19.279-0.751
	c-2.882-0.319-5.439-1.525-7.722-3.308c-1.049-2.108-0.514-4.191,0.497-6.03c2.022-3.678,4.189-7.276,7.746-9.796
	c1.009-0.715,1.944-1.437,3.176-1.667c5.656,0.057,10.142,2.368,13.541,6.899C247.261,318.35,248.824,321.546,251.315,324.072z"/>
<path fill="#586578" d="M358.873,626.138c0.599-0.049,1.198-0.097,2.135-0.173c-1.12-1.59-2.135-2.982-3.1-4.409
	c-4.695-6.943-9.061-14.069-12.018-21.964c0.431-0.525,1.048-0.62,1.652-0.608c3.856,0.073,7.678-0.297,11.488-0.839
	c0.543-0.077,1.076,0.026,1.593,0.201c3.234,4.769,6.468,9.539,9.703,14.308c1.237,3.759,2.316,7.566,3.413,11.367
	c0.24,0.831,0.609,1.679-0.085,2.484C368.723,626.526,363.786,626.802,358.873,626.138z"/>
<path fill="#363D49" d="M347.145,546.091c0.625-0.414,0.979-0.016,1.348,0.425c6.669,7.969,14.872,13.988,23.982,18.853
	c-5.648,4.35-11.762,7.973-17.921,11.53c-1.077,0.622-1.499,0.289-1.95-0.717c-2.993-6.681-5.963-13.37-6.898-20.728
	C345.293,552.211,345.185,548.984,347.145,546.091z"/>
<path fill="#F0F0F0" d="M213.218,499.584c5.042,6.579,9.979,13.241,15.514,19.428c5.451,6.094,11.097,11.971,18.092,16.35
	c0.722,0.452,0.949,0.744,0.347,1.525c-2.525,3.277-5.037,6.561-7.961,9.777c-2.982-5.005-5.914-9.861-8.781-14.754
	c-5.831-9.95-11.578-19.949-16.856-30.208c-0.277-0.538-0.512-1.098-0.766-1.647C212.598,499.595,212.849,499.538,213.218,499.584z"
	/>
<path fill="#D3CC00" d="M202.648,364.845c-4.21,0.706-8.446,1.29-12.618,2.175c-1.743,0.37-2.522-0.118-2.932-1.675
	c6.224-1.326,12.439-2.697,18.675-3.97c23.327-4.76,46.659-9.492,69.997-14.199c0.544-0.11,1.596-1.07,1.688,0.537
	c-0.547,3.177-2.654,4.062-5.636,4.567c-14.764,2.501-29.488,5.242-44.225,7.902c-7.935,1.432-15.869,2.87-23.802,4.315
	C203.404,364.568,203.03,364.727,202.648,364.845z"/>
<path fill="#69778E" d="M418.65,460.698c-2.854,9.772-5.504,19.25-6.305,29.46c-3.901-4.239-7.248-8.473-10.415-12.852
	c-1.272-1.758-2.466-3.573-3.689-5.366c-0.391-0.574-0.763-1.103,0.044-1.719C404.29,465.636,411.054,462.717,418.65,460.698z"/>
<path fill="#3F4754" d="M206.872,613.915c2.067-3.773,4.01-7.185,5.81-10.671c0.748-1.449,1.739-1.871,3.271-1.63
	c3.747,0.591,7.523,0.934,11.3,1.299c5.602,0.541,11.198,1.098,16.831,1.171c0.585,0.008,1.171,0.001,1.79,0.212
	C233.721,610.468,220.637,612.797,206.872,613.915z"/>
<path fill="#586577" d="M343.844,594.564c-0.825-3.74-1.765-7.435-2.172-11.283c-0.46-4.351-0.157-8.619,0.302-12.907
	c0.272-2.538,0.722-5.057,1.092-7.584c3.188,10.265,8.245,19.659,13.487,28.967c-0.152,0.321-0.4,0.573-0.722,0.684
	c-3.607,1.237-7.312,2.05-11.097,2.496C344.392,594.977,344.064,594.873,343.844,594.564z"/>
<path fill="#A0405D" d="M493.984,447.246c4.392,3.396,8.658,6.971,13.545,9.672c3.736,2.065,7.617,3.756,12.435,4.423
	c-3.254,0.983-5.933,1.938-8.686,2.57c-1.597,0.367-3.176-0.491-4.715-0.948c-6.406-1.901-12.473-4.554-17.992-8.375
	c-0.439-0.304-0.935-0.527-1.404-0.788C489.255,451.422,491.424,449.13,493.984,447.246z"/>
<path fill="#F0F0F0" d="M266.99,473.098c-6.417-4.82-11.986-9.654-17.461-14.603c-0.513-0.464-0.574-0.756-0.006-1.251
	c2.709-2.362,5.363-4.787,8.085-7.133c0.451-0.389,1.112-1.354,1.751-0.133C263.084,457.098,265.723,464.577,266.99,473.098z"/>
<path fill="#A0405D" d="M371.594,428.93c-6.307-1.024-12.224-3.041-17.432-6.859c-3.303-2.422-6.231-5.203-8.793-9.239
	c7.523,2.185,14.568,4.104,21.735,5.5C368.759,421.797,370.276,425.322,371.594,428.93z"/>
<path fill="#A6AFBC" d="M491.166,543.278c1.07-3.226,2.994-5.524,6.475-6.353c3.113-0.741,6.89,0.882,8.678,3.906
	c1.669,2.822,1.545,6.754-0.863,8.962C500.551,547.932,495.809,545.713,491.166,543.278z"/>
<path fill="#A0405D" d="M378.423,444.066c-8.083-2.358-14.444-7.068-19.662-14.461c5.333,1.348,9.999,2.958,14.837,3.847
	C375.206,436.989,376.814,440.528,378.423,444.066z"/>
<path fill="#FCFCFC" d="M170.403,334.731c-0.123-0.037-0.248-0.06-0.376-0.069c0.811-2.187,2.738-4.069,5.79-4.533
	c3.375-0.513,5.205,1.505,7.319,3.305c0.952,1.584,0.633,3.079-0.34,4.513c-0.415,0.612-0.837,1.228-1.324,1.782
	c-1.316,1.496-3.299,2.657-2.475,5.173c-3.365-0.165-4.627-2.251-3.129-5.249c0.295-0.59,0.402-1.126,0.222-1.739
	c0.013-0.526,0.097-1.062,0.023-1.576c-0.155-1.081-0.832-1.822-1.857-2.101c-1.023-0.278-1.247,0.746-1.751,1.294
	C171.686,335.576,171.569,333.776,170.403,334.731z"/>
<path fill="#99334F" d="M343.844,594.564c4.315-0.58,8.533-1.6,12.71-2.806c1.356,2.195,2.712,4.391,4.068,6.587
	c-4.104,1.015-8.281,1.273-12.49,1.219c-0.747-0.01-1.495,0.017-2.242,0.027c0,0,0.006-0.093,0.006-0.093
	c-1.613-1.217-2.143-2.89-2.034-4.832L343.844,594.564z"/>
<path fill="#68778E" d="M373.653,626.504c-0.348-3.296-1.854-6.287-2.499-9.498c-0.29-1.446-1.367-2.752-0.829-4.353
	c3.27,4.49,6.541,8.979,9.994,13.72C377.895,626.676,375.776,626.629,373.653,626.504z"/>
<path fill="#F2F2F2" d="M180.346,350.56c2.28,0.302,4.579,1.581,6.811-0.252c0.422-0.346,1.084-0.205,1.44,0.309
	c0.341,0.491,0.647,1.027,0.858,1.584c0.422,1.119,1.146,2.452-0.076,3.332c-1.157,0.833-1.869-0.468-2.667-1.128
	c-1.418-1.173-3.226-0.715-4.837-1.091C181.34,352.411,180.082,351.908,180.346,350.56z"/>
<path fill="#DBDBDB" d="M180.346,350.56c0.34,1.012,1.489,1.576,1.53,2.754c-0.694,0.302-0.946-0.266-1.289-0.655
	c-0.263-0.221-0.375-0.507-0.358-0.846c-0.851-1.235-1.037-2.643-1.066-4.093c2.074-1.353,3.647-3.257,5.426-4.935
	c0.55,0.075,0.88,0.391,1.012,0.924C184.113,346.195,181.758,348.016,180.346,350.56z"/>
<path fill="#67758C" d="M267.211,596.635c-0.325-0.593-0.566-1.258-0.992-1.767c-1.368-1.637-1.395-1.615-0.816-4.365
	c1.477,1.904,2.826,3.644,4.175,5.384C268.923,596.559,268.293,597.315,267.211,596.635z"/>
<path fill="#EAEAEA" d="M185.602,343.709c-0.337-0.308-0.674-0.616-1.012-0.924c0,0-0.003,0.006-0.003,0.006
	c1.105-0.903,0.739-2.071,0.579-3.202c0.031-1.199,0.33-1.733,1.433-0.65C188.802,341.102,188.64,341.923,185.602,343.709z"/>
<path fill="#647288" d="M271.661,597.879c0.631,0.497,1.269,0.987,1.869,2.124c-1.599,0-2.979-0.01-4.359,0.003
	c-1.198,0.011-1.206-0.832-1.234-1.671C269.06,597.223,270.323,597.242,271.661,597.879z"/>
<path fill="#363D49" d="M271.661,597.879c-1.241,0.152-2.483,0.304-3.724,0.456c-0.242-0.566-0.484-1.133-0.726-1.699
	c0.789-0.249,1.579-0.499,2.368-0.748C270.453,596.362,271.049,597.129,271.661,597.879z"/>
<path fill="#99A2B0" d="M483.484,539.479c2.255-0.65,4.301,0.358,5.254,2.588C486.882,541.416,485.187,540.439,483.484,539.479z"/>
<path fill="#DBDBDB" d="M185.167,339.588c0.444,1.183,0.926,2.372-0.579,3.202C185.078,341.777,185.194,340.696,185.167,339.588z"/>
<path fill="#A7A7A7" d="M150.446,475.87c-0.412,0.213-1.03-0.135-1.295,0.477c-0.316-0.139-0.666-0.517-0.445-0.693
	C149.278,475.197,149.891,475.548,150.446,475.87z"/>
<path fill="#CCCCCC" d="M213.218,499.584c-0.137,0.157-0.275,0.314-0.412,0.471c-0.463-0.445-0.77-0.955-0.787-1.685
	C212.782,498.537,213.003,499.058,213.218,499.584z"/>
<path fill="#647C80" d="M99.072,455c-0.153,0.146-0.306,0.291-0.46,0.437c-0.492-0.147-0.984-0.293-1.936-0.577
	C97.818,454.593,98.457,454.554,99.072,455z"/>
<path fill="#3C3C3C" d="M180.23,351.813c0.262,0.222,0.545,0.435,0.358,0.846c-0.127,0.265-0.254,0.53-0.38,0.795
	c-0.388-0.131-0.287-0.523-0.422-0.788C179.791,352.308,179.831,351.967,180.23,351.813z"/>
<path fill="#242424" d="M231.614,308.644c-4.799,2.858-8.11,7.059-10.642,11.926c-0.899,1.728-0.826,3.667-0.778,5.567
	c-2.908-1.507-5.226-3.813-7.819-5.746c-0.983-0.733-0.359-1.247,0.078-1.803c4.1-5.217,9.415-8.432,15.95-9.594
	C229.46,308.806,230.543,308.757,231.614,308.644z"/>
<path d="M208.03,413.044c-5.368-0.317-10.823-2.392-14.324-8.091c-0.531-0.864-0.952-0.98-1.724-0.414
	c-3.16,2.316-6.569,4.308-8.643,7.873c-1.151,1.979-2.306,0.031-3.387-0.377c-1.196-0.451-0.59-1.156-0.151-1.893
	c2.986-5.015,5.935-10.032,9.926-14.375c9.287-10.107,20.949-15.672,34.23-18.241c2.689-0.52,5.405-0.412,8.121-0.445
	c1.38-0.017,2.703-0.705,4.09,0.345c0.782,0.592,1.162,0.937,0.675,1.869c-1.658,3.174-3.282,6.365-4.921,9.549
	c-0.268,0.52-0.723,0.781-1.277,0.921c-0.591,0.15-1.178,0.323-1.759,0.508c-1.42,0.453-3.3,0.517-4.136,1.482
	c-1.03,1.189,0.779,2.521,1.142,3.873c1.39,5.182-0.678,10.59-5.538,14.024C217.283,411.823,213.178,413.053,208.03,413.044z"/>
<path d="M306.697,530.57c6.91-15.243,8.578-31.296,7.487-47.801c-1.097-16.6-5.031-32.56-10.653-48.152
	c-0.219-0.607-0.449-1.211-0.685-1.847c0.838-0.117,0.947,0.549,1.205,0.954c8.794,13.845,14.638,28.803,16.464,45.155
	c2.123,19.013-2.371,36.404-13.452,52.049C306.706,531.05,306.524,530.992,306.697,530.57z"/>
<path d="M319.772,522.827c5.838-13.223,7.455-27.111,6.685-41.416c-0.842-15.665-4.487-30.71-9.704-45.43
	c-0.036-0.101,0.009-0.231,0.017-0.358c0.648-0.263,0.831,0.291,1.052,0.656c8.484,13.992,13.913,28.992,14.563,45.466
	c0.598,15.16-3.57,28.984-12.242,41.442C319.783,523.311,319.601,523.252,319.772,522.827z"/>
<path d="M331.554,513.776c4.119-9.73,5.699-19.955,5.614-30.435c-0.085-10.439-1.755-20.684-4.491-30.757
	c-1.218-4.483-2.617-8.91-4.218-13.316c0.924-0.135,1.101,0.485,1.357,0.914c7.974,13.395,12.914,27.689,12.35,43.477
	c-0.403,11.272-3.905,21.574-10.512,30.771C331.444,514.239,331.411,514.021,331.554,513.776z"/>
<path fill="#3F5476" d="M300.601,405.061c0.017-4.335,3.688-7.914,8.132-7.926c4.222-0.011,8.271,4.075,8.178,8.253
	c-0.095,4.276-4.056,8.085-8.382,8.06C304.152,413.422,300.583,409.647,300.601,405.061z"/>
<path fill="#3F5476" d="M301.445,396.329c-4.823,0.008-8.178-3.235-8.195-7.919c-0.016-4.461,3.513-8.008,7.96-8.024
	c5.231-0.019,8.216,3.582,8.221,8.183C309.435,392.365,306.612,396.481,301.445,396.329z"/>
<path fill="#3F5476" d="M317.354,398.358c-3.356,0.007-6.057-2.651-6.13-6.03c-0.066-3.063,3.082-6.22,6.159-6.178
	c3.163,0.043,6.03,2.978,6.069,6.214C323.493,395.691,320.788,398.351,317.354,398.358z"/>
<path fill="#A23D5B" d="M343.863,594.666c0.677,1.612,1.074,3.341,2.034,4.833c-6.831-0.318-13.503-1.468-19.957-3.995
	c1.651,0,3.304-0.056,4.953,0.011C335.248,595.69,339.539,594.945,343.863,594.666z"/>
<path fill="#3F5476" d="M329.992,401.618c0.002,2.296-1.676,4.056-3.88,4.072c-2.131,0.016-4.242-2.1-4.157-4.168
	c0.084-2.063,2.09-3.981,4.152-3.972C328.303,397.561,329.99,399.328,329.992,401.618z"/>
<path fill="#A6AFBC" d="M486.54,536.722c-2.327,0.037-4.224-1.731-4.279-3.988c-0.047-1.914,2.161-4.082,4.119-4.047
	c2.046,0.038,3.945,1.88,3.996,3.876C490.434,534.849,488.739,536.687,486.54,536.722z"/>
<path fill="#A2ABB9" d="M496.114,517.407c-0.2,1.326-0.807,2.117-1.976,2.11c-1.231-0.007-2.052-0.811-2.051-2.015
	c0.001-1.107,0.807-1.907,1.919-1.943C495.268,515.518,495.799,516.493,496.114,517.407z"/>
<path fill="#425677" d="M336.111,416.637c-0.181,1.349-1.121,1.996-2.227,2.013c-0.998,0.015-1.758-0.826-1.803-1.861
	c-0.055-1.269,0.73-2.078,1.999-2.055C335.231,414.754,335.811,415.618,336.111,416.637z"/>
<path fill="#A0AAB8" d="M498.597,529.007c-0.064,1.614-0.603,2.371-1.839,2.393c-1.212,0.021-1.902-0.646-1.893-1.858
	c0.009-1.235,0.643-2.153,1.929-2.099C497.886,527.489,498.676,528.154,498.597,529.007z"/>
<path fill="#415577" d="M322.435,410.161c1.453,0.043,2.212,0.58,2.229,1.823c0.017,1.221-0.658,1.891-1.879,1.867
	c-1.326-0.025-1.998-0.958-2.001-2.092C320.781,410.732,321.523,410.055,322.435,410.161z"/>
<path fill="#9EA8B6" d="M493.601,524.692c-0.313,0.901-0.826,1.772-1.922,1.713c-0.899-0.048-1.713-0.536-1.711-1.664
	c0.001-1.121,0.538-1.859,1.69-1.863C492.753,522.874,493.377,523.562,493.601,524.692z"/>
<path fill="#425677" d="M331.509,410.519c-0.192,1.021-0.687,1.864-1.772,1.865c-0.839,0-1.782-0.242-1.79-1.454
	c-0.007-1.204,0.557-1.877,1.779-1.962C330.841,408.892,331.22,409.646,331.509,410.519z"/>
<path fill="#2E353F" d="M306.697,530.57c0.122,0.119,0.244,0.239,0.366,0.358c-0.148,0.513-0.423,0.92-0.981,1.142
	C305.945,531.412,306.281,530.975,306.697,530.57z"/>
<path fill="#333B46" d="M319.772,522.827c0.124,0.12,0.248,0.239,0.371,0.359c-0.118,0.49-0.434,0.823-0.969,1.199
	C319.03,523.641,319.363,523.221,319.772,522.827z"/>
<path fill="#1C2027" d="M331.554,513.776c0.033,0.218,0.066,0.435,0.1,0.654c-0.049,0.434-0.269,0.738-0.71,0.918
	C330.797,514.673,331.167,514.221,331.554,513.776z"/>
<path fill="#314395" d="M192.015,399.15c9.319-10.409,21.044-16.172,34.802-17.968c1.419-0.185,3.486-1.103,4.131,0.141
	c0.598,1.154-1.102,2.71-1.684,4.136c-0.367,0.9-1.227,0.981-1.987,1.234c-7.777,2.589-15.754,4.557-23.412,7.517
	c-3.93,1.519-7.681,3.415-11.376,5.426C192.057,399.742,191.927,399.553,192.015,399.15z"/>
<path fill="#F0F0F0" d="M204.681,407.726c4.722-2.08,5.059-5.867,0.754-9.915c4.543-1.916,9.274-3.04,13.865-4.576
	c0.852-0.285,1.07,0.332,1.417,0.792c2.556,3.38,2.215,7.977-1.035,11.072c-4.271,4.067-9.424,4.706-14.969,3.418
	C204.449,408.265,204.452,408,204.681,407.726z"/>
<path fill="#C7C7C7" d="M198.542,404.801c-0.585-0.142-0.782-0.689-1.109-1.088c-1.141-1.393-0.987-2.353,1.18-2.714
	c-0.105,1.18-0.263,2.343,0.038,3.47C198.735,404.618,198.699,404.729,198.542,404.801z"/>
<path fill="#161616" d="M198.542,404.801c-0.034-0.134,0.002-0.244,0.108-0.333c1.038,0.415,1.381,1.474,2.046,2.249
	C199.795,406.282,198.794,405.972,198.542,404.801z"/>
<path fill="#1F2A5E" d="M192.015,399.15c0.158,0.162,0.316,0.323,0.474,0.485c-0.413,0.411-0.862,0.757-1.507,0.87
	C191.018,399.767,191.539,399.476,192.015,399.15z"/>
<path fill="#979797" d="M204.681,407.726c0.011,0.264,0.022,0.528,0.033,0.792c-0.576,0.116-0.965-0.225-1.46-0.612
	C203.752,407.621,204.199,407.577,204.681,407.726z"/>
</svg>
