<?xml version="1.0" encoding="utf-8"?>
<!-- Generator: Adobe Illustrator 17.0.0, SVG Export Plug-In . SVG Version: 6.00 Build 0)  -->
<!DOCTYPE svg PUBLIC "-//W3C//DTD SVG 1.1//EN" "http://www.w3.org/Graphics/SVG/1.1/DTD/svg11.dtd">
<svg version="1.1" id="Layer_1" xmlns="http://www.w3.org/2000/svg" xmlns:xlink="http://www.w3.org/1999/xlink" x="0px" y="0px"
	 width="612px" height="792px" viewBox="0 0 612 792" enable-background="new 0 0 612 792" xml:space="preserve">
<path fill="#231F20" d="M252.096,446.931c-0.121-0.287-0.159-0.684-0.374-0.846c-9.545-7.205-9.543-7.2-4.097-17.998
	c4.094-8.118,9.078-15.703,13.92-23.376c0.929-1.472,2.563-2.671,2.31-4.743c-0.212-0.233-0.307-0.483-0.284-0.749
	c0.024-0.274,0.065-0.411,0.119-0.414c0.512-0.703,1.141-1.31,1.649-2.021c1.03-1.193,1.504-2.982,3.43-3.222
	c8.224,2.826,16.708,4.118,25.376,4.376c4.01,0.119,7.684-0.358,9.356-4.788c0.422-0.436,0.872-0.467,1.35-0.097
	c1.96,4.977,5.486,9.023,8.094,13.616c5.737,10.102,11.274,20.333,17.43,30.175c2.619,4.188,1.82,6.272-2.088,8.403
	c-1.2,0.655-2.798,1.124-3.369,2.695c-4.47,5.57-11.12,7.779-17.063,11.082c-1.314,0.513-2.752,0.259-4.087,0.663
	c-8.408,2.314-8.408,2.314-16.69-12.375c-0.275,0.068-0.766,0.091-0.792,0.213c-1.612,7.542-5.807,10.488-13.342,7.572
	C265.434,453.806,258.487,451.078,252.096,446.931z"/>
<path fill="#FEFEFE" d="M303.935,392.963c0.342,4.727-2.15,6.468-6.56,6.387c-10.058-0.183-20.037-0.747-29.338-5.187
	c-0.904,0.016-1.726-0.278-2.526-0.665c-0.819-0.406-1.593-0.876-2.198-1.582c-1.799-2.772-3.097-5.775-4.133-8.905
	c-0.455-1.657-0.49-3.401-1.089-5.033c-0.164-0.504-0.27-1.014-0.348-1.536c-0.313-5.415-0.136-10.83-0.139-16.241
	c0.017-1.012,0.089-2.023,0.282-3.015c0.078-0.461,0.207-0.916,0.349-1.362c0.685-1.676,0.527-3.496,0.83-5.24
	c0.076-0.439,0.187-0.869,0.31-1.296c0.505-1.503,0.257-3.121,0.702-4.633c0.285-0.62,0.469-1.309,1.133-1.67
	c2.828-5.951,3.814-12.596,6.982-18.426c1.677-3.086,3.336-6.081,7.607-5.578c3.751,0.467,7.46,0.342,11.223-0.193
	c2.659-0.378,5.577-0.946,7.916,1.279c3.66,1.302,7.32,2.604,10.98,3.906c2.94,1.98,0.801,4.357,0.516,6.591
	c-0.275,2.148,0.536,4.381-0.511,6.467c-0.001,0.668-0.002,1.336-0.003,2.004c-1.107,3.145-0.213,6.393-0.498,9.579
	c-0.061,1.776,0.396,3.746-1.751,4.75c-2.792,0.289-3.684-1.996-4.614-3.789c-1.83-3.527-4.239-6.711-5.914-10.315
	c-1.089-2.342-2.579-2.859-4.657-1.144c-2.045,1.687-4.264,3.128-6.483,4.571c-4.843,3.149-5.338,4.541-2.565,9.722
	c2.422,4.525,5,8.949,6.373,13.931c0.734,1.691,2.298,1.359,3.672,1.486c0.921,0.056,1.81,0.218,2.633,0.658
	c3.836,4.356,5.757,9.857,8.794,14.692c1.018,2.199,3.284,3.64,3.762,6.169C304.233,390.512,304.8,391.884,303.935,392.963z"/>
<path fill="#FBDFCA" d="M278.916,301.909c-3.733-5.174-6.859-10.598-7.087-17.216c-1.842-1.514-0.844-3.977-1.923-5.746l0.044,0.086
	c-1.178-1.12,0.343-3.022-1.172-4.045c-0.682-0.505-0.871-1.2-0.776-2.006c0.178-3.428,1.353-5.844,5.409-5.342
	c3.522,0.386,6.427-0.786,9.094-3.13c2.866-2.518,6.029-4.705,8.894-7.228c3.062-2.696,6.364-3.322,10.16-1.946
	c2.03,0.736,4.208,1.062,6.21,1.832c3.814,1.467,7.401,1.271,11.078-0.485c2.053-0.981,4.222-2.105,6.672-1.111
	c1.475,1.674,1.019,3.503,0.432,5.343c-0.021,1.382-0.043,2.764-0.064,4.146c-0.951,1.905-0.252,3.941-0.469,5.908
	c-0.279,6.357,0.59,12.739-0.481,19.072c-2.517,10.05-9.785,14.715-19.199,16.967c-0.961,0.23-1.89,0.591-2.833,0.891
	c-2.439-0.811-4.906-0.463-7.373-0.173c-3.858,1.125-7.509,1.008-10.723-1.764c-1.003-0.385-2.007-0.77-3.01-1.156
	C281.184,303.497,280.028,302.725,278.916,301.909z"/>
<path fill="#231F20" d="M324.75,255.727c-7.882,4.862-15.934,4.376-24.06,0.714c-3.05-1.374-5.52-0.86-8.035,1.463
	c-3.169,2.926-6.866,5.281-10.032,8.209c-2.543,2.352-5.23,3.342-8.577,2.692c-2.58-1.117-5.493,0.715-8.017-0.903
	c-1.942-3.077-3.672-6.314-5.87-9.195c-4.283-5.615-4.574-11.155-1.243-17.413c1.583-2.973,3.182-5.087,6.517-6.065
	c5.871-1.721,11.647-3.77,17.448-5.727c8.091-2.729,15.572-1.498,22.825,2.914c7.353,4.472,14.898,8.632,22.416,12.828
	c4.875,2.721,5.18,4.152,1.262,8.114c-0.675,0.683-1.627,1.092-2.451,1.628C326.377,255.737,325.488,255.51,324.75,255.727z"/>
<path fill="#FBDFCA" d="M226.948,479.719c2.697-1.953,5.225-4.079,7.097-6.882c0.972-0.293,1.88-0.06,2.772,0.323
	c5.29,2.8,10.113,6.38,15.362,9.257c1.291,0.707,2.632,1.495,3.042,3.122c-4.696,6.075-10.702,10.893-15.867,16.517
	c-1.204,1.311-2.997,2.185-3.343,4.19c-7.638,7.722-14.895,15.832-23.283,22.787c-1.202,0.863-2.259,0.256-3.145-0.479
	c-5.234-4.337-11.227-7.548-16.796-11.387c0.18-3.547,4.203-4.421,5.169-7.424c6.911-6.151,13.933-12.195,19.187-19.94
	C220.786,486.806,224.302,483.685,226.948,479.719z"/>
<path fill="#FBDFCA" d="M339.122,474.757c7.149,12.993,13.643,26.308,19.748,39.822c2.101,4.651,4.579,9.132,6.884,13.69
	c-0.296,0.788-0.679,1.645-1.457,1.922c-6.657,2.372-13.302,4.774-19.901,7.302c-0.418,0.16-0.945-0.201-1.377-0.449
	c-1.432-3.149-2.653-6.417-4.333-9.428c-7.563-13.558-13.702-27.821-20.777-41.619c-0.483-2.454,1.72-2.54,3.021-3.188
	C326.868,479.85,333.057,477.44,339.122,474.757z"/>
<path fill="#FBDFCA" d="M254.942,485.768c-6.372-3.956-12.745-7.912-19.117-11.868c-1.214-2.404,1.516-3.152,2.028-4.832
	c4.743-7.382,10.458-14.139,14.243-22.137c7.085,2.377,14.159,4.78,20.848,8.167c-5.686,10.606-11.371,21.212-17.057,31.817
	C255.485,486.604,254.87,486.469,254.942,485.768z"/>
<path fill="#FBDFCA" d="M339.122,474.757c-2.31,3.933-6.932,3.685-10.309,5.692c-3.51,2.087-7.85,2.552-10.904,5.548
	c-4.6-3.869-5.289-9.768-7.418-14.854c-1.246-2.976-2.101-6.159-3.551-9.092c-0.691-1.311-0.963-2.609,0.122-3.864
	c5.951-3.415,11.903-6.83,17.854-10.246C329.652,456.881,334.387,465.819,339.122,474.757z"/>
<path fill="#231F20" d="M193.086,516.701c7.243,3.003,13.213,8.033,19.642,12.332c0.516,2.8,2.52,4.215,5.009,4.775
	c4.418,0.994,6.147,3.888,6.354,8.083c0.027,1.849,1.692,4.077-1.214,5.247c-14.273,0.445-25.389-6.772-36.106-14.918
	c-2.818-2.142-3.256-8.356-0.85-10.832c1.268-1.304,2.898-2.411,3.095-4.383c0.255-2.56,1.965-0.742,2.938-1.1
	C192.524,515.898,192.645,516.526,193.086,516.701z"/>
<path fill="#231F20" d="M343.019,537.045c7.579-2.925,15.157-5.849,22.736-8.775c2.68,1.243,5.964,1.426,7.945-0.113
	c6.435-4.999,11.284-2.156,15.883,2.244c-8.368,13.019-22.245,16.742-36.156,19.919c-2.839,0.649-6.689-1.873-7.421-5.554
	C345.441,541.926,344.663,539.372,343.019,537.045z"/>
<path fill="#FEFEFE" d="M291.819,368.973c-0.956,0.001-1.912,0.002-2.868,0.003c-1.395-0.785-3.346-0.408-4.32-2.069
	c-0.88-4.764-3.449-8.791-5.711-12.94c-4.171-7.651-4.113-7.988,3.153-12.707c0.276-0.179,0.506-0.429,0.781-0.611
	c9.223-6.125,9.244-6.136,14.757,3.695c1.683,3.001,2.785,6.361,5.526,8.685c1.347,0.581,1.776,1.701,1.801,3.059
	c0.582,1.358,0.911,2.917,1.796,4.035c2.2,2.779,0.977,4.01-1.791,4.794C300.934,367.452,296.036,367.109,291.819,368.973z"/>
<path fill="#FBDFCA" d="M313.782,376.232c5.812-4.729,12.709-7.633,19.196-11.199c2.158-1.186,4.126-2.547,6.023-4.014
	c5.687-4.397,10.166-0.406,14.905,1.95c0.741,1.225-0.513,1.878-0.805,2.807c-13.568,8.012-27.129,16.037-40.716,24.017
	c-1.425,0.837-3.009,1.404-4.519,2.096c-0.748-1.602-2.301-2.473-3.411-3.748c-1.346-1.45-2.843-2.765-3.933-4.441
	c1.717-3.843,5.678-4.534,8.86-6.322C310.81,376.855,312.342,376.724,313.782,376.232z"/>
<path fill="#FADFCA" d="M259.705,382.821c1.918,2.693,3.202,5.689,4.216,8.814c1.824,2.483,1.376,5.077,0.376,7.698
	c0.063,0.358-0.085,0.57-0.442,0.636c-2.749,0.115-3.551,3.011-5.697,3.988c-1.525,0.962-2.489,0.413-2.621-1.24
	c-0.128-1.604-0.327-3.158-0.904-4.656c-0.707-2.635,0.69-5.521-0.949-8.047c-0.751-2.502,0.489-5.209-0.774-7.658
	c-1.374-2.301,0.624-5.125-1.135-7.371c-0.701-0.554-0.846-1.293-0.713-2.126c0.868-2.826,0.428-5.564-0.561-8.265
	c-0.431-2.526,0.762-5.23-0.84-7.626c-0.383-1.79-0.154-3.599-0.171-5.399c1.209-1.748,2.043-0.175,3.003,0.328
	c1.343,1.405,2.924,2.568,4.211,4.043c0.855,1.326,1.63,2.684,1.723,4.316c0.322,5.92-0.675,11.878,0.561,17.765l-0.066-0.12
	C260.003,379.411,258.966,381.257,259.705,382.821z"/>
<path fill="#FADEC9" d="M309.92,378.015c-2.994,1.894-5.988,3.787-8.981,5.681c-0.119,0.551-0.417,0.676-0.893,0.374
	c-2.742-5.033-5.483-10.065-8.226-15.098c3.583-3.908,8.517-3.449,13.122-4.055c0.79,4.306,4.432,7.052,5.989,10.939
	C311.66,377.075,310.479,377.4,309.92,378.015z"/>
<path fill="#282425" d="M294.937,320.067c-4.787-0.684-9.458,0.587-14.19,0.835c-1.92,0.101-4.041,0.626-4.949-1.921
	c0.134-5.778,3.428-6.39,8.009-4.899c3.409,0.27,6.849,0.381,10.015,1.922c0.403,0.286,0.799,0.583,1.189,0.887
	c1.361,0.509,2.722,1.018,4.204,1.573C297.923,319.878,296.252,319.466,294.937,320.067z"/>
<path fill="#F7DCC8" d="M293.795,316.754c-3.392-0.657-6.906-0.857-9.988-2.672c0.712-1.727,1.424-3.453,2.135-5.18
	c3.168-2.538,6.631-1.413,10.052-0.812c-0.291,1.289,0.504,2.834-0.91,3.859C293.517,313.245,295.322,315.447,293.795,316.754z"/>
<path fill="#F8DCC8" d="M256.136,356.081c-1.746-0.571-2.952-1.872-4.202-3.112c-0.804-1.799-1.161-3.513,0.898-4.774
	c2.599-2.046,5.115-4.225,8.375-5.212c-0.07,0.612-0.144,1.225-0.217,1.838c-1.294,1.546,0.129,3.644-1.059,5.212l0.053-0.102
	c-1.384,1.856,0.228,4.232-1.058,6.105l0.067-0.097C258.097,357.118,257.187,358.022,256.136,356.081z"/>
<path fill="#B6A9A1" d="M254.942,485.768c0.315,0.383,0.63,0.765,0.945,1.148c-6.625,6.442-13.251,12.885-19.876,19.329
	c-1.094-1.137-0.002-1.753,0.635-2.385C242.732,497.815,248.84,491.795,254.942,485.768z"/>
<path fill="#999592" d="M324.936,290.042c0.049-6.691,0.097-13.381,0.146-20.072c0.23,0,0.461,0,0.692,0
	C325.536,276.662,327.039,283.427,324.936,290.042z"/>
<path fill="#B6ABA3" d="M226.948,479.719c-1.945,4.65-5.253,7.974-9.807,10.085C220.062,486.102,223.381,482.79,226.948,479.719z"/>
<path fill="#95857A" d="M295.995,308.09c-3.358,0.176-6.825-0.986-10.052,0.812c-0.378-0.98-0.755-1.959-1.134-2.939
	c3.58,1.525,7.411,0.707,11.103,1.189c0.345,0.165,0.458,0.324,0.339,0.478c-0.116,0.151-0.233,0.227-0.354,0.227L295.995,308.09z"
	/>
<path fill="#918B87" d="M266.029,267.902c2.66,0.412,5.461-0.427,8.017,0.903c-3.112-0.196-5.418,0.775-6.045,4.176
	C268.079,271.004,268.055,269.065,266.029,267.902z"/>
<path fill="#B5B4B4" d="M304.938,356.088c-0.601-1.02-1.202-2.04-1.802-3.06c1.865-0.795,1.555-2.59,1.884-4.091
	c0.252-0.425,0.513-0.411,0.782-0.017C305.753,351.339,306.461,353.848,304.938,356.088z"/>
<path fill="#A69C96" d="M254.846,398.152c2.624,1.068-0.791,5.579,3.311,5.804c-1.634,1.944-3.021,3.066-3.269-0.808
	c-0.091-1.431-0.435-2.845-0.663-4.267C254.283,398.511,254.496,398.274,254.846,398.152z"/>
<path fill="#B1A59D" d="M193.086,516.701c-0.377-0.265-0.754-0.531-1.131-0.796c1.624-2.42,3.767-4.334,6.001-6.161
	C197.765,513.065,194.308,514.101,193.086,516.701z"/>
<path fill="#A8A19D" d="M305.047,387.861c1.366,1.045,2.845,2.01,2.818,4.029c-1.596-1.143-3.277-2.505-3.015,1.164l-0.45-0.122
	l-0.465,0.031c0.035-1.35,0.07-2.699,0.105-4.049C304.306,388.496,304.4,387.914,305.047,387.861z"/>
<path fill="#969595" d="M305.802,348.921l-0.391,0.027l-0.392-0.01c0.305-3.301-1.113-6.758,0.9-9.903
	C305.88,342.33,305.841,345.625,305.802,348.921z"/>
<path fill="#9D928C" d="M249.897,357.299c2.165,2.438,0.579,5.308,0.916,7.957c0.117,0.466-0.049,0.691-0.543,0.638
	c-0.102-2.665-0.204-5.33-0.306-7.994C249.941,357.699,249.919,357.499,249.897,357.299z"/>
<path fill="#9C9A9B" d="M306.385,329.954c-0.421-1.973,1.39-4.121-0.468-5.982c3.312,1.625,2.578,3.712,0.678,5.932L306.385,329.954
	z"/>
<path fill="#9C938D" d="M252.891,382.33c2.215,2.414,0.509,5.316,0.99,7.945c0.031,0.191,0.062,0.383,0.093,0.574
	c-1.839-2.465-0.732-5.301-1.004-7.964C252.943,382.701,252.917,382.516,252.891,382.33z"/>
<path fill="#9E928C" d="M250.27,365.894c0.281-0.133,0.462-0.347,0.544-0.64c1.951,2.476,1.521,5.027,0.248,7.606
	C250.799,370.538,250.534,368.216,250.27,365.894z"/>
<path fill="#9D938C" d="M253.974,390.85c-0.017-0.195-0.048-0.389-0.092-0.577c2.191,2.398,0.578,5.26,0.965,7.878
	c-0.114,0.325-0.322,0.568-0.622,0.731C254.141,396.204,254.058,393.527,253.974,390.85z"/>
<path fill="#A0958F" d="M252.891,382.33c0.049,0.182,0.075,0.368,0.078,0.556c-1.84-2.415-0.613-5.294-1.194-7.9
	C254.398,377.092,252.233,379.926,252.891,382.33z"/>
<path fill="#92847D" d="M237.853,469.068c0.295,2.018-1.871,3.004-2.027,4.832c-0.594-0.354-1.187-0.709-1.78-1.063
	C234.823,471.084,236.266,470.003,237.853,469.068z"/>
<path fill="#9E9794" d="M249.897,357.299c0.049,0.197,0.071,0.398,0.067,0.601c-1.335-2.558-1.924-5.114,0.017-7.664
	c0.287,0.186,0.379,0.366,0.278,0.542c-0.099,0.173-0.198,0.26-0.298,0.26C249.939,353.125,249.918,355.212,249.897,357.299z"/>
<path fill="#948981" d="M269.905,278.947c1.735,1.549,0.879,3.966,1.924,5.746C269.194,283.445,270.032,281.035,269.905,278.947z"/>
<path fill="#9C928B" d="M295.897,307.858c0.012-0.235,0.017-0.471,0.016-0.706c2.353,0.033,4.822-1.013,6.991,0.748
	C300.568,307.886,298.233,307.872,295.897,307.858z"/>
<path fill="#AAA8A9" d="M222.878,547.137c2.098-1.357,0.377-3.598,1.214-5.247C225.519,546.497,225.439,546.846,222.878,547.137z"/>
<path fill="#A19B97" d="M324.75,255.727c0.504-0.906,1.387-0.694,2.183-0.741c-0.326,1.977,0.878,4.208-0.982,5.93
	C325.632,259.167,326.673,257.104,324.75,255.727z"/>
<path fill="#988A82" d="M249.96,351.037c0.017-0.267,0.024-0.534,0.02-0.802c1.07-0.513,0.911-2.744,2.852-2.04
	c-1.196,1.423-0.776,3.149-0.898,4.774C251.276,352.326,250.618,351.681,249.96,351.037z"/>
<path fill="#9F9D9D" d="M306.385,329.954c0,0,0.214-0.049,0.212-0.049c0.279,2.423,1.198,4.905-0.675,7.125
	C306.035,334.669,305.549,332.268,306.385,329.954z"/>
<path fill="#9A928E" d="M307.063,458.188c-0.041,1.288-0.081,2.575-0.122,3.863c-1.134-0.684-1.338-2.618-3.173-2.363
	C304.613,458.632,305.912,458.573,307.063,458.188z"/>
<path fill="#B5AEA8" d="M278.916,301.909c1.759,0.175,3.086,0.778,2.884,2.9C280.52,304.157,279.492,303.258,278.916,301.909z"/>
<path fill="#938780" d="M309.92,378.015c0.337-0.719,0.674-1.439,1.011-2.159c0.951,0.125,1.901,0.25,2.851,0.375
	C312.599,377.052,311.46,377.967,309.92,378.015z"/>
<path fill="#98897E" d="M325.774,269.97l-0.346,0.005l-0.346-0.005c0.094-1.665-0.953-3.516,0.805-4.908
	C325.849,266.698,325.811,268.334,325.774,269.97z"/>
<path fill="#A79D98" d="M353.1,365.776c0.268-0.936,0.537-1.871,0.805-2.807c0.64-0.069,1.596-0.11,1.575,0.578
	C355.438,364.892,354.027,365.156,353.1,365.776z"/>
<path fill="#978A82" d="M293.795,316.754c0.413-1.606-0.505-3.568,1.288-4.804c-0.024,1.647-0.048,3.295-0.073,4.943
	C294.605,316.846,294.2,316.8,293.795,316.754z"/>
<path fill="#938A83" d="M268.777,274.988c2.684,0.684,0.551,2.763,1.172,4.045C268.227,278.071,269.249,276.313,268.777,274.988z"/>
<path fill="#FCFCFC" d="M265.962,392.973c0.904,0.027,1.686,0.266,2.075,1.19c-0.09,1.604-1.353,2.574-2.072,3.838
	C263.802,396.204,263.801,394.714,265.962,392.973z"/>
<path fill="#9B9592" d="M265.962,392.973c-1.558,1.677-1.528,3.353,0.003,5.028c-0.041,1.09-0.785,1.298-1.669,1.331
	c-0.125-2.564-0.251-5.128-0.376-7.695C264.699,391.932,265.794,391.745,265.962,392.973z"/>
<path fill="#98928F" d="M258.989,378.021c-2.336-4.018-0.488-8.38-1.005-12.553c-0.263-2.123-0.187-4.289-0.264-6.435
	c0.371-0.366,0.76-0.369,1.165-0.059C258.921,365.323,258.955,371.672,258.989,378.021z"/>
<path fill="#8B807A" d="M305.047,387.861c-0.336,0.351-0.671,0.702-1.007,1.054c-1.608-1.387-3.074-2.89-3.994-4.844
	c0.329-0.051,0.626-0.175,0.893-0.374C302.308,385.084,303.678,386.472,305.047,387.861z"/>
<path fill="#AB988B" d="M258.886,358.974c-0.388,0.02-0.776,0.039-1.165,0.059c-1.085-0.686-1.904-1.515-1.587-2.953
	c1.002,0.929,1.932,0.429,2.858-0.14C258.957,356.951,258.922,357.962,258.886,358.974z"/>
<path fill="#9C908A" d="M258.926,356.037c0.432-2.021-0.928-4.353,1.058-6.105C259.692,351.978,260.727,354.253,258.926,356.037z"/>
<path fill="#9B908A" d="M259.932,350.034c0.316-1.744-0.744-3.768,1.058-5.211C260.801,346.593,261.546,348.553,259.932,350.034z"/>
<path fill="#9C9A9A" d="M284.631,366.907c1.422,0.728,3.208,0.695,4.32,2.069C287.207,368.921,285.156,369.507,284.631,366.907z"/>
<path fill="#958C87" d="M259.705,382.821c-1.322-1.471-0.503-3.282-0.781-4.919C260.458,379.339,259.918,381.106,259.705,382.821z"
	/>
<path fill="#A69486" d="M287.858,269.429c-2.246,0.695-3.652,0.717-5.464,0.122C284.177,268.716,285.626,268.922,287.858,269.429z"
	/>
<path fill="#A69386" d="M279.516,271.184c0.51,1.777,0.638,2.879,0.002,4.076C278.598,274.048,278.851,272.899,279.516,271.184z"/>
</svg>
