<svg id="Layer_1" data-name="Layer 1" xmlns="http://www.w3.org/2000/svg" viewBox="0 0 603 603"><defs><style>.cls-1{fill:#97999c;}.cls-1,.cls-2,.cls-3,.cls-4,.cls-5,.cls-8,.cls-9{stroke:#000;}.cls-1,.cls-12,.cls-2,.cls-3,.cls-4,.cls-5,.cls-6,.cls-7,.cls-8,.cls-9{stroke-miterlimit:10;}.cls-1,.cls-12,.cls-2,.cls-3,.cls-4,.cls-5,.cls-6,.cls-7{stroke-width:0.5px;}.cls-13,.cls-2,.cls-7{fill:#231f20;}.cls-11,.cls-3{fill:#fff;}.cls-4,.cls-6{fill:#fbe0ca;}.cls-12,.cls-5,.cls-8,.cls-9{fill:none;}.cls-12,.cls-6,.cls-7{stroke:#231f20;}.cls-8{stroke-width:2px;}.cls-9{stroke-width:0.25px;}.cls-10{fill:#f2b7b6;}</style></defs><title>happy boy</title><path class="cls-1" d="M313.45,380.92c-1.84-.19-3.47-.41-4.8-.66,1.15-.59,2.56-1.27,4.17-2C313,379.12,313.24,380,313.45,380.92Z"/><path class="cls-1" d="M355.15,378.18c-.73,1.22-3.83,2.08-8.16,2.64.13-2.38.25-4.68.36-6.84A25.43,25.43,0,0,1,355.15,378.18Z"/><path class="cls-2" d="M293.15,537.18c-1,8-9,8-24,7s-11-8-9-18,5-32,5-38a8.83,8.83,0,0,0-.07-1c4.55,1,12,2.35,16.52,1.3,1,4.17,3.34,8.57,2.55,11.72C283.15,504.18,294.15,529.18,293.15,537.18Z"/><path class="cls-3" d="M281.6,488.46c-4.53,1-12-.27-16.52-1.3-.12-1.22-.43-3.08-.85-5.42,4.17.63,11.76,1.27,17.26-1.13-.21,2.24-.34,3.83-.34,4.57A14.13,14.13,0,0,0,281.6,488.46Z"/><path class="cls-4" d="M284.15,414.18c2.56,18.75-1.42,53.48-2.66,66.43-5.5,2.4-13.09,1.76-17.26,1.13-2.76-15.12-10.56-50.31-8.08-63.56,2.13-11.38.73-29.84-.26-39.55,9.2,1.18,22.39,3.95,31.83,3.29C286.25,403.48,281.61,395.52,284.15,414.18Z"/><path class="cls-2" d="M304.15,542.18c-15-8-8-29-11-36-2.13-5,3.78-11.42,8.12-19,6,1.54,12.64,3.4,18.12,4.11-5.29,16.6,5.84,36.21,7.76,42.93C329.15,541.18,319.15,550.18,304.15,542.18Z"/><path class="cls-3" d="M321.25,486.49l-1.1,2.69c-.28.68-.53,1.37-.76,2.07-5.48-.71-12.13-2.57-18.12-4.11a39.1,39.1,0,0,0,2.7-5.66C307.85,483.17,315.06,486,321.25,486.49Z"/><path class="cls-4" d="M347.35,374c-.11,2.16-.23,4.46-.36,6.84-.21,4-.43,8.2-.63,12.33-.64,12.57-1.21,24.43-1.21,27,0,5.71-16.28,47.6-23.9,66.31-6.19-.51-13.4-3.32-17.28-5a22.48,22.48,0,0,0,1.18-4.3c2-12,1-45,10-53,3.65-3.25,3.52-13.08,2.07-23.62-.93-6.78-2.41-13.84-3.77-19.64-.21-.91-.43-1.8-.63-2.64C321.3,374.52,335.35,370,347.35,374Z"/><path class="cls-2" d="M360.15,346.18c-.79-2.53-1.83-6.28-3-10.84h0c-5.2-19.63-13.43-54-17.71-68l-.25.9-2,1-5-1-3-2-15,4-43-2s-.42-.56-1-1.43h0s-26.94,57.42-28.94,93.42c0,0-4,19,7,18a39,39,0,0,1,7.74.45c9.2,1.18,22.39,3.95,31.83,3.29,6-.43,10.47-2.24,11.43-6.74,1.76-8.21,2.14-23,2.16-33.76.31,14.44,1.22,35.79,3.84,37.76a9.65,9.65,0,0,0,3.5,1.08c1.15-.59,2.56-1.27,4.17-2,8.48-3.76,22.53-8.32,34.53-4.3a25.43,25.43,0,0,1,7.8,4.2c2.27-3.78,6.82-11,6.75-21.2A36.81,36.81,0,0,0,360.15,346.18Z"/><polyline class="cls-5" points="291.15 321.18 301.15 328.18 317.15 321.18"/><path class="cls-4" d="M370.48,352c-2.36.41-5.58,3.47-8.58,4.93-2.16,1-4.21,1.27-5.74-.94-1.88-2.73-.62-11.71,1-20.7h0c1.47-8.35,3.21-16.72,3-20.12-.5-7-6.06-27.5-8.06-41.68s-.86-16.1-2.42-22.22c-1-3.68-1.14-12.74-1.15-19.38,3.7-2,11.18-5.72,17.27-7.52.56,6.07,3.52,36.82,5.89,41.5,2.64,5.2.15,40.11,1.36,51.23S374.54,351.33,370.48,352Z"/><path class="cls-4" d="M261.61,234.83c-.49,6.52-1.31,14.91-2.46,18.35-2,6-1,8-4,22s-10,34-11,41,5,36,1,41-10-4-14-5-2-24,0-35,2-46,5-51c2.48-4.13,7-30.13,8.5-39C250.57,229.56,258.35,232.85,261.61,234.83Z"/><path class="cls-5" d="M294.57,168.55c2.84,4,9.05,11.63,10.58,11.63,2,0,9.47-13.44,9.47-13.44"/><path class="cls-2" d="M329.15,166.18l-.37,1.13-1.64,4.9-4,12-8.53-17.44s-7.47,13.44-9.47,13.44c-1.53,0-7.74-7.61-10.58-11.63a9.63,9.63,0,0,1-1.42-2.37c0-1-8,20-8,20l-5.79-13.75-1.48-3.52-.73-1.73s12-5,16-4l.11.18c.22.34.73,1.15,1.44,2.23l0-.67.42,1.26s8,11,9,11,9.65-11.41,10.41-12.41V165a11.66,11.66,0,0,1,1.34-1.69.47.47,0,0,1,.24-.13C317.15,163.18,329.15,165.18,329.15,166.18Z"/><path class="cls-3" d="M374.15,224.18c-1.52-1.22-4.72-.86-8.43.23-6.09,1.8-13.57,5.56-17.27,7.52-1.43.76-2.3,1.25-2.3,1.25a5.87,5.87,0,0,1,.27,2.54h0c-.29,7.54-5.75,27.13-7,31.55l-.25.9-2,1-5-1-3-2-15,4-43-2s-.42-.56-1-1.43c-1.06-1.43-2.7-3.69-4-5.57-2-3-3-23-3-25,0-.3-.57-.77-1.54-1.35-3.26-2-11-5.27-17-7.67-4.22-1.72-7.5-3-7.5-3,0-9,12-35,16-42,3.33-5.84,20.57-8.89,26.21-9.75l5.79,13.75s8-21,8-20a9.63,9.63,0,0,0,1.42,2.37c2.84,4,9,11.63,10.58,11.63,2,0,9.47-13.44,9.47-13.44l8.53,17.44,4-12c1.3.3,2.77.59,4.42.86,2.72.45,5.91.85,9.59,1.11C355.15,175.18,374.15,224.18,374.15,224.18Z"/><path class="cls-5" d="M259.15,192.18s5,20,10,24l-6,20"/><path class="cls-5" d="M346.42,235.72c-4.75-11.32.73-40.54.73-40.54"/><path class="cls-5" d="M273.15,179.18a24.58,24.58,0,0,0,7,9"/><path class="cls-5" d="M331.56,173.07s4.59,12.11,3.59,16.11"/><path class="cls-5" d="M345.81,85.93a2.08,2.08,0,0,1-.65-.74C345.22,85.25,345.47,85.51,345.81,85.93Z"/><path class="cls-6" d="M274.05,134.34c0-.1,0-.2-.05-.31-.62-3.4-1.36-7.68-2.06-11.81h0a.74.74,0,0,0,0-.14l0-.16-.12-.78c-.06-.33-.11-.66-.17-1l-.35-.45c-1.31-1.6-3.76-4.38-5.71-5.27a2.82,2.82,0,0,0-1.12-.29c-1.25,0-2,1.37-1.74,5.3.85,11.08,7.67,18.44,12,18.17Zm-2.1-9.83h0"/><path class="cls-6" d="M342.65,130.17c-1.71,1.72-4.45,5.48-7.41,7.47a67.17,67.17,0,0,0,1.61-8.17c.43-3.07.68-6.08.81-9,0-1.36.07-2.71.07-4h0c1.16-1.52,2.73-3,4.41-3.15a2.84,2.84,0,0,1,1.48.3,2.93,2.93,0,0,1,1,.86C347.14,117.78,345.29,127.53,342.65,130.17Z"/><path class="cls-5" d="M315.56,83.92c-2.09.43-12.39,3.87-12.39,3.87s-6.83-3.91-9.76-2.93-6.83,0-6.83,2.93c0,0-3.91-1.56-4,.9-.18-2.7,4-1.12,4-1.12,0-2.77,3.91-1.84,6.83-2.77s9.76,2.77,9.76,2.77S313.47,84.33,315.56,83.92Z"/><path class="cls-5" d="M320.74,84.86s-7.7,2.89-6.84,2c.76.13,6.84-2,6.84-2Z"/><rect class="cls-5" x="320.74" y="85.73" width="3.91" height="0.11"/><path class="cls-7" d="M345.14,92.67a37.79,37.79,0,0,1,2.93,3.9c0-3.62-2.15-6.69-3.26-8.05a2,2,0,0,1-.63-.72c.06.06.3.31.63.72,1.64,1.22,5.21,1.22,5.21,1.22s-5.85-2.93-5.85-8.78-14.64-15.62-14.64-15.62c-12.69-13.66-27.33-4.88-27.33-4.88-5.86-4.88-10.74,2-10.74,2-8.78-2-6.83,2.93-12.69,4.88s-3.9,4.88-3.9,4.88c-4.88,1-8.78,10.74-8.78,10.74-2,2-7.81,8.78-7.81,8.78,2.74,0,5.48-2.57,5.82-2.9-4.84,5.87-2.89,19.49-2.89,16.57a40.1,40.1,0,0,1,1.39-7.68,8.06,8.06,0,0,1,.2-1.21,7.94,7.94,0,0,0-.2,1.2h0c-.45,4.22.84,12.63,1.81,16.46a2.82,2.82,0,0,1,1.12.29c2,.89,4.4,3.67,5.71,5.27a24.49,24.49,0,0,1-.09-3.25c.3-6.89,3.72-8.17,3.72-8.17l-.62-.62,1.9-.48-2.25-1.5,2-1.3-1-.33,1.3-.87-1.94-.65,1.64-1.08-1-.34h0l1.37-.92L275,98.42l.87-.87a2.25,2.25,0,0,1-.35-.44,1.4,1.4,0,0,1-.15-1.08c.34-1.33,2.45-2.39,2.45-2.39a5.14,5.14,0,0,1,4.88-3.9c0-.12-.05-.23-.07-.33a2.64,2.64,0,0,1-.05-.72c.11-2.46,4-.9,4-.9,0-2.93,3.91-2,6.83-2.93s9.76,2.93,9.76,2.93l.64-.21.27-.09.73-.24.39-.13,2.11-.69.74-.24.53-.17.53-.17c1.26-.41,2.53-.81,3.63-1.14l.46-.14c.61-.19,1.15-.34,1.59-.46l.29-.08.26-.06.22,0a1.53,1.53,0,0,1,.3,0c.24,0,.3.11.25.28a.49.49,0,0,1,0,.11l-.06.12a13.39,13.39,0,0,1-2.1,2.42v0c-.86.92,6.84-2,6.84-2v1h3.91v2c2-1,5.85,2,5.85,2s0,3.9,2,2.93c1.13-.56,1.91.91,2.37,2.29l-.13-.19-.53,3.41.29.29,0,.05.76.68.55.56-1.57.41.92.65-.67.63,1.44.83-.7.9.24.23,1,2.92a36.71,36.71,0,0,1,1.32,8.76c0-1.06-.09-2.09-.15-3.12.07,1,.12,2.06.16,3.12v.07c0,.37,0,.73,0,1.09,0,.06,0,.12,0,.17,1.16-1.52,2.73-3,4.41-3.15a2.84,2.84,0,0,1,1.48.3,2.93,2.93,0,0,1,1,.86c2.18-9.62-.46-21.77-.46-21.77S344.17,91.69,345.14,92.67ZM263,96.08l.12-.44h0Zm73.28,5.62h0Zm.3,1.84h0l0,.11Zm.69,5.62c0,.26.06.51.08.77v0c0,.49.07,1,.11,1.49C337.44,110.67,337.37,109.91,337.3,109.16Z"/><path class="cls-4" d="M314.56,164.7v.07c-.76,1-9.45,12.41-10.41,12.41s-9-11-9-11l-.42-1.26.07-1.69v-.15l.14-3.22c6.09,2.84,12.47,3.83,17.7,1.82.61-.23,1.2-.47,1.79-.71l.06,2.06Z"/><path class="cls-6" d="M337.73,116.26v.18c0,1.32,0,2.67-.07,4-.13,2.92-.38,5.93-.81,9a67.17,67.17,0,0,1-1.61,8.17c-.07.29-.15.57-.23.85-2.82,10-7.6,15.54-14,19.29a46.31,46.31,0,0,1-6.87,3.26h0l-1.74.66c-5.11,1.85-11.34.93-17.28-1.68a40.18,40.18,0,0,1-7-4c-5.9-4.13-10.78-9.75-12.82-15.54a31.12,31.12,0,0,1-.72-3.11l-.59-3.07c0-.1,0-.2-.05-.31-.62-3.6-1.36-8.13-2.06-12.51l0-.17,0-.17c-.06-.3-.11-.59-.16-.87l-.13-.16c-.1-.61-.2-1.22-.29-1.81s-.12-1.3-.15-1.89c.3-6.89,3.72-8.17,3.72-8.17l-.85-.85a3.38,3.38,0,0,1,.85-.52l-1.17-1.1,2.15-1.43-1.2-.4,1.2-.76-1.81-.57,1.81-1.2-1-.34,1-.65-2.21-.7,2.21-2.21a2.25,2.25,0,0,1-.35-.44l.35-.33a1.7,1.7,0,0,1-.5-.75c.34-1.33,2.45-2.39,2.45-2.39a5.14,5.14,0,0,1,4.88-3.9c0-.12-.05-.23-.07-.33h.07a3.59,3.59,0,0,1-.12-.72c.11-2.46,4-.9,4-.9,0-2.93,3.91-2,6.83-2.93s9.76,2.93,9.76,2.93l.64-.21.27-.09.73-.24.39-.13,2.11-.69.74-.24.53-.17.53-.17c1.26-.41,2.53-.81,3.63-1.14l.46-.14c.61-.19,1.15-.34,1.59-.46l.29-.08.26-.06.22,0a1.53,1.53,0,0,1,.3,0c.24,0,.3.11.25.28a.49.49,0,0,1,0,.11l-.06.12a14.52,14.52,0,0,1-2.1,2.26c-.12.11-.11.17,0,.18-.86.92,6.84-2,6.84-2v1h3.91v2c2-1,5.85,2,5.85,2s0,3.9,2,2.93c1.18-.59,2,1,2.43,2.47l.06.19c.12.38.22.74.28,1l-.81,1.35,1.36,1.16c0,.11,0,.22.07.33l-1.43,1.27,1.86,1a2.05,2.05,0,0,1,0,.22l-.93.61,1,2.77a23.92,23.92,0,0,1,1,4.86v0c.14,1.67.24,3.38.3,5.14v.07C337.7,115.54,337.72,115.9,337.73,116.26Z"/><path class="cls-8" d="M296.65,110.68s-15-3-20,0"/><path class="cls-8" d="M313.65,109.68s15-3,20,0"/><path class="cls-9" d="M305.65,127.68s-5,5,1,5"/><path class="cls-10" d="M299.65,142.68s13,1,15-1c0,0-5,6-9,6S299.65,142.68,299.65,142.68Z"/><ellipse class="cls-11" cx="287.15" cy="120.18" rx="5" ry="6"/><path class="cls-12" d="M282.36,118.43a5.23,5.23,0,0,1,4.79-4.25,5.13,5.13,0,0,1,4.66,3.82"/><ellipse class="cls-13" cx="287.15" cy="121.68" rx="2.5" ry="4.5"/><ellipse class="cls-11" cx="323.15" cy="120.18" rx="5" ry="6"/><path class="cls-12" d="M318.36,118.43a5.23,5.23,0,0,1,4.79-4.25,5.13,5.13,0,0,1,4.66,3.82"/><ellipse class="cls-13" cx="323.15" cy="121.68" rx="2.5" ry="4.5"/></svg>