<?xml version="1.0" encoding="utf-8"?>
<!-- Generator: Adobe Illustrator 17.0.0, SVG Export Plug-In . SVG Version: 6.00 Build 0)  -->
<!DOCTYPE svg PUBLIC "-//W3C//DTD SVG 1.1//EN" "http://www.w3.org/Graphics/SVG/1.1/DTD/svg11.dtd">
<svg version="1.1" id="Layer_1" xmlns="http://www.w3.org/2000/svg" xmlns:xlink="http://www.w3.org/1999/xlink" x="0px" y="0px"
	 width="612px" height="792px" viewBox="0 0 612 792" enable-background="new 0 0 612 792" xml:space="preserve">
<path fill="#231F20" d="M272.927,466.979c-8.065-2.23-8.982-3.063-8.887-11.716c0.232-21.046,0.754-42.089,1.16-63.133
	c5.93,1.241,11.297,4.382,17.507,4.846c3.107,0.232,6.27,0.448,9.359,1.041c6.236,1.676,8.94,6.848,11.766,11.908
	c0.607,1.456-0.545,2.874-0.089,4.329c2.138,11.063,4.265,22.129,6.426,33.188c0.372,1.902,1.473,3.727-1.647,4.656
	c-2.507,0.747-1.297,3.196-0.926,4.739c1.134,4.722-0.376,7.053-5.349,7.208c-1.789,0.056-3.559,0.741-5.337,1.139
	c-7.19,3.389-14.771,3.577-22.48,2.761C273.89,467.684,273.39,467.36,272.927,466.979z"/>
<path fill="#FBDFCA" d="M268.777,274.988c-0.682-0.505-0.871-1.201-0.776-2.006c0.178-3.428,1.353-5.844,5.409-5.342
	c3.522,0.386,6.427-0.786,9.094-3.13c2.866-2.518,6.029-4.704,8.894-7.228c3.062-2.696,6.364-3.322,10.16-1.946
	c2.03,0.736,4.208,1.062,6.21,1.832c3.814,1.467,7.401,1.271,11.078-0.485c2.053-0.981,4.223-2.105,6.672-1.111
	c1.475,1.674,1.019,3.503,0.432,5.343c-0.021,1.382-0.043,2.764-0.064,4.146c-0.951,1.905-0.252,3.941-0.469,5.908
	c-0.279,6.357,0.59,12.739-0.481,19.072c-2.517,10.05-9.785,14.715-19.199,16.967c-0.961,0.23-1.89,0.591-2.834,0.891
	c-2.439-0.811-4.906-0.463-7.373-0.172c-3.858,1.125-7.509,1.008-10.722-1.764c-1.003-0.385-2.007-0.771-3.01-1.156
	c-0.615-1.31-1.771-2.083-2.883-2.899c-3.732-5.175-6.859-10.599-7.087-17.216c-1.842-1.513-0.844-3.977-1.923-5.746l0.044,0.086
	C268.771,277.913,270.292,276.011,268.777,274.988z"/>
<path fill="#FEFEFE" d="M292.965,398.854c-9.788-0.042-19.471-0.516-27.765-6.724c-1.419-2.085-2.839-4.17-4.258-6.255
	c-0.624-1.285-0.155-2.848-1.034-4.068c-0.085-1.343,0.475-2.852-0.983-3.844c-1.032-6.433-0.203-12.911-0.464-19.361
	c1.124-2.782,0.663-5.842,1.505-8.675l-0.046,0.093c1.258-1.598-0.154-3.732,1.071-5.337c2.287-6.788,4.02-13.777,7.264-20.22
	c1.566-3.111,3.346-5.971,7.543-5.481c3.751,0.467,7.46,0.342,11.223-0.193c2.659-0.378,5.577-0.946,7.916,1.279
	c3.66,1.302,7.32,2.604,10.98,3.906c2.94,1.98,0.801,4.357,0.516,6.591c-0.275,2.148,0.536,4.381-0.511,6.467
	c-0.001,0.668-0.002,1.336-0.003,2.005c-0.831,3.277-0.794,6.555-0.017,9.835c-0.009,0.418-0.017,0.836-0.026,1.253
	c-2.291,2.388,0.202,5.357-0.956,7.882l-0.002-0.004c-1.152,10.639-0.17,21.312-0.497,31.96c-0.003,0.846,0.016,1.697-0.042,2.542
	c-1.978,2.204-3.215,0.233-4.199-0.99c-2.014-2.504-3.871-5.152-5.356-8.027c-0.632-2.173-1.078-4.401-1.8-6.554
	c-0.507-1.945-1.487-3.854-0.503-5.926c0.767-0.992,1.947-1.599,2.536-2.758c1.087-5.676,0.227-11.394,0.484-17.077
	c0.018-2.398,0.023-4.796,0.033-7.188c-0.029-1.791,0.346-3.696-1.384-5.018c-1.736-1.018-3.563-0.636-5.383-0.374
	c-2.98,1.013-6.094,0.567-9.132,0.879c-2.529,0.422-3.554,1.916-3.434,4.463c0.092,1.949,0.102,3.919-0.203,5.866
	c-0.369,1.641-0.86,3.263-0.77,4.973c0.379,3.016-1.216,6.3,1.252,9.023c0.393,0.229,0.765,0.482,1.138,0.738
	c2.033,1.102,2.308,3.309,3.234,5.11c2.228,4.252,1.892,9.185,3.621,13.6c0.59,1.506,0.935,3.082,1.997,4.362
	C288.241,391.597,292.611,394.076,292.965,398.854z"/>
<path fill="#231F20" d="M324.75,255.727c-7.882,4.862-15.934,4.376-24.06,0.714c-3.05-1.374-5.52-0.86-8.035,1.463
	c-3.169,2.926-6.866,5.281-10.032,8.209c-2.543,2.352-5.23,3.342-8.577,2.692c-2.58-1.117-5.493,0.715-8.017-0.903
	c-1.942-3.077-3.672-6.314-5.87-9.195c-4.283-5.615-4.574-11.155-1.243-17.413c1.583-2.973,3.182-5.087,6.517-6.065
	c5.871-1.721,11.647-3.77,17.448-5.727c8.091-2.729,15.572-1.498,22.825,2.914c7.353,4.472,14.898,8.632,22.416,12.828
	c4.875,2.721,5.18,4.152,1.262,8.114c-0.675,0.683-1.627,1.092-2.451,1.628C326.377,255.737,325.488,255.51,324.75,255.727z"/>
<path fill="#231F20" d="M298.972,549.84c1.105,0.3,2.226,0.91,3.311,0.85c9.644-0.532,9.642-0.567,14.468,7.275
	c-12.389,9.524-26.618,8.529-40.894,7.058c-2.907-0.3-3.188-3.518-4.876-5.219c-1.159-1.168,0.547-10.066,1.812-11.034
	c1.618-1.223,3.651-1.202,5.468-1.836c5.565-0.703,11.103-0.665,16.59,0.635c0.529,0.106,1.04,0.282,1.532,0.502
	C297.299,548.577,297.958,549.467,298.972,549.84z"/>
<path fill="#FBDFCA" d="M273.993,467.029c7.699,0.124,15.298-0.986,22.917-1.844c-0.03,0.628-0.059,1.256-0.088,1.884
	c-0.609,2.623-0.745,5.241,0.092,7.848c0.314,1.382,0.627,2.764,0.941,4.146c-0.914,2.225-0.221,4.548-0.416,6.82
	c0.29,1.582,1.299,3.012,0.983,4.721c-0.324,1.639,0.805,3.584-1.048,4.896c-7.877,1.214-15.741,1.816-23.558-0.395
	C273.344,485.743,272.977,476.382,273.993,467.029z"/>
<path fill="#FADFCA" d="M295.911,382.968c2.802,3.132,3.744,7.714,7.734,9.92c0.946,0.794,0.492,2.596,2.099,2.914
	c1.047,3.44,3.996,5.538,5.969,8.324c2.802,3.955,5.658,8.002,9.161,11.297c3.948,3.713,1.722,7.189,0.768,10.882
	c-1.184,0.928-0.766,3.891-3.546,2.793c-4.392-5.394-8.783-10.788-13.175-16.182c-1.222-0.552-1.568-1.562-1.468-2.805
	c-3.65-3.609-5.698-8.711-10.489-11.256c-2.315-3.623-5.663-6.561-7.135-10.745c-0.301-4.286,2.873-6.237,5.668-8.447
	C293.631,379.878,294.478,381.814,295.911,382.968z"/>
<path fill="#282425" d="M294.937,320.067c-4.787-0.684-9.458,0.587-14.19,0.835c-1.92,0.101-4.041,0.626-4.949-1.921
	c0.134-5.778,3.428-6.39,8.009-4.899c3.409,0.27,6.849,0.381,10.015,1.922c0.403,0.286,0.799,0.583,1.188,0.887
	c1.361,0.509,2.722,1.018,4.204,1.573C297.923,319.878,296.252,319.466,294.937,320.067z"/>
<path fill="#F7DCC8" d="M293.795,316.754c-3.392-0.657-6.906-0.857-9.988-2.672c0.712-1.727,1.424-3.453,2.135-5.18
	c3.168-2.538,6.631-1.413,10.052-0.812c-0.291,1.289,0.504,2.835-0.91,3.859C293.517,313.246,295.322,315.447,293.795,316.754z"/>
<path fill="#95847A" d="M278.086,548.146c-1.652,1.166-3.477,0.857-5.294,0.624c0.101-17.603,0.202-35.205,0.304-52.807
	c0.312-0.026,0.624-0.052,0.935-0.079c0.201,0.238,0.402,0.477,0.607,0.713c1.069,2.186,0.838,4.546,0.845,6.858
	c0.034,11.967,0.068,23.934-0.021,35.9C275.437,542.62,275.899,545.604,278.086,548.146z"/>
<path fill="#999797" d="M304.075,390.949c-0.039-9.942-0.092-19.884-0.096-29.826c-0.001-1.093-0.334-2.374,0.939-3.121
	c-0.057,10.98-0.114,21.96-0.171,32.94C304.523,390.944,304.299,390.947,304.075,390.949z"/>
<path fill="#968A84" d="M273.908,495.934c-0.271,0.01-0.542,0.019-0.813,0.028c-0.056-9.661-0.112-19.322-0.168-28.984
	c0.355,0.017,0.711,0.034,1.066,0.05c-0.003,9.265-0.006,18.529-0.008,27.794c0.26,0.266,0.335,0.519,0.226,0.76
	C274.104,495.817,274.004,495.934,273.908,495.934z"/>
<path fill="#97867B" d="M273.908,495.934c0.025-0.37,0.051-0.74,0.076-1.111c7.94,0.023,15.88,0.046,23.82,0.069
	c0.37-0.456,0.705-0.409,1.007,0.073c0.137,0.616-0.211,0.894-0.734,1.049c-0.518,0.373-1.067,0.693-1.645,0.965
	c-7.501,0.377-15.052,1.902-22.418-0.951L273.908,495.934z"/>
<path fill="#999592" d="M324.936,290.042c0.049-6.691,0.097-13.381,0.146-20.072c0.23,0,0.461,0,0.692,0
	C325.536,276.662,327.039,283.427,324.936,290.042z"/>
<path fill="#999797" d="M258.801,357.977c0.042,6.662,0.083,13.324,0.124,19.985c-2.054-6.59-0.641-13.315-0.781-19.979
	C258.363,357.982,258.582,357.98,258.801,357.977z"/>
<path fill="#BDBCBC" d="M298.972,549.84c-0.878,0.208-1.514-0.202-2.072-0.81c-2.325-2.889-0.674-6.519-1.808-9.63
	c-0.253-1.633-0.476-3.264,0.976-4.528c1.806-0.412,1.049,1.409,1.723,1.983C298.615,541.145,296.612,545.691,298.972,549.84z"/>
<path fill="#999492" d="M297.769,511.943c0.01,5.658,0.019,11.316,0.029,16.975c-0.644,0.281-1.138,0.116-1.487-0.493
	c-1.314-5.301-1.288-10.606-0.033-15.915C296.615,511.901,297.113,511.713,297.769,511.943z"/>
<path fill="#988D86" d="M297.769,511.943l-0.339,0.002l-0.339-0.002c-2.814-5.264-2.342-10.584-0.273-15.931
	c0.42,0.001,0.84,0.002,1.26,0.004C297.975,501.324,297.872,506.633,297.769,511.943z"/>
<path fill="#95857A" d="M295.995,308.09c-3.358,0.176-6.825-0.986-10.052,0.812c-0.378-0.98-0.755-1.959-1.133-2.939
	c3.58,1.525,7.411,0.707,11.103,1.189c0.345,0.165,0.458,0.324,0.339,0.478c-0.116,0.151-0.233,0.227-0.354,0.227L295.995,308.09z"
	/>
<path fill="#CBCACB" d="M304.92,358.005c0.232-2.639-3.397-5.747,0.956-7.884C305.632,352.759,306.744,355.56,304.92,358.005z"/>
<path fill="#918B87" d="M266.029,267.902c2.66,0.412,5.461-0.427,8.017,0.903c-3.112-0.196-5.418,0.775-6.045,4.176
	C268.079,271.004,268.054,269.065,266.029,267.902z"/>
<path fill="#969595" d="M305.902,348.87c-1.559-3.281-1.503-6.559,0.017-9.835C305.913,342.313,305.908,345.591,305.902,348.87z"/>
<path fill="#9C9A9B" d="M306.385,329.954c-0.421-1.973,1.39-4.121-0.468-5.982c3.312,1.625,2.578,3.712,0.677,5.932L306.385,329.954
	z"/>
<path fill="#9D9B9B" d="M258.801,357.977c-0.219,0.002-0.438,0.004-0.656,0.006c1.045-2.587-0.024-5.652,1.822-8.057
	C259.886,352.655,260.412,355.471,258.801,357.977z"/>
<path fill="#A9A8A8" d="M297.047,528.918c0.25,0.016,0.5,0.015,0.75-0.001c-0.002,2.646-0.004,5.293-0.006,7.939
	c-0.297-0.642-0.594-1.284-0.89-1.926C295.271,532.886,295.268,530.88,297.047,528.918z"/>
<path fill="#978D88" d="M296.913,474.917c-1.61-2.597-1.333-5.217-0.091-7.848C296.852,469.685,296.883,472.301,296.913,474.917z"/>
<path fill="#AFA6A1" d="M318.097,429.097c1.884-0.043,1.93-2.417,3.547-2.794C320.457,431.261,320.455,431.262,318.097,429.097z"/>
<path fill="#A19B97" d="M324.75,255.727c0.504-0.906,1.387-0.694,2.183-0.741c-0.326,1.977,0.878,4.208-0.982,5.93
	C325.632,259.167,326.673,257.104,324.75,255.727z"/>
<path fill="#9F9D9D" d="M306.385,329.954c0,0,0.214-0.049,0.212-0.049c0.279,2.422,1.198,4.905-0.675,7.125
	C306.035,334.669,305.549,332.268,306.385,329.954z"/>
<path fill="#978D87" d="M297.056,485.938c0.159-2.304-1.002-4.762,0.799-6.876c0.014,2.297,0.028,4.594,0.041,6.89
	C297.608,486.424,297.328,486.419,297.056,485.938z"/>
<path fill="#9C928B" d="M295.897,307.858c0.012-0.235,0.017-0.471,0.016-0.706c2.353,0.033,4.822-1.013,6.991,0.748
	C300.568,307.886,298.232,307.872,295.897,307.858z"/>
<path fill="#948981" d="M269.905,278.947c1.735,1.549,0.879,3.966,1.924,5.746C269.194,283.445,270.033,281.035,269.905,278.947z"/>
<path fill="#ACA4A0" d="M304.075,390.949c0.224,0,0.449-0.002,0.673-0.008c0.175,1.653-0.004,3.379,0.998,4.861
	c-2.419,0.264-2.256-1.326-2.098-2.914C303.789,392.242,303.932,391.595,304.075,390.949z"/>
<path fill="#98897E" d="M325.774,269.97l-0.346,0.005l-0.346-0.005c0.094-1.665-0.953-3.516,0.805-4.908
	C325.849,266.698,325.811,268.334,325.774,269.97z"/>
<path fill="#DAD9D9" d="M303.454,410.11c0.49,0.935,0.979,1.871,1.469,2.806c-0.393,0.446-0.787,0.892-1.18,1.339
	C302.519,412.951,302.705,411.55,303.454,410.11z"/>
<path fill="#A2A0A0" d="M260.991,344.682c-0.25,1.8,0.733,3.848-1.071,5.337C260.077,348.2,259.272,346.188,260.991,344.682z"/>
<path fill="#978A82" d="M293.795,316.754c0.413-1.606-0.505-3.568,1.288-4.804c-0.024,1.647-0.048,3.295-0.073,4.943
	C294.605,316.846,294.2,316.8,293.795,316.754z"/>
<path fill="#ADACAC" d="M297.056,485.938c0.28,0.021,0.56,0.026,0.84,0.015c0.732,1.253,1.205,2.565,0.915,4.049
	c-0.276,0.422-0.546,0.398-0.809-0.012C297.686,488.639,297.371,487.289,297.056,485.938z"/>
<path fill="#968E8A" d="M298.001,489.99c0.271-0.028,0.541-0.024,0.81,0.012c0,1.655,0,3.309,0,4.964
	c-0.336-0.024-0.67-0.048-1.007-0.072C297.87,493.258,297.936,491.624,298.001,489.99z"/>
<path fill="#B5AEA8" d="M278.916,301.909c1.759,0.174,3.085,0.778,2.883,2.9C280.521,304.157,279.492,303.258,278.916,301.909z"/>
<path fill="#938A83" d="M268.777,274.988c2.699,0.68,0.522,2.772,1.172,4.045C268.227,278.071,269.249,276.313,268.777,274.988z"/>
<path fill="#969494" d="M259.908,381.807c1.052,1.177,1.453,2.519,1.034,4.069C259.522,384.792,260.071,383.209,259.908,381.807z"/>
<path fill="#A69486" d="M287.072,269.327c-1.368,0.792-2.777,0.82-4.32,0.321C284.191,268.283,285.667,269.449,287.072,269.327z"/>
<path fill="#A69386" d="M279.739,270.611c0,2.338,0,3.436,0,4.939C278.598,274.048,278.851,272.899,279.739,270.611z"/>
<path fill="#FEFEFE" d="M294.827,337.94c3.344,0.692,1.716,3.327,2.033,5.203c-2.22,3.035,0.321,6.293-0.439,9.409
	c-0.249,5.776,0.518,11.567-0.448,17.313c-0.656,1.238-1.834,1.083-2.946,1.105c-4.27-0.608-8.163-2.507-12.298-3.586
	c-0.867-1.452-2.42-1.832-3.83-2.435l0.089,0.051c-1.829-0.645-2.856-1.69-2.582-3.876c0.238-1.894,0.04-3.841,0.056-5.764
	c0.189-1.971,0.833-3.866,0.99-5.844c0.007-1.99,0.26-4.021-0.057-5.958c-0.49-2.99,1.049-4.186,3.522-4.862
	c3.302-0.801,6.84,0.725,10.047-1.021C290.93,337.512,292.906,337.112,294.827,337.94z"/>
<path fill="#FADECA" d="M280.903,366.951c4.41,0.225,8.549,1.269,12.122,4.019c0.301,1.943,0.601,3.886,0.9,5.829
	c0.666,1.927,1.166,3.748-2.049,3.157c-1.959,2.759-4.786,4.873-6.046,8.152c-3.462-2.785-2.823-7.16-4.033-10.792
	c-0.757-2.272-0.64-4.843-1.853-7.049C279.611,368.973,278.469,367.446,280.903,366.951z"/>
<path fill="#999798" d="M295.972,369.865c0.019-6.284,0.038-12.569,0.057-18.853c0.263-0.489,0.512-0.482,0.747,0.021
	C296.539,357.312,298.09,363.667,295.972,369.865z"/>
<path fill="#9B9999" d="M278.869,338.711c-4.925,2.671-2.153,7.437-3.05,11.205c-0.254,0.517-0.531,0.529-0.831,0.038
	c-0.02-2.296,0.186-4.623-0.114-6.882c-0.435-3.266,1.182-4.378,4.03-4.577L278.869,338.711z"/>
<path fill="#B5B4B4" d="M296.777,351.033c-0.249-0.02-0.498-0.028-0.748-0.022c-0.344-2.409-0.81-4.809-0.993-7.23
	c-0.137-1.809,0.949-1.164,1.825-0.64C296.832,345.773,296.804,348.403,296.777,351.033z"/>
<path fill="#9A9898" d="M274.885,354.999c0.767,3.32-1.609,7.301,2.103,10.001c-1.83,0.105-3.241-0.163-3.076-2.578
	c0.168-2.453,0.114-4.922,0.157-7.384C274.317,354.531,274.588,354.494,274.885,354.999z"/>
<path fill="#98908B" d="M291.877,379.956c2.412,0.071,2.001-1.691,2.049-3.156c1.469,1.796,1.249,4.136,1.986,6.168
	C293.728,383.086,292.922,381.361,291.877,379.956z"/>
<path fill="#9F9D9D" d="M278.869,338.711c0,0,0.035-0.22,0.035-0.218c3.343-0.323,6.686-0.647,10.029-0.971l-0.042,0.029
	C285.818,340.25,282.253,338.695,278.869,338.711z"/>
<path fill="#A4A0A0" d="M280.903,366.951c-1.279,0.827-0.806,2.16-0.958,3.315c-1.623-1.423-0.675-4.32-3.046-5.317
	C278.501,365.081,280.563,364.294,280.903,366.951z"/>
<path fill="#BDBBBC" d="M274.885,354.999c-0.273-0.011-0.545,0.002-0.816,0.039c-0.322-1.809-0.002-3.501,0.92-5.085
	c0.278,0.014,0.555,0.001,0.831-0.038C276.128,351.724,275.826,353.42,274.885,354.999z"/>
<path fill="#9B9999" d="M288.891,337.551c0,0,0.043-0.033,0.043-0.031c2.01-0.496,4.048-1.387,5.894,0.421
	C292.848,337.81,290.87,337.681,288.891,337.551z"/>
<path fill="#FBDFCA" d="M297.047,528.918c-0.049,2.004-0.097,4.008-0.146,6.013c-1.335,1.169-0.801,2.697-0.794,4.123
	c0.42,3.264,0.714,6.526-0.217,9.76c-5.924-0.521-11.839-1.273-17.805-0.668c-2.966,0.14-4.278-0.841-4.232-4.235
	c0.218-15.959,0.136-31.921,0.161-47.882c7.601-0.006,15.202-0.012,22.803-0.018c0.09,5.311,0.181,10.621,0.272,15.932
	C297.076,517.601,297.062,523.259,297.047,528.918z"/>
<path fill="#C4AE9F" d="M295.89,548.813c0.072-3.254,0.143-6.508,0.216-9.761c1.646,3.217,0.455,6.658,0.794,9.978
	C296.563,548.958,296.227,548.886,295.89,548.813z"/>
</svg>
