<?xml version="1.0" encoding="utf-8"?>
<!-- Generator: Adobe Illustrator 17.0.0, SVG Export Plug-In . SVG Version: 6.00 Build 0)  -->
<!DOCTYPE svg PUBLIC "-//W3C//DTD SVG 1.1//EN" "http://www.w3.org/Graphics/SVG/1.1/DTD/svg11.dtd">
<svg version="1.1" id="Layer_1" xmlns="http://www.w3.org/2000/svg" xmlns:xlink="http://www.w3.org/1999/xlink" x="0px" y="0px"
	 width="612px" height="792px" viewBox="0 0 612 792" enable-background="new 0 0 612 792" xml:space="preserve">
<path fill="#FDFDFD" d="M307.436,147c169.312,0,338.624,0.014,507.936-0.094c3.749-0.002,4.596,0.844,4.593,4.593
	c-0.109,163.979-0.109,327.959,0,491.938c0.002,3.749-0.845,4.594-4.593,4.593c-338.624-0.1-677.249-0.1-1015.873,0
	c-3.749,0.001-4.596-0.844-4.593-4.593c0.109-163.979,0.109-327.959,0-491.938c-0.002-3.749,0.844-4.596,4.593-4.593
	C-31.189,147.014,138.124,147,307.436,147z"/>
<path fill="#231F20" d="M276.856,467.061c-0.663-0.059-1.324-0.129-1.988-0.175c-8.865-0.615-10.897-2.399-10.811-11.313
	c0.204-21.15,0.741-42.296,1.143-63.444c5.93,1.24,11.297,4.382,17.507,4.846c3.107,0.232,6.27,0.448,9.359,1.041
	c6.236,1.676,8.94,6.848,11.766,11.908c0.607,1.456-0.545,2.874-0.089,4.329c2.086,10.731,4.207,21.455,6.227,32.198
	c0.407,2.167,2.219,4.803-1.886,5.867c-1.571,0.407-0.376,2.352-0.345,3.584c0.05,1.989,0.242,3.974,0.375,5.961
	c0.293,0.547,0.225,1.044-0.202,1.494c-2.789,2.078-6.276,1.821-9.393,2.818c-6.716,0.737-13.322,2.741-20.188,1.771
	C277.811,467.7,277.32,467.403,276.856,467.061z"/>
<path fill="#FBDFCA" d="M284.809,305.963c-1.003-0.385-2.007-0.771-3.01-1.156c-0.615-1.31-1.77-2.083-2.883-2.899
	c-3.733-5.175-6.859-10.599-7.087-17.216c-1.842-1.513-0.844-3.977-1.923-5.746l0.044,0.086c-1.178-1.12,0.343-3.022-1.172-4.045
	c-0.682-0.505-0.871-1.2-0.776-2.006c0.178-3.428,1.353-5.844,5.409-5.342c3.522,0.386,6.427-0.786,9.094-3.13
	c2.866-2.518,6.029-4.705,8.894-7.228c3.062-2.696,6.364-3.322,10.16-1.946c2.03,0.736,4.208,1.062,6.21,1.832
	c3.814,1.467,7.401,1.271,11.078-0.485c2.053-0.981,4.223-2.105,6.672-1.111c1.475,1.674,1.019,3.503,0.432,5.343
	c-0.021,1.382-0.043,2.764-0.064,4.146c-0.951,1.905-0.252,3.941-0.469,5.908c-0.279,6.357,0.59,12.739-0.481,19.072
	c-2.516,10.05-9.785,14.715-19.199,16.967c-0.961,0.23-1.89,0.591-2.834,0.891c-2.439-0.811-4.906-0.463-7.373-0.172
	C291.673,308.852,288.022,308.735,284.809,305.963z"/>
<path fill="#FEFEFE" d="M292.965,398.854c-9.788-0.042-19.471-0.516-27.765-6.724c-1.419-2.085-2.839-4.17-4.258-6.255
	c-0.624-1.285-0.154-2.848-1.034-4.068c-0.085-1.343,0.475-2.851-0.982-3.843c-1.035-6.433-0.204-12.912-0.465-19.362
	c1.124-2.782,0.664-5.842,1.505-8.676l-0.046,0.093c1.258-1.598-0.154-3.732,1.071-5.337c2.287-6.788,4.02-13.777,7.264-20.22
	c1.566-3.11,3.346-5.971,7.543-5.481c3.751,0.467,7.46,0.342,11.223-0.194c2.659-0.378,5.577-0.946,7.916,1.279
	c3.66,1.302,7.32,2.604,10.98,3.906c2.94,1.98,0.801,4.357,0.516,6.591c-0.275,2.148,0.536,4.381-0.511,6.467
	c-0.001,0.668-0.002,1.336-0.003,2.005c-0.831,3.277-0.794,6.555-0.017,9.835c-0.009,0.418-0.017,0.836-0.026,1.253
	c-2.291,2.388,0.202,5.357-0.956,7.882l-0.002-0.004c-1.152,10.639-0.17,21.312-0.497,31.96c-0.003,0.846,0.016,1.697-0.042,2.542
	c-1.978,2.204-3.215,0.233-4.199-0.99c-2.014-2.504-3.871-5.152-5.356-8.027c-0.632-2.173-1.078-4.401-1.8-6.554
	c-0.507-1.945-1.487-3.854-0.503-5.926c0.767-0.992,1.947-1.599,2.536-2.758c1.087-5.676,0.227-11.394,0.484-17.077
	c0.018-2.398,0.023-4.796,0.033-7.188c-0.029-1.791,0.346-3.696-1.384-5.018c-1.736-1.018-3.563-0.636-5.383-0.374
	c-2.98,1.013-6.094,0.567-9.132,0.879c-2.529,0.422-3.554,1.916-3.434,4.463c0.092,1.949,0.102,3.919-0.203,5.866
	c-0.369,1.641-0.86,3.263-0.77,4.973c0.379,3.016-1.216,6.3,1.252,9.023c0.393,0.229,0.765,0.482,1.138,0.738
	c2.033,1.102,2.308,3.309,3.234,5.11c2.228,4.252,1.892,9.185,3.621,13.6c0.59,1.506,0.936,3.082,1.997,4.362
	C288.241,391.597,292.611,394.076,292.965,398.854z"/>
<path fill="#231F20" d="M324.75,255.727c-7.882,4.862-15.934,4.376-24.06,0.714c-3.05-1.374-5.52-0.86-8.035,1.463
	c-3.169,2.926-6.866,5.281-10.032,8.209c-2.543,2.352-5.23,3.342-8.577,2.692c-2.58-1.117-5.493,0.715-8.017-0.903
	c-1.942-3.077-3.672-6.314-5.87-9.195c-4.283-5.615-4.574-11.155-1.243-17.413c1.583-2.973,3.182-5.087,6.517-6.065
	c5.871-1.721,11.647-3.77,17.448-5.727c8.091-2.729,15.572-1.498,22.825,2.914c7.353,4.472,14.898,8.632,22.416,12.828
	c4.875,2.721,5.18,4.152,1.262,8.114c-0.675,0.683-1.627,1.092-2.451,1.628C326.377,255.737,325.488,255.51,324.75,255.727z"/>
<path fill="#231F20" d="M300.967,548.9c1.711,1.042,3.698,2.393,5.526,1.716c7.793-2.886,11.328,1.72,14.234,7.387
	c-12.352,9.28-26.421,8.616-40.608,7.038c-2.968-0.33-6.2-5.857-5.239-9.021c1.031-3.396,0.263-4.968-3.423-5.823
	c-9.008-2.091-15.809-8.307-23.176-13.364c-3.011-2.067-2.394-8.505,0.631-10.851c4.769,0.933,9.084,3.136,13.563,4.874
	c3.42,1.327,6.824,2.648,10.597,2.412c1.924,0.421,3.103,1.732,4.026,3.349c1.133,2.135,1.267,4.477,1.126,6.794
	c-0.211,3.454,1.132,4.641,4.438,3.443c5.683-0.524,11.346-0.82,16.871,1.071C300.039,548.209,300.516,548.535,300.967,548.9z"/>
<path fill="#FBDFCA" d="M272.962,533.811c-1.082,0.253-1.871,1.639-3.117,1.079c-6.92-3.106-14.579-4.478-20.934-8.908
	c5.902-8.619,11.7-17.312,17.75-25.826c3.092-4.351,6.884-8.209,9.053-13.193c2.219-0.226,2.266,1.489,2.469,2.905
	c0.283,1.981,0.144,3.992,0.172,5.989c-0.041,8.578,0.014,17.158-0.03,25.739c-0.011,2.139,0.073,4.303-0.84,6.323
	C276.574,530.335,275.593,532.707,272.962,533.811z"/>
<path fill="#FBDFCA" d="M278.017,467.071c6.973-0.648,13.946-1.296,20.919-1.945c1.054,0.859,1.554,2.038,1.916,3.299
	c0.508,2.014,0.356,4.074,0.432,6.118c-0.02,1.247,0.2,2.459,0.561,3.65c0.48,2.138,0.387,4.307,0.36,6.469
	c-0.087,1.503-0.015,2.983,0.722,4.355c0.117,0.406,0.172,0.822,0.171,1.245c-0.364,1.581,0.474,3.469-1.204,4.714
	c-1.95,1.747-4.377,1.479-6.651,1.343c-5.743-0.342-11.599,1.128-17.229-1.027c-1.211-5.016-0.36-10.109-0.559-15.163
	C277.771,475.784,276.811,471.381,278.017,467.071z"/>
<path fill="#FADFCA" d="M295.911,382.968c2.802,3.132,3.744,7.714,7.734,9.92c0.946,0.794,0.492,2.596,2.099,2.914
	c1.047,3.44,3.996,5.538,5.969,8.324c2.802,3.955,5.658,8.002,9.161,11.297c3.948,3.713,1.722,7.189,0.768,10.882
	c-1.184,0.928-0.766,3.891-3.546,2.793c-4.392-5.394-8.783-10.788-13.175-16.182c-1.222-0.552-1.568-1.562-1.469-2.805
	c-3.649-3.609-5.698-8.711-10.489-11.256c-2.315-3.623-5.663-6.561-7.135-10.745c-0.301-4.286,2.873-6.237,5.668-8.447
	C293.631,379.878,294.478,381.814,295.911,382.968z"/>
<path fill="#F9DEC9" d="M299.744,467.962c-0.95-0.751-0.792-1.818-0.807-2.835c2.809-1.482,6.019-1.394,8.977-2.293
	c1.311,1.894-0.331,4.299,1.068,6.178l-0.062-0.12c1.401,1.822-0.543,4.298,1.185,6.055c1.551,1.879,0.588,4.063,0.74,6.112
	c-2.732,1.367-5.53,1.734-8.428,0.56c-1.135-0.709-0.914-1.869-0.968-2.934c-0.116-1.245-0.787-2.347-0.967-3.575
	C300.083,472.747,301.228,470.219,299.744,467.962z"/>
<path fill="#282425" d="M294.937,320.067c-4.787-0.684-9.458,0.587-14.19,0.835c-1.92,0.101-4.041,0.626-4.949-1.921
	c0.134-5.778,3.428-6.39,8.009-4.899c3.409,0.27,6.849,0.381,10.015,1.922c0.403,0.286,0.799,0.583,1.189,0.888
	c1.361,0.509,2.722,1.018,4.204,1.573C297.923,319.878,296.252,319.466,294.937,320.067z"/>
<path fill="#F7DCC8" d="M293.795,316.754c-3.392-0.657-6.906-0.857-9.988-2.672c0.712-1.727,1.424-3.453,2.136-5.18
	c3.168-2.538,6.631-1.413,10.052-0.812c-0.291,1.289,0.504,2.835-0.91,3.859C293.517,313.246,295.322,315.447,293.795,316.754z"/>
<path fill="#F3D8C4" d="M308.94,482.96c-2.604,1.908-2.225,6.203-5.843,7.301c0.001,0.003-0.152-0.278-0.152-0.278
	c-1.031-1.329-0.958-3.016-1.465-4.517c0.154-1.315-0.548-2.79,0.735-3.892C304.429,482.177,307.267,479.746,308.94,482.96z"/>
<path fill="#999797" d="M304.075,390.949c-0.039-9.942-0.092-19.884-0.096-29.826c-0.001-1.093-0.334-2.374,0.939-3.121
	c-0.057,10.98-0.114,21.96-0.171,32.94C304.523,390.944,304.299,390.947,304.075,390.949z"/>
<path fill="#99928E" d="M301.76,496.939c0.01,9.657,0.019,19.315,0.029,28.972c-0.682,0.263-1.192,0.07-1.533-0.575
	c-1.396-9.239-1.354-18.481-0.035-27.727C300.553,496.969,301.067,496.746,301.76,496.939z"/>
<path fill="#97867C" d="M301.76,496.939c-0.217,0.002-0.435,0-0.652-0.005c-7.567,0.641-15.137,1.394-22.652-0.484
	c-0.536-0.428-0.692-0.969-0.472-1.618c7.97,0.049,15.94,0.097,23.91,0.146C301.849,495.632,301.805,496.285,301.76,496.939z"/>
<path fill="#CFB8A8" d="M301.726,534.846c0.013,4.082,0.799,8.209-0.714,12.201c-1.283-0.885-1.657-2.286-2.093-3.658
	c-0.229-4.219-1.606-8.551,1.154-12.495C302.668,531.355,300.678,533.736,301.726,534.846z"/>
<path fill="#999797" d="M258.801,357.977c0.042,6.662,0.083,13.324,0.125,19.986c-2.052-6.59-0.651-13.315-0.782-19.98
	C258.363,357.981,258.582,357.979,258.801,357.977z"/>
<path fill="#999592" d="M324.936,290.042c0.049-6.691,0.097-13.381,0.146-20.072c0.23,0,0.461,0,0.692,0
	C325.536,276.662,327.039,283.427,324.936,290.042z"/>
<path fill="#97887F" d="M277.984,494.832c0.009,0.403,0.017,0.807,0.026,1.21c-0.162,0.09-0.324,0.18-0.486,0.27
	c-0.144-0.116-0.289-0.232-0.433-0.348c-0.893-2.934,1.102-6.309-1.375-9c1.786-2.069,0.976-4.655,1.39-6.997
	c0.227,0,0.455,0,0.682,0C277.853,484.921,277.919,489.876,277.984,494.832z"/>
<path fill="#95857A" d="M295.995,308.09c-3.358,0.176-6.825-0.986-10.052,0.812c-0.378-0.98-0.755-1.959-1.133-2.939
	c3.58,1.525,7.411,0.707,11.103,1.189c0.345,0.165,0.458,0.324,0.339,0.478c-0.116,0.151-0.233,0.227-0.354,0.227L295.995,308.09z"
	/>
<path fill="#CBCACB" d="M304.92,358.005c0.232-2.639-3.397-5.747,0.956-7.884C305.632,352.759,306.744,355.56,304.92,358.005z"/>
<path fill="#968C87" d="M277.788,479.966l-0.341-0.002c0,0-0.341,0.002-0.341,0.002c-0.083-4.302-0.167-8.603-0.25-12.905
	c0.387,0.003,0.775,0.007,1.162,0.01C277.941,471.37,277.864,475.668,277.788,479.966z"/>
<path fill="#918B87" d="M266.029,267.902c2.66,0.412,5.461-0.427,8.017,0.903c-3.112-0.196-5.418,0.775-6.045,4.176
	C268.079,271.004,268.055,269.065,266.029,267.902z"/>
<path fill="#9A8A81" d="M308.94,482.96c-2.11-1.913-4.562-0.797-6.89-0.778c-0.486-0.388-0.518-0.81-0.097-1.267
	c2.964,0.048,5.928,0.096,8.891,0.144C310.539,482.022,309.958,482.71,308.94,482.96z"/>
<path fill="#969595" d="M305.902,348.87c-1.559-3.281-1.503-6.559,0.017-9.835C305.913,342.313,305.908,345.591,305.902,348.87z"/>
<path fill="#9D9B9B" d="M258.801,357.977c-0.219,0.002-0.438,0.004-0.657,0.006c1.047-2.586-0.024-5.651,1.822-8.057
	C259.886,352.654,260.411,355.47,258.801,357.977z"/>
<path fill="#A9A8A8" d="M301.726,534.846c-1.176-1.113-0.595-2.592-0.814-3.904c-1.436-1.719-1.419-3.397,0.142-5.031
	c0.245,0.016,0.49,0.016,0.735,0C301.768,528.889,301.747,531.868,301.726,534.846z"/>
<path fill="#9C9A9B" d="M306.385,329.954c-0.421-1.973,1.39-4.121-0.468-5.982c3.312,1.625,2.578,3.712,0.677,5.932L306.385,329.954
	z"/>
<path fill="#AFA6A1" d="M318.097,429.097c1.884-0.043,1.93-2.418,3.547-2.794C320.457,431.261,320.455,431.262,318.097,429.097z"/>
<path fill="#9C918B" d="M310.105,474.947c-1.148-1.104-1.148-1.104-1.185-6.055C310.729,470.633,309.553,472.959,310.105,474.947z"
	/>
<path fill="#A19B97" d="M324.75,255.727c0.504-0.906,1.387-0.694,2.183-0.741c-0.326,1.977,0.878,4.208-0.982,5.93
	C325.632,259.167,326.673,257.104,324.75,255.727z"/>
<path fill="#ACA4A0" d="M304.075,390.949c0.224,0,0.449-0.002,0.673-0.008c0.175,1.653-0.004,3.379,0.998,4.861
	c-2.419,0.264-2.256-1.326-2.098-2.914C303.789,392.242,303.932,391.595,304.075,390.949z"/>
<path fill="#948981" d="M269.905,278.947c1.735,1.549,0.879,3.966,1.924,5.746C269.194,283.445,270.033,281.035,269.905,278.947z"/>
<path fill="#9C928B" d="M295.897,307.858c0.012-0.235,0.017-0.471,0.016-0.706c2.353,0.033,4.822-1.013,6.991,0.748
	C300.568,307.886,298.232,307.872,295.897,307.858z"/>
<path fill="#988D87" d="M308.982,469.012c-1.87-1.798-0.71-4.119-1.068-6.178c0.067-0.324,0.134-0.647,0.201-0.971
	C309.683,464.091,308.607,466.64,308.982,469.012z"/>
<path fill="#9F9D9D" d="M306.385,329.954c0,0,0.214-0.049,0.212-0.049c0.279,2.422,1.198,4.905-0.675,7.125
	C306.035,334.669,305.549,332.268,306.385,329.954z"/>
<path fill="#98897E" d="M325.774,269.97l-0.346,0.005c0,0-0.346-0.005-0.346-0.005c0.094-1.665-0.953-3.516,0.805-4.908
	C325.849,266.698,325.811,268.334,325.774,269.97z"/>
<path fill="#969494" d="M259.908,381.807c1.052,1.177,1.453,2.519,1.034,4.068C259.522,384.792,260.071,383.209,259.908,381.807z"/>
<path fill="#DAD9D9" d="M303.454,410.11c0.49,0.935,0.979,1.871,1.469,2.806c-0.393,0.446-0.787,0.892-1.18,1.339
	C302.519,412.951,302.705,411.55,303.454,410.11z"/>
<path fill="#978A82" d="M293.795,316.754c0.413-1.606-0.505-3.568,1.288-4.804c-0.024,1.647-0.048,3.295-0.073,4.943
	C294.605,316.846,294.2,316.8,293.795,316.754z"/>
<path fill="#A2A0A0" d="M260.991,344.682c-0.25,1.8,0.733,3.848-1.071,5.337C260.077,348.2,259.272,346.188,260.991,344.682z"/>
<path fill="#938A83" d="M268.777,274.988c2.697,0.68,0.526,2.771,1.172,4.045C268.227,278.071,269.249,276.313,268.777,274.988z"/>
<path fill="#B5AEA8" d="M278.916,301.909c1.759,0.174,3.085,0.778,2.883,2.9C280.521,304.157,279.492,303.258,278.916,301.909z"/>
<path fill="#B9A496" d="M300.009,543.987c1.126,0.76,0.793,1.998,1.002,3.059c-0.015,0.618-0.03,1.235-0.045,1.853
	c-0.363-0.029-0.727-0.057-1.09-0.086C298.614,547.169,298.511,545.556,300.009,543.987z"/>
<path fill="#A69486" d="M286.998,269.777c-1.42,0-2.84,0-4.825,0C284.186,268.641,285.674,268.906,286.998,269.777z"/>
<path fill="#A69386" d="M279.55,275.554c-0.836-1.507-0.695-2.603-0.31-3.759C280.498,272.762,279.903,273.908,279.55,275.554z"/>
<path fill="#FEFEFE" d="M295.972,369.865c-0.656,1.238-1.834,1.083-2.946,1.105c-4.27-0.608-8.163-2.507-12.298-3.586
	c-0.867-1.452-2.42-1.832-3.83-2.435l0.089,0.051c-1.829-0.645-2.856-1.69-2.582-3.876c0.238-1.894,0.04-3.841,0.056-5.764
	c0.189-1.971,0.833-3.866,0.99-5.844c0.007-1.99,0.26-4.021-0.057-5.958c-0.49-2.99,1.049-4.186,3.522-4.862
	c3.302-0.801,6.84,0.724,10.047-1.021c1.966-0.163,3.942-0.563,5.863,0.265c3.344,0.692,1.716,3.327,2.033,5.203
	c-2.22,3.035,0.321,6.293-0.439,9.409C296.172,358.328,296.939,364.119,295.972,369.865z"/>
<path fill="#FADECA" d="M280.903,366.951c4.41,0.225,8.549,1.269,12.122,4.019c0.301,1.943,0.601,3.886,0.9,5.829
	c0.666,1.927,1.166,3.748-2.049,3.157c-1.959,2.759-4.786,4.873-6.046,8.152c-3.462-2.785-2.823-7.16-4.033-10.792
	c-0.757-2.272-0.64-4.843-1.853-7.049C279.611,368.973,278.469,367.446,280.903,366.951z"/>
<path fill="#999798" d="M295.972,369.865c0.019-6.284,0.038-12.569,0.057-18.853c0.263-0.489,0.512-0.482,0.747,0.021
	C296.539,357.312,298.09,363.667,295.972,369.865z"/>
<path fill="#9B9999" d="M278.869,338.711c-4.925,2.671-2.153,7.437-3.05,11.205c-0.254,0.517-0.531,0.529-0.831,0.038
	c-0.02-2.296,0.186-4.623-0.114-6.882c-0.435-3.266,1.182-4.378,4.03-4.577L278.869,338.711z"/>
<path fill="#B5B4B4" d="M296.777,351.033c-0.249-0.02-0.498-0.028-0.748-0.022c-0.344-2.409-0.81-4.809-0.993-7.23
	c-0.137-1.809,0.949-1.164,1.825-0.64C296.832,345.773,296.804,348.403,296.777,351.033z"/>
<path fill="#9A9898" d="M274.885,354.999c0.767,3.32-1.609,7.301,2.103,10.001c-1.83,0.105-3.241-0.163-3.076-2.578
	c0.168-2.453,0.114-4.922,0.157-7.384C274.317,354.531,274.588,354.494,274.885,354.999z"/>
<path fill="#98908B" d="M291.877,379.956c2.412,0.071,2.001-1.691,2.049-3.156c1.469,1.796,1.249,4.136,1.986,6.168
	C293.728,383.086,292.922,381.361,291.877,379.956z"/>
<path fill="#9F9D9D" d="M278.869,338.711c0,0,0.035-0.22,0.035-0.218c3.343-0.323,6.686-0.647,10.029-0.971l-0.042,0.029
	C285.818,340.25,282.253,338.695,278.869,338.711z"/>
<path fill="#A4A0A0" d="M280.903,366.951c-1.279,0.827-0.806,2.16-0.958,3.315c-1.623-1.423-0.675-4.32-3.046-5.317
	C278.501,365.081,280.563,364.294,280.903,366.951z"/>
<path fill="#BDBBBC" d="M274.885,354.999c-0.273-0.011-0.545,0.002-0.816,0.039c-0.322-1.809-0.002-3.501,0.92-5.085
	c0.278,0.014,0.555,0.001,0.831-0.038C276.128,351.724,275.826,353.42,274.885,354.999z"/>
<path fill="#9B9999" d="M288.891,337.551c0,0,0.043-0.033,0.043-0.031c2.01-0.496,4.048-1.387,5.894,0.421
	C292.848,337.81,290.87,337.681,288.891,337.551z"/>
<path fill="#FBDFCA" d="M300.009,543.987c-0.044,1.609-0.089,3.217-0.133,4.826c-5.926-0.526-11.843-1.272-17.811-0.666
	c-2.35,0.406-4.461,1.08-4.682-2.797c-0.912-16.007,0.593-31.997,0.099-47.994c-0.017-0.553,0.321-0.917,0.54-1.351
	c0,0-0.012,0.036-0.012,0.036c6.479-0.026,12.958-0.072,19.437-0.063c1.276,0.002,2.705-0.367,3.661,0.956
	c-0.018,9.659-0.036,19.318-0.054,28.977c-0.047,1.677-0.094,3.354-0.141,5.031C298.937,535.174,300.33,539.64,300.009,543.987z"/>
<path fill="#95847B" d="M278.022,496.005c-0.027,15.963,0.045,31.927-0.163,47.887c-0.043,3.341,1.182,4.437,4.206,4.255
	c-3.891,1.96-5.412,0.722-5.179-3.559c0.141-2.588,0.558-5.295-0.805-7.766c-0.524-2.638-0.119-5.29-0.118-7.936
	c1.886-5.787,0.709-11.745,0.945-17.621c0.205-5.095,0.132-10.201,0.182-15.302C277.401,495.967,277.712,495.981,278.022,496.005z"
	/>
<path fill="#F3F3F3" d="M275.963,528.886c1.596,2.622,1.469,5.27,0.118,7.936c-0.88-1.169-1.673-2.428-3.118-3.012
	C273.963,532.169,274.963,530.528,275.963,528.886z"/>
<path fill="#98877D" d="M299.744,467.962c0.052-0.152,0.067-0.334,0.163-0.448c0.165-0.196,0.381-0.349,0.575-0.521
	c0.963,2.606,0.247,5.3,0.421,7.947c-0.311,0.475-0.602,0.487-0.868-0.039C299.938,472.589,299.841,470.275,299.744,467.962z"/>
<path fill="#95847A" d="M301.954,480.914c0.032,0.422,0.064,0.843,0.096,1.266c-0.051,1.257-0.102,2.512-0.153,3.768
	c-0.318,0.343-0.607,0.321-0.867-0.068c-0.011-2.638-0.023-5.276-0.034-7.915c0.301-0.34,0.553-0.29,0.764,0.096
	C301.825,479.013,301.889,479.964,301.954,480.914z"/>
<path fill="#C8B1A2" d="M301.03,485.881c0.286,0.062,0.575,0.084,0.867,0.068c1.428,1.064,0.972,2.618,1.048,4.034
	C301.042,489.206,300.808,487.65,301.03,485.881z"/>
<path fill="#BEA99A" d="M301.76,478.062c-0.254-0.035-0.509-0.067-0.764-0.096c-1.183-0.75-1.089-1.902-0.962-3.064
	c0.288,0.044,0.578,0.057,0.868,0.039C301.416,475.919,302.058,476.861,301.76,478.062z"/>
</svg>
