<?xml version="1.0" encoding="utf-8"?>
<!-- Generator: Adobe Illustrator 17.0.0, SVG Export Plug-In . SVG Version: 6.00 Build 0)  -->
<!DOCTYPE svg PUBLIC "-//W3C//DTD SVG 1.1//EN" "http://www.w3.org/Graphics/SVG/1.1/DTD/svg11.dtd">
<svg version="1.1" id="Layer_1" xmlns="http://www.w3.org/2000/svg" xmlns:xlink="http://www.w3.org/1999/xlink" x="0px" y="0px"
	 width="612px" height="792px" viewBox="0 0 612 792" enable-background="new 0 0 612 792" xml:space="preserve">
<path fill="#231F20" d="M252.096,451.931c-0.031-0.163-0.002-0.408-0.1-0.479c-8.856-6.393-11.209-5.332-3.823-19.348
	c4.842-9.189,9.752-18.421,16.751-26.275c1.798-0.004,1.689,1.039,1.132,2.726c1.981-4.224,6.042-6.92,5.548-11.867
	c-0.085-0.847,0.984-1.167,1.852-1.234c9.64,1.418,19.241,3.406,29.066,1.769c0.541,0.085,1.043,0.275,1.509,0.562
	c9.465,14.117,17.698,28.963,26.135,43.697c2.324,4.059,2.611,6.55-1.896,8.783c-1.199,0.594-2.787,1.108-3.352,2.676
	c-4.47,5.57-11.12,7.779-17.063,11.082c-1.314,0.513-2.752,0.259-4.087,0.663c-8.407,2.313-8.407,2.313-16.69-12.375
	c-0.275,0.068-0.766,0.091-0.792,0.213c-1.612,7.542-5.807,10.488-13.342,7.572C265.434,458.806,258.487,456.077,252.096,451.931z"
	/>
<path fill="#FEFEFE" d="M302.89,397.89c-4.026,2.191-8.335,1.615-12.604,1.236c-5.889-0.522-11.799-0.972-17.388-3.16
	c-0.599-0.291-1.327-0.526-1.593-1.144c-4.256-9.891-8.347-19.841-10.355-30.501c0.426-2.068,1.911-3.423,3.269-4.865
	c1.581-1.313,2.796-3.286,5.281-3.011c1.182,0.38,1.768,1.764,3.124,1.85c3.535-1.963,5.959-5.057,8.422-8.11
	c3.177-4.043,6.988-7.497,10.487-11.239c1.781-1.905,1.809-3.338-0.21-4.921c-3.767-2.952-7.157-6.374-11.196-8.958
	c-1.526,0.019-1.978,1.398-2.841,2.245c-0.933,0.91-1.881,1.803-3.022,2.457c-1.914,0.716-3.002,2.359-4.254,3.823
	c-1.502,1.133-2.527,3-4.721,3.068c-1.526-0.397-2.388-1.101-1.255-2.721c1.458-3.283,2.798-6.624,4.407-9.831
	c1.487-2.964,3.279-5.759,7.357-5.128c3.751,0.467,7.46,0.342,11.223-0.193c2.659-0.378,5.577-0.946,7.916,1.279
	c3.66,1.302,7.32,2.604,10.98,3.906c2.94,1.98,0.801,4.357,0.516,6.591c-0.275,2.148,0.536,4.381-0.511,6.467
	c-0.001,0.668-0.002,1.336-0.003,2.004c-0.831,3.277-0.794,6.555-0.017,9.835c-0.009,0.418-0.017,0.836-0.026,1.253
	c-2.17,2.345,0.024,5.194-0.889,7.685c-0.03,1.095-0.06,2.19-0.089,3.285c0.164,5.195,0.301,10.391,0.84,15.566
	c0.142,0.847,0.112,1.684-0.129,2.51c-2.392,3.815-0.368,8.225-1.636,12.191C303.897,393.584,303.725,395.792,302.89,397.89z"/>
<path fill="#FBDFCA" d="M284.809,305.963c-1.003-0.385-2.007-0.771-3.01-1.156c-0.615-1.31-1.771-2.083-2.883-2.899
	c-3.733-5.174-6.859-10.599-7.087-17.216c-1.842-1.514-0.844-3.977-1.923-5.746l0.044,0.086c-1.178-1.12,0.343-3.022-1.172-4.045
	c-0.682-0.505-0.871-1.2-0.776-2.006c0.178-3.428,1.353-5.844,5.409-5.342c3.522,0.386,6.427-0.786,9.094-3.13
	c2.866-2.518,6.029-4.705,8.894-7.228c3.062-2.696,6.364-3.322,10.16-1.946c2.03,0.736,4.208,1.062,6.21,1.832
	c3.814,1.467,7.401,1.271,11.078-0.485c2.053-0.981,4.223-2.105,6.672-1.111c1.475,1.674,1.019,3.503,0.432,5.343
	c-0.021,1.382-0.043,2.764-0.064,4.146c-0.951,1.905-0.252,3.941-0.469,5.908c-0.279,6.357,0.59,12.739-0.481,19.072
	c-2.517,10.05-9.785,14.715-19.199,16.967c-0.961,0.23-1.89,0.591-2.833,0.891c-2.439-0.811-4.906-0.463-7.373-0.173
	C291.673,308.852,288.022,308.735,284.809,305.963z"/>
<path fill="#231F20" d="M324.75,255.727c-7.882,4.862-15.934,4.376-24.06,0.714c-3.05-1.374-5.52-0.86-8.035,1.463
	c-3.169,2.926-6.866,5.281-10.032,8.209c-2.543,2.352-5.23,3.342-8.577,2.692c-2.58-1.117-5.493,0.715-8.017-0.903
	c-1.942-3.076-3.672-6.314-5.87-9.195c-4.283-5.615-4.574-11.155-1.243-17.413c1.583-2.973,3.182-5.087,6.518-6.065
	c5.871-1.721,11.647-3.77,17.448-5.727c8.091-2.729,15.572-1.498,22.825,2.914c7.353,4.472,14.898,8.632,22.416,12.828
	c4.875,2.721,5.18,4.152,1.262,8.114c-0.675,0.683-1.627,1.092-2.451,1.628C326.377,255.737,325.488,255.509,324.75,255.727z"/>
<path fill="#FBDFCA" d="M236.011,511.245c-7.638,7.721-14.895,15.832-23.283,22.787c-1.202,0.863-2.259,0.256-3.145-0.479
	c-5.234-4.337-11.227-7.548-16.796-11.387c0.18-3.547,4.203-4.421,5.169-7.424c6.911-6.151,13.933-12.195,19.187-19.94
	c3.643-2.997,7.159-6.118,9.806-10.084c2.697-1.953,5.225-4.079,7.097-6.882c0.972-0.293,1.88-0.06,2.772,0.323
	c5.29,2.801,10.113,6.38,15.362,9.257c1.291,0.707,2.632,1.495,3.042,3.122c-4.696,6.075-10.702,10.893-15.867,16.517
	C238.15,508.367,236.358,509.24,236.011,511.245z"/>
<path fill="#FBDFCA" d="M339.122,479.757c7.15,12.993,13.642,26.308,19.748,39.822c2.101,4.651,4.579,9.132,6.884,13.69
	c-0.296,0.788-0.679,1.645-1.457,1.922c-6.657,2.372-13.302,4.774-19.901,7.302c-0.418,0.16-0.945-0.201-1.377-0.449
	c-1.432-3.149-2.653-6.417-4.333-9.428c-7.563-13.558-13.702-27.821-20.777-41.619c-0.483-2.454,1.719-2.54,3.021-3.189
	C326.868,484.849,333.057,482.44,339.122,479.757z"/>
<path fill="#FBDFCA" d="M254.942,490.767c-6.372-3.956-12.745-7.912-19.117-11.868c-1.214-2.404,1.516-3.152,2.028-4.832
	c4.743-7.382,10.458-14.139,14.243-22.137c7.085,2.377,14.159,4.78,20.848,8.167c-5.686,10.606-11.371,21.212-17.057,31.817
	C255.485,491.604,254.87,491.468,254.942,490.767z"/>
<path fill="#FBDFCA" d="M339.122,479.757c-2.31,3.933-6.932,3.685-10.309,5.692c-3.51,2.087-7.85,2.553-10.904,5.548
	c-4.601-3.869-5.289-9.768-7.418-14.854c-1.246-2.976-2.101-6.159-3.551-9.092c-0.692-1.311-0.963-2.609,0.122-3.863
	c5.951-3.415,11.903-6.83,17.854-10.246C329.652,461.88,334.387,470.818,339.122,479.757z"/>
<path fill="#231F20" d="M193.086,521.701c7.243,3.003,13.213,8.033,19.642,12.332c0.516,2.8,2.52,4.215,5.009,4.775
	c4.418,0.994,6.147,3.888,6.354,8.083c0.027,1.849,1.691,4.076-1.214,5.247c-14.273,0.445-25.389-6.772-36.106-14.918
	c-2.818-2.142-3.256-8.356-0.85-10.832c1.268-1.304,2.898-2.411,3.095-4.383c0.255-2.561,1.965-0.742,2.938-1.1
	C192.524,520.897,192.645,521.525,193.086,521.701z"/>
<path fill="#231F20" d="M343.019,542.044c7.579-2.925,15.157-5.849,22.736-8.775c2.68,1.243,5.964,1.426,7.945-0.113
	c6.435-4.999,11.284-2.156,15.883,2.244c-8.367,13.019-22.245,16.742-36.156,19.919c-2.839,0.649-6.689-1.873-7.421-5.554
	C345.441,546.925,344.663,544.372,343.019,542.044z"/>
<path fill="#FBDFCA" d="M261.958,363.98c1.25,7.292,4.375,14.001,6.597,20.989c1.192,3.747,2.88,7.337,4.344,10.998
	c0.934,4.461-1.859,7.299-4.263,10.471c-2.015,2.658-2.77,1.362-3.712-0.609c-4.021-10.461-8.185-20.871-11.971-31.417
	c-1.047-2.916-2.094-5.771-3.466-8.555c-3.914-7.943,2.184-10.79,7.367-14.05C259.109,355.632,261.297,359.486,261.958,363.98z"/>
<path fill="#FBDFCA" d="M304.882,378.829c0.014-0.601,0.028-1.202,0.042-1.804c-0.506-0.552-0.479-1.209-0.371-1.88
	c0.61-2.145,2.53-3.522,3.267-5.595c0.328-1.526,1.589-1.958,2.83-2.415c10.926-4.481,21.9-8.852,32.759-13.493
	c5.136-2.195,7.638,1.711,10.633,4.191c1.74,1.44,0.062,2.628-1.376,3.255c-10.28,4.485-20.558,8.977-30.877,13.372
	c-4.587,1.954-9.266,3.691-13.903,5.526C306.392,380.881,305.493,380.228,304.882,378.829z"/>
<path fill="#FADEC9" d="M261.958,363.98c-2.475-3.732-4.351-7.716-5.104-12.172c1.414-2.015,2.83-4.029,4.245-6.043
	c0.663-0.903,0.998-2.217,2.534-2.035c2.844,3.129,5.348,6.445,5.916,10.821c-0.916,2.364-3.996,2.997-4.541,5.664
	C263.991,361.471,262.975,362.725,261.958,363.98z"/>
<path fill="#282425" d="M294.937,320.067c-4.787-0.684-9.458,0.587-14.19,0.835c-1.92,0.101-4.041,0.626-4.949-1.921
	c0.134-5.778,3.428-6.39,8.009-4.899c3.409,0.27,6.849,0.381,10.015,1.922c0.403,0.286,0.799,0.583,1.189,0.887
	c1.363,0.51,2.726,1.02,4.204,1.573C297.923,319.878,296.252,319.466,294.937,320.067z"/>
<path fill="#F7DCC8" d="M293.795,316.754c-3.392-0.657-6.906-0.857-9.988-2.672c0.712-1.727,1.424-3.453,2.135-5.18
	c3.168-2.538,6.631-1.413,10.052-0.812c-0.291,1.289,0.504,2.834-0.91,3.859C293.517,313.245,295.323,315.447,293.795,316.754z"/>
<path fill="#B6A9A1" d="M254.942,490.767c0.315,0.383,0.63,0.765,0.945,1.148c-6.625,6.442-13.251,12.885-19.876,19.329
	c-1.093-1.137-0.002-1.753,0.635-2.385C242.732,502.815,248.84,496.794,254.942,490.767z"/>
<path fill="#EDD3C0" d="M308.925,369.944c-0.444,2.249-2.346,3.446-3.658,5.068c-1.688-2.708-0.669-5.623-0.556-8.444
	c0.038-0.956,1.049-1.069,1.924-0.813c0.474,0.454,0.947,0.908,1.421,1.363C308.877,367.896,307.981,369.203,308.925,369.944z"/>
<path fill="#999592" d="M324.936,290.042c0.049-6.691,0.097-13.381,0.146-20.072c0.23,0,0.461,0,0.692,0
	C325.536,276.662,327.039,283.427,324.936,290.042z"/>
<path fill="#B6ABA3" d="M226.948,484.718c-1.945,4.65-5.253,7.974-9.807,10.085C220.062,491.102,223.381,487.789,226.948,484.718z"
	/>
<path fill="#9B9795" d="M306.636,365.754c-3.444,2.643-1.176,6.133-1.37,9.258c-0.113,0.671-0.227,1.343-0.341,2.014
	c-1.693-5.308-1.563-10.619-0.026-15.933C304.561,362.988,305.815,364.29,306.636,365.754z"/>
<path fill="#9B9796" d="M304.882,378.829c1.002,0.386,2.003,0.771,3.005,1.157c-2.882,0.865-3.182,3.032-2.99,5.601
	c0.132,1.766-0.065,3.557-0.116,5.337c-0.564,0.63-1.128,0.63-1.692,0C305.301,387.133,302.465,382.592,304.882,378.829z"/>
<path fill="#95857A" d="M295.995,308.09c-3.358,0.176-6.825-0.986-10.052,0.812c-0.378-0.98-0.755-1.959-1.133-2.939
	c3.58,1.525,7.411,0.707,11.103,1.189c0.345,0.165,0.458,0.324,0.339,0.478c-0.116,0.151-0.233,0.227-0.354,0.227L295.995,308.09z"
	/>
<path fill="#CBCACB" d="M304.987,357.808c-0.069-2.605-3.229-5.568,0.889-7.686C305.656,352.693,306.685,355.408,304.987,357.808z"
	/>
<path fill="#918B87" d="M266.029,267.902c2.66,0.412,5.461-0.427,8.017,0.903c-3.112-0.196-5.418,0.775-6.045,4.176
	C268.079,271.004,268.055,269.065,266.029,267.902z"/>
<path fill="#B1A59D" d="M193.086,521.701c-0.377-0.265-0.754-0.531-1.131-0.796c1.624-2.419,3.767-4.334,6.001-6.161
	C197.765,518.064,194.308,519.1,193.086,521.701z"/>
<path fill="#939192" d="M263.177,343.977c-0.693,0.596-1.386,1.193-2.079,1.789c0.238-2.255-1.237-4.726,0.853-6.747
	c0.199,0.131,0.398,0.262,0.599,0.39C263.63,340.811,264.331,342.267,263.177,343.977z"/>
<path fill="#AFADAE" d="M303.089,390.925c0.564,0,1.129,0,1.693,0c0.599,2.38-0.904,4.53-0.752,6.861
	c-0.38,0.035-0.76,0.069-1.139,0.104C302.956,395.568,303.023,393.247,303.089,390.925z"/>
<path fill="#ACABAB" d="M264.034,333.939c0.097,1.199,0.631,1.98,1.936,2.023c-0.089,2.737-1.229,4.039-4.088,2.995l0.07,0.061
	C262.507,337.268,262.352,335.227,264.034,333.939z"/>
<path fill="#969595" d="M305.902,348.87c-1.559-3.281-1.503-6.559,0.017-9.835C305.913,342.313,305.908,345.591,305.902,348.87z"/>
<path fill="#9C9A9B" d="M306.385,329.954c-0.421-1.973,1.39-4.121-0.468-5.982c3.312,1.625,2.578,3.712,0.677,5.933L306.385,329.954
	z"/>
<path fill="#92847D" d="M237.853,474.067c0.295,2.018-1.871,3.004-2.027,4.832c-0.594-0.354-1.187-0.709-1.78-1.063
	C234.823,476.083,236.266,475.002,237.853,474.067z"/>
<path fill="#9F9D9D" d="M306.385,329.954c0,0,0.214-0.049,0.212-0.049c0.279,2.422,1.198,4.905-0.675,7.125
	C306.035,334.669,305.549,332.268,306.385,329.954z"/>
<path fill="#9C928B" d="M295.897,307.858c0.012-0.235,0.017-0.471,0.016-0.706c2.353,0.033,4.822-1.013,6.991,0.748
	C300.568,307.886,298.232,307.872,295.897,307.858z"/>
<path fill="#948981" d="M269.905,278.947c1.735,1.549,0.879,3.966,1.924,5.746C269.194,283.445,270.033,281.035,269.905,278.947z"/>
<path fill="#A19B97" d="M324.75,255.727c0.504-0.906,1.387-0.694,2.183-0.741c-0.326,1.977,0.878,4.208-0.982,5.93
	C325.632,259.167,326.673,257.104,324.75,255.727z"/>
<path fill="#AAA8A9" d="M222.878,552.137c2.098-1.357,0.377-3.598,1.214-5.247C225.519,551.497,225.439,551.845,222.878,552.137z"/>
<path fill="#9A928E" d="M307.063,463.188c-0.041,1.288-0.081,2.575-0.122,3.863c-1.134-0.685-1.338-2.618-3.173-2.363
	C304.613,463.632,305.912,463.573,307.063,463.188z"/>
<path fill="#918680" d="M308.925,369.944c-1.276-0.64-1.016-1.752-0.869-2.828c0.865,0.007,1.729,0.013,2.594,0.02
	C309.98,368.014,308.645,368.483,308.925,369.944z"/>
<path fill="#978A82" d="M293.795,316.754c0.413-1.606-0.505-3.568,1.288-4.804c-0.024,1.647-0.048,3.295-0.073,4.943
	C294.605,316.846,294.2,316.8,293.795,316.754z"/>
<path fill="#B5AEA8" d="M278.916,301.909c1.759,0.174,3.086,0.778,2.883,2.9C280.52,304.157,279.492,303.258,278.916,301.909z"/>
<path fill="#938A83" d="M268.777,274.988c2.699,0.68,0.522,2.772,1.172,4.045C268.227,278.071,269.249,276.313,268.777,274.988z"/>
<path fill="#98897E" d="M325.774,269.97l-0.346,0.005l-0.346-0.005c0.094-1.665-0.953-3.516,0.805-4.908
	C325.849,266.698,325.811,268.334,325.774,269.97z"/>
<path fill="#FEFEFE" d="M261.881,338.956c2.103,0.012,3.091-1.497,4.088-2.995c1.322-1.029,1.791-3.197,4.023-3.01
	c0.976-1.639,2.337-2.899,3.901-3.96c1.081-0.658,1.584-2.197,3.172-2.083c0.689-1.425,2.079-2.357,2.698-3.831
	c4.49,3.588,8.991,7.164,13.466,10.77c2.206,1.778,1.91,3.425-0.039,5.361c-3.852,3.826-7.516,7.842-11.257,11.78
	c-3.996,2.428-6.187,6.969-10.524,8.999c-0.819-0.84-1.56-1.719-1.469-3.005c-0.324-0.749-1.05-1.329-0.945-2.257
	c-1.249-3.957-3.906-7.152-5.819-10.749C262.745,342.303,262.313,340.63,261.881,338.956z"/>
<path fill="#B7B6B6" d="M271.409,359.987c3.731-2.739,5.681-7.56,10.524-8.999C278.597,354.188,276.59,358.943,271.409,359.987z"/>
<path fill="#B7AAA1" d="M268.996,354.725c0.565,0.648,1.859,0.99,0.945,2.257c-2.539-0.289-3.13,2.395-4.932,3.232
	C264.529,357.072,267.537,356.462,268.996,354.725z"/>
<path fill="#BBB9BA" d="M273.893,328.992c-0.858,1.756-2.25,2.986-3.901,3.96C270.028,330.386,271.711,329.444,273.893,328.992z"/>
<path fill="#BBBABA" d="M279.763,323.078c0.391,2.187-1.412,2.828-2.699,3.832C276.727,324.761,278.411,324.036,279.763,323.078z"/>
<path fill="#A69486" d="M287.742,269.317c-2.05,0.966-3.548,0.657-5.578,0.334C284.208,268.673,285.706,269.009,287.742,269.317z"/>
<path fill="#A69386" d="M279.741,271.72c0,1.093,0,2.185,0,3.393C278.364,274.112,278.988,272.964,279.741,271.72z"/>
</svg>
