<?xml version="1.0" encoding="utf-8"?>
<!-- Generator: Adobe Illustrator 17.0.0, SVG Export Plug-In . SVG Version: 6.00 Build 0)  -->
<!DOCTYPE svg PUBLIC "-//W3C//DTD SVG 1.1//EN" "http://www.w3.org/Graphics/SVG/1.1/DTD/svg11.dtd">
<svg version="1.1" id="Layer_1" xmlns="http://www.w3.org/2000/svg" xmlns:xlink="http://www.w3.org/1999/xlink" x="0px" y="0px"
	 width="612px" height="792px" viewBox="0 0 612 792" enable-background="new 0 0 612 792" xml:space="preserve">
<path fill="#FDFDFD" d="M307.551,647.937c-169.284,0-338.569-0.02-507.853,0.118c-4.162,0.003-4.805-0.971-4.802-4.918
	c0.122-163.953,0.118-327.905,0.014-491.858c-0.002-3.521,0.618-4.383,4.308-4.382c338.736,0.11,677.471,0.111,1016.206,0.001
	c3.868-0.001,4.538,0.994,4.536,4.651c-0.102,163.952-0.102,327.905-0.001,491.857c0.002,3.672-0.73,4.632-4.555,4.629
	C646.12,647.922,476.835,647.937,307.551,647.937z"/>
<path fill="#231F20" d="M311.022,399.969c1.327,4.683,4.701,8.196,7.103,12.258c3.861,6.531,8.002,12.898,11.025,19.886
	c2.905,6.715,2.436,8.201-3.507,12.362c-1.021,0.715-2.553,0.897-2.862,2.46c-6.401,4.236-13.386,6.92-21.011,7.902
	c-3.255-0.532-6.551,3.449-9.24,1.005c-2.121-1.927-2.703-5.545-3.982-8.406c-0.045-0.1-0.24-0.133-0.785-0.413
	c-1.138,2.287-2.249,4.601-3.431,6.879c-3.941,7.596-5.002,8.05-13.229,5.784c-1.334-0.399-2.776-0.15-4.094-0.662
	c-6.396-3.076-12.64-6.403-18.011-11.14c-0.19-0.45-0.271-1.005-0.588-1.331c-1.893-1.95-5.818-2.684-5.785-5.433
	c0.03-2.49,2.355-4.972,3.727-7.424c7.109-12.702,14.247-25.386,22.272-37.546c0.617-0.934,0.941-2.061,1.402-3.098
	c0.48-0.368,0.928-0.332,1.344,0.105c1.671,4.418,5.345,4.907,9.35,4.775c8.652-0.284,17.143-1.494,25.344-4.378
	c1.959,0.205,2.449,1.996,3.473,3.212c0.518,0.701,1.136,1.326,1.656,2.03C311.376,399.221,311.318,399.613,311.022,399.969z"/>
<path fill="#FEFEFE" d="M306.849,394.164c-9.985,4.504-20.54,5.393-31.314,4.994c-4.206-0.156-4.467-3.091-4.593-6.195
	c-0.886-1.022-0.261-2.365-0.74-3.472c0.252-2.525,2.661-3.816,3.445-6.04c0.18-0.438,0.399-0.854,0.635-1.263
	c2.011-3.325,3.863-6.741,5.774-10.122c0.881-1.559,1.698-3.156,3.509-3.86c0.637-0.227,1.3-0.335,1.97-0.383
	c1.434-0.058,2.91-0.031,3.567-1.725c2.839-5.286,4.653-11.041,7.591-16.268c1.246-2.216,1.156-4.095-1.118-5.587
	c-3.198-2.099-6.226-4.438-9.341-6.654c-1.787-1.272-2.711-1.018-3.845,0.932c-2.588,4.449-5.204,8.881-7.772,13.342
	c-0.823,1.43-1.405,4.043-4.23,2.795c-0.712-1.947-1.034-3.952-0.93-6.024c-0.271-3.176,0.581-6.407-0.479-9.542
	c-0.019-0.393-0.037-0.786-0.056-1.179c-1.286-2.544,0.41-5.466-1.012-7.993l0.066,0.119c-0.733-2.194-1.308-4.363,0.984-6.067
	c3.66-1.302,7.32-2.604,10.98-3.906c2.339-2.226,5.257-1.657,7.916-1.279c3.763,0.535,7.472,0.66,11.223,0.193
	c4.963-1.045,6.707,2.809,8.154,6.045c2.582,5.773,4.497,11.845,6.691,17.791c0.436,0.567,0.634,1.243,0.881,1.898
	c0.46,1.565,0.228,3.244,0.798,4.794c0.152,0.458,0.259,0.922,0.347,1.395c0.311,1.946,0.162,3.926,0.484,5.872
	c0.298,1.016,0.599,2.026,0.735,3.08c0.185,5.292,0.325,10.581-0.064,15.862c-0.623,2.373-1.228,4.757-1.32,7.232
	c-0.125,3.608-2.862,6.008-4.198,9.06c-0.574,0.613-1.266,1.088-1.929,1.596C308.837,394.359,307.817,394.128,306.849,394.164z"/>
<path fill="#FBDFCA" d="M293.06,304.828c-1.076,0.392-2.151,0.784-3.227,1.177c-3.157,2.985-6.777,2.668-10.518,1.479
	c-2.444,0.187-4.939-0.5-7.344,0.416c-2.808-2.006-6.315-2.427-9.418-3.527c-7.137-2.529-10.8-7.344-12.599-14.205
	c-1.094-6.54-0.209-13.13-0.496-19.689c0.193-1.827-0.449-3.726,0.469-5.492c-0.327-0.962-0.654-1.925-0.981-2.887
	c-0.727-2.141-0.902-4.269,0.157-6.364c1.796-1.068,3.66-0.562,5.216,0.289c5.068,2.772,10.196,2.66,15.26,0.398
	c6.566-2.933,12.075-1.853,17.034,3.354c1.686,1.77,3.893,3.077,5.741,4.716c2.633,2.335,5.53,3.539,9.052,3.146
	c4.048-0.491,5.315,1.861,5.47,5.347c0.094,0.805-0.094,1.5-0.776,2.004c-1.515,1.023,0.006,2.925-1.172,4.046l0.044-0.086
	c-1.339,1.32,0.469,3.892-1.907,4.799c0.28,7.09-3.668,12.525-7.103,18.162C294.832,302.722,293.689,303.52,293.06,304.828z"/>
<path fill="#231F20" d="M300.826,268.806c-4.329,1.126-7.556-1.115-10.048-4.015c-7.562-8.8-16.309-10.717-26.619-5.385
	c-3.223,1.667-5.729-0.628-8.473-1.516c-1.889-0.612-3.71-1.435-5.561-2.164c-0.737-0.216-1.625,0.012-2.18-0.739
	c-0.824-0.536-1.776-0.945-2.451-1.628c-3.918-3.961-3.613-5.392,1.262-8.114c7.517-4.196,15.063-8.356,22.416-12.828
	c7.254-4.412,14.735-5.644,22.825-2.915c5.017,1.692,9.949,3.868,15.105,4.86c8.527,1.64,9.347,8.751,11.684,14.902
	c0.526,1.385-0.402,2.63-1.037,3.728c-2.897,5.011-5.921,9.948-8.9,14.911C306.323,269.521,303.408,267.688,300.826,268.806z"/>
<path fill="#FBDFCA" d="M362.149,529.032c-8.03-6.636-15.026-14.323-22.211-21.819c-4.458-6.156-10.509-10.796-15.572-16.373
	c-1.405-1.548-3.423-2.618-3.97-4.872c1.428-3.513,4.97-4.649,7.689-6.651c3.314-2.439,7.044-4.279,10.48-6.567
	c0.465-0.178,0.899-0.118,1.302,0.173c3.15,2.189,5.776,4.908,8.068,7.966c3.619,2.584,6.111,6.406,9.799,8.914
	c3.853,6.492,10.015,10.872,14.964,16.362c1.424,1.58,2.829,3.178,4.243,4.767c1.89,1.947,5.012,2.899,5.095,6.309
	c-5.592,3.759-11.524,7.015-16.753,11.32C364.396,529.291,363.344,529.896,362.149,529.032z"/>
<path fill="#FBDFCA" d="M209.124,528.261c6.911-11.566,12.149-23.912,17.51-36.244c2.435-5.601,4.931-11.473,9.144-16.211
	c3.467-0.822,5.838,1.99,8.863,2.735c3.345,0.824,6.308,2.849,9.635,3.935c1.44,0.47,3.231,1.262,2.691,3.521
	c-4.12,10.659-10.582,20.145-15.28,30.519c-3.13,6.91-7.217,13.366-9.83,20.528c-0.738,0.46-1.577,0.688-2.356,0.329
	c-5.852-2.698-11.923-4.79-18.071-6.687C210.274,530.33,209.528,529.417,209.124,528.261z"/>
<path fill="#FBDFCA" d="M338.915,473.041c-3.746,4.636-9.771,6.044-14.06,9.925c-1.213,1.098-2.608,1.994-3.92,2.983
	c-0.402,0.815-1.409,0.416-1.943,0.968c-3.695-4.027-5.655-9.198-7.791-13.96c-2.809-6.261-7.352-11.548-9.432-18.119
	c7.004-2.634,14.007-5.268,21.011-7.902c4.722,7.374,9.445,14.748,14.167,22.122C337.402,470.484,339.666,471.018,338.915,473.041z"
	/>
<path fill="#FBDFCA" d="M256.967,485.998c-2.634-4.208-7.762-3.807-11.552-5.912c-2.937-1.631-6.379-2.926-9.636-4.279
	c3.623-7.835,7.246-15.674,11.887-22.977c0.993-1.563,2.206-2.937,1.332-4.946c6.811,2.451,12.094,7.689,18.815,10.304
	c1.087,1.224,0.82,2.497,0.135,3.784C264.65,470.146,262.136,478.679,256.967,485.998z"/>
<path fill="#231F20" d="M362.149,529.032c6.431-4.294,12.395-9.33,19.639-12.329c0.442-0.175,0.564-0.804,1.133-0.798
	c0.972,0.36,2.683-1.462,2.939,1.099c0.197,1.972,1.826,3.079,3.094,4.383c2.407,2.476,1.969,8.69-0.849,10.832
	c-10.717,8.146-21.835,15.363-36.108,14.918c-2.903-1.172-1.238-3.399-1.211-5.247c0.207-4.195,1.937-7.089,6.355-8.083
	C359.629,533.248,361.633,531.832,362.149,529.032z"/>
<path fill="#231F20" d="M209.124,528.261c7.578,2.928,15.156,5.856,22.733,8.783c-0.887,1.758-2.115,3.428-2.601,5.291
	c-1.842,7.049-4.987,8.723-12.143,6.981c-12.499-3.042-24.032-7.565-31.711-18.678c6.607-6.195,7.351-6.274,15.267-2.635
	C203.368,529.244,206.266,529.486,209.124,528.261z"/>
<path fill="#FEFEFE" d="M285.926,368.976c-0.665-0.002-1.33-0.004-1.995-0.006c-4.609-0.644-9.031-1.908-13.201-4.001
	c-3.634,0.007-4.275-1.591-2.482-4.561c0.913-1.513,1.748-3.074,2.618-4.613c-0.241-0.314-0.202-0.588,0.118-0.822
	c4.367-5.587,7.204-12.104,10.884-18.11c1.308-2.134,2.169-2.585,3.972-0.936c0.118,0.108,0.309,0.132,0.442,0.228
	c4.025,2.911,9.221,5.057,11.768,8.94c3.085,4.702-2.99,8.597-4.176,13.182c-0.777,3.001-2.57,5.739-3.908,8.595
	C289.28,368.843,287.155,368.05,285.926,368.976z"/>
<path fill="#FBDFCA" d="M275.022,382.988c-0.058,0.355-0.116,0.71-0.174,1.065c-1.92,1.114-3.224,2.885-4.73,4.442
	c-1.454,0.81-2.089,3.048-4.329,2.484c-6.858-2.876-12.902-7.216-19.35-10.828c-8.333-4.669-16.502-9.63-24.742-14.466
	c-0.211-0.919-1.591-1.552-0.671-2.747c7.986-4.891,10.636-4.65,18.253,0.568c6.951,4.762,15.07,7.579,21.82,12.725
	c1.449,0.5,2.978,0.65,4.46,1.013C268.761,379.077,272.215,380.501,275.022,382.988z"/>
<path fill="#FADFCA" d="M310.947,391.793c-0.235-3.655,4.011-5.308,3.967-8.878c0.966-1.687,0.032-3.741,1.048-5.42
	c1.048-5.73,0.215-11.512,0.486-17.259c0.016-1.365,0.613-2.492,1.447-3.521c1.374-1.703,2.89-3.279,4.481-4.79
	c0.961-0.507,1.818-2.118,3.016-0.312c-0.156,1.81,0.499,3.688-0.47,5.426l0.057-0.119c-1.464,2.556,0.301,5.534-1.059,8.103
	l0.053-0.097c-0.966,2.627-0.73,5.278-0.159,7.935c0.134,0.832-0.011,1.57-0.712,2.122c-1.725,2.128,0.225,4.871-1.182,7.052
	l0.06-0.119c-1.467,2.561,0.301,5.544-1.061,8.118l0.06-0.121c-1.463,2.555,0.3,5.532-1.058,8.101l0.059-0.096
	c-1.089,1.439-0.337,3.11-0.58,4.657c-0.255,1.631-0.959,2.343-2.581,1.384c-2.212-0.925-3.03-3.874-5.797-3.993
	c-0.358-0.069-0.505-0.283-0.442-0.642C309.576,396.761,309.21,394.226,310.947,391.793z"/>
<path fill="#FADEC9" d="M275.022,382.988c-3.641-1.093-6.873-3.007-10.06-5.011c-0.543-0.555-1.638-0.83-1.002-1.981
	c2.258-3.675,4.515-7.351,6.772-11.026c4.719,0.276,9.188,1.384,13.2,4c-3.287,2.965-4.543,7.215-6.7,10.879
	C276.562,380.984,275.828,381.99,275.022,382.988z"/>
<path fill="#282425" d="M299.078,318.981c-0.908,2.547-3.029,2.022-4.949,1.921c-4.732-0.248-9.403-1.519-14.19-0.835
	c-1.315-0.601-2.986-0.189-4.278-1.602c1.483-0.555,2.844-1.064,4.204-1.573c0.39-0.3,0.786-0.593,1.186-0.88
	c3.216-1.124,6.418-2.314,9.911-2.187C295.158,313.199,299.21,312.797,299.078,318.981z"/>
<path fill="#F7DCC8" d="M290.963,313.825c-2.967,2.077-6.479,2.316-9.88,2.929c-1.481-1.181,0.367-3.813-2.007-4.606
	c0.271-1.343,0.542-2.686,0.814-4.03c2.997-0.721,6.017-1.723,8.758,0.712C290.378,310.05,290.384,312.07,290.963,313.825z"/>
<path fill="#F8DCC8" d="M322.942,352.969c-1.293,1.335-2.587,2.67-3.88,4.005c-1.675,0.384-3.193,0.446-3.601-1.762
	c-0.279-1.751,0.568-3.622-0.569-5.28l0.053,0.102c-1.188-1.567,0.236-3.666-1.059-5.211c0.012-0.668,0.025-1.335,0.037-2.005
	c2.413,2.237,6.134,2.499,8.124,5.376C324.101,349.457,323.748,351.171,322.942,352.969z"/>
<path fill="#B6A9A1" d="M318.993,486.916c0.335-0.95,1.151-0.935,1.943-0.967c5.283,5.481,10.585,10.944,15.835,16.457
	c1.33,1.397,3.263,2.448,3.167,4.806C332.956,500.447,325.974,493.682,318.993,486.916z"/>
<path fill="#999592" d="M249.794,269.97c0.053,6.732,0.106,13.463,0.16,20.196c-2.149-6.653-0.615-13.462-0.851-20.196
	C249.333,269.97,249.564,269.97,249.794,269.97z"/>
<path fill="#B6ABA3" d="M357.734,489.804c-4.55-1.559-6.799-5.649-9.799-8.914C352.47,482.466,354.695,486.582,357.734,489.804z"/>
<path fill="#95857A" d="M288.647,308.83c-2.801-1.694-5.83-0.573-8.758-0.712c-0.311-0.102-0.621-0.207-0.93-0.316
	c0.001-0.217,0.002-0.433,0.003-0.65c3.618-0.43,7.356,0.271,10.87-1.148C289.438,306.947,289.043,307.888,288.647,308.83z"/>
<path fill="#918B87" d="M300.826,268.806c2.558-1.33,5.361-0.491,8.023-0.904c-2.026,1.162-2.051,3.101-1.972,5.081
	C306.251,269.576,303.938,268.612,300.826,268.806z"/>
<path fill="#A8A19D" d="M265.789,390.979c1.347-1.039,2.693-2.079,4.04-3.118c0.649,0.053,0.743,0.635,1.007,1.055
	c0.035,1.349,0.07,2.698,0.105,4.047c0,0-0.465-0.031-0.465-0.031s-0.45,0.121-0.45,0.121c-0.377-1.085,0.581-4.138-2.302-1.516
	C266.973,392.221,266.248,391.823,265.789,390.979z"/>
<path fill="#A69C96" d="M316.819,403.962c3.969-0.487,0.685-4.771,3.161-6.04c-0.007,1.831,0.101,3.671-0.045,5.491
	C319.618,407.353,318.174,405.554,316.819,403.962z"/>
<path fill="#B1A59D" d="M382.921,515.905c-0.378,0.266-0.755,0.532-1.133,0.798c-1.616-1.924-3.231-3.847-4.847-5.771
	C380.011,511.295,381.212,513.905,382.921,515.905z"/>
<path fill="#B5B4B4" d="M270.984,354.974c-0.121,0.263-0.16,0.539-0.118,0.823c-3.589-1.514-1.224-4.577-1.792-6.877
	c0.27-0.402,0.53-0.396,0.782,0.017C270.233,350.95,270.609,352.962,270.984,354.974z"/>
<path fill="#969595" d="M269.857,348.938l-0.392,0.01c0,0-0.391-0.027-0.391-0.027c-0.032-3.276-0.065-6.553-0.097-9.829
	C270.949,342.224,269.561,345.656,269.857,348.938z"/>
<path fill="#A19B97" d="M247.943,254.986c0.794,0.047,1.677-0.166,2.18,0.739c-2.108,1.807-0.795,4.247-1.178,6.374
	C247.103,259.941,248.256,257.36,247.943,254.986z"/>
<path fill="#A0958F" d="M321.92,382.038c0.117-2.386,0.232-4.772,0.368-7.156c0.003-0.05,0.26-0.136,0.385-0.116
	c0.151,0.024,0.286,0.143,0.429,0.22C322.51,377.303,323.789,379.934,321.92,382.038z"/>
<path fill="#9C938D" d="M320.919,390.038c0.532-2.683-1.073-5.645,1.061-8.118C321.53,384.613,322.869,387.54,320.919,390.038z"/>
<path fill="#9D938C" d="M319.921,398.018c0.49-2.682-1.025-5.626,1.058-8.101C320.527,392.604,321.894,395.529,319.921,398.018z"/>
<path fill="#9D928C" d="M323.92,365.025c0.504-2.681-1.04-5.63,1.059-8.103C324.53,359.61,325.884,362.534,323.92,365.025z"/>
<path fill="#9F9D9D" d="M267.909,329.92c2.076,2.444,0.678,5.328,1.012,7.993C266.95,335.455,268.38,332.567,267.909,329.92z"/>
<path fill="#9E928C" d="M323.813,372.863c-1.418-2.674-1.411-5.32,0.159-7.935C323.919,367.573,323.866,370.218,323.813,372.863z"/>
<path fill="#9E9794" d="M324.922,357.04c-0.002-2.001-0.004-4.002-0.005-6.003c-0.296-0.171-0.397-0.346-0.305-0.527
	c0.093-0.183,0.188-0.274,0.285-0.274C326.788,352.497,326.336,354.767,324.922,357.04z"/>
<path fill="#988A82" d="M324.896,350.236c-0.004,0.267,0.003,0.534,0.02,0.801c-0.658,0.644-1.316,1.288-1.974,1.932
	c-0.121-1.625,0.296-3.351-0.896-4.775C323.987,347.493,323.825,349.725,324.896,350.236z"/>
<path fill="#9C9A9B" d="M268.959,323.972c-1.154,1.888-1.202,3.955-0.984,6.066C266.806,327.774,265.434,325.476,268.959,323.972z"
	/>
<path fill="#9C928B" d="M278.963,307.153c-0.007,0.217-0.008,0.433-0.003,0.65c-2.329,0.032-4.658,0.065-6.988,0.097
	C274.14,306.142,276.609,307.184,278.963,307.153z"/>
<path fill="#AAA8A9" d="M350.785,541.89c0.836,1.649-0.882,3.888,1.211,5.247C349.438,546.844,349.358,546.495,350.785,541.89z"/>
<path fill="#9A928E" d="M267.947,461.972c-0.045-1.261-0.09-2.523-0.135-3.784c1.149,0.386,2.448,0.441,3.291,1.498
	C269.309,459.422,269.091,461.336,267.947,461.972z"/>
<path fill="#92847D" d="M338.915,473.041c-0.664-1.324-2.115-2.26-1.967-3.985c1.445,0.933,3.265,1.583,2.919,3.867
	C339.54,472.886,339.223,472.925,338.915,473.041z"/>
<path fill="#978A82" d="M279.076,312.148c3.15,0.454,1.3,3.087,2.007,4.606c-0.406,0.046-0.811,0.092-1.217,0.138
	C279.996,315.245,280.08,313.606,279.076,312.148z"/>
<path fill="#948981" d="M303.064,283.747c1.443-1.279,0.07-3.677,1.907-4.799C304.48,280.605,306.34,283.197,303.064,283.747z"/>
<path fill="#98897E" d="M249.794,269.97l-0.346,0.005c0,0-0.346-0.005-0.346-0.005c0.129-1.685-1.06-3.589,0.824-4.984
	C249.883,266.647,249.839,268.309,249.794,269.97z"/>
<path fill="#938780" d="M263.96,375.996c0.334,0.66,0.668,1.321,1.002,1.981c-1.558,0.015-2.681-0.935-3.864-1.747
	C262.052,376.152,263.006,376.074,263.96,375.996z"/>
<path fill="#A79D98" d="M221.026,362.938c0.224,0.917,0.448,1.833,0.672,2.749c-0.94-0.574-2.232-0.828-2.279-2.214
	C219.414,363.313,220.465,363.117,221.026,362.938z"/>
<path fill="#B5AEA8" d="M293.06,304.828c-0.184-2.117,1.124-2.749,2.9-2.918C295.382,303.268,294.338,304.164,293.06,304.828z"/>
<path fill="#938A83" d="M304.928,279.033c0.64-1.276-1.556-3.374,1.172-4.045C305.627,276.313,306.649,278.07,304.928,279.033z"/>
<path fill="#FCFCFC" d="M306.849,394.164c0.173-1.323,1.674-0.142,2.048-1.086c2.21,1.634,2.615,3.274,0.014,4.922
	C308.196,396.736,306.923,395.772,306.849,394.164z"/>
<path fill="#9B9592" d="M308.911,398c1.491-1.645,1.633-3.286-0.014-4.922c0.118-1.331,1.22-1.09,2.051-1.284
	c-0.122,2.51-0.245,5.021-0.367,7.533C309.693,399.3,308.952,399.09,308.911,398z"/>
<path fill="#98928F" d="M317.155,359.034c-0.072,4.733-0.079,9.469-0.253,14.198c-0.055,1.495,0.863,3.321-1.042,4.413
	c0.032-0.196,0.064-0.392,0.096-0.588c0.011-6.028,0.023-12.057,0.034-18.085C316.395,358.686,316.784,358.691,317.155,359.034z"/>
<path fill="#8B807A" d="M270.836,388.916c-0.336-0.351-0.671-0.703-1.007-1.054c1.553-1.427,2.27-3.958,5.02-3.809
	C273.917,386.009,272.452,387.525,270.836,388.916z"/>
<path fill="#AB988B" d="M317.155,359.034c-0.388-0.02-0.777-0.041-1.165-0.061c-0.262-0.69-0.523-1.38-0.785-2.07
	c0.067-0.384,0.286-0.639,0.656-0.763c1.066,0.278,2.133,0.557,3.2,0.835C318.427,357.661,317.791,358.348,317.155,359.034z"/>
<path fill="#958C87" d="M315.956,377.058c-0.026,0.199-0.057,0.397-0.095,0.591c-0.201,1.774,0.791,3.765-0.946,5.266
	C314.907,380.9,314.506,378.814,315.956,377.058z"/>
<path fill="#9C908A" d="M315.861,356.14c-0.219,0.254-0.438,0.509-0.656,0.763c-0.104-2.324-0.209-4.647-0.313-6.97
	C316.865,351.744,315.58,354.064,315.861,356.14z"/>
<path fill="#9C9A9A" d="M285.926,368.976c0.888-1.583,2.936-0.935,4.041-2.103C289.814,369.869,287.506,368.724,285.926,368.976z"/>
<path fill="#9B908A" d="M313.886,344.823c1.803,1.442,0.743,3.467,1.059,5.211C313.33,348.553,314.076,346.593,313.886,344.823z"/>
<path fill="#A69486" d="M292.361,269.518c-1.715,0.646-3.215,0.716-4.912-0.067C289.164,268.83,290.665,268.712,292.361,269.518z"/>
<path fill="#A69386" d="M295.408,271.509c0.738,1.312,0.755,2.534,0.023,3.852C294.723,274.051,294.715,272.829,295.408,271.509z"/>
</svg>
