<?xml version="1.0" encoding="utf-8"?>
<!-- Generator: Adobe Illustrator 17.0.0, SVG Export Plug-In . SVG Version: 6.00 Build 0)  -->
<!DOCTYPE svg PUBLIC "-//W3C//DTD SVG 1.1//EN" "http://www.w3.org/Graphics/SVG/1.1/DTD/svg11.dtd">
<svg version="1.1" id="Layer_1" xmlns="http://www.w3.org/2000/svg" xmlns:xlink="http://www.w3.org/1999/xlink" x="0px" y="0px"
	 width="612px" height="792px" viewBox="0 0 612 792" enable-background="new 0 0 612 792" xml:space="preserve">
<path fill="#231F20" d="M313.8,392.322c0.298,19.107-0.361,38.232,1.096,57.317c0.088,1.157,0.027,2.326,0.016,3.49
	c-0.115,11.926-1.189,13.085-12.891,13.933c-0.465,0.337-0.957,0.625-1.475,0.872c-6.849,0.95-13.449-0.986-20.152-1.742
	c-3.114-1.015-6.619-0.741-9.416-2.82c-0.432-0.449-0.502-0.951-0.215-1.503c0.174-2.316,0.372-4.63,0.508-6.948
	c0.046-0.788,0.143-2.193-0.134-2.288c-5.492-1.871-2.221-5.851-1.766-8.621c1.637-9.964,3.798-19.841,5.761-29.751
	c0.454-1.442-0.677-2.852-0.095-4.299c2.816-5.091,5.53-10.29,11.813-11.976c8.419-0.93,16.943-1.37,24.588-5.669
	C312.164,391.907,313.014,391.802,313.8,392.322z"/>
<path fill="#FBDFCA" d="M310.875,272.984c0.094,0.805-0.094,1.5-0.776,2.004c-1.516,1.023,0.006,2.925-1.172,4.046l0.044-0.086
	c-1.34,1.32,0.469,3.892-1.907,4.799c0.28,7.09-3.668,12.526-7.103,18.162c-1.128,0.813-2.271,1.611-2.901,2.919
	c-1.076,0.392-2.151,0.784-3.227,1.177c-3.157,2.985-6.777,2.668-10.518,1.479c-2.444,0.187-4.939-0.5-7.344,0.416
	c-2.808-2.006-6.315-2.427-9.418-3.527c-7.137-2.529-10.8-7.344-12.599-14.205c-1.094-6.54-0.209-13.13-0.496-19.689
	c0.193-1.827-0.449-3.726,0.469-5.492c-0.327-0.962-0.654-1.925-0.981-2.887c-0.727-2.141-0.902-4.269,0.157-6.364
	c1.796-1.068,3.66-0.562,5.216,0.289c5.068,2.772,10.196,2.66,15.26,0.398c6.566-2.933,12.075-1.853,17.034,3.354
	c1.686,1.77,3.893,3.077,5.741,4.716c2.633,2.335,5.53,3.539,9.052,3.146C309.453,267.146,310.72,269.498,310.875,272.984z"/>
<path fill="#FEFEFE" d="M313.8,392.322c-8.475,5.68-18.058,6.634-27.887,6.534c-0.125-3.442,2.544-5.45,4.174-7.966
	c0.964-1.489,2.275-2.753,2.95-4.442c2.422-5.219,3.693-10.795,5.08-16.336c0.66-1.993,0.862-4.237,2.93-5.475
	c0.367-0.277,0.755-0.529,1.143-0.773c2.726-2.615,1.004-5.947,1.429-8.927c0.068-1.664-0.31-3.263-0.711-4.856
	c-0.351-2.134-0.209-4.291-0.268-6.44c-0.042-1.55-0.151-3.03-2.019-3.516c-0.443-0.131-0.874-0.286-1.309-0.434
	c-2.721-0.879-5.57-0.183-8.314-0.68c-0.441-0.065-0.878-0.174-1.305-0.297c-2.01-0.439-4.053-1.261-5.85,0.546
	c-0.834,1.473-0.53,3.074-0.552,4.639c0.016,2.396,0.026,4.784,0.044,7.172c0.396,5.864-0.896,11.796,0.742,17.588
	c0.838,0.936,2.101,1.255,3.019,2.073c1.221,2.405-0.185,4.366-1.07,6.418c-1.141,1.892-1.661,3.99-2.013,6.147
	c-2.705,3.799-3.882,8.852-8.835,10.82c-1.235-1.16-0.53-2.664-0.722-4.013c-0.004-10.433,0.004-20.862-0.006-31.287
	c-0.76-2.854-0.379-5.775-0.477-8.669c-0.019-0.415-0.037-0.83-0.056-1.245c-1.295-3.176,0.38-6.636-0.94-9.81
	c-0.019-0.393-0.037-0.786-0.056-1.179c-1.286-2.544,0.41-5.466-1.012-7.993l0.066,0.119c-0.733-2.194-1.308-4.363,0.984-6.067
	c3.66-1.302,7.32-2.604,10.98-3.906c2.339-2.226,5.257-1.657,7.916-1.279c3.763,0.535,7.472,0.66,11.223,0.193
	c3.891-1.48,5.85,1.749,7,3.966c3.593,6.925,6.725,14.132,7.847,21.992c1.199,1.52-0.236,3.574,1.031,5.08l-0.046-0.092
	c1.004,2.67,0.084,5.688,1.496,8.285c-0.169,6.633,0.478,13.285-0.472,19.899c0.14,1.353-0.259,2.565-0.966,3.696
	c-0.928,1.493-0.763,3.413-1.892,4.827C317.112,389.18,314.509,390.206,313.8,392.322z"/>
<path fill="#231F20" d="M304.825,268.806c-4.329,1.126-7.556-1.115-10.048-4.015c-7.562-8.8-16.309-10.717-26.619-5.385
	c-3.223,1.667-5.729-0.628-8.473-1.516c-1.889-0.612-3.71-1.435-5.561-2.164c-0.737-0.216-1.625,0.012-2.18-0.739
	c-0.824-0.536-1.776-0.945-2.451-1.628c-3.917-3.962-3.613-5.392,1.262-8.114c7.517-4.196,15.063-8.356,22.415-12.828
	c7.254-4.412,14.735-5.644,22.825-2.914c5.017,1.692,9.949,3.868,15.105,4.86c8.527,1.64,9.347,8.751,11.684,14.902
	c0.526,1.384-0.402,2.63-1.037,3.728c-2.897,5.011-5.921,9.948-8.9,14.911C310.322,269.521,307.407,267.688,304.825,268.806z"/>
<path fill="#231F20" d="M329.957,525.959c3.288,2.565,3.594,8.828,0.242,11.157c-7.62,5.294-14.796,11.506-24.187,13.567
	c-2.595,0.57-2.626,1.745-2.27,3.844c1.144,6.746-1.643,10.059-8.461,10.809c-13.152,1.446-25.904,1.053-37.138-7.32
	c2.913-5.679,6.447-10.287,14.241-7.4c1.828,0.677,3.816-0.674,5.526-1.716c0.453-0.359,0.933-0.678,1.436-0.961
	c5.515-1.882,11.168-1.629,16.835-1.094c3.195,1.154,4.699,0.201,4.472-3.362c-0.147-2.31-0.027-4.651,1.083-6.801
	c0.909-1.634,2.09-2.947,4.001-3.396c5.289,0.316,9.792-2.243,14.514-3.999C323.458,528.094,326.53,526.51,329.957,525.959z"/>
<path fill="#FBDFCA" d="M329.957,525.959c-6.328,4.484-14.009,5.806-20.92,8.93c-1.251,0.565-2.034-0.823-3.113-1.087
	c-2.245-1.356-3.654-3.357-4.491-5.808c-1.733-5.887-0.637-11.912-0.86-17.87c-0.168-4.488-0.028-8.988-0.046-13.483
	c-0.014-0.603-0.009-1.205-0.001-1.808c0.666-2.655-1.526-6.183,2.384-7.851C311.926,499.973,320.941,512.966,329.957,525.959z"/>
<path fill="#FBDFCA" d="M279.939,465.127c6.973,0.648,13.946,1.296,20.919,1.944c1.206,4.286,0.248,8.665,0.563,12.99
	c-0.197,5.062,0.613,10.155-0.503,15.188c-8.043,1.579-16.068,2.326-24.024-0.468c-0.003-1.332,0.351-2.746-0.882-3.791
	c-0.593-0.53-0.669-1.201-0.537-1.932c0.687-1.223,1.282-2.474,1.138-3.943c0.055-2.251-0.134-4.512,0.363-6.735
	c0.341-1.221,0.644-2.448,0.606-3.732c0.086-2.066-0.085-4.148,0.415-6.186C278.347,467.177,278.871,465.992,279.939,465.127z"/>
<path fill="#FADFCA" d="M293.966,386.978c-2.017,4.411-5.594,7.766-8.053,11.878c-4.8,2.547-6.848,7.66-10.507,11.271
	c0.126,1.247-0.241,2.238-1.452,2.788c-4.392,5.394-8.783,10.789-13.175,16.183c-2.257,1.016-2.24-0.977-2.844-2.149
	c-6.337-9,3.111-13.077,6.099-19.083c2.248-4.52,7.372-7.04,9.098-12.066c1.028-0.537,1.865-1.344,2.816-1.989
	c2.34-3.614,4.679-7.229,7.019-10.843c1.199-1.025,1.674-2.72,3.192-3.456C290.707,379.963,291.84,383.989,293.966,386.978z"/>
<path fill="#F9DEC9" d="M279.939,465.127c-0.016,1.017,0.144,2.084-0.807,2.835c-1.482,2.222-0.345,4.717-0.734,7.059
	c-0.15,1.25-0.817,2.354-0.972,3.601c-0.06,1.086,0.18,2.264-0.976,2.994c-2.649,0.916-5.234,1.264-7.554-0.817
	c0.729-1.967-2.191-3.856-0.125-5.852c1.668-1.899-0.151-4.423,1.148-6.392c1.281-1.74-0.202-3.98,1.044-5.722
	C273.921,463.733,277.131,463.644,279.939,465.127z"/>
<path fill="#282425" d="M303.078,318.981c-0.908,2.547-3.029,2.022-4.949,1.921c-4.732-0.248-9.403-1.519-14.19-0.835
	c-1.388-0.384-2.776-0.768-4.92-1.362c2.125-0.795,3.486-1.304,4.846-1.813c0.39-0.3,0.786-0.593,1.186-0.88
	c3.216-1.124,6.418-2.314,9.911-2.187C299.157,313.199,303.209,312.797,303.078,318.981z"/>
<path fill="#F7DCC8" d="M294.962,313.825c-2.967,2.077-6.479,2.316-9.88,2.929c-1.481-1.181,0.367-3.813-2.007-4.606
	c0.271-1.343,0.543-2.686,0.814-4.03c2.997-0.72,6.017-1.723,8.758,0.712C294.377,310.05,294.383,312.07,294.962,313.825z"/>
<path fill="#F3D8C4" d="M275.929,489.014c0.027,0.659,0.054,1.317,0.083,1.976c-3.636-1.438-3.649-5.632-6.076-7.99
	c1.585-3.322,4.464-0.759,6.624-1.458c1.444,1.011,0.653,2.52,0.845,3.808C277.049,486.624,276.911,487.989,275.929,489.014z"/>
<path fill="#999797" d="M274.712,358.145c0.03,10.935,0.06,21.869,0.09,32.804c-0.224-0.002-0.448-0.005-0.673-0.007
	c0.016-10.97,0.033-21.94,0.049-32.909C274.356,358.07,274.534,358.108,274.712,358.145z"/>
<path fill="#99928E" d="M277.087,525.911c0.01-9.658,0.02-19.316,0.03-28.973c0.693-0.191,1.202,0.035,1.529,0.675
	c1.327,9.241,1.372,18.483-0.015,27.727C278.284,525.985,277.769,526.174,277.087,525.911z"/>
<path fill="#97867C" d="M277.768,496.934l-0.326,0.005l-0.326-0.001c-0.031-0.723-1.739-1.274-0.222-2.156
	c7.973,0.042,15.947,0.085,23.92,0.127c0.35-0.45,0.675-0.433,0.976,0.051c-0.004,0.333-0.008,0.667-0.011,1
	c-0.441,0.429-0.947,0.762-1.513,1.003C292.767,497.709,285.267,497.837,277.768,496.934z"/>
<path fill="#CFB8A8" d="M277.864,547.047c-1.513-3.994-0.726-8.123-0.715-12.206c1.035-1.12-0.879-3.436,1.611-3.967
	c2.831,3.93,1.434,8.266,1.217,12.494C279.546,544.75,279.158,546.16,277.864,547.047z"/>
<path fill="#999797" d="M319.934,378.11c0.047-6.711,0.094-13.422,0.141-20.133c0.219,0.002,0.438,0.004,0.657,0.006
	C320.601,364.698,322.007,371.473,319.934,378.11z"/>
<path fill="#999592" d="M253.794,269.97c0.053,6.732,0.106,13.463,0.16,20.196c-2.149-6.653-0.615-13.462-0.851-20.196
	C253.333,269.97,253.563,269.97,253.794,269.97z"/>
<path fill="#97887F" d="M301.79,494.959c-0.325-0.008-0.651-0.025-0.975-0.051c0.091-4.981,0.183-9.962,0.274-14.943
	c0.227,0,0.455,0,0.682,0c0.321,2.348-0.177,4.828,1.14,7.015C300.926,489.414,302.563,492.356,301.79,494.959z"/>
<path fill="#CBCACB" d="M274.712,358.145c-0.183-0.017-0.361-0.055-0.534-0.113c-1.963-2.58-1.626-5.221-0.204-7.888
	C275.787,352.668,274.623,355.464,274.712,358.145z"/>
<path fill="#968C87" d="M301.771,479.966l-0.342-0.002c0,0-0.342,0.002-0.341,0.002c-0.076-4.298-0.153-8.596-0.229-12.894
	c0.387-0.003,0.775-0.007,1.162-0.01C301.937,471.363,301.854,475.664,301.771,479.966z"/>
<path fill="#95857A" d="M292.647,308.83c-2.801-1.694-5.83-0.573-8.758-0.712c-0.311-0.102-0.621-0.207-0.93-0.316
	c0.001-0.217,0.002-0.433,0.003-0.65c3.618-0.43,7.356,0.271,10.87-1.148C293.437,306.947,293.042,307.888,292.647,308.83z"/>
<path fill="#918B87" d="M304.825,268.806c2.558-1.33,5.361-0.491,8.023-0.904c-2.026,1.162-2.051,3.101-1.972,5.081
	C310.25,269.576,307.938,268.612,304.825,268.806z"/>
<path fill="#9A8A81" d="M276.825,482.182c-2.329-0.003-4.797-1.17-6.89,0.818c-0.914-0.465-2.235-0.737-1.039-2.199
	c2.675,0.038,5.351,0.076,8.026,0.114C277.343,481.372,277.311,481.794,276.825,482.182z"/>
<path fill="#969595" d="M272.977,339.092c1.983,3.11,0.534,6.549,0.94,9.81C271.866,345.798,273.412,342.35,272.977,339.092z"/>
<path fill="#A9A8A8" d="M277.964,530.942c-0.22,1.311,0.365,2.79-0.815,3.899c-0.02-2.977-0.041-5.953-0.062-8.93
	c0.245,0.016,0.49,0.015,0.735,0C279.383,527.545,279.4,529.223,277.964,530.942z"/>
<path fill="#9D9B9B" d="M320.732,357.983c-0.219-0.002-0.438-0.004-0.657-0.006c-1.609-2.507-1.084-5.323-1.165-8.051
	C320.756,352.332,319.686,355.397,320.732,357.983z"/>
<path fill="#9C918B" d="M269.888,468.659c-0.767,2.026,1.636,4.615-1.117,6.289c0.579-2.267-0.647-4.849,1.198-6.896
	C269.942,468.254,269.915,468.456,269.888,468.659z"/>
<path fill="#A19B97" d="M251.943,254.986c0.794,0.047,1.677-0.166,2.18,0.739c-2.108,1.807-0.795,4.247-1.178,6.374
	C251.103,259.941,252.256,257.36,251.943,254.986z"/>
<path fill="#9F9D9D" d="M271.909,329.92c2.076,2.444,0.678,5.328,1.012,7.993C270.949,335.455,272.379,332.567,271.909,329.92z"/>
<path fill="#969494" d="M317.076,386.634c-0.027-1.866,0.71-3.433,1.892-4.826C318.917,383.643,319.234,385.624,317.076,386.634z"/>
<path fill="#ACA4A0" d="M274.129,390.942c0.224,0.005,0.449,0.008,0.673,0.007c0.412,0.943-0.042,2.232,1.145,2.864
	c-0.562,1.197-1.237,2.234-2.817,1.988C274.133,394.318,273.952,392.593,274.129,390.942z"/>
<path fill="#988D87" d="M269.888,468.659c0.051-0.2,0.078-0.402,0.081-0.608c0.167-2.073-0.649-4.273,0.792-6.183
	c0.067,0.322,0.134,0.644,0.201,0.966C270.547,464.765,271.872,467.018,269.888,468.659z"/>
<path fill="#9C9A9B" d="M272.959,323.972c-1.154,1.888-1.202,3.955-0.984,6.066C270.805,327.774,269.434,325.476,272.959,323.972z"
	/>
<path fill="#9C928B" d="M282.962,307.153c-0.007,0.217-0.008,0.433-0.003,0.65c-2.329,0.032-4.658,0.065-6.988,0.097
	C278.14,306.142,280.608,307.184,282.962,307.153z"/>
<path fill="#AFA6A1" d="M257.935,426.95c1.108,0.505,1.319,2.198,2.845,2.148c-0.367,0.698-0.807,1.78-1.604,1.452
	C257.62,429.909,257.463,428.462,257.935,426.95z"/>
<path fill="#978A82" d="M283.075,312.148c3.15,0.454,1.3,3.087,2.007,4.606c-0.406,0.046-0.811,0.092-1.217,0.138
	C283.996,315.245,284.079,313.606,283.075,312.148z"/>
<path fill="#948981" d="M307.064,283.747c1.443-1.279,0.07-3.677,1.908-4.799C308.479,280.605,310.34,283.197,307.064,283.747z"/>
<path fill="#98897E" d="M253.794,269.97l-0.346,0.005l-0.346-0.005c0.129-1.685-1.06-3.589,0.824-4.983
	C253.882,266.647,253.838,268.309,253.794,269.97z"/>
<path fill="#DAD9D9" d="M273.953,412.915c0.485-0.93,0.97-1.86,1.454-2.789c0.787,1.437,0.938,2.831-0.276,4.134
	C274.739,413.811,274.346,413.363,273.953,412.915z"/>
<path fill="#A2A0A0" d="M318.956,350.019c-1.766-1.405-0.858-3.352-1.031-5.08C319.73,346.336,318.721,348.303,318.956,350.019z"/>
<path fill="#B5AEA8" d="M297.06,304.828c-0.184-2.117,1.124-2.749,2.9-2.918C299.382,303.268,298.337,304.164,297.06,304.828z"/>
<path fill="#938A83" d="M308.927,279.033c0.64-1.276-1.556-3.374,1.172-4.045C309.627,276.313,310.649,278.07,308.927,279.033z"/>
<path fill="#B9A496" d="M277.864,547.047c0.21-1.061-0.122-2.299,1.003-3.06c1.498,1.569,1.395,3.182,0.132,4.826
	c-0.363,0.029-0.726,0.057-1.09,0.086C277.894,548.282,277.879,547.665,277.864,547.047z"/>
<path fill="#A69486" d="M296.131,269.777c-1.417,0-2.834,0-4.59,0C293.132,268.489,294.562,269.061,296.131,269.777z"/>
<path fill="#A69386" d="M299.736,271.719c0,1.091,0,2.182,0,3.404C298.395,274.08,298.948,272.945,299.736,271.719z"/>
<path fill="#FEFEFE" d="M286.857,370.972c-1.264,0.016-2.528,0.032-3.792,0.048c-1.405-6.08-0.221-12.246-0.612-18.348
	c-0.748-3.141,1.76-6.443-0.437-9.529c0.144-1.77-0.781-3.748,1.012-5.196c2.327-0.673,4.649-0.791,6.964,0.058l-0.116-0.062
	c3.253,1.516,6.865-0.396,10.123,1.062l-0.123-0.065c2.432,0.546,4.164,1.469,3.61,4.568c-0.345,1.927-0.066,3.966-0.061,5.954
	c0.14,1.981,0.787,3.878,0.988,5.85c0.016,2.093-0.156,4.202,0.052,6.273c0.211,2.094-1.045,2.789-2.577,3.415l0.089-0.051
	c-1.153,0.7-2.671,0.68-3.593,1.833C294.85,369.025,290.627,369.374,286.857,370.972z"/>
<path fill="#FADECA" d="M286.857,370.972c0.675-3.247,3.626-2.038,5.553-2.829c1.818-0.746,3.653-1.451,5.48-2.174
	c1.834,1.004,1.872,2.464,1.05,4.142c-0.625,5.927-2.015,11.628-4.974,16.867c-3.574-1.304-4.088-6.106-8.013-7.009
	c-2.389-0.368-1.439-1.822-1.009-3.106C285.581,374.899,286.219,372.935,286.857,370.972z"/>
<path fill="#999798" d="M282.847,351.012c0.073,6.669,0.145,13.339,0.219,20.009c-2.462-3.977-0.651-8.338-1.072-12.501
	c-0.25-2.466,0.052-4.988,0.106-7.486C282.334,350.53,282.583,350.522,282.847,351.012z"/>
<path fill="#9B9999" d="M303.057,349.915c-0.044-1.954-0.381-3.958-0.064-5.852c0.468-2.793-1.002-4.075-3.117-5.124
	c3.196-0.429,4.438,0.935,4.112,4.144c-0.231,2.269-0.081,4.578-0.101,6.868C303.587,350.454,303.312,350.418,303.057,349.915z"/>
<path fill="#B5B4B4" d="M282.847,351.012c-0.25-0.006-0.499,0.001-0.748,0.022c-0.028-2.631-0.056-5.262-0.084-7.891
	c0.87-0.522,1.96-1.198,1.824,0.628C283.66,346.195,283.191,348.599,282.847,351.012z"/>
<path fill="#9A9898" d="M301.888,365c3.713-2.7,1.336-6.681,2.103-10.001c0.296-0.505,0.567-0.468,0.815,0.039
	c0.043,2.462-0.012,4.931,0.157,7.384C305.129,364.837,303.719,365.105,301.888,365z"/>
<path fill="#98908B" d="M284.943,376.862c0.123,1.105-0.394,2.417,1.009,3.106c-0.165,1.828-0.888,3.099-2.988,3
	C283.002,380.731,283.485,378.639,284.943,376.862z"/>
<path fill="#9F9D9D" d="M299.999,339.005c-3.365-0.443-6.928,1.005-10.123-1.062C293.223,338.562,296.818,336.809,299.999,339.005z"
	/>
<path fill="#A4A0A0" d="M298.94,370.111c0.082-1.49-0.249-2.875-1.05-4.142c1.118-1.317,2.641-1.015,4.087-1.021
	C299.527,365.824,300.568,368.753,298.94,370.111z"/>
<path fill="#BDBBBC" d="M304.807,355.038c-0.271-0.036-0.543-0.049-0.816-0.039c-0.941-1.579-1.243-3.275-0.935-5.084
	c0.276,0.038,0.553,0.051,0.831,0.037C304.809,351.537,305.13,353.229,304.807,355.038z"/>
<path fill="#9B9999" d="M289.992,338.005c-2.321-0.019-4.643-0.039-6.964-0.058C285.364,336.3,287.684,336.48,289.992,338.005z"/>
<path fill="#FBDFCA" d="M278.999,548.813c-0.044-1.609-0.088-3.218-0.132-4.826c-0.322-4.347,1.073-8.813-0.904-13.045
	c-0.047-1.677-0.094-3.354-0.141-5.031c-0.018-9.659-0.036-19.318-0.054-28.977c4.749-2.071,9.736-0.592,14.601-0.941
	c2.804-0.201,5.636-0.011,8.455,0.004c1.311,3.191,0.433,6.519,0.564,9.777c0.344,8.581-0.327,17.168,0.773,25.764
	c0.623,4.868-0.952,9.809-0.855,14.8c0.065,3.319-2.714,1.84-4.496,1.81C290.843,547.542,284.925,548.288,278.999,548.813z"/>
<path fill="#95847B" d="M296.811,548.147c3.027,0.182,4.251-0.916,4.206-4.257c-0.217-15.963-0.155-31.929-0.192-47.894
	c0.318-0.019,0.636-0.031,0.954-0.037c0.052,8.737,0.155,17.473,0.123,26.21c-0.009,2.338,0.254,4.574,1.029,6.763
	c-0.004,2.633,0.371,5.272-0.139,7.896c-1.36,2.47-0.942,5.176-0.801,7.763C302.223,548.875,300.697,550.104,296.811,548.147z"/>
<path fill="#F3F3F3" d="M302.791,536.828c-1.323-2.656-1.507-5.292,0.139-7.896c0.572,1.885,3.11,2.561,2.994,4.869
	C304.475,534.391,303.673,535.651,302.791,536.828z"/>
<path fill="#98877D" d="M277.973,474.941c0.027-2.559,0.049-5.118,0.094-7.677c0.002-0.092,0.213-0.181,0.326-0.271
	c0.246,0.323,0.492,0.645,0.738,0.968c-0.096,2.313-0.193,4.626-0.29,6.94C278.574,475.403,278.286,475.442,277.973,474.941z"/>
<path fill="#95847A" d="M276.825,482.182c0.032-0.422,0.065-0.845,0.097-1.267c0.064-0.951,0.129-1.902,0.194-2.853
	c0.208-0.402,0.465-0.417,0.764-0.096c-0.011,2.638-0.022,5.277-0.034,7.915c-0.26,0.382-0.548,0.422-0.867,0.069
	C276.928,484.694,276.877,483.438,276.825,482.182z"/>
<path fill="#C8B1A2" d="M276.979,485.949c0.292,0.017,0.581-0.006,0.867-0.068c0.171,1.54,0.153,2.964-1.917,3.133
	C275.964,487.885,275.819,486.693,276.979,485.949z"/>
<path fill="#BEA99A" d="M277.879,477.966c-0.256,0.027-0.511,0.059-0.764,0.095c-0.297-1.2,0.345-2.142,0.858-3.12
	c0.291,0.018,0.581,0.005,0.868-0.039C278.969,476.064,279.063,477.215,277.879,477.966z"/>
</svg>
