<?xml version="1.0" encoding="utf-8"?>
<!-- Generator: Adobe Illustrator 17.0.0, SVG Export Plug-In . SVG Version: 6.00 Build 0)  -->
<!DOCTYPE svg PUBLIC "-//W3C//DTD SVG 1.1//EN" "http://www.w3.org/Graphics/SVG/1.1/DTD/svg11.dtd">
<svg version="1.1" id="Layer_1" xmlns="http://www.w3.org/2000/svg" xmlns:xlink="http://www.w3.org/1999/xlink" x="0px" y="0px"
	 width="612px" height="792px" viewBox="0 0 612 792" enable-background="new 0 0 612 792" xml:space="preserve">
<path fill="#231F20" d="M310.925,405.95c5.952,9.505,12.332,18.756,17.203,28.902c4.364,9.091,4.128,9.9-4.173,15.654
	c-0.487,0.338-0.787,0.946-1.174,1.428c-6.401,4.235-13.386,6.92-21.011,7.902c-3.255-0.533-6.552,3.448-9.24,1.005
	c-2.121-1.926-2.703-5.545-3.982-8.406c-0.045-0.1-0.239-0.133-0.784-0.413c-1.138,2.287-2.249,4.601-3.431,6.879
	c-3.942,7.596-5.002,8.05-13.229,5.784c-1.334-0.399-2.776-0.15-4.094-0.662c-6.396-3.076-12.64-6.403-18.011-11.139
	c-0.191-0.45-0.274-1.005-0.59-1.334c-1.885-1.96-5.828-2.672-5.775-5.449c0.048-2.504,2.369-4.983,3.744-7.441
	c7.753-13.855,15.53-27.696,24.491-40.827c0.459-0.295,0.957-0.486,1.493-0.58c9.789,1.593,19.36-0.354,28.957-1.809
	c1.735,0.031,2.273,1.113,2.199,2.633c-0.084,1.724,0.178,3.356,1.435,4.605C306.613,404.333,307.206,408.035,310.925,405.95z"/>
<path fill="#FEFEFE" d="M301.98,395.966c-9.879,2.497-19.739,5.287-29.994,1.924c-0.739-2.368-1.404-4.752-1.53-7.251
	c-0.279-3.624,0.644-7.32-0.664-10.881c-0.329-1.397-0.659-2.793-0.523-4.247c0.614-4.799-0.2-9.761,1.631-14.421
	c-0.007-1.086-0.015-2.172-0.022-3.259c-1.784-2.387-0.488-5.137-0.905-7.685c-0.019-0.415-0.038-0.83-0.056-1.245
	c-1.295-3.176,0.38-6.636-0.94-9.81c-0.019-0.393-0.037-0.786-0.056-1.179c-1.286-2.544,0.41-5.466-1.012-7.993l0.066,0.119
	c-0.733-2.194-1.308-4.363,0.984-6.067c3.66-1.302,7.32-2.604,10.98-3.906c2.339-2.226,5.257-1.657,7.916-1.279
	c3.763,0.535,7.472,0.66,11.223,0.193c4.304-1.353,5.944,2.256,7.523,4.718c1.971,3.074,2.929,6.798,4.324,10.241
	c0.922,1.285,0.252,2.237-0.652,3.141c-2.741,0.182-3.729-2.393-5.616-3.563c-1.055-1.089-1.364-2.927-3.237-3.186
	c-1.569-0.713-2.785-1.881-3.979-3.077c-0.782-0.823-1.141-2.188-2.668-2.028c-4.144,2.275-7.113,5.99-10.882,8.71
	c-2.536,1.83-2.239,3.636,0.077,5.628c3.655,3.145,6.678,6.916,9.814,10.564c2.691,3.045,4.845,6.67,8.918,8.182
	c0.747-0.383,1.346-0.964,2.022-1.443c3.551-1.316,4.697,2.009,6.8,3.506c0.989,1.04,1.917,2.126,2.55,3.43
	c1.416,2.97-0.307,5.508-1.321,8.022c-2.655,6.581-4.435,13.458-6.999,20.065C305.024,393.768,304.4,395.682,301.98,395.966z"/>
<path fill="#FBDFCA" d="M306.876,272.984c0.094,0.805-0.094,1.5-0.776,2.004c-1.515,1.023,0.006,2.925-1.172,4.046l0.044-0.086
	c-1.339,1.32,0.469,3.892-1.907,4.799c0.28,7.09-3.668,12.525-7.103,18.162c-1.128,0.813-2.271,1.611-2.901,2.919
	c-1.076,0.392-2.151,0.784-3.227,1.177c-3.157,2.985-6.777,2.668-10.518,1.479c-2.444,0.187-4.939-0.5-7.344,0.416
	c-2.808-2.006-6.315-2.427-9.418-3.527c-7.137-2.529-10.8-7.344-12.599-14.205c-1.094-6.54-0.209-13.13-0.496-19.689
	c0.193-1.827-0.449-3.726,0.469-5.492c-0.327-0.962-0.654-1.925-0.981-2.887c-0.727-2.141-0.902-4.269,0.157-6.364
	c1.796-1.068,3.66-0.562,5.216,0.289c5.068,2.772,10.196,2.66,15.26,0.398c6.566-2.933,12.075-1.853,17.034,3.354
	c1.686,1.77,3.893,3.077,5.741,4.716c2.633,2.335,5.53,3.539,9.052,3.146C305.454,267.146,306.72,269.498,306.876,272.984z"/>
<path fill="#231F20" d="M300.826,268.806c-4.329,1.126-7.556-1.115-10.048-4.015c-7.562-8.8-16.309-10.717-26.619-5.385
	c-3.223,1.667-5.729-0.628-8.473-1.516c-1.889-0.612-3.71-1.435-5.561-2.164c-0.737-0.216-1.625,0.012-2.18-0.739
	c-0.824-0.536-1.776-0.945-2.451-1.628c-3.918-3.962-3.613-5.392,1.262-8.114c7.517-4.196,15.063-8.356,22.416-12.828
	c7.254-4.412,14.735-5.644,22.825-2.915c5.017,1.692,9.949,3.868,15.105,4.86c8.527,1.64,9.347,8.751,11.684,14.902
	c0.526,1.384-0.402,2.63-1.037,3.728c-2.897,5.011-5.921,9.948-8.9,14.911C306.323,269.521,303.408,267.688,300.826,268.806z"/>
<path fill="#FBDFCA" d="M339.867,477.923c3.15,2.189,5.776,4.908,8.068,7.966c3.619,2.584,6.111,6.406,9.799,8.914
	c3.853,6.492,10.015,10.872,14.964,16.362c1.424,1.58,2.829,3.178,4.243,4.767c1.89,1.947,5.012,2.899,5.095,6.309
	c-5.592,3.759-11.524,7.015-16.753,11.32c-0.886,0.729-1.938,1.334-3.133,0.471c-8.03-6.636-15.026-14.323-22.211-21.819
	c-4.458-6.156-10.509-10.796-15.572-16.373c-1.405-1.548-3.423-2.618-3.97-4.872c1.428-3.513,4.97-4.649,7.689-6.651
	c3.314-2.439,7.044-4.279,10.48-6.567C339.029,477.578,339.465,477.627,339.867,477.923z"/>
<path fill="#FBDFCA" d="M209.124,533.261c6.911-11.566,12.149-23.912,17.51-36.244c2.435-5.601,4.931-11.473,9.144-16.211
	c3.467-0.822,5.838,1.99,8.863,2.735c3.345,0.824,6.308,2.85,9.635,3.935c1.44,0.47,3.231,1.262,2.691,3.521
	c-4.12,10.659-10.582,20.145-15.28,30.519c-3.13,6.91-7.217,13.366-9.83,20.528c-0.738,0.46-1.577,0.688-2.356,0.329
	c-5.852-2.698-11.923-4.79-18.071-6.687C210.274,535.329,209.528,534.417,209.124,533.261z"/>
<path fill="#FBDFCA" d="M338.915,478.04c-3.746,4.636-9.771,6.044-14.059,9.925c-1.213,1.098-2.608,1.994-3.92,2.983
	c-0.402,0.816-1.41,0.416-1.943,0.968c-3.694-4.027-5.655-9.198-7.791-13.96c-2.809-6.261-7.352-11.549-9.432-18.119
	c7.004-2.634,14.007-5.268,21.011-7.902c4.722,7.374,9.445,14.748,14.167,22.122C337.402,475.483,339.666,476.018,338.915,478.04z"
	/>
<path fill="#FBDFCA" d="M256.967,490.997c-2.634-4.208-7.762-3.806-11.552-5.912c-2.937-1.631-6.379-2.926-9.636-4.279
	c3.622-7.835,7.247-15.674,11.887-22.977c0.993-1.563,2.206-2.937,1.332-4.946c6.811,2.451,12.094,7.689,18.815,10.304
	c1.087,1.224,0.82,2.497,0.135,3.784C264.65,475.145,262.136,483.678,256.967,490.997z"/>
<path fill="#231F20" d="M362.149,534.032c6.431-4.293,12.395-9.33,19.639-12.329c0.442-0.175,0.564-0.804,1.133-0.798
	c0.972,0.36,2.684-1.463,2.939,1.099c0.197,1.972,1.826,3.079,3.094,4.383c2.407,2.476,1.969,8.69-0.849,10.832
	c-10.717,8.147-21.835,15.363-36.108,14.918c-2.903-1.172-1.238-3.399-1.211-5.248c0.207-4.195,1.937-7.089,6.355-8.083
	C359.629,538.247,361.633,536.831,362.149,534.032z"/>
<path fill="#231F20" d="M209.124,533.261c7.578,2.928,15.156,5.856,22.733,8.783c-0.887,1.758-2.115,3.428-2.601,5.291
	c-1.842,7.049-5.047,8.968-12.13,6.927c-19.495-5.617-19.515-5.629-31.942-18.42c6.824-6.399,7.569-6.477,15.484-2.839
	C203.368,534.243,206.266,534.485,209.124,533.261z"/>
<path fill="#FBDFCA" d="M301.98,395.966c2.923-2.54,3.59-6.375,4.482-9.664c1.781-6.57,4.485-12.745,6.834-19.069
	c0.49-1.319,0.043-2.207-0.377-3.254c1.796-4.019,2.245-8.602,5.105-12.175c1.472,1.056,2.928,2.136,4.419,3.165
	c5.888,4.064,5.595,4.356,2.944,10.786c-5.002,12.133-9.485,24.48-14.112,36.765c-0.392,1.04-0.245,2.282-0.349,3.429
	c-2.034-1.009-1.748,3.597-3.287,1.769c-2.207-2.622-5.61-4.653-5.726-8.721C301.882,397.982,303.427,397.002,301.98,395.966z"/>
<path fill="#FBDFCA" d="M270.005,376.222c0.283,0.948,0.566,1.895,0.849,2.843c-1.12,0.877-2.224,1.816-3.793,1.013
	c-12.184-5.109-24.348-10.266-36.566-15.293c-3.043-1.252-5.453-3.788-8.943-4.157c-0.98-0.104-1.589-1.099-1.154-2.312
	c0.955-2.661,7.066-5.592,9.952-4.698c8.65,2.679,16.779,6.667,25.084,10.193c2.853,1.211,6.157,1.246,8.63,3.371
	c1.272,0.327,2.452,0.781,2.986,2.139c0.828,1.706,2.02,3.221,2.676,5.021C269.901,374.956,269.952,375.589,270.005,376.222z"/>
<path fill="#FADEC9" d="M318.023,351.805c-1.142,4.293-1.257,9.016-5.104,12.175c-0.662-0.952-1.323-1.905-1.985-2.857
	c-1.074-2.499-3.858-3.669-4.855-6.233c0.159-4.395,2.77-7.671,5.072-11.09c1.659-0.328,1.963,1.13,2.684,2.039
	C315.231,347.827,316.627,349.816,318.023,351.805z"/>
<path fill="#282425" d="M299.078,318.981c-0.908,2.547-3.029,2.022-4.949,1.921c-4.732-0.248-9.403-1.519-14.19-0.835
	c-1.388-0.384-2.776-0.768-4.92-1.362c2.125-0.795,3.486-1.304,4.846-1.813c0.39-0.3,0.786-0.593,1.186-0.88
	c3.216-1.124,6.418-2.314,9.911-2.187C295.158,313.199,299.21,312.797,299.078,318.981z"/>
<path fill="#F7DCC8" d="M290.963,313.825c-2.967,2.077-6.479,2.316-9.88,2.929c-1.481-1.181,0.367-3.813-2.007-4.606
	c0.271-1.343,0.542-2.686,0.814-4.029c2.997-0.721,6.017-1.723,8.758,0.712C290.378,310.05,290.384,312.07,290.963,313.825z"/>
<path fill="#B6A9A1" d="M318.993,491.915c0.335-0.95,1.151-0.935,1.943-0.967c5.283,5.481,10.585,10.944,15.835,16.457
	c1.33,1.397,3.264,2.447,3.167,4.806C332.956,505.447,325.974,498.681,318.993,491.915z"/>
<path fill="#EDD3C0" d="M268.947,374.983c-1.006-1.658-2.012-3.316-3.018-4.974c0.763-0.5,0.171-1.795,1.24-2.115
	c0.357-0.713,0.714-1.427,1.071-2.14c0.903-0.282,2.002-0.06,1.933,0.832C269.956,369.401,272.048,372.599,268.947,374.983z"/>
<path fill="#999592" d="M249.794,269.97c0.053,6.732,0.106,13.463,0.16,20.196c-2.149-6.653-0.615-13.462-0.851-20.196
	C249.333,269.97,249.564,269.97,249.794,269.97z"/>
<path fill="#9B9795" d="M268.947,374.983c1.173-3.184,2.395-6.372-0.708-9.228c0.888-1.555,1.775-3.11,2.662-4.665
	c-0.484,5.033,1.224,10.196-0.896,15.132C269.652,375.809,269.3,375.396,268.947,374.983z"/>
<path fill="#B6ABA3" d="M357.734,494.803c-4.551-1.559-6.799-5.649-9.799-8.914C352.47,487.466,354.695,491.581,357.734,494.803z"/>
<path fill="#9B9796" d="M267.06,380.078c1.265-0.338,2.529-0.675,3.793-1.013c-0.023,3.954-0.045,7.908-0.067,11.862
	c-0.231,0.481-0.462,0.504-0.691-0.001c-0.05-1.925-0.355-3.887-0.09-5.767C270.376,382.538,269.297,381.043,267.06,380.078z"/>
<path fill="#CBCACB" d="M269.974,350.146c1.875,2.377,0.519,5.135,0.906,7.686C267.215,355.665,268.946,352.864,269.974,350.146z"/>
<path fill="#95857A" d="M288.647,308.83c-2.801-1.694-5.83-0.573-8.758-0.712c-0.311-0.102-0.621-0.207-0.93-0.316
	c0.001-0.217,0.002-0.433,0.003-0.65c3.618-0.43,7.356,0.271,10.87-1.148C289.438,306.947,289.043,307.888,288.647,308.83z"/>
<path fill="#918B87" d="M300.826,268.806c2.558-1.33,5.361-0.491,8.023-0.904c-2.026,1.162-2.051,3.101-1.972,5.081
	C306.251,269.576,303.938,268.612,300.826,268.806z"/>
<path fill="#939192" d="M313.835,345.838c-0.701-0.62-1.401-1.241-2.102-1.861c-1.203-1.704-0.478-3.159,0.587-4.572
	c0.2-0.13,0.403-0.258,0.606-0.386C315.023,341.052,313.505,343.568,313.835,345.838z"/>
<path fill="#B1A59D" d="M382.921,520.905c-0.378,0.266-0.755,0.532-1.133,0.798c-1.616-1.924-3.231-3.847-4.847-5.771
	C380.011,516.294,381.212,518.905,382.921,520.905z"/>
<path fill="#969595" d="M268.977,339.092c1.983,3.11,0.534,6.549,0.94,9.81C267.867,345.798,269.412,342.35,268.977,339.092z"/>
<path fill="#ACABAB" d="M309.66,336.882c0.422-0.981,0.844-1.961,1.266-2.942c1.575,1.335,1.441,3.343,2,5.078l0.068-0.059
	C310.802,340.002,309.872,339.018,309.66,336.882z"/>
<path fill="#AFADAE" d="M270.095,390.926c0.231,0.019,0.461,0.019,0.692,0.001c0.575,2.291,1.415,4.536,1.199,6.963
	c-0.373-0.019-0.746-0.039-1.118-0.058C271.032,395.483,269.48,393.326,270.095,390.926z"/>
<path fill="#A19B97" d="M247.943,254.986c0.794,0.047,1.677-0.166,2.18,0.739c-2.108,1.807-0.795,4.247-1.178,6.374
	C247.103,259.941,248.256,257.36,247.943,254.986z"/>
<path fill="#9F9D9D" d="M267.909,329.92c2.076,2.444,0.678,5.328,1.012,7.993C266.95,335.455,268.38,332.567,267.909,329.92z"/>
<path fill="#9C9A9B" d="M268.959,323.972c-1.154,1.888-1.202,3.955-0.984,6.066C266.806,327.774,265.434,325.476,268.959,323.972z"
	/>
<path fill="#9C928B" d="M278.963,307.153c-0.007,0.217-0.008,0.433-0.003,0.65c-2.329,0.032-4.658,0.065-6.988,0.097
	C274.14,306.142,276.609,307.184,278.963,307.153z"/>
<path fill="#AAA8A9" d="M350.785,546.89c0.836,1.649-0.882,3.888,1.211,5.248C349.438,551.844,349.358,551.494,350.785,546.89z"/>
<path fill="#978A82" d="M279.076,312.148c3.15,0.454,1.3,3.087,2.007,4.606c-0.406,0.046-0.811,0.092-1.217,0.138
	C279.996,315.245,280.08,313.606,279.076,312.148z"/>
<path fill="#9A928E" d="M267.947,466.971c-0.045-1.261-0.09-2.523-0.135-3.784c1.149,0.387,2.448,0.441,3.291,1.498
	C269.309,464.422,269.091,466.336,267.947,466.971z"/>
<path fill="#92847D" d="M338.915,478.04c-0.664-1.324-2.115-2.26-1.967-3.985c1.445,0.933,3.265,1.583,2.919,3.867
	C339.54,477.885,339.223,477.924,338.915,478.04z"/>
<path fill="#948981" d="M303.064,283.747c1.443-1.279,0.07-3.677,1.907-4.799C304.48,280.605,306.34,283.197,303.064,283.747z"/>
<path fill="#98897E" d="M249.794,269.97l-0.346,0.005l-0.346-0.005c0.129-1.685-1.06-3.589,0.824-4.984
	C249.883,266.647,249.839,268.309,249.794,269.97z"/>
<path fill="#918680" d="M267.169,367.894c-0.201,0.829-0.312,1.711-1.24,2.115c0.283-1.54-0.992-2.052-1.867-2.827
	C265.202,366.964,266.303,366.918,267.169,367.894z"/>
<path fill="#B5AEA8" d="M293.06,304.828c-0.184-2.117,1.124-2.749,2.9-2.918C295.382,303.268,294.338,304.164,293.06,304.828z"/>
<path fill="#938A83" d="M304.928,279.033c0.64-1.276-1.556-3.374,1.172-4.045C305.627,276.313,306.649,278.07,304.928,279.033z"/>
<path fill="#FEFEFE" d="M309.66,336.882c0.788,1.211,1.77,2.112,3.334,2.077c-0.42,1.672-0.84,3.345-1.26,5.017
	c-1.206,3.809-4.324,6.775-4.803,10.903c-0.026,1.434-2.609,1.153-2.014,3.003c-0.203,0.742-0.744,1.023-1.457,1.071
	c-1.944,1.137-2.596-0.772-3.592-1.626c-2.374-2.036-4.24-4.633-6.924-6.34c-3.403-3.764-6.356-7.967-10.495-11.014
	c-3.153-2.321-2.692-4.42,0.091-6.647c4.222-3.378,8.386-6.829,12.575-10.249c0.61,1.473,2.01,2.391,2.681,3.822
	c1.623,0.609,2.934,1.612,3.883,3.073c1.656,0.354,2.309,1.785,3.19,2.971C306.929,333.691,308.56,334.964,309.66,336.882z"/>
<path fill="#B7B6B6" d="M292.944,350.988c3.072,0.074,4.015,2.986,5.998,4.511c1.502,1.155,2.314,3.21,4.517,3.454
	c-0.707,2.04-1.709,1.486-2.792,0.322C298.095,356.511,295.518,353.75,292.944,350.988z"/>
<path fill="#B7AAA1" d="M304.916,357.883c-1.35-2.357,1.115-2.154,2.014-3.002c0.851,2.389,3.984,3.316,4.003,6.241
	C308.538,360.766,308.452,356.121,304.916,357.883z"/>
<path fill="#BBBABA" d="M297.795,326.899c-1.282-1.002-3.074-1.647-2.682-3.822C296.456,324.037,298.154,324.746,297.795,326.899z"
	/>
<path fill="#BBB9BA" d="M304.867,332.943c-1.062-0.99-2.125-1.98-3.188-2.971C304.116,329.485,304.758,330.928,304.867,332.943z"/>
<path fill="#A69486" d="M291.791,270.01c-1.404-0.09-2.808-0.18-5.027-0.323C289.151,268.827,290.693,268.702,291.791,270.01z"/>
<path fill="#A69386" d="M295.282,271.799c0.739,1.153,0.88,2.253,0.238,3.417C294.345,274.061,295.316,272.865,295.282,271.799z"/>
</svg>
