<?xml version="1.0" encoding="utf-8"?>
<!-- Generator: Adobe Illustrator 17.0.0, SVG Export Plug-In . SVG Version: 6.00 Build 0)  -->
<!DOCTYPE svg PUBLIC "-//W3C//DTD SVG 1.1//EN" "http://www.w3.org/Graphics/SVG/1.1/DTD/svg11.dtd">
<svg version="1.1" id="Layer_1" xmlns="http://www.w3.org/2000/svg" xmlns:xlink="http://www.w3.org/1999/xlink" x="0px" y="0px"
	 width="595.28px" height="841.89px" viewBox="0 0 595.28 841.89" enable-background="new 0 0 595.28 841.89" xml:space="preserve">
<g>
	<path d="M893.64,133.428c0,27.5-22.5,50-50,50h-4c-27.5,0-50-22.5-50-50v-294c0-27.5,22.5-50,50-50h4c27.5,0,50,22.5,50,50V133.428
		z"/>
</g>
<g>
	<path d="M388.504,639.431c-0.454,9.674-4.75,17.404-9.547,17.179s-8.35-8.324-7.896-17.997l11.986-255.504
		c0.454-9.674,4.75-17.404,9.547-17.179c4.797,0.225,8.35,8.324,7.896,17.997L388.504,639.431z"/>
</g>
<g>
	<path d="M669.387,646.624c15.554,0,28.28,3.929,28.28,8.731c0,4.802-12.726,8.731-28.28,8.731H-24.72
		c-15.554,0-28.28-3.929-28.28-8.731c0-4.802,12.726-8.731,28.28-8.731H669.387z"/>
</g>
<g>
	<path d="M315.189,430.517c-3.475,16.998-20.225,28.062-37.223,24.587l-24.873-5.085c-16.998-3.475-28.062-20.225-24.587-37.223
		l24.284-118.787c3.475-16.998,20.225-28.062,37.223-24.587l24.873,5.085c16.998,3.475,28.062,20.225,24.587,37.223L315.189,430.517
		z"/>
</g>
<g>
	<path d="M253.725,396.852c-2.503,15.439-17.183,26.024-32.622,23.521l-14.839-2.405c-15.439-2.503-26.024-17.182-23.521-32.622
		l20.395-125.815c2.503-15.439,17.183-26.024,32.622-23.521l14.839,2.405c15.439,2.503,26.024,17.182,23.521,32.622L253.725,396.852
		z"/>
</g>
<g>
	<path d="M278.597,532.249c-0.014,10.064-8.259,18.287-18.323,18.273l-1.464-0.002c-10.064-0.014-18.287-8.259-18.273-18.323
		l0.146-107.592c0.014-10.064,8.259-18.287,18.323-18.273l1.464,0.002c10.064,0.014,18.287,8.259,18.273,18.323L278.597,532.249z"/>
</g>
<g>
	<path d="M317,636.702c0,10.106-8.192,18.298-18.298,18.298h-1.404C287.192,655,279,646.808,279,636.702V529.298
		c0-10.106,8.192-18.298,18.298-18.298h1.404c10.106,0,18.298,8.192,18.298,18.298V636.702z"/>
</g>
<g>
	<path d="M390.639,355.876c10.028-0.848,18.744,4.507,19.369,11.899s-7.069,14.134-17.097,14.981l-57.641,4.872
		c-10.028,0.848-18.744-4.507-19.369-11.899s7.069-14.134,17.097-14.981L390.639,355.876z"/>
</g>
<g>
	<path d="M316.611,516.001c2.743,9.683-2.936,19.849-12.618,22.592l-1.408,0.399c-9.683,2.743-19.849-2.936-22.592-12.618
		l-29.323-103.52c-2.743-9.683,2.936-19.849,12.618-22.592l1.408-0.399c9.683-2.743,19.849,2.936,22.592,12.618L316.611,516.001z"/>
</g>
<g>
	<path d="M340.476,369.943c0.691,8.934-6.053,16.81-14.988,17.501l-1.3,0.101c-8.934,0.691-16.81-6.053-17.501-14.988l-5.734-74.116
		c-0.691-8.934,6.053-16.81,14.988-17.501l1.3-0.101c8.934-0.691,16.81,6.053,17.501,14.988L340.476,369.943z"/>
</g>
<g>
	<path d="M262.894,639.37c-1.419,9.963-10.732,16.954-20.695,15.535l-1.449-0.206c-9.963-1.419-16.954-10.732-15.535-20.695
		l15.172-106.517c1.419-9.963,10.732-16.954,20.695-15.535l1.449,0.206c9.963,1.419,16.954,10.732,15.535,20.695L262.894,639.37z"/>
</g>
<circle cx="321.003" cy="223.667" r="42.333"/>
</svg>
