<?xml version="1.0" encoding="utf-8"?>
<!-- Generator: Adobe Illustrator 17.0.0, SVG Export Plug-In . SVG Version: 6.00 Build 0)  -->
<!DOCTYPE svg PUBLIC "-//W3C//DTD SVG 1.1//EN" "http://www.w3.org/Graphics/SVG/1.1/DTD/svg11.dtd">
<svg version="1.1" id="Layer_1" xmlns="http://www.w3.org/2000/svg" xmlns:xlink="http://www.w3.org/1999/xlink" x="0px" y="0px"
	 width="595.28px" height="841.89px" viewBox="0 0 595.28 841.89" enable-background="new 0 0 595.28 841.89" xml:space="preserve">
<g>
	<path d="M893.64,133.428c0,27.5-22.5,50-50,50h-4c-27.5,0-50-22.5-50-50v-294c0-27.5,22.5-50,50-50h4c27.5,0,50,22.5,50,50V133.428
		z"/>
</g>
<g>
	<path d="M456.63,630.924c0.87,9.645-2.331,17.889-7.114,18.321c-4.783,0.432-9.408-7.107-10.278-16.752l-22.984-254.75
		c-0.87-9.645,2.331-17.889,7.113-18.321c4.783-0.431,9.408,7.107,10.278,16.752L456.63,630.924z"/>
</g>
<g>
	<path d="M669.387,646.624c15.554,0,28.28,3.929,28.28,8.731c0,4.802-12.726,8.731-28.28,8.731H-24.72
		c-15.554,0-28.28-3.929-28.28-8.731c0-4.802,12.726-8.731,28.28-8.731H669.387z"/>
</g>
<g>
	<path d="M315.189,430.517c-3.475,16.998-20.225,28.062-37.223,24.587l-24.873-5.085c-16.998-3.475-28.062-20.225-24.587-37.223
		l24.284-118.787c3.475-16.998,20.225-28.062,37.223-24.587l24.873,5.085c16.998,3.475,28.062,20.225,24.587,37.223L315.189,430.517
		z"/>
</g>
<g>
	<path d="M253.725,396.852c-2.503,15.439-17.183,26.024-32.622,23.521l-14.839-2.405c-15.439-2.503-26.024-17.182-23.521-32.622
		l20.395-125.815c2.503-15.439,17.183-26.024,32.622-23.521l14.839,2.405c15.439,2.503,26.024,17.182,23.521,32.622L253.725,396.852
		z"/>
</g>
<g>
	<path d="M263.794,546.58c-1.614,9.934-11.063,16.74-20.996,15.126l-1.445-0.235c-9.934-1.614-16.74-11.063-15.126-20.996
		l17.26-106.199c1.614-9.934,11.063-16.74,20.996-15.126l1.445,0.235c9.934,1.614,16.74,11.063,15.126,20.996L263.794,546.58z"/>
</g>
<g>
	<path d="M363,629.702c0,10.106-8.192,18.298-18.298,18.298h-1.404C333.192,648,325,639.808,325,629.702V522.298
		c0-10.106,8.192-18.298,18.298-18.298h1.404c10.106,0,18.298,8.192,18.298,18.298V629.702z"/>
</g>
<g>
	<path d="M425.438,359.357c10.059-0.318,18.48,5.489,18.715,12.904s-7.804,13.741-17.863,14.059l-57.818,1.826
		c-10.059,0.318-18.48-5.489-18.715-12.904s7.804-13.741,17.863-14.059L425.438,359.357z"/>
</g>
<g>
	<path d="M359.136,508.87c5.539,8.403,3.196,19.809-5.207,25.348l-1.222,0.806c-8.403,5.539-19.809,3.196-25.348-5.207
		l-59.216-89.831c-5.539-8.403-3.196-19.809,5.207-25.348l1.222-0.806c8.403-5.539,19.809-3.196,25.348,5.207L359.136,508.87z"/>
</g>
<g>
	<path d="M371.635,359.643c5.4,7.151,3.967,17.42-3.184,22.82l-1.04,0.785c-7.151,5.4-17.421,3.967-22.82-3.184l-44.796-59.325
		c-5.4-7.151-3.967-17.421,3.184-22.82l1.04-0.785c7.151-5.4,17.42-3.967,22.82,3.184L371.635,359.643z"/>
</g>
<g>
	<path d="M208.313,645.355c-5.173,8.633-16.468,11.464-25.101,6.291l-1.256-0.752c-8.633-5.173-11.464-16.468-6.291-25.101
		l55.302-92.292c5.173-8.633,16.468-11.464,25.101-6.291l1.256,0.752c8.633,5.173,11.464,16.468,6.291,25.101L208.313,645.355z"/>
</g>
<circle cx="321.003" cy="223.667" r="42.333"/>
</svg>
