<?xml version="1.0" encoding="utf-8"?>
<!-- Generator: Adobe Illustrator 17.0.0, SVG Export Plug-In . SVG Version: 6.00 Build 0)  -->
<!DOCTYPE svg PUBLIC "-//W3C//DTD SVG 1.1//EN" "http://www.w3.org/Graphics/SVG/1.1/DTD/svg11.dtd">
<svg version="1.1" id="Layer_1" xmlns="http://www.w3.org/2000/svg" xmlns:xlink="http://www.w3.org/1999/xlink" x="0px" y="0px"
	 width="595.28px" height="841.89px" viewBox="0 0 595.28 841.89" enable-background="new 0 0 595.28 841.89" xml:space="preserve">
<g>
	<path d="M893.64,133.428c0,27.5-22.5,50-50,50h-4c-27.5,0-50-22.5-50-50v-294c0-27.5,22.5-50,50-50h4c27.5,0,50,22.5,50,50V133.428
		z"/>
</g>
<g>
	<path d="M381.144,623.76c-0.192,9.682-4.277,17.526-9.078,17.431s-8.573-8.095-8.381-17.777l5.061-255.735
		c0.192-9.682,4.277-17.526,9.078-17.431c4.801,0.095,8.573,8.095,8.381,17.777L381.144,623.76z"/>
</g>
<g>
	<path d="M669.387,646.624c15.554,0,28.28,3.929,28.28,8.731c0,4.802-12.726,8.731-28.28,8.731H-24.72
		c-15.554,0-28.28-3.929-28.28-8.731c0-4.802,12.726-8.731,28.28-8.731H669.387z"/>
</g>
<g>
	<path d="M337.517,521.973c3.57,9.409-1.207,20.029-10.616,23.599l-1.369,0.519c-9.409,3.57-20.029-1.207-23.599-10.616
		l-38.17-100.594c-3.57-9.409,1.207-20.029,10.616-23.599l1.369-0.519c9.409-3.57,20.029,1.207,23.599,10.616L337.517,521.973z"/>
</g>
<g>
	<path d="M315.189,430.517c-3.475,16.998-20.225,28.062-37.223,24.587l-24.873-5.085c-16.998-3.475-28.062-20.225-24.587-37.223
		l24.284-118.787c3.475-16.998,20.225-28.062,37.223-24.587l24.873,5.085c16.998,3.475,28.062,20.225,24.587,37.223L315.189,430.517
		z"/>
</g>
<g>
	<path d="M253.725,396.852c-2.503,15.439-17.183,26.024-32.622,23.521l-14.839-2.405c-15.439-2.503-26.024-17.182-23.521-32.622
		l20.395-125.815c2.503-15.439,17.183-26.024,32.622-23.521l14.839,2.405c15.439,2.503,26.024,17.182,23.521,32.622L253.725,396.852
		z"/>
</g>
<g>
	<path d="M271.597,532.249c-0.014,10.064-8.259,18.287-18.323,18.273l-1.464-0.002c-10.064-0.014-18.287-8.259-18.273-18.323
		l0.146-107.592c0.014-10.064,8.259-18.287,18.323-18.273l1.464,0.002c10.064,0.014,18.287,8.259,18.273,18.323L271.597,532.249z"/>
</g>
<g>
	<path d="M336,636.702c0,10.106-8.192,18.298-18.298,18.298h-1.404C306.192,655,298,646.808,298,636.702V529.298
		c0-10.106,8.192-18.298,18.298-18.298h1.404c10.106,0,18.298,8.192,18.298,18.298V636.702z"/>
</g>
<g>
	<path d="M377.687,343.354c9.522,3.258,15.347,11.667,12.946,18.686c-2.402,7.019-12.158,10.096-21.679,6.837l-54.731-18.729
		c-9.522-3.258-15.347-11.667-12.946-18.686c2.402-7.019,12.158-10.096,21.679-6.837L377.687,343.354z"/>
</g>
<g>
	<path d="M320.476,372.943c0.691,8.934-6.053,16.81-14.988,17.501l-1.3,0.101c-8.934,0.691-16.81-6.053-17.501-14.988l-5.734-74.116
		c-0.691-8.934,6.053-16.81,14.988-17.501l1.3-0.101c8.934-0.691,16.81,6.053,17.501,14.988L320.476,372.943z"/>
</g>
<g>
	<path d="M236.239,634.489c-3.423,9.464-13.967,14.407-23.431,10.984l-1.377-0.498c-9.464-3.423-14.407-13.967-10.984-23.431
		l36.593-101.178c3.423-9.464,13.967-14.407,23.431-10.984l1.377,0.498c9.464,3.423,14.407,13.967,10.984,23.431L236.239,634.489z"
		/>
</g>
<circle cx="321.003" cy="223.667" r="42.333"/>
</svg>
