<?xml version="1.0" encoding="utf-8"?>
<!-- Generator: Adobe Illustrator 17.0.0, SVG Export Plug-In . SVG Version: 6.00 Build 0)  -->
<!DOCTYPE svg PUBLIC "-//W3C//DTD SVG 1.1//EN" "http://www.w3.org/Graphics/SVG/1.1/DTD/svg11.dtd">
<svg version="1.1" id="Layer_1" xmlns="http://www.w3.org/2000/svg" xmlns:xlink="http://www.w3.org/1999/xlink" x="0px" y="0px"
	 width="595.28px" height="841.89px" viewBox="0 0 595.28 841.89" enable-background="new 0 0 595.28 841.89" xml:space="preserve">
<g>
	<path d="M893.64,133.428c0,27.5-22.5,50-50,50h-4c-27.5,0-50-22.5-50-50v-294c0-27.5,22.5-50,50-50h4c27.5,0,50,22.5,50,50V133.428
		z"/>
</g>
<g>
	<path d="M319.985,641.766c-3.099,9.175-9.357,15.424-13.906,13.888c-4.55-1.537-5.736-10.301-2.637-19.476l81.853-242.334
		c3.099-9.175,9.357-15.424,13.906-13.888c4.55,1.537,5.736,10.301,2.637,19.476L319.985,641.766z"/>
</g>
<g>
	<path d="M669.387,646.624c15.554,0,28.28,3.929,28.28,8.731c0,4.802-12.726,8.731-28.28,8.731H-24.72
		c-15.554,0-28.28-3.929-28.28-8.731c0-4.802,12.726-8.731,28.28-8.731H669.387z"/>
</g>
<g>
	<path d="M363.39,502.375c6.628,7.573,5.855,19.192-1.718,25.82l-1.102,0.964c-7.573,6.628-19.192,5.855-25.82-1.718L263.89,446.48
		c-6.628-7.573-5.855-19.192,1.718-25.82l1.102-0.964c7.573-6.628,19.192-5.855,25.82,1.718L363.39,502.375z"/>
</g>
<g>
	<path d="M315.189,430.517c-3.475,16.998-20.225,28.062-37.223,24.587l-24.873-5.085c-16.998-3.475-28.062-20.225-24.587-37.223
		l24.284-118.787c3.475-16.998,20.225-28.062,37.223-24.587l24.873,5.085c16.998,3.475,28.062,20.225,24.587,37.223L315.189,430.517
		z"/>
</g>
<g>
	<path d="M253.725,396.852c-2.503,15.439-17.183,26.024-32.622,23.521l-14.839-2.405c-15.439-2.503-26.024-17.182-23.521-32.622
		l20.395-125.815c2.503-15.439,17.183-26.024,32.622-23.521l14.839,2.405c15.439,2.503,26.024,17.182,23.521,32.622L253.725,396.852
		z"/>
</g>
<g>
	<path d="M263.794,546.58c-1.614,9.934-11.063,16.74-20.996,15.126l-1.445-0.235c-9.934-1.614-16.74-11.063-15.126-20.996
		l17.26-106.199c1.614-9.934,11.063-16.74,20.996-15.126l1.445,0.235c9.934,1.614,16.74,11.063,15.126,20.996L263.794,546.58z"/>
</g>
<g>
	<path d="M372,629.702c0,10.106-8.192,18.298-18.298,18.298h-1.404C342.192,648,334,639.808,334,629.702V522.298
		c0-10.106,8.192-18.298,18.298-18.298h1.404c10.106,0,18.298,8.192,18.298,18.298V629.702z"/>
</g>
<g>
	<path d="M401.711,383.582c9.498,3.326,15.263,11.776,12.811,18.778c-2.452,7.001-12.229,10.008-21.728,6.682l-54.596-19.12
		c-9.498-3.326-15.263-11.776-12.811-18.778c2.452-7.001,12.229-10.008,21.728-6.682L401.711,383.582z"/>
</g>
<g>
	<path d="M350.978,363.246c4.16,7.937,1.07,17.834-6.867,21.994l-1.154,0.605c-7.937,4.16-17.834,1.07-21.994-6.867l-34.51-65.842
		c-4.16-7.937-1.07-17.834,6.867-21.994l1.154-0.605c7.937-4.16,17.834-1.07,21.994,6.867L350.978,363.246z"/>
</g>
<g>
	<path d="M208.313,645.355c-5.173,8.633-16.468,11.464-25.101,6.291l-1.256-0.752c-8.633-5.173-11.464-16.468-6.291-25.101
		l55.302-92.292c5.173-8.633,16.468-11.464,25.101-6.291l1.256,0.752c8.633,5.173,11.464,16.468,6.291,25.101L208.313,645.355z"/>
</g>
<circle cx="321.003" cy="223.667" r="42.333"/>
</svg>
