<?xml version="1.0" encoding="utf-8"?>
<!-- Generator: Adobe Illustrator 17.0.0, SVG Export Plug-In . SVG Version: 6.00 Build 0)  -->
<!DOCTYPE svg PUBLIC "-//W3C//DTD SVG 1.1//EN" "http://www.w3.org/Graphics/SVG/1.1/DTD/svg11.dtd">
<svg version="1.1" id="Layer_1" xmlns="http://www.w3.org/2000/svg" xmlns:xlink="http://www.w3.org/1999/xlink" x="0px" y="0px"
	 width="612px" height="792px" viewBox="0 0 612 792" enable-background="new 0 0 612 792" xml:space="preserve">
<path d="M131.636,520.757c3.599-2.854,7.198-5.709,10.798-8.562c8.841-7.004,17.841-13.797,27.066-20.288
	c0.813-0.572,1.4-1.026,1.249-2.242c-1.264-10.118,1.258-19.109,8.187-26.734c0.131-0.144,0.214-0.331,0.431-0.676
	c-3.912-0.756-7.718-1.548-11.434-2.698c-7.897-2.446-15.384-5.746-21.882-10.953c-9.095-7.288-13.394-17.346-15.955-28.321
	c-0.445-1.908-0.268-3.937,1.051-6.253c-5.261,1.876-10.276,2.676-15.429,2.36c-3.964-0.163-7.495-1.535-10.588-3.968
	c-2.412-1.898-3.711-4.427-3.759-7.541c-0.217-1.085-0.213-2.17-0.003-3.255c0.594-0.988-0.267-1.323-0.842-1.597
	c-10.356-4.929-20.1-10.914-29.521-17.403c-3.972-2.736-7.712-5.835-11.5-8.845c-4.191-3.329-7.886-7.112-11.6-10.88
	c-5.338-5.414-9.781-11.525-13.249-18.345c-2.472-4.861-4.412-9.983-4.906-15.31c-0.657-7.077-0.158-14.177,2.877-20.898
	c2.633-5.83,6.024-11.06,10.166-15.956c8.7-10.281,19.5-17.836,30.843-24.768c6.346-3.878,12.914-7.344,19.594-10.6
	c3.028-1.476,6.304-2.202,9.552-3.001c1.03-0.253,1.381,0.291,1.415,1.165c0.059,1.489,0.196,2.963,0.568,4.409
	c0.325,0.675-0.083,1.459,0.312,2.124c-0.094,1.632,0.104,3.234,0.502,4.814c0.326,0.678-0.078,1.463,0.312,2.131
	c-0.088,1.629,0.101,3.229,0.503,4.807c0.326,0.681-0.072,1.466,0.311,2.139c-0.083,1.626,0.099,3.224,0.503,4.799
	c0.328,0.683-0.066,1.471,0.311,2.147c0.036,0.645,0.072,1.29,0.108,1.935c0.366,1.408-0.136,2.876,0.301,4.279
	c0.532,3.464-2.001,5.67-3.487,8.27c-1.524,2.666-1.639,2.6,0.706,4.462c2.682,2.13,2.666,2.116,0.368,4.832
	c-1.128,1.334-2.934,2.665-3.06,4.116c-0.128,1.473,1.743,2.878,3.021,4.041c2.665,2.425,3.716,5.106,1.649,8.388
	c-2.086,3.313,0.127,5.388,2.093,7.53c0.607,0.662,1.188,1.294,1.252,2.239c0.333,0.684-0.062,1.474,0.313,2.152
	c-0.087,1.623,0.117,3.215,0.513,4.787c0.201,0.676,0.199,1.352,0.001,2.028c-1.334,1.591-1.536,3.157-0.499,5.113
	c2.357,4.444,3.836,9.228,4.955,14.129c0.121,0.529,0.102,1.368,0.726,1.533c0.682,0.18,0.989-0.625,1.338-1.056
	c2.806-3.459,5.845-6.703,9.049-9.786c1.028-0.99,0.55-1.325-0.354-1.77c-2.478-1.219-4.905-2.553-7.442-3.634
	c-1.327-0.565-1.038-1.115-0.405-1.899c1.802-2.229,3.568-4.491,5.441-6.659c0.871-1.008,1.053-1.63-0.097-2.641
	c-2.038-1.792-3.841-3.848-5.823-5.708c-0.661-0.621-0.711-1.035-0.233-1.765c1.442-2.204,2.876-4.419,4.202-6.693
	c1.604-2.751,1.875-1.96-0.671-3.861c-1.844-1.377-3.531-2.997-5.487-4.182c-1.557-0.944-0.972-1.532-0.116-2.383
	c3.135-3.114,6.248-6.25,9.396-9.35c0.967-0.953,1.655-1.432-0.108-2.606c-2.586-1.722-4.745-4.077-7.138-6.102
	c-1.027-0.869-0.184-1.187,0.361-1.562c3.027-2.084,6.038-4.196,9.135-6.172c0.79-0.504,1.074-1.12,0.854-1.794
	c-0.841-2.585-1.727-5.164-2.785-7.666c-0.346-0.82-0.521-1.029,0.377-1.59c3.694-2.308,7.293-4.768,11.196-7.35
	c-4.902-1.442-9.825-1.784-14.318-3.262c2.762-2.876,5.061-6.397,8.3-8.392c5.447-3.354,11.262-3.522,16.721,1.285
	c7.05,6.208,11.781,13.95,13.807,23.153c1.023,4.647,1.523,9.408,2.259,14.118c0.35,0.993-0.089,2.066,0.308,3.054
	c0.001,4.76,0.002,9.52,0.003,14.28c-0.412,1.13,0.036,2.333-0.297,3.47c-0.039,0.776-0.077,1.551-0.116,2.327
	c-0.367,0.683,0.017,1.474-0.31,2.164c-1.491,8.629-3.722,17.067-6.505,25.368c-3.84,11.454-8.526,22.569-13.317,33.645
	c-1.907,4.408-3.64,8.892-5.586,13.282c-0.712,1.607-0.271,3.127,0.127,4.52c0.849,2.968,1.241,6.015,1.902,9.011
	c0.264,1.195,0.809,1.671,1.906,1.94c9.749,2.391,19.151,5.758,28.243,10.016c6.971,3.264,12.942,7.893,18.548,13.104
	c6.004,5.581,12.019,11.124,16.25,18.269c0.433,0.731,0.965,0.725,1.719,0.52c6.797-1.85,13.766-2.741,20.734-3.626
	c0.838-0.33,1.762,0.079,2.594-0.299c0.904-0.04,1.808-0.079,2.712-0.119c1.268-0.346,2.599,0.128,3.862-0.294
	c8.612-0.21,17.217,0.201,25.79,0.405c0.347-0.81-0.2-1.27-0.473-1.762c-1.017-1.835-2.039-3.673-3.17-5.439
	c-1.277-1.996-2.378-4.246-4.096-5.779c-1.861-1.661-4.364-0.082-6.575-0.054c-10.437,0.131-19.072-3.712-25.993-11.408
	c-3.055-3.398-5.377-7.289-6.685-11.725c-0.184-0.626-0.494-1.214-0.745-1.82c-1.61-0.283-1.142-1.23-0.698-2.175
	c0.073-0.184,0.167-0.354,0.273-0.52c0.853-1.086,2.032-1.797,3.091-2.64c0.906-0.721,1.753-0.695,2.283,0.511
	c1.315,4.813,3.122,9.357,6.199,13.398c8.139,10.69,24.398,13.678,35.784,6.55c5.001-3.131,8.642-7.352,11.173-12.633
	c0.668-1.395,0.489-2.164-0.987-2.863c-5.89-2.791-11.871-5.384-17.742-8.215c-0.261-0.144-0.511-0.306-0.765-0.46
	c-4.023-1.771-8.045-3.541-12.003-5.452c-0.276-0.088-0.545-0.192-0.809-0.309c-0.604-0.292-1.209-0.582-1.819-0.864
	c-1.15-0.888-2.909-0.832-3.652-2.353c0.136-0.747,0.628-1.054,1.34-1.093c2.287,0.664,4.315,1.937,6.532,2.772
	c9.686,4.572,19.466,8.943,29.157,13.506c2.203,1.037,2.563,0.741,2.988-1.735c0.893-5.194,0.486-10.262-1.34-15.209
	c-2.111-5.821-5.564-10.607-10.76-14.081c-0.93-0.622-2.096-1.013-2.569-2.191c0.008-0.223,0.092-0.411,0.25-0.568
	c0.454-0.428,1.031-0.655,1.561-0.958c3.721-2.124,4.232-2.083,7.45,0.844c8.507,7.739,12.594,17.362,12.258,28.863
	c-0.034,1.163-0.317,2.289-0.425,3.439c-0.179,1.912-0.086,2.027,1.826,1.7c5.769-0.987,11.468-2.299,17.1-3.884
	c4.328-1.218,4.166-1.177,2.114-5.188c-5.236-10.234-5.597-20.699-1.086-31.309c0.545-1.282,1.419-2.031,2.811-1.881
	c1.463,0.157,3.166-0.717,4.323,0.911c0.194,1.169-0.503,2.064-0.961,3.019c-2.489,5.182-3.258,10.639-2.669,16.318
	c0.566,3.271,0.599,3.342,3.573,1.968c8.924-4.124,17.882-8.176,26.801-12.31c2.706-1.254,5.406-2.525,8.162-3.672
	c0.469-0.214,0.944-0.409,1.44-0.553c0.905-0.212,1.714-0.223,1.938,0.951c-0.207,0.885-1.046,0.974-1.679,1.308
	c-2.214,1.169-4.548,2.079-6.815,3.134c-0.464,0.159-0.927,0.323-1.366,0.547c-2.524,1.298-5.085,2.51-7.75,3.495
	c-0.644,0.255-1.255,0.578-1.858,0.917c-6.256,3.157-12.731,5.838-19.051,8.857c-1.858,0.887-2.005,1.204-1.202,3.112
	c4.594,10.904,15.129,17.657,26.95,17.274c10.79-0.349,21.095-8.107,24.858-18.564c2.219-6.166,2.494-12.34,0.64-18.617
	c-0.174-0.589-0.35-1.176-0.236-1.803c0.828-1.905,2.749-2.004,4.358-2.578c0.646-0.23,0.681,0.465,0.838,0.883
	c4.042,12.009,2.264,23.12-5.274,33.269c-4.537,6.108-10.654,10.005-17.888,12.193c-1.082,0.327-2.229,0.444-3.35,0.635
	c-1.153,0.197-1.984,0.693-2.001,2.01c-0.136,1.773-0.801,3.404-1.363,5.062c-2.466,7.28-4.06,14.771-5.381,22.327
	c-0.353,2.016-0.188,2.18,1.916,2.254c7.731,0.272,15.446-0.374,23.172-0.416c2.987-0.016,5.937,0.602,8.929,0.456
	c0.622-0.03,1.19,0.235,1.72,0.557c0.328,0.146,0.658,0.218,0.999,0.039c0.859,0.373,1.804-0.006,2.67,0.308
	c0.615,0.037,1.231,0.074,1.846,0.111c0.714,0.333,1.518,0,2.235,0.306c7.346,1.149,14.696,2.249,21.833,4.462
	c1.121,0.347,2.417,0.135,3.71-0.217c7.123-1.942,13.105-6.263,19.728-9.233c1.937-0.869,3.836-1.824,5.753-2.74
	c4.845-2.807,10.09-4.745,15.335-6.561c3.655-1.265,6.071-3.254,7.801-6.748c2.266-4.575,4.728-9.026,5.812-14.071
	c0.302-1.404,1.172-2.254,2.488-2.712c2.565-0.892,5.096-1.93,7.817-2.248c1.464-0.171,2.303-0.823,2.709-2.288
	c0.761-2.748,1.644-5.463,2.552-8.169c0.392-1.169,0.85-2.289,1.581-3.287c1.431-4.466,2.753-8.971,4.323-13.388
	c1.728-4.86,3.637-9.658,5.551-14.449c3.792-9.491,8.361-18.561,14.67-26.672c2.934-3.772,6.066-7.356,9.486-10.707
	c5.794-5.677,12.354-9.905,20.475-11.308c2.39-0.413,4.793-0.896,7.254-0.453c3.895,0.702,6.372,3.226,8.354,6.408
	c1.06,3.331,1.087,6.797,1.498,10.554c-3.841-1.757-7.431-3.4-11.429-5.229c1.073,3.379,1.985,6.394,2.998,9.375
	c0.41,1.206,0.3,1.938-0.975,2.54c-1.588,0.751-2.993,1.9-4.597,2.603c-1.485,0.651-1.508,1.575-1.188,2.878
	c0.5,2.041,0.822,4.128,1.362,6.157c0.298,1.121-0.072,1.416-1.094,1.51c-2.367,0.219-4.724,0.554-7.093,0.751
	c-1.15,0.096-1.576,0.507-1.636,1.727c-0.14,2.847-0.502,5.683-0.741,8.526c-0.086,1.017-0.445,1.653-1.593,1.54
	c-0.196-0.019-0.402,0.057-0.603,0.09c-2.06,0.33-4.63-0.297-6.069,0.991c-1.355,1.212-1.728,3.602-2.343,5.534
	c-0.51,1.6-1.397,2.537-3.085,2.704c-4.248,0.42-6.668,2.668-6.938,7.018c-0.134,2.156-1.357,2.679-3.361,2.7
	c-3.916,0.042-3.917,0.151-4.604,4.154c-0.195,1.138-0.363,2.28-0.56,3.417c-0.184,1.065-0.388,2.126-0.59,3.224
	c0.761,0.135,0.963-0.482,1.297-0.804c2.203-2.122,4.244-4.496,6.923-5.986c3.794-2.11,5.611-6.164,9.011-8.647
	c1.545-1.129,2.98-2.336,4.894-2.755c1.546-0.339,2.716-1.187,3.458-2.585c1.515-2.856,3.929-4.383,7.091-4.714
	c2.687-0.282,4.351-1.575,4.609-4.356c0.198-2.136,1.575-2.684,3.382-2.463c1.886,0.231,2.914-0.58,3.395-2.315
	c0.856-3.086,2.893-5.191,5.426-7.064c7.155-5.29,14.415-10.449,21.175-16.253c0.689-0.592,1.135-0.57,1.643,0.115
	c1.011,1.363,2.225,2.616,3.009,4.098c4.43,8.375,7.903,17.027,6.424,26.808c-0.991,6.554-4.879,11.489-9.502,15.856
	c-5.249,4.959-10.85,9.492-17.09,13.205c-4.45,2.648-9.052,4.982-13.813,6.983c-7.668,3.223-15.403,6.285-23.076,9.494
	c-2.845,1.19-5.457,2.853-8.082,4.468c-0.413,0.254-0.85,0.533-0.632,1.114c2.183,5.833-1.478,9.475-5.116,12.88
	c-4.399,4.118-9.881,6.535-15.405,8.796c-5.055,2.07-10.428,2.92-15.718,4.062c-0.761,0.164-1.194,0.399-1.608,0.942
	c-6.569,8.639-14.683,15.641-23.436,21.935c-2.942,2.116-6.219,3.725-9.646,4.924c-1.467,0.513-1.593,1.05-1.058,2.477
	c1.646,4.385,2.386,8.962,2.091,13.66c-0.07,1.11,0.204,1.779,1.183,2.464c13.039,9.122,25.673,18.778,37.875,28.993
	c2.045,1.712,4.315,3.372,4.226,6.51c-0.022,0.757,0.526,0.635,0.983,0.639c0.884,0.008,1.78,0.096,2.649-0.019
	c1.346-0.178,1.829,0.418,1.78,1.66c0.277,0.71-0.048,1.499,0.285,2.202c0.013,0.618,0.026,1.236,0.039,1.853
	c-0.866,0.583-1.943-0.157-2.806,0.449l-0.023,0.028c-0.603,1.856,0.071,3.793-0.361,5.66c-0.032,2.1-0.063,4.201-0.095,6.301
	c-0.473,1.686,0.073,3.435-0.315,5.127c-0.032,1.011-0.065,2.022-0.097,3.033c-0.375,0.862,0.005,1.812-0.313,2.681
	c-0.035,0.637-0.071,1.275-0.106,1.912c-0.358,0.687,0.007,1.474-0.299,2.169c-0.571,3.204-1.029,6.419-0.925,9.687
	c-0.038,0.227-0.161,0.291-0.368,0.189c-0.428-0.289-0.655-0.871-1.267-0.887c-0.685-0.018-1.077,0.141-0.463,0.844
	c-0.217,1.134-0.989,0.399-1.527,0.454c-2.579-0.779-2.191-3.065-2.529-4.981c-0.32-0.837,0.086-1.758-0.295-2.588
	c-0.038-1.178-0.075-2.356-0.113-3.534c-0.363-1.416,0.14-2.895-0.307-4.305c-0.035-1.286-0.069-2.572-0.104-3.858
	c-0.346-1.108,0.129-2.288-0.294-3.389c-0.036-0.775-0.072-1.549-0.108-2.324c-0.313-0.856,0.066-1.79-0.296-2.641
	c-0.034-0.616-0.068-1.232-0.102-1.848c-0.358-0.817,0.1-1.735-0.315-2.545c0.067-0.607-0.343-1.281-0.283-1.693
	c0.42-2.86-0.474-4.017-3.517-3.598c-1.22,0.168-0.76-1.356-0.512-1.803c0.682-1.232,0.043-1.401-0.899-1.555
	c-9.66-1.58-19.167-3.855-28.479-6.833c-3.518-1.125-7.178-1.966-10.464-3.788c-0.886-0.491-1.56-0.371-2.099,0.71
	c-1.523,3.057-3.168,6.055-4.786,9.064c-0.377,0.701-0.219,1.16,0.387,1.654c7.309,5.961,14.054,12.545,20.885,19.029
	c2.441,2.316,5.029,4.555,6.528,7.692c0.312,0.718-0.023,1.524,0.308,2.239c-0.127,1.867,0.188,3.693,0.523,5.516
	c0.31,0.679-0.084,1.46,0.305,2.128c0.033,0.515,0.066,1.03,0.1,1.545c0.31,0.688-0.069,1.472,0.302,2.151
	c0.034,0.507,0.069,1.015,0.103,1.522c0.312,0.694-0.056,1.482,0.301,2.17c0.035,0.501,0.069,1.002,0.104,1.503
	c0.312,0.701-0.044,1.495,0.301,2.192c0.034,0.494,0.069,0.987,0.103,1.481c0.313,0.71-0.031,1.511,0.304,2.218
	c-0.023,3.104,0.486,6.154,0.932,9.211c0.312,0.682-0.079,1.463,0.305,2.135c0.033,0.513,0.067,1.026,0.1,1.538
	c0.311,0.691-0.063,1.477,0.302,2.16c0.119,1.696-0.162,3.337-0.831,4.886c-0.601,1.392-1.502,1.467-2.242,0.156
	c-0.689-1.222-1.347-2.519-1.698-3.866c-1.837-7.055-3.824-14.072-5.276-21.228c-0.942-4.64-2.043-9.246-2.624-13.952
	c-0.34-0.674,0.076-1.462-0.319-2.129c0.104-0.752-0.019-0.97-0.958-1.252c-5.007-1.508-9.971-3.176-14.886-4.964
	c-4.424-1.609-8.701-3.594-12.833-5.852c-1.327-0.725-1.822-0.314-2.701,0.747c-1.954,2.358-1.944,4.28-0.419,7.074
	c4.905,8.988,9.34,18.23,13.19,27.734c0.387,0.955,0.691,1.851,0.27,3.052c-2.494,7.106-4.104,14.471-6.162,21.708
	c-1.184,4.164-2.219,8.371-3.332,12.556c-0.068,0.255-0.225,0.485-0.343,0.726c-0.648,1.332-1.336,3.19-2.918,2.881
	c-1.484-0.29-0.585-2.193-0.734-3.371c-0.135-1.065-0.008-2.163,0.003-3.246c0.377-0.834-0.027-1.757,0.297-2.597
	c0.038-0.621,0.076-1.243,0.114-1.864c0.337-0.707-0.013-1.509,0.308-2.218c0.028-0.381,0.057-0.761,0.085-1.142
	c0.399-0.664-0.016-1.449,0.317-2.123c0.357-5.162,1.494-10.215,2.151-15.336c0.187-1.459,0.537-2.932,1.062-4.302
	c0.549-1.435,0.355-2.321-0.923-3.302c-5.989-4.597-11.801-9.415-16.984-14.928c-0.953-1.014-1.464-0.916-2.353,0.035
	c-4.632,4.953-9.653,9.418-15.926,12.249c-3.323,1.5-6.75,2.391-10.445,2.343c-4.066-0.053-8.134-0.395-12.203-0.055
	c-0.651-0.283-1.339-0.179-2.013-0.179c-22.349-0.005-44.697-0.005-67.046,0c-0.674,0-1.362-0.102-2.013,0.182
	c-5.224-0.374-10.452-0.03-15.678-0.064c-5.303-0.035-10.61-0.049-15.91,0.097c-6.308,0.174-11.833-1.953-16.982-5.355
	c-3.378-2.232-6.374-4.931-9.263-7.742c-0.923-0.898-1.528-1.056-2.475-0.055c-5.695,6.021-12.067,11.276-18.586,16.369
	c-1.549,1.21-1.701,3.278-2.464,4.95c-4.363,9.564-9.097,18.925-14.785,27.779c-0.558,0.869-1.23,2.181-2.385,1.82
	c-1.253-0.392-0.715-1.863-0.794-2.886c-0.176-2.302,1.033-4.282,1.732-6.339c1.884-5.547,4.031-11.004,6.096-16.489
	c2.275-6.041,4.11-12.258,6.888-18.096c3.394-7.131,6.973-14.173,10.473-21.254c0.087-0.177,0.172-0.355,0.262-0.53
	c1.614-3.127,1.338-4.741-1.078-7.27c-0.811-0.849-1.462-0.355-2.123,0.037c-5.172,3.069-10.696,5.374-16.369,7.278
	c-3.876,1.301-7.69,2.831-11.706,3.704c-1.321,0.287-2.14,1.077-2.807,2.302c-3.453,6.344-7.896,12.028-12.195,17.796
	c-3.547,4.759-7.201,9.442-11.161,13.874c-0.226,0.253-0.42,0.544-0.677,0.76c-1.006,0.846-2.119,2.541-3.299,1.733
	c-0.994-0.68-0.435-2.62-0.023-3.928c0.924-2.931,2.88-5.334,4.323-8.002c3.38-6.248,7.1-12.302,10.553-18.511
	c1.882-3.384,3.844-6.748,5.87-10.064c0.765-1.253,2.266-1.423,3.262-2.463c1.962-2.05,3.966-4.074,5.98-6.08
	c5.197-5.177,10.691-10.038,16.168-14.913c2.775-2.47,2.775-2.398,1.027-5.759c-1.125-2.164-2.562-4.166-3.341-6.514
	c-0.263-0.792-0.596-1.252-1.745-0.759c-8.227,3.535-16.833,5.908-25.535,7.917c-6.134,1.416-12.311,2.645-18.481,3.902
	c-0.84,0.171-1.418,0.406-1.962,1.155c-4.779,6.584-10.295,12.541-15.789,18.523c-4.416,4.808-9.04,9.404-13.682,13.984
	c-1.83,1.806-3.783,3.498-5.777,5.124c-0.955,0.778-2.364,1.964-3.355,1.059c-0.873-0.797-0.345-2.539-0.015-3.829
	c0.658-2.571,2.552-4.416,4.038-6.474c8.61-11.918,17.285-23.789,25.945-35.671c0.481-0.661,1.029-1.344,1.833-1.548
	C129.201,523.153,130.333,521.843,131.636,520.757z"/>
<path fill="#231F20" d="M260.62,369.791c-0.004,0.126-0.007,0.252-0.009,0.379c-2.083,1.976-4.745,3.091-7.057,4.743
	c-5.022,3.589-9.84,7.438-14.768,11.146c-0.709,0.533-1.416,1.043-2.283,1.282c-0.64,0.022-1.036,0.371-1.267,0.942
	c-1.165,1.435-2.625,2.51-4.201,3.445c-0.577,0.463-1.184,0.882-1.826,1.25c-2.821,2.081-5.783,3.971-8.392,6.334
	c-0.405,0.366-0.829,0.689-0.968,1.25c-0.109,0.271-0.25,0.516-0.52,0.659c-0.511-0.81-1.092-0.573-1.666-0.094
	c-1.038,0.864-2.064,1.743-3.095,2.616c-4.026-1.23-7.689-3.314-11.326-5.308c-5.014-2.749-10.006-5.662-14.015-9.897
	c-0.463-0.489-1.06-0.869-1.023-1.657c0.828-4.195,4.087-5.908,7.622-7.057c2.396-0.779,4.513-2.076,6.822-2.997
	c2.485-0.991,4.777-2.383,7.364-3.239c2.39-0.791,4.529-2.331,6.79-3.518c2.855-1.499,5.898-2.654,8.504-4.611
	c1.823-0.975,2.603-2.754,3.276-4.52c2.298-6.026,5.046-11.845,7.809-17.664c2.064-4.347,4.25-8.631,6.527-12.863
	c2.956-5.492,5.951-10.967,9.157-16.322c2.351-4.21,5.065-8.196,7.653-12.256c2.557-4.01,5.426-7.932,9.233-10.758
	c5.016-3.722,10.716-4.22,16.422-1.374c4.016,2.003,7.61,4.665,10.993,7.623c5.188,4.538,10.431,9.039,15.915,13.192
	c5.065,3.836,10.37,7.431,16.162,10.179c0.561,0.266,1.069,0.585,1.537,0.983c6.689,3.557,13.122,7.624,20.134,10.526
	c2.421,1.002,5.11,1.169,7.841,1.259c2.316,0.076,4.665-0.049,6.931-0.138c3.897-0.153,7.612,0.862,11.428,1.124
	c4.638,0.319,9.194,1.751,12.57,5.44c0.454,0.828,0.071,1.619-0.102,2.42c-1.18,2.896-3.374,4.989-5.54,7.134
	c-2.494,2.471-5.24,4.675-7.606,7.275c-3.158,3.469-7.166,5.854-10.909,8.578c-0.045,0.138-0.089,0.275-0.134,0.413
	c-2.106-0.828-3.442,0.556-4.863,1.694c-3.757,1.491-7.572,2.301-11.572,0.995c-0.505-0.165-1.064-0.193-1.443-0.636
	c-0.351-0.951-1.033-0.715-1.715-0.478c-9.433-1.396-18.836-3-28.303-4.158c-1.941-0.237-3.92-0.167-5.865-0.486
	c-0.735-0.12-1.494-0.125-2.08-0.68c-1.658-1.011-3.528-0.752-5.285-0.645c-1.296,0.079-2.569,0.107-3.844-0.029
	c-10.265-1.098-20.217-0.089-29.617,4.472C266.945,367.25,263.282,367.354,260.62,369.791z"/>
<path fill="#FDFDFD" d="M365.084,444.058c-11.81-0.709-23.618,0.191-35.427,0.061c-1.039-0.011-1.45-0.182-1.241-1.335
	c1.664-9.207,3.485-18.372,6.842-27.15c0.237-0.621,0.554-1.212,0.834-1.816c-0.144,1.119,0.659,1.709,1.325,2.375
	c8.732,8.732,17.465,17.462,26.191,26.2C364.131,442.916,364.593,443.501,365.084,444.058z"/>
<path fill="#FDFDFD" d="M469.952,391.01c-1.36,4.392-2.743,8.776-4.06,13.181c-0.247,0.826-0.822,0.79-1.41,0.847
	c-3.35,0.323-6.442,1.527-9.558,2.689c-0.951,0.354-1.408,0.91-1.585,1.84c-1.298,6.799-4.809,12.613-8.226,18.47
	c-0.357,0.612-0.778,1.059-1.463,1.311c-6.483,2.39-12.882,4.987-19.211,7.758c-0.161,0.07-0.386-0.006-0.581-0.014
	c0.352-0.41,0.68-0.844,1.06-1.226c14.597-14.606,29.199-29.207,43.805-43.804C469.103,391.683,469.541,391.36,469.952,391.01z"/>
<path fill="#FCFCFC" d="M364.738,365.297c-0.053-0.978,0.84-1.159,1.404-1.506c3.822-2.36,7.175-5.296,10.412-8.375
	c2.693-2.561,5.358-5.153,8.018-7.748c1.559-1.521,2.89-3.218,3.797-5.218c0.292-0.77,0.656-1.511,0.895-2.301
	c0.405-2.3-0.39-4.158-2.097-5.679c-3.985-3.853-9.089-4.909-14.284-5.791c-2.498-0.424-5.003-0.419-7.516-0.411
	c-4.057,0.012-8.119-0.043-12.17-0.151c-2.711-0.072-5.299-1.239-7.703-2.486c-10.07-5.225-20.142-10.47-29.649-16.68
	c-5.234-3.418-9.977-7.515-14.767-11.541c-4.985-4.19-9.84-8.572-15.459-11.954c-2.892-1.741-5.992-3.022-9.361-3.183
	c-3.939-0.188-7.206,1.638-10.114,4.153c-5.061,4.377-8.545,9.972-12.057,15.553c-5.83,9.265-11.251,18.762-16.266,28.49
	c-4.359,8.455-8.489,17.019-11.868,25.924c-0.651,1.716-1.685,3.004-3.275,4.003c-6.586,4.135-13.878,6.852-20.733,10.442
	c-0.301,0.158-0.648,0.199-0.992,0.215c-0.447-0.007-0.865-0.088-1.162-0.467c5.187-2.618,10.332-5.308,15.712-7.545
	c2.587-1.076,4.932-2.744,7.362-4.184c1.955-1.158,2.157-3.402,2.836-5.215c2.27-6.059,5.236-11.791,7.932-17.646
	c2.724-5.914,6.101-11.499,9.107-17.267c2.406-4.617,5.168-9.019,7.834-13.456c3.707-6.17,7.267-12.528,12.45-17.68
	c3.524-3.503,7.467-6.327,12.651-6.689c2.613-0.183,5.016,0.856,7.329,1.827c5.928,2.487,10.659,6.754,15.48,10.863
	c6.753,5.754,13.423,11.682,21.053,16.216c4.947,2.94,9.845,6.027,15.14,8.445c2.748,1.255,5.301,3.177,8.033,4.607
	c2.957,1.548,5.977,3.093,9.31,3.693c1.833,0.33,3.719-0.015,5.599,0.133c2.606,0.205,5.202-0.166,7.863,0.43
	c1.43,0.32,3.168,0.124,4.758,0.112c3.979-0.03,7.657,1.138,11.382,2.245c3.184,0.947,5.396,3.26,7.759,5.364
	c0.898,0.8,1.309,5.102,0.789,6.216c-2.565,5.495-7.189,9.194-11.435,13.227c-2.078,1.974-4.017,4.121-6.252,5.895
	C370.07,362.097,367.74,364.229,364.738,365.297z"/>
<path fill="#FCFCFC" d="M214.422,404.192c-0.035,0.668-1.115,1.527,0.352,1.92c-0.798-0.017-1.37,0.009-1.868-1.029
	c-0.816-1.702-2.949-1.869-4.486-2.579c-5.248-2.425-10.117-5.513-14.961-8.57c-3.049-1.924-5.782-4.579-7.839-7.714
	c-2.129-3.245-1.153-7.961,2.118-10.138c0.254-0.169,0.652-0.123,0.984-0.177c0.148,0.137,0.229,0.304,0.235,0.506
	c-0.085,0.514-0.502,0.778-0.834,1.108c-2.944,2.918-3.168,4.553-1.129,8.264c0.168,0.231,0.331,0.466,0.494,0.701
	c2.525,3.441,5.964,5.82,9.479,8.087c5.031,3.245,10.303,6.055,15.772,8.494C213.36,403.342,213.875,403.795,214.422,404.192z"/>
<path fill="#E7E7C6" d="M188.788,376.337c-0.022-0.144-0.043-0.288-0.065-0.431c0.722-0.986,1.814-1.322,2.909-1.653
	c0.479-0.746,1.352-0.819,2.046-1.199c1.077-0.131,1.911-0.819,2.857-1.25c0.479-0.407,1.107-0.501,1.646-0.784
	c0.594,0.069,1.117-0.129,1.612-0.432c0.41,0.006,0.821,0.013,1.231,0.019c0.045,0.092,0.089,0.185,0.134,0.277
	c-0.063,0.201-0.179,0.365-0.344,0.494c-3.639,1.644-7.439,2.937-10.894,4.988C189.568,376.574,189.156,376.666,188.788,376.337z"/>
<path fill="#FCFCFC" d="M107.929,288.772c-0.418-1.404-0.334-2.843-0.301-4.279C108.335,285.877,107.828,287.346,107.929,288.772z"
	/>
<path fill="#FCFCFC" d="M236.719,443.695c-1.265,0.394-2.564,0.331-3.862,0.294C234.102,443.332,235.43,443.771,236.719,443.695z"/>
<path fill="#FCFCFC" d="M163.955,313.867c-0.038-1.168-0.09-2.336,0.297-3.469C164.169,311.555,164.628,312.76,163.955,313.867z"/>
<path fill="#FCFCFC" d="M101.37,401.625c0.001,1.085,0.002,2.17,0.003,3.255C100.823,403.796,100.826,402.711,101.37,401.625z"/>
<path fill="#FCFCFC" d="M193.678,373.054c-0.682,0.4-1.364,0.799-2.046,1.199C191.881,373.114,192.791,373.104,193.678,373.054z"/>
<path fill="#FCFCFC" d="M164.249,296.118c-0.388-0.989-0.336-2.023-0.308-3.054C164.616,294.024,164.172,295.097,164.249,296.118z"
	/>
<path fill="#FDFDFD" d="M368.752,444.404c-0.905,0.038-1.814,0.099-2.669-0.307C366.975,444.179,367.924,443.766,368.752,444.404z"
	/>
<path fill="#FCFCFC" d="M230.146,444.108c-0.833,0.372-1.713,0.344-2.594,0.299C228.355,443.777,229.274,444.152,230.146,444.108z"
	/>
<path fill="#FCFCFC" d="M105.893,268.667c-0.36-0.673-0.369-1.397-0.312-2.131C106.167,267.175,105.857,267.946,105.893,268.667z"/>
<path fill="#FCFCFC" d="M110.785,334.803c-0.372-0.678-0.368-1.412-0.313-2.152C111.068,333.297,110.755,334.075,110.785,334.803z"
	/>
<path fill="#FCFCFC" d="M111.299,341.618c0-0.676-0.001-1.352-0.001-2.028C111.804,340.266,111.814,340.942,111.299,341.618z"/>
<path fill="#FCFCFC" d="M105.079,261.721c-0.355-0.671-0.37-1.392-0.312-2.124C105.35,260.235,105.041,261.004,105.079,261.721z"/>
<path fill="#FCFCFC" d="M198.181,371.019c-0.438,0.493-0.989,0.749-1.646,0.784C196.859,371.069,197.483,370.968,198.181,371.019z"
	/>
<path fill="#FCFCFC" d="M163.53,318.358c-0.065-0.745-0.026-1.475,0.31-2.163C163.812,316.926,164.125,317.707,163.53,318.358z"/>
<path fill="#FCFCFC" d="M107.521,282.559c-0.367-0.678-0.366-1.408-0.311-2.147C107.801,281.057,107.491,281.832,107.521,282.559z"
	/>
<path fill="#FDFDFD" d="M372.834,444.82c-0.765,0.048-1.528,0.084-2.235-0.305C371.352,444.558,372.157,444.216,372.834,444.82z"/>
<path fill="#FCFCFC" d="M106.707,275.612c-0.363-0.675-0.368-1.402-0.311-2.139C106.985,274.116,106.674,274.889,106.707,275.612z"
	/>
<path fill="#FCFCFC" d="M273.429,584.027c4.326-0.465,8.67-0.252,13.003-0.259c18.826-0.03,37.652,0.024,56.477,0.059
	c0.53,0.001,1.059,0.128,1.59,0.197C320.809,584.026,297.119,584.026,273.429,584.027z"/>
<path fill="#FCFCFC" d="M472.899,537.521c0.013-1.893-0.252-3.805,0.361-5.66C473.036,533.741,473.641,535.674,472.899,537.521z"/>
<path fill="#FCFCFC" d="M472.489,548.948c0-1.715-0.15-3.439,0.315-5.126C472.68,545.529,473.205,547.277,472.489,548.948z"/>
<path fill="#FCFCFC" d="M463.879,553.622c0.461,1.409,0.33,2.861,0.307,4.305C463.48,556.534,464.002,555.055,463.879,553.622z"/>
<path fill="#FCFCFC" d="M463.481,546.374c0.386,1.105,0.337,2.247,0.294,3.389C463.111,548.683,463.558,547.506,463.481,546.374z"/>
<path fill="#FCFCFC" d="M473.283,531.832c0.854-0.659,1.908-0.065,2.806-0.449C475.263,532.215,474.211,531.636,473.283,531.832z"/>
<path fill="#FCFCFC" d="M472.079,554.662c-0.029-0.909-0.127-1.826,0.313-2.68C472.307,552.877,472.724,553.831,472.079,554.662z"/>
<path fill="#FCFCFC" d="M462.659,537.017c0.388,0.813,0.365,1.677,0.315,2.545C462.336,538.78,462.72,537.871,462.659,537.017z"/>
<path fill="#FCFCFC" d="M399.298,614.667c0.049,0.882,0.069,1.762-0.297,2.597C399.049,616.392,398.672,615.472,399.298,614.667z"/>
<path fill="#FCFCFC" d="M463.076,541.409c0.407,0.846,0.338,1.745,0.296,2.641C462.743,543.229,463.132,542.294,463.076,541.409z"/>
<path fill="#FCFCFC" d="M464.299,561.46c0.316,0.838,0.346,1.709,0.295,2.588C463.975,563.245,464.347,562.328,464.299,561.46z"/>
<path fill="#FCFCFC" d="M467.123,569.03c0.484-0.235,1.287,0.605,1.527-0.454c0.262,0.118,0.487,0.415,0.252,0.564
	C468.327,569.506,467.689,569.504,467.123,569.03z"/>
<path fill="#FCFCFC" d="M470.38,568.619c0.123-0.063,0.245-0.126,0.368-0.189c-0.016,0.712,0.197,1.439-0.137,2.207
	C470.184,569.954,470.469,569.265,470.38,568.619z"/>
<path fill="#FCFCFC" d="M439.729,558.135c-0.395-0.706-0.354-1.473-0.308-2.239C440.03,556.572,439.689,557.38,439.729,558.135z"/>
<path fill="#FCFCFC" d="M471.673,558.743c-0.051-0.743-0.054-1.48,0.299-2.168C471.944,557.307,472.256,558.086,471.673,558.743z"/>
<path fill="#FCFCFC" d="M430.823,559.472c0.346,0.674,0.365,1.396,0.319,2.129C430.546,560.964,430.865,560.191,430.823,559.472z"/>
<path fill="#FCFCFC" d="M476.05,529.53c-0.359-0.7-0.334-1.449-0.285-2.202C476.335,528.001,476.025,528.787,476.05,529.53z"/>
<path fill="#FCFCFC" d="M440.557,565.779c-0.349-0.674-0.363-1.396-0.305-2.128C440.826,564.293,440.518,565.061,440.557,565.779z"
	/>
<path fill="#FCFCFC" d="M440.958,569.475c-0.352-0.682-0.358-1.412-0.302-2.151C441.236,567.974,440.927,568.748,440.958,569.475z"
	/>
<path fill="#FCFCFC" d="M441.362,573.167c-0.366-0.687-0.352-1.426-0.301-2.17C441.647,571.653,441.334,572.434,441.362,573.167z"/>
<path fill="#FCFCFC" d="M441.767,576.862c-0.373-0.693-0.354-1.44-0.301-2.192C442.059,575.333,441.741,576.121,441.767,576.862z"/>
<path fill="#FCFCFC" d="M443.412,591.906c-0.351-0.676-0.363-1.4-0.305-2.135C443.684,590.415,443.374,591.185,443.412,591.906z"/>
<path fill="#FCFCFC" d="M443.813,595.604c-0.356-0.684-0.355-1.419-0.302-2.16C444.094,594.097,443.784,594.874,443.813,595.604z"/>
<path fill="#FCFCFC" d="M400.121,607.32c0.058,0.732,0.042,1.453-0.317,2.123C399.847,608.726,399.532,607.955,400.121,607.32z"/>
<path fill="#FCFCFC" d="M399.719,610.584c0.047,0.76,0.067,1.516-0.308,2.217C399.443,612.053,399.111,611.254,399.719,610.584z"/>
<path fill="#FCFCFC" d="M442.175,580.561c-0.381-0.701-0.355-1.458-0.304-2.218C442.474,579.013,442.144,579.812,442.175,580.561z"
	/>
<path fill="#B12B2B" d="M247.574,449.349c28.805,0.685,60.085,0.275,91.362,0.339c6.449,0.013,12.907-0.523,19.361-0.272
	c12.792,0.498,25.459,1.856,37.648,6.099c5.819,2.025,11.299,4.72,15.984,8.781c8.746,7.579,10.932,17.27,8.876,28.267
	c-1.417,7.58-4.854,14.383-8.225,21.2c-7.363,14.886-15.488,29.325-25.546,42.592c-4.651,6.135-9.686,11.932-15.905,16.574
	c-4.683,3.495-9.684,5.544-15.798,5.438c-35.355-0.609-70.715-0.501-106.074-0.333c-3.597,0.017-7.208,0.598-10.789,0.116
	c-5.968-0.804-10.746-4.056-15.115-7.933c-8.466-7.514-15.089-16.551-21.183-26.006c-8.558-13.276-16.004-27.156-22.312-41.632
	c-2.26-5.188-3.626-10.634-3.824-16.364c-0.361-10.431,4.055-18.347,12.433-24.245c8.012-5.64,17.181-8.316,26.641-10.13
	C225.011,449.942,235.023,449.167,247.574,449.349z"/>
<path fill="#B12B2B" d="M114.317,374.257c1.941-2.349,3.952-4.703,5.875-7.127c4.659-5.873,10.025-11.09,15.195-16.49
	c1.6-1.672,1.607-1.668-0.542-2.74c-2.371-1.183-4.724-2.404-7.125-3.523c-1.105-0.515-1.462-0.9-0.493-1.987
	c1.535-1.722,2.858-3.631,4.344-5.398c0.738-0.877,0.858-1.461-0.09-2.332c-2.051-1.886-3.928-3.959-5.963-5.863
	c-0.895-0.837-1.058-1.466-0.346-2.543c1.687-2.549,3.145-5.25,4.867-7.773c0.893-1.308,0.586-1.914-0.611-2.696
	c-1.817-1.188-3.476-2.617-5.276-3.833c-0.969-0.655-0.869-1.065-0.107-1.809c3.114-3.04,6.13-6.181,9.276-9.188
	c1.122-1.073,1.332-1.733-0.008-2.808c-2.374-1.904-4.604-3.988-6.998-6.086c2.672-1.842,5.147-3.636,7.718-5.279
	c1.092-0.698,1.185-1.382,0.746-2.484c-0.853-2.144-1.534-4.356-2.406-6.491c-0.433-1.061-0.353-1.687,0.676-2.348
	c5.033-3.229,10.054-6.482,14.998-9.844c1.216-0.827,1.589-0.219,2.186,0.603c4.093,5.632,6.011,12.007,7.179,18.824
	c3.29,19.209,1.28,37.835-5.07,56.166c-4.095,11.821-8.843,23.364-13.82,34.827c-1.297,2.989-2.488,6.026-3.651,9.07
	c-0.402,1.052-0.846,1.623-2.023,1.032c-0.29-0.146-0.659-0.14-0.994-0.19c-1.155-0.172-2.925-1.407-3.268-0.614
	c-0.661,1.526-1.223,3.127-1.012,5.223c0.382,3.794-0.163,7.903-3.031,11.061c-1.076,1.185-2.482,0.901-3.821,0.605
	c-5.195-1.151-9.75-3.709-14.149-6.57c-1.006-0.654-1.987-1.128-3.21-0.991c-0.762,0.085-1.481-0.107-2.162-0.458
	c-18.039-9.296-35.008-20.119-49.147-34.885c-6.488-6.776-11.937-14.289-15.04-23.279c-3.933-11.394-2.137-22.089,4.069-32.188
	c6.211-10.108,15.013-17.658,24.532-24.447c9.653-6.884,20.003-12.589,30.652-17.765c3.117-1.515,3.181-1.387,3.564,2.135
	c0.704,6.476,1.551,12.936,2.28,19.41c0.235,2.089,0.288,4.199,0.421,6.3c0.047,0.735-0.388,1.279-0.745,1.855
	c-1.719,2.772-3.388,5.576-5.178,8.302c-0.656,0.999-0.608,1.518,0.361,2.294c3.282,2.627,3.208,2.643,0.459,5.941
	c-2.822,3.385-2.635,2.072,0.032,5.468c0.462,0.588,0.869,1.266,1.451,1.703c3.803,2.852,3.985,6.291,1.83,10.207
	c-0.848,1.541-0.598,2.854,0.744,4.164c2.461,2.401,4.255,5.105,4.305,8.848c0.023,1.686-0.332,3.029-1.061,4.411
	c-0.41,0.778-0.842,1.507-0.338,2.466c4.592,8.747,6.535,18.375,9.186,27.768C113.695,373.335,113.57,373.89,114.317,374.257z"/>
<path fill="#B12B2B" d="M478.696,409.905c1.554-1.536,3.082-3.049,4.612-4.558c6.284-6.196,12.178-12.796,19.62-17.756
	c1.993-1.329,2.818-4.046,4.958-5.528c1.232-0.853,2.324-1.858,3.842-2.16c2.423-0.482,4.164-1.895,5.34-4.006
	c1.04-1.867,2.622-2.845,4.682-3.178c0.534-0.086,1.046-0.344,1.579-0.385c3.101-0.237,5.171-1.61,5.638-4.89
	c0.172-1.209,1.059-1.5,2.108-1.347c2.197,0.32,3.416-0.678,4.028-2.73c1.351-4.527,4.524-7.498,8.307-10.119
	c4.576-3.17,8.922-6.671,13.364-10.034c0.69-0.522,1.42-1.419,2.064-0.037c2.646,5.681,4.992,11.46,5.386,17.823
	c0.369,5.97-2.047,10.849-6.039,15.051c-9.523,10.024-20.901,17.254-33.716,22.331c-6.627,2.625-13.22,5.337-19.804,8.07
	c-3.776,1.568-7.252,3.713-10.713,5.868c-0.703,0.438-1.365,0.752-2.251,0.755c-3.787,0.012-7.376,0.928-10.761,2.63
	c-2.792,1.403-5.581,2.811-8.366,4.229c-1.41,0.718-2.02,0.473-2.132-1.275c-0.463-7.205,0.547-14.079,2.957-20.966
	c4.64-13.262,8.715-26.72,14.533-39.548c4.971-10.962,11.786-20.57,20.536-28.875c3.707-3.519,7.615-6.518,12.448-8.268
	c1.256-0.455,1.876-0.453,2.319,1.035c1.084,3.641,2.313,7.243,3.597,10.819c0.415,1.157,0.147,1.713-0.882,2.256
	c-1.681,0.886-3.269,1.948-4.945,2.847c-0.877,0.471-1.114,1.027-0.845,1.968c0.429,1.499,0.754,3.028,1.143,4.539
	c0.269,1.045,0.111,1.623-1.185,1.71c-1.959,0.133-3.898,0.573-5.857,0.71c-1.171,0.082-1.453,0.546-1.476,1.634
	c-0.054,2.647-0.34,5.292-0.331,7.937c0.005,1.501-0.553,2.107-1.975,2.097c-0.199-0.001-0.406,0.133-0.598,0.109
	c-4.043-0.497-6.087,1.534-6.746,5.317c-0.503,2.887-2.186,4.497-5.112,4.838c-3.464,0.404-5.472,2.217-5.626,5.847
	c-0.087,2.046-1.254,2.564-3.22,2.551c-4.84-0.03-4.789,0.078-5.357,4.842c-1.063,8.908-3.369,17.582-5.065,26.372
	C478.667,408.894,478.436,409.335,478.696,409.905z"/>
<path fill="#FEFEFE" d="M297.987,444.05c-7.205,0-14.41-0.038-21.613,0.035c-1.305,0.013-1.866-0.4-2.323-1.599
	c-2.1-5.507-4.365-10.95-7.155-16.151c-0.5-0.931-0.302-1.344,0.492-1.936c6.003-4.482,10.134-10.32,12.385-17.466
	c0.254-0.806,0.582-1.19,1.483-1.329c8.255-1.273,16.385-3.112,24.339-5.678c0.88-0.284,1.323-0.074,1.879,0.57
	c4.658,5.399,10.456,9.001,17.367,10.75c1.004,0.254,1.326,0.531,1.074,1.6c-2.306,9.804-3.396,19.794-4.384,29.792
	c-0.132,1.333-0.608,1.472-1.725,1.465c-7.272-0.042-14.545-0.022-21.818-0.022C297.987,444.07,297.987,444.06,297.987,444.05z"/>
<path fill="#B12B2B" d="M132.74,395.483c1.45,4.184,1.823,8.535,2.955,12.713c0.053,0.196,0.054,0.405,0.098,0.603
	c0.718,3.225,0.724,3.251,3.88,2.548c0.694-0.155,1.318-0.148,1.987,0.035c11.493,3.147,22.702,7.001,33.004,13.146
	c3.831,2.285,6.993,5.386,10.278,8.328c5.266,4.717,10.46,9.509,14.463,15.429c0.88,1.302,0.875,1.808-0.737,2.359
	c-4.448,1.52-8.657,3.587-12.56,6.226c-0.784,0.53-1.544,0.778-2.472,0.647c-11.489-1.625-22.334-4.949-32.143-11.418
	c-6.833-4.507-10.591-11.135-13.652-18.338c-1.324-3.117-1.723-6.599-2.818-9.681c-1.072-3.018-0.282-6.207-1.839-9.034
	c-0.639-1.161-0.914-1.497-2.18-0.884c-5.53,2.678-11.33,3.695-17.418,2.417c-1.611-0.338-3.039-1.114-4.417-2.022
	c-2.319-1.527-2.72-3.701-2.335-6.337c2.267,1.087,4.442,2.162,6.644,3.177c2.103,0.969,4.299,1.641,6.591,2.044
	c5.153,0.906,8.678-0.959,10.806-5.749C131.763,399.695,132.214,397.585,132.74,395.483z"/>
<path fill="#E5E5E5" d="M346.726,367.763c0.471-0.016,1.007-0.188,1.403-0.022c3.575,1.496,7.023,0.666,10.458-0.49
	c0.439-0.148,0.788-0.03,1.155,0.154c2.994,9.557,2.188,18.69-3.58,27.004c-6.268,9.036-15.102,13.463-26.06,12.332
	c-11.531-1.19-19.363-7.745-23.846-18.399c-0.547-1.299-0.346-1.834,0.962-2.413c6.795-3.012,13.541-6.133,20.305-9.215
	c0.54,0.675,0.136,1.301-0.149,1.89c-2.743,5.673,0.381,13.194,8.538,14.231c1.712,0.218,3.329-0.39,4.916-1.025
	c1.066-0.427,1.163-0.893,0.427-1.774c-1.086-1.301-0.907-2.691,0.215-3.848c1.083-1.117,2.354-1.272,3.605-0.155
	c0.42,0.198,0.756,1.487,1.291,0.087c1.299-4.592,0.181-8.414-3.601-11.393c-1.022-0.739-2.102-1.337-3.335-1.677
	c-0.585-0.161-1.357-0.276-1.273-1.209C341.013,370.481,343.869,369.122,346.726,367.763z"/>
<path fill="#131313" d="M260.62,369.791c0.869-1.318,2.282-1.953,3.639-2.395c4.938-1.611,9.501-4.203,14.551-5.499
	c6.764-1.736,13.622-1.892,20.521-1.156c2.6,0.277,5.229-0.033,7.816,0.463c0.577,0.111,1.246-0.133,1.656,0.508
	c0.022,0.289-0.113,0.418-0.4,0.394c-1.718-0.94-3.554-0.374-5.339-0.383c-0.514-0.003-0.67,0.561-0.864,1.017
	c-5.005,11.722-4.358,23.035,2.448,33.896c0.661,1.055,1.394,1.884-0.549,2.43c-7.289,2.045-14.605,3.941-22.105,5.08
	c-1.397,0.212-1.415-0.094-1.219-1.302c2.296-14.162-2.31-25.674-13.415-34.67c-1.046-0.847-1.998-0.909-3.144-0.211
	C263.07,368.659,262.018,369.576,260.62,369.791z"/>
<path fill="#E5E5E5" d="M219.329,401.222c0.026-0.271,0.052-0.543,0.077-0.814c2.221-2.482,5.11-4.135,7.7-6.157
	c0.689-0.538,1.334-1.135,2.054-1.634c0.544-0.405,1.087-0.809,1.631-1.213c2.643-1.153,5.322-2.07,8.265-1.267
	c0.542,0.241,1.085,0.483,1.627,0.724c0.259,0.779-0.396,0.916-0.847,1.091c-2.461,0.955-4.115,2.743-5.308,5.025
	c-0.075,0.175-0.163,0.343-0.253,0.511c-1.181,2.523-1.21,5.082-0.269,7.68c0.518,1.43,1.01,0.789,1.505-0.014
	c0.286-0.319,0.632-0.53,1.059-0.602c0.772-0.053,1.486,0.196,2.204,0.425c1.509,1.492,1.501,2.437-0.027,4.115
	c-0.245,0.265-0.941,0.188-0.641,0.862c0.132,0.121,0.255,0.239,0.389,0.351c4.144,2.29,8.447,1.976,12.077-0.887
	c3.091-2.916,4.463-6.371,3.394-10.623c-0.142-0.566-0.392-1.189,0.112-1.736c6.407,2.914,12.802,5.854,19.231,8.719
	c1.107,0.493,0.922,1.095,0.57,1.906c-3.835,8.814-10.239,14.805-19.618,17.156c-15.348,3.847-30.849-5.891-34.454-21.434
	C219.643,402.68,219.49,401.95,219.329,401.222z"/>
<path fill="#B12B2B" d="M404.512,452.99c13.65-7.422,27.713-13.969,42.373-19.18c2.408-0.856,4.979,0.898,5.14,3.378
	c0.085,1.302-0.179,2.563-0.327,3.842c-0.09,0.777-0.808,1.903,0.747,2.31c0.631,0.165,0.154,0.679-0.091,0.926
	c-8.663,8.735-17.11,17.76-29.098,22.119c-0.789,0.287-1.49,0.708-2.258-0.356c-4.118-5.706-9.672-9.649-15.947-12.666
	C404.815,453.25,404.614,453.062,404.512,452.99z"/>
<path fill="#B12B2B" d="M465.073,416.946c0.109,2.373-0.029,4.747,0.374,7.111c0.441,2.589,1.544,3.339,4.131,2.636
	c4.429-1.204,8.47-3.333,12.388-5.612c2.917-1.696,5.977-2.061,9.176-2.091c1.436-0.013,1.331,1.148,1.133,2.021
	c-0.337,1.487-1.288,2.668-2.317,3.774c-4.341,4.659-9.929,7.258-15.739,9.452c-3.747,1.415-7.638,2.356-11.557,3.18
	c-1.304,0.274-2.102,0.069-2.638-1.34c-0.605-1.588-1.947-2.806-3.602-3.027c-2.454-0.328-3.436-2.396-5.087-3.664
	c-0.835-0.642-0.132-1.231,0.163-1.76c2.181-3.914,4.366-7.822,5.755-12.113c1.161-3.586,2.597-4.639,6.463-5.012
	c1.019-0.098,1.374,0.174,1.363,1.147C465.059,413.414,465.073,415.18,465.073,416.946z"/>
<path fill="#8B2222" d="M236.503,387.341c4.403-3.424,8.747-6.928,13.23-10.243c2.922-2.161,5.822-4.381,9.046-6.111
	c0.596-0.32,1.138-0.73,1.832-0.817c6.475,3.627,11.156,8.785,13.558,15.888c-1.797,1.172-3.897,0.954-5.874,1.207
	c-7.793,0.996-15.594,1.925-23.403,2.789c-0.743,0.082-1.486,0.043-2.227,0.111C240.611,389.223,238.557,388.282,236.503,387.341z"
	/>
<path fill="#8B2222" d="M308.404,362.105c0.133-0.132,0.266-0.264,0.399-0.395c3.36,0.79,6.822,0.633,10.221,1.116
	c7.647,1.087,15.321,2.001,22.887,3.576c1.028,0.214,2.403-0.53,3.1,0.884c-0.39,0.132-0.78,0.264-1.169,0.396
	c-2.436-0.075-4.607,1.006-6.84,1.697c-9.342,2.89-18.662,5.85-28.014,8.704c-2.008,0.613-3.793,1.301-4.338,3.591
	c-1.059-5.733-0.006-11.175,2.277-16.443C307.385,364.174,307.91,363.146,308.404,362.105z"/>
<path fill="#771D1D" d="M154.073,508.91c3.795-3.402,8.071-6.174,12.116-9.249c1.459-1.109,2.964-2.157,4.45-3.229
	c0.794-0.573,1.191-0.553,1.477,0.585c1.45,5.762,3.895,11.141,6.64,16.381c0.674,1.286,0.489,1.872-0.86,2.398
	c-4.868,1.9-9.808,3.567-14.848,4.942c-1.84-2.563-3.799-5.01-6.053-7.245C155.718,512.226,154.423,510.831,154.073,508.91z"/>
<path fill="#B12B2B" d="M242.665,390.164c1.616-1.326,3.65-0.807,5.457-1.07c6.185-0.901,12.417-1.47,18.631-2.173
	c2.473-0.279,4.944-0.575,7.416-0.863c2.361,5.722,2.368,11.581,1.083,17.536c-0.306,1.417-0.937,1.258-1.988,0.769
	c-7.983-3.719-15.989-7.386-23.984-11.079C247.067,392.261,244.869,391.204,242.665,390.164z"/>
<path fill="#B12B2B" d="M440.632,504.009c8.25,6.078,16.363,12.329,24.089,19.069c0.153,0.134,0.29,0.286,0.438,0.425
	c0.458,0.428,0.999,0.938,0.593,1.556c-0.327,0.498-1.011,0.211-1.524,0.11c-4.653-0.911-9.32-1.758-13.948-2.786
	c-6.28-1.395-12.567-2.779-18.673-4.854c-0.564-0.913,0.141-1.411,0.699-1.842c2.845-2.195,4.501-5.151,5.707-8.462
	C438.494,505.905,438.814,504.306,440.632,504.009z"/>
<path fill="#2A2A2A" d="M241.383,391.03c4.098,1.884,8.197,3.768,12.295,5.652c0,0.271-0.047,0.554,0.045,0.808
	c1.79,4.917,0.443,8.999-3.295,12.452c-3.12,2.194-6.497,2.669-10.108,1.485c-0.748-0.245-1.573-0.4-2.013-1.187
	c-0.149-0.624,0.227-1.017,0.611-1.415c0.992-1.027,1.04-2.322,0.312-3.333c-0.681-0.944-1.936-1.192-3.144-0.862
	c-1.846,0.505-2.366,0.192-2.515-1.743c-0.157-2.044-0.097-4.075,0.908-5.949c1.019-2.48,2.922-4.074,5.29-5.161
	C240.307,391.529,240.911,391.426,241.383,391.03z"/>
<path fill="#2A2A2A" d="M329.173,375.932c2.6-1.222,5.2-2.444,7.8-3.666c2.244,0.383,4.379,1.049,6.242,2.42
	c3.295,3.086,4.817,6.689,3.263,11.189c-0.631,0.604-1.235,0.302-1.849-0.042c-1.268-0.711-2.445-0.391-3.245,0.66
	c-0.824,1.083-1.033,2.371,0.047,3.516c0.935,0.992,0.693,1.531-0.532,2.055c-6.746,2.887-13.969-1.316-14.536-8.607
	C326.139,380.589,327.026,377.988,329.173,375.932z"/>
<path fill="#771D1D" d="M440.632,504.009c-1.063,0.89-1.715,2.03-2.159,3.336c-1.193,3.511-2.886,6.69-6.074,8.842
	c-0.457,0.308-0.799,0.736-0.791,1.343c-3.782-0.87-7.338-2.402-10.974-3.705c-1.363-0.489-1.396-1.182-0.842-2.299
	c1.84-3.712,3.586-7.47,4.785-11.449c0.624-2.07,1.163-4.165,1.821-6.539C431.294,496.979,436.077,500.334,440.632,504.009z"/>
<path fill="#B12B2B" d="M154.073,508.91c2.373,3.895,6.09,6.683,8.618,10.455c0.301,0.449,0.813,0.759,0.357,1.372
	c-8.563,2.347-17.215,4.301-25.952,5.884c-1.024,0.186-1.694,0.345-2.263-0.856c-0.553-1.167-0.135-1.716,0.689-2.369
	c5.373-4.253,10.711-8.551,16.109-12.771C152.405,510.02,152.962,509.05,154.073,508.91z"/>
<path fill="#B12B2B" d="M335.125,412.315c-2.476,6.144-4.335,12.294-5.676,18.591c-0.832,3.907-1.624,7.827-2.276,11.768
	c-0.432,2.607-2.326,1.208-3.512,1.336c-1.589,0.172-0.802-1.149-0.735-1.888c0.878-9.587,2.05-19.128,4.111-28.549
	c0.33-1.507,0.818-1.817,2.301-1.564C331.126,412.313,332.981,412.222,335.125,412.315z"/>
<path fill="#B12B2B" d="M273.239,444.052c-2.747,0-5.185-0.023-7.622,0.013c-0.762,0.011-1.253-0.212-1.624-0.911
	c-2.386-4.488-4.976-8.853-8.175-13.126c3.099-0.927,5.949-2.064,8.605-3.626c0.652-0.384,0.964-0.153,1.265,0.424
	C268.539,432.294,270.926,437.961,273.239,444.052z"/>
<path fill="#761D1D" d="M176.99,545.306c3.602-3.267,7.224-6.513,10.796-9.814c1.177-1.088,1.938-1.275,2.81,0.387
	c1.318,2.511,2.803,4.942,4.346,7.324c0.664,1.025,0.422,1.447-0.525,1.987c-3.767,2.147-7.675,3.973-11.776,5.383
	C180.217,549.398,178.573,547.385,176.99,545.306z"/>
<path fill="#B12B2B" d="M304.649,381.674c-0.426-2.15,0.638-3.021,2.617-3.625c11.296-3.444,22.546-7.043,33.846-10.473
	c0.746-0.226,1.908-1.469,2.729,0.105c-12.418,5.704-24.838,11.403-37.248,17.124c-0.905,0.417-1.508,0.56-1.596-0.734
	C304.943,383.269,304.77,382.473,304.649,381.674z"/>
<path fill="#A46720" d="M464.734,543.189c-0.138-1.615-0.276-3.23-0.413-4.844c0.171-0.393,0.648,0.8,0.637-0.088
	c-0.017-1.319,0.074-2.641-0.043-4.054c-0.294,0.774,0.036,1.661-0.71,2.185c-0.605-1.202-0.233-2.547-0.556-3.796
	c-0.225-0.871,0.476-0.816,0.999-0.827c1.969-0.041,3.943,0.006,5.908-0.104c1-0.056,1.113,0.381,1.092,1.187
	c-0.233,8.955-0.38,17.914-1.49,26.821c-0.21,1.682-0.38,3.369-0.589,5.051c-0.062,0.5,0.064,0.989-0.545,1.401
	c-2.236,1.511-2.398,1.501-2.895-1.225c-0.218-1.193-0.203-2.428-0.294-3.644c-0.288-1.013-0.317-1.884,1.026-2.133
	c1.109-0.205,1.287-1.077,1.302-2.002c0.038-2.298,0.038-4.596-0.002-6.894c-0.003-0.203,0.029-0.439-0.066-0.6
	c-1.446-2.438-1.878-5.11-1.494-7.945C465.251,541.71,465.793,543.278,464.734,543.189z"/>
<path fill="#761D1D" d="M397.327,574.256c-3.289-2.519-6.151-5.499-9.084-8.402c-0.639-0.632-0.763-1.102-0.147-1.875
	c1.936-2.434,3.798-4.929,5.664-7.418c0.567-0.756,0.926-0.59,1.289,0.154c1.988,4.073,3.985,8.141,5.979,12.211
	C399.749,570.671,399.166,572.899,397.327,574.256z"/>
<path fill="#761D1D" d="M198.14,569.339c1.516-3.782,3.575-7.298,5.344-10.957c0.576-1.191,1.125-0.846,1.754-0.038
	c1.873,2.405,3.744,4.811,5.67,7.173c0.463,0.569,0.632,0.928,0.036,1.506c-2.625,2.545-5.042,5.306-7.934,7.573
	C200.68,573.499,198.895,571.897,198.14,569.339z"/>
<path fill="#771D1D" d="M413.647,547.736c-3.203-1.12-6.209-2.666-9.199-4.247c-0.974-0.515-1.374-0.993-0.607-2.156
	c1.6-2.427,3.093-4.938,4.434-7.517c0.728-1.4,1.352-1.187,2.266-0.357c2.252,2.044,4.512,4.079,6.768,6.117
	C416.612,542.531,415.163,545.148,413.647,547.736z"/>
<path fill="#B12B2B" d="M413.647,547.736c-0.279-1.365,0.656-2.32,1.285-3.286c1.003-1.54,0.937-3.575,2.377-4.875
	c5.185,4.533,10.084,9.364,14.944,14.306C425.885,552.232,419.656,550.319,413.647,547.736z"/>
<path fill="#B02B2B" d="M176.991,545.306c0.431,0,0.855,0.127,1.051,0.502c1.068,2.045,3.284,2.969,4.601,4.764
	c-5.357,2.262-10.925,3.872-16.722,5.165C169.61,552.26,173.3,548.783,176.991,545.306z"/>
<path fill="#B12B2B" d="M198.14,569.339c1.294,2.058,3.093,3.648,4.87,5.258c-3.005,2.531-6.001,5.07-9.023,7.581
	c-0.378,0.314-0.77,0.845-1.413,0.436c-0.637-0.405-0.406-0.892-0.166-1.408C194.267,577.225,195.96,573.164,198.14,569.339z"/>
<path fill="#7C4208" d="M464.734,543.189c0.482-0.426,0.291-1.005,0.334-1.526c0.057-0.684,0.315-1.242,1.071-1.202
	c0.752,0.04,0.963,0.642,0.969,1.309c0.01,1.014,0.008,2.028,0.01,3.042c0.002,1.13-0.224,2.325,1.034,3.05
	c0.197,0.113,0.342,0.453,0.369,0.703c0.362,3.36,0.334,6.728,0.015,10.086c-0.053,0.554-0.444,1.397-1.153,1.148
	c-1.637-0.575-1.433,0.55-1.548,1.452c-0.531-0.943-0.305-1.956-0.277-2.952c0.247-2.855,0.264-5.699-0.403-8.511
	C465.002,547.589,464.435,545.416,464.734,543.189z"/>
<path fill="#A1661F" d="M467.667,526.953c1.826,0,3.655,0.061,5.479-0.018c1.555-0.067,1.236,1.017,1.359,1.907
	c0.151,1.091-0.316,1.388-1.356,1.401c-3.853,0.047-7.704,0.201-11.557,0.24c-0.562,0.006-1.797,0.542-1.569-0.716
	c0.191-1.054-0.333-2.835,1.759-2.818C463.743,526.965,465.705,526.952,467.667,526.953z"/>
<path fill="#B02B2B" d="M397.327,574.256c1.281-1.744,1.689-4.094,3.701-5.33c2.269,4.123,4.08,8.455,5.861,12.875
	C403.513,579.486,400.295,577.032,397.327,574.256z"/>
<path fill="#282422" d="M214.422,404.192c-1.704-0.031-2.924-1.25-4.32-1.934c-6.867-3.365-13.68-6.876-19.531-11.908
	c-1.294-1.113-2.722-2.173-3.457-3.822c-0.654-2.302,0.971-3.643,2.229-5.085c0.658-0.755,1.507-1.426,2.424-1.817
	c3.6-1.532,7.102-3.298,10.827-4.535c0.32,0.01,0.614,0.096,0.866,0.301c-0.043,1.548-1.426,1.547-2.374,2.041
	c-3.17,1.651-6.759,2.384-9.723,4.496c-1.745,1.243-2.961,2.753-2.996,4.998c3.145,3.408,6.827,6.126,10.759,8.555
	c3.675,2.27,7.611,4.034,11.393,6.093c1.344,0.732,3.029,0.833,4.048,2.168C214.52,403.892,214.471,404.042,214.422,404.192z"/>
<path fill="#AF2A2A" d="M116.496,545.635c4.233-5.827,8.466-11.654,12.697-17.483c0.371-0.511,0.806-1.112,1.467-0.67
	c0.686,0.459,0.854,1.244,0.348,1.976c-0.81,1.173-1.639,2.337-2.529,3.45c-3.649,4.567-7.505,8.955-11.541,13.183
	C116.557,546.166,116.368,546.053,116.496,545.635z"/>
<path fill="#AE2A2A" d="M146.837,262.401c-4.414-0.914-8.723-1.806-13.244-2.742C138.158,255.93,143.432,257.551,146.837,262.401z"
	/>
<path fill="#683E41" d="M329.173,375.932c0.01,0.754-0.58,1.211-0.928,1.77c-2.419,3.882-1.869,8.555,1.496,12.317
	c2.305,2.577,7.819,3.439,11.175,1.767c0.626-0.312,1.144-0.635,0.495-1.34c-1.277-1.387-1.223-2.928-0.146-4.239
	c1.093-1.33,2.62-1.215,4.07-0.391c0.353,0.2,0.651-0.007,0.968-0.097c0.269,0.296,0.22,0.601,0.026,0.91
	c-0.44,0.28-0.856,0.156-1.265-0.076c-1.234-1.171-2.482-1.066-3.505,0.185c-0.969,1.186-0.813,2.515,0.429,3.386
	c1.257,0.882,0.69,1.284-0.194,1.824c-3.677,2.243-8.949,1.692-12.336-1.306c-3.447-3.051-4.528-7.95-2.678-12.069
	c0.273-0.608,0.777-1.129,0.743-1.861C327.923,376.138,328.53,375.997,329.173,375.932z"/>
<path fill="#AFAFAF" d="M239.056,390.136c-2.755,0.422-5.51,0.845-8.265,1.267c1.578-0.902,2.758-2.371,4.444-3.12
	C236.509,388.901,237.783,389.519,239.056,390.136z"/>
<path fill="#B88689" d="M250.28,409.756c3.543-3.461,4.917-7.459,3.045-12.266c-0.143-0.367-0.02-0.65,0.353-0.808
	c0.134,0.126,0.269,0.253,0.403,0.379c1.585,4.935,0.839,9.277-3.252,12.767C250.624,409.975,250.441,409.951,250.28,409.756z"/>
<path fill="#C77F29" d="M464.203,536.388c0.033-0.935,0.051-1.872,0.109-2.806c0.021-0.351,0.226-0.669,0.582-0.736
	c0.45-0.086,0.566,0.278,0.563,0.623c-0.014,1.67-0.028,3.342-0.106,5.01c-0.011,0.225-0.073,0.791-0.517,0.662
	c-0.229-0.067-0.346-0.518-0.513-0.796C464.281,537.692,464.242,537.04,464.203,536.388z"/>
<path fill="#D6D5D5" d="M241.383,391.03c-0.033,0.778-0.735,0.678-1.186,0.875c-2.31,1.01-4.171,2.508-5.327,4.794
	c-0.182,0.246-0.291,0.599-0.717,0.484c0.59-2.707,2.621-4.135,4.815-5.413c0.559-0.326,1.331-0.254,1.716-0.911
	C240.917,390.917,241.15,390.973,241.383,391.03z"/>
<path fill="#952424" d="M534.021,321.676c-1.543-0.712-3.086-1.424-5.121-2.363C531.496,318.988,532.99,319.821,534.021,321.676z"/>
<path fill="#988183" d="M342.993,374.776c-1.788-1.36-4.098-1.469-6.02-2.511c0.395-0.142,0.789-0.284,1.183-0.425
	c1.46,1.142,3.537,1.077,4.859,2.488c0.126,0.106,0.165,0.208,0.116,0.306C343.084,374.729,343.038,374.776,342.993,374.776z"/>
<path fill="#8D581A" d="M465.153,549.788c0.212,0.137,0.604,0.268,0.609,0.412c0.09,2.703,0.485,5.417-0.206,8.099
	c-0.047-1.722-0.094-3.443-0.141-5.164c-0.333-0.957,0.077-1.981-0.263-2.938C465.152,550.061,465.153,549.924,465.153,549.788z"/>
<path fill="#8D2222" d="M116.496,545.635c0.148,0.152,0.295,0.305,0.443,0.457c-0.696,0.806-1.392,1.611-2.089,2.417
	C115.071,547.312,115.658,546.392,116.496,545.635z"/>
<path fill="#4E4D4D" d="M452.503,437.682c0.951-0.206,1.628-0.271,2.224,0.456C453.932,438.497,453.291,438.482,452.503,437.682z"/>
<path fill="#7C4208" d="M465.152,550.197c0.629,0.93,0.251,1.951,0.264,2.938C464.934,552.191,465.115,551.187,465.152,550.197z"/>
<path fill="#360D0D" d="M113.866,549.951c-0.518-0.091-0.54-0.296-0.436-0.434c0.142-0.188,0.342-0.391,0.555-0.45
	c0.208-0.057,0.287,0.159,0.183,0.358C114.05,549.652,113.914,549.869,113.866,549.951z"/>
<path fill="#1C181E" d="M329.578,322.035c-2.842-1.625-5.786-3.098-8.503-4.911c-4.209-2.808-8.542-5.446-12.341-8.855
	c-1.349-1.211-2.754-2.411-4.209-3.497c-4.57-3.413-8.505-7.605-13.249-10.782c-2.828-1.893-5.457-4.165-8.978-4.853
	c-2.165-0.423-4.209-0.86-6.512-0.471c-5.274,0.892-8.628,4.333-11.707,8.169c-4.053,5.049-7.465,10.539-10.647,16.174
	c-0.262,0.464-0.656,0.852-0.989,1.276c-0.252-0.206-0.355-0.485-0.389-0.797c0.267-2.731,2.343-4.532,3.567-6.761
	c2.152-3.919,4.774-7.558,7.459-11.14c0.114-0.166,0.243-0.318,0.381-0.463c2.043-2.077,3.984-4.23,6.547-5.764
	c5.477-3.277,10.887-3.087,16.44-0.231c4.707,2.422,8.626,5.888,12.62,9.252c4.618,3.888,9.207,7.808,14.068,11.391
	c0.239,0.157,0.458,0.34,0.666,0.535c0.499,0.516,1.026,0.998,1.691,1.302c1.584,0.893,2.994,2.032,4.435,3.126
	c0.619,0.511,1.363,0.806,2.06,1.182c0.313,0.169,0.601,0.374,0.876,0.597c0.647,0.618,1.46,0.922,2.29,1.192
	c0.506,0.223,0.967,0.514,1.366,0.899c0.898,0.865,2.144,1.099,3.165,1.74c0.163,0.087,0.312,0.195,0.453,0.315
	c0.253,0.272,0.448,0.567,0.349,0.967C330.275,321.963,329.834,321.793,329.578,322.035z"/>
<path fill="#1D191E" d="M329.578,322.035c0.177-0.328,0.482-0.399,0.818-0.408c0.278-0.332,0.639-0.357,1.027-0.278
	c0.178,0.056,0.343,0.14,0.496,0.245c1.04,0.708,2.096,1.387,3.311,1.77c0.5,0.217,0.966,0.492,1.398,0.824
	c0.4,0.348,0.856,0.605,1.349,0.798c0.159,0.075,0.306,0.169,0.445,0.274c0.456,0.409,1.031,0.604,1.57,0.865
	c0.157,0.075,0.306,0.165,0.45,0.261c0.491,0.381,1.08,0.554,1.65,0.77c0.916,0.484,1.994,0.55,2.876,1.12
	c2.594,1.127,5.05,2.571,7.81,3.31c2.592,1.117,5.42,0.846,8.021,0.688c3.693-0.223,7.313-0.036,10.949,0.314
	c3.291,0.316,6.594,0.507,9.8,1.548c2.165,0.703,4.217,1.539,5.974,2.964c0.861,0.699,1.874,1.485,1.239,2.894
	c-1.009,0.007-1.58-0.825-2.19-1.365c-2.413-2.137-5.433-2.467-8.353-3.262c-3.373-0.918-7.011-0.074-10.238-1.714
	c-0.103-0.052-0.288-0.038-0.391,0.022c-2.003,1.172-4.211,0.151-6.303,0.352c-2.09,0.201-4.515-0.002-6.792-0.264
	c-5.915-0.68-10.352-4.219-15.42-6.566c-2.989-1.385-5.49-3.682-8.754-4.497C330.035,322.63,329.823,322.264,329.578,322.035z"/>
<path fill="#1C181D" d="M252.442,313.465c0,0.273,0.001,0.545,0.001,0.818c-2.938,5.301-5.887,10.596-8.813,15.903
	c-4.763,8.637-8.855,17.604-12.958,26.564c-0.892,1.948-1.468,4.041-2.369,5.985c-0.578,1.246-1.166,2.645-2.797,2.973
	c-0.479,0.333-0.791,0.174-0.984-0.335c-0.011-0.348,0.156-0.603,0.415-0.812c1.19-0.639,1.834-1.621,2.346-2.902
	c2.512-6.286,5.296-12.45,8.222-18.561c2.462-5.141,5.033-10.216,7.743-15.223c2.451-4.528,4.969-9.02,7.635-13.426
	C251.227,313.881,251.565,313.226,252.442,313.465z"/>
<path fill="#201C1F" d="M224.666,365.246c0.165,0.364,0.483,0.447,0.84,0.462c-1.588,1.405-3.28,2.749-5.355,3.214
	c-1.39,0.311-2.411,1.238-3.505,1.865c-1.6,0.918-3.58,1.193-4.88,2.678c-0.33,0.377-0.912,0.665-1.415,0.736
	c-2.835,0.403-5.044,2.251-7.612,3.197c-2.239,0.825-4.141,2.288-6.536,2.847c-2.55,0.595-4.785,1.995-6.545,4.108
	c-0.673,0.808-0.024,2.16-1.291,2.573c-0.596-1.665,0.151-3.385,1.833-4.802c3.073-2.59,7.036-3.275,10.493-5.036
	c0.952-0.485,2.004-0.767,2.779-1.562c0.762-1.016,1.982-1.349,3.035-1.841c1.988-0.929,4.013-1.794,6.051-2.616
	c0.632-0.136,1.263-0.277,1.733-0.779c1.123-1.006,2.693-1.295,3.779-2.363c0.253-0.142,0.521-0.245,0.797-0.33
	C220.96,367.205,222.447,365.322,224.666,365.246z"/>
<path fill="#383839" d="M301.416,321.222c-0.403,0.138-0.807,0.275-1.21,0.413c-1.167,0.705-2.56-0.675-3.686,0.401
	c-2.664,1.528-3.052,2.135-1.774,4.856c1.522,3.242,2.09,6.27-0.31,9.294c-0.381,0.48-0.238,0.853,0.193,1.213
	c0.933,0.78,1.828,1.618,3.114,1.773c0.159,0.166,0.213,0.361,0.162,0.586c-1.497,1.394-2.449-0.128-3.491-0.737
	c-1.024-0.598-1.776-1.503-1.361-2.869c0.178-0.587,0.434-1.146,0.747-1.664c1.31-2.17,1.238-4.362,0.174-6.587
	c-0.263-0.55-0.365-1.176-0.684-1.691c-0.968-1.56-0.56-2.814,0.774-3.899c0.539-0.513,1.076-1.032,1.654-1.505
	c0.988-0.809,2.001-1.353,3.346-0.758c1.127,0.499,2.003,0.112,2.424-1.072c0.457-1.286-0.489-1.749-1.402-2.03
	c-1.025-0.315-1.894-0.775-2.434-1.7c-0.558-0.955-1.631-0.868-2.438-1.315c-0.107-0.186-0.085-0.361,0.046-0.526
	c0.775-0.704,1.669-0.394,2.171,0.149c1.482,1.605,3.573,2.258,5.212,3.587C303.019,318.736,303.204,320.275,301.416,321.222z"/>
<path fill="#3D3E40" d="M297.765,339.656c-0.008-0.162-0.015-0.323-0.023-0.485c1.576-0.675,3.165-1.494,4.526,0.383
	c0.855,0.973,0.86,1.946-0.003,2.918c-0.397,0.595-0.802,1.177-1.61,1.235c-0.392,0.613-0.066,1.39-0.459,2.002l0,0
	c-1.798,2.164-2.617,2.327-4.084,0.814c-0.934-4.437-1.454-4.98-5.239-5.473c-1.57-0.204-2.564,0.81-2.266,2.319
	c0.17,0.857,0.38,1.706,0.528,2.567c0.352,2.053-0.32,3.568-2.354,4.333c-0.058-0.084-0.116-0.168-0.175-0.252
	c-0.034-0.315,0.042-0.608,0.176-0.889c0.094-0.178,0.21-0.342,0.343-0.493c1.446-1.545,0.405-3.224,0.2-4.823
	c-0.27-2.099,0.151-3.087,1.97-3.907c1.992-0.898,6.524,1.05,7.244,3.134c0.176,0.508,0.197,1.072,0.586,1.495
	c0.314,0.341,0.523,0.894,1.054,0.867c0.627-0.031,0.622-0.628,0.687-1.083c0.141-0.989,0.777-1.531,1.616-1.935
	c0.738-0.355,1.252-0.911,0.926-1.773c-0.278-0.734-0.971-0.874-1.696-0.842C299.062,339.798,298.386,340.185,297.765,339.656z"/>
<path fill="#717172" d="M274.11,321.664c1.212-0.284,2.424-0.567,3.635-0.851c1.419-0.356,2.896-0.21,4.322-0.5
	c0.319-0.11,0.643-0.118,0.97-0.045c1.102,0.553,2.291,0.276,3.442,0.353c0.585,0.207,1.227,0.137,1.808,0.367
	c0.748,0.436,1.653,0.032,2.406,0.45c0.432,0.444,0.13,0.779-0.164,1.117c-0.186,0.127-0.391,0.207-0.613,0.246
	c-1.079-0.035-2.112-0.345-3.167-0.523c-4.57-0.772-9.047-0.275-13.433,1.151c-1.935,0.765-3.25,2.503-5.161,3.312
	c-0.186,0.084-0.379,0.145-0.578,0.189c-2.562,0.026-4.594-1.343-6.61-2.641c-1.456-0.938-0.291-2.522-0.655-3.752
	c-0.333-0.863-1.095-0.57-1.726-0.633c-0.183-0.04-0.346-0.118-0.495-0.231c-0.113-0.17-0.105-0.339,0.006-0.505
	c0.154-0.134,0.309-0.268,0.463-0.401c1.142-0.382,2.178-0.406,2.84,0.837l-0.003-0.005c0.215,0.202,0.282,0.491,0.263,0.741
	c-0.263,3.454,2.564,4.016,4.789,5.134c0.762,0.383,1.282-0.201,1.836-0.543c0.688-0.424,1.456-0.724,2.052-1.294
	c0.153-0.135,0.306-0.27,0.459-0.406C271.859,322.616,272.941,322.047,274.11,321.664z"/>
<path fill="#3D3E40" d="M286.781,350.269c-2.919,0.884-5.703,2.514-8.941,1.646c-0.731-0.196-1.307,0.17-1.938,0.41
	c-1.717,0.654-3.078-0.118-3.477-1.885c-0.33-1.463-0.502-2.935-0.378-4.427c0.103-1.24-0.423-1.75-1.488-1.081
	c-1.475,0.927-2.875,1.996-4.201,3.128c-0.568,0.485,0.072,1.271,0.003,1.931c-0.062,0.598,0.785,1.244-0.095,1.81
	c-0.217-0.168-0.397-0.368-0.535-0.607c-0.092-0.161-0.165-0.329-0.229-0.503c-1.602-2.869,0.655-4.012,2.405-5.384
	c0.143-0.124,0.297-0.233,0.455-0.337c0.78-0.394,1.294-1.143,2.068-1.55c0.2-0.076,0.404-0.113,0.617-0.119
	c1.74,0.189,2.32,1.286,2.351,2.894c0.025,1.325-0.154,2.661,0.166,3.969c0.14,0.369,0.332,0.7,0.697,0.897
	c2.594-0.559,5.269,0.079,7.876-0.749c1.397-0.443,2.992-0.69,4.523-0.199L286.781,350.269z"/>
<path fill="#565333" d="M388.761,339.994c-0.98-3.405-4.013-4.27-6.801-5.12c-6.069-1.85-12.385-2.214-18.678-2.148
	c-2.954,0.031-5.897,0.032-8.846-0.096c-0.777-0.034-1.475-0.201-2.038-0.767c0.3-0.326,0.692-0.43,1.107-0.381
	c3.306,0.391,6.626,0.196,9.935,0.153c3.054-0.04,6.067,0.304,9.094,0.541c1.365,0.479,2.786,0.269,4.185,0.322
	c2.58,0.031,4.847,1.336,7.32,1.803c1.783,1.181,3.9,1.87,5.322,3.591c0.544,0.737,0.501,1.542,0.274,2.368
	c-0.407,0.739-0.51,1.654-1.266,2.192C388.5,341.631,388.63,340.813,388.761,339.994z"/>
<path fill="#484A4C" d="M264.708,339.965c-1.591-2.364-1.907-4.91-1.223-7.658c0.276-1.11,1.4-2.539,0.329-3.345
	c-1.435-1.079-3.204-1.979-5.24-1.432c-1.104,0.297-2.385,0.693-3.194-0.379c-0.74-0.98-1.428-2.181-0.505-3.499
	c0.261-0.204,0.542-0.199,0.834-0.085c0.194,0.314,0.067,0.648,0.073,0.978c0.032,1.589,0.641,2.09,2.163,1.552
	c1.23-0.435,2.346-0.538,3.476,0.171c4.451,2.157,4.454,2.158,3.208,6.875c-0.503,1.901-0.11,3.737,0.385,5.568
	C265.085,339.171,265.059,339.608,264.708,339.965z"/>
<path fill="#474748" d="M263.909,353.02c-1.783-1.645-3.431-3.432-5.201-5.093c-1.191-1.117,0.687-3.012,2.94-2.588
	c1.295,0.244,2.17-0.056,3.038-0.856c0.238,0.219,0.311,0.498,0.293,0.809c-0.519,1.419-1.585,1.72-2.937,1.423
	c-0.264-0.058-0.52-0.166-0.791-0.184c-0.545-0.036-1.181-0.109-1.348,0.569c-0.139,0.566,0.4,0.88,0.824,1.003
	c1.787,0.52,2.529,1.914,3.089,3.493C263.949,352.065,264.133,352.53,263.909,353.02z"/>
<path fill="#3B3B3C" d="M270.34,323.637c-0.879,1.181-2.185,2.332-3.455,2.134c-1.88-0.293-3.816-1.192-5.167-2.619
	c-0.828-0.876-0.096-2.361-0.318-3.554c0.464,0.247,0.62,0.71,0.747,1.158c1.105,3.892,3.537,5.033,7.063,3.307
	C269.571,323.888,269.963,323.778,270.34,323.637z"/>
<path fill="#3B3B3C" d="M290.83,321.646c-0.845-0.127-1.766,0.233-2.532-0.396c0.762-0.572,1.738,0.102,2.506-0.431
	c2.75-1.291,4.925-2.904,3.798-6.487c-0.127-0.404,0.306-0.706,0.655-0.928c0.025,0.189,0.05,0.379,0.075,0.569
	c1.561,3.434,1.123,4.849-2.172,7.049C292.406,321.303,291.74,321.935,290.83,321.646z"/>
<path fill="#959393" d="M229.161,392.616c-0.512,1.299-1.805,1.794-2.778,2.579c-2.257,1.822-4.642,3.485-6.976,5.212
	c-0.13-1.267,1.085-1.462,1.737-2.008C223.673,396.284,226.312,394.299,229.161,392.616z"/>
<path fill="#706F6F" d="M264.705,345.332c-0.006-0.283-0.012-0.565-0.018-0.848c0.255-0.29,0.511-0.579,0.766-0.869
	c0.271-0.507,1.119-0.715,0.795-1.531c-0.795-0.501-1.203-1.284-1.539-2.118c-0.02-0.368-0.04-0.736-0.06-1.104
	c0.153-0.186,0.339-0.229,0.559-0.13c0.709,0.553,1.13,1.341,1.617,2.064C268.177,342.802,267.228,344.801,264.705,345.332z"/>
<path fill="#3B3B3C" d="M255.724,323.676c-0.283-0.008-0.566-0.016-0.849-0.024c1.265-0.707,2.298-1.575,2.393-3.179
	c0.033-0.557,0.292-1.038,0.832-1.306c0.031,0.15,0.062,0.299,0.093,0.449c0.233,2.722-0.042,3.345-1.863,4.227
	C256.104,323.875,255.902,323.819,255.724,323.676z"/>
<path fill="#363738" d="M296.519,322.036c1.016-2.092,2.477-0.091,3.686-0.401C299.088,322.784,297.753,321.945,296.519,322.036z"/>
<path fill="#333133" d="M296.112,346.523c1.752,1.69,2.832,0.008,4.083-0.814c-0.267,1.446-1.351,1.876-2.603,2.018
	C296.75,347.822,296.168,347.462,296.112,346.523z"/>
<path fill="#363536" d="M290.804,320.818c-0.732,0.743-1.678,0.241-2.505,0.431c-0.558-0.029-1.153,0.107-1.612-0.362
	c-0.199-0.178-0.186-0.339,0.037-0.484C288.104,320.345,289.406,321.052,290.804,320.818z"/>
<path fill="#9A9F9F" d="M263.909,353.02c-0.162-0.389-0.579-0.678-0.465-1.177c0.9-0.057,1.738-0.294,2.474-0.837
	c0.116,0.265,0.232,0.53,0.348,0.795C265.711,352.655,265.1,353.399,263.909,353.02z"/>
<path fill="#363738" d="M301.416,321.222c1.268-1.103,1.335-2.566,1.225-4.082C303.549,319.601,303.27,320.529,301.416,321.222z"/>
<path fill="#3B3B3C" d="M274.11,321.664c-1.007,0.726-2.097,1.278-3.311,1.568C271.659,322.194,272.755,321.655,274.11,321.664z"/>
<path fill="#3B3B3C" d="M282.271,320.42c-1.452,0.783-3.018,0.247-4.525,0.392c0.708-0.754,1.627-0.274,2.439-0.416
	C280.884,320.112,281.579,320.077,282.271,320.42z"/>
<path fill="#333133" d="M302.265,342.471c0.503-0.972,0.501-1.944,0.002-2.917C303.521,340.527,303.531,341.5,302.265,342.471z"/>
<path fill="#363536" d="M282.271,320.42c-0.695-0.008-1.39-0.015-2.085-0.023c1.236-0.647,2.477-0.618,3.722-0.027
	c-0.283,0.273-0.583,0.262-0.894,0.051C282.766,320.421,282.518,320.42,282.271,320.42z"/>
<path fill="#3B3B3C" d="M261.403,319.603c-0.784-0.832-1.79-0.908-2.84-0.837C259.754,318.216,260.914,317.769,261.403,319.603z"/>
<path fill="#3B3B3C" d="M283.014,320.421c0.298-0.017,0.595-0.034,0.893-0.051c0.939,0.011,1.878,0.022,2.817,0.033
	c-0.012,0.161-0.024,0.322-0.037,0.483C285.478,320.616,284.172,321.101,283.014,320.421z"/>
<path fill="#333133" d="M300.196,345.709c0.129-0.673-0.334-1.482,0.458-2.003C300.895,344.464,300.756,345.135,300.196,345.709z"/>
<path fill="#474748" d="M266.247,342.083c0.769,1.046-0.286,1.147-0.794,1.532C265.718,343.104,265.982,342.594,266.247,342.083z"/>
<path fill="#C2C25D" d="M201.012,371.006c0.011-0.133,0.015-0.266,0.012-0.4c2.391-1.125,4.781-2.251,7.172-3.376
	c4.91-2.31,9.862-4.53,14.493-7.396c1.093-0.677,1.923-1.443,2.378-2.655c3.39-9.033,7.548-17.726,11.944-26.296
	c4.739-9.238,9.847-18.277,15.344-27.092c3.341-5.357,6.547-10.814,10.958-15.398c3.194-3.319,6.726-6.227,11.551-6.625
	c3.695-0.304,7.111,0.996,10.249,2.793c6.212,3.557,11.458,8.407,16.886,13.004c7.518,6.367,15.306,12.346,24.056,16.983
	c6.165,3.267,12.244,6.694,18.388,10c4.306,2.316,8.829,3.137,13.815,3.093c8.344-0.074,16.842-0.414,24.743,3.295
	c1.75,0.821,3.241,1.927,4.537,3.332c0.326,0.618,0.995,1.133,0.589,1.968c-2.004,0.194-3.593-1.186-3.083-2.668
	c-3.808-2.694-8.239-3.408-12.683-4.007c-5.789-0.781-11.607-0.738-17.439-0.596c-3.894,0.095-7.501-1.346-10.862-3.136
	c-6.043-3.218-12.045-6.518-18.028-9.849c-1.362-0.759-2.573-1.788-4.075-2.29c-0.184-0.075-0.359-0.171-0.529-0.274
	c-0.682-0.497-1.371-0.986-2.227-1.154c-0.455-0.15-0.83-0.376-0.835-0.924c-0.003-0.188-0.06-0.358-0.228-0.474
	c0.086,0.173,0.228,0.325,0.201,0.547c-0.15,0.756-0.713,0.808-1.32,0.793c-0.968-0.342-1.885-0.753-2.326-1.781
	c-0.025-0.397,0.111-0.73,0.831-0.952c-0.995-0.132-1.578,0.185-2.157-0.055c-1.07-0.474-2.199-0.882-2.494-2.224
	c-0.069-0.936-0.194-1.803-1.508-1.27c-0.857,0.048-1.315-0.63-1.891-1.064c-3.831-2.886-7.292-6.215-11.035-9.212
	c-2.96-2.369-5.867-4.769-9.274-6.495c-0.765-0.387-1.59-0.763-2.148-1.487c-0.046-0.201-0.013-0.389,0.096-0.564
	c1.552-1.138,2.436,0.357,3.67,0.852c-4.375-2.441-8.627-4.992-13.814-4.946c-3.264,0.029-5.784,1.79-8.151,3.737
	c-5.067,4.169-8.385,9.715-11.894,15.139c-5.206,8.047-9.87,16.406-14.425,24.819c-3.611,6.669-6.821,13.553-9.935,20.477
	c-1.56,3.468-3.163,6.909-4.409,10.506c-0.513,1.482-1.583,2.422-2.927,3.237c-6.335,3.843-13.168,6.692-19.762,10.015
	C202.69,371.326,201.85,371.758,201.012,371.006z"/>
<path fill="#CFD07C" d="M387.953,336.313c-0.138-0.681-0.277-1.363-0.415-2.044c1.999,1.676,2.84,4.081,2.096,5.992
	c0.009-0.79,0.036-1.582-0.517-2.241C388.907,337.33,388.269,336.932,387.953,336.313z"/>
<path fill="#BBBB58" d="M311.211,306.937c0.267,1.341,1.388,1.655,2.451,2.039c0.161,0.191,0.15,0.372-0.033,0.542
	c-0.281,0.171-0.582,0.21-0.899,0.134c-3.739-2.678-7.185-5.718-10.718-8.655c-5.76-4.789-11.207-10.071-18.295-12.953
	c-4.369-1.777-8.679-1.431-12.853,0.916c-2.959,1.664-5.191,4.093-7.458,6.514l0.02-0.015c-3.9,4.947-7.176,10.325-10.414,15.697
	c-4.47,7.416-8.772,14.941-12.715,22.664c-2.832,5.547-5.619,11.112-8.159,16.798c-1.739,3.894-3.498,7.781-4.982,11.783
	c-0.373,1.007-0.956,1.787-1.973,2.196c-2.028,1.306-4.331,2.113-6.327,3.479c-0.234,0.022-0.467,0.045-0.701,0.067
	c-2.719,1.789-5.651,3.208-8.65,4.398c-2.324,0.922-4.462,2.261-6.881,2.941c-3.863,1.864-8.053,3.022-11.689,5.376
	c-2.073,1.342-3.408,3.202-3.82,5.672c-0.127-0.147-0.254-0.294-0.381-0.441c-0.763-2.815,1.421-4.2,3.025-5.635
	c1.998-1.788,4.508-2.797,7.056-3.769c3.25-1.239,6.438-2.71,9.518-4.363c0.897-0.482,1.786-0.938,2.771-1.209
	c3.19-0.879,5.907-2.778,8.803-4.261c2.025-1.037,4.172-1.835,6.117-3.068c1-0.634,1.516-1.369,1.938-2.412
	c1.465-3.618,3.039-7.192,4.635-10.754c4.217-9.694,9.114-19.056,14.291-28.255c4.514-8.02,9.174-15.976,14.374-23.583
	c2.414-3.532,5.236-6.775,8.569-9.471c2.687-2.174,5.711-3.811,8.405-3.955c-3.143,0.276-6.395,2.161-9.395,4.802
	c-5.702,5.02-9.499,11.448-13.448,17.761c-4.846,7.748-9.341,15.709-13.645,23.766c-2.74,5.128-5.381,10.324-7.674,15.679
	c-0.482,1.125-1.051,2.204-1.57,3.309c-1.521,3.671-3.28,7.24-4.656,10.97c-0.833,2.26-3.064,2.764-4.854,3.638
	c-3.173,1.551-6.202,3.365-9.37,4.894c-2.166,1.046-4.502,1.752-6.719,2.752c-1.392,0.628-2.771,1.374-4.123,2.031
	c-3.545,1.722-7.555,2.485-10.674,5.13c-1,0.848-1.885,1.731-2.605,2.808c-0.336,0.502-0.687,1.183-1.408,0.858
	c-0.604-0.272-0.696-1.018-0.636-1.611c0.226-2.209,1.23-4.018,3.139-5.19c3.003-1.844,6.142-3.429,9.5-4.537
	c1.037-0.342,2.019-0.782,2.917-1.405c0,0-0.005-0.001-0.005-0.001c2.511,0.027,4.495-1.529,6.527-2.566
	c5.216-2.662,10.673-4.87,15.634-8.045c1.088-0.696,2-1.4,2.404-2.617c1.916-5.771,4.636-11.201,7.198-16.687
	c1.936-4.146,4.011-8.235,6.111-12.309c4.058-7.872,8.374-15.6,13.042-23.107c4.267-6.863,8.174-14.061,14.528-19.39
	c3.332-2.794,7.09-4.438,11.487-3.732c1.902,0.305,3.893,0.899,5.514,1.898c2.223,1.371,4.732,2.357,6.696,4.395
	c-0.932,0.176-1.374-0.403-1.947-0.823c-0.907-0.666-1.85-1.506-3.113-0.679c-1.191-1.288-2.893-1.335-4.363-1.946
	c1.484,0.576,3.123,0.775,4.363,1.945c6.643,3.474,12.305,8.231,17.844,13.224c2.051,1.848,4.152,3.791,6.642,5.146
	C310.443,305.694,310.793,306.361,311.211,306.937z"/>
<path fill="#C2C25A" d="M230.813,350.605c-1.563,3.933-3.054,7.897-4.719,11.786c-0.846,1.975-3.03,2.483-4.735,3.249
	c-3,1.346-5.793,3.079-8.815,4.376c-4.27,1.833-8.488,3.796-12.66,5.841c-3.357,1.646-7.179,2.358-10.04,5.016
	c-1.556,1.445-3.121,2.85-3.108,5.214c-2.671-3.677-2.064-6.557,2.053-9.751c3.973-2.013,7.931-4.061,12.229-5.329
	c-0.663,0.915-1.595,1.329-2.655,1.688c-3.785,1.282-7.449,2.825-10.625,5.351c-1.356,1.079-1.576,2.646-1.971,4.131
	c-0.098,0.368,0.157,1.088,0.461,1.249c0.535,0.284,0.749-0.353,1.001-0.743c2.118-3.273,5.318-4.896,8.865-6.235
	c2.467-0.932,4.879-2.112,7.258-3.321c1.517-0.771,3.062-1.648,4.702-2.165c3.757-1.184,7.071-3.202,10.479-5.091
	c1.49-0.826,3.086-1.527,4.649-2.242c1.282-0.586,1.893-1.461,2.398-2.707c1.36-3.357,2.869-6.653,4.337-9.965
	c0.07-0.158,0.32-0.237,0.486-0.353C230.539,350.461,230.676,350.461,230.813,350.605z"/>
<path fill="#CC7575" d="M231.049,454.943c-25.387,16.065-38.959,37.902-33.951,69.391c-2.717-2.815-4.08-5.752-5.328-8.696
	c-3.392-8.003-4.737-16.432-4.142-25.055c0.973-14.121,8.303-23.839,21.22-29.486c3.054-1.335,6.155-2.517,9.336-3.477
	C222.325,456.368,226.559,455.498,231.049,454.943z"/>
<path d="M371.045,496.46c-8.939-6.607-19.226-8.339-29.913-8.147c-11.007,0.198-21.652,2.639-32.067,6.143
	c-12.771,4.297-24.87,10.185-37.164,15.61c-8.572,3.782-17.073,7.722-25.641,11.516c-5.948,2.633-10.426,0.115-14.781-3.18
	c-2.085-1.578-2.135-4.314-2.258-6.758c-0.248-4.937,0.66-9.743,1.998-14.461c3.605-12.708,9.491-24.147,19.24-33.274
	c7.432-6.958,16.167-10.919,26.56-10.412c5.92,0.289,11.464,2.046,16.75,4.669c7.926,3.933,15.523,8.444,22.8,13.456
	c6.564,4.521,13.668,6.787,21.656,6.346c7.095-0.391,13.557,1.666,19.479,5.478C363.013,486.862,367.537,491.118,371.045,496.46z"/>
<path fill="#7E1919" d="M354.872,540.287c-0.237-4.97,3.846-8.723,8.68-8.827c4.558-0.098,8.819,4.233,8.871,8.657
	c0.056,4.741-4.414,9.5-9.015,9.146C358.556,548.891,354.622,545.594,354.872,540.287z"/>
<path fill="#7E1919" d="M362.266,566.105c-5.105,0.215-7.584-3.739-7.737-7.381c-0.167-3.994,3.679-7.624,7.718-7.593
	c3.949,0.03,7.343,3.579,7.333,7.669C369.57,562.882,366.348,566.101,362.266,566.105z"/>
<path fill="#7E1919" d="M348.606,541.604c3.253-0.395,6.305,3.367,6.27,6.172c-0.043,3.381-3.068,6.477-6.333,6.465
	c-3.152-0.012-6.321-3.293-6.306-6.528C342.252,544.511,345.296,541.592,348.606,541.604z"/>
<path fill="#7E1919" d="M346.601,566.098c-2.827-0.04-4.795-2.065-4.787-4.925c0.009-2.988,1.985-4.917,5-4.881
	c2.908,0.035,4.887,2.14,4.806,5.111C351.543,564.224,349.496,566.139,346.601,566.098z"/>
<path fill="#7E1919" d="M338.145,559.969c-0.35,0.624-0.314,0.919,0.455,1.354c1.749,0.991,2.13,2.707,1.543,4.531
	c-0.543,1.689-1.901,2.361-3.63,2.283c-1.855-0.084-2.953-1.091-3.466-2.846c-0.498-1.704,0.924-2.677,1.359-4
	c0.369-1.12-1.484-2.369-0.435-3.806c0.229-0.314,0.603-0.523,0.91-0.781c0.686-0.352,1.448-0.152,2.163-0.302
	c0.216,0.043,0.409,0.134,0.582,0.268C338.459,557.666,338.518,558.784,338.145,559.969z"/>
<path fill="#831B1B" d="M331.221,553.827c0.461,1.999-0.494,2.888-2.991,2.756c-0.353,0.53,0.185,0.988,0.142,1.512
	c-0.104,1.255-0.792,2.013-1.943,2.247c-1.311,0.267-2.035-0.604-2.372-1.705c-0.384-1.255,0.38-1.98,1.42-2.543
	c0.657-0.356,1.531,0.111,2.058-0.611C329.043,555.553,330.405,555.298,331.221,553.827z"/>
<path fill="#7E1919" d="M336.92,553.848c0.154-0.389,0.422-0.667,0.81-0.827c2.53-0.637,3.518,0.022,3.675,2.454
	c-0.403,0.549-0.807,1.099-1.21,1.648c-1.028,0.365-2,0.339-2.865-0.417l0.004,0.004
	C336.315,555.883,336.728,554.849,336.92,553.848z"/>
<path fill="#831B1B" d="M324.694,563.199c0.052,1.29-0.787,1.661-1.829,1.65c-1.245-0.013-2.111-0.763-2.199-1.953
	c-0.093-1.262,0.839-1.723,2.02-1.706C324.017,561.209,324.665,561.893,324.694,563.199z"/>
<path fill="#821A1A" d="M331.221,553.827c-0.798,2.433-0.972,2.511-3.686,1.656c-0.823-1.387-0.441-2.504,0.968-3.078
	C329.809,551.872,330.882,552.268,331.221,553.827z"/>
<path fill="#851C1C" d="M332.346,562.835c-0.446,0.86-0.982,1.673-2.089,1.577c-0.908-0.079-1.489-0.697-1.456-1.639
	c0.038-1.076,0.669-1.87,1.738-1.889C331.673,560.863,332.009,561.884,332.346,562.835z"/>
<path fill="#8A1D1D" d="M318.444,558.68c-0.165,0.787-0.693,1.221-1.521,1.281c-0.809,0.058-1.534-0.116-1.594-1.097
	c-0.057-0.943,0.482-1.611,1.384-1.662C317.589,557.154,318.193,557.745,318.444,558.68z"/>
<path fill="#8C1E1E" d="M315.255,563.288c0.082,0.998-0.447,1.382-1.064,1.421c-0.779,0.049-1.251-0.544-1.28-1.274
	c-0.027-0.661,0.461-1.212,1.094-1.254C314.805,562.129,315.074,562.843,315.255,563.288z"/>
<path fill="#851B1B" d="M323.405,556.821c-0.063,0.785-0.519,1.094-1.217,1.079c-0.716-0.016-1.126-0.407-1.152-1.128
	c-0.025-0.696,0.274-1.241,1.022-1.211C322.811,555.592,323.219,556.142,323.405,556.821z"/>
<path fill="#932020" d="M341.405,555.475c-0.298-2.207-1.772-2.65-3.675-2.454c0.878-0.997,1.901-0.959,2.795-0.158
	C341.249,553.512,342.323,554.204,341.405,555.475z"/>
<path fill="#932020" d="M337.33,556.706c0.939,0.245,1.873,0.53,2.865,0.417c-1.743,0.186-1.497,1.804-2.05,2.847
	C338.302,558.774,337.939,557.709,337.33,556.706z"/>
<path fill="#932020" d="M336.92,553.848c0.035,0.969-0.152,1.97,0.414,2.862c-0.818-0.002-1.635-0.003-2.453-0.005
	C336.622,556.51,336.377,554.898,336.92,553.848z"/>
<path fill="#C86B6B" d="M51.268,345.27c-3.068-10.769-5.584-21.632-5.318-32.934c0.089-3.808,0.699-7.541,2.086-11.119
	c1.888-4.869,6.544-8.301,11.606-8.401c-1.84,3.992-3.359,8.027-4.709,12.129c-3.544,10.763-4.675,21.819-4.063,33.082
	c0.117,2.153,0.522,4.29,0.794,6.435C51.894,344.909,51.993,345.292,51.268,345.27z"/>
<path fill="#010000" d="M66.058,303.2c-1.59,6.312-3.047,12.098-4.506,17.883c-0.809,3.206-0.811,3.205,2.047,4.998
	c6.245,3.916,6.211,3.921,7.227,12.17c0.514,4.171,1.251,8.315,1.748,12.488c0.417,3.504,2.947,5.885,4.391,8.838
	c0.234,0.478,1.038,0.939,0.274,1.555c-0.675,0.544-1.195,1.062-2.061-0.12c-3.382-4.614-5.183-9.692-5.629-15.403
	c-0.327-4.18-1.199-8.317-1.775-12.48c-0.171-1.235-0.685-2.11-1.772-2.767c-2.265-1.369-4.45-2.871-6.72-4.231
	c-0.825-0.494-1.083-0.904-0.821-1.92c1.777-6.894,3.449-13.815,5.196-20.716c0.149-0.591,0.027-1.641,1.326-1.211
	C65.786,302.549,66.154,302.884,66.058,303.2z"/>
<path fill="#C15656" d="M51.268,345.27c0.329-0.173,0.36-0.491,0.396-0.808c0.613,1.593,0.911,3.252,0.861,5.001
	C52.106,348.066,51.687,346.668,51.268,345.27z"/>
<path fill="#C86A6A" d="M544.234,382.008c-6.973,5.383-14.025,10.65-22.009,14.492c-2.474,1.191-5.052,2.057-7.929,1.965
	c9.807-5.722,19.955-10.794,29.53-16.861C544.257,381.44,544.328,381.64,544.234,382.008z"/>
<path fill="#C35A5A" d="M544.234,382.008c-0.136-0.134-0.272-0.268-0.408-0.403c0.941-0.675,1.882-1.349,2.823-2.024
	C546.174,380.791,545.139,381.326,544.234,382.008z"/>
<path fill="#C86A6A" d="M141.847,425.098c9.588,11.066,19.507,20.94,33.158,26.164C161.004,449.719,147.423,438.6,141.847,425.098z"
	/>
<path fill="#BE4E4E" d="M178.237,451.969c0.857-0.111,1.636-0.323,2.505,0.085C179.792,452.302,178.974,452.341,178.237,451.969z"/>
<path fill="#A7A4A5" d="M342.993,374.776c0.008-0.15,0.016-0.299,0.023-0.449c3.971,2.848,5.362,7.43,3.702,12.192
	c-0.14,0.141-0.278,0.139-0.415-0.005c0-0.265,0-0.531,0.001-0.796C347.58,381.351,346.174,377.795,342.993,374.776z"/>
<path fill="#AAA7A7" d="M346.302,386.514c0.138,0.002,0.277,0.003,0.415,0.005c-0.032,0.473-0.168,0.972-0.672,1.034
	c-0.648,0.079-0.731-0.584-0.982-1C345.476,386.54,345.889,386.527,346.302,386.514z"/>
<path fill="#6D6D6D" d="M234.153,397.184c0.239-0.161,0.478-0.323,0.717-0.484c-0.697,2.214-1.11,4.47-0.71,6.784
	c0.102,0.591,0.068,1.751,1.325,1.003c1.544-0.918,2.996-0.589,3.941,0.779c0.869,1.257,0.756,2.711-0.428,3.889
	c-0.308,0.306-0.454,0.664-0.484,1.083c-0.27,0.195-0.521,0.193-0.748-0.07l0.008,0.006c-0.519-0.613-0.04-0.898,0.394-1.198
	c1.482-1.078,1.804-2.289,0.425-3.696c-0.716-0.168-1.33-0.838-2.162-0.445c-0.242,0.148-0.484,0.297-0.726,0.445
	c-0.859,1.085-1.521,0.98-1.995-0.325c-0.967-2.661-0.801-5.257,0.433-7.795L234.153,397.184z"/>
<path fill="#BBB8B8" d="M237.766,410.167c0.249,0.023,0.499,0.047,0.748,0.07c4.024,2.327,7.939,1.983,11.767-0.482
	c0.183,0.024,0.366,0.048,0.549,0.072C247.24,413.046,240.786,413.213,237.766,410.167z"/>
<path fill="#D6D5D5" d="M234.144,397.159c-0.561,2.443-1.18,4.854-0.316,7.395c0.408,1.2,0.924,1.33,1.878,0.725
	c-0.146,0.725-0.235,1.714-1.061,1.741c-0.671,0.022-0.873-0.975-1.074-1.585C232.638,402.612,232.234,399.797,234.144,397.159z"/>
<path fill="#BBB8B8" d="M238.168,408.975c-0.131,0.399-0.263,0.799-0.394,1.198c-0.396-0.106-0.768-0.339-0.693-0.758
	C237.189,408.81,237.747,408.99,238.168,408.975z"/>
<path fill="#D6D5D5" d="M236.431,404.834c0.872-0.584,1.548-0.223,2.162,0.445C237.872,405.131,237.152,404.983,236.431,404.834z"/>
<path fill="#7F4409" d="M467.187,533.874c0.694,0.081,1.288,0.478,1.033,1.164c-0.316,0.851,0.111,2.349-1.349,2.373
	c-1.126,0.019-0.965-1.078-0.985-1.876C465.864,534.633,466.07,533.903,467.187,533.874z"/>
<path fill="#915514" d="M469.679,549.891c-0.391-0.705-0.812-7.183-0.541-8.02C469.966,544.489,470.171,547.162,469.679,549.891z"/>
<path fill="#504E31" d="M202.624,375.48c3.619-2.434,7.917-3.449,11.687-5.584c1.214-0.687,2.398-1.536,3.844-1.755
	c-0.728,1.559-2.596,1.422-3.67,2.467c-0.472,0.434-1.113,0.517-1.657,0.8c-3.118,1.373-6.237,2.746-9.355,4.119
	C203.19,375.511,202.907,375.496,202.624,375.48z"/>
<path fill="#231F20" d="M225.066,364.436c2.398-1.737,2.656-4.647,3.742-7.065c2.722-6.056,5.418-12.116,8.379-18.066
	c3.326-6.684,6.843-13.258,10.551-19.731c3.535-6.172,7.187-12.274,11.161-18.182c1.395-2.074,2.705-4.194,4.527-5.935
	c-0.983,2.634-3.206,4.45-4.527,6.861c-2.064,3.766-4.893,7.09-6.457,11.146c-1.741,1.219-2.387,3.271-3.333,4.962
	c-3.75,6.708-7.652,13.343-10.937,20.305c-2.555,5.416-5.182,10.798-7.684,16.238c-1.094,2.379-2.045,4.834-2.888,7.313
	c-0.457,1.343-1.165,2.225-2.514,2.601c-0.136-0.094-0.185-0.191-0.145-0.293C224.981,364.488,225.023,364.436,225.066,364.436z"/>
<path fill="#231F20" d="M263.406,295.473c4.126-5.704,10.543-10.574,18.5-8.424c3.749,1.013,7.034,3.131,10.151,5.433
	c6.429,4.749,12.238,10.258,18.518,15.191c0.745,0.585,1.507,1.147,2.261,1.72c0.243,0.216,0.664,0.352,0.367,0.812
	c-2.648-1.164-4.559-3.331-6.795-5.049c-5.776-4.44-10.92-9.667-17.015-13.712c-3.106-2.061-6.389-3.833-10.18-4.015
	c-4.599-0.222-8.555,1.495-11.971,4.58C265.963,293.162,264.973,294.64,263.406,295.473z"/>
<path fill="#7D7B41" d="M313.202,310.205c-0.122-0.271-0.244-0.542-0.367-0.812c0.274,0.001,0.548,0.002,0.822,0.003
	c0.499,0.15,1.066,0.209,1.18,0.877c0.484,0.785,1.389,1.022,2.052,1.575c3.376,1.458,6.283,3.733,9.509,5.457
	c5.512,2.945,10.834,6.235,16.409,9.07c0.767,0.39,1.641,0.712,2.039,1.602c0.019,0.209-0.039,0.395-0.162,0.563
	c-0.919-0.513-2.111-0.363-2.898-1.195c-0.496-0.344-1.173-0.354-1.579-0.861l0.016,0.014c-0.624-0.511-1.505-0.592-2.052-1.232
	l0.005,0.012c-0.558-0.267-1.207-0.347-1.665-0.816c-0.433-0.262-0.865-0.524-1.298-0.787c-1.244-0.601-2.502-1.18-3.596-2.044
	l-0.001-0.001c-0.517-0.325-1.188-0.357-1.617-0.849l0.013,0.011c-1.152-0.819-2.551-1.182-3.701-2.004
	c-0.418-0.277-0.836-0.554-1.254-0.831c-0.812-0.39-1.677-0.676-2.416-1.212c-0.26-0.144-0.521-0.288-0.781-0.432
	c-0.481-0.766-1.35-0.867-2.077-1.211c-1.51-1.089-3.019-2.178-4.529-3.267c-0.538-0.367-0.959-0.895-1.579-1.149
	C313.517,310.526,313.36,310.366,313.202,310.205z"/>
<path fill="#231F20" d="M326.312,318.787c1.366,0.423,2.696,0.913,3.7,2.004C328.666,320.332,327.204,320.086,326.312,318.787z"/>
<path fill="#231F20" d="M322.642,316.744c0.921,0.175,1.752,0.527,2.416,1.212C324.058,317.94,323.189,317.663,322.642,316.744z"/>
<path fill="#231F20" d="M319.783,315.102c0.94-0.022,1.753,0.175,2.077,1.211C321.149,315.942,320.334,315.749,319.783,315.102z"/>
<path fill="#231F20" d="M313.675,310.686c0.852-0.064,1.232,0.52,1.579,1.149C314.473,311.802,314.057,311.267,313.675,310.686z"/>
<path fill="#231F20" d="M329.999,320.78c0.634,0.103,1.192,0.348,1.617,0.849c-0.407-0.001-0.814-0.001-1.22-0.002
	C330.264,321.344,330.131,321.062,329.999,320.78z"/>
<path fill="#7E7D42" d="M344.684,328.539c0.003-0.143,0.005-0.287,0.008-0.43c1.606-0.362,2.874,0.56,4.135,1.238
	c2.388,1.283,4.925,1.809,7.582,1.874c4.19,0.103,8.384-0.116,12.574,0.107c1.225,0.634,2.827-0.123,3.909,1.049
	c-0.033,0.111-0.065,0.222-0.098,0.334c-5.043-0.654-10.11-0.446-15.171-0.428c-1.755,0.006-3.498-0.089-5.224-0.42
	C349.574,331.342,347.156,329.879,344.684,328.539z"/>
<path fill="#231F20" d="M331.617,321.63c1.284,0.532,2.573,1.055,3.597,2.044C333.763,323.435,332.472,322.915,331.617,321.63z"/>
<path fill="#231F20" d="M338.171,325.264c0.813,0.196,1.573,0.48,2.052,1.232C339.441,326.249,338.373,326.478,338.171,325.264z"/>
<path fill="#231F20" d="M340.207,326.483c0.639,0.081,1.17,0.359,1.579,0.861C341.085,327.376,340.465,327.262,340.207,326.483z"/>
<path fill="#231F20" d="M336.511,324.46c0.653,0.073,1.206,0.348,1.665,0.816C337.45,325.354,336.822,325.231,336.511,324.46z"/>
<path fill="#504E31" d="M225.066,364.436c0.007,0.149,0.014,0.299,0.02,0.448c-0.14,0.121-0.28,0.241-0.421,0.362
	c-1.881,1.057-3.685,2.272-5.81,2.828c0.137-0.771,0.738-1.147,1.373-1.311C222.003,366.303,223.325,364.937,225.066,364.436z"/>
<path fill="#211D1F" d="M212.827,371.408c0.453-0.472,1-0.751,1.657-0.8C214.166,371.358,213.535,371.463,212.827,371.408z"/>
<path fill="#C4C6C6" d="M297.765,339.656c0.795-0.147,1.584-0.356,2.385-0.423c0.908-0.076,1.589,0.36,1.843,1.264
	c0.269,0.957,0.02,1.846-0.924,2.213c-1.045,0.407-1.801,0.813-1.623,2.141c0.09,0.668-0.445,1.091-1.057,1.336
	c-0.854,0.341-1.011-0.349-1.325-0.859c-0.21-0.342-0.72-0.625-0.73-0.946c-0.124-3.836-3.511-3.389-5.745-4.251
	c-1.522-0.587-3.175,1.449-2.832,3.13c0.243,1.193,0.493,2.391,0.627,3.599c0.106,0.955,0.084,1.953-1.191,2.218
	c0.024-1.957-0.378-3.876-0.519-5.819c-0.076-0.87-0.503-1.767,0.182-2.583c0.187-0.235,0.408-0.435,0.647-0.615
	c3.445-2.379,7.417-0.849,10.438,4.188c0.421-1.065,0.844-1.975,1.961-2.342c0.802-0.263,0.613-0.779-0.077-1.083
	c-0.586-0.258-1.201-0.182-1.807-0.066c-1.034,0.198-2.006,0.088-2.969-0.389c-3.29-1.628-3.716-2.814-2.028-6.068
	c1.048-2.021,1.654-3.967,0.169-6.104c-0.646-0.929-0.885-2.126-1.137-3.261c-0.084-0.64,0.045-1.238,0.35-1.802
	c0.347-0.569,0.783-1.003,1.513-0.984c0.215,0.032,0.398,0.128,0.547,0.287c-1.38,1.148-1.487,2.321-0.564,3.949
	c1.782,3.142,2.06,6.393-0.23,9.509c-0.836,1.138-0.202,1.902,0.713,2.505C295.403,339.075,296.267,340.245,297.765,339.656z"/>
<path fill="#CBCBCC" d="M294.462,322.439c-0.146-0.01-0.291-0.021-0.437-0.031c0.039-1.419,1.226-1.91,2.126-2.634
	c0.527-0.532,1.164-0.714,1.894-0.602c0.131,0.014,0.261,0.041,0.391,0.068c0.849,0.18,1.934,0.508,2.181-0.619
	c0.266-1.212-1.022-1.104-1.759-1.409c-1.115-0.168-1.453-1.27-2.382-2.049c0.072,1.194,0.651,2.055,0.742,3.018
	c0.005,0.194-0.023,0.382-0.083,0.567c-0.227,0.451-0.686,0.662-1.03,0.991c-0.81,0.501-1.506,1.21-2.498,1.386
	c-0.307,0.004-0.58-0.077-0.783-0.324c2.841-1.539,3.171-4.002,2.509-6.828c0.129-0.035,0.257-0.087,0.388-0.104
	c0.765-0.1,6.15,3.313,6.351,4.02c0.38,1.336-1.177,3.461-2.22,2.843C297.176,319.146,296.143,321.579,294.462,322.439z"/>
<path fill="#E8EAE9" d="M287.109,343.25c0.006,1.943,1.14,3.87,0.084,5.828c0.012,0.107-0.008,0.208-0.059,0.303
	c-0.589,0.399-1.28,0.529-1.94,0.742c-0.933,0.14-1.872-0.472-2.804,0.02c-0.581,0.157-1.01,0.614-1.578,0.797
	c-1.401,0.369-2.79-0.856-4.195-0.028c-0.962,0.382-1.873,1.032-2.995,0.566c-0.394-0.167-0.361-0.526-0.387-0.858
	c-0.06-1.607-0.142-3.213-0.178-4.821c-0.042-1.925-0.57-2.344-2.65-2.121l0.001,0c-0.771,0.432-1.319,1.139-2.03,1.644l0,0
	c-0.361,0.189-0.667,0.457-0.993,0.697c-3.011,2.223-2.711,1.895-1.467,4.987l0,0c-0.535,1.136-1.172,1.969-2.474,0.837
	c-0.62-1.495-1.318-2.843-3.105-3.34c-0.658-0.183-1.685-0.735-1.101-1.785c0.474-0.853,1.422-1.115,2.297-0.679
	c1.309,0.651,2.325,0.481,3.17-0.708c2.548-1.593,2.767-2.48,1.254-4.76c-0.365-0.549-0.586-1.193-0.873-1.793
	c-0.317-1.239-1.721-2.316-0.561-3.774c1.165,1.2,2.069,2.649,3.319,3.754c1.715,1.516,3.907,1.761,6.076,1.764
	c1.106,0.001,1.796,0.144,2.472,1.207c0.796,1.252,2.112,2.08,3.8,1.631c0.568-0.209,0.771-0.62,0.661-1.207
	c0.357-0.861,0.348-1.852,0.939-2.628c0.331-0.335,0.929,0.564,0.841,0.085c-0.321-1.754,0.653-1.636,1.766-1.455
	c0.664,0.108,1.369,0.064,1.959,0.484c0.701,0.914-0.043,1.868,0.078,2.799C286.598,342.065,286.865,342.653,287.109,343.25z"/>
<path fill="#9A9F9F" d="M285.173,349.822c0.654-0.147,1.307-0.294,1.961-0.441c-0.158,0.245-0.316,0.489-0.474,0.733
	c-3.107,0.071-5.986,1.888-9.251,1.051c-1.181-0.303-2.401,1.403-3.787,0.314c1.067,0.054,2.018-0.282,2.895-0.864
	c1.467-0.881,2.941,0.692,4.408-0.011c0.439-0.277,0.878-0.554,1.316-0.832C283.23,349.13,284.186,350.363,285.173,349.822z"/>
<path fill="#E8EAE9" d="M293.654,320.832c0.777-0.498,1.447-1.206,2.457-1.244c0.124,0.091,0.165,0.183,0.126,0.277
	c-0.04,0.093-0.08,0.14-0.121,0.14c-0.696,0.801-1.393,1.602-2.09,2.403c-0.57,0.058-0.985,0.341-1.242,0.854
	c-0.61,0.427-0.734,0.967-0.376,1.619c0.786,1.634,1.279,3.375,2.172,4.995c0.845,1.531-0.476,3.071-1.01,4.557
	c-0.421,1.17-1.941,2.296-0.811,3.537c1.379,1.514,2.996,3.115,5.444,2.198c0.799-0.299,1.447,0.037,2.155,0.231
	c0.574,0.158,1.034,0.422,0.987,1.086c-0.047,0.658-0.541,0.843-1.121,0.962c-0.839,0.172-1.877,0.203-1.361,1.6
	c0.186,0.502-0.077,0.983-0.621,1.086c-0.546,0.104-1.026-0.382-1.081-0.757c-0.541-3.703-3.706-3.933-6.324-5.011
	c-1.556-0.641-2.091,1.039-3.278,1.045c-1.052,0.302-1.248-0.167-0.778-0.979c0.329-0.568,0.93-0.976,1.008-1.701
	c2.01-1.362,3.631-2.99,4.205-5.489c0.234-1.018,0.121-1.839-0.452-2.688c-1.848-2.739-4.941-3.114-7.29-0.848
	c-1.894,1.827-3.102,4.1-4.208,6.446c-0.75,1.591-1.005,1.619-2.249,0.317c-1.59-1.664-3.09-3.33-5.44-4.106
	c-2.95-0.975-3.654-0.881-5.288,1.821c-0.68,1.304-0.68,1.304-2.577,1.364c-0.428-1.524,1.182-2.627,0.813-4.219
	c-0.165-0.711-0.146-1.583-0.012-2.376c1.033-0.611,0.842,0.579,1.388,0.943c0.569-0.459,0.723-1.324,1.472-1.711
	c0.789-0.408-0.351-0.401-0.257-0.718c1.728-0.918,2.955-2.59,4.863-3.238c2.906-1.02,5.888-1.257,8.931-0.861
	c0.134,0.017,0.288,0.094,0.396,0.03c2.587-1.517,5.075-0.17,7.595,0.248c0.269,0.045,0.534,0.001,0.71-0.252l-0.037,0.019
	C291.365,321.704,292.376,320.987,293.654,320.832z"/>
<path fill="#E9EBEB" d="M267.892,326.464c0.457,0.053,0.914,0.106,1.513,0.176c-0.659,1.145-2.215,1.432-2.28,2.884
	c-0.008,0.172-0.513,0.45-0.789,0.451c-0.443,0.001-0.381-0.455-0.416-0.772c-0.056-0.512,0.13-1.102-0.482-1.425
	c-1.696,0.365-2.923-0.905-4.41-1.266c-0.948-0.478-1.809-0.703-2.76,0.153c-0.798,0.718-1.832,0.583-2.54-0.184
	c-0.787-0.854-0.984-1.87-0.003-2.806c0.123-0.021,0.248-0.033,0.373-0.034c1.447,0.163,2.043-0.554,2.067-1.937
	c0.013-0.706-0.19-1.485,0.474-2.05c0.705-0.209,1.457-0.765,1.991,0.273c0.271,0.508,0.311,1.101,0.08,1.56
	c-0.98,1.949,0.142,3.107,1.683,3.58c1.808,0.555,3.328,2.469,5.544,1.396L267.892,326.464z"/>
<path fill="#E6E7E8" d="M290.387,322.391c-1.367,1.022-2.672-0.109-3.999-0.184c-1.22-0.069-2.367-0.44-3.369,0.599
	c-0.212,0.22-0.722,0.466-0.893,0.363c-1.597-0.962-3.258-0.006-4.665-0.177c-1.682-0.205-3.147,0.395-4.706,0.235
	c1.069-0.767,2.249-1.12,3.571-1.31C281.052,321.238,285.737,321.095,290.387,322.391z"/>
<path fill="#E8EAE9" d="M267.936,326.463c-2.129,1.784-3.675-0.45-5.382-0.944c-2.341-0.677-2.587-1.663-2.05-4.19
	c0.097-0.455,0.086-0.933,0.125-1.401c0.396,0.365,0.457,0.874,0.297,1.3c-0.859,2.285,0.552,3.163,2.314,3.819
	C264.775,325.617,266.103,326.882,267.936,326.463z"/>
<path fill="#9F9F9F" d="M258.639,319.655c-0.026,0.862-0.017,1.727-0.085,2.586c-0.129,1.641-0.813,2.38-2.456,1.401
	c2.23-0.545,1.274-2.748,2.095-4.026C258.341,319.629,258.49,319.642,258.639,319.655z"/>
<path fill="#E6E7E8" d="M293.654,320.832c-1.101,0.526-2.203,1.052-3.304,1.578c0.16-0.255,0.32-0.51,0.48-0.764
	c0.665-0.282,1.33-0.563,1.994-0.845C293.101,320.811,293.378,320.822,293.654,320.832z"/>
<path fill="#9A9F9F" d="M270.407,343.678c1.346-0.884,2.56-0.446,2.695,0.975c0.186,1.962,0.884,3.969,0.132,5.967
	c-0.721-1.378-0.468-2.88-0.415-4.311C272.887,344.502,272.162,343.685,270.407,343.678z"/>
<path fill="#9A9F9F" d="M265.918,351.006c-1.906-2.89-1.362-4.147,2.46-5.685c-0.149,0.209-0.252,0.508-0.455,0.613
	C265.773,347.05,264.874,348.639,265.918,351.006z"/>
<path fill="#9A9F9F" d="M268.378,345.322c0.464-0.81,0.962-1.579,2.03-1.644C269.905,344.44,269.334,345.118,268.378,345.322z"/>
<path fill="#BEBE59" d="M387.953,336.313c0.977,0.167,1.109,0.911,1.165,1.707c-1.623-1.079-3.246-2.158-4.869-3.237
	c-1.739-0.926-3.878-0.815-5.476-2.109c0.024-0.338,0.206-0.576,0.476-0.761c2.599-0.649,4.64,0.603,6.649,1.958
	c0.082,0.773-0.773,0.162-0.951,0.762C385.847,335.307,386.8,335.972,387.953,336.313z"/>
<path fill="#BCBC59" d="M378.961,332.647c1.654,0.98,3.805,0.731,5.288,2.136c-2.528-0.21-4.763-1.659-7.323-1.732
	c-0.065-0.236-0.002-0.43,0.188-0.584C377.77,332.113,378.391,332.123,378.961,332.647z"/>
<path fill="#7E7D42" d="M376.892,332.671c0.007,0.127,0.018,0.253,0.033,0.379c-1.377-0.111-2.797,0.296-4.131-0.34
	c0,0,0.078-0.115,0.078-0.115c1.222-0.781,2.491-0.592,3.771-0.184C376.727,332.497,376.81,332.584,376.892,332.671z"/>
<path fill="#B4B6B6" d="M261.028,326.513c1.605-0.049,2.844,1.181,4.411,1.265c0.462,2.38,0.37,4.7-0.75,6.908
	c0.091,0.088,0.118,0.172,0.082,0.253c-0.036,0.079-0.07,0.119-0.103,0.119c-1.1,1.379,0.778,2.424,0.417,3.72
	c-0.146,0.028-0.291,0.055-0.437,0.083c-1.018-2.194-1.047-4.402-0.282-6.699c1.157-3.471,1.107-3.478-2.176-4.883
	C261.771,327.1,261.414,326.772,261.028,326.513z"/>
<path fill="#BCBC59" d="M385.898,333.871c-2.111-0.807-4.129-1.981-6.529-1.632c-2.581-0.416-5.185-0.637-7.791-0.57
	c-1.003,0.026-1.801-0.478-2.751-0.574c-4.317-0.435-8.637,0.098-12.955-0.159c-2.27-0.135-4.413-0.537-6.465-1.504
	c-8.651-4.078-16.838-9.021-25.233-13.576c-1.06-0.575-2.656-0.962-2.351-2.798c3.13,1.715,6.253,3.442,9.391,5.141
	c4.896,2.652,9.775,5.337,14.715,7.904c2.579,1.34,5.416,2.357,8.278,2.298c2.106-0.044,4.244-0.011,6.363-0.104
	c3.058-0.134,6.152,0.024,9.2,0.349c3.138,0.335,6.291,0.817,9.339,1.614C381.59,330.909,384.139,331.726,385.898,333.871z"/>
<path fill="#C2C25A" d="M321.822,313.058c0.913,1.938,2.936,2.35,4.551,3.335c4.735,2.889,9.576,5.634,14.486,8.161
	c4.302,2.215,8.429,5.283,13.438,5.672c2.269,0.176,4.608,0.317,6.95,0.236c3.122-0.109,6.35-0.58,9.533,0.623
	c1.079,0.408,2.818,0.507,4.085,0.177c1.484-0.387,2.639,0.685,4.002,0.386c0.118-0.026,0.332,0.384,0.502,0.591
	c-0.136,0.136-0.272,0.272-0.408,0.408c-0.689,0.008-1.379,0.016-2.068,0.024c0,0,0.021,0.001,0.021,0.001
	c-2.573-0.373-5.16-0.622-7.75-0.833c-3.801,0.01-7.609-0.118-11.402,0.065c-4.831,0.233-8.899-1.895-13.069-3.794
	c-5.366-3.002-10.741-5.989-16.097-9.01c-4-2.257-8.093-4.369-11.706-7.252c0.589-0.02,1.22,0.022,1.261-0.831
	c0.134-0.141,0.269-0.148,0.403-0.001c0.018,0.529,0.289,0.804,0.821,0.817c0.611,0.525,1.414,0.729,2.043,1.224
	C321.552,313.057,321.687,313.057,321.822,313.058z"/>
<path fill="#C2C25A" d="M314.837,310.272c-0.393-0.292-0.787-0.585-1.18-0.877c0.002-0.14,0.003-0.28,0.005-0.42
	c0.242,0.033,0.559,0.181,0.714,0.08c0.788-0.51,1.372-0.031,1.518,0.552C316.053,310.244,314.922,309.578,314.837,310.272z"/>
<path fill="#C2C25A" d="M311.211,306.937c-0.785-0.087-1.107-0.79-1.633-1.223c0.054-0.845,0.553-0.56,0.946-0.333
	C311.109,305.72,311.691,306.107,311.211,306.937z"/>
<path fill="#BCBC59" d="M321.417,313.057c-0.842-0.14-1.61-0.402-2.043-1.224C320.215,311.974,320.983,312.237,321.417,313.057z"/>
<path fill="#BCBC59" d="M318.553,311.015c-0.134,0.001-0.269,0.001-0.403,0.001c-0.382-0.039-0.779-0.051-0.996-0.617
	C317.815,310.244,318.188,310.62,318.553,311.015z"/>
<path fill="#C3C35A" d="M230.813,350.605c-0.137,0-0.274,0-0.411-0.001c0.609-2.356,1.709-4.515,2.752-6.687
	c2.998-6.246,6.222-12.373,9.567-18.444c5.729-10.4,11.589-20.722,18.711-30.237c2.392-3.196,5.419-5.839,8.861-8.108
	c2.429-1.602,5.004-1.759,7.544-2.472c0.377-0.106,0.859-0.293,0.923,0.339c0.039,0.386-0.33,0.587-0.661,0.653
	c-0.859,0.172-1.724,0.319-2.592,0.435c-3.363,0.448-6.066,2.225-8.456,4.44c-6.733,6.239-11.173,14.141-15.785,21.931
	c-2.926,4.941-5.908,9.848-8.615,14.911c-2.674,4.999-5.25,10.049-7.797,15.115C233.495,345.181,232.672,348.157,230.813,350.605z"
	/>
<path fill="#C2C25D" d="M285.092,287.344c-1.971-0.35-3.657-1.805-6.344-1.075C281.025,284.515,284.433,285.395,285.092,287.344
	L285.092,287.344z"/>
<path fill="#E5E5E5" d="M318.525,490.153c-7.262,2.186-14.515,4.399-21.498,7.392c-5.601,2.401-11.184,4.844-16.775,7.268
	c-0.716-0.427-0.889-1.129-1.043-1.887c-3.083-15.227-6.093-30.469-9.145-45.701c-0.151-0.754-0.253-1.486,0.392-2.084
	c8.028-1.212,15.511,0.65,22.652,4.16c7.924,3.895,15.429,8.522,22.784,13.395c0.273,0.181,0.479,0.463,0.717,0.697
	c0.988,1.648,0.86,3.541,1.062,5.332c0.385,3.428,0.984,6.834,1.126,10.289C318.813,489.429,318.846,489.827,318.525,490.153z"/>
<path fill="#E5E5E5" d="M242.202,475.88c5.919-8.996,13.228-16.316,23.8-19.678c1.027-0.327,2.1-0.511,3.151-0.761
	c0.814-0.025,0.731,0.612,0.842,1.122c1.436,6.649,2.709,13.331,4.048,19.999c1.711,8.521,3.486,17.03,5.137,25.563
	c0.194,1.004,0.802,2.045,0.147,3.111c-8.81,4.001-17.62,8.003-26.43,12.004c-1.078-0.082-1.204-0.962-1.4-1.732
	c-3.156-12.403-6.199-24.834-9.335-37.242C241.963,477.481,241.825,476.669,242.202,475.88z"/>
<path fill="#E5E5E5" d="M251.558,517.872c-3.005,1.229-5.928,2.66-9.118,3.421c-1.618,0.386-3.092,0.191-4.532-0.544
	c-0.724-0.369-1.39-0.889-2.148-1.149c-4.401-1.507-5.326-5.024-5.271-9.071c0.094-6.871,1.804-13.414,4.185-19.806
	c1.708-4.584,3.872-8.951,6.376-13.151c1.385-0.491,1.17,0.755,1.336,1.356c1.094,3.962,2.05,7.961,3.045,11.948
	c2.024,8.105,4.035,16.213,6.059,24.319C251.697,516.022,252.401,516.966,251.558,517.872z"/>
<path fill="#E5E5E5" d="M317.735,473.87c6.187,4.233,13.09,5.719,20.484,5.387c5.257-0.236,10.244,0.86,14.971,3.166
	c0.731,0.356,1.468,0.691,2.007,1.33c0.369,1.486,0.573,2.959-0.359,4.337c-11.675-2.136-23.179-0.914-34.608,1.765
	c-1.337,0.303-1.52-0.76-1.592-1.568c-0.401-4.492-1.067-8.952-1.522-13.436C317.071,474.398,316.977,473.847,317.735,473.87z"/>
<path fill="#616161" d="M279.326,505.237c-3.261-16.37-6.521-32.74-9.794-49.107c-0.049-0.245-0.249-0.46-0.379-0.689
	c0.381-0.328,0.836-0.338,1.302-0.301c0.231,3.945,1.343,7.736,2.088,11.586c2.372,12.251,4.87,24.479,7.325,36.714
	c0.093,0.464,0.254,0.915,0.383,1.372C279.943,504.954,279.634,505.095,279.326,505.237z"/>
<path fill="#606060" d="M251.558,517.872c-0.849-5.072-2.37-9.983-3.592-14.966c-1.932-7.881-3.915-15.749-5.939-23.606
	c-0.153-0.592,0.186-1.642-0.978-1.727c0.384-0.564,0.768-1.128,1.152-1.692c1.976,8.017,3.94,16.037,5.931,24.05
	c1.273,5.125,2.583,10.241,3.883,15.359c0.178,0.699,0.13,1.508,0.881,1.951C252.45,517.451,252.004,517.661,251.558,517.872z"/>
<path fill="#E1E1E1" d="M356.108,484.106c3.306,1.813,6.159,4.177,8.653,7.029c-2.93-1.384-6.105-1.866-9.064-2.993
	C354.961,486.708,355.321,485.386,356.108,484.106z"/>
<path fill="#646464" d="M317.735,473.87c-0.343,1.807,0.161,3.557,0.357,5.329c0.312,2.825,0.574,5.657,0.955,8.472
	c0.11,0.814-0.273,2.043,1.184,2.184c-0.484,0.584-1.124,0.276-1.706,0.298c-0.741-5.575-1.494-11.149-1.917-16.76
	C317.026,473.451,317.472,473.445,317.735,473.87z"/>
<path fill="#737373" d="M356.108,484.106c-0.137,1.345-0.274,2.691-0.411,4.036c-0.286-0.017-0.573-0.035-0.859-0.052
	c0.16-1.442-0.055-2.916,0.359-4.337C355.574,483.682,355.885,483.781,356.108,484.106z"/>
<path fill="#BCBC59" d="M369.163,331.839c2.634-0.196,5.215,0.104,7.75,0.833c-1.347-0.025-2.695-0.05-4.042-0.075
	C371.745,331.811,370.291,332.625,369.163,331.839z"/>
<path fill="#E6E8E8" d="M287.948,337.952c0.743,0.997-0.321,1.184-0.755,1.616c-0.657,0.655-0.126,0.722,0.365,0.84
	c-0.135,0.136-0.27,0.272-0.405,0.408c-0.379,0.166-0.591,0.504-0.837,0.808c-1.014-0.953,0.249-1.907,0-2.861
	C286.491,337.754,287.174,337.763,287.948,337.952z"/>
<path fill="#E5E8E8" d="M286.315,341.626c0.018-0.54,0.296-0.81,0.837-0.808c-0.67,0.799,0.088,1.624-0.044,2.433
	C286.603,342.826,286.378,342.266,286.315,341.626z"/>
<path fill="#E6E7E8" d="M292.408,324.88c-0.518-0.69-0.689-1.298,0.377-1.619C292.659,323.801,292.534,324.341,292.408,324.88z"/>
<path fill="#E5E7E7" d="M298.947,316.781c0.458,0.112,0.914,0.233,1.374,0.333c0.794,0.171,1.201,0.656,1.059,1.458
	c-0.145,0.817-0.691,1.298-1.519,1.419c-0.638,0.093-1.205-0.122-1.735-0.457c-0.296-0.436-1.345,0.291-1.222-0.791
	c0.001-0.127,0.007-0.253,0.018-0.38C297.451,317.647,298.001,316.96,298.947,316.781z"/>
<path fill="#E6E6E7" d="M298.947,316.781c-0.734,0.451-0.943,1.574-2.024,1.581c-0.313-0.893-0.625-1.787-0.94-2.679
	c-0.154-0.436-0.489-0.959,0.093-1.246c0.629-0.31,0.972,0.201,1.268,0.688C297.751,315.797,297.922,316.706,298.947,316.781z"/>
<path fill="#E6E6E7" d="M296.905,318.742c0.408,0.264,0.815,0.528,1.223,0.791c-0.712-0.018-1.4,0.064-2.012,0.471
	c-0.001-0.139-0.003-0.278-0.005-0.417C296.376,319.306,296.64,319.024,296.905,318.742z"/>
<path fill="#F0F1F1" d="M287.948,337.952c-0.544,0.271-1.089,0.542-1.633,0.812c-1.076,0.078-2.132-0.031-3.104-0.368
	c-0.375,0.225-0.252,0.474-0.172,0.726c0.207,0.656,0.934,1.558-0.019,1.91c-1.131,0.418-0.469-1.185-1.168-1.453
	c-0.624-0.084-0.913-0.545-1.176-1.036c-0.205-0.459-0.449-0.872-1.039-0.88c-0.436-0.026-0.853,0.113-1.282,0.142
	c-0.547-0.008-0.87-0.339-1.063-0.795c-0.89-2.1-2.748-3.251-4.441-4.567c-1.441-1.121-2.844-0.968-4.231,0.102
	c-0.475,0.367-0.865,0.857-1.473,1.037c-0.32-0.034-0.587-0.11-0.421-0.529c1.257-2.95,2.659-3.516,5.467-2.207
	c3.808,1.775,3.826,1.789,6.851,5.272c1.355-3.006,2.768-5.905,5.201-8.152c1.971-1.82,3.818-1.897,6.567-0.139
	c1.47,0.94,2.032,3.177,1.476,5.15C291.617,335.355,290.153,336.957,287.948,337.952z"/>
<path fill="#ECEEEE" d="M266.725,333.055c0.135,0.135,0.27,0.271,0.404,0.406c0.736,0.703,0.474,1.637,0.573,2.486
	c0.223,1.915,1.22,2.96,3.135,3.054c1.606,0.079,3.223,0.208,4.783-0.502c0.755-0.344,1.742-0.747,2.097,0.612
	c0.024,0.198,0.021,0.399-0.005,0.598c-0.102,0.778-0.667,1.6,0.224,2.279c0.15,0.077,0.298,0.16,0.448,0.236
	c0.369,0.18,0.789,0.275,1.066,0.61c-0.025,0.836,0.971,0.276,1.152,0.835c-1.8,0.653-4.188-0.17-4.829-1.867
	c-0.33-0.874-0.606-0.895-1.436-0.77c-4.18,0.629-8.916-2.347-9.669-5.971c-0.011-0.125-0.004-0.249,0.021-0.372
	C265.816,334.702,266.179,333.764,266.725,333.055z"/>
<path fill="#B6B9B9" d="M278.493,337.528c0.341-0.392,0.813-0.345,1.261-0.375c0.548,0.275,0.948,0.7,1.246,1.227
	c0.284,0.4,0.567,0.8,0.851,1.2c0.164,1.088-0.072,2.049-0.895,2.825c-0.139,0.185-0.319,0.312-0.54,0.381
	c-0.778,0.046-1.526-0.113-2.264-0.342l-0.002-0.001c-0.052-0.076-0.104-0.153-0.157-0.228c0.047-0.181,0.154-0.319,0.31-0.42
	c0.686-0.341,1.553-0.062,2.171-0.633c0.103-0.127,0.2-0.256,0.279-0.396c0.218-0.554-0.075-0.952-0.402-1.339
	c-0.471-0.67-1.249-0.929-1.868-1.401C278.389,337.859,278.393,337.692,278.493,337.528z"/>
<path fill="#F6F7F6" d="M280.601,342.464c0.118-0.028,0.236-0.047,0.356-0.059c0.281,0.094,0.754,0.057,0.664,0.494
	c-0.099,0.479-0.644,0.552-1.019,0.769c-0.552-0.092-1.153,0.206-1.645-0.22c-0.013-0.011,0.282-0.379,0.434-0.58
	C279.703,342.457,280.276,342.831,280.601,342.464z"/>
<path fill="#E5E8E8" d="M280.925,350.604c-1.467,1.017-2.94-0.579-4.408,0.011C277.983,349.49,279.456,350.771,280.925,350.604z"/>
<path fill="#E5E8E8" d="M285.173,349.822c-0.991,0.798-1.952-0.19-2.931-0.049C283.234,348.842,284.197,349.742,285.173,349.822z"/>
<path fill="#E8EAE9" d="M278.493,337.528c0.026,0.146,0.052,0.293,0.078,0.439c0.133,0.127,0.182,0.28,0.151,0.462
	c-0.176,0.505-0.416,0.966-0.883,1.269c-0.175,0.068-0.336,0.038-0.483-0.075c0.12-1.334-0.756-1.09-1.38-0.727
	c-1.377,0.801-2.846,0.701-4.323,0.695c-3.263-0.012-4.508-1.253-4.523-4.511c-0.003-0.54,0-1.079,0-1.619
	c2.339-2.893,3.763-2.988,6.659-0.97C275.755,333.86,277.049,335.736,278.493,337.528z"/>
<path fill="#B2B7B7" d="M282.271,333.087c0.831-3.021,3.053-4.999,5.588-4.976c2.029,0.018,3.382,1.41,3.369,3.463
	c-0.021,3.127-2.399,5.321-6.015,5.536c-0.472,0.028-0.947-0.009-1.42-0.006c-1.035,0.006-2.257,0.026-2.624-1.069
	c-0.363-1.084-0.03-2.249,1.102-2.946c0.043,0.053,0.117,0.101,0.124,0.159c0.342,2.628,0.774,2.919,3.581,2.404
	c3.092-0.568,4.234-1.873,3.859-4.409c-0.224-1.515-1.035-2.102-2.558-1.855c-1.435,0.232-2.455,1.058-3.287,2.207
	C283.542,332.213,283.341,333.165,282.271,333.087z"/>
<path fill="#E8EAE9" d="M281.001,338.38c-0.415-0.409-0.831-0.818-1.246-1.227C280.571,337.155,280.975,337.575,281.001,338.38z"/>
<path fill="#E8EAE9" d="M278.077,342.12c0.032,0.106,0.057,0.213,0.074,0.323c-2.015-0.226-1.299-1.382-0.835-2.452
	C277.975,340.556,277.859,341.398,278.077,342.12z"/>
<path fill="#B6B9B9" d="M278.077,342.12c-1.138-0.394-0.633-1.375-0.76-2.129c0.027-0.121,0.04-0.244,0.038-0.368
	c0.133-0.034,0.267-0.044,0.403-0.029c0.606,0.68,0.622,1.484,0.49,2.32C278.192,341.983,278.135,342.052,278.077,342.12z"/>
<path fill="#E8EAE9" d="M280.601,342.464c-0.297,0.455-0.771,0.374-1.21,0.402c-0.449-0.035-0.942,0.061-1.238-0.423
	C278.969,342.45,279.785,342.457,280.601,342.464z"/>
<path fill="#3C4648" d="M278.519,338.29c0-0.111,0.017-0.219,0.052-0.324c0.98-0.122,1.661,0.277,2.057,1.176
	c0.313,0.656,0.907,1.26,0.378,2.069l-0.001,0c-0.846,0.412-1.788,1.073-2.619,0.284
	C277.326,340.491,278.297,339.361,278.519,338.29z"/>
<path fill="#606767" d="M278.519,338.29c0.012,0.131,0.059,0.271,0.03,0.392c-0.569,2.331-1.07,3.289,2.456,2.53
	c-0.667,1.224-1.774,0.721-2.757,0.702c-0.667-0.667-0.349-1.542-0.489-2.321C278.009,339.158,277.98,338.558,278.519,338.29z"/>
<path fill="#606767" d="M281.006,341.212c-0.126-0.69-0.252-1.379-0.378-2.069C281.334,339.727,281.839,340.347,281.006,341.212z"/>
<path fill="#444F4F" d="M272.135,339.14c-2.23-0.147-3.719-0.714-4.312-2.669c-0.464-1.53-0.178-2.784,1.087-3.819
	c1.253-1.025,2.62-0.85,3.788-0.11c1.418,0.899,2.694,2.043,3.728,3.411c0.861,1.139,0.445,1.965-0.734,2.354
	C274.414,338.729,273.063,338.931,272.135,339.14z"/>
<path fill="#414B4C" d="M282.271,333.087c1.111-0.741,1.298-2.181,2.346-3.011c1.3-1.029,2.697-1.709,4.298-1.15
	c1.454,0.508,1.609,1.887,1.535,3.241c-0.098,1.798-0.849,3.118-2.707,3.614c-1.25,0.334-2.502,0.627-3.81,0.611
	c-2.208-0.027-2.492-0.421-1.792-2.509c0.084-0.251,0.088-0.529,0.13-0.794C282.271,333.089,282.271,333.087,282.271,333.087z"/>
<path fill="#4A5455" d="M272.672,336.798c-0.013,0.003-0.518,0.16-1.034,0.262c-0.73,0.145-1.458,0.023-1.553-0.819
	c-0.076-0.676-0.813-1.415-0.078-2.058c0.677-0.593,1.362-0.284,1.988,0.225c0.518,0.421,1.083,0.783,1.597,1.208
	c0.335,0.276,0.981,0.41,0.778,1.021C274.121,337.385,273.599,336.774,272.672,336.798z"/>
<path fill="#485253" d="M284.988,334.664c-0.349-0.085-1.049,0.301-1.3-0.352c-0.207-0.539,0.237-1.023,0.578-1.432
	c0.427-0.513,0.97-0.935,1.359-1.472c0.661-0.911,1.479-1.434,2.596-1.107c0.797,0.233,0.537,1.01,0.526,1.572
	c-0.021,1.142-0.325,2.121-1.631,2.483C286.459,334.538,285.824,334.748,284.988,334.664z"/>
</svg>
