<?xml version="1.0" encoding="utf-8"?>
<!-- Generator: Adobe Illustrator 17.0.0, SVG Export Plug-In . SVG Version: 6.00 Build 0)  -->
<!DOCTYPE svg PUBLIC "-//W3C//DTD SVG 1.1//EN" "http://www.w3.org/Graphics/SVG/1.1/DTD/svg11.dtd">
<svg version="1.1" id="Layer_1" xmlns="http://www.w3.org/2000/svg" xmlns:xlink="http://www.w3.org/1999/xlink" x="0px" y="0px"
	 width="612px" height="792px" viewBox="0 0 612 792" enable-background="new 0 0 612 792" xml:space="preserve">
<path d="M87.93,513.039c-0.82-2.196-1.972-4.222-3.194-6.211c-4.664-9.297-8.811-18.806-12.277-28.628
	c-3.785-10.727-7.181-21.554-9.653-32.663c-0.336-1.51-0.929-2.799-2.741-3.233c-0.736-0.176-1.679-0.486-2.209-1.383
	c0.927-0.255,1.819-0.494,2.708-0.746c0.367-0.104,1.018-0.075,0.941-0.552c-0.37-2.303,1.408-1.608,2.349-1.56
	c6.001,0.302,11.076-2.526,16.358-4.666c9.555-3.824,18.55-8.74,27.357-14.02c8.14-4.88,15.853-10.394,23.408-16.111
	c4.426-3.35,8.503-7.159,12.795-10.692c4.949-4.074,9.514-8.575,14.371-12.759c7.758-6.684,16.231-12.244,24.936-17.514
	c1.078-0.652,0.99-1.026,0.486-1.969c-1.201-2.249-2.249-4.579-3.358-6.877c-0.337-0.414-0.216-0.712,0.235-0.927
	c0.586-0.002,1.069,0.43,1.664,0.392c2.008-0.037,3.945,0.148,5.515,1.626c0.349,0.329,0.823,0.578,1.299,0.272
	c0.546-0.352,0.459-0.928,0.373-1.478c-0.309-1.957-1.032-2.252-2.966-1.814c-1.924,0.436-3.901,0.027-5.836-0.329
	c-1.177-1.1-0.038-1.885,0.508-2.532c1.436-1.703,2.858-3.416,4.244-5.159c0.425-0.44,0.985-0.688,1.482-1.026
	c0.53-0.361,0.98-0.823,0.698-1.498c-0.293-0.701-0.579-1.516-1.588-1.47c-0.095,0.004-0.152,0.204-0.175,0.345
	c-0.115,0.926-0.045,1.882-0.509,2.738c-0.083,0.171-0.183,0.332-0.296,0.485c-1.637,1.783-3.364,3.472-5.246,4.999
	c-0.672,0.295-0.433,1.88-1.758,1.252c-0.153-0.391-0.305-0.782-0.458-1.173c-0.305-0.559-0.53-1.154-0.77-1.742l0.02,0.025
	c-0.192-0.07-0.29-0.207-0.294-0.41c0.265-1.096,1.5-0.885,2.077-1.553c-0.498-2.022,0.779-3.182,2.023-4.441
	c1.822-1.843,3.559-3.79,2.141-6.702c-0.945-2.169-2.535-3.118-4.952-3.055c-2.522,0.066-5.006-0.055-7.059,1.803
	c-0.317,0.287-0.887,0.73-1.31-0.016c-0.633-0.793-0.39-1.995-1.25-2.682c-0.441-0.57-0.415-1.354-0.877-1.914
	c-0.253-0.45-0.505-0.901-0.758-1.351c-0.462-0.899-0.777-1.866-1.282-2.745c-0.119-0.174-0.238-0.347-0.357-0.521
	c-0.454-0.9-0.77-1.865-1.276-2.741c-0.144-0.313-0.287-0.626-0.431-0.939c-0.358-0.451-0.47-1.032-0.794-1.501
	c-0.278-0.588-0.556-1.176-0.834-1.764c-0.402-0.44-0.449-1.065-0.798-1.533c-0.146-0.306-0.292-0.611-0.438-0.917
	c-0.507-0.717-0.754-1.568-1.196-2.318c-0.258-0.449-0.515-0.898-0.773-1.348c-0.535-0.641,0.071-0.994,0.358-1.427
	c3.551-1.638,7.333-2.527,11.17-3.004c7.442-0.926,14.798-0.495,21.811,2.442c5.482,2.296,10.499,5.396,15.138,9.129
	c3.493,2.811,6.959,5.658,10.429,8.495c4.627,3.783,9.718,6.169,15.774,6.213c4.141,0.03,8.257,0.666,12.411,0.471
	c1.436-0.067,2.844-0.229,4.231-0.574c1.48-0.368,2.447-1.173,2.241-2.871c-0.025-2.952,0.828-5.843,0.61-8.812
	c1.432-3.807,4.796-5.604,8.027-7.39c4.065-2.247,8.488-3.558,13.165-3.783c2.37-0.114,4.741-0.027,6.979,0.932
	c1.666,0.714,3.111,1.66,3.658,3.533c0.289,1.056,0.577,2.112,0.866,3.168c0.361,2.041,0.34,4.083,0.015,6.125
	c-0.12,0.097-0.13,0.204-0.032,0.323c-0.17,1.105,0.117,2.271-0.435,3.326l0.015-0.042c-0.404,0.653,0.118,1.474-0.382,2.109
	c-0.823,3.36-1.645,6.72-2.468,10.08c-0.276,1.299-0.512,2.611-1.169,3.792c-0.866,1.234-0.84,2.024,0.937,2.197
	c1.188,0.115,2.36,0.415,3.532,0.666c1.41,0.303,2.294-0.129,3.335-1.289c7.039-7.843,15.001-14.61,24.186-19.854
	c14.128-8.066,29.327-13.036,45.35-15.586c3.867-0.616,7.748-1.145,11.622-1.713c0.7-0.291,1.486,0.057,2.178-0.291
	c0.77-0.04,1.541-0.081,2.311-0.121c0.975-0.324,2.024,0.111,2.991-0.289c1.121-0.084,2.301,0.465,3.223-0.897
	c0.522-0.77,3.875,1.022,3.929,2.055c0.043,0.814,0.032,1.631,0.045,2.446c-0.542,0.53-1.349-0.077-1.894,0.44
	c-2.369,3.879-4.054,8.101-5.998,12.187c-4.503,9.468-8.715,19.069-12.488,28.854c-3.818,9.9-7.286,19.916-9.7,30.27
	c-0.2,0.859-0.175,1.65,0.34,2.299c4.683,5.896,6.859,13.021,9.632,19.829c5.316,13.051,10.816,26.015,16.902,38.729
	c3.813,7.964,7.976,15.731,12.549,23.285c0.931,1.539,1.461,2.202,3.388,0.779c6.181-4.565,13.268-7.292,20.68-9.204
	c1.06-0.273,2.147-0.316,2.764-1.673c0.472-1.038,1.643,0.402,2.505-0.03c0.55,0.323,1.454-0.048,1.701,0.868
	c0.048,0.669-0.051,1.393,0.178,1.992c0.323,0.846,0.169,1.375-0.692,1.461c-1.121,0.111-1.266,0.845-1.532,1.72
	c-2.185,7.189-4.199,14.416-5.462,21.839c-0.171,1.007-0.183,1.991-0.254,2.987c-0.371,0.679,0.016,1.466-0.307,2.152
	c-0.035,0.632-0.069,1.264-0.104,1.897c-0.253,1.173-0.288,2.345,0.004,3.518c0.038,0.195,0.006,0.461,0.123,0.574
	c5.25,5.068,10.159,10.536,16.546,14.282c3.73,2.188,6.699,1.869,9.745-1.138c5.331-5.263,10.823-10.387,15.835-15.942
	c3.877-4.297,7.098-9.183,10.657-13.772c4.49-5.789,8.938-11.598,13.811-17.097c3.372-3.806,6.915-7.438,10.604-10.873
	c7.458-6.945,15.812-12.578,25.946-14.971c2.292-0.541,4.646-0.824,6.971-1.226c1.765-0.213,3.53-0.208,5.295-0.003
	c8.117,0.813,15.564,3.616,22.074,8.414c4.236,3.122,7.683,7.195,10.132,11.964c0.266,0.519,0.306,1.154,0.451,1.735
	c-0.71,0.416-1.555,0.005-2.273,0.372c-8.726,0.381-15.348,4.502-20.139,11.614c-3.788,5.624-5.31,12.104-6.581,18.661
	c-2.222,11.464,0.538,22.401,3.441,33.318c1.394,5.242,3.185,10.357,5.471,15.291c2.22,4.791,5.008,9.164,8.98,12.716
	c2.24,2.003,4.042,4.331,5.054,7.204c0.181,0.677,0.196,1.353-0.01,2.029c-1.929,3.446-4.489,6.064-8.641,6.596
	c-0.695,0.319-1.488-0.05-2.178,0.305c-1.402,0-2.804,0.001-4.206,0.001c-0.829-0.383-1.75,0.03-2.585-0.299
	c-7.495-0.72-14.61-2.977-21.674-5.412c-6.694-2.308-13.188-5.114-19.642-8.02c-6.154-2.771-12.281-5.6-18.268-8.714
	c-4.785-2.489-9.469-5.173-14.223-7.723c-1.104-0.592-2.224-1.236-3.545-1.262c-0.714-0.325-1.515,0.001-2.233-0.298
	c-3.54-0.305-7.08-0.232-10.62,0c-1.142,0.357-2.357-0.107-3.493,0.313c-0.877,0.037-1.754,0.073-2.631,0.11
	c-0.697,0.285-1.479-0.065-2.167,0.288c-0.502,0.035-1.003,0.07-1.505,0.105c-0.671,0.332-1.455-0.087-2.115,0.317
	c-5.818,0.554-11.494,1.811-17.151,3.255c-8.052,2.055-14.476,6.777-20.685,11.991c-15.056,12.642-30.789,24.319-48.357,33.319
	c-1.026,0.525-1.296,1.019-0.865,2.179c6.228,16.745,14.183,32.667,22.865,48.247c2.962,5.316,5.805,10.7,8.867,15.957
	c1.209,2.075,0.398,3.718-0.439,5.477c-0.405,0.851-1.248,0.701-1.97,0.706c-5.432,0.035-10.865,0.048-16.297,0.069
	c-1.391-0.436-2.849,0.077-4.245-0.301c-0.774-0.035-1.549-0.07-2.323-0.105c-0.825-0.387-1.741,0.025-2.574-0.295
	c-0.641-0.038-1.282-0.075-1.923-0.112c-0.682-0.367-1.469,0.012-2.158-0.305c-4.886-0.32-9.71-1.184-14.471-2.196
	c-6.063-1.289-12.003-3.085-17.9-5.086c-6.238-2.117-12.098-4.959-17.882-7.987c-4.999-2.616-9.671-5.801-14.072-9.348
	c-1.909-1.539-3.784-3.127-5.588-4.788c-6.145-5.657-11.294-12.147-15.737-19.197c-0.632-1.002-0.963-1.106-1.694-0.212
	c-5.425,6.631-12.197,11.577-19.722,15.525c-9.313,4.886-19.259,7.787-29.67,9.143c-2.311,0.301-4.623,0.595-6.935,0.893
	c-0.865,0.299-1.804-0.068-2.662,0.297c-0.264-0.012-0.711-0.122-0.764-0.023c-1.143,2.164-2.756,0.873-4.039,0.399
	c-1.434-0.53-0.375-2.003-0.65-3.02c-0.155-0.572-0.149-1.333,0.812-1.225c1.019,0.115,1.049-0.553,1.381-1.266
	c1.825-3.919,3.878-7.733,5.665-11.668c1.853-4.08,3.765-8.145,5.224-12.498c-10.937-1.704-21.854-3.36-32.921-5.993
	c0.885-0.664,1.526-1.146,2.26-1.696c-3.577-1.149-7.106-2.236-10.604-3.414c-11.228-3.781-21.567-9.303-31.334-15.97
	c-9.371-6.395-17.715-13.962-25.4-22.254c-5.661-6.108-10.704-12.733-15.44-19.587C95.277,525.842,91.557,519.469,87.93,513.039z"/>
<path fill="#D3CC00" d="M252.058,328.438c0.733,1.97,0.062,3.139-2.264,3.687c-3.004,0.707-6.075,0.567-9.122,0.445
	c-3.727-0.149-7.451-0.409-11.174-0.666c-3.569-0.246-6.654-1.769-9.553-3.747c-5.394-3.68-10.116-8.208-15.338-12.108
	c-6.098-4.554-12.61-8.261-20.159-9.78c-7.898-1.589-15.652-0.757-23.285,1.639c-0.835,0.262-1.686,0.471-2.53,0.705
	c-0.319-0.077-0.354-0.343-0.401-0.601c-0.857-1.372,0.193-1.525,1.127-1.845c6.593-2.258,13.369-3.189,20.324-2.87
	c0.674,0.376,1.458-0.014,2.139,0.309c10.677,1.824,19.394,7.424,27.451,14.28c0.819,0.697,1.2,0.965,2.081-0.147
	c4.494-5.669,10.313-9.07,17.574-10.043c7.367-0.987,13.01,1.725,17.401,7.512c1.583,2.087,2.718,4.491,4.555,6.396
	c0.47,0.233,0.888,0.518,1.054,1.056c0.102,0.637,0.175,1.265-0.622,1.539c-1.288-0.383-1.87-1.504-2.554-2.496
	c-1.577-2.287-3.053-4.64-4.807-6.808c-3.174-3.921-7.398-5.543-12.282-5.803c-7.307,0.583-13.473,3.401-18.241,9.111
	c-0.94,1.126-0.806,1.738,0.271,2.61c2.275,1.841,4.583,3.624,7.085,5.153c3.301,2.264,6.993,3.088,10.943,3.271
	c3.719,0.172,7.432,0.37,11.158,0.409C246.024,329.678,249.087,329.485,252.058,328.438z"/>
<path fill="#D2CB01" d="M251.315,324.072c0.472-0.529,0.276-1.148,0.234-1.746c-0.226-1.044-0.172-2.088,0.003-3.131
	c0.768-3.369,3.245-5.475,5.919-7.114c5.249-3.219,10.974-5.175,17.248-5.156c1.713,0.005,3.359,0.334,4.952,0.884
	c2.54,0.876,4.266,2.507,4.535,5.343c-2.326-3.319-5.791-4.105-9.489-3.978c-7.337,0.251-13.906,2.685-19.507,7.502
	c-1.01,0.869-2.006,1.821-2.406,3.185c-0.988,1.321,0.048,2.882-0.504,4.256c-0.133,0.332-0.042,0.907-0.66,0.74
	C251.303,324.765,251.122,324.46,251.315,324.072z"/>
<path fill="#0D0D0D" d="M173.837,341.06c-0.468-1.035-0.936-2.071-1.404-3.106c-0.772-0.85-0.812-1.76-0.227-2.725
	c0.602-1.016,1.44-1.731,2.63-1.156c1.521,0.734,1.941,2.101,1.651,3.715c-0.355,1.144-1.04,2.118-1.663,3.119
	C174.609,341.252,174.277,341.751,173.837,341.06z"/>
<path fill="#DCDCDC" d="M169.268,332.07c0.323-0.055,0.771,0.008,0.949-0.183c2.035-2.168,4.644-2.128,7.341-2.2
	c2.88-0.076,4.576,1.223,5.578,3.747c-1.084,0.327-1.547-0.58-2.143-1.135c-2.69-2.51-7.133-2.206-9.427,0.704
	c-0.458,0.581-0.929,1.148-1.421,1.7c-0.178,0.118-0.353,0.118-0.523-0.017C168.854,333.902,169.261,332.959,169.268,332.07z"/>
<path fill="#A9A9A9" d="M173.837,341.06c1.39-0.591,1.218-2.301,2.254-3.146c0.628,0.568,0.395,1.216,0.184,1.871
	c-0.919,2.852-0.656,3.443,2.073,4.656c0.251,0.112,0.485,0.235,0.65,0.462c-0.539,0.966-1.971,0.114-2.449,1.204
	c-1.126-0.211-1.384-1.126-1.65-2.034l0.001,0.001c-0.955-0.419-0.346-1.451-0.809-2.063
	C174.016,341.691,173.564,341.472,173.837,341.06z"/>
<path fill="#DCDCDC" d="M172.506,335.531c-0.415,0.796-0.456,1.603-0.072,2.423c-0.585-0.338-1.294-0.506-1.625-1.191
	c-0.081-0.797-0.582-1.498-0.53-2.328C171.644,333.537,172.034,334.616,172.506,335.531z"/>
<path fill="#5B5A5B" d="M177.849,349.333c0.994-0.085,0.508-1.375,1.315-1.612c0.924,0.162,0.514,0.908,0.564,1.4
	c0.087,0.869,0.204,1.712,0.632,2.488c-0.047,0.533-0.204,0.977-0.838,1.033c-0.209-0.406-0.418-0.813-0.627-1.22
	c-0.641-0.312-0.341-1.081-0.734-1.513C178.056,349.716,177.953,349.525,177.849,349.333z"/>
<path fill="#FCFCFC" d="M285.086,322.444c-0.005-2.042-0.01-4.083-0.015-6.125C285.787,318.359,285.747,320.401,285.086,322.444z"/>
<path fill="#FCFCFC" d="M280.616,342.033c0.203-1.322,0.603-2.583,1.169-3.792C281.866,339.65,281.885,341.04,280.616,342.033z"/>
<path fill="#FEFEFE" d="M532.002,433.384c-1.765,0.001-3.53,0.002-5.295,0.003C528.472,432.831,530.237,432.835,532.002,433.384z"/>
<path fill="#FCFCFC" d="M284.619,326.093c-0.01-1.129-0.02-2.258,0.435-3.326C285.718,323.981,285.328,325.058,284.619,326.093z"/>
<path fill="#FCFCFC" d="M360.6,653.907c1.424-0.036,2.85-0.096,4.244,0.301C363.428,654.121,361.971,654.619,360.6,653.907z"/>
<path fill="#FCFCFC" d="M174.899,344.073c0.527,0.697,0.809,1.593,1.65,2.034c0.108,0.091,0.139,0.203,0.093,0.337
	C175.262,346.241,174.83,345.341,174.899,344.073z"/>
<path fill="#C7C7C7" d="M170.403,334.731c0.279,0.649,0.909,1.227,0.405,2.032c-0.94-0.381-0.427-1.593-1.186-2.078
	c0.136,0,0.271-0.007,0.406-0.023C170.192,334.476,170.315,334.509,170.403,334.731z"/>
<path fill="#FCFCFC" d="M251.552,319.194c-0.001,1.044-0.002,2.087-0.003,3.131c-0.221-0.24-0.443-0.481-0.664-0.721
	C251.607,320.939,250.824,319.858,251.552,319.194z"/>
<path fill="#FCFCFC" d="M165.1,323.378c0.679,0.797,1.18,1.678,1.282,2.745C165.581,325.383,165.159,324.465,165.1,323.378z"/>
<path fill="#FCFCFC" d="M163.468,320.116c0.656,0.806,1.211,1.66,1.276,2.741C163.952,322.113,163.525,321.2,163.468,320.116z"/>
<path fill="#FCFCFC" d="M416.47,493.552c-0.568-1.172-0.247-2.344-0.004-3.517C416.468,491.207,416.469,492.38,416.47,493.552z"/>
<path fill="#FCFCFC" d="M158.978,311.144c0.67,0.633,0.946,1.469,1.196,2.318C159.307,312.931,159.012,312.105,158.978,311.144z"/>
<path fill="#FCFCFC" d="M447.293,532.189c1.13-0.486,2.318-0.325,3.493-0.313C449.675,532.574,448.458,532.092,447.293,532.189z"/>
<path fill="#FCFCFC" d="M377.06,305.751c-0.973,0.348-1.981,0.332-2.991,0.289C375.014,305.402,376.059,305.806,377.06,305.751z"/>
<path fill="#3C3C3C" d="M179.521,352.641c0.237-0.275,0.474-0.551,0.71-0.826c0.676,0.044,0.615,0.4,0.355,0.84
	c-0.126,0.267-0.253,0.534-0.379,0.8C179.901,353.249,179.566,353.068,179.521,352.641z"/>
<path fill="#FCFCFC" d="M167.141,327.474c0.577,0.508,0.872,1.145,0.877,1.914C167.34,328.927,167.143,328.245,167.141,327.474z"/>
<path fill="#FCFCFC" d="M540.991,563.306c0.879-0.053,1.753-0.058,2.585,0.299C542.708,563.561,541.792,563.931,540.991,563.306z"/>
<path fill="#FCFCFC" d="M174.091,342.01c0.27,0.688,0.54,1.375,0.809,2.063C173.577,343.799,174.255,342.74,174.091,342.01z"/>
<path fill="#FCFCFC" d="M205.288,630.135c0.854-0.401,1.76-0.335,2.662-0.297C207.122,630.463,206.18,630.07,205.288,630.135z"/>
<path fill="#FCFCFC" d="M355.703,653.507c0.875-0.048,1.743-0.044,2.574,0.295C357.413,653.759,356.502,654.122,355.703,653.507z"/>
<path fill="#FCFCFC" d="M160.612,314.379c0.523,0.377,0.683,0.943,0.798,1.533C160.726,315.618,160.57,315.05,160.612,314.379z"/>
<path fill="#FCFCFC" d="M371.758,306.161c-0.693,0.348-1.432,0.347-2.178,0.291C370.242,305.879,371.021,306.181,371.758,306.161z"
	/>
<path fill="#FCFCFC" d="M181.823,303.607c-0.732,0.034-1.463,0.057-2.139-0.309C180.406,303.335,181.181,303.012,181.823,303.607z"
	/>
<path fill="#FCFCFC" d="M461.406,531.876c0.766-0.067,1.53-0.116,2.232,0.298C462.885,532.147,462.085,532.47,461.406,531.876z"/>
<path fill="#FCFCFC" d="M442.496,532.587c0.689-0.345,1.424-0.347,2.167-0.288C444.003,532.865,443.228,532.567,442.496,532.587z"/>
<path fill="#FCFCFC" d="M438.876,533.009c0.667-0.362,1.386-0.373,2.115-0.317C440.358,533.277,439.591,532.97,438.876,533.009z"/>
<path fill="#FCFCFC" d="M158.233,308.013c0.134,0.2,0.268,0.401,0.401,0.601c-0.143,0.394-0.286,0.789-0.429,1.183
	C157.349,309.189,158.056,308.605,158.233,308.013z"/>
<path fill="#FCFCFC" d="M382.364,309.795c0.51-0.67,1.291-0.169,1.894-0.44C383.759,310.075,383.006,309.697,382.364,309.795z"/>
<path fill="#FCFCFC" d="M558.602,556.702c0.003-0.676,0.007-1.352,0.01-2.029C559.108,555.352,559.117,556.028,558.602,556.702z"/>
<path fill="#FCFCFC" d="M178.16,349.908c0.465,0.398,0.599,0.956,0.734,1.513C177.923,351.27,178.227,350.499,178.16,349.908z"/>
<path fill="#FCFCFC" d="M424.64,455.988c-0.337-0.74-1.258-0.337-1.701-0.868C423.629,455.168,424.559,454.746,424.64,455.988z"/>
<path fill="#FCFCFC" d="M176.622,346.418c0.47,0.487,0.862,1.007,0.77,1.742C176.799,347.728,176.534,347.151,176.622,346.418z"/>
<path fill="#FCFCFC" d="M284.253,328.16c-0.037-0.733-0.018-1.455,0.382-2.109C284.612,326.773,284.967,327.563,284.253,328.16z"/>
<path fill="#FCFCFC" d="M416.571,488.138c-0.052-0.739-0.073-1.474,0.307-2.152C416.851,486.714,417.159,487.49,416.571,488.138z"/>
<path fill="#FCFCFC" d="M162.243,317.675c0.52,0.365,0.692,0.914,0.794,1.501C162.371,318.888,162.202,318.338,162.243,317.675z"/>
<path fill="#FCFCFC" d="M562.385,455.869c0.703-0.462,1.539-0.104,2.273-0.372C563.997,456.209,563.151,455.796,562.385,455.869z"/>
<path fill="#FCFCFC" d="M351.621,653.09c0.742-0.059,1.472-0.036,2.158,0.305C353.05,653.369,352.272,653.676,351.621,653.09z"/>
<path fill="#FCFCFC" d="M547.782,563.604c0.694-0.329,1.433-0.342,2.178-0.305C549.303,563.894,548.519,563.58,547.782,563.604z"/>
<path fill="#68778E" d="M498.906,450.984c9.212-7.984,19.356-14.047,32.039-13.363c10.851,0.586,20.04,5.028,26.85,13.788
	c0.116,0.149,0.161,0.354,0.253,0.565c-2.012,0.691-4.029,1.245-5.934,2.061c-8.955,3.831-14.45,10.791-17.556,19.805
	c-3.482,10.108-4.846,20.445-3.027,31.076c0.172,1.007-0.034,1.644-0.992,2.146c-0.873,0.457-1.841,0.844-2.723,2.023
	c4.915,0.399,5.452,4.028,6.319,7.698c1.828,7.74,4.337,15.269,8.019,22.365c2.116,4.077,4.712,7.773,8.157,10.854
	c0.957,0.856,1.831,1.826,2.626,2.837c1.987,2.526,1.188,4.963-1.95,5.876c-4.092,1.191-8.236,0.732-12.316-0.002
	c-11.148-2.004-21.697-5.878-31.972-10.556c-0.306-0.52-0.175-1.067-0.021-1.575c1.093-3.608-1.552-7.354-4.427-8.651
	c-3.159-1.425-6.646-0.508-9.048,2.429c-0.345,0.422-0.692,0.827-1.149,1.127c-6.715-3.12-13.391-6.371-19.698-10.214
	c-4.972-3.029-10.2-3.906-15.762-3.805c-10.617,0.192-21.118,1.365-31.515,3.614c-10.026,2.169-18.536,6.967-26.253,13.647
	c-8.373,7.247-17.148,14.023-26.35,20.216c-0.994,0.389-1.847,0.012-2.697-0.469c-7.685-4.345-14.546-9.732-20.553-16.204
	c-0.837-0.901-1.487-1.93-2.113-2.979c-3.431-1.863-3.481-1.876-4.483,1.849c-1.506,5.599-1.025,11.24-0.212,16.878
	c0.115,0.799,0.188,1.604,0.281,2.407c0.223,3.339-0.6,6.605-0.702,9.919c-0.3,9.797,2.082,18.978,6.366,27.733
	c0.631,1.289,1.802,2.466,1.304,4.134c-0.973,0.855-2.227,0.949-3.405,1.214c-6.375,1.435-12.82,2.116-19.235,1.625
	c8.394,3.068,17.081,4.914,26.17,4.09c0.211-0.017,0.422,0.002,0.629,0.047c0.633,0.192,0.974,0.711,1.3,1.226
	c6.509,10.287,14.226,19.657,21.992,28.99c0.823,0.989,1.384,2.169,2.246,3.133c0.715,0.908,1.392,1.663-0.629,1.713
	c-20.759,0.51-41.126-1.664-60.659-9.133c-18.72-7.158-34.516-18.274-46.078-34.92c-1.784-2.569-3.214-5.358-4.83-8.03
	c-2.148-3.552-2.309-7.183-1.539-11.151c3.354-17.284,8.234-34.171,13.1-51.061c3.231-11.217,6.988-22.294,9.888-33.593
	c4.953-19.298,1.469-37.581-7.856-54.923c-4.307-8.01-9.704-15.23-16.003-21.793c-1.006-1.048-1.761-1.127-2.925-0.353
	c-3.071,2.043-5.824,4.461-8.529,6.947c-10.369,9.527-22.803,15.086-36.203,18.742c-11.31,3.086-22.862,4.63-34.547,5.411
	c-14.959,1-29.897,0.621-44.81-0.583c-18.761-1.516-37.379-4.156-55.799-8.053c-4.21-0.891-7.844-3.301-11.628-5.266
	c0.784-0.754,1.843-0.806,2.808-1.041c16.696-4.058,32.308-10.8,47.308-19.06c20.436-11.254,39.113-25.03,57.118-39.78
	c5.517-4.52,10.948-9.135,16.289-13.86c1.178-1.042,2.495-1.839,4.009-2.36c1.665-0.572,3.34-1.162,4.842-2.13
	c6.211-1.488,12.524-2.438,18.801-3.563c17.107-3.068,34.19-6.274,51.314-9.251c1.631-0.284,3.026-0.742,3.572-2.529
	c0.157-0.515,0.508-0.962,1.064-1.166c12.073,1.712,23.836,4.591,35.093,9.357c12.897,5.46,24.627,12.658,34.17,23.081
	c4.302,4.698,7.765,9.935,10.144,15.875c2.925,7.305,5.91,14.586,8.869,21.878c-0.881,0.777-1.838,0.268-2.712,0.069
	c-5.427-1.237-10.834-2.561-16.397-4.332c2.248,3.499,5.158,5.974,8.264,8.258c3.958,2.91,8.479,4.531,13.159,5.799
	c0.779,0.211,1.621,0.263,2.261,0.848c0.673,1.494,1.346,2.989,2.018,4.483c-0.741,0.675-1.543,0.267-2.306,0.094
	c-3.233-0.733-6.412-1.666-9.837-2.737c1.327,2.465,3.163,4.191,5.056,5.82c3.038,2.615,6.331,4.867,10.139,6.253
	c0.716,0.26,1.325,0.664,1.876,1.174c4.252,8.346,8.469,16.71,13.471,24.648c10.018,15.898,22.592,29.515,37.018,41.471
	c1.241,1.029,2.689,1.849,4.135,2.582c5.202,2.639,9.83,2.099,14.047-1.951c9.946-9.554,19.535-19.409,27.436-30.828
	c5.216-7.538,11.135-14.57,17.533-21.167c0.469-0.484,0.991-0.917,1.489-1.374c1.043-0.244,1.831,0.396,2.664,0.81
	c4.213,2.098,8.603,3.715,13.122,5.02c1.767,0.51,3.428,0.498,5.186-0.068c1.778-0.572,3.519-1.33,5.418-1.358
	c-2.258,0.064-4.32-0.734-6.31-1.58c-4.458-1.893-8.648-4.285-12.437-7.329C499.514,452.142,498.793,451.843,498.906,450.984z"/>
<path fill="#8AABB0" d="M99.074,455.018c7.536,1.033,15.059,2.167,22.61,3.079c19.199,2.319,38.456,3.373,57.799,2.429
	c14.231-0.695,28.272-2.545,41.952-6.663c13.314-4.007,25.486-10.08,35.65-19.785c1.472-1.406,3.126-2.619,4.664-3.958
	c0.739-0.643,1.256-0.695,1.977,0.12c15.201,17.179,24.505,36.604,22.978,60.161c-0.497,7.662-2.891,14.895-5.092,22.177
	c-6.482,21.437-12.91,42.892-17.954,64.728c-1.039,4.499-1.904,9.033-2.498,13.619c-0.329,2.546,0.085,4.844,1.545,6.967
	c0.729,1.059,0.654,1.58-0.895,1.603c-12.799,0.193-25.551-0.467-38.278-1.804c-10.547-1.108-21.007-2.763-31.43-4.684
	c-0.243-0.045-0.483-0.108-0.874-0.196c0.44-0.858,1.165-1.119,1.743-1.517c17.14-11.793,33.214-24.836,47.102-40.412
	c12.004-13.464,21.997-28.167,27.268-45.643c6.061-20.096,3.878-39.327-6.319-57.674c-0.594-1.069-1.277-1.37-2.418-1.359
	c-2.167,0.021-3.935,0.857-5.532,2.243c-4.053,3.52-7.974,7.195-12.358,10.326c-12.214,8.725-25.898,13.584-40.69,15.502
	c-22.239,2.883-43.892-0.469-65.289-6.306c-12.323-3.362-24.361-7.568-36.132-12.532C98.547,455.062,98.628,454.837,99.074,455.018z
	"/>
<path fill="#F0F0F0" d="M69.321,446.887c6.38,2.928,12.684,5.899,19.05,8.727c12.775,5.674,25.822,10.633,39.226,14.63
	c0.734,0.219,1.507,0.285,1.604,1.458c0.962,11.621,4.395,22.612,8.774,33.33c9.807,24.001,23.608,45.643,39.356,66.108
	c3.896,5.062,8.02,9.948,12.018,14.933c0.447,0.557,1.428,1.097,1.065,1.815c-0.512,1.013-1.586,0.407-2.401,0.238
	c-17.64-3.655-33.506-11.212-47.92-21.912c-20.548-15.254-35.645-35.046-47.654-57.398c-10.43-19.414-17.701-40.02-23.145-61.315
	C69.248,447.323,69.309,447.117,69.321,446.887z"/>
<path fill="#F0F0F0" d="M228.521,556.784c-1.008,1.119-2.003,2.223-3.202,3.553c-0.6-1.522-1.082-2.734-1.555-3.951
	c-0.272-0.7-0.634-0.832-1.35-0.461c-1.574,0.817-2.717,1.407-1.643,3.716c1.578,3.39,1.33,3.509-1.477,6.007
	c-7.164,6.376-14.693,12.295-22.468,17.905c-0.669,0.483-1.148,1.124-2.077,0.02c-14.891-17.712-28.563-36.28-39.795-56.556
	c-7.843-14.157-14.55-28.798-18.217-44.665c-0.642-2.778-1.125-5.585-1.496-8.416c-0.176-1.343,0.236-1.406,1.404-1.192
	c2.256,0.413,3.796,1.525,5.182,3.423c15.765,21.585,33.241,41.636,53.69,58.954c9.925,8.406,20.426,15.972,32.412,21.256
	C228.172,556.481,228.373,556.68,228.521,556.784z"/>
<path fill="#69788E" d="M377.837,309.857c-10.634,22.332-20.803,44.524-27.071,68.612c-2.858-3.295-5.78-6.095-8.904-8.672
	c-13.338-11.002-28.681-17.972-45.259-22.447c-0.458-0.124-0.931-0.209-1.373-0.377c-1.039-0.396-2.772-0.039-3.009-1.122
	c-0.211-0.964,1.282-1.764,2.074-2.582c14.223-14.695,31.794-23.386,51.324-28.532c9.873-2.602,19.942-4.027,30.102-4.872
	C376.324,309.813,376.935,309.857,377.837,309.857z"/>
<path fill="#F0F0F0" d="M148.548,475.719c3.423,0.566,6.396,1.064,9.372,1.549c12.389,2.019,24.835,2.84,37.364,1.695
	c0.943-0.086,1.419,0.015,1.819,1.011c8.394,20.902,19.766,40.253,31.142,59.6c1.891,3.216,3.815,6.413,5.748,9.604
	c0.479,0.79,0.817,1.396,0.004,2.298c-0.818,0.907-1.499,0.59-2.316,0.241c-10.197-4.353-19.295-10.485-27.916-17.361
	c-18.168-14.492-33.793-31.465-48.203-49.612C153.297,481.891,151.089,478.992,148.548,475.719z"/>
<path fill="#F0F0F0" d="M204.946,477.81c13.388-2.702,15.798-3.608,34.353-12.873c0.518,5.908,1.256,11.73,2.315,17.507
	c2.645,14.431,6.571,28.534,10.888,42.537c0.463,1.503-0.53,4.525-1.74,5.439c-0.633,0.478-1.021-0.028-1.44-0.292
	c-2.592-1.638-4.972-3.554-7.222-5.63c-9.24-8.526-16.897-18.411-24.291-28.505C213.482,490.084,209.342,484.038,204.946,477.81z"/>
<path fill="#818EA1" d="M202.648,364.845c-0.919,0.724-2.008,1.114-3.107,1.393c-3.661,0.929-6.15,3.594-8.83,5.933
	c-8.006,6.989-16.247,13.685-24.619,20.231c-9.348,7.309-18.997,14.186-28.952,20.631c-12.327,7.979-25.186,14.964-38.782,20.575
	c-8.537,3.523-17.233,6.521-26.239,8.589c-0.591,0.136-1.199,0.197-1.799,0.293c-0.497-0.111-0.856-0.352-0.181-0.671
	c0.791-0.374,1.66-0.582,2.491-0.875c21.859-7.709,41.474-19.429,59.833-33.413c9.202-7.009,17.645-14.89,26.268-22.57
	c8.087-7.203,16.913-13.411,26.331-18.764c0.633-0.36,1.225-0.882,2.035-0.843c1.107,1.098,2.384,1.262,3.886,0.937
	c3.1-0.669,6.228-1.207,9.359-1.712C201.129,364.452,201.945,364.195,202.648,364.845z"/>
<path fill="#3F4754" d="M259.133,603.883c-14.332,14.997-32.705,20.212-52.843,22.124c1.227-2.675,2.312-5.114,3.457-7.524
	c2.445-5.148,4.773-10.348,6.819-15.668c0.502-1.305,1.168-1.689,2.591-1.52c5.038,0.599,10.089,1.123,15.148,1.51
	C242.539,603.436,250.789,603.797,259.133,603.883z"/>
<path fill="#F0F0F0" d="M244.922,462.115c7.032,6.304,13.626,12.158,20.842,17.248c0.977,0.69,0.852,1.618,0.869,2.541
	c0.209,11.396-2.424,22.182-7.039,32.535c-0.606,1.361-1.262,2.699-1.903,4.044c-0.145,0.303-0.326,0.588-0.714,1.28
	C251.401,500.833,246.244,482.181,244.922,462.115z"/>
<path d="M251.315,324.072c0.228,0.256,0.526,1.214,0.634-0.033c0.124-1.43-0.292-2.961,0.856-4.179
	c0.281,2.905-0.181,5.746-0.746,8.578c-1.404,1.187-3.059,1.683-4.863,1.758c-6.446,0.267-12.874-0.042-19.279-0.751
	c-2.882-0.319-5.439-1.525-7.722-3.308c-1.049-2.108-0.514-4.191,0.497-6.03c2.022-3.678,4.189-7.276,7.746-9.796
	c1.009-0.715,1.944-1.437,3.176-1.667c5.656,0.057,10.142,2.368,13.541,6.899C247.261,318.35,248.824,321.546,251.315,324.072z"/>
<path fill="#363D49" d="M347.113,545.292c0.887,0.444,1.315,1.319,1.941,2.016c6.247,6.953,13.528,12.607,21.689,17.143
	c0.541,0.301,1.104,0.508,1.733,0.493c-6.588,4.546-13.477,8.59-20.498,12.425c-1.472,0.804-2.104,0.809-2.607-1.012
	c-2.002-7.253-3.915-14.501-3.875-22.112C345.512,551.153,346.496,548.261,347.113,545.292z"/>
<path fill="#D3CC00" d="M202.648,364.845c-4.208,0.705-8.442,1.291-12.613,2.174c-1.734,0.367-2.527-0.104-2.939-1.665
	c5.494-1.505,11.117-2.411,16.688-3.553c23.996-4.919,48.003-9.783,72.015-14.624c0.507-0.102,1.66-1.174,1.645,0.571
	c-0.557,3.181-2.694,4.026-5.657,4.534c-16.288,2.792-32.537,5.806-48.8,8.744c-6.398,1.156-12.797,2.307-19.194,3.47
	C203.404,364.568,203.03,364.727,202.648,364.845z"/>
<path fill="#F0F0F0" d="M213.218,499.584c5.159,6.742,10.228,13.554,15.909,19.881c5.412,6.028,11.083,11.765,18.01,16.159
	c-2.648,3.569-5.284,7.006-8.336,10.367c-2.925-4.92-5.779-9.669-8.582-14.447c-5.765-9.826-11.43-19.709-16.647-29.842
	c-0.277-0.538-0.512-1.097-0.766-1.646C212.598,499.595,212.849,499.538,213.218,499.584z"/>
<path fill="#69778E" d="M418.676,460.682c-2.855,9.579-5.358,18.801-6.275,28.561c-1.598-1.054-2.571-2.508-3.719-3.778
	c-3.742-4.14-7.137-8.554-10.355-13.11c-0.64-0.905-0.9-1.522,0.187-2.332C404.474,465.582,411.136,462.703,418.676,460.682z"/>
<path fill="#586577" d="M349.567,608.046c-1.238-3.296-3.043-6.329-4.299-9.632c-2.855-7.504-4.274-15.23-3.782-23.222
	c0.18-2.921,0.287-5.919,1.213-8.767c1.844,7.475,4.013,14.845,6.782,22.04c2.236,5.807,4.778,11.48,7.265,17.178
	c-1.892,1.702-4.33,2.039-6.654,2.665C349.872,608.312,349.697,608.224,349.567,608.046z"/>
<path fill="#A0405D" d="M370.296,428.581c-6.373-0.896-12.082-3.36-17.162-7.291c-2.903-2.246-5.48-4.799-7.695-8.396
	c7.014,1.869,13.531,3.959,20.282,5.046C367.246,421.487,368.771,425.034,370.296,428.581z"/>
<path fill="#586577" d="M379.366,648.536c-2.737-2.448-4.842-5.459-7.157-8.265c-5.513-6.681-10.834-13.523-15.683-20.713
	c-0.871-1.292-1.648-2.647-2.468-3.973c2.142-1.207,4.481-1.367,6.864-1.296c5.79,11.463,11.986,22.706,18.364,33.851
	C379.349,648.252,379.341,648.404,379.366,648.536z"/>
<path fill="#F0F0F0" d="M248.762,457.774c2.558-2.249,4.962-4.343,7.342-6.464c1.15-1.025,1.788-0.887,2.531,0.572
	c3.057,6.008,5.366,12.267,6.745,18.866c0.064,0.304,0.051,0.624,0.093,1.2C259.572,467.424,254.16,462.722,248.762,457.774z"/>
<path fill="#A0405D" d="M498.906,450.984c6.932,5.634,12.037,8.219,20.775,10.44c-3.012,0.907-5.726,1.908-8.527,2.497
	c-1.567,0.329-3.166-0.541-4.717-0.996c-4.904-1.441-9.588-3.417-14.068-5.878C494.374,454.837,496.469,452.726,498.906,450.984z"/>
<path fill="#A6AFBC" d="M492.054,541.486c1.839-4.008,6.13-5.778,10.105-4.189c3.472,1.388,6.822,5.816,4.54,10.858
	C501.675,546.246,496.869,543.856,492.054,541.486z"/>
<path fill="#FCFCFC" d="M170.403,334.731c-0.123-0.037-0.248-0.06-0.376-0.069c0.811-2.187,2.738-4.069,5.79-4.533
	c3.375-0.513,5.205,1.505,7.319,3.305c0.952,1.584,0.633,3.079-0.34,4.513c-0.415,0.612-0.837,1.228-1.324,1.782
	c-1.316,1.496-3.299,2.657-2.475,5.173c-3.365-0.165-4.627-2.251-3.129-5.249c0.295-0.59,0.402-1.126,0.222-1.739
	c0.013-0.526,0.097-1.062,0.023-1.576c-0.155-1.081-0.832-1.822-1.857-2.101c-1.023-0.278-1.247,0.746-1.751,1.294
	C171.686,335.576,171.569,333.776,170.403,334.731z"/>
<path fill="#A0405D" d="M377.241,443.667c-7.614-2.434-13.549-7.073-18.479-14.065c4.908,1.162,9.106,2.837,13.552,3.462
	C373.957,436.598,375.599,440.132,377.241,443.667z"/>
<path fill="#99334F" d="M360.922,614.29c-2.218,0.805-4.546,1.022-6.864,1.295c-0.133-0.031-0.265-0.064-0.398-0.096
	c-1.593-1.734-2.611-3.829-3.671-5.895c-0.241-0.47-0.435-0.991-0.02-1.494c2.26-0.819,4.52-1.638,6.779-2.457
	C358.139,608.525,359.53,611.408,360.922,614.29z"/>
<path fill="#F2F2F2" d="M180.346,350.56c2.28,0.302,4.579,1.581,6.811-0.252c0.422-0.346,1.084-0.205,1.44,0.309
	c0.341,0.491,0.647,1.027,0.858,1.584c0.422,1.119,1.146,2.452-0.075,3.332c-1.157,0.833-1.869-0.468-2.667-1.128
	c-1.418-1.173-3.226-0.715-4.837-1.091C181.434,352.359,180.164,351.863,180.346,350.56z"/>
<path fill="#DBDBDB" d="M180.346,350.56c0.34,1.012,1.489,1.576,1.53,2.754c-0.696,0.301-0.948-0.267-1.29-0.659
	c0.179-0.406-0.095-0.62-0.355-0.84c-0.852-1.236-1.039-2.644-1.067-4.095c2.074-1.353,3.647-3.257,5.426-4.935
	c0.55,0.075,0.88,0.391,1.012,0.924C184.113,346.195,181.758,348.016,180.346,350.56z"/>
<path fill="#EAEAEA" d="M185.602,343.709c-0.337-0.308-0.674-0.616-1.012-0.924c0,0-0.003,0.006-0.003,0.006
	c1.105-0.903,0.739-2.071,0.579-3.202c0.031-1.199,0.33-1.733,1.433-0.65C188.802,341.102,188.64,341.923,185.602,343.709z"/>
<path fill="#DBDBDB" d="M185.167,339.588c0.444,1.183,0.926,2.372-0.579,3.202C185.078,341.777,185.194,340.696,185.167,339.588z"/>
<path fill="#CCCCCC" d="M213.218,499.584c-0.137,0.157-0.275,0.314-0.412,0.471c-0.463-0.445-0.77-0.955-0.787-1.685
	C212.782,498.537,213.003,499.058,213.218,499.584z"/>
<path fill="#6F8A8E" d="M99.074,455.018c-0.157,0.141-0.313,0.281-0.47,0.422c-0.415-0.119-0.83-0.239-1.245-0.358
	c-0.121-0.093-0.162-0.188-0.125-0.285c0.038-0.097,0.076-0.146,0.116-0.146C97.943,454.687,98.563,454.596,99.074,455.018z"/>
<path fill="#2D3739" d="M97.35,454.65c0.003,0.144,0.006,0.288,0.009,0.431c-0.418-0.171-0.836-0.343-1.278-0.524
	C96.583,454.052,96.973,454.277,97.35,454.65z"/>
<path fill="#242424" d="M231.614,308.644c-4.799,2.858-8.11,7.059-10.642,11.926c-0.899,1.728-0.826,3.667-0.778,5.567
	c-2.908-1.507-5.226-3.813-7.819-5.746c-0.983-0.733-0.359-1.247,0.078-1.803c4.1-5.217,9.415-8.432,15.95-9.594
	C229.46,308.806,230.543,308.757,231.614,308.644z"/>
<path d="M229.344,376.983c1.522-0.275,3.01,0.517,4.583-0.318c0.844-0.449,2.161,0.631,3.025,1.341
	c0.61,0.501-0.108,1.253-0.382,1.802c-1.509,3.021-3.081,6.01-4.632,9.011c-0.269,0.52-0.708,0.797-1.264,0.94
	c-0.591,0.152-1.177,0.323-1.759,0.507c-1.421,0.45-3.291,0.512-4.143,1.473c-1.05,1.186,0.748,2.52,1.111,3.861
	c1.355,4.999-0.411,10.151-5.023,13.66c-8.521,6.484-22.084,4.412-27.147-4.276c-0.491-0.842-0.898-1.053-1.708-0.46
	c-3.162,2.314-6.581,4.299-8.649,7.865c-1.155,1.992-2.298,0.067-3.381-0.335c-1.18-0.438-0.65-1.122-0.196-1.887
	c3.047-5.14,6.054-10.291,10.199-14.678C200.698,384.143,214.047,378.477,229.344,376.983z"/>
<path d="M306.697,530.57c6.91-15.243,8.578-31.296,7.487-47.801c-1.097-16.6-5.031-32.56-10.653-48.152
	c-0.219-0.607-0.449-1.211-0.685-1.847c0.838-0.117,0.947,0.549,1.204,0.954c8.794,13.845,14.638,28.803,16.464,45.155
	c2.123,19.013-2.371,36.404-13.452,52.049C306.706,531.05,306.524,530.992,306.697,530.57z"/>
<path d="M319.772,522.827c5.838-13.223,7.455-27.111,6.685-41.416c-0.842-15.665-4.487-30.71-9.704-45.43
	c-0.036-0.101,0.009-0.231,0.017-0.358c0.648-0.263,0.831,0.291,1.052,0.656c8.484,13.992,13.913,28.992,14.563,45.465
	c0.598,15.16-3.57,28.984-12.242,41.442C319.783,523.311,319.601,523.252,319.772,522.827z"/>
<path d="M331.554,513.776c4.119-9.73,5.699-19.955,5.614-30.434c-0.085-10.439-1.755-20.684-4.491-30.757
	c-1.218-4.483-2.617-8.91-4.218-13.316c0.924-0.135,1.101,0.485,1.357,0.914c7.974,13.395,12.914,27.689,12.35,43.477
	c-0.403,11.272-3.905,21.574-10.512,30.771C331.444,514.239,331.411,514.021,331.554,513.776z"/>
<path fill="#3F5476" d="M300.601,405.061c0.017-4.336,3.688-7.914,8.132-7.926c4.222-0.011,8.271,4.075,8.178,8.253
	c-0.095,4.276-4.057,8.085-8.382,8.06C304.152,413.422,300.583,409.647,300.601,405.061z"/>
<path fill="#3F5476" d="M301.311,396.329c-4.767-0.004-8.091-3.325-8.061-8.053c0.029-4.439,3.58-7.91,8.093-7.886
	c5.018,0.027,8.01,3.431,8.09,8.109C309.497,392.185,306.703,396.552,301.311,396.329z"/>
<path fill="#A23D5B" d="M349.968,608.1c0.513,2.085,1.859,3.738,2.894,5.55c0.337,0.59,0.747,1.131,0.797,1.839
	c-2.937,0.818-5.957,0.539-8.89,0.292c-6.287-0.529-12.409-1.968-18.27-4.384c-0.358-0.148-0.793-0.175-1.038-0.842
	c8.223,0.413,16.239-0.388,24.106-2.508C349.699,608.081,349.832,608.099,349.968,608.1z"/>
<path fill="#3F5476" d="M317.364,398.358c-3.359,0.011-6.17-2.632-6.108-6.015c0.068-3.699,2.659-5.84,6.33-6.11
	c2.978-0.218,5.825,2.978,5.867,6.125C323.496,395.684,320.795,398.346,317.364,398.358z"/>
<path fill="#3F5476" d="M329.992,401.567c0.017,2.324-1.601,4.066-3.829,4.122c-2.13,0.053-4.25-2.021-4.208-4.116
	c0.041-2.046,2.03-3.997,4.101-4.022C328.241,397.525,329.975,399.294,329.992,401.567z"/>
<path fill="#A6AFBC" d="M486.44,536.722c-2.328-0.008-4.211-1.851-4.18-4.088c0.026-1.866,2.104-3.909,4.015-3.949
	c2.1-0.043,4.104,1.9,4.102,3.977C490.374,534.971,488.668,536.73,486.44,536.722z"/>
<path fill="#A2ABB9" d="M493.961,515.444c1.243,0.362,2.135,0.964,2.08,2.224c-0.049,1.142-0.806,1.902-1.971,1.848
	c-1.213-0.056-2.023-0.859-1.989-2.08C492.114,516.294,493.058,515.8,493.961,515.444z"/>
<path fill="#425677" d="M334.174,414.68c0.993,0.277,1.854,0.874,1.87,2.015c0.018,1.331-1.087,1.968-2.172,1.947
	c-1.062-0.02-1.859-0.897-1.795-2.067C332.141,415.407,332.932,414.8,334.174,414.68z"/>
<path fill="#A0AAB8" d="M498.601,528.967c-0.071,1.664-0.618,2.417-1.851,2.434c-1.212,0.017-1.899-0.654-1.885-1.867
	c0.014-1.235,0.651-2.153,1.937-2.089C497.885,527.499,498.705,528.142,498.601,528.967z"/>
<path fill="#415577" d="M322.356,410.169c1.526,0.009,2.329,0.561,2.308,1.918c-0.018,1.12-0.662,1.74-1.78,1.77
	c-1.342,0.036-2.033-0.882-2.102-2.001C320.719,410.837,321.411,410.106,322.356,410.169z"/>
<path fill="#9EA8B6" d="M489.964,524.44c0.098-0.909,0.645-1.641,1.802-1.56c1.07,0.075,1.848,0.753,1.762,1.854
	c-0.073,0.928-0.801,1.7-1.757,1.68C490.783,526.393,489.936,525.863,489.964,524.44z"/>
<path fill="#425677" d="M331.509,410.606c-0.27,0.999-0.744,1.836-1.872,1.773c-0.886-0.05-1.743-0.361-1.694-1.553
	c0.05-1.215,0.673-1.835,1.887-1.855C330.951,408.952,331.267,409.747,331.509,410.606z"/>
<path fill="#333B46" d="M319.772,522.827c0.124,0.12,0.248,0.239,0.371,0.359c-0.118,0.49-0.434,0.823-0.969,1.199
	C319.03,523.641,319.363,523.221,319.772,522.827z"/>
<path fill="#2E353F" d="M306.697,530.57c0.122,0.119,0.244,0.239,0.366,0.358c-0.148,0.513-0.423,0.92-0.98,1.143
	C305.945,531.411,306.281,530.975,306.697,530.57z"/>
<path fill="#1C2027" d="M331.554,513.776c0.033,0.218,0.066,0.435,0.1,0.654c-0.049,0.433-0.269,0.737-0.71,0.918
	C330.797,514.673,331.168,514.221,331.554,513.776z"/>
<path fill="#314395" d="M192.015,399.15c9.319-10.409,21.044-16.172,34.802-17.968c1.419-0.185,3.487-1.103,4.131,0.141
	c0.598,1.154-1.102,2.71-1.684,4.136c-0.367,0.9-1.227,0.981-1.987,1.234c-7.777,2.589-15.754,4.556-23.412,7.516
	c-3.93,1.519-7.681,3.415-11.376,5.426C192.057,399.742,191.927,399.553,192.015,399.15z"/>
<path fill="#F0F0F0" d="M204.681,407.726c4.722-2.08,5.059-5.867,0.754-9.915c4.543-1.916,9.274-3.04,13.865-4.576
	c0.852-0.285,1.07,0.332,1.417,0.792c2.556,3.38,2.216,7.977-1.035,11.072c-4.271,4.067-9.424,4.706-14.969,3.418
	C204.449,408.265,204.452,408,204.681,407.726z"/>
<path fill="#C7C7C7" d="M198.542,404.801c-0.585-0.142-0.782-0.689-1.109-1.088c-1.141-1.392-0.987-2.353,1.179-2.714
	c-0.105,1.18-0.263,2.343,0.038,3.47C198.735,404.618,198.699,404.729,198.542,404.801z"/>
<path fill="#161616" d="M198.542,404.801c-0.034-0.134,0.002-0.244,0.108-0.333c1.038,0.415,1.381,1.474,2.046,2.249
	C199.795,406.282,198.794,405.972,198.542,404.801z"/>
<path fill="#1F2A5E" d="M192.015,399.15c0.158,0.162,0.316,0.323,0.474,0.485c-0.413,0.411-0.862,0.757-1.507,0.87
	C191.018,399.767,191.539,399.476,192.015,399.15z"/>
<path fill="#979797" d="M204.681,407.726c0.011,0.264,0.022,0.528,0.033,0.792c-0.576,0.116-0.965-0.225-1.46-0.612
	C203.752,407.621,204.199,407.577,204.681,407.726z"/>
</svg>
